<svg width="245" height="44" viewBox="0 0 245 44" fill="none" xmlns="http://www.w3.org/2000/svg">
<g clip-path="url(#clip0_1_24187)">
<path d="M35.1169 3.53788C24.6474 5.49436 14.449 7.38146 4.25054 9.31019C3.59442 9.43508 2.42481 9.19919 2.48186 10.0872C2.53891 11.2112 3.73705 11.0447 4.59287 11.0447C15.8896 11.0447 27.1864 11.0447 38.4831 11.0447C43.347 11.0447 45.0586 12.7236 45.0586 17.4969C45.0586 22.1175 45.0586 22.1175 40.266 22.1175C39.453 22.1175 38.6543 22.0898 37.8412 22.1314C34.8744 22.284 32.849 24.3793 32.7919 27.2932C32.7349 30.1099 34.5891 32.3023 37.4704 32.5521C39.4388 32.7325 41.4357 32.7186 43.404 32.6215C44.8161 32.5521 45.1727 33.0516 45.0729 34.3282C44.9588 35.8129 45.0729 37.3253 45.0443 38.8239C44.9873 41.7933 43.0047 43.9302 40.0093 43.9441C28.3417 43.9996 16.6884 43.9996 5.02078 43.9441C2.11101 43.9302 0.0570543 41.8488 0.0427907 39.0182C0 29.3884 0.0285271 19.7586 0 10.115C0 8.24176 0.927132 7.1872 2.68155 6.70155C10.1985 4.57856 17.7153 2.40007 25.2608 0.360336C29.0549 -0.666469 32.6208 0.526845 35.1169 3.53788Z" fill="#F8CD53"/>
<path d="M41.4776 31.1371C40.3793 31.1371 39.281 31.1926 38.1827 31.1232C36.0575 30.9983 34.6311 29.6108 34.517 27.5849C34.4029 25.5729 35.6438 23.8801 37.7548 23.6997C40.1511 23.4916 42.5759 23.6165 44.9865 23.5609C45.7567 23.5471 46.0134 23.894 45.9849 24.5878C45.9564 25.2954 45.9707 26.017 45.9707 26.7246C45.9849 31.151 45.9849 31.151 41.4776 31.1371ZM40.0798 27.2519C39.8231 26.3222 39.3238 25.5036 38.0686 25.5313C36.7564 25.5591 36.0289 26.2528 36.086 27.5294C36.1431 28.7089 36.9846 29.3333 38.1257 29.2778C39.2382 29.2223 39.9514 28.5285 40.0798 27.2519Z" fill="#3D4044"/>
<path d="M11.553 8.92216C18.5564 7.77047 25.5455 6.57716 32.5489 5.49485C35.5871 5.02307 37.0134 6.036 38.4968 9.28293C38.3114 9.51882 38.1117 9.74083 37.9263 9.97672C29.1399 9.97672 20.3536 9.97672 11.5672 9.97672C11.5672 9.62982 11.5672 9.28293 11.553 8.92216Z" fill="#F8CD53"/>
<path d="M11.553 8.92216C11.5672 9.26905 11.5672 9.62982 11.5815 9.97672C9.54179 10.2265 7.48784 10.171 5.19141 10.0322C7.43079 9.39394 9.47048 9.00541 11.553 8.92216Z" fill="#F8CD53"/>
<path d="M37.9414 9.97675C38.1268 9.74086 38.3265 9.51885 38.5119 9.28296C38.7972 9.44947 38.8828 9.76861 38.6974 9.94899C38.5547 10.0878 38.1982 9.97675 37.9414 9.97675Z" fill="#F8CD53"/>
</g>
<path d="M75.8389 9.87988C76.2926 9.87988 76.5195 10.1178 76.5195 10.5938C76.5195 10.8372 76.4421 11.1195 76.2871 11.4404C76.1432 11.7503 76.027 12.0049 75.9385 12.2041L66.9238 34.4668L56 10.0625H65.0645L70.3438 22.4805L74.0459 13.2168C74.4443 12.2207 74.7044 11.5013 74.8262 11.0586C74.9479 10.6159 75.0807 10.3115 75.2246 10.1455C75.3685 9.96842 75.5732 9.87988 75.8389 9.87988Z" fill="black"/>
<path d="M94.5654 32.126C95.1299 32.126 95.4121 32.3473 95.4121 32.79C95.4121 32.9893 95.2904 33.1663 95.0469 33.3213C94.8034 33.4762 94.3828 33.5537 93.7852 33.5537H79.7236V10.0625C84.0843 10.0625 88.445 10.0625 92.8057 10.0625L94.167 10.0127C94.9971 10.0127 95.4121 10.2562 95.4121 10.7432C95.4121 10.9313 95.3402 11.1084 95.1963 11.2744C95.0635 11.4294 94.9085 11.5068 94.7314 11.5068C94.4437 11.5068 94.1393 11.4736 93.8184 11.4072C93.3424 11.3076 92.6895 11.2578 91.8594 11.2578H88.1904V16.3213H91.2119C91.2119 16.3213 91.8926 16.2936 93.2539 16.2383C93.4974 16.2383 93.7021 16.2992 93.8682 16.4209C94.0452 16.5316 94.1338 16.6921 94.1338 16.9023C94.1338 17.3672 93.8239 17.5996 93.2041 17.5996L92.4902 17.583C92.125 17.5498 91.8206 17.5332 91.5771 17.5332H88.1904V32.3418H91.8594C92.6784 32.3418 93.2594 32.3086 93.6025 32.2422C94.012 32.1647 94.333 32.126 94.5654 32.126Z" fill="black"/>
<path d="M101.355 31.1797L101.405 32.8398C101.405 33.1276 101.328 33.349 101.173 33.5039C101.018 33.6589 100.83 33.7363 100.608 33.7363C100.398 33.7363 100.221 33.6644 100.077 33.5205C99.9333 33.3766 99.8613 33.2217 99.8613 33.0557C99.8613 32.8786 99.8724 32.7181 99.8945 32.5742C99.9277 32.4193 99.9554 32.2477 99.9775 32.0596C100.033 31.7386 100.061 30.9362 100.061 29.6523V9L118.106 23.3105V13.416C118.106 12.6634 118.084 12.1266 118.04 11.8057C117.985 11.2855 117.957 10.9202 117.957 10.71C117.957 10.1566 118.195 9.87988 118.671 9.87988C118.859 9.87988 119.036 9.94629 119.202 10.0791C119.379 10.2119 119.468 10.4056 119.468 10.6602V11.2412L119.401 13.6484V34.4668L101.355 20.3057V31.1797Z" fill="black"/>
<path d="M142.411 10.4941C142.411 11.0033 141.874 11.2578 140.801 11.2578H136.949V33.5537H128.449V11.2578H125.959C125.107 11.2578 124.52 11.2965 124.199 11.374C123.779 11.4626 123.474 11.5068 123.286 11.5068C122.722 11.5068 122.439 11.2855 122.439 10.8428C122.439 10.3226 122.987 10.0625 124.083 10.0625H138.892C139.655 10.0625 140.22 10.0293 140.585 9.96289C141.028 9.88542 141.36 9.84668 141.581 9.84668C142.134 9.84668 142.411 10.0625 142.411 10.4941Z" fill="black"/>
<path d="M166.649 10.7598L166.55 12.8184V22.7461C166.55 26.0221 165.609 28.6839 163.728 30.7314C161.802 32.8232 159.245 33.8691 156.058 33.8691C152.649 33.8691 149.993 32.8011 148.089 30.665C146.318 28.7061 145.433 26.1937 145.433 23.1279V10.0625H153.916V32.458C154.768 32.5798 155.703 32.6406 156.722 32.6406C157.751 32.6406 158.791 32.4359 159.843 32.0264C160.905 31.6169 161.835 30.9749 162.632 30.1006C164.358 28.2191 165.233 25.4688 165.255 21.8496V12.8516C165.255 12.5195 165.227 12.1266 165.172 11.6729C165.128 11.2191 165.105 10.9092 165.105 10.7432C165.105 10.1676 165.377 9.87988 165.919 9.87988C166.406 9.87988 166.649 10.1732 166.649 10.7598Z" fill="black"/>
<path d="M183.201 25.502L184.562 25.6016C186.51 25.6016 188.165 24.9209 189.526 23.5596C190.888 22.1982 191.568 20.5049 191.568 18.4795C191.568 15.8232 190.401 13.8532 188.065 12.5693C186.782 11.861 185.409 11.4515 183.948 11.3408C183.328 11.2855 182.753 11.2578 182.222 11.2578H181.093C180.86 11.2578 180.656 11.2633 180.479 11.2744V33.5537H172.012V10.0625C174.602 10.0625 176.699 10.0625 178.304 10.0625C179.909 10.0625 180.954 10.068 181.441 10.0791C181.928 10.0902 182.36 10.1068 182.736 10.1289C183.124 10.14 183.483 10.1566 183.815 10.1787C184.302 10.223 184.989 10.3281 185.874 10.4941C186.771 10.6602 187.656 10.9756 188.53 11.4404C189.405 11.9053 190.157 12.4808 190.788 13.167C192.149 14.6279 192.83 16.3656 192.83 18.3799C192.83 20.3721 192.199 22.1318 190.938 23.6592C189.643 25.2197 187.916 26.2269 185.758 26.6807C186.787 29.8682 188.099 31.7718 189.692 32.3916C190.179 32.5798 190.666 32.6738 191.153 32.6738L192.465 32.3584C192.874 32.3584 193.079 32.5687 193.079 32.9893C193.079 33.5758 192.393 33.8691 191.021 33.8691C190.024 33.8691 189.111 33.5924 188.281 33.0391C186.986 32.2643 185.885 30.7591 184.978 28.5234L184.496 27.3447C184.419 27.1566 184.347 27.0404 184.28 26.9961C184.225 26.9518 184.12 26.9297 183.965 26.9297C183.821 26.9297 183.694 26.9408 183.583 26.9629L183.185 26.9795C182.742 26.9795 182.438 26.8965 182.271 26.7305C182.117 26.5645 182.039 26.3929 182.039 26.2158C182.039 25.7399 182.426 25.502 183.201 25.502Z" fill="black"/>
<path d="M196.665 10.0625H205.132V33.5537H196.665V10.0625Z" fill="black"/>
<path d="M212.221 31.1797L212.271 32.8398C212.271 33.1276 212.193 33.349 212.038 33.5039C211.883 33.6589 211.695 33.7363 211.474 33.7363C211.263 33.7363 211.086 33.6644 210.942 33.5205C210.799 33.3766 210.727 33.2217 210.727 33.0557C210.727 32.8786 210.738 32.7181 210.76 32.5742C210.793 32.4193 210.821 32.2477 210.843 32.0596C210.898 31.7386 210.926 30.9362 210.926 29.6523V9L228.972 23.3105V13.416C228.972 12.6634 228.95 12.1266 228.905 11.8057C228.85 11.2855 228.822 10.9202 228.822 10.71C228.822 10.1566 229.06 9.87988 229.536 9.87988C229.724 9.87988 229.901 9.94629 230.067 10.0791C230.244 10.2119 230.333 10.4056 230.333 10.6602V11.2412L230.267 13.6484V34.4668L212.221 20.3057V31.1797Z" fill="black"/>
<path d="M235.944 10.0625H244.411V33.5537H235.944V10.0625Z" fill="black"/>
<defs>
<clipPath id="clip0_1_24187">
<rect width="46" height="44" fill="white"/>
</clipPath>
</defs>
</svg>
