<svg width="194" height="490" viewBox="0 0 194 490" fill="none" xmlns="http://www.w3.org/2000/svg">
<g opacity="0.38">
<path d="M170.406 527C191.406 470.5 208.489 363.699 170.406 318C92.9062 225 51.4063 155 96.4063 94.5C131.474 47.3537 193.907 31 170.406 -23" stroke="#BF9B33"/>
<path d="M145.238 527C166.238 470.5 183.321 363.699 145.238 318C67.7382 225 26.2383 155 71.2383 94.5C106.306 47.3537 168.739 31 145.238 -23" stroke="#BF9B33"/>
<path d="M120.07 527C141.07 470.5 158.153 363.699 120.07 318C42.5702 225 1.07033 155 46.0703 94.5C81.1378 47.3537 143.571 31 120.07 -23" stroke="#BF9B33"/>
<path d="M94.9025 527C115.903 470.5 132.985 363.699 94.9025 318C17.4023 225 -24.0976 155 20.9024 94.5C55.9698 47.3537 118.403 31 94.9025 -23" stroke="#BF9B33"/>
<path d="M69.7346 527C90.7346 470.5 107.817 363.699 69.7346 318C-7.76571 225 -49.2656 155 -4.26561 94.5C30.8019 47.3537 93.2347 31 69.7346 -23" stroke="#BF9B33"/>
<path d="M44.5666 527C65.5666 470.5 82.6494 363.699 44.5666 318C-32.9337 225 -74.4336 155 -29.4336 94.5C5.6339 47.3537 68.0668 31 44.5666 -23" stroke="#BF9B33"/>
<path d="M24.5666 527C45.5666 470.5 62.6494 363.699 24.5666 318C-52.9337 225 -94.4336 155 -49.4336 94.5C-14.3661 47.3537 48.0668 31 24.5666 -23" stroke="#BF9B33"/>
<path d="M4.56659 527C25.5666 470.5 42.6494 363.699 4.56659 318C-72.9337 225 -114.434 155 -69.4336 94.5C-34.3661 47.3537 28.0668 31 4.56659 -23" stroke="#BF9B33"/>
<path d="M-15.4334 527C5.56659 470.5 22.6494 363.699 -15.4334 318C-92.9337 225 -134.434 155 -89.4336 94.5C-54.3661 47.3537 8.06676 31 -15.4334 -23" stroke="#BF9B33"/>
</g>
</svg>
