<svg width="98" height="258" viewBox="0 0 98 258" fill="none" xmlns="http://www.w3.org/2000/svg">
<path d="M-31.9759 207.715C-53.0498 207.715 -72.8666 199.519 -87.754 184.613C-102.675 169.741 -110.879 149.945 -110.879 128.859C-110.879 107.807 -102.675 88.0103 -87.754 73.1381C-72.8666 58.2329 -53.0498 50.0366 -31.9759 50.0366C-10.9019 50.0366 8.91484 58.2329 23.8022 73.1381C38.7227 88.0103 46.9273 107.807 46.9273 128.859C46.9273 149.912 38.7227 169.708 23.8022 184.613C8.91484 199.519 -10.9019 207.715 -31.9759 207.715ZM-31.9759 55.622C-51.5611 55.622 -69.9884 63.2564 -83.8172 77.071C-97.679 90.9187 -105.288 109.294 -105.288 128.859C-105.288 148.424 -97.6459 166.833 -83.8172 180.681C-69.9553 194.528 -51.5611 202.13 -31.9759 202.13C-12.3907 202.13 6.0366 194.495 19.8653 180.681C33.7272 166.833 41.3363 148.458 41.3363 128.859C41.3363 109.294 33.6941 90.8856 19.8653 77.071C6.0366 63.2564 -12.3907 55.622 -31.9759 55.622Z" fill="#FFCB00"/>
<path d="M-31.9758 257.785C-66.4484 257.785 -98.8368 244.367 -123.219 220.042C-147.568 195.685 -161 163.33 -161 128.892C-161 94.4549 -147.568 62.0997 -123.219 37.7423C-98.8368 13.385 -66.4484 0 -31.9758 0C2.4968 0 34.8852 13.418 59.2674 37.7423C83.6497 62.0997 97.0484 94.4549 97.0484 128.892C97.0484 163.33 83.6166 195.685 59.2674 220.042C34.9183 244.367 2.4968 257.785 -31.9758 257.785ZM-31.9758 5.55229C-64.9597 5.55229 -95.9586 18.3754 -119.282 41.6752C-142.606 64.9749 -155.442 95.9421 -155.442 128.892C-155.442 161.842 -142.606 192.81 -119.282 216.109C-95.9586 239.409 -64.9597 252.232 -31.9758 252.232C1.00806 252.232 32.0069 239.409 55.3306 216.109C78.6541 192.81 91.4904 161.842 91.4904 128.892C91.4904 95.9421 78.6541 64.9749 55.3306 41.6752C32.0069 18.3754 1.00806 5.55229 -31.9758 5.55229Z" fill="#FFCB00"/>
</svg>
