<svg width="365" height="93" viewBox="0 0 365 93" fill="none" xmlns="http://www.w3.org/2000/svg">
<path d="M140.482 6.16509C94.4302 5.3785 50.7671 16.2236 23.1771 29.3009C0.746917 39.9571 -10.9776 56.3005 16.1481 69.6951C39.5415 81.2592 79.8983 86.0648 112.725 88.9841C145.66 91.9247 178.801 92.6054 211.422 92.0604C266.579 91.133 368.477 86.1149 364.569 56.1166C362.354 38.9351 327.051 20.807 291.426 11.4034C248.459 0.0646446 197.887 -0.430963 152.624 2.35539C106.694 5.19274 63.0957 12.3799 34.6469 26.9019C11.6369 38.6455 -6.23436 58.5184 23.2029 73.422C49.2337 86.6037 97.9548 89.0993 133.471 88.9015C176.52 88.6621 219.403 87.4565 260.241 83.3226C297.701 79.516 337.329 72.6964 355.578 58.4052C368.567 48.2627 366.885 36.5375 343.006 27.6205C318.55 18.4758 283.004 14.7114 252.782 12.0775C219.584 9.19646 187.128 8.16682 154.318 8.79056C146.485 8.9492 138.615 9.09081 130.783 9.21966C127.274 9.2703 128.658 11.5027 132.13 11.4499C154 11.1036 175.636 10.3253 197.775 11.0558C213.319 11.5833 228.917 12.4576 244.461 13.6427C276.723 16.0959 313.705 19.9137 340.173 29.3843C371.992 40.7642 356.6 57.3285 333.826 66.276C302.705 78.5058 253.906 82.4472 210.629 84.721C169.574 86.8695 123.782 88.6088 81.4296 84.4796C60.9139 82.4832 39.8134 78.4801 25.7943 71.3752C9.6244 63.1742 11.8184 52.7049 18.3262 44.2194C34.3322 23.4163 80.4195 11.5011 130.574 6.45754C178.835 1.61806 235.098 0.709914 283.499 11.9153C307.608 17.4977 326.82 26.0694 341.062 35.6831C352.391 43.3494 360.934 51.9751 358.853 60.4931C355.279 75.0373 317.426 81.7804 287.366 85.2687C252.214 89.3586 213.698 90.369 176.078 89.9069C140.969 89.4557 104.681 87.0382 70.5205 81.6651C51.4656 78.6624 32.3379 74.3701 18.8473 67.6994C3.74206 60.2327 3.10986 50.7653 9.9545 42.8373C19.095 32.2327 41.0036 24.2066 63.1601 18.2723C85.0548 12.3975 112.331 7.91084 140.39 8.38667C143.856 8.45306 144.022 6.22085 140.482 6.16509Z" fill="#FCDC00"/>
</svg>
