<svg width="239" height="95" viewBox="0 0 239 95" fill="none" xmlns="http://www.w3.org/2000/svg">
<path d="M2.40673 72.3926C7.04889 89.3879 28.1781 93.9293 42.1916 85.9666C57.8224 77.0844 64.1914 59.1346 65.7231 42.129C66.4459 34.1616 67.4802 24.3491 64.152 16.8275C60.3609 8.30319 51.1284 8.49333 45.4595 15.0173C33.7953 28.4489 50.3166 49.8401 59.6744 59.5234C71.6434 71.9096 88.7043 79.8729 106.07 75.8483C123.574 71.7956 132.871 55.6188 133.376 38.4966C133.614 30.6636 132.792 17.3528 124.161 13.9581C120.649 12.5776 116.196 13.2491 114.783 17.2077C113.508 20.7778 115.628 25.1461 117.372 28.1981C121.052 34.6453 126.835 40.183 131.994 45.4506C137.697 51.2714 143.793 56.7528 150.628 61.2117C166.058 71.2731 184.934 73.3852 199.938 61.1959C215.963 48.1719 220.049 26.7888 217.932 7.16051C219.598 7.7248 221.255 8.28356 222.915 8.85618C216.363 15.0829 209.812 21.3096 203.254 27.5447C201.9 25.9867 200.545 24.4287 199.19 22.8707C207.433 16.3373 215.067 9.18421 222.089 1.36151C223.402 -0.0951877 226.228 0.638078 226.925 2.33645C230.735 11.593 234.531 20.8523 238.34 30.1088C239.861 33.8047 234.272 36.5898 232.737 32.8606C228.941 23.6013 225.137 14.3365 221.336 5.0855C222.945 5.40864 224.563 5.7373 226.172 6.06044C219.142 13.8776 211.511 21.0446 203.254 27.5447C200.129 29.9962 196.277 25.6184 199.19 22.8707C205.762 16.6689 212.347 10.4642 218.918 4.26243C220.486 2.78289 223.662 3.67611 223.9 5.95811C226.164 27.6633 221.582 51.261 203.824 65.6679C187.716 78.7448 167.165 78.0183 149.879 67.6981C140.709 62.219 132.722 54.812 125.4 47.09C119.05 40.3972 111.618 33.1303 109.201 23.909C107.195 16.2565 111.102 8.1201 119.587 7.48257C129.073 6.76481 135.246 14.7561 137.508 23.0708C142.78 42.4274 136.58 66.584 118.535 77.081C99.9714 87.8705 76.7224 81.9117 61.1209 68.761C48.0404 57.7255 28.7981 34.0864 38.0918 15.6159C41.5439 8.76202 49.2151 3.25353 57.1446 4.3592C66.6057 5.68836 70.6961 15.191 71.6109 23.6562C74.0601 46.3843 68.3506 74.8857 48.0773 88.2729C39.4691 93.964 28.772 96.2547 18.8534 92.8105C9.63991 89.6059 2.48802 82.4408 0.38865 72.7944C0.110732 71.4944 2.06232 71.1205 2.40673 72.3926Z" fill="#6001D3"/>
</svg>
