<svg width="112" height="112" viewBox="0 0 112 112" fill="none" xmlns="http://www.w3.org/2000/svg">
<circle cx="55.9509" cy="55.9509" r="55.9509" fill="#6001D3"/>
<g clip-path="url(#clip0_1020_170)">
<path d="M91.2225 31.7294C90.8928 32.2991 90.7163 32.922 90.5972 33.5641C90.5398 33.6576 90.459 33.7427 90.4271 33.8447C89.1043 37.9841 87.3795 41.9512 85.3591 45.795C84.4403 47.3789 83.5705 48.9925 82.5965 50.5424C79.5488 55.3918 75.8675 59.7203 71.6459 63.5833C70.8909 64.2742 70.1742 65.0502 69.1959 65.4648C69.2066 65.2968 69.1917 65.1225 69.2342 64.9609C69.8063 62.803 69.8361 60.6281 69.5617 58.4213C68.794 52.2623 63.7494 46.4987 57.7499 44.9233C55.4849 44.3281 53.2072 44.1176 50.8848 44.4025C52.9307 41.7726 55.2361 39.4 57.7732 37.2357C58.6027 36.5277 59.5895 35.9877 60.2403 35.0757C60.5593 35.1012 60.7528 34.8546 60.974 34.7015C62.7285 33.4812 64.5299 32.3438 66.3908 31.2872C67.9816 30.3836 69.7063 29.7607 71.278 28.8295C72.722 28.4256 74.098 27.8345 75.491 27.2924C78.1218 26.6057 80.7526 25.9169 83.3833 25.2302C83.9639 25.0728 84.5467 24.9155 85.1273 24.7603C86.3842 24.4457 87.6411 24.1225 88.9001 23.8185C89.2 23.7462 89.5126 23.6994 89.8188 23.7037C90.544 23.7143 90.8928 24.1991 90.6674 24.8985C90.4505 25.5703 90.1591 26.2166 89.9613 26.8927C89.7316 27.6772 90.0592 27.9982 90.8737 27.8494C91.835 27.6751 92.154 27.9897 91.9286 28.9464C91.7074 29.8776 91.3075 30.7642 91.2225 31.7294ZM65.304 37.7608C65.3146 37.8289 65.338 38.0819 65.3955 38.3263C66.4333 42.6506 68.845 45.9863 72.671 48.2569C74.0789 49.0924 75.6208 49.6473 77.2265 50.0024C77.7922 50.1278 78.2664 49.979 78.6535 49.5027C78.964 49.1201 78.9746 48.68 78.8236 48.3058C78.5748 47.685 77.99 47.4597 77.3583 47.3002C75.0444 46.7134 73.0134 45.5973 71.3248 43.9029C69.4809 42.0532 68.4175 39.7869 67.8433 37.2633C67.6625 36.4703 67.0671 36.0196 66.4078 36.1196C65.7272 36.228 65.2997 36.7892 65.304 37.7608ZM70.7442 34.71C70.7442 34.8503 70.7165 34.9992 70.7484 35.1331C71.8905 40.0803 75.3783 43.416 80.1592 44.4067C80.6739 44.513 81.095 44.2536 81.3842 43.8221C81.682 43.3777 81.6777 42.9164 81.3778 42.4742C81.0992 42.0639 80.7143 41.83 80.2188 41.6982C77.839 41.0753 75.9164 39.789 74.6042 37.6715C73.9619 36.6362 73.5791 35.4924 73.2176 34.3316C72.9687 33.5301 72.3605 33.2303 71.5566 33.4089C70.8654 33.562 70.7569 34.1147 70.7442 34.71ZM82.4412 31.6996C82.4348 31.0065 81.7564 30.3411 81.0673 30.3496C80.3506 30.3581 79.7169 31.0065 79.7254 31.7209C79.7339 32.4437 80.3698 33.0687 81.0907 33.0645C81.8096 33.0581 82.4476 32.4139 82.4412 31.6996Z" fill="#FA9F6A"/>
<path d="M33.182 92.0504C32.7099 92.3884 32.6078 92.8987 32.544 93.4259C31.7103 94.4039 31.3701 95.6625 30.6704 96.717C30.4364 97.0699 30.2429 97.4483 30.0409 97.8183C29.7771 98.2987 29.4326 98.6389 28.8308 98.5517C28.2268 98.4624 28.0247 98.0053 27.8695 97.4994C27.3378 95.7752 26.8125 94.0489 26.2638 92.331C25.092 88.6531 22.6356 86.2315 19.0095 84.9708C17.9695 84.6094 16.9253 84.2671 15.879 83.9227C15.2494 83.7165 14.722 83.3721 14.6284 82.6811C14.5412 82.0348 14.9751 81.6266 15.4302 81.2014C16.3086 80.3787 17.4506 79.8684 18.1695 78.8649C18.7437 78.8905 19.0861 78.461 19.505 78.1825C20.8534 77.5638 22.1996 76.9452 23.548 76.3286C24.5943 76.0799 25.6407 75.8311 26.687 75.5824C28.3033 79.7876 31.0723 82.9618 35.1131 85.0006C34.9302 86.6908 34.3326 88.2725 33.8392 89.884C33.618 90.6047 33.1778 91.2617 33.182 92.0504Z" fill="#FA9F6A"/>
<path d="M98.7491 52.6492C98.6725 51.1291 98.4173 49.6346 98.1302 48.1442C96.9818 42.1893 94.636 36.734 91.2226 31.7294C90.8929 32.2991 90.7164 32.9221 90.5973 33.5641C91.4459 34.7419 92.1711 35.9899 92.7772 37.308C94.8231 41.1752 96.1353 45.289 96.8648 49.592C97.5156 53.4295 97.6177 57.2988 97.171 61.1532C96.2459 69.1534 93.3153 76.3627 88.2473 82.645C81.8182 90.6133 73.5665 95.6944 63.5177 97.6376C53.8984 99.4978 44.6621 98.1691 35.9425 93.6067C34.9748 93.173 34.0816 92.6053 33.182 92.0483C32.7098 92.3864 32.6077 92.8966 32.5439 93.4238C37.6141 96.5193 43.0691 98.5603 48.9538 99.4489C49.9342 99.5978 50.9487 99.5382 51.8951 99.9103C54.2153 99.9103 56.5356 99.9103 58.8537 99.9103C58.9133 99.7381 59.0622 99.7551 59.2004 99.7445C63.1625 99.4681 67.0246 98.6538 70.6932 97.1635C86.1695 90.8833 95.4526 79.5304 98.4322 63.0645C98.6151 62.0547 98.5407 61.0087 98.9128 60.0328C98.9128 57.7134 98.9128 55.3939 98.9128 53.0766C98.7023 52.9958 98.7555 52.8066 98.7491 52.6492Z" fill="#E0712F"/>
<path d="M72.0331 17.9615C72.3691 18.104 72.7179 18.2145 73.0624 18.3399L73.0773 18.3314C73.1475 18.374 73.2155 18.4144 73.2857 18.4569C73.341 18.5122 73.3984 18.5696 73.4537 18.6248C76.1356 19.7729 78.56 21.3482 80.876 23.1001C81.7501 23.7613 82.6476 24.4012 83.3835 25.2303C83.964 25.073 84.5468 24.9157 85.1274 24.7605C83.494 23.1086 81.6544 21.7033 79.7297 20.4171C77.4818 18.914 75.1573 17.5406 72.6073 16.5945C72.5392 16.5456 72.4797 16.4818 72.4031 16.4521C63.8728 12.9356 55.0703 12.0108 46.0742 14.0837C32.948 17.1026 23.1693 24.6478 16.8806 36.5407C12.3187 45.168 11.0299 54.3842 12.6718 64.0044C13.2396 67.3252 14.152 70.5461 15.5641 73.6139C16.2043 75.4784 17.2357 77.1494 18.1715 78.8673C18.7457 78.8928 19.0881 78.4633 19.5071 78.1848C18.8691 76.9432 18.08 75.7803 17.5973 74.4622C17.542 74.4069 17.4867 74.3495 17.4314 74.2942C17.391 74.2241 17.3484 74.156 17.308 74.0859C17.308 74.0859 17.3165 74.071 17.3165 74.0689C16.8465 74.0837 16.4382 73.8605 16.0086 73.7181C16.4382 73.8605 16.8465 74.0859 17.3165 74.0689C16.468 71.8578 15.5429 69.6744 14.9601 67.3698C11.9678 55.511 13.5416 44.3069 20.1196 33.9746C26.5423 23.8888 35.7659 17.6809 47.4842 15.3317C55.9082 13.6436 64.1153 14.5982 72.0331 17.9615Z" fill="#E0712F"/>
<path d="M92.7791 37.3101C94.825 41.1773 96.1372 45.2911 96.8667 49.5942C97.5175 53.4316 97.6195 57.3009 97.1729 61.1554C96.2478 69.1555 93.3172 76.3648 88.2492 82.6471C81.82 90.6154 73.5683 95.6965 63.5195 97.6397C53.9003 99.5 44.6639 98.1712 35.9443 93.6088C36.7823 91.1575 37.5224 88.6786 37.9796 86.1231C40.3807 86.6865 42.8009 86.8375 45.2467 86.4697C47.6116 87.6241 50.1934 87.9877 52.7476 88.1492C55.2338 88.3044 57.7412 88.3151 60.2507 87.909C63.2239 87.4264 66.0652 86.6015 68.7832 85.3493C72.5539 83.6123 75.8439 81.2121 78.6895 78.1655C80.6482 76.0693 82.2986 73.7775 83.6235 71.2496C85.2951 68.0606 86.4095 64.6973 86.9072 61.1086C87.3666 57.7878 87.3028 54.4967 86.854 51.1929C86.8264 50.9888 86.7094 50.9017 86.5223 50.8783C86.5775 50.7082 86.635 50.5381 86.6903 50.3702C86.7923 50.2766 86.9263 50.2022 86.9901 50.0874C88.766 46.8623 90.2802 43.518 91.6222 40.0931C91.9879 39.1555 92.1794 38.1478 92.7791 37.3101Z" fill="#FED7C6"/>
<path d="M92.7795 37.3101C92.1819 38.1478 91.9884 39.1555 91.6226 40.0909C90.2828 43.518 88.7664 46.8622 86.9906 50.0853C86.9268 50.2001 86.7928 50.2745 86.6907 50.368C86.2781 48.8352 85.974 47.2704 85.3594 45.7971C87.3798 41.9533 89.1024 37.9862 90.4274 33.8469C90.4593 33.7448 90.5401 33.6598 90.5975 33.5662C91.4461 34.7419 92.1734 35.992 92.7795 37.3101Z" fill="#FDC0AD"/>
<path d="M37.9799 86.1231C37.5227 88.6786 36.7805 91.1575 35.9446 93.6088C34.977 93.1751 34.0838 92.6074 33.1842 92.0504C33.1778 91.2617 33.6201 90.6048 33.8413 89.884C34.3368 88.2747 34.9344 86.6929 35.1152 85.0006C36.0701 85.3748 37.025 85.749 37.9799 86.1231Z" fill="#FDC0AD"/>
<path d="M17.5952 74.4598C17.54 74.4046 17.4847 74.3472 17.4294 74.2919C17.389 74.2217 17.3464 74.1537 17.306 74.0835C17.306 74.0835 17.3145 74.0687 17.3145 74.0665C16.466 71.8555 15.5408 69.67 14.9581 67.3675C11.9679 55.5108 13.5417 44.3067 20.1197 33.9744C26.5424 23.8886 35.766 17.6807 47.4843 15.3315C55.9083 13.6434 64.1154 14.598 72.0332 17.9613C72.3692 18.1038 72.718 18.2143 73.0625 18.3397L73.0774 18.3312C73.1476 18.3738 73.2156 18.4142 73.2858 18.4567C73.3411 18.512 73.3985 18.5694 73.4538 18.6246C73.4709 19.2008 73.7516 19.7046 73.9111 20.2404C74.6044 22.5535 75.2339 24.8793 75.4891 27.2902C74.0961 27.8345 72.7201 28.4234 71.2761 28.8273C70.336 28.3851 69.396 27.9429 68.456 27.5028C65.0022 25.8828 61.3442 25.0005 57.5629 24.7667C52.9947 24.486 48.5264 25.0962 44.2283 26.7587C40.3789 28.2469 36.906 30.3262 33.8839 33.1537C30.6512 36.1748 28.1141 39.6827 26.3467 43.7434C24.7708 47.3639 23.8946 51.144 23.7202 55.0856C23.6096 57.5964 23.7564 60.1029 24.2625 62.5564C24.6347 64.3571 24.9644 66.2025 25.915 67.8352C25.5556 70.4778 25.9023 73.0503 26.6913 75.576C25.6449 75.8247 24.5986 76.0735 23.5522 76.3222C23.5288 76.1798 23.4927 76.0373 23.3289 76.0054C21.3808 75.6185 19.5114 74.9573 17.5952 74.4598Z" fill="#FEE3CB"/>
<path d="M25.9126 67.8395C24.9619 66.2067 24.6323 64.3614 24.2601 62.5607C23.754 60.1072 23.6072 57.6007 23.7178 55.0899C23.8922 51.1461 24.7684 47.3682 26.3443 43.7477C28.1116 39.6849 30.6488 36.1791 33.8814 33.158C36.9035 30.3326 40.3786 28.2533 44.2259 26.763C48.524 25.1005 52.9944 24.4903 57.5605 24.7709C61.3418 25.0027 64.9998 25.8871 68.4536 27.5071C69.3936 27.9493 70.3336 28.3894 71.2736 28.8316C69.702 29.7628 67.9793 30.3879 66.3864 31.2893C64.5255 32.3459 62.7242 33.4833 60.9696 34.7036C60.7484 34.8567 60.557 35.1033 60.2359 35.0778C57.9305 33.5535 55.4295 33.1517 52.7285 33.6917C51.4972 33.9383 50.6252 34.491 49.934 35.5944C48.5261 37.8416 47.0736 40.059 45.9039 42.4402C45.1744 43.9199 44.279 45.3337 43.9069 46.9728L43.9154 46.9643C43.775 46.9558 43.7537 47.0621 43.724 47.162C43.4709 47.381 43.2263 47.6106 42.9647 47.8189C41.8439 48.7097 40.7891 49.6622 39.9979 50.8698C39.1153 51.7287 38.59 52.8087 38.1073 53.9163C37.8244 54.0354 37.5458 54.1714 37.2566 54.2735C34.3961 55.2642 31.9355 56.8396 29.9193 59.1187C27.7054 61.6295 26.4421 64.5612 25.9126 67.8395Z" fill="#FEEFE2"/>
<path d="M40.0005 50.8697C40.7916 49.66 41.8465 48.7076 42.9673 47.8189C43.2289 47.6106 43.4734 47.381 43.7265 47.162C43.7903 47.0961 43.8541 47.0302 43.9179 46.9643L43.9094 46.9728C44.0647 46.9196 44.2391 46.8984 44.3752 46.8112C46.3764 45.5505 48.5606 44.7936 50.883 44.4024C53.2075 44.1176 55.4831 44.328 57.7481 44.9233C63.7476 46.4987 68.7922 52.2644 69.5599 58.4213C69.8343 60.6281 69.8066 62.803 69.2324 64.9609C69.1899 65.1203 69.2069 65.2968 69.1941 65.4648L69.2048 65.4584C69.1622 65.5179 69.1176 65.5774 69.075 65.637C68.6688 66.8063 68.2094 67.9479 67.614 69.0407C66.6995 70.7181 65.4 72.0766 64.0985 73.4373C63.0649 74.1771 62.076 74.9914 60.8999 75.5144C61.1147 74.4067 61.3316 73.3012 61.5464 72.1936C61.6081 72.1 61.6697 72.0065 61.7314 71.9129C62.378 71.4558 62.9819 70.9498 63.5009 70.3482C66.3634 67.0274 67.6374 63.2218 67.0057 58.8359C66.5229 55.4874 65.013 52.6705 62.4949 50.4403C59.3218 47.634 55.5788 46.4668 51.3742 46.9919C48.3841 47.364 45.7384 48.5545 43.5755 50.7082C43.4692 50.7656 43.3628 50.823 43.2565 50.8804C42.1719 50.8761 41.0872 50.874 40.0005 50.8697Z" fill="#FEC82E"/>
<path d="M64.1006 73.4373C65.4021 72.0766 66.7016 70.7202 67.6182 69.0407C68.2137 67.9479 68.6731 66.8063 69.0793 65.637C69.1218 65.5774 69.1665 65.5179 69.209 65.4584L69.1984 65.4648C70.1767 65.0502 70.8955 64.2742 71.6484 63.5854C75.8699 59.7224 79.5513 55.3939 82.5989 50.5445C83.5729 48.9946 84.4428 47.381 85.3615 45.7971C85.9761 47.2704 86.2803 48.8352 86.6929 50.368C86.6376 50.5381 86.5801 50.7082 86.5248 50.8761C85.8889 51.937 85.2956 53.0277 84.6108 54.0545C81.9098 58.1088 78.8644 61.8676 75.3276 65.2458C72.1375 68.2945 68.6305 70.8903 64.8981 73.2119C64.6557 73.3629 64.3983 73.4798 64.1006 73.4373Z" fill="#FECEC1"/>
<path d="M50.8827 44.4024C48.5603 44.7936 46.3741 45.5505 44.3749 46.8112C44.2388 46.8962 44.0644 46.9196 43.9092 46.9728C44.2792 45.3336 45.1767 43.9198 45.9062 42.4401C47.078 40.0611 48.5284 37.8416 49.9363 35.5944C50.6296 34.4889 51.4995 33.9361 52.7309 33.6916C55.4318 33.1516 57.9328 33.5534 60.2382 35.0778C59.5874 35.9898 58.6006 36.5298 57.7712 37.2378C55.2362 39.3978 52.9286 41.7726 50.8827 44.4024Z" fill="#E0712F"/>
<path d="M65.3042 37.7608C65.3 36.7892 65.7275 36.2258 66.408 36.1238C67.0673 36.0239 67.6628 36.4725 67.8435 37.2676C68.4178 39.7911 69.4811 42.0575 71.325 43.9071C73.0136 45.6015 75.0447 46.7177 77.3585 47.3044C77.9902 47.4639 78.575 47.6893 78.8239 48.31C78.9749 48.6842 78.9663 49.1222 78.6537 49.507C78.2667 49.9832 77.7924 50.1299 77.2267 50.0066C75.621 49.6537 74.0791 49.0988 72.6712 48.2611C68.8452 45.9906 66.4335 42.6549 65.3957 38.3306C65.3383 38.0818 65.3149 37.831 65.3042 37.7608Z" fill="#EFEDEE"/>
<path d="M75.4889 27.2924C75.2316 24.8815 74.602 22.5556 73.9109 20.2425C73.7492 19.7068 73.4706 19.2029 73.4536 18.6268C76.1354 19.7748 78.5599 21.3502 80.8759 23.102C81.75 23.7632 82.6475 24.4031 83.3833 25.2323C80.7504 25.9168 78.1197 26.6035 75.4889 27.2924Z" fill="#FED7C6"/>
<path d="M70.7445 34.71C70.7573 34.1168 70.8679 33.5619 71.5569 33.4089C72.3608 33.2303 72.9691 33.5322 73.2179 34.3316C73.5773 35.4923 73.9623 36.6361 74.6045 37.6715C75.9167 39.7869 77.8393 41.0752 80.2191 41.6981C80.7168 41.8278 81.0996 42.0617 81.3782 42.4741C81.678 42.9164 81.6823 43.3777 81.3845 43.822C81.0953 44.2557 80.6742 44.5151 80.1596 44.4067C75.3787 43.416 71.8908 40.0803 70.7488 35.1331C70.7169 34.997 70.7445 34.8503 70.7445 34.71Z" fill="#EFEDEE"/>
<path d="M82.4415 31.6996C82.4479 32.4139 81.8099 33.0581 81.091 33.0624C80.3701 33.0687 79.7321 32.4416 79.7257 31.7187C79.7172 31.0044 80.3509 30.356 81.0676 30.3475C81.7588 30.3411 82.4373 31.0065 82.4415 31.6996Z" fill="#A74140"/>
<path d="M25.9129 67.8395C26.4425 64.5612 27.7057 61.6273 29.926 59.1186C31.9422 56.8395 34.4028 55.262 37.2633 54.2735C37.5525 54.1735 37.8311 54.0375 38.114 53.9163C39.222 53.9461 40.279 53.4741 41.3934 53.5761C42.8757 53.4039 44.3347 53.5294 45.7957 53.8249C47.2015 54.1098 48.4967 54.722 49.862 55.1175L49.8556 55.109C49.8769 55.2408 49.979 55.2727 50.0875 55.2939C50.6425 55.6724 51.187 56.0742 51.8314 56.2995C52.6927 57.2307 53.7688 57.9217 54.6302 58.8699C55.5872 59.9222 56.2699 61.1575 57.1567 62.2481C57.3141 63.1687 57.8692 63.9319 58.1775 64.7908C58.1967 64.9226 58.1903 65.0672 58.3498 65.1288L58.3413 65.1203C58.3498 65.2883 58.3307 65.4626 58.3732 65.6242C58.9155 67.7289 59.192 69.8528 58.8645 72.0256C58.7773 72.606 58.6008 73.1821 58.6773 73.7817C58.3264 74.7894 57.8755 75.7631 57.6671 76.8176C57.4098 77.0196 57.3226 77.3278 57.1801 77.6C56.5038 78.9096 55.6744 80.115 54.6876 81.2099C52.1419 84.0418 48.9326 85.6809 45.247 86.4675C42.8013 86.8353 40.3811 86.6844 37.98 86.121C37.0251 85.7468 36.0702 85.3726 35.1153 84.9985C31.0766 82.9596 28.3055 79.7855 26.6892 75.5803C25.9001 73.0546 25.5535 70.4821 25.9129 67.8395ZM42.3504 56.0976C35.2386 55.9806 28.4118 61.6677 28.3778 70.025C28.3459 78.0018 34.6134 84.1013 42.427 84.0779C50.2066 84.0566 56.4294 77.9869 56.4017 70.0335C56.372 61.6656 49.5175 55.9445 42.3504 56.0976Z" fill="#FEC82E"/>
<path d="M17.5952 74.4599C19.5114 74.9574 21.3808 75.6164 23.3246 76.0098C23.4884 76.0438 23.5267 76.1841 23.5479 76.3265C22.1996 76.9452 20.8534 77.5639 19.505 78.1804C18.8691 76.9431 18.0801 75.7801 17.5952 74.4599Z" fill="#FED7C6"/>
<path d="M73.2858 18.4568C73.2155 18.4143 73.1474 18.3739 73.0771 18.3313C73.1453 18.3739 73.2155 18.4143 73.2858 18.4568Z" fill="#CA5B5A"/>
<path d="M17.3037 74.0857C17.3442 74.1559 17.3867 74.224 17.4272 74.2942C17.3867 74.224 17.3463 74.1538 17.3037 74.0857Z" fill="#CA5B5A"/>
<path d="M45.2471 86.4718C48.9327 85.6852 52.1419 84.0439 54.6876 81.2142C55.6723 80.1172 56.5039 78.9138 57.1802 77.6042C57.3205 77.3321 57.4098 77.0238 57.6672 76.8218C58.8348 76.605 59.8981 76.133 60.9041 75.5165C62.0801 74.9935 63.0669 74.1792 64.1027 73.4394C64.4004 73.4798 64.6577 73.3628 64.9002 73.214C68.6326 70.8946 72.1396 68.2987 75.3297 65.2479C78.8664 61.8675 81.9119 58.1088 84.6129 54.0566C85.2977 53.0276 85.891 51.9391 86.5269 50.8782C86.7141 50.9016 86.831 50.9909 86.8587 51.1929C87.3053 54.4967 87.3712 57.7877 86.9119 61.1086C86.4142 64.6994 85.2998 68.0606 83.6282 71.2496C82.3032 73.7774 80.6529 76.0692 78.6942 78.1655C75.8486 81.212 72.5586 83.6123 68.7879 85.3492C66.0699 86.6015 63.2286 87.4285 60.2554 87.909C57.7459 88.315 55.2363 88.3065 52.7523 88.1492C50.1917 87.9897 47.612 87.6241 45.2471 86.4718Z" fill="#FEE7DD"/>
<path d="M41.3909 53.5783C40.2744 53.4762 39.2195 53.9482 38.1094 53.9184C38.59 52.8108 39.1153 51.7308 40 50.8719C41.0847 50.8761 42.1714 50.8783 43.2561 50.8825C43.054 51.1121 42.8222 51.3247 42.6585 51.5777C42.231 52.2389 41.4781 52.6981 41.3909 53.5783Z" fill="#F8B52D"/>
<path d="M43.9176 46.9643C43.8538 47.0302 43.7899 47.0962 43.7261 47.1622C43.7559 47.0622 43.7772 46.9558 43.9176 46.9643Z" fill="#78848A"/>
<path d="M43.5776 50.7061C45.7405 48.5524 48.3862 47.3618 51.3764 46.9898C55.583 46.4668 59.3261 47.634 62.497 50.4382C65.0172 52.6684 66.5272 55.4853 67.0078 58.8338C67.6395 63.2197 66.3677 67.0253 63.503 70.3461C62.9841 70.9477 62.3801 71.4537 61.7335 71.9108C61.6931 70.6012 61.8548 69.2809 61.5528 67.982C61.5655 67.8927 61.5804 67.8012 61.5932 67.7119C62.9224 66.3194 63.5349 64.5889 63.9283 62.7562C64.0198 62.3353 63.8071 62.2162 63.4179 62.2226C62.2929 62.2417 61.1678 62.2375 60.0428 62.2439C59.9875 62.2205 59.9322 62.1971 59.8769 62.1758C59.7068 61.2064 59.0496 60.458 58.6859 59.5736C60.2342 59.5609 61.7846 59.5268 63.3328 59.5481C63.8986 59.5545 64.024 59.3376 63.9113 58.8401C63.5966 57.4604 63.118 56.155 62.3545 54.9453C62.0313 54.4351 61.8399 54.4351 61.4337 54.8411C60.2193 56.0529 59.0007 57.2626 57.6736 58.3533C57.5354 58.0089 57.3057 57.7346 57.059 57.4582C56.7315 57.0904 56.2211 56.8587 56.1381 56.2974C57.2738 55.2004 58.3839 54.0736 59.5558 53.017C60.1087 52.5195 59.9939 52.275 59.4409 51.9221C58.1457 51.093 56.7889 50.4701 55.2662 50.1469C54.4814 49.9811 54.4367 50.249 54.4474 50.8719C54.4708 52.2261 54.4389 53.5825 54.4282 54.9368C53.6116 54.3883 52.914 53.6442 51.908 53.4082C51.8761 53.2976 51.8442 53.1892 51.8102 53.0787C51.8294 52.241 51.84 51.4034 51.8719 50.5679C51.891 50.1044 51.7188 50.0045 51.2658 50.0874C49.9876 50.3234 48.7988 50.789 47.6525 51.3779C46.2935 51.1589 44.9366 50.9335 43.5776 50.7061Z" fill="#FEE4BF"/>
<path d="M43.5772 50.7061C44.9362 50.9314 46.2931 51.1589 47.652 51.3843C47.6372 51.4331 47.6201 51.482 47.6031 51.5309C46.997 51.7563 47.4011 52.0157 47.5819 52.2623C48.3071 53.2424 49.2641 54.0375 49.8617 55.1196C48.4963 54.7242 47.2012 54.1119 45.7954 53.827C44.3343 53.5294 42.8754 53.4061 41.3931 53.5783C41.4803 52.6981 42.2331 52.2389 42.6606 51.5756C42.8244 51.3205 43.0562 51.11 43.2582 50.8804C43.3645 50.823 43.4709 50.7635 43.5772 50.7061Z" fill="#F4D4B3"/>
<path d="M61.5548 67.9841C61.8568 69.2831 61.693 70.6033 61.7356 71.9129C61.6739 72.0065 61.6122 72.1 61.5505 72.1936C60.6084 72.7527 59.6833 73.3416 58.6773 73.7838C58.6008 73.1843 58.7773 72.6081 58.8645 72.0277C59.1899 69.8528 58.9134 67.7311 58.3732 65.6263C58.3328 65.4669 58.3519 65.2904 58.3413 65.1225C58.5838 65.1076 58.6667 65.3117 58.79 65.4563C59.4451 66.2237 60.0959 66.9955 60.7509 67.763C60.9657 68.016 61.1677 68.3412 61.5548 67.9841Z" fill="#F4D4B3"/>
<path d="M58.6774 73.7859C59.6833 73.3437 60.6084 72.7548 61.5506 72.1957C61.3336 73.3012 61.1189 74.4088 60.9019 75.5165C59.896 76.133 58.8326 76.605 57.665 76.8219C57.8756 75.7652 58.3243 74.7915 58.6774 73.7859Z" fill="#F8B52D"/>
<path d="M69.207 65.4584C69.1644 65.518 69.1197 65.5775 69.0771 65.6371C69.1197 65.5775 69.1644 65.518 69.207 65.4584Z" fill="#A5B8BF"/>
<path d="M42.3502 56.0976C49.5194 55.9445 56.3739 61.6635 56.4015 70.0336C56.4292 77.9869 50.2063 84.0567 42.4268 84.0779C34.611 84.0992 28.3436 78.0018 28.3776 70.025C28.4116 61.6699 35.2384 55.9828 42.3502 56.0976ZM45.2702 71.4048C46.9652 73.4033 48.5347 75.2508 50.0979 77.1025C50.3361 77.3853 50.5041 77.4065 50.7593 77.0961C52.029 75.559 52.8286 73.8157 53.1838 71.8577C53.2476 71.5005 53.1327 71.4006 52.8073 71.4027C50.3531 71.4048 47.8988 71.4048 45.2702 71.4048ZM39.5004 68.7112C37.7522 66.6723 36.1635 64.8206 34.5749 62.9667C34.292 62.6372 34.1389 62.9051 33.9858 63.0943C32.7629 64.5867 31.959 66.2663 31.6379 68.1839C31.5613 68.6453 31.6868 68.7197 32.0823 68.7154C33.3265 68.7048 34.5706 68.7112 35.8148 68.7112C36.9632 68.7112 38.1074 68.7112 39.5004 68.7112ZM43.7347 66.6979C43.8006 66.7319 43.8687 66.7659 43.9346 66.7999C45.6658 65.1565 47.3969 63.5131 49.1302 61.8697C49.4088 61.604 49.1664 61.5083 48.9877 61.3701C47.5798 60.2752 45.9933 59.6055 44.2345 59.31C43.8453 59.2441 43.7283 59.3121 43.7305 59.6969C43.739 62.0292 43.7347 64.3635 43.7347 66.6979ZM41.0423 73.1843C39.2048 74.9042 37.5417 76.469 35.8701 78.0231C35.5191 78.3483 35.4936 78.5695 35.9168 78.8777C37.312 79.894 38.8624 80.5169 40.5489 80.8443C40.9593 80.9229 41.0444 80.772 41.0444 80.4191C41.0401 78.0826 41.0423 75.7461 41.0423 73.1843ZM39.0368 71.4048C36.5378 71.4048 34.2367 71.407 31.9377 71.4027C31.5719 71.4027 31.5443 71.5728 31.6017 71.8896C31.8229 73.1205 32.2291 74.2813 32.8288 75.3762C33.5094 76.622 33.5115 76.6199 34.5536 75.6228C34.7365 75.4485 34.9364 75.289 35.1193 75.1147C36.3783 73.9263 37.6352 72.7336 39.0368 71.4048ZM45.9869 68.5113C46.0146 68.5772 46.0443 68.6431 46.072 68.7091C48.3199 68.7091 50.5679 68.7091 52.8158 68.7091C53.0838 68.7091 53.2221 68.6453 53.171 68.3136C52.9349 66.7553 52.365 65.333 51.4994 64.0233C51.3037 63.7278 51.1017 63.6555 50.821 63.9234C49.2132 65.4541 47.599 66.9827 45.9869 68.5113ZM41.0423 66.43C41.0423 64.0085 41.0423 61.8463 41.0423 59.682C41.0423 59.3908 41.0104 59.2207 40.6148 59.2824C39.2303 59.4971 37.9521 59.9754 36.7612 60.7068C36.4889 60.8726 36.3996 61.0257 36.6357 61.2978C38.05 62.9391 39.4578 64.5846 41.0423 66.43ZM43.7347 73.6796C43.7347 76.0757 43.7326 78.1932 43.7368 80.3107C43.7368 80.6168 43.673 80.9485 44.2047 80.857C45.5552 80.6211 46.81 80.1491 47.9945 79.4645C48.2604 79.3114 48.388 79.1817 48.1392 78.8905C46.7185 77.2216 45.3106 75.5463 43.7347 73.6796Z" fill="#FEE4BF"/>
<path d="M56.1357 56.3017C56.2208 56.8629 56.7291 57.0947 57.0566 57.4625C57.3033 57.7389 57.533 58.0131 57.6712 58.3575C57.6712 58.4064 57.667 58.4575 57.6585 58.5063C57.2948 58.7593 56.9843 59.0591 56.6419 59.5162C57.3501 59.5162 57.9307 59.5162 58.5092 59.5162C58.5687 59.5353 58.6261 59.5566 58.6857 59.5757C59.0494 60.458 59.7044 61.2064 59.8767 62.178C58.9685 62.2035 58.0625 62.229 57.1544 62.2524C56.2676 61.1617 55.5828 59.9265 54.6279 58.8741C53.7666 57.926 52.6904 57.235 51.8291 56.3038C51.8546 55.3429 51.8801 54.3798 51.9057 53.4188C52.9116 53.6548 53.6092 54.3989 54.4258 54.9474C54.4471 55.0622 54.4705 55.1749 54.4918 55.2897C54.4471 56.0572 54.4046 56.8247 54.5237 57.6815C55.1383 57.2605 55.5785 56.8098 55.9826 56.3187C56.0336 56.3102 56.0847 56.3059 56.1357 56.3017Z" fill="#F4D4B3"/>
<path d="M57.1543 62.2524C58.0624 62.2269 58.9684 62.2035 59.8765 62.178C59.9318 62.2014 59.9871 62.2226 60.0424 62.246C60.4167 63.3877 60.9059 64.4911 61.1674 65.6731C61.3184 66.3534 61.2993 67.0678 61.5949 67.7162C61.5822 67.8055 61.5673 67.8969 61.5545 67.9862C61.1674 68.3434 60.9654 68.0181 60.7485 67.7651C60.0934 66.9976 59.4427 66.228 58.7876 65.4584C58.6643 65.3138 58.5835 65.1119 58.3389 65.1246L58.3474 65.1331C58.3602 64.9843 58.3112 64.8674 58.1751 64.7951C57.8668 63.9341 57.3117 63.1729 57.1543 62.2524Z" fill="#F8B52D"/>
<path d="M51.9057 53.4167C51.8802 54.3777 51.8547 55.3407 51.8291 56.3017C51.1848 56.0763 50.6403 55.6745 50.0852 55.2961C50.0087 55.2344 49.9321 55.1728 49.8534 55.1111L49.8598 55.1196C49.2601 54.0375 48.303 53.2445 47.5799 52.2623C47.3992 52.0178 46.9951 51.7563 47.6012 51.5309C49.0942 51.8052 50.3426 52.7364 51.8079 53.0851C51.8419 53.1956 51.8738 53.3062 51.9057 53.4167Z" fill="#F8B52D"/>
<path d="M58.1772 64.795C58.3135 64.8674 58.3624 64.9844 58.3497 65.1334C58.19 65.0717 58.1964 64.927 58.1772 64.795Z" fill="#F4D4B3"/>
<path d="M49.8535 55.1111C49.9301 55.1729 50.0068 55.2346 50.0855 55.2963C49.977 55.275 49.8748 55.2431 49.8535 55.1111Z" fill="#F4D4B3"/>
<path d="M56.1357 56.3017C56.0846 56.3059 56.0336 56.3102 55.9825 56.3144C55.4743 55.987 55.1085 55.4555 54.4917 55.2855C54.4704 55.1707 54.447 55.058 54.4258 54.9432C54.4364 53.5889 54.4683 52.2325 54.4449 50.8783C54.4343 50.2553 54.479 49.9853 55.2637 50.1533C56.7865 50.4743 58.1433 51.0994 59.4385 51.9285C59.9914 52.2814 60.1084 52.5259 59.5533 53.0234C58.3815 54.0779 57.2713 55.2047 56.1357 56.3017Z" fill="#FEC82E"/>
<path d="M58.6879 59.5757C58.6283 59.5566 58.5709 59.5354 58.5113 59.5162C58.2349 59.1739 58.0988 58.7126 57.6606 58.5064C57.667 58.4575 57.6713 58.4064 57.6734 58.3575C59.0005 57.2669 60.2191 56.0572 61.4335 54.8454C61.8418 54.4393 62.0311 54.4372 62.3543 54.9496C63.1178 56.1571 63.5964 57.4625 63.9111 58.8444C64.0238 59.3419 63.8983 59.5587 63.3326 59.5524C61.7865 59.529 60.2361 59.563 58.6879 59.5757Z" fill="#FEC82E"/>
<path d="M61.595 67.7141C61.2994 67.0656 61.3185 66.3513 61.1675 65.671C60.9059 64.4889 60.4168 63.3855 60.0425 62.2438C61.1675 62.2396 62.2926 62.2417 63.4176 62.2226C63.8089 62.2162 64.0195 62.3353 63.928 62.7562C63.5367 64.591 62.9242 66.3215 61.595 67.7141Z" fill="#FEC82E"/>
<path d="M51.8102 53.0872C50.3449 52.7385 49.0965 51.8073 47.6035 51.5331C47.6205 51.4842 47.6375 51.4353 47.6524 51.3864C48.8009 50.7975 49.9876 50.3319 51.2657 50.0959C51.7187 50.013 51.891 50.1129 51.8719 50.5764C51.84 51.4119 51.8293 52.2495 51.8102 53.0872Z" fill="#FEC82E"/>
<path d="M45.2705 71.4048C47.9013 71.4048 50.3534 71.407 52.8055 71.4027C53.133 71.4027 53.2479 71.5005 53.1819 71.8577C52.8268 73.8157 52.0271 75.559 50.7575 77.0961C50.5023 77.4044 50.3343 77.3853 50.0961 77.1025C48.5329 75.2508 46.9634 73.4033 45.2705 71.4048Z" fill="#FEC82E"/>
<path d="M39.5007 68.7111C38.1098 68.7111 36.9635 68.7111 35.8172 68.7111C34.573 68.7111 33.3289 68.7026 32.0848 68.7154C31.6892 68.7196 31.5616 68.6431 31.6403 68.1839C31.9614 66.2662 32.7653 64.5867 33.9882 63.0942C34.1413 62.9071 34.2944 62.6371 34.5773 62.9667C36.1617 64.8205 37.7525 66.6744 39.5007 68.7111Z" fill="#FEC82E"/>
<path d="M43.7348 66.6978C43.7348 64.3635 43.739 62.0291 43.7305 59.6948C43.7284 59.31 43.8453 59.2441 44.2345 59.3078C45.9933 59.6055 47.5799 60.273 48.9878 61.3679C49.1664 61.5061 49.4089 61.6039 49.1303 61.8675C47.397 63.5109 45.668 65.1543 43.9347 66.7977C43.8687 66.7659 43.8028 66.7318 43.7348 66.6978Z" fill="#FEC82E"/>
<path d="M41.0422 73.1843C41.0422 75.7461 41.0401 78.0826 41.0443 80.4191C41.0443 80.7741 40.9593 80.925 40.5488 80.8443C38.8623 80.5168 37.3119 79.8939 35.9168 78.8777C35.4936 78.5694 35.5191 78.3483 35.87 78.023C37.5416 76.4689 39.2047 74.9042 41.0422 73.1843Z" fill="#FEC82E"/>
<path d="M39.0368 71.4048C37.6353 72.7335 36.3784 73.9262 35.1194 75.1168C34.9344 75.2911 34.7366 75.4484 34.5537 75.6249C33.5116 76.6241 33.5095 76.6262 32.8289 75.3783C32.2292 74.2834 31.823 73.1226 31.6018 71.8916C31.5444 71.5749 31.572 71.4048 31.9378 71.4048C34.2368 71.4069 36.5379 71.4048 39.0368 71.4048Z" fill="#FEC82E"/>
<path d="M45.9868 68.5113C47.5989 66.9827 49.2109 65.4562 50.8209 63.9234C51.1016 63.6555 51.3036 63.7278 51.4993 64.0233C52.367 65.3329 52.937 66.7552 53.1709 68.3136C53.222 68.6453 53.0837 68.709 52.8157 68.709C50.5678 68.709 48.3198 68.709 46.0719 68.709C46.0442 68.6431 46.0166 68.5772 45.9868 68.5113Z" fill="#FEC82E"/>
<path d="M41.0424 66.43C39.458 64.5846 38.0501 62.9391 36.6358 61.2999C36.4018 61.0278 36.489 60.8747 36.7613 60.7089C37.9522 59.9797 39.2283 59.4992 40.6149 59.2845C41.0126 59.2228 41.0424 59.3929 41.0424 59.6842C41.0424 61.8463 41.0424 64.0085 41.0424 66.43Z" fill="#FEC82E"/>
<path d="M43.7348 73.6796C45.3107 75.5463 46.7186 77.2215 48.1393 78.8883C48.3881 79.1796 48.2605 79.3093 47.9947 79.4624C46.8122 80.1469 45.5553 80.6189 44.2048 80.8549C43.671 80.9484 43.737 80.6168 43.737 80.3085C43.7348 78.1931 43.7348 76.0756 43.7348 73.6796Z" fill="#FEC82E"/>
<path d="M54.492 55.2855C55.1087 55.4555 55.4766 55.987 55.9828 56.3144C55.5787 56.8056 55.1385 57.2584 54.5239 57.6772C54.4069 56.8204 54.4473 56.0529 54.492 55.2855Z" fill="#F8B52D"/>
<path d="M57.6606 58.5063C58.0987 58.7147 58.2327 59.1739 58.5113 59.5162C57.9328 59.5162 57.3522 59.5162 56.644 59.5162C56.9864 59.0591 57.2969 58.7572 57.6606 58.5063Z" fill="#F8B52D"/>
</g>
<defs>
<clipPath id="clip0_1020_170">
<rect width="86.9238" height="86.9238" fill="white" transform="translate(11.9893 12.9886)"/>
</clipPath>
</defs>
</svg>
