<svg width="113" height="113" viewBox="0 0 113 113" fill="none" xmlns="http://www.w3.org/2000/svg">
<circle cx="56.5012" cy="56.9228" r="55.9509" fill="#FD346E"/>
<path d="M91.7733 32.7013C91.4436 33.2711 91.2671 33.894 91.148 34.5361C91.0906 34.6296 91.0098 34.7147 90.9779 34.8167C89.655 38.956 87.9303 42.9232 85.9099 46.767C84.9911 48.3509 84.1213 49.9645 83.1472 51.5143C80.0996 56.3638 76.4183 60.6923 72.1967 64.5552C71.4417 65.2462 70.725 66.0222 69.7467 66.4368C69.7573 66.2688 69.7425 66.0945 69.785 65.9329C70.3571 63.775 70.3868 61.6001 70.1125 59.3933C69.3447 53.2343 64.3001 47.4707 58.3006 45.8953C56.0357 45.3 53.7579 45.0896 51.4355 45.3744C53.4815 42.7446 55.7868 40.372 58.324 38.2077C59.1535 37.4997 60.1403 36.9597 60.791 36.0477C61.11 36.0732 61.3036 35.8266 61.5248 35.6735C63.2793 34.4532 65.0807 33.3158 66.9415 32.2591C68.5323 31.3556 70.2571 30.7327 71.8288 29.8015C73.2728 29.3975 74.6488 28.8065 76.0418 28.2644C78.6726 27.5777 81.3034 26.8889 83.9341 26.2022C84.5147 26.0448 85.0974 25.8875 85.678 25.7323C86.9349 25.4177 88.1918 25.0945 89.4509 24.7905C89.7507 24.7182 90.0634 24.6714 90.3696 24.6757C91.0948 24.6863 91.4436 25.171 91.2182 25.8705C91.0013 26.5423 90.7099 27.1886 90.5121 27.8647C90.2824 28.6492 90.6099 28.9702 91.4245 28.8214C92.3858 28.6471 92.7048 28.9617 92.4793 29.9184C92.2582 30.8496 91.8583 31.7361 91.7733 32.7013ZM65.8548 38.7328C65.8654 38.8008 65.8888 39.0538 65.9462 39.2983C66.9841 43.6226 69.3958 46.9583 73.2218 49.2289C74.6297 50.0644 76.1716 50.6193 77.7772 50.9743C78.3429 51.0998 78.8172 50.951 79.2043 50.4747C79.5148 50.092 79.5254 49.652 79.3744 49.2778C79.1256 48.657 78.5407 48.4316 77.9091 48.2722C75.5952 47.6854 73.5642 46.5693 71.8756 44.8748C70.0317 43.0252 68.9683 40.7589 68.3941 38.2353C68.2133 37.4423 67.6178 36.9916 66.9586 37.0915C66.278 37.2 65.8505 37.7612 65.8548 38.7328ZM71.295 35.682C71.295 35.8223 71.2673 35.9711 71.2992 36.1051C72.4413 41.0523 75.9291 44.388 80.71 45.3787C81.2247 45.485 81.6458 45.2256 81.935 44.794C82.2327 44.3497 82.2285 43.8884 81.9286 43.4462C81.65 43.0358 81.2651 42.802 80.7696 42.6702C78.3897 42.0473 76.4672 40.761 75.155 38.6435C74.5127 37.6082 74.1299 36.4644 73.7683 35.3036C73.5195 34.5021 72.9113 34.2023 72.1074 34.3809C71.4162 34.534 71.3077 35.0867 71.295 35.682ZM82.992 32.6716C82.9856 31.9785 82.3072 31.3131 81.6181 31.3216C80.9014 31.3301 80.2676 31.9785 80.2761 32.6928C80.2847 33.4157 80.9205 34.0407 81.6415 34.0365C82.3603 34.0301 82.9984 33.3859 82.992 32.6716Z" fill="#FA9F6A"/>
<path d="M33.7328 93.0225C33.2607 93.3605 33.1586 93.8707 33.0948 94.398C32.2611 95.3759 31.9209 96.6345 31.2212 97.689C30.9872 98.0419 30.7937 98.4204 30.5916 98.7903C30.3279 99.2708 29.9834 99.6109 29.3815 99.5238C28.7775 99.4345 28.5755 98.9774 28.4203 98.4714C27.8886 96.7472 27.3633 95.0209 26.8146 93.3031C25.6427 89.6251 23.1864 87.2036 19.5603 85.9429C18.5203 85.5814 17.4761 85.2392 16.4297 84.8947C15.8002 84.6885 15.2728 84.3441 15.1792 83.6532C15.092 83.0069 15.5259 82.5987 15.981 82.1735C16.8593 81.3507 18.0014 80.8405 18.7202 79.837C19.2944 79.8625 19.6369 79.433 20.0558 79.1545C21.4042 78.5359 22.7504 77.9172 24.0987 77.3007C25.1451 77.0519 26.1914 76.8032 27.2378 76.5544C28.8541 80.7597 31.6231 83.9338 35.6639 85.9726C35.481 87.6628 34.8834 89.2446 34.39 90.8561C34.1688 91.5768 33.7286 92.2337 33.7328 93.0225Z" fill="#FA9F6A"/>
<path d="M99.2999 53.6212C99.2233 52.1011 98.9681 50.6066 98.681 49.1162C97.5326 43.1613 95.1868 37.706 91.7734 32.7014C91.4437 33.2711 91.2672 33.894 91.1481 34.5361C91.9967 35.7139 92.7219 36.9619 93.328 38.28C95.3739 42.1472 96.6861 46.261 97.4156 50.564C98.0664 54.4015 98.1684 58.2708 97.7218 62.1252C96.7967 70.1254 93.8661 77.3347 88.7981 83.617C82.369 91.5853 74.1172 96.6664 64.0684 98.6096C54.4492 100.47 45.2128 99.1411 36.4932 94.5787C35.5256 94.145 34.6324 93.5773 33.7327 93.0203C33.2606 93.3583 33.1585 93.8686 33.0947 94.3958C38.1649 97.4913 43.6199 99.5323 49.5046 100.421C50.485 100.57 51.4995 100.51 52.4459 100.882C54.7661 100.882 57.0864 100.882 59.4045 100.882C59.4641 100.71 59.6129 100.727 59.7512 100.716C63.7133 100.44 67.5754 99.6258 71.244 98.1355C86.7202 91.8553 96.0034 80.5024 98.983 64.0365C99.1659 63.0267 99.0914 61.9807 99.4636 61.0048C99.4636 58.6854 99.4636 56.3659 99.4636 54.0485C99.2531 53.9678 99.3062 53.7785 99.2999 53.6212Z" fill="#E0712F"/>
<path d="M72.5839 18.9335C72.9199 19.0759 73.2687 19.1865 73.6132 19.3119L73.6281 19.3034C73.6983 19.3459 73.7663 19.3863 73.8365 19.4289C73.8918 19.4841 73.9492 19.5415 74.0045 19.5968C76.6863 20.7449 79.1108 22.3202 81.4268 24.0721C82.3009 24.7332 83.1984 25.3732 83.9342 26.2023C84.5148 26.045 85.0975 25.8877 85.6781 25.7325C84.0448 24.0806 82.2052 22.6753 80.2805 21.389C78.0325 19.886 75.708 18.5126 73.1581 17.5665C73.09 17.5176 73.0305 17.4538 72.9539 17.424C64.4236 13.9076 55.6211 12.9828 46.625 15.0557C33.4988 18.0746 23.7201 25.6198 17.4313 37.5126C12.8695 46.14 11.5807 55.3562 13.2225 64.9764C13.7904 68.2972 14.7028 71.5181 16.1149 74.5859C16.755 76.4504 17.7865 78.1214 18.7223 79.8392C19.2965 79.8648 19.6389 79.4353 20.0579 79.1568C19.4198 77.9152 18.6308 76.7523 18.1481 75.4342C18.0928 75.3789 18.0375 75.3215 17.9822 75.2662C17.9418 75.196 17.8992 75.128 17.8588 75.0579C17.8588 75.0579 17.8673 75.043 17.8673 75.0409C17.3973 75.0557 16.989 74.8325 16.5594 74.6901C16.989 74.8325 17.3973 75.0579 17.8673 75.0409C17.0188 72.8298 16.0936 70.6464 15.5109 68.3418C12.5186 56.483 14.0924 45.2789 20.6704 34.9466C27.0931 24.8608 36.3167 18.6529 48.035 16.3036C56.459 14.6156 64.666 15.5702 72.5839 18.9335Z" fill="#E0712F"/>
<path d="M93.3304 38.2821C95.3763 42.1493 96.6885 46.2631 97.4179 50.5661C98.0687 54.4036 98.1708 58.2729 97.7242 62.1274C96.7991 70.1275 93.8684 77.3368 88.8004 83.6191C82.3713 91.5874 74.1196 96.6685 64.0708 98.6117C54.4516 100.472 45.2152 99.1432 36.4956 94.5808C37.3335 92.1295 38.0736 89.6506 38.5309 87.0951C40.932 87.6585 43.3522 87.8095 45.7979 87.4417C48.1629 88.5961 50.7447 88.9596 53.2989 89.1212C55.7851 89.2764 58.2925 89.287 60.802 88.881C63.7752 88.3984 66.6165 87.5735 69.3345 86.3213C73.1051 84.5843 76.3952 82.1841 79.2408 79.1375C81.1995 77.0413 82.8498 74.7494 84.1748 72.2216C85.8464 69.0326 86.9608 65.6693 87.4585 62.0806C87.9178 58.7598 87.854 55.4687 87.4053 52.1649C87.3776 51.9608 87.2607 51.8736 87.0735 51.8503C87.1288 51.6802 87.1862 51.5101 87.2415 51.3421C87.3436 51.2486 87.4776 51.1742 87.5414 51.0594C89.3172 47.8342 90.8314 44.49 92.1734 41.065C92.5392 40.1275 92.7306 39.1197 93.3304 38.2821Z" fill="#FED7C6"/>
<path d="M93.3303 38.2821C92.7327 39.1197 92.5392 40.1275 92.1734 41.0629C90.8335 44.49 89.3172 47.8342 87.5414 51.0573C87.4776 51.1721 87.3436 51.2465 87.2415 51.34C86.8289 49.8072 86.5248 48.2424 85.9102 46.7691C87.9306 42.9253 89.6532 38.9582 90.9782 34.8188C91.0101 34.7168 91.0909 34.6318 91.1483 34.5382C91.9969 35.7139 92.7242 36.964 93.3303 38.2821Z" fill="#FDC0AD"/>
<path d="M38.5307 87.0952C38.0735 89.6506 37.3312 92.1296 36.4954 94.5808C35.5278 94.1471 34.6345 93.5795 33.7349 93.0225C33.7286 92.2337 34.1709 91.5768 34.3921 90.8561C34.8876 89.2467 35.4852 87.665 35.666 85.9727C36.6209 86.3468 37.5758 86.721 38.5307 87.0952Z" fill="#FDC0AD"/>
<path d="M18.146 75.4318C18.0907 75.3766 18.0354 75.3192 17.9801 75.2639C17.9397 75.1937 17.8972 75.1257 17.8568 75.0555C17.8568 75.0555 17.8653 75.0406 17.8653 75.0385C17.0167 72.8275 16.0916 70.6419 15.5089 68.3395C12.5187 56.4828 14.0925 45.2787 20.6705 34.9464C27.0932 24.8606 36.3168 18.6527 48.0351 16.3034C56.4591 14.6154 64.6661 15.57 72.584 18.9333C72.92 19.0757 73.2688 19.1863 73.6133 19.3117L73.6282 19.3032C73.6984 19.3457 73.7664 19.3861 73.8366 19.4287C73.8919 19.4839 73.9493 19.5413 74.0046 19.5966C74.0216 20.1728 74.3024 20.6766 74.4619 21.2124C75.1552 23.5255 75.7847 25.8513 76.0399 28.2622C74.6469 28.8065 73.2709 29.3954 71.8268 29.7993C70.8868 29.3571 69.9468 28.9149 69.0068 28.4748C65.553 26.8548 61.895 25.9725 58.1137 25.7386C53.5455 25.458 49.0772 26.0682 44.7791 27.7307C40.9297 29.2189 37.4567 31.2981 34.4347 34.1257C31.202 37.1468 28.6648 40.6547 26.8975 44.7153C25.3216 48.3359 24.4454 52.116 24.271 56.0576C24.1604 58.5684 24.3072 61.0749 24.8133 63.5283C25.1855 65.3291 25.5152 67.1744 26.4658 68.8072C26.1064 71.4498 26.453 74.0223 27.2421 76.548C26.1957 76.7967 25.1494 77.0455 24.103 77.2942C24.0796 77.1518 24.0435 77.0093 23.8797 76.9774C21.9316 76.5905 20.0622 75.9293 18.146 75.4318Z" fill="#FEE3CB"/>
<path d="M26.4639 68.8115C25.5132 67.1787 25.1836 65.3334 24.8114 63.5326C24.3052 61.0792 24.1585 58.5727 24.2691 56.0619C24.4435 52.1181 25.3197 48.3402 26.8956 44.7196C28.6629 40.6568 31.2001 37.1511 34.4327 34.13C37.4548 31.3046 40.9299 29.2253 44.7771 27.735C49.0753 26.0725 53.5456 25.4623 58.1117 25.7429C61.8931 25.9747 65.551 26.8591 69.0049 28.4791C69.9449 28.9213 70.8849 29.3614 71.8249 29.8036C70.2532 30.7348 68.5306 31.3598 66.9377 32.2613C65.0768 33.3179 63.2754 34.4553 61.5209 35.6756C61.2997 35.8287 61.1083 36.0753 60.7872 36.0498C58.4818 34.5255 55.9808 34.1236 53.2798 34.6636C52.0484 34.9103 51.1765 35.463 50.4853 36.5664C49.0774 38.8136 47.6248 41.031 46.4551 43.4121C45.7257 44.8918 44.8303 46.3056 44.4581 47.9448L44.4666 47.9363C44.3263 47.9278 44.305 48.0341 44.2752 48.134C44.0221 48.353 43.7776 48.5826 43.516 48.7909C42.3952 49.6817 41.3403 50.6342 40.5492 51.8417C39.6666 52.7006 39.1413 53.7807 38.6585 54.8883C38.3757 55.0074 38.0971 55.1434 37.8078 55.2455C34.9474 56.2362 32.4868 57.8116 30.4706 60.0906C28.2567 62.6014 26.9934 65.5332 26.4639 68.8115Z" fill="#FEEFE2"/>
<path d="M40.5513 51.8417C41.3424 50.632 42.3973 49.6796 43.5181 48.7909C43.7796 48.5826 44.0242 48.353 44.2773 48.134C44.3411 48.0681 44.4049 48.0022 44.4687 47.9363L44.4602 47.9448C44.6155 47.8916 44.7898 47.8703 44.926 47.7832C46.9272 46.5225 49.1114 45.7656 51.4338 45.3744C53.7583 45.0895 56.0339 45.3 58.2988 45.8953C64.2983 47.4707 69.343 53.2364 70.1107 59.3933C70.3851 61.6001 70.3574 63.775 69.7832 65.9329C69.7407 66.0923 69.7577 66.2688 69.7449 66.4367L69.7555 66.4304C69.713 66.4899 69.6683 66.5494 69.6258 66.6089C69.2196 67.7782 68.7602 68.9199 68.1647 70.0127C67.2502 71.6901 65.9508 73.0486 64.6493 74.4092C63.6157 75.1491 62.6267 75.9634 61.4507 76.4864C61.6655 75.3787 61.8824 74.2732 62.0972 73.1655C62.1589 73.072 62.2205 72.9784 62.2822 72.8849C62.9287 72.4278 63.5327 71.9218 64.0516 71.3202C66.9142 67.9993 68.1881 64.1938 67.5565 59.8079C67.0737 56.4594 65.5637 53.6424 63.0457 51.4123C59.8726 48.6059 56.1296 47.4388 51.925 47.9639C48.9348 48.3359 46.2892 49.5265 44.1263 51.6801C44.02 51.7375 43.9136 51.795 43.8073 51.8524C42.7227 51.8481 41.638 51.846 40.5513 51.8417Z" fill="#FEC82E"/>
<path d="M64.6514 74.4092C65.9529 73.0486 67.2524 71.6922 68.169 70.0126C68.7645 68.9199 69.2238 67.7782 69.63 66.6089C69.6726 66.5494 69.7172 66.4898 69.7598 66.4303L69.7491 66.4367C70.7274 66.0221 71.4463 65.2461 72.1991 64.5573C76.4207 60.6944 80.1021 56.3658 83.1497 51.5164C84.1237 49.9665 84.9935 48.3529 85.9123 46.769C86.5269 48.2424 86.831 49.8071 87.2436 51.3399C87.1883 51.51 87.1309 51.6801 87.0756 51.8481C86.4397 52.9089 85.8464 53.9996 85.1616 55.0264C82.4606 59.0807 79.4151 62.8395 75.8784 66.2177C72.6883 69.2664 69.1813 71.8622 65.4489 74.1838C65.2064 74.3348 64.9491 74.4517 64.6514 74.4092Z" fill="#FECEC1"/>
<path d="M51.4335 45.3745C49.1111 45.7657 46.9248 46.5225 44.9257 47.7832C44.7896 47.8683 44.6152 47.8917 44.46 47.9448C44.83 46.3057 45.7275 44.8919 46.457 43.4122C47.6288 41.0332 49.0792 38.8136 50.4871 36.5664C51.1804 35.4609 52.0503 34.9082 53.2816 34.6637C55.9826 34.1237 58.4836 34.5255 60.789 36.0498C60.1382 36.9619 59.1514 37.5019 58.322 38.2098C55.7869 40.3699 53.4794 42.7446 51.4335 45.3745Z" fill="#E0712F"/>
<path d="M65.855 38.7327C65.8508 37.7612 66.2782 37.1978 66.9588 37.0957C67.6181 36.9958 68.2136 37.4444 68.3943 38.2395C68.9685 40.7631 70.0319 43.0294 71.8758 44.879C73.5644 46.5734 75.5954 47.6896 77.9093 48.2764C78.541 48.4358 79.1258 48.6612 79.3746 49.282C79.5256 49.6561 79.5171 50.0941 79.2045 50.4789C78.8174 50.9551 78.3432 51.1018 77.7775 50.9785C76.1718 50.6256 74.6299 50.0707 73.222 49.2331C69.396 46.9625 66.9843 43.6268 65.9465 39.3025C65.889 39.0538 65.8656 38.8029 65.855 38.7327Z" fill="#EFEDEE"/>
<path d="M76.0397 28.2643C75.7823 25.8535 75.1528 23.5276 74.4616 21.2145C74.3 20.6788 74.0214 20.1749 74.0044 19.5988C76.6862 20.7468 79.1107 22.3222 81.4267 24.074C82.3008 24.7352 83.1983 25.3751 83.9341 26.2042C81.3012 26.8888 78.6704 27.5755 76.0397 28.2643Z" fill="#FED7C6"/>
<path d="M71.2948 35.682C71.3076 35.0888 71.4182 34.5339 72.1072 34.3809C72.9111 34.2023 73.5194 34.5042 73.7682 35.3035C74.1276 36.4643 74.5126 37.6081 75.1548 38.6435C76.467 40.7589 78.3896 42.0472 80.7694 42.6701C81.2671 42.7998 81.6499 43.0337 81.9285 43.4461C82.2283 43.8883 82.2326 44.3497 81.9348 44.794C81.6456 45.2277 81.2245 45.4871 80.7098 45.3787C75.929 44.3879 72.4411 41.0522 71.2991 36.105C71.2672 35.969 71.2948 35.8223 71.2948 35.682Z" fill="#EFEDEE"/>
<path d="M82.9923 32.6715C82.9987 33.3859 82.3607 34.03 81.6418 34.0343C80.9209 34.0407 80.2828 33.4135 80.2765 32.6907C80.2679 31.9763 80.9017 31.3279 81.6184 31.3194C82.3096 31.313 82.988 31.9784 82.9923 32.6715Z" fill="#A74140"/>
<path d="M26.4637 68.8115C26.9932 65.5332 28.2565 62.5993 30.4768 60.0906C32.493 57.8115 34.9536 56.234 37.814 55.2454C38.1033 55.1455 38.3819 55.0095 38.6647 54.8883C39.7728 54.918 40.8298 54.4461 41.9442 54.5481C43.4265 54.3759 44.8854 54.5013 46.3465 54.7969C47.7523 55.0817 49.0474 55.694 50.4128 56.0895L50.4064 56.081C50.4277 56.2128 50.5298 56.2447 50.6382 56.2659C51.1933 56.6444 51.7378 57.0462 52.3822 57.2715C53.2435 58.2027 54.3196 58.8937 55.1809 59.8419C56.138 60.8942 56.8207 62.1294 57.7075 63.2201C57.8649 64.1406 58.4199 64.9039 58.7283 65.7628C58.7475 65.8946 58.7411 66.0392 58.9006 66.1008L58.8921 66.0923C58.9006 66.2603 58.8815 66.4346 58.924 66.5962C59.4663 68.7009 59.7428 70.8248 59.4153 72.9976C59.3281 73.578 59.1515 74.1541 59.2281 74.7536C58.8772 75.7614 58.4263 76.7351 58.2179 77.7896C57.9606 77.9916 57.8734 78.2998 57.7309 78.5719C57.0546 79.8816 56.2252 81.087 55.2384 82.1819C52.6927 85.0137 49.4834 86.6529 45.7978 87.4395C43.3521 87.8073 40.9318 87.6564 38.5308 87.093C37.5759 86.7188 36.621 86.3446 35.6661 85.9704C31.6274 83.9316 28.8563 80.7575 27.2399 76.5522C26.4509 74.0266 26.1043 71.4541 26.4637 68.8115ZM42.9012 57.0696C35.7894 56.9526 28.9626 62.6397 28.9286 70.997C28.8967 78.9738 35.1641 85.0733 42.9778 85.0499C50.7573 85.0286 56.9802 78.9589 56.9525 71.0055C56.9227 62.6376 50.0683 56.9165 42.9012 57.0696Z" fill="#FEC82E"/>
<path d="M18.146 75.4319C20.0622 75.9294 21.9316 76.5884 23.8754 76.9817C24.0392 77.0158 24.0774 77.1561 24.0987 77.2985C22.7504 77.9172 21.4041 78.5358 20.0558 79.1524C19.4199 77.9151 18.6309 76.7521 18.146 75.4319Z" fill="#FED7C6"/>
<path d="M73.8365 19.4288C73.7663 19.3862 73.6982 19.3458 73.6279 19.3032C73.696 19.3458 73.7663 19.3862 73.8365 19.4288Z" fill="#CA5B5A"/>
<path d="M17.8545 75.0577C17.8949 75.128 17.9375 75.196 17.978 75.2663C17.9375 75.196 17.8971 75.1258 17.8545 75.0577Z" fill="#CA5B5A"/>
<path d="M45.7979 87.4438C49.4835 86.6571 52.6927 85.0159 55.2384 82.1862C56.2231 81.0891 57.0546 79.8858 57.7309 78.5762C57.8713 78.3041 57.9606 77.9958 58.218 77.7938C59.3855 77.577 60.4489 77.105 61.4548 76.4885C62.6309 75.9655 63.6177 75.1512 64.6534 74.4114C64.9512 74.4518 65.2085 74.3348 65.451 74.186C69.1834 71.8665 72.6904 69.2707 75.8805 66.2199C79.4172 62.8395 82.4627 59.0808 85.1636 55.0286C85.8484 53.9996 86.4418 52.9111 87.0777 51.8502C87.2649 51.8736 87.3818 51.9629 87.4095 52.1649C87.8561 55.4687 87.922 58.7597 87.4626 62.0805C86.965 65.6714 85.8506 69.0326 84.179 72.2216C82.854 74.7494 81.2037 77.0412 79.2449 79.1375C76.3994 82.184 73.1093 84.5843 69.3386 86.3212C66.6207 87.5734 63.7794 88.4005 60.8062 88.8809C58.2966 89.287 55.7871 89.2785 53.3031 89.1212C50.7425 88.9617 48.1628 88.5961 45.7979 87.4438Z" fill="#FEE7DD"/>
<path d="M41.9417 54.5503C40.8252 54.4482 39.7703 54.9202 38.6602 54.8904C39.1408 53.7828 39.6661 52.7028 40.5508 51.8439C41.6355 51.8481 42.7222 51.8503 43.8068 51.8545C43.6048 52.0841 43.373 52.2967 43.2092 52.5497C42.7818 53.2109 42.0289 53.6701 41.9417 54.5503Z" fill="#F8B52D"/>
<path d="M44.4689 47.9363C44.4051 48.0022 44.3412 48.0682 44.2773 48.1342C44.3071 48.0342 44.3284 47.9278 44.4689 47.9363Z" fill="#78848A"/>
<path d="M44.1284 51.678C46.2913 49.5244 48.937 48.3338 51.9271 47.9618C56.1338 47.4388 59.8769 48.606 63.0478 51.4102C65.568 53.6403 67.078 56.4573 67.5586 59.8057C68.1903 64.1917 66.9185 67.9972 64.0538 71.3181C63.5348 71.9197 62.9308 72.4257 62.2843 72.8828C62.2439 71.5732 62.4055 70.2529 62.1035 68.9539C62.1163 68.8646 62.1312 68.7732 62.144 68.6839C63.4732 67.2914 64.0857 65.5608 64.4791 63.7282C64.5706 63.3073 64.3579 63.1882 63.9687 63.1946C62.8437 63.2137 61.7186 63.2095 60.5936 63.2159C60.5383 63.1925 60.483 63.1691 60.4277 63.1478C60.2575 62.1784 59.6004 61.43 59.2367 60.5456C60.785 60.5328 62.3354 60.4988 63.8836 60.5201C64.4493 60.5265 64.5748 60.3096 64.4621 59.8121C64.1473 58.4323 63.6688 57.127 62.9053 55.9173C62.5821 55.407 62.3907 55.407 61.9845 55.8131C60.7701 57.0249 59.5515 58.2346 58.2244 59.3253C58.0862 58.9809 57.8565 58.7066 57.6098 58.4302C57.2822 58.0624 56.7718 57.8307 56.6889 57.2694C57.8246 56.1724 58.9347 55.0456 60.1065 53.989C60.6595 53.4915 60.5447 53.247 59.9917 52.8941C58.6965 52.065 57.3397 51.4421 55.8169 51.1189C55.0322 50.9531 54.9875 51.2209 54.9981 51.8439C55.0215 53.1981 54.9896 54.5545 54.979 55.9088C54.1623 55.3603 53.4648 54.6162 52.4588 54.3802C52.4269 54.2696 52.395 54.1612 52.361 54.0507C52.3801 53.213 52.3908 52.3754 52.4227 51.5398C52.4418 51.0764 52.2695 50.9765 51.8165 51.0594C50.5384 51.2954 49.3495 51.761 48.2032 52.3499C46.8443 52.1309 45.4874 51.9055 44.1284 51.678Z" fill="#FEE4BF"/>
<path d="M44.1285 51.678C45.4875 51.9033 46.8443 52.1308 48.2033 52.3562C48.1884 52.4051 48.1714 52.454 48.1544 52.5029C47.5483 52.7282 47.9524 52.9876 48.1331 53.2342C48.8583 54.2143 49.8154 55.0094 50.413 56.0916C49.0476 55.6961 47.7524 55.0838 46.3467 54.7989C44.8856 54.5013 43.4267 54.378 41.9443 54.5502C42.0315 53.67 42.7844 53.2108 43.2119 52.5475C43.3756 52.2924 43.6074 52.0819 43.8095 51.8523C43.9158 51.7949 44.0222 51.7354 44.1285 51.678Z" fill="#F4D4B3"/>
<path d="M62.1056 68.9561C62.4076 70.2551 62.2438 71.5754 62.2864 72.885C62.2247 72.9785 62.163 73.0721 62.1013 73.1656C61.1592 73.7247 60.2341 74.3136 59.2281 74.7559C59.1516 74.1563 59.3281 73.5802 59.4153 72.9998C59.7407 70.8249 59.4642 68.7031 58.924 66.5984C58.8836 66.4389 58.9027 66.2625 58.8921 66.0945C59.1345 66.0796 59.2175 66.2837 59.3408 66.4283C59.9959 67.1958 60.6466 67.9675 61.3017 68.735C61.5165 68.988 61.7185 69.3133 62.1056 68.9561Z" fill="#F4D4B3"/>
<path d="M59.2281 74.758C60.2341 74.3158 61.1592 73.7269 62.1014 73.1677C61.8844 74.2732 61.6696 75.3809 61.4527 76.4885C60.4468 77.1051 59.3834 77.5771 58.2158 77.7939C58.4264 76.7373 58.8751 75.7636 59.2281 74.758Z" fill="#F8B52D"/>
<path d="M69.7578 66.4304C69.7152 66.49 69.6705 66.5496 69.6279 66.6092C69.6705 66.5496 69.7152 66.49 69.7578 66.4304Z" fill="#A5B8BF"/>
<path d="M42.901 57.0695C50.0702 56.9165 56.9246 62.6354 56.9523 71.0055C56.9799 78.9589 50.7571 85.0286 42.9775 85.0499C35.1618 85.0711 28.8943 78.9737 28.9284 70.997C28.9624 62.6418 35.7892 56.9547 42.901 57.0695ZM45.821 72.3767C47.516 74.3752 49.0855 76.2227 50.6487 78.0744C50.8869 78.3572 51.0549 78.3785 51.3101 78.0681C52.5797 76.531 53.3794 74.7876 53.7346 72.8296C53.7984 72.4724 53.6835 72.3725 53.3581 72.3746C50.9039 72.3768 48.4496 72.3767 45.821 72.3767ZM40.0512 69.6831C38.303 67.6443 36.7143 65.7925 35.1257 63.9386C34.8428 63.6091 34.6897 63.877 34.5366 64.0662C33.3137 65.5587 32.5098 67.2382 32.1886 69.1559C32.1121 69.6172 32.2376 69.6916 32.6331 69.6874C33.8773 69.6767 35.1214 69.6831 36.3655 69.6831C37.514 69.6831 38.6582 69.6831 40.0512 69.6831ZM44.2855 67.6698C44.3514 67.7038 44.4195 67.7378 44.4854 67.7718C46.2166 66.1284 47.9477 64.485 49.681 62.8416C49.9596 62.5759 49.7172 62.4802 49.5385 62.342C48.1306 61.2471 46.5441 60.5774 44.7853 60.2819C44.3961 60.216 44.2791 60.284 44.2812 60.6688C44.2897 63.0011 44.2855 65.3354 44.2855 67.6698ZM41.593 74.1562C39.7555 75.8762 38.0924 77.4409 36.4208 78.995C36.0699 79.3203 36.0444 79.5414 36.4676 79.8497C37.8628 80.8659 39.4131 81.4888 41.0996 81.8162C41.5101 81.8949 41.5952 81.7439 41.5952 81.391C41.5909 79.0545 41.593 76.7181 41.593 74.1562ZM39.5875 72.3767C37.0886 72.3767 34.7875 72.3789 32.4885 72.3746C32.1227 72.3746 32.0951 72.5447 32.1525 72.8615C32.3737 74.0924 32.7799 75.2532 33.3796 76.3481C34.0602 77.594 34.0623 77.5918 35.1044 76.5947C35.2873 76.4204 35.4872 76.261 35.6701 76.0866C36.9291 74.8982 38.186 73.7055 39.5875 72.3767ZM46.5377 69.4833C46.5653 69.5492 46.5951 69.6151 46.6228 69.681C48.8707 69.681 51.1187 69.681 53.3666 69.681C53.6346 69.681 53.7728 69.6172 53.7218 69.2855C53.4857 67.7272 52.9158 66.3049 52.0502 64.9953C51.8545 64.6998 51.6525 64.6275 51.3718 64.8953C49.7639 66.4261 48.1498 67.9547 46.5377 69.4833ZM41.593 67.4019C41.593 64.9804 41.593 62.8182 41.593 60.654C41.593 60.3627 41.5611 60.1926 41.1656 60.2543C39.7811 60.469 38.5029 60.9474 37.3119 61.6787C37.0397 61.8445 36.9504 61.9976 37.1865 62.2697C38.6007 63.911 40.0086 65.5565 41.593 67.4019ZM44.2855 74.6516C44.2855 77.0476 44.2834 79.1651 44.2876 81.2826C44.2876 81.5887 44.2238 81.9204 44.7555 81.829C46.106 81.593 47.3607 81.121 48.5453 80.4364C48.8112 80.2834 48.9388 80.1537 48.6899 79.8624C47.2693 78.1935 45.8614 76.5182 44.2855 74.6516Z" fill="#FEE4BF"/>
<path d="M56.6865 57.2737C56.7716 57.835 57.2799 58.0667 57.6074 58.4345C57.8541 58.7109 58.0838 58.9852 58.222 59.3296C58.222 59.3785 58.2178 59.4295 58.2093 59.4784C57.8456 59.7314 57.5351 60.0312 57.1927 60.4882C57.9009 60.4882 58.4815 60.4882 59.0599 60.4882C59.1195 60.5074 59.1769 60.5286 59.2365 60.5478C59.6001 61.4301 60.2552 62.1784 60.4274 63.15C59.5193 63.1755 58.6133 63.201 57.7052 63.2244C56.8184 62.1338 56.1336 60.8986 55.1787 59.8462C54.3173 58.898 53.2412 58.207 52.3799 57.2759C52.4054 56.3149 52.4309 55.3518 52.4564 54.3909C53.4624 54.6269 54.16 55.371 54.9766 55.9195C54.9979 56.0343 55.0213 56.1469 55.0426 56.2618C54.9979 57.0292 54.9554 57.7967 55.0745 58.6535C55.6891 58.2326 56.1293 57.7818 56.5334 57.2907C56.5844 57.2822 56.6355 57.278 56.6865 57.2737Z" fill="#F4D4B3"/>
<path d="M57.7051 63.2243C58.6132 63.1988 59.5192 63.1754 60.4273 63.1499C60.4826 63.1733 60.5379 63.1945 60.5932 63.2179C60.9675 64.3596 61.4566 65.463 61.7182 66.6451C61.8692 67.3254 61.8501 68.0397 62.1457 68.6881C62.1329 68.7774 62.118 68.8689 62.1053 68.9581C61.7182 69.3153 61.5162 68.99 61.2993 68.737C60.6442 67.9696 59.9934 67.1999 59.3384 66.4303C59.2151 66.2858 59.1342 66.0838 58.8897 66.0965L58.8982 66.105C58.9109 65.9562 58.862 65.8393 58.7259 65.767C58.4175 64.906 57.8625 64.1449 57.7051 63.2243Z" fill="#F8B52D"/>
<path d="M52.4565 54.3887C52.431 55.3496 52.4055 56.3127 52.3799 57.2737C51.7355 57.0483 51.1911 56.6465 50.636 56.2681C50.5595 56.2064 50.4829 56.1448 50.4042 56.0831L50.4106 56.0916C49.8108 55.0095 48.8538 54.2165 48.1307 53.2343C47.95 52.9898 47.5459 52.7283 48.152 52.5029C49.645 52.7772 50.8933 53.7084 52.3587 54.057C52.3927 54.1676 52.4246 54.2781 52.4565 54.3887Z" fill="#F8B52D"/>
<path d="M58.7285 65.7671C58.8647 65.8394 58.9137 65.9565 58.9009 66.1054C58.7413 66.0437 58.7477 65.899 58.7285 65.7671Z" fill="#F4D4B3"/>
<path d="M50.4043 56.0831C50.4809 56.1448 50.5576 56.2065 50.6363 56.2683C50.5278 56.247 50.4256 56.2151 50.4043 56.0831Z" fill="#F4D4B3"/>
<path d="M56.6865 57.2736C56.6354 57.2779 56.5844 57.2821 56.5333 57.2864C56.025 56.959 55.6592 56.4275 55.0425 56.2574C55.0212 56.1426 54.9978 56.0299 54.9766 55.9151C54.9872 54.5608 55.0191 53.2044 54.9957 51.8502C54.9851 51.2273 55.0297 50.9573 55.8145 51.1252C57.3372 51.4462 58.6941 52.0713 59.9893 52.9004C60.5422 53.2533 60.6592 53.4978 60.1041 53.9953C58.9323 55.0498 57.8221 56.1766 56.6865 57.2736Z" fill="#FEC82E"/>
<path d="M59.2386 60.5477C59.1791 60.5285 59.1217 60.5073 59.0621 60.4881C58.7856 60.1459 58.6495 59.6845 58.2114 59.4783C58.2178 59.4294 58.2221 59.3784 58.2242 59.3295C59.5513 58.2388 60.7699 57.0291 61.9842 55.8173C62.3926 55.4113 62.5819 55.4091 62.9051 55.9215C63.6686 57.1291 64.1471 58.4344 64.4619 59.8163C64.5746 60.3138 64.4491 60.5307 63.8834 60.5243C62.3373 60.5009 60.7869 60.5349 59.2386 60.5477Z" fill="#FEC82E"/>
<path d="M62.1458 68.686C61.8502 68.0376 61.8693 67.3233 61.7183 66.643C61.4567 65.4609 60.9676 64.3575 60.5933 63.2158C61.7183 63.2116 62.8433 63.2137 63.9684 63.1946C64.3597 63.1882 64.5702 63.3073 64.4788 63.7282C64.0875 65.5629 63.475 67.2935 62.1458 68.686Z" fill="#FEC82E"/>
<path d="M52.361 54.0592C50.8957 53.7105 49.6473 52.7793 48.1543 52.5051C48.1713 52.4562 48.1883 52.4073 48.2032 52.3584C49.3516 51.7695 50.5384 51.3039 51.8165 51.0679C52.2695 50.985 52.4418 51.0849 52.4226 51.5484C52.3907 52.3839 52.3801 53.2215 52.361 54.0592Z" fill="#FEC82E"/>
<path d="M45.8213 72.3768C48.4521 72.3768 50.9042 72.3789 53.3563 72.3746C53.6838 72.3746 53.7987 72.4724 53.7327 72.8296C53.3776 74.7876 52.5779 76.531 51.3083 78.0681C51.053 78.3763 50.885 78.3572 50.6468 78.0744C49.0837 76.2227 47.5142 74.3752 45.8213 72.3768Z" fill="#FEC82E"/>
<path d="M40.0514 69.6832C38.6606 69.6832 37.5143 69.6832 36.3679 69.6832C35.1238 69.6832 33.8797 69.6747 32.6355 69.6874C32.24 69.6917 32.1124 69.6151 32.191 69.1559C32.5122 67.2383 33.3161 65.5587 34.539 64.0663C34.6921 63.8792 34.8452 63.6092 35.1281 63.9387C36.7125 65.7926 38.3033 67.6465 40.0514 69.6832Z" fill="#FEC82E"/>
<path d="M44.2855 67.6698C44.2855 65.3355 44.2898 63.0011 44.2813 60.6668C44.2792 60.2819 44.3961 60.216 44.7853 60.2798C46.5441 60.5775 48.1307 61.245 49.5386 62.3399C49.7172 62.4781 49.9597 62.5759 49.681 62.8395C47.9478 64.4829 46.2187 66.1263 44.4854 67.7697C44.4195 67.7378 44.3536 67.7038 44.2855 67.6698Z" fill="#FEC82E"/>
<path d="M41.5935 74.1562C41.5935 76.7181 41.5913 79.0546 41.5956 81.391C41.5956 81.7461 41.5105 81.897 41.1001 81.8162C39.4136 81.4888 37.8632 80.8659 36.468 79.8497C36.0448 79.5414 36.0703 79.3203 36.4213 78.995C38.0929 77.4409 39.756 75.8762 41.5935 74.1562Z" fill="#FEC82E"/>
<path d="M39.5876 72.3768C38.1861 73.7056 36.9292 74.8983 35.6702 76.0888C35.4851 76.2632 35.2874 76.4205 35.1045 76.5969C34.0624 77.5962 34.0602 77.5983 33.3797 76.3503C32.7799 75.2554 32.3737 74.0946 32.1526 72.8637C32.0951 72.5469 32.1228 72.3768 32.4886 72.3768C34.7876 72.379 37.0887 72.3768 39.5876 72.3768Z" fill="#FEC82E"/>
<path d="M46.5381 69.4834C48.1501 67.9548 49.7622 66.4283 51.3721 64.8954C51.6529 64.6276 51.8549 64.6999 52.0506 64.9954C52.9183 66.305 53.4882 67.7273 53.7222 69.2856C53.7732 69.6173 53.635 69.6811 53.367 69.6811C51.1191 69.6811 48.8711 69.6811 46.6232 69.6811C46.5955 69.6152 46.5679 69.5493 46.5381 69.4834Z" fill="#FEC82E"/>
<path d="M41.5932 67.402C40.0087 65.5566 38.6008 63.9111 37.1866 62.2719C36.9526 61.9998 37.0398 61.8467 37.312 61.6809C38.503 60.9517 39.7791 60.4712 41.1657 60.2565C41.5634 60.1948 41.5932 60.3649 41.5932 60.6562C41.5932 62.8183 41.5932 64.9805 41.5932 67.402Z" fill="#FEC82E"/>
<path d="M44.2856 74.6516C45.8615 76.5182 47.2694 78.1935 48.6901 79.8603C48.9389 80.1516 48.8113 80.2813 48.5455 80.4343C47.363 81.1189 46.1061 81.5909 44.7556 81.8269C44.2218 81.9204 44.2877 81.5888 44.2877 81.2805C44.2856 79.1651 44.2856 77.0476 44.2856 74.6516Z" fill="#FEC82E"/>
<path d="M55.0428 56.2574C55.6595 56.4275 56.0274 56.959 56.5336 57.2864C56.1295 57.7775 55.6893 58.2304 55.0747 58.6492C54.9577 57.7924 54.9981 57.0249 55.0428 56.2574Z" fill="#F8B52D"/>
<path d="M58.2114 59.4784C58.6495 59.6867 58.7835 60.146 59.0621 60.4882C58.4836 60.4882 57.903 60.4882 57.1948 60.4882C57.5372 60.0312 57.8477 59.7293 58.2114 59.4784Z" fill="#F8B52D"/>
</svg>
