<svg width="113" height="113" viewBox="0 0 113 113" fill="none" xmlns="http://www.w3.org/2000/svg">
<circle cx="56.1619" cy="56.9228" r="55.9509" fill="#1DE2CF"/>
<path d="M91.4344 32.7013C91.1047 33.2711 90.9282 33.894 90.8091 34.5361C90.7517 34.6296 90.6709 34.7147 90.639 34.8167C89.3162 38.956 87.5914 42.9232 85.571 46.767C84.6522 48.3509 83.7824 49.9645 82.8084 51.5143C79.7608 56.3638 76.0794 60.6923 71.8578 64.5552C71.1028 65.2462 70.3861 66.0222 69.4078 66.4368C69.4185 66.2688 69.4036 66.0945 69.4461 65.9329C70.0182 63.775 70.048 61.6001 69.7736 59.3933C69.0059 53.2343 63.9613 47.4707 57.9618 45.8953C55.6968 45.3 53.4191 45.0896 51.0967 45.3744C53.1426 42.7446 55.448 40.372 57.9852 38.2077C58.8146 37.4997 59.8014 36.9597 60.4522 36.0477C60.7712 36.0732 60.9647 35.8266 61.1859 35.6735C62.9404 34.4532 64.7418 33.3158 66.6027 32.2591C68.1935 31.3556 69.9183 30.7327 71.4899 29.8015C72.934 29.3975 74.31 28.8065 75.703 28.2644C78.3337 27.5777 80.9645 26.8889 83.5953 26.2022C84.1759 26.0448 84.7586 25.8875 85.3392 25.7323C86.5961 25.4177 87.853 25.0945 89.112 24.7905C89.4119 24.7182 89.7245 24.6714 90.0307 24.6757C90.756 24.6863 91.1047 25.171 90.8793 25.8705C90.6624 26.5423 90.371 27.1886 90.1732 27.8647C89.9435 28.6492 90.2711 28.9702 91.0856 28.8214C92.0469 28.6471 92.3659 28.9617 92.1405 29.9184C91.9193 30.8496 91.5195 31.7361 91.4344 32.7013ZM65.5159 38.7328C65.5266 38.8008 65.5499 39.0538 65.6074 39.2983C66.6452 43.6226 69.0569 46.9583 72.8829 49.2289C74.2908 50.0644 75.8327 50.6193 77.4384 50.9743C78.0041 51.0998 78.4783 50.951 78.8654 50.4747C79.1759 50.092 79.1865 49.652 79.0355 49.2778C78.7867 48.657 78.2019 48.4316 77.5702 48.2722C75.2563 47.6854 73.2253 46.5693 71.5367 44.8748C69.6928 43.0252 68.6295 40.7589 68.0552 38.2353C67.8745 37.4423 67.279 36.9916 66.6197 37.0915C65.9391 37.2 65.5117 37.7612 65.5159 38.7328ZM70.9561 35.682C70.9561 35.8223 70.9284 35.9711 70.9604 36.1051C72.1024 41.0523 75.5902 44.388 80.3711 45.3787C80.8858 45.485 81.3069 45.2256 81.5961 44.794C81.8939 44.3497 81.8896 43.8884 81.5897 43.4462C81.3111 43.0358 80.9262 42.802 80.4307 42.6702C78.0509 42.0473 76.1283 40.761 74.8161 38.6435C74.1738 37.6082 73.791 36.4644 73.4295 35.3036C73.1807 34.5021 72.5724 34.2023 71.7685 34.3809C71.0773 34.534 70.9689 35.0867 70.9561 35.682ZM82.6531 32.6716C82.6467 31.9785 81.9683 31.3131 81.2792 31.3216C80.5625 31.3301 79.9288 31.9785 79.9373 32.6928C79.9458 33.4157 80.5817 34.0407 81.3026 34.0365C82.0215 34.0301 82.6595 33.3859 82.6531 32.6716Z" fill="#FA9F6A"/>
<path d="M33.3935 93.0225C32.9213 93.3605 32.8193 93.8707 32.7555 94.398C31.9218 95.3759 31.5815 96.6345 30.8818 97.689C30.6479 98.0419 30.4543 98.4204 30.2523 98.7903C29.9886 99.2708 29.644 99.6109 29.0422 99.5238C28.4382 99.4345 28.2361 98.9774 28.0809 98.4714C27.5492 96.7472 27.0239 95.0209 26.4752 93.3031C25.3034 89.6251 22.847 87.2036 19.2209 85.9429C18.181 85.5814 17.1367 85.2392 16.0904 84.8947C15.4609 84.6885 14.9334 84.3441 14.8399 83.6532C14.7527 83.0069 15.1865 82.5987 15.6416 82.1735C16.52 81.3507 17.662 80.8405 18.3809 79.837C18.9551 79.8625 19.2975 79.433 19.7165 79.1545C21.0648 78.5359 22.411 77.9172 23.7594 77.3007C24.8057 77.0519 25.8521 76.8032 26.8984 76.5544C28.5147 80.7597 31.2838 83.9338 35.3245 85.9726C35.1416 87.6628 34.544 89.2446 34.0506 90.8561C33.8295 91.5768 33.3892 92.2337 33.3935 93.0225Z" fill="#FA9F6A"/>
<path d="M98.9605 53.6212C98.8839 52.1011 98.6287 50.6065 98.3416 49.1162C97.1932 43.1612 94.8474 37.7059 91.434 32.7013C91.1044 33.2711 90.9278 33.894 90.8087 34.536C91.6573 35.7138 92.3825 36.9618 92.9886 38.2799C95.0346 42.1471 96.3468 46.2609 97.0762 50.564C97.727 54.4014 97.8291 58.2707 97.3825 62.1252C96.4573 70.1253 93.5267 77.3346 88.4587 83.6169C82.0296 91.5852 73.7779 96.6663 63.7291 98.6095C54.1099 100.47 44.8735 99.141 36.1539 94.5786C35.1862 94.1449 34.293 93.5773 33.3934 93.0202C32.9213 93.3583 32.8192 93.8685 32.7554 94.3958C37.8255 97.4912 43.2806 99.5322 49.1652 100.421C50.1456 100.57 51.1601 100.51 52.1065 100.882C54.4268 100.882 56.747 100.882 59.0652 100.882C59.1247 100.71 59.2736 100.727 59.4118 100.716C63.3739 100.44 67.2361 99.6257 70.9047 98.1354C86.3809 91.8552 95.6641 80.5023 98.6436 64.0364C98.8265 63.0266 98.7521 61.9806 99.1243 61.0048C99.1243 58.6853 99.1243 56.3658 99.1243 54.0485C98.9137 53.9677 98.9669 53.7785 98.9605 53.6212Z" fill="#E0712F"/>
<path d="M72.2445 18.9335C72.5805 19.0759 72.9293 19.1865 73.2738 19.3119L73.2887 19.3034C73.3589 19.3459 73.427 19.3863 73.4972 19.4289C73.5525 19.4841 73.6099 19.5415 73.6652 19.5968C76.347 20.7449 78.7714 22.3202 81.0875 24.0721C81.9615 24.7332 82.859 25.3732 83.5949 26.2023C84.1755 26.045 84.7582 25.8877 85.3388 25.7325C83.7055 24.0806 81.8658 22.6753 79.9411 21.389C77.6932 19.886 75.3687 18.5126 72.8187 17.5665C72.7507 17.5176 72.6911 17.4538 72.6146 17.424C64.0842 13.9076 55.2817 12.9828 46.2856 15.0557C33.1594 18.0746 23.3807 25.6198 17.092 37.5126C12.5302 46.14 11.2414 55.3562 12.8832 64.9764C13.451 68.2972 14.3634 71.5181 15.7755 74.5859C16.4157 76.4504 17.4472 78.1214 18.3829 79.8392C18.9571 79.8648 19.2995 79.4353 19.7185 79.1568C19.0805 77.9152 18.2915 76.7523 17.8087 75.4342C17.7534 75.3789 17.6981 75.3215 17.6428 75.2662C17.6024 75.196 17.5599 75.128 17.5195 75.0579C17.5195 75.0579 17.528 75.043 17.528 75.0409C17.058 75.0557 16.6496 74.8325 16.22 74.6901C16.6496 74.8325 17.058 75.0579 17.528 75.0409C16.6794 72.8298 15.7543 70.6464 15.1716 68.3418C12.1792 56.483 13.753 45.2789 20.331 34.9466C26.7537 24.8608 35.9774 18.6529 47.6957 16.3036C56.1196 14.6156 64.3267 15.5702 72.2445 18.9335Z" fill="#E0712F"/>
<path d="M92.991 38.2821C95.0369 42.1493 96.3491 46.2631 97.0786 50.5661C97.7294 54.4036 97.8315 58.2729 97.3848 62.1274C96.4597 70.1275 93.5291 77.3368 88.4611 83.6191C82.032 91.5874 73.7802 96.6685 63.7314 98.6117C54.1122 100.472 44.8758 99.1432 36.1562 94.5808C36.9942 92.1295 37.7343 89.6506 38.1915 87.0951C40.5926 87.6585 43.0128 87.8095 45.4586 87.4417C47.8235 88.5961 50.4053 88.9596 52.9596 89.1212C55.4457 89.2764 57.9531 89.287 60.4627 88.881C63.4358 88.3984 66.2771 87.5735 68.9951 86.3213C72.7658 84.5843 76.0559 82.1841 78.9014 79.1375C80.8601 77.0413 82.5105 74.7494 83.8354 72.2216C85.507 69.0326 86.6214 65.6693 87.1191 62.0806C87.5785 58.7598 87.5147 55.4687 87.0659 52.1649C87.0383 51.9608 86.9213 51.8736 86.7342 51.8503C86.7895 51.6802 86.8469 51.5101 86.9022 51.3421C87.0043 51.2486 87.1382 51.1742 87.202 51.0594C88.9779 47.8342 90.4921 44.49 91.8341 41.065C92.1999 40.1275 92.3913 39.1197 92.991 38.2821Z" fill="#FED7C6"/>
<path d="M92.991 38.2821C92.3934 39.1197 92.1998 40.1275 91.834 41.0629C90.4942 44.49 88.9778 47.8342 87.202 51.0573C87.1382 51.1721 87.0042 51.2465 86.9021 51.34C86.4896 49.8072 86.1854 48.2424 85.5708 46.7691C87.5912 42.9253 89.3139 38.9582 90.6388 34.8188C90.6707 34.7168 90.7515 34.6318 90.8089 34.5382C91.6575 35.7139 92.3849 36.964 92.991 38.2821Z" fill="#FDC0AD"/>
<path d="M17.8067 75.4318C17.7514 75.3766 17.6961 75.3192 17.6408 75.2639C17.6004 75.1937 17.5578 75.1257 17.5174 75.0555C17.5174 75.0555 17.5259 75.0406 17.5259 75.0385C16.6774 72.8275 15.7523 70.6419 15.1695 68.3395C12.1793 56.4828 13.7531 45.2787 20.3311 34.9464C26.7538 24.8606 35.9775 18.6527 47.6958 16.3034C56.1197 14.6154 64.3268 15.57 72.2446 18.9333C72.5806 19.0757 72.9294 19.1863 73.2739 19.3117L73.2888 19.3032C73.359 19.3457 73.4271 19.3861 73.4973 19.4287C73.5525 19.4839 73.61 19.5413 73.6653 19.5966C73.6823 20.1728 73.963 20.6766 74.1225 21.2124C74.8158 23.5255 75.4453 25.8513 75.7005 28.2622C74.3075 28.8065 72.9315 29.3954 71.4875 29.7993C70.5475 29.3571 69.6075 28.9149 68.6674 28.4748C65.2136 26.8548 61.5557 25.9725 57.7743 25.7386C53.2061 25.458 48.7379 26.0682 44.4397 27.7307C40.5903 29.2189 37.1174 31.2981 34.0953 34.1257C30.8627 37.1468 28.3255 40.6547 26.5582 44.7153C24.9823 48.3359 24.1061 52.116 23.9317 56.0576C23.8211 58.5684 23.9678 61.0749 24.474 63.5283C24.8462 65.3291 25.1758 67.1744 26.1264 68.8072C25.767 71.4498 26.1137 74.0223 26.9027 76.548C25.8563 76.7967 24.81 77.0455 23.7636 77.2942C23.7403 77.1518 23.7041 77.0093 23.5403 76.9774C21.5923 76.5905 19.7229 75.9293 17.8067 75.4318Z" fill="#FEE3CB"/>
<path d="M26.1245 68.8115C25.1738 67.1787 24.8442 65.3334 24.472 63.5326C23.9659 61.0792 23.8191 58.5727 23.9297 56.0619C24.1041 52.1181 24.9803 48.3402 26.5562 44.7196C28.3235 40.6568 30.8607 37.1511 34.0934 34.13C37.1154 31.3046 40.5905 29.2253 44.4378 27.735C48.7359 26.0725 53.2063 25.4623 57.7724 25.7429C61.5537 25.9747 65.2117 26.8591 68.6655 28.4791C69.6055 28.9213 70.5455 29.3614 71.4855 29.8036C69.9139 30.7348 68.1912 31.3598 66.5983 32.2613C64.7374 33.3179 62.9361 34.4553 61.1815 35.6756C60.9604 35.8287 60.7689 36.0753 60.4478 36.0498C58.1424 34.5255 55.6414 34.1236 52.9404 34.6636C51.7091 34.9103 50.8371 35.463 50.1459 36.5664C48.738 38.8136 47.2855 41.031 46.1158 43.4121C45.3863 44.8918 44.4909 46.3056 44.1188 47.9448L44.1273 47.9363C43.9869 47.9278 43.9656 48.0341 43.9359 48.134C43.6828 48.353 43.4382 48.5826 43.1766 48.7909C42.0558 49.6817 41.001 50.6342 40.2098 51.8417C39.3272 52.7006 38.8019 53.7807 38.3192 54.8883C38.0363 55.0074 37.7577 55.1434 37.4685 55.2455C34.608 56.2362 32.1474 57.8116 30.1313 60.0906C27.9173 62.6014 26.6541 65.5332 26.1245 68.8115Z" fill="#FEEFE2"/>
<path d="M40.2119 51.8417C41.0031 50.632 42.0579 49.6796 43.1787 48.7909C43.4403 48.5826 43.6849 48.353 43.9379 48.134C44.0017 48.0681 44.0656 48.0022 44.1294 47.9363L44.1208 47.9448C44.2761 47.8916 44.4505 47.8703 44.5866 47.7832C46.5879 46.5225 48.772 45.7656 51.0944 45.3744C53.4189 45.0895 55.6945 45.3 57.9595 45.8953C63.959 47.4707 69.0036 53.2364 69.7713 59.3933C70.0457 61.6001 70.018 63.775 69.4438 65.9329C69.4013 66.0923 69.4183 66.2688 69.4056 66.4367L69.4162 66.4304C69.3736 66.4899 69.329 66.5494 69.2865 66.6089C68.8802 67.7782 68.4209 68.9199 67.8254 70.0127C66.9109 71.6901 65.6115 73.0486 64.3099 74.4092C63.2763 75.1491 62.2874 75.9634 61.1113 76.4864C61.3261 75.3787 61.543 74.2732 61.7578 73.1655C61.8195 73.072 61.8812 72.9784 61.9429 72.8849C62.5894 72.4278 63.1934 71.9218 63.7123 71.3202C66.5749 67.9993 67.8488 64.1938 67.2171 59.8079C66.7344 56.4594 65.2244 53.6424 62.7063 51.4123C59.5333 48.6059 55.7902 47.4388 51.5857 47.9639C48.5955 48.3359 45.9498 49.5265 43.7869 51.6801C43.6806 51.7375 43.5743 51.795 43.4679 51.8524C42.3833 51.8481 41.2987 51.846 40.2119 51.8417Z" fill="#FEC82E"/>
<path d="M64.312 74.4092C65.6136 73.0486 66.913 71.6922 67.8296 70.0126C68.4251 68.9199 68.8845 67.7782 69.2907 66.6089C69.3332 66.5494 69.3779 66.4898 69.4204 66.4303L69.4098 66.4367C70.3881 66.0221 71.1069 65.2461 71.8598 64.5573C76.0813 60.6944 79.7627 56.3658 82.8103 51.5164C83.7844 49.9665 84.6542 48.3529 85.5729 46.769C86.1876 48.2424 86.4917 49.8071 86.9043 51.3399C86.849 51.51 86.7916 51.6801 86.7363 51.8481C86.1004 52.9089 85.507 53.9996 84.8222 55.0264C82.1213 59.0807 79.0758 62.8395 75.539 66.2177C72.3489 69.2664 68.8419 71.8622 65.1095 74.1838C64.8671 74.3348 64.6098 74.4517 64.312 74.4092Z" fill="#FECEC1"/>
<path d="M51.0942 45.3745C48.7718 45.7657 46.5855 46.5225 44.5864 47.7832C44.4502 47.8683 44.2759 47.8917 44.1206 47.9448C44.4907 46.3057 45.3881 44.8919 46.1176 43.4122C47.2894 41.0332 48.7399 38.8136 50.1478 36.5664C50.8411 35.4609 51.7109 34.9082 52.9423 34.6637C55.6432 34.1237 58.1443 34.5255 60.4496 36.0498C59.7989 36.9619 58.8121 37.5019 57.9826 38.2098C55.4476 40.3699 53.1401 42.7446 51.0942 45.3745Z" fill="#E0712F"/>
<path d="M65.5157 38.7327C65.5114 37.7612 65.9389 37.1978 66.6194 37.0957C67.2787 36.9958 67.8742 37.4444 68.055 38.2395C68.6292 40.7631 69.6926 43.0294 71.5364 44.879C73.2251 46.5734 75.2561 47.6896 77.57 48.2764C78.2016 48.4358 78.7865 48.6612 79.0353 49.282C79.1863 49.6561 79.1778 50.0941 78.8651 50.4789C78.4781 50.9551 78.0038 51.1018 77.4381 50.9785C75.8324 50.6256 74.2905 50.0707 72.8826 49.2331C69.0567 46.9625 66.6449 43.6268 65.6071 39.3025C65.5497 39.0538 65.5263 38.8029 65.5157 38.7327Z" fill="#EFEDEE"/>
<path d="M75.7003 28.2643C75.443 25.8535 74.8135 23.5276 74.1223 21.2145C73.9607 20.6788 73.6821 20.1749 73.665 19.5988C76.3468 20.7468 78.7713 22.3222 81.0873 24.074C81.9614 24.7352 82.8589 25.3751 83.5947 26.2042C80.9619 26.8888 78.3311 27.5755 75.7003 28.2643Z" fill="#FED7C6"/>
<path d="M70.9555 35.682C70.9682 35.0888 71.0788 34.5339 71.7679 34.3809C72.5718 34.2023 73.18 34.5042 73.4288 35.3035C73.7883 36.4643 74.1732 37.6081 74.8155 38.6435C76.1277 40.7589 78.0502 42.0472 80.43 42.6701C80.9277 42.7998 81.3105 43.0337 81.5891 43.4461C81.889 43.8883 81.8932 44.3497 81.5955 44.794C81.3063 45.2277 80.8852 45.4871 80.3705 45.3787C75.5896 44.3879 72.1018 41.0522 70.9597 36.105C70.9278 35.969 70.9555 35.8223 70.9555 35.682Z" fill="#EFEDEE"/>
<path d="M82.6529 32.6715C82.6593 33.3859 82.0213 34.03 81.3025 34.0343C80.5815 34.0407 79.9435 33.4135 79.9371 32.6907C79.9286 31.9763 80.5624 31.3279 81.2791 31.3194C81.9703 31.313 82.6487 31.9784 82.6529 32.6715Z" fill="#A74140"/>
<path d="M26.1243 68.8115C26.6539 65.5332 27.9172 62.5993 30.1375 60.0906C32.1536 57.8115 34.6142 56.234 37.4747 55.2454C37.7639 55.1455 38.0425 55.0095 38.3254 54.8883C39.4334 54.918 40.4904 54.4461 41.6048 54.5481C43.0871 54.3759 44.5461 54.5013 46.0071 54.7969C47.4129 55.0817 48.7081 55.694 50.0735 56.0895L50.0671 56.081C50.0883 56.2128 50.1904 56.2447 50.2989 56.2659C50.854 56.6444 51.3984 57.0462 52.0428 57.2715C52.9041 58.2027 53.9803 58.8937 54.8416 59.8419C55.7986 60.8942 56.4813 62.1294 57.3681 63.2201C57.5255 64.1406 58.0806 64.9039 58.389 65.7628C58.4081 65.8946 58.4017 66.0392 58.5612 66.1008L58.5527 66.0923C58.5612 66.2603 58.5421 66.4346 58.5846 66.5962C59.1269 68.7009 59.4034 70.8248 59.0759 72.9976C58.9887 73.578 58.8122 74.1541 58.8888 74.7536C58.5378 75.7614 58.087 76.7351 57.8786 77.7896C57.6212 77.9916 57.534 78.2998 57.3915 78.5719C56.7152 79.8816 55.8858 81.087 54.899 82.1819C52.3533 85.0137 49.1441 86.6529 45.4584 87.4395C43.0127 87.8073 40.5925 87.6564 38.1914 87.093C37.2365 86.7188 36.2816 86.3446 35.3267 85.9704C31.288 83.9316 28.5169 80.7575 26.9006 76.5522C26.1116 74.0266 25.7649 71.4541 26.1243 68.8115ZM42.5618 57.0696C35.45 56.9526 28.6232 62.6397 28.5892 70.997C28.5573 78.9738 34.8248 85.0733 42.6384 85.0499C50.418 85.0286 56.6408 78.9589 56.6132 71.0055C56.5834 62.6376 49.7289 56.9165 42.5618 57.0696Z" fill="#FEC82E"/>
<path d="M17.8066 75.4319C19.7228 75.9294 21.5922 76.5884 23.5361 76.9817C23.6998 77.0158 23.7381 77.1561 23.7594 77.2985C22.411 77.9172 21.0648 78.5358 19.7164 79.1524C19.0806 77.9151 18.2915 76.7521 17.8066 75.4319Z" fill="#FED7C6"/>
<path d="M73.4977 19.4288C73.4274 19.3862 73.3593 19.3458 73.2891 19.3032C73.3572 19.3458 73.4274 19.3862 73.4977 19.4288Z" fill="#CA5B5A"/>
<path d="M17.5156 75.0577C17.5561 75.128 17.5986 75.196 17.6391 75.2663C17.5986 75.196 17.5582 75.1258 17.5156 75.0577Z" fill="#CA5B5A"/>
<path d="M45.4585 87.4438C49.1441 86.6571 52.3534 85.0159 54.8991 82.1862C55.8837 81.0891 56.7153 79.8858 57.3916 78.5762C57.5319 78.3041 57.6213 77.9958 57.8786 77.7938C59.0462 77.577 60.1095 77.105 61.1155 76.4885C62.2916 75.9655 63.2784 75.1512 64.3141 74.4114C64.6118 74.4518 64.8692 74.3348 65.1116 74.186C68.844 71.8665 72.351 69.2707 75.5411 66.2199C79.0779 62.8395 82.1233 59.0808 84.8243 55.0286C85.5091 53.9996 86.1025 52.9111 86.7383 51.8502C86.9255 51.8736 87.0425 51.9629 87.0701 52.1649C87.5167 55.4687 87.5827 58.7597 87.1233 62.0805C86.6256 65.6714 85.5112 69.0326 83.8396 72.2216C82.5147 74.7494 80.8643 77.0412 78.9056 79.1375C76.06 82.184 72.77 84.5843 68.9993 86.3212C66.2813 87.5734 63.44 88.4005 60.4668 88.8809C57.9573 89.287 55.4478 89.2785 52.9637 89.1212C50.4031 88.9617 47.8234 88.5961 45.4585 87.4438Z" fill="#FEE7DD"/>
<path d="M41.6028 54.5503C40.4863 54.4482 39.4314 54.9202 38.3213 54.8904C38.8019 53.7828 39.3272 52.7028 40.212 51.8439C41.2966 51.8481 42.3833 51.8503 43.468 51.8545C43.2659 52.0841 43.0341 52.2967 42.8704 52.5497C42.4429 53.2109 41.69 53.6701 41.6028 54.5503Z" fill="#F8B52D"/>
<path d="M44.1296 47.9363C44.0657 48.0022 44.0018 48.0682 43.938 48.1342C43.9678 48.0342 43.9891 47.9278 44.1296 47.9363Z" fill="#78848A"/>
<path d="M43.7891 51.678C45.9519 49.5244 48.5976 48.3338 51.5878 47.9618C55.7945 47.4388 59.5375 48.606 62.7085 51.4102C65.2286 53.6403 66.7386 56.4573 67.2193 59.8057C67.8509 64.1917 66.5791 67.9972 63.7144 71.3181C63.1955 71.9197 62.5915 72.4257 61.945 72.8828C61.9046 71.5732 62.0662 70.2529 61.7642 68.9539C61.777 68.8646 61.7918 68.7732 61.8046 68.6839C63.1338 67.2914 63.7463 65.5608 64.1398 63.7282C64.2312 63.3073 64.0185 63.1882 63.6293 63.1946C62.5043 63.2137 61.3793 63.2095 60.2542 63.2159C60.1989 63.1925 60.1436 63.1691 60.0883 63.1478C59.9182 62.1784 59.261 61.43 58.8974 60.5456C60.4456 60.5328 61.996 60.4988 63.5443 60.5201C64.11 60.5265 64.2355 60.3096 64.1227 59.8121C63.808 58.4323 63.3295 57.127 62.566 55.9173C62.2427 55.407 62.0513 55.407 61.6451 55.8131C60.4307 57.0249 59.2121 58.2346 57.885 59.3253C57.7468 58.9809 57.5171 58.7066 57.2704 58.4302C56.9429 58.0624 56.4325 57.8307 56.3495 57.2694C57.4852 56.1724 58.5954 55.0456 59.7672 53.989C60.3201 53.4915 60.2053 53.247 59.6523 52.8941C58.3572 52.065 57.0003 51.4421 55.4776 51.1189C54.6928 50.9531 54.6482 51.2209 54.6588 51.8439C54.6822 53.1981 54.6503 54.5545 54.6396 55.9088C53.823 55.3603 53.1254 54.6162 52.1195 54.3802C52.0876 54.2696 52.0557 54.1612 52.0216 54.0507C52.0408 53.213 52.0514 52.3754 52.0833 51.5398C52.1025 51.0764 51.9302 50.9765 51.4772 51.0594C50.199 51.2954 49.0102 51.761 47.8639 52.3499C46.5049 52.1309 45.148 51.9055 43.7891 51.678Z" fill="#FEE4BF"/>
<path d="M43.7891 51.678C45.1481 51.9033 46.505 52.1308 47.864 52.3562C47.8491 52.4051 47.8321 52.454 47.815 52.5029C47.2089 52.7282 47.613 52.9876 47.7938 53.2342C48.519 54.2143 49.476 55.0094 50.0736 56.0916C48.7083 55.6961 47.4131 55.0838 46.0073 54.7989C44.5463 54.5013 43.0873 54.378 41.605 54.5502C41.6922 53.67 42.445 53.2108 42.8725 52.5475C43.0363 52.2924 43.2681 52.0819 43.4701 51.8523C43.5765 51.7949 43.6828 51.7354 43.7891 51.678Z" fill="#F4D4B3"/>
<path d="M61.7662 68.9561C62.0682 70.2551 61.9045 71.5754 61.947 72.885C61.8853 72.9785 61.8236 73.0721 61.762 73.1656C60.8198 73.7247 59.8947 74.3136 58.8888 74.7559C58.8122 74.1563 58.9887 73.5802 59.0759 72.9998C59.4013 70.8249 59.1248 68.7031 58.5846 66.5984C58.5442 66.4389 58.5634 66.2625 58.5527 66.0945C58.7952 66.0796 58.8781 66.2837 59.0015 66.4283C59.6565 67.1958 60.3073 67.9675 60.9623 68.735C61.1771 68.988 61.3792 69.3133 61.7662 68.9561Z" fill="#F4D4B3"/>
<path d="M58.8888 74.758C59.8947 74.3158 60.8199 73.7269 61.762 73.1677C61.5451 74.2732 61.3303 75.3809 61.1133 76.4885C60.1074 77.1051 59.044 77.5771 57.8765 77.7939C58.087 76.7373 58.5358 75.7636 58.8888 74.758Z" fill="#F8B52D"/>
<path d="M69.4184 66.4304C69.3759 66.49 69.3311 66.5496 69.2886 66.6092C69.3311 66.5496 69.3759 66.49 69.4184 66.4304Z" fill="#A5B8BF"/>
<path d="M42.5616 57.0695C49.7308 56.9165 56.5853 62.6354 56.6129 71.0055C56.6406 78.9589 50.4178 85.0286 42.6382 85.0499C34.8225 85.0711 28.555 78.9737 28.589 70.997C28.623 62.6418 35.4498 56.9547 42.5616 57.0695ZM45.4816 72.3767C47.1766 74.3752 48.7462 76.2227 50.3093 78.0744C50.5475 78.3572 50.7155 78.3785 50.9707 78.0681C52.2404 76.531 53.04 74.7876 53.3952 72.8296C53.459 72.4724 53.3442 72.3725 53.0188 72.3746C50.5645 72.3768 48.1103 72.3767 45.4816 72.3767ZM39.7118 69.6831C37.9636 67.6443 36.375 65.7925 34.7863 63.9386C34.5034 63.6091 34.3503 63.877 34.1972 64.0662C32.9743 65.5587 32.1704 67.2382 31.8493 69.1559C31.7727 69.6172 31.8982 69.6916 32.2938 69.6874C33.5379 69.6767 34.782 69.6831 36.0262 69.6831C37.1746 69.6831 38.3188 69.6831 39.7118 69.6831ZM43.9461 67.6698C44.0121 67.7038 44.0801 67.7378 44.146 67.7718C45.8772 66.1284 47.6084 64.485 49.3416 62.8416C49.6202 62.5759 49.3778 62.4802 49.1992 62.342C47.7913 61.2471 46.2047 60.5774 44.4459 60.2819C44.0567 60.216 43.9397 60.284 43.9419 60.6688C43.9504 63.0011 43.9461 65.3354 43.9461 67.6698ZM41.2537 74.1562C39.4162 75.8762 37.7531 77.4409 36.0815 78.995C35.7306 79.3203 35.705 79.5414 36.1283 79.8497C37.5234 80.8659 39.0738 81.4888 40.7603 81.8162C41.1707 81.8949 41.2558 81.7439 41.2558 81.391C41.2516 79.0545 41.2537 76.7181 41.2537 74.1562ZM39.2482 72.3767C36.7493 72.3767 34.4482 72.3789 32.1492 72.3746C31.7834 72.3746 31.7557 72.5447 31.8131 72.8615C32.0343 74.0924 32.4405 75.2532 33.0403 76.3481C33.7208 77.594 33.7229 77.5918 34.765 76.5947C34.9479 76.4204 35.1478 76.261 35.3307 76.0866C36.5898 74.8982 37.8467 73.7055 39.2482 72.3767ZM46.1983 69.4833C46.226 69.5492 46.2558 69.6151 46.2834 69.681C48.5314 69.681 50.7793 69.681 53.0273 69.681C53.2952 69.681 53.4335 69.6172 53.3824 69.2855C53.1464 67.7272 52.5764 66.3049 51.7108 64.9953C51.5152 64.6998 51.3131 64.6275 51.0324 64.8953C49.4246 66.4261 47.8104 67.9547 46.1983 69.4833ZM41.2537 67.4019C41.2537 64.9804 41.2537 62.8182 41.2537 60.654C41.2537 60.3627 41.2218 60.1926 40.8262 60.2543C39.4417 60.469 38.1635 60.9474 36.9726 61.6787C36.7004 61.8445 36.611 61.9976 36.8471 62.2697C38.2614 63.911 39.6693 65.5565 41.2537 67.4019ZM43.9461 74.6516C43.9461 77.0476 43.944 79.1651 43.9483 81.2826C43.9483 81.5887 43.8845 81.9204 44.4161 81.829C45.7666 81.593 47.0214 81.121 48.206 80.4364C48.4718 80.2834 48.5994 80.1537 48.3506 79.8624C46.9299 78.1935 45.522 76.5182 43.9461 74.6516Z" fill="#FEE4BF"/>
<path d="M56.3472 57.2737C56.4322 57.835 56.9405 58.0667 57.268 58.4345C57.5147 58.7109 57.7444 58.9852 57.8827 59.3296C57.8827 59.3785 57.8784 59.4295 57.8699 59.4784C57.5062 59.7314 57.1957 60.0312 56.8533 60.4882C57.5615 60.4882 58.1421 60.4882 58.7206 60.4882C58.7801 60.5074 58.8376 60.5286 58.8971 60.5478C59.2608 61.4301 59.9158 62.1784 60.0881 63.15C59.18 63.1755 58.274 63.201 57.3659 63.2244C56.479 62.1338 55.7942 60.8986 54.8393 59.8462C53.978 58.898 52.9019 58.207 52.0405 57.2759C52.066 56.3149 52.0916 55.3518 52.1171 54.3909C53.123 54.6269 53.8206 55.371 54.6373 55.9195C54.6585 56.0343 54.6819 56.1469 54.7032 56.2618C54.6585 57.0292 54.616 57.7967 54.7351 58.6535C55.3497 58.2326 55.79 57.7818 56.194 57.2907C56.2451 57.2822 56.2961 57.278 56.3472 57.2737Z" fill="#F4D4B3"/>
<path d="M57.3662 63.2243C58.2743 63.1988 59.1803 63.1754 60.0884 63.1499C60.1437 63.1733 60.199 63.1945 60.2543 63.2179C60.6286 64.3596 61.1178 65.463 61.3794 66.6451C61.5304 67.3254 61.5112 68.0397 61.8068 68.6881C61.7941 68.7774 61.7792 68.8689 61.7664 68.9581C61.3794 69.3153 61.1773 68.99 60.9604 68.737C60.3054 67.9696 59.6546 67.1999 58.9995 66.4303C58.8762 66.2858 58.7954 66.0838 58.5508 66.0965L58.5593 66.105C58.5721 65.9562 58.5232 65.8393 58.387 65.767C58.0787 64.906 57.5236 64.1449 57.3662 63.2243Z" fill="#F8B52D"/>
<path d="M52.1171 54.3887C52.0916 55.3496 52.0661 56.3127 52.0406 57.2737C51.3962 57.0483 50.8517 56.6465 50.2967 56.2681C50.2201 56.2064 50.1435 56.1448 50.0648 56.0831L50.0712 56.0916C49.4715 55.0095 48.5145 54.2165 47.7914 53.2343C47.6106 52.9898 47.2065 52.7283 47.8126 52.5029C49.3056 52.7772 50.554 53.7084 52.0193 54.057C52.0533 54.1676 52.0852 54.2781 52.1171 54.3887Z" fill="#F8B52D"/>
<path d="M58.3887 65.7671C58.5249 65.8394 58.5739 65.9565 58.5611 66.1054C58.4014 66.0437 58.4078 65.899 58.3887 65.7671Z" fill="#F4D4B3"/>
<path d="M50.0649 56.0831C50.1416 56.1448 50.2182 56.2065 50.297 56.2683C50.1884 56.247 50.0862 56.2151 50.0649 56.0831Z" fill="#F4D4B3"/>
<path d="M56.3476 57.2736C56.2965 57.2779 56.2455 57.2821 56.1945 57.2864C55.6862 56.959 55.3204 56.4275 54.7036 56.2574C54.6824 56.1426 54.659 56.0299 54.6377 55.9151C54.6483 54.5608 54.6802 53.2044 54.6568 51.8502C54.6462 51.2273 54.6909 50.9573 55.4756 51.1252C56.9984 51.4462 58.3552 52.0713 59.6504 52.9004C60.2034 53.2533 60.3203 53.4978 59.7652 53.9953C58.5934 55.0498 57.4833 56.1766 56.3476 57.2736Z" fill="#FEC82E"/>
<path d="M58.8993 60.5477C58.8397 60.5285 58.7823 60.5073 58.7228 60.4881C58.4463 60.1459 58.3102 59.6845 57.8721 59.4783C57.8785 59.4294 57.8827 59.3784 57.8848 59.3295C59.2119 58.2388 60.4305 57.0291 61.6449 55.8173C62.0532 55.4113 62.2425 55.4091 62.5658 55.9215C63.3293 57.1291 63.8078 58.4344 64.1225 59.8163C64.2352 60.3138 64.1098 60.5307 63.5441 60.5243C61.9979 60.5009 60.4475 60.5349 58.8993 60.5477Z" fill="#FEC82E"/>
<path d="M61.8064 68.686C61.5108 68.0376 61.5299 67.3233 61.3789 66.643C61.1174 65.4609 60.6282 64.3575 60.2539 63.2158C61.3789 63.2116 62.504 63.2137 63.629 63.1946C64.0203 63.1882 64.2309 63.3073 64.1394 63.7282C63.7481 65.5629 63.1356 67.2935 61.8064 68.686Z" fill="#FEC82E"/>
<path d="M52.0216 54.0592C50.5563 53.7105 49.3079 52.7793 47.8149 52.5051C47.832 52.4562 47.849 52.4073 47.8639 52.3584C49.0123 51.7695 50.199 51.3039 51.4772 51.0679C51.9302 50.985 52.1024 51.0849 52.0833 51.5484C52.0514 52.3839 52.0408 53.2215 52.0216 54.0592Z" fill="#FEC82E"/>
<path d="M45.4819 72.3768C48.1127 72.3768 50.5648 72.3789 53.0169 72.3746C53.3445 72.3746 53.4593 72.4724 53.3934 72.8296C53.0382 74.7876 52.2386 76.531 50.9689 78.0681C50.7137 78.3763 50.5457 78.3572 50.3075 78.0744C48.7443 76.2227 47.1748 74.3752 45.4819 72.3768Z" fill="#FEC82E"/>
<path d="M39.7121 69.6832C38.3212 69.6832 37.1749 69.6832 36.0286 69.6832C34.7845 69.6832 33.5403 69.6747 32.2962 69.6874C31.9006 69.6917 31.773 69.6151 31.8517 69.1559C32.1728 67.2383 32.9767 65.5587 34.1996 64.0663C34.3527 63.8792 34.5059 63.6092 34.7887 63.9387C36.3731 65.7926 37.9639 67.6465 39.7121 69.6832Z" fill="#FEC82E"/>
<path d="M43.9462 67.6698C43.9462 65.3355 43.9504 63.0011 43.9419 60.6668C43.9398 60.2819 44.0568 60.216 44.446 60.2798C46.2048 60.5775 47.7913 61.245 49.1992 62.3399C49.3778 62.4781 49.6203 62.5759 49.3417 62.8395C47.6084 64.4829 45.8794 66.1263 44.1461 67.7697C44.0802 67.7378 44.0142 67.7038 43.9462 67.6698Z" fill="#FEC82E"/>
<path d="M41.2536 74.1562C41.2536 76.7181 41.2515 79.0546 41.2557 81.391C41.2557 81.7461 41.1707 81.897 40.7602 81.8162C39.0737 81.4888 37.5233 80.8659 36.1282 79.8497C35.705 79.5414 35.7305 79.3203 36.0814 78.995C37.753 77.4409 39.4161 75.8762 41.2536 74.1562Z" fill="#FEC82E"/>
<path d="M39.2483 72.3768C37.8467 73.7056 36.5898 74.8983 35.3308 76.0888C35.1458 76.2632 34.948 76.4205 34.7651 76.5969C33.723 77.5962 33.7209 77.5983 33.0403 76.3503C32.4406 75.2554 32.0344 74.0946 31.8132 72.8637C31.7558 72.5469 31.7834 72.3768 32.1492 72.3768C34.4482 72.379 36.7493 72.3768 39.2483 72.3768Z" fill="#FEC82E"/>
<path d="M46.1982 69.4834C47.8103 67.9548 49.4224 66.4283 51.0323 64.8954C51.313 64.6276 51.5151 64.6999 51.7107 64.9954C52.5784 66.305 53.1484 67.7273 53.3823 69.2856C53.4334 69.6173 53.2951 69.6811 53.0272 69.6811C50.7792 69.6811 48.5313 69.6811 46.2833 69.6811C46.2557 69.6152 46.228 69.5493 46.1982 69.4834Z" fill="#FEC82E"/>
<path d="M41.2538 67.402C39.6694 65.5566 38.2615 63.9111 36.8472 62.2719C36.6133 61.9998 36.7005 61.8467 36.9727 61.6809C38.1637 60.9517 39.4397 60.4712 40.8263 60.2565C41.224 60.1948 41.2538 60.3649 41.2538 60.6562C41.2538 62.8183 41.2538 64.9805 41.2538 67.402Z" fill="#FEC82E"/>
<path d="M43.9463 74.6516C45.5222 76.5182 46.9301 78.1935 48.3507 79.8603C48.5995 80.1516 48.4719 80.2813 48.2061 80.4343C47.0236 81.1189 45.7667 81.5909 44.4163 81.8269C43.8825 81.9204 43.9484 81.5888 43.9484 81.2805C43.9463 79.1651 43.9463 77.0476 43.9463 74.6516Z" fill="#FEC82E"/>
<path d="M54.7034 56.2574C55.3201 56.4275 55.6881 56.959 56.1942 57.2864C55.7902 57.7775 55.3499 58.2304 54.7353 58.6492C54.6183 57.7924 54.6587 57.0249 54.7034 56.2574Z" fill="#F8B52D"/>
<path d="M57.872 59.4784C58.3102 59.6867 58.4441 60.146 58.7227 60.4882C58.1443 60.4882 57.5637 60.4882 56.8555 60.4882C57.1979 60.0312 57.5084 59.7293 57.872 59.4784Z" fill="#F8B52D"/>
</svg>
