<svg width="113" height="113" viewBox="0 0 113 113" fill="none" xmlns="http://www.w3.org/2000/svg">
<circle cx="56.8406" cy="56.9228" r="55.9509" fill="#FCDC00"/>
<g clip-path="url(#clip0_1020_178)">
<path d="M92.1121 32.7012C91.7825 33.2709 91.606 33.8938 91.4869 34.5359C91.4294 34.6294 91.3486 34.7145 91.3167 34.8165C89.9939 38.9559 88.2691 42.923 86.2487 46.7668C85.33 48.3507 84.4601 49.9643 83.4861 51.5142C80.4385 56.3636 76.7571 60.6921 72.5356 64.5551C71.7806 65.246 71.0639 66.022 70.0856 66.4366C70.0962 66.2686 70.0813 66.0943 70.1239 65.9327C70.6959 63.7748 70.7257 61.5999 70.4514 59.3931C69.6836 53.2341 64.639 47.4705 58.6395 45.8951C56.3745 45.2999 54.0968 45.0894 51.7744 45.3743C53.8203 42.7444 56.1257 40.3718 58.6629 38.2075C59.4923 37.4996 60.4791 36.9595 61.1299 36.0475C61.4489 36.073 61.6424 35.8264 61.8636 35.6733C63.6182 34.453 65.4195 33.3156 67.2804 32.259C68.8712 31.3554 70.596 30.7325 72.1676 29.8013C73.6117 29.3974 74.9877 28.8063 76.3807 28.2642C79.0115 27.5775 81.6422 26.8887 84.273 26.202C84.8536 26.0446 85.4363 25.8873 86.0169 25.7321C87.2738 25.4175 88.5307 25.0943 89.7897 24.7903C90.0896 24.718 90.4022 24.6712 90.7085 24.6755C91.4337 24.6861 91.7825 25.1709 91.557 25.8703C91.3401 26.5421 91.0488 27.1884 90.851 27.8645C90.6213 28.649 90.9488 28.97 91.7633 28.8212C92.7246 28.6469 93.0436 28.9615 92.8182 29.9182C92.597 30.8494 92.1972 31.736 92.1121 32.7012ZM66.1937 38.7326C66.2043 38.8007 66.2277 39.0537 66.2851 39.2981C67.3229 43.6224 69.7347 46.9581 73.5606 49.2287C74.9685 50.0642 76.5104 50.6191 78.1161 50.9742C78.6818 51.0996 79.1561 50.9508 79.5431 50.4745C79.8536 50.0919 79.8643 49.6518 79.7133 49.2776C79.4645 48.6568 78.8796 48.4315 78.248 48.272C75.9341 47.6852 73.9031 46.5691 72.2144 44.8747C70.3706 43.025 69.3072 40.7587 68.733 38.2351C68.5522 37.4421 67.9567 36.9914 67.2974 37.0914C66.6169 37.1998 66.1894 37.761 66.1937 38.7326ZM71.6338 35.6818C71.6338 35.8221 71.6062 35.971 71.6381 36.1049C72.7801 41.0521 76.268 44.3878 81.0489 45.3785C81.5635 45.4848 81.9846 45.2254 82.2739 44.7939C82.5716 44.3495 82.5674 43.8882 82.2675 43.446C81.9889 43.0357 81.6039 42.8018 81.1084 42.67C78.7286 42.0471 76.806 40.7608 75.4938 38.6433C74.8516 37.608 74.4688 36.4642 74.1072 35.3034C73.8584 34.5019 73.2501 34.2021 72.4462 34.3807C71.7551 34.5338 71.6466 35.0865 71.6338 35.6818ZM83.3308 32.6714C83.3245 31.9783 82.646 31.3129 81.957 31.3214C81.2403 31.3299 80.6065 31.9783 80.615 32.6927C80.6235 33.4155 81.2594 34.0405 81.9804 34.0363C82.6992 34.0299 83.3372 33.3857 83.3308 32.6714Z" fill="#FA9F6A"/>
<path d="M34.0717 93.0222C33.5996 93.3603 33.4975 93.8705 33.4337 94.3977C32.6 95.3757 32.2597 96.6343 31.56 97.6888C31.3261 98.0417 31.1326 98.4201 30.9305 98.7901C30.6668 99.2705 30.3223 99.6107 29.7204 99.5235C29.1164 99.4342 28.9144 98.9772 28.7591 98.4712C28.2274 96.747 27.7021 95.0207 27.1534 93.3029C25.9816 89.6249 23.5252 87.2033 19.8992 85.9426C18.8592 85.5812 17.815 85.2389 16.7686 84.8945C16.1391 84.6883 15.6117 84.3439 15.5181 83.6529C15.4309 83.0066 15.8647 82.5984 16.3199 82.1732C17.1982 81.3505 18.3403 80.8402 19.0591 79.8367C19.6333 79.8623 19.9757 79.4328 20.3947 79.1543C21.743 78.5356 23.0893 77.917 24.4376 77.3004C25.484 77.0517 26.5303 76.8029 27.5767 76.5542C29.193 80.7594 31.962 83.9336 36.0028 85.9724C35.8199 87.6626 35.2223 89.2443 34.7289 90.8558C34.5077 91.5765 34.0674 92.2335 34.0717 93.0222Z" fill="#FA9F6A"/>
<path d="M99.6387 53.621C99.5622 52.1009 99.307 50.6064 99.0199 49.116C97.8714 43.1611 95.5256 37.7058 92.1122 32.7012C91.7826 33.2709 91.6061 33.8939 91.487 34.5359C92.3355 35.7137 93.0607 36.9617 93.6669 38.2798C95.7128 42.147 97.025 46.2608 97.7544 50.5638C98.4052 54.4013 98.5073 58.2706 98.0607 62.1251C97.1356 70.1252 94.2049 77.3345 89.1369 83.6168C82.7078 91.5851 74.4561 96.6662 64.4073 98.6094C54.7881 100.47 45.5517 99.1409 36.8321 94.5785C35.8644 94.1448 34.9712 93.5771 34.0716 93.0201C33.5995 93.3582 33.4974 93.8684 33.4336 94.3956C38.5037 97.4911 43.9588 99.5321 49.8434 100.421C50.8239 100.57 51.8383 100.51 52.7847 100.882C55.105 100.882 57.4252 100.882 59.7434 100.882C59.8029 100.71 59.9518 100.727 60.09 100.716C64.0521 100.44 67.9143 99.6256 71.5829 98.1353C87.0591 91.8551 96.3423 80.5022 99.3218 64.0363C99.5047 63.0265 99.4303 61.9805 99.8025 61.0047C99.8025 58.6852 99.8025 56.3657 99.8025 54.0484C99.5919 53.9676 99.6451 53.7784 99.6387 53.621Z" fill="#E0712F"/>
<path d="M72.9227 18.9333C73.2588 19.0758 73.6075 19.1863 73.9521 19.3118L73.967 19.3032C74.0371 19.3458 74.1052 19.3862 74.1754 19.4287C74.2307 19.484 74.2881 19.5414 74.3434 19.5966C77.0252 20.7447 79.4497 22.32 81.7657 24.0719C82.6398 24.7331 83.5372 25.373 84.2731 26.2021C84.8537 26.0448 85.4364 25.8875 86.017 25.7323C84.3837 24.0804 82.5441 22.6751 80.6194 21.3889C78.3714 19.8858 76.0469 18.5124 73.497 17.5663C73.4289 17.5174 73.3693 17.4536 73.2928 17.4239C64.7625 13.9075 55.9599 12.9826 46.9639 15.0555C33.8377 18.0744 24.059 25.6196 17.7702 37.5125C13.2084 46.1398 11.9196 55.356 13.5614 64.9762C14.1293 68.297 15.0416 71.5179 16.4538 74.5857C17.0939 76.4502 18.1254 78.1212 19.0611 79.8391C19.6354 79.8646 19.9778 79.4351 20.3967 79.1566C19.7587 77.915 18.9697 76.7521 18.4869 75.434C18.4316 75.3787 18.3763 75.3213 18.321 75.266C18.2806 75.1959 18.2381 75.1278 18.1977 75.0577C18.1977 75.0577 18.2062 75.0428 18.2062 75.0407C17.7362 75.0555 17.3279 74.8323 16.8983 74.6899C17.3279 74.8323 17.7362 75.0577 18.2062 75.0407C17.3576 72.8296 16.4325 70.6462 15.8498 68.3416C12.8575 56.4828 14.4312 45.2788 21.0092 34.9464C27.432 24.8606 36.6556 18.6527 48.3739 16.3035C56.7979 14.6154 65.0049 15.57 72.9227 18.9333Z" fill="#E0712F"/>
<path d="M93.6687 38.2819C95.7147 42.1491 97.0269 46.2629 97.7563 50.566C98.4071 54.4034 98.5092 58.2727 98.0626 62.1272C97.1374 70.1273 94.2068 77.3366 89.1388 83.6189C82.7097 91.5872 74.458 96.6683 64.4092 98.6115C54.79 100.472 45.5536 99.143 36.834 94.5806C37.6719 92.1293 38.412 89.6504 38.8693 87.0949C41.2703 87.6583 43.6906 87.8093 46.1363 87.4415C48.5012 88.5959 51.0831 88.9595 53.6373 89.121C56.1234 89.2762 58.6308 89.2869 61.1404 88.8808C64.1136 88.3982 66.9549 87.5733 69.6728 86.3211C73.4435 84.5841 76.7336 82.1839 79.5792 79.1373C81.5379 77.0411 83.1882 74.7493 84.5132 72.2214C86.1848 69.0324 87.2992 65.6691 87.7968 62.0804C88.2562 58.7596 88.1924 55.4685 87.7437 52.1647C87.716 51.9606 87.5991 51.8735 87.4119 51.8501C87.4672 51.68 87.5246 51.5099 87.5799 51.342C87.682 51.2484 87.816 51.174 87.8798 51.0592C89.6556 47.8341 91.1698 44.4898 92.5118 41.0649C92.8776 40.1273 93.069 39.1196 93.6687 38.2819Z" fill="#FED7C6"/>
<path d="M93.6692 38.2819C93.0716 39.1196 92.878 40.1273 92.5122 41.0627C91.1724 44.4898 89.656 47.834 87.8802 51.0571C87.8164 51.1719 87.6824 51.2463 87.5804 51.3398C87.1678 49.807 86.8636 48.2422 86.249 46.7689C88.2694 42.9251 89.9921 38.958 91.317 34.8187C91.3489 34.7166 91.4297 34.6316 91.4872 34.538C92.3357 35.7137 93.0631 36.9638 93.6692 38.2819Z" fill="#FDC0AD"/>
<path d="M38.8696 87.0949C38.4123 89.6504 37.6701 92.1293 36.8343 94.5806C35.8666 94.1469 34.9734 93.5793 34.0738 93.0222C34.0674 92.2335 34.5098 91.5766 34.731 90.8558C35.2265 89.2465 35.8241 87.6647 36.0049 85.9724C36.9598 86.3466 37.9147 86.7208 38.8696 87.0949Z" fill="#FDC0AD"/>
<path d="M18.4849 75.4316C18.4296 75.3764 18.3743 75.319 18.319 75.2637C18.2786 75.1935 18.2361 75.1255 18.1957 75.0553C18.1957 75.0553 18.2042 75.0405 18.2042 75.0383C17.3556 72.8273 16.4305 70.6418 15.8477 68.3393C12.8576 56.4826 14.4313 45.2785 21.0093 34.9462C27.4321 24.8604 36.6557 18.6525 48.374 16.3033C56.798 14.6152 65.005 15.5698 72.9228 18.9331C73.2589 19.0756 73.6076 19.1861 73.9522 19.3115L73.9671 19.303C74.0372 19.3456 74.1053 19.386 74.1755 19.4285C74.2308 19.4838 74.2882 19.5412 74.3435 19.5964C74.3605 20.1726 74.6412 20.6764 74.8007 21.2122C75.494 23.5253 76.1236 25.8511 76.3788 28.262C74.9858 28.8063 73.6098 29.3952 72.1657 29.7991C71.2257 29.3569 70.2857 28.9147 69.3457 28.4746C65.8919 26.8546 62.2339 25.9723 58.4526 25.7385C53.8843 25.4578 49.4161 26.068 45.118 27.7305C41.2686 29.2187 37.7956 31.298 34.7735 34.1255C31.5409 37.1466 29.0037 40.6545 27.2364 44.7152C25.6605 48.3357 24.7843 52.1158 24.6099 56.0574C24.4993 58.5682 24.646 61.0747 25.1522 63.5282C25.5244 65.3289 25.854 67.1743 26.8047 68.807C26.4453 71.4496 26.7919 74.0221 27.5809 76.5478C26.5346 76.7965 25.4882 77.0453 24.4419 77.294C24.4185 77.1516 24.3823 77.0091 24.2186 76.9772C22.2705 76.5903 20.4011 75.9291 18.4849 75.4316Z" fill="#FEE3CB"/>
<path d="M26.8022 68.8113C25.8516 67.1785 25.5219 65.3332 25.1498 63.5325C24.6436 61.079 24.4969 58.5725 24.6074 56.0617C24.7818 52.1179 25.6581 48.34 27.234 44.7195C29.0013 40.6567 31.5385 37.1509 34.7711 34.1298C37.7932 31.3044 41.2683 29.2251 45.1155 27.7348C49.4136 26.0723 53.884 25.4621 58.4501 25.7428C62.2314 25.9745 65.8894 26.8589 69.3432 28.4789C70.2832 28.9211 71.2233 29.3612 72.1633 29.8034C70.5916 30.7346 68.869 31.3597 67.2761 32.2611C65.4152 33.3177 63.6138 34.4551 61.8593 35.6754C61.6381 35.8285 61.4467 36.0751 61.1255 36.0496C58.8202 34.5253 56.3191 34.1235 53.6182 34.6635C52.3868 34.9101 51.5148 35.4628 50.8237 36.5662C49.4158 38.8134 47.9632 41.0308 46.7935 43.412C46.064 44.8917 45.1687 46.3055 44.7965 47.9446L44.805 47.9361C44.6646 47.9276 44.6434 48.0339 44.6136 48.1338C44.3605 48.3528 44.1159 48.5824 43.8544 48.7907C42.7336 49.6815 41.6787 50.634 40.8876 51.8416C40.005 52.7005 39.4797 53.7805 38.9969 54.8881C38.7141 55.0072 38.4354 55.1432 38.1462 55.2453C35.2858 56.236 32.8251 57.8114 30.809 60.0905C28.5951 62.6013 27.3318 65.533 26.8022 68.8113Z" fill="#FEEFE2"/>
<path d="M40.8901 51.8415C41.6813 50.6318 42.7361 49.6794 43.8569 48.7907C44.1185 48.5824 44.3631 48.3528 44.6162 48.1338C44.68 48.0679 44.7438 48.002 44.8076 47.9361L44.7991 47.9446C44.9543 47.8914 45.1287 47.8702 45.2648 47.783C47.2661 46.5223 49.4502 45.7654 51.7726 45.3742C54.0971 45.0894 56.3727 45.2998 58.6377 45.8951C64.6372 47.4705 69.6818 53.2362 70.4496 59.3931C70.7239 61.5999 70.6963 63.7748 70.1221 65.9327C70.0795 66.0921 70.0965 66.2686 70.0838 66.4366L70.0944 66.4302C70.0519 66.4897 70.0072 66.5492 69.9647 66.6088C69.5585 67.7781 69.0991 68.9197 68.5036 70.0125C67.5891 71.6899 66.2897 73.0484 64.9881 74.4091C63.9545 75.1489 62.9656 75.9632 61.7895 76.4862C62.0043 75.3785 62.2212 74.273 62.436 73.1654C62.4977 73.0718 62.5594 72.9783 62.6211 72.8847C63.2676 72.4276 63.8716 71.9216 64.3905 71.32C67.2531 67.9992 68.527 64.1936 67.8954 59.8077C67.4126 56.4592 65.9026 53.6423 63.3846 51.4121C60.2115 48.6058 56.4684 47.4386 52.2639 47.9637C49.2737 48.3358 46.6281 49.5263 44.4652 51.68C44.3588 51.7374 44.2525 51.7948 44.1462 51.8522C43.0615 51.8479 41.9769 51.8458 40.8901 51.8415Z" fill="#FEC82E"/>
<path d="M64.9902 74.4091C66.2918 73.0484 67.5912 71.692 68.5078 70.0125C69.1033 68.9197 69.5627 67.7781 69.9689 66.6088C70.0114 66.5492 70.0561 66.4897 70.0986 66.4302L70.088 66.4366C71.0663 66.022 71.7851 65.246 72.538 64.5572C76.7596 60.6942 80.4409 56.3657 83.4885 51.5163C84.4626 49.9664 85.3324 48.3528 86.2512 46.7689C86.8658 48.2422 87.1699 49.807 87.5825 51.3398C87.5272 51.5099 87.4698 51.68 87.4145 51.8479C86.7786 52.9088 86.1852 53.9995 85.5004 55.0263C82.7995 59.0806 79.754 62.8394 76.2172 66.2176C73.0272 69.2663 69.5202 71.8621 65.7878 74.1837C65.5453 74.3347 65.288 74.4516 64.9902 74.4091Z" fill="#FECEC1"/>
<path d="M51.7724 45.3742C49.45 45.7654 47.2637 46.5223 45.2646 47.783C45.1285 47.868 44.9541 47.8914 44.7988 47.9446C45.1689 46.3054 46.0664 44.8916 46.7958 43.4119C47.9677 41.0329 49.4181 38.8134 50.826 36.5662C51.5193 35.4607 52.3891 34.9079 53.6205 34.6634C56.3215 34.1234 58.8225 34.5252 61.1279 36.0496C60.4771 36.9616 59.4903 37.5016 58.6609 38.2096C56.1258 40.3696 53.8183 42.7444 51.7724 45.3742Z" fill="#E0712F"/>
<path d="M66.1939 38.7326C66.1896 37.761 66.6171 37.1976 67.2977 37.0956C67.9569 36.9957 68.5524 37.4443 68.7332 38.2394C69.3074 40.763 70.3708 43.0293 72.2147 44.8789C73.9033 46.5733 75.9343 47.6895 78.2482 48.2762C78.8798 48.4357 79.4647 48.6611 79.7135 49.2818C79.8645 49.656 79.856 50.094 79.5434 50.4788C79.1563 50.955 78.682 51.1017 78.1163 50.9784C76.5107 50.6255 74.9688 50.0706 73.5609 49.2329C69.7349 46.9624 67.3232 43.6267 66.2853 39.3024C66.2279 39.0536 66.2045 38.8028 66.1939 38.7326Z" fill="#EFEDEE"/>
<path d="M76.3785 28.2642C76.1212 25.8533 75.4917 23.5274 74.8005 21.2143C74.6389 20.6786 74.3603 20.1747 74.3433 19.5986C77.0251 20.7466 79.4495 22.322 81.7656 24.0738C82.6396 24.735 83.5371 25.3749 84.273 26.2041C81.6401 26.8886 79.0093 27.5753 76.3785 28.2642Z" fill="#FED7C6"/>
<path d="M71.6342 35.6818C71.6469 35.0886 71.7575 34.5337 72.4466 34.3807C73.2505 34.2021 73.8587 34.504 74.1076 35.3034C74.467 36.4641 74.8519 37.6079 75.4942 38.6433C76.8064 40.7587 78.7289 42.047 81.1088 42.67C81.6064 42.7996 81.9892 43.0335 82.2678 43.4459C82.5677 43.8882 82.5719 44.3495 82.2742 44.7938C81.985 45.2275 81.5639 45.4869 81.0492 45.3785C76.2683 44.3878 72.7805 41.0521 71.6384 36.1049C71.6065 35.9688 71.6342 35.8221 71.6342 35.6818Z" fill="#EFEDEE"/>
<path d="M83.3312 32.6714C83.3375 33.3857 82.6995 34.0299 81.9807 34.0342C81.2597 34.0405 80.6217 33.4134 80.6153 32.6905C80.6068 31.9762 81.2406 31.3278 81.9573 31.3193C82.6485 31.3129 83.3269 31.9783 83.3312 32.6714Z" fill="#A74140"/>
<path d="M26.8026 68.8113C27.3321 65.533 28.5954 62.5991 30.8157 60.0904C32.8318 57.8113 35.2925 56.2339 38.1529 55.2453C38.4422 55.1453 38.7208 55.0093 39.0036 54.8881C40.1116 54.9179 41.1686 54.4459 42.283 54.5479C43.7654 54.3757 45.2243 54.5012 46.6854 54.7967C48.0911 55.0816 49.3863 55.6938 50.7517 56.0893L50.7453 56.0808C50.7666 56.2126 50.8686 56.2445 50.9771 56.2657C51.5322 56.6442 52.0766 57.046 52.721 57.2713C53.5824 58.2025 54.6585 58.8935 55.5198 59.8417C56.4768 60.894 57.1595 62.1293 58.0464 63.2199C58.2037 64.1405 58.7588 64.9037 59.0672 65.7626C59.0863 65.8944 59.08 66.039 59.2395 66.1006L59.231 66.0921C59.2395 66.2601 59.2203 66.4344 59.2629 66.596C59.8052 68.7007 60.0816 70.8246 59.7541 72.9974C59.6669 73.5778 59.4904 74.1539 59.567 74.7535C59.2161 75.7612 58.7652 76.7349 58.5568 77.7894C58.2994 77.9914 58.2122 78.2996 58.0698 78.5718C57.3935 79.8814 56.564 81.0868 55.5772 82.1817C53.0315 85.0136 49.8223 86.6527 46.1367 87.4393C43.6909 87.8071 41.2707 87.6562 38.8696 87.0928C37.9147 86.7186 36.9598 86.3444 36.0049 85.9703C31.9663 83.9314 29.1951 80.7573 27.5788 76.5521C26.7898 74.0264 26.4431 71.4539 26.8026 68.8113ZM43.2401 57.0694C36.1283 56.9524 29.3015 62.6395 29.2674 70.9968C29.2355 78.9736 35.503 85.0731 43.3166 85.0497C51.0962 85.0284 57.319 78.9587 57.2914 71.0053C57.2616 62.6374 50.4071 56.9163 43.2401 57.0694Z" fill="#FEC82E"/>
<path d="M18.4849 75.4317C20.401 75.9292 22.2704 76.5882 24.2143 76.9816C24.378 77.0156 24.4163 77.1559 24.4376 77.2983C23.0892 77.917 21.743 78.5357 20.3947 79.1522C19.7588 77.9149 18.9698 76.7519 18.4849 75.4317Z" fill="#FED7C6"/>
<path d="M74.1754 19.4286C74.1052 19.3861 74.037 19.3457 73.9668 19.3031C74.0349 19.3457 74.1052 19.3861 74.1754 19.4286Z" fill="#CA5B5A"/>
<path d="M18.1934 75.0575C18.2338 75.1277 18.2764 75.1958 18.3168 75.266C18.2764 75.1958 18.2359 75.1256 18.1934 75.0575Z" fill="#CA5B5A"/>
<path d="M46.1367 87.4436C49.8223 86.657 53.0316 85.0157 55.5773 82.186C56.562 81.089 57.3935 79.8856 58.0698 78.576C58.2102 78.3039 58.2995 77.9956 58.5568 77.7936C59.7244 77.5768 60.7878 77.1048 61.7937 76.4883C62.9698 75.9653 63.9566 75.151 64.9923 74.4112C65.2901 74.4516 65.5474 74.3346 65.7898 74.1858C69.5223 71.8664 73.0292 69.2705 76.2193 66.2197C79.7561 62.8393 82.8016 59.0806 85.5025 55.0284C86.1873 53.9994 86.7807 52.9109 87.4166 51.85C87.6037 51.8734 87.7207 51.9627 87.7483 52.1647C88.195 55.4685 88.2609 58.7595 87.8015 62.0804C87.3039 65.6712 86.1894 69.0324 84.5178 72.2214C83.1929 74.7492 81.5425 77.041 79.5838 79.1373C76.7383 82.1838 73.4482 84.5841 69.6775 86.321C66.9595 87.5733 64.1182 88.4003 61.1451 88.8808C58.6355 89.2868 56.126 89.2783 53.642 89.121C51.0814 88.9615 48.5016 88.5959 46.1367 87.4436Z" fill="#FEE7DD"/>
<path d="M42.2806 54.5501C41.164 54.448 40.1092 54.92 38.999 54.8903C39.4797 53.7826 40.005 52.7026 40.8897 51.8437C41.9743 51.8479 43.0611 51.8501 44.1457 51.8543C43.9437 52.0839 43.7119 52.2965 43.5481 52.5495C43.1206 53.2107 42.3678 53.6699 42.2806 54.5501Z" fill="#F8B52D"/>
<path d="M44.8073 47.9361C44.7434 48.0021 44.6796 48.068 44.6157 48.134C44.6455 48.034 44.6668 47.9276 44.8073 47.9361Z" fill="#78848A"/>
<path d="M44.4673 51.6779C46.6302 49.5242 49.2758 48.3336 52.266 47.9616C56.4727 47.4386 60.2157 48.6058 63.3867 51.41C65.9069 53.6402 67.4168 56.4571 67.8975 59.8056C68.5291 64.1915 67.2573 67.9971 64.3926 71.3179C63.8737 71.9195 63.2697 72.4255 62.6232 72.8826C62.5828 71.573 62.7444 70.2527 62.4424 68.9538C62.4552 68.8645 62.4701 68.773 62.4828 68.6838C63.812 67.2912 64.4245 65.5607 64.818 63.728C64.9094 63.3071 64.6968 63.188 64.3076 63.1944C63.1825 63.2135 62.0575 63.2093 60.9324 63.2157C60.8771 63.1923 60.8218 63.1689 60.7666 63.1476C60.5964 62.1782 59.9393 61.4298 59.5756 60.5454C61.1238 60.5327 62.6742 60.4986 64.2225 60.5199C64.7882 60.5263 64.9137 60.3094 64.801 59.8119C64.4862 58.4322 64.0077 57.1268 63.2442 55.9171C62.9209 55.4069 62.7295 55.4069 62.3233 55.8129C61.109 57.0248 59.8903 58.2344 58.5633 59.3251C58.425 58.9807 58.1953 58.7064 57.9486 58.43C57.6211 58.0622 57.1107 57.8305 57.0278 57.2692C58.1634 56.1722 59.2736 55.0454 60.4454 53.9888C60.9984 53.4913 60.8835 53.2468 60.3306 52.8939C59.0354 52.0648 57.6785 51.4419 56.1558 51.1187C55.371 50.9529 55.3264 51.2208 55.337 51.8437C55.3604 53.1979 55.3285 54.5543 55.3179 55.9086C54.5012 55.3601 53.8036 54.616 52.7977 54.38C52.7658 54.2695 52.7339 54.161 52.6999 54.0505C52.719 53.2128 52.7296 52.3752 52.7615 51.5397C52.7807 51.0762 52.6084 50.9763 52.1554 51.0592C50.8773 51.2952 49.6884 51.7608 48.5421 52.3497C47.1831 52.1307 45.8263 51.9053 44.4673 51.6779Z" fill="#FEE4BF"/>
<path d="M44.4669 51.6779C45.8258 51.9032 47.1827 52.1307 48.5417 52.3561C48.5268 52.4049 48.5098 52.4538 48.4928 52.5027C47.8867 52.7281 48.2907 52.9875 48.4715 53.2341C49.1967 54.2142 50.1537 55.0093 50.7514 56.0914C49.386 55.696 48.0908 55.0837 46.6851 54.7988C45.224 54.5012 43.765 54.3779 42.2827 54.5501C42.3699 53.6699 43.1228 53.2107 43.5502 52.5474C43.714 52.2923 43.9458 52.0818 44.1479 51.8522C44.2542 51.7948 44.3605 51.7353 44.4669 51.6779Z" fill="#F4D4B3"/>
<path d="M62.4444 68.9559C62.7464 70.2549 62.5827 71.5751 62.6252 72.8847C62.5635 72.9783 62.5019 73.0718 62.4402 73.1654C61.4981 73.7245 60.5729 74.3134 59.567 74.7556C59.4904 74.1561 59.6669 73.5799 59.7541 72.9995C60.0795 70.8246 59.803 68.7029 59.2629 66.5981C59.2225 66.4387 59.2416 66.2622 59.231 66.0943C59.4734 66.0794 59.5563 66.2835 59.6797 66.4281C60.3347 67.1955 60.9855 67.9673 61.6405 68.7348C61.8553 68.9878 62.0574 69.313 62.4444 68.9559Z" fill="#F4D4B3"/>
<path d="M59.567 74.7577C60.573 74.3155 61.4981 73.7266 62.4402 73.1675C62.2233 74.273 62.0085 75.3806 61.7916 76.4883C60.7856 77.1048 59.7223 77.5768 58.5547 77.7937C58.7652 76.737 59.214 75.7633 59.567 74.7577Z" fill="#F8B52D"/>
<path d="M70.0966 66.4302C70.0541 66.4898 70.0094 66.5493 69.9668 66.6089C70.0094 66.5493 70.0541 66.4898 70.0966 66.4302Z" fill="#A5B8BF"/>
<path d="M43.2399 57.0694C50.4091 56.9163 57.2635 62.6353 57.2912 71.0054C57.3188 78.9587 51.096 85.0285 43.3164 85.0497C35.5007 85.071 29.2332 78.9736 29.2672 70.9969C29.3013 62.6417 36.1281 56.9546 43.2399 57.0694ZM46.1599 72.3766C47.8549 74.3751 49.4244 76.2226 50.9875 78.0743C51.2257 78.3571 51.3937 78.3783 51.6489 78.0679C52.9186 76.5308 53.7183 74.7875 54.0734 72.8295C54.1372 72.4723 54.0224 72.3724 53.697 72.3745C51.2427 72.3766 48.7885 72.3766 46.1599 72.3766ZM40.39 69.683C38.6419 67.6441 37.0532 65.7924 35.4645 63.9385C35.1817 63.609 35.0285 63.8769 34.8754 64.0661C33.6525 65.5585 32.8486 67.2381 32.5275 69.1557C32.4509 69.6171 32.5764 69.6915 32.972 69.6872C34.2161 69.6766 35.4603 69.683 36.7044 69.683C37.8528 69.683 38.997 69.683 40.39 69.683ZM44.6244 67.6697C44.6903 67.7037 44.7583 67.7377 44.8243 67.7717C46.5554 66.1283 48.2866 64.4849 50.0199 62.8415C50.2985 62.5758 50.056 62.4801 49.8774 62.3419C48.4695 61.247 46.8829 60.5773 45.1241 60.2818C44.7349 60.2159 44.618 60.2839 44.6201 60.6687C44.6286 63.001 44.6244 65.3353 44.6244 67.6697ZM41.9319 74.1561C40.0944 75.876 38.4313 77.4408 36.7597 78.9949C36.4088 79.3202 36.3833 79.5413 36.8065 79.8495C38.2016 80.8658 39.752 81.4887 41.4385 81.8161C41.849 81.8947 41.934 81.7438 41.934 81.3909C41.9298 79.0544 41.9319 76.7179 41.9319 74.1561ZM39.9264 72.3766C37.4275 72.3766 35.1264 72.3788 32.8274 72.3745C32.4616 72.3745 32.4339 72.5446 32.4914 72.8614C32.7125 74.0923 33.1187 75.2531 33.7185 76.348C34.399 77.5938 34.4012 77.5917 35.4433 76.5946C35.6262 76.4203 35.8261 76.2608 36.009 76.0865C37.268 74.8981 38.5249 73.7054 39.9264 72.3766ZM46.8766 69.4831C46.9042 69.549 46.934 69.6149 46.9616 69.6809C49.2096 69.6809 51.4575 69.6809 53.7055 69.6809C53.9735 69.6809 54.1117 69.6171 54.0607 69.2854C53.8246 67.7271 53.2546 66.3048 52.389 64.9951C52.1934 64.6996 51.9913 64.6273 51.7106 64.8952C50.1028 66.4259 48.4886 67.9545 46.8766 69.4831ZM41.9319 67.4018C41.9319 64.9803 41.9319 62.8181 41.9319 60.6538C41.9319 60.3626 41.9 60.1925 41.5044 60.2542C40.1199 60.4689 38.8418 60.9472 37.6508 61.6786C37.3786 61.8444 37.2893 61.9975 37.5253 62.2696C38.9396 63.9109 40.3475 65.5564 41.9319 67.4018ZM44.6244 74.6514C44.6244 77.0475 44.6222 79.165 44.6265 81.2825C44.6265 81.5886 44.5627 81.9203 45.0944 81.8288C46.4448 81.5929 47.6996 81.1209 48.8842 80.4363C49.15 80.2832 49.2776 80.1535 49.0288 79.8623C47.6082 78.1934 46.2003 76.5181 44.6244 74.6514Z" fill="#FEE4BF"/>
<path d="M57.0254 57.2735C57.1104 57.8347 57.6187 58.0665 57.9463 58.4343C58.193 58.7107 58.4226 58.9849 58.5609 59.3293C58.5609 59.3782 58.5566 59.4293 58.5481 59.4782C58.1844 59.7311 57.8739 60.0309 57.5315 60.488C58.2397 60.488 58.8203 60.488 59.3988 60.488C59.4584 60.5071 59.5158 60.5284 59.5753 60.5475C59.939 61.4298 60.594 62.1782 60.7663 63.1498C59.8582 63.1753 58.9522 63.2008 58.0441 63.2242C57.1572 62.1335 56.4724 60.8983 55.5175 59.8459C54.6562 58.8978 53.5801 58.2068 52.7188 57.2756C52.7443 56.3147 52.7698 55.3516 52.7953 54.3906C53.8013 54.6266 54.4988 55.3707 55.3155 55.9192C55.3368 56.034 55.3602 56.1467 55.3814 56.2615C55.3368 57.029 55.2942 57.7965 55.4133 58.6533C56.0279 58.2323 56.4682 57.7816 56.8723 57.2905C56.9233 57.282 56.9743 57.2777 57.0254 57.2735Z" fill="#F4D4B3"/>
<path d="M58.0439 63.2242C58.9521 63.1987 59.858 63.1753 60.7662 63.1498C60.8215 63.1732 60.8768 63.1944 60.932 63.2178C61.3064 64.3595 61.7955 65.4629 62.0571 66.6449C62.2081 67.3253 62.1889 68.0396 62.4846 68.688C62.4718 68.7773 62.4569 68.8687 62.4442 68.958C62.0571 69.3152 61.855 68.9899 61.6381 68.7369C60.9831 67.9694 60.3323 67.1998 59.6773 66.4302C59.5539 66.2856 59.4731 66.0837 59.2285 66.0964L59.237 66.1049C59.2498 65.9561 59.2009 65.8392 59.0648 65.7669C58.7564 64.9059 58.2013 64.1448 58.0439 63.2242Z" fill="#F8B52D"/>
<path d="M52.7954 54.3885C52.7698 55.3495 52.7443 56.3125 52.7188 57.2735C52.0744 57.0481 51.53 56.6463 50.9749 56.2679C50.8983 56.2062 50.8218 56.1446 50.7431 56.0829L50.7494 56.0914C50.1497 55.0093 49.1927 54.2163 48.4696 53.2341C48.2888 52.9896 47.8847 52.7281 48.4909 52.5027C49.9838 52.777 51.2322 53.7082 52.6975 54.0569C52.7316 54.1674 52.7635 54.278 52.7954 54.3885Z" fill="#F8B52D"/>
<path d="M59.0669 65.7668C59.2031 65.8392 59.2521 65.9562 59.2393 66.1052C59.0797 66.0435 59.0861 65.8988 59.0669 65.7668Z" fill="#F4D4B3"/>
<path d="M50.7432 56.0829C50.8198 56.1447 50.8964 56.2064 50.9752 56.2681C50.8666 56.2468 50.7645 56.2149 50.7432 56.0829Z" fill="#F4D4B3"/>
<path d="M57.0253 57.2735C56.9743 57.2777 56.9232 57.282 56.8722 57.2863C56.3639 56.9588 55.9981 56.4273 55.3814 56.2573C55.3601 56.1425 55.3367 56.0298 55.3154 55.915C55.3261 54.5607 55.358 53.2043 55.3346 51.8501C55.3239 51.2271 55.3686 50.9571 56.1534 51.1251C57.6761 51.4461 59.033 52.0712 60.3281 52.9003C60.8811 53.2532 60.9981 53.4977 60.443 53.9952C59.2711 55.0497 58.161 56.1765 57.0253 57.2735Z" fill="#FEC82E"/>
<path d="M59.5775 60.5476C59.518 60.5284 59.4605 60.5072 59.401 60.488C59.1245 60.1457 58.9884 59.6844 58.5503 59.4782C58.5567 59.4293 58.5609 59.3782 58.5631 59.3293C59.8901 58.2387 61.1088 57.029 62.3231 55.8172C62.7314 55.4111 62.9207 55.409 63.244 55.9214C64.0075 57.1289 64.486 58.4343 64.8008 59.8162C64.9135 60.3137 64.788 60.5305 64.2223 60.5242C62.6762 60.5008 61.1258 60.5348 59.5775 60.5476Z" fill="#FEC82E"/>
<path d="M62.4846 68.6859C62.189 68.0374 62.2082 67.3231 62.0572 66.6428C61.7956 65.4607 61.3064 64.3573 60.9321 63.2157C62.0572 63.2114 63.1822 63.2135 64.3073 63.1944C64.6986 63.188 64.9091 63.3071 64.8177 63.728C64.4263 65.5628 63.8139 67.2933 62.4846 68.6859Z" fill="#FEC82E"/>
<path d="M52.6998 54.059C51.2345 53.7103 49.9861 52.7791 48.4932 52.5049C48.5102 52.456 48.5272 52.4071 48.5421 52.3582C49.6905 51.7693 50.8772 51.3037 52.1554 51.0677C52.6084 50.9848 52.7807 51.0847 52.7615 51.5482C52.7296 52.3837 52.719 53.2213 52.6998 54.059Z" fill="#FEC82E"/>
<path d="M46.1602 72.3766C48.7909 72.3766 51.243 72.3788 53.6952 72.3745C54.0227 72.3745 54.1375 72.4723 54.0716 72.8295C53.7164 74.7875 52.9168 76.5308 51.6471 78.0679C51.3919 78.3762 51.2239 78.3571 50.9857 78.0743C49.4226 76.2226 47.853 74.3751 46.1602 72.3766Z" fill="#FEC82E"/>
<path d="M40.3903 69.6829C38.9994 69.6829 37.8531 69.6829 36.7068 69.6829C35.4627 69.6829 34.2185 69.6744 32.9744 69.6872C32.5788 69.6914 32.4512 69.6149 32.5299 69.1557C32.851 67.238 33.655 65.5585 34.8778 64.066C35.0309 63.8789 35.1841 63.6089 35.4669 63.9385C37.0513 65.7923 38.6421 67.6462 40.3903 69.6829Z" fill="#FEC82E"/>
<path d="M44.6244 67.6696C44.6244 65.3353 44.6287 63.0009 44.6201 60.6666C44.618 60.2818 44.735 60.2159 45.1242 60.2796C46.883 60.5773 48.4695 61.2448 49.8774 62.3397C50.0561 62.4779 50.2985 62.5757 50.0199 62.8393C48.2866 64.4827 46.5576 66.1261 44.8243 67.7695C44.7584 67.7377 44.6925 67.7036 44.6244 67.6696Z" fill="#FEC82E"/>
<path d="M41.9318 74.1561C41.9318 76.7179 41.9297 79.0544 41.934 81.3909C41.934 81.7459 41.8489 81.8968 41.4384 81.8161C39.7519 81.4887 38.2016 80.8657 36.8064 79.8495C36.3832 79.5412 36.4087 79.3201 36.7596 78.9948C38.4312 77.4407 40.0943 75.876 41.9318 74.1561Z" fill="#FEC82E"/>
<path d="M39.9265 72.3766C38.525 73.7053 37.2681 74.898 36.009 76.0886C35.824 76.2629 35.6262 76.4202 35.4433 76.5967C34.4012 77.5959 34.3991 77.5981 33.7186 76.3501C33.1188 75.2552 32.7126 74.0944 32.4914 72.8634C32.434 72.5467 32.4617 72.3766 32.8275 72.3766C35.1264 72.3787 37.4276 72.3766 39.9265 72.3766Z" fill="#FEC82E"/>
<path d="M46.8765 69.4831C48.4885 67.9545 50.1006 66.428 51.7105 64.8952C51.9913 64.6273 52.1933 64.6996 52.389 64.9951C53.2567 66.3047 53.8266 67.727 54.0606 69.2854C54.1116 69.6171 53.9734 69.6808 53.7054 69.6808C51.4574 69.6808 49.2095 69.6808 46.9615 69.6808C46.9339 69.6149 46.9062 69.549 46.8765 69.4831Z" fill="#FEC82E"/>
<path d="M41.932 67.4018C40.3476 65.5564 38.9397 63.9109 37.5254 62.2717C37.2915 61.9996 37.3787 61.8465 37.6509 61.6807C38.8419 60.9515 40.1179 60.471 41.5045 60.2563C41.9022 60.1946 41.932 60.3647 41.932 60.656C41.932 62.8181 41.932 64.9803 41.932 67.4018Z" fill="#FEC82E"/>
<path d="M44.6245 74.6514C46.2004 76.5181 47.6083 78.1933 49.0289 79.8601C49.2778 80.1514 49.1502 80.2811 48.8843 80.4342C47.7019 81.1187 46.445 81.5907 45.0945 81.8267C44.5607 81.9202 44.6266 81.5886 44.6266 81.2803C44.6245 79.1649 44.6245 77.0474 44.6245 74.6514Z" fill="#FEC82E"/>
<path d="M55.3816 56.2573C55.9984 56.4273 56.3663 56.9588 56.8725 57.2862C56.4684 57.7774 56.0281 58.2302 55.4135 58.649C55.2965 57.7922 55.337 57.0248 55.3816 56.2573Z" fill="#F8B52D"/>
<path d="M58.5503 59.4781C58.9884 59.6865 59.1224 60.1457 59.401 60.488C58.8225 60.488 58.2419 60.488 57.5337 60.488C57.8761 60.0309 58.1866 59.729 58.5503 59.4781Z" fill="#F8B52D"/>
</g>
<defs>
<clipPath id="clip0_1020_178">
<rect width="86.9238" height="86.9238" fill="white" transform="translate(12.8789 13.9604)"/>
</clipPath>
</defs>
</svg>
