<svg width="100" height="200" viewBox="0 0 100 200" fill="none" xmlns="http://www.w3.org/2000/svg">
<path d="M100.076 122.282C87.7693 122.282 77.7451 112.269 77.7451 99.9742C77.7451 87.6798 87.7693 77.6659 100.076 77.6659C112.383 77.6659 122.407 87.6798 122.407 99.9742C122.407 112.269 112.383 122.282 100.076 122.282ZM100.076 81.9954C90.1513 81.9954 82.079 90.0594 82.079 99.9742C82.079 109.889 90.1513 117.953 100.076 117.953C110.001 117.953 118.073 109.889 118.073 99.9742C118.073 90.0594 110.001 81.9954 100.076 81.9954Z" fill="#FFCB00"/>
<path d="M100.076 161.115C83.7333 161.115 68.3496 154.77 56.8036 143.203C45.2575 131.668 38.8726 116.301 38.8726 99.9742C38.8726 83.6478 45.2245 68.2799 56.8036 56.7457C68.3496 45.2115 83.7333 38.8329 100.076 38.8329C116.419 38.8329 131.803 45.1784 143.349 56.7457C154.895 68.2799 161.28 83.6478 161.28 99.9742C161.28 116.301 154.928 131.668 143.349 143.203C131.803 154.77 116.419 161.115 100.076 161.115ZM100.076 43.1624C84.8912 43.1624 70.5993 49.0782 59.8472 59.8193C49.0952 70.5603 43.1733 84.8045 43.1733 100.007C43.1733 115.177 49.0952 129.454 59.8472 140.195C70.5993 150.936 84.8581 156.852 100.076 156.852C115.295 156.852 129.553 150.936 140.305 140.195C151.057 129.454 156.979 115.21 156.979 100.007C156.979 84.8376 151.057 70.5603 140.305 59.8193C129.553 49.0782 115.261 43.1624 100.076 43.1624Z" fill="#FFCB00"/>
<path d="M100.076 199.948C73.3453 199.948 48.2021 189.538 29.3116 170.667C10.4211 151.796 0 126.678 0 99.9742C0 73.2703 10.4211 48.1529 29.3116 29.2817C48.2021 10.4105 73.3453 0 100.076 0C126.808 0 151.951 10.4105 170.841 29.2817C189.732 48.1529 200.153 73.2703 200.153 99.9742C200.153 126.678 189.732 151.796 170.841 170.667C151.951 189.571 126.808 199.948 100.076 199.948ZM100.076 4.32946C74.5032 4.32946 50.4518 14.2773 32.3553 32.3553C14.2588 50.4333 4.30077 74.4601 4.30077 100.007C4.30077 125.554 14.2588 149.581 32.3553 167.659C50.4518 185.737 74.5032 195.685 100.076 195.685C125.65 195.685 149.701 185.737 167.798 167.659C185.894 149.581 195.852 125.554 195.852 100.007C195.852 74.4601 185.894 50.4333 167.798 32.3553C149.701 14.2773 125.65 4.32946 100.076 4.32946Z" fill="#FFCB00"/>
</svg>
