<svg width="864" height="678" viewBox="0 0 864 678" fill="none" xmlns="http://www.w3.org/2000/svg">
<path d="M815.126 678L377.154 649.035L0 664.298L32.9123 338.085L2.61344 37.7982L63.3699 36.2365L67.0214 0L418.432 27.098L817.398 16.8371L819.486 58.0393L863.988 61.4678L836.95 402.542L848.478 629.953L818.826 631.149L815.126 678ZM414.573 647.51L810.327 673.681L813.685 631.344L414.573 647.51ZM35.4891 363.633L5.58105 660.089L339.833 646.558L62.1853 628.196L35.4891 363.633ZM66.9726 624.524L377.24 645.046L813.99 627.367L831.808 402.493L814.528 61.6508L418.261 31.0877L68.1328 40.0919L38.0659 338.073L66.9726 624.524ZM833.823 442.121L819.156 627.159L843.166 626.183L833.823 442.121ZM819.694 62.0412L834.947 362.914L858.553 65.0426L819.694 62.0412ZM8.15786 41.6414L35.5013 312.536L62.9791 40.2383L8.15786 41.6414ZM457.109 30.0872L814.332 57.6367L812.476 20.9488L457.109 30.0872ZM71.7354 4.3557L68.5358 36.1022L379.597 28.0985L71.7354 4.3557Z" fill="#6001D3"/>
</svg>
