<svg width="231" height="74" viewBox="0 0 231 74" fill="none" xmlns="http://www.w3.org/2000/svg">
<path d="M15.3083 17.4077C14.9735 18.2968 14.637 19.189 14.3047 20.0775C14.0724 20.3822 13.9354 20.7206 13.9069 21.1022C13.7524 21.5511 13.2849 21.9446 13.6443 22.4853L13.6817 22.4881C13.1327 22.5682 13.2483 23.0581 13.1064 23.3876C12.7536 24.2584 12.4881 25.1522 12.3634 26.0831C12.0113 27.0439 11.8308 28.0207 11.743 29.0113C11.8603 29.0289 11.9799 29.0458 12.0971 29.0634C12.3171 28.156 12.5371 27.2486 12.757 26.3412C13.0002 26.0672 12.8471 25.5641 13.3087 25.412C13.3088 27.1115 12.8163 28.7495 12.6544 30.4305C12.2319 34.8196 12.1759 39.1903 12.9667 43.538C13.3419 45.2994 13.7171 47.0609 14.7682 48.5819C14.3086 46.8663 13.8489 45.1507 13.3892 43.4351C12.6406 38.1709 13.6059 33.1026 15.3099 28.1252C15.95 26.2568 17.1863 25.1389 19.2857 25.0354C20.5796 24.9724 21.8953 24.9809 23.1611 24.5979C23.6454 24.4527 24.1468 24.3415 24.5996 24.1274C25.4376 23.73 26.4921 23.3005 26.7674 22.502C27.0917 21.5641 25.7074 21.4167 25.2653 20.7434C24.8733 20.1495 23.9549 19.8953 24.0881 18.957L24.1085 18.9748C26.4173 19.9164 28.6641 21.0267 31.2065 21.3074C33.2455 21.5348 35.2495 21.4465 37.2724 20.8426C35.3778 19.9138 33.6139 18.8674 32.1017 17.4029C32.625 16.8759 33.0195 17.3814 33.3861 17.5875C34.885 18.4263 36.4004 19.2091 38.1246 19.4924C38.5789 19.5667 39.0401 19.6185 39.5002 19.6267C41.8802 19.6621 42.4312 18.9651 41.6573 16.9263C43.1925 17.9591 43.3558 19.4472 42.0665 20.8165C40.7325 22.2339 38.9462 22.7538 37.1283 23.1171C34.6917 23.6024 32.2259 23.8814 29.7709 23.273C29.2639 23.1483 28.9936 23.3111 28.6987 23.6557C27.9931 24.4792 27.204 25.2348 26.6346 26.1662C23.3112 30.0895 20.7214 34.4558 19.0354 39.2659C17.1624 44.6084 17.0618 49.984 19.4913 55.2233C19.535 55.4256 19.5781 55.6255 19.6682 56.0398C16.9022 53.7533 14.152 51.7308 12.0417 49.0107C9.06143 45.1724 6.83037 40.9373 5.25622 36.3612C4.32451 33.6554 3.44586 30.9328 2.52392 28.2244C2.38553 27.8153 2.32921 27.4977 2.57518 27.0682C3.63179 25.2016 3.06826 24.1921 0.933766 24.0084C0.807428 23.9959 0.695829 23.9407 0.4917 23.8819C1.1009 23.0894 1.68947 22.3566 2.24395 21.5942C4.24715 18.837 4.0893 17.7988 1.34649 15.8233C2.26521 15.0923 3.21096 14.4133 4.07219 13.6436C6.45378 11.5174 6.29932 9.81801 3.61122 8.08573C3.33322 7.90749 3.04688 7.74696 2.60661 7.48067C7.75693 3.00337 13.8075 2.08102 20.2141 2.18507C20.1944 2.72676 19.7612 2.79901 19.487 2.99627C17.5026 4.4177 15.6749 6.01378 13.9989 7.77553C13.4318 8.37364 12.9324 8.62866 12.0495 8.41909C11.0136 8.17572 9.89644 7.90254 8.63354 8.45241C9.72834 8.74963 10.6468 9.00384 11.5651 9.24777C12.0525 9.37763 12.1563 9.57935 11.8364 10.0261C10.7891 11.4879 9.76645 12.9637 8.75743 14.4513C8.48111 14.8554 8.14304 14.9022 7.68761 14.921C6.63784 14.9677 5.62514 15.221 4.48497 15.9262C5.45492 16.1382 6.1912 16.3278 6.93643 16.453C7.50364 16.5486 7.62232 16.767 7.38003 17.2884C6.81683 18.4966 6.27522 19.7172 5.75572 20.9421C5.43333 21.7016 4.49368 21.7393 4.05803 22.4569C4.58194 22.7034 5.09584 22.2485 5.64669 22.449C5.08755 24.4634 4.9001 26.5174 5.1066 28.6258C5.72112 28.4586 5.52704 28.0077 5.56915 27.6766C7.12651 15.3267 13.7253 6.68577 25.3842 1.97057C31.7696 -0.612051 38.261 -0.631273 44.6322 2.13338C45.2064 2.38185 45.7658 2.67295 46.2975 2.99726C47.4596 3.70196 48.1792 4.69805 47.8708 6.09591C47.5378 7.61644 46.6177 8.7424 45.073 9.51991C45.4146 8.63667 45.7253 7.92157 45.9671 7.18368C46.2732 6.25579 45.8734 5.67177 44.9684 5.37011C44.0689 5.06955 43.1561 5.10008 42.2378 5.2662C38.1851 5.99882 34.7981 8.05398 31.6306 10.5377C31.2136 10.8661 30.8459 11.2612 30.0901 11.3992C32.5816 7.87678 35.801 5.51838 39.9554 3.77854C37.1133 3.35634 34.6247 3.75497 32.1379 3.83846C31.7606 2.83062 30.9816 2.47199 29.9628 2.63409C28.8835 2.80467 28.2444 3.42721 28.2265 4.56156C24.6515 5.8857 23.1385 8.51929 23.5027 12.7981C23.5327 13.164 23.5731 13.5297 23.6155 13.9516C22.8574 13.1825 22.7044 12.8753 22.5442 11.34C22.4484 10.4063 22.4547 9.46328 22.4142 8.49159C21.0665 9.71146 21.0982 12.3 22.5627 17.1995C21.1026 16.1929 20.4289 14.9189 19.8368 13.6076C19.2415 12.2842 19.0481 10.83 18.6335 9.23383C18.1161 10.2029 18.1347 11.0438 18.25 11.8742C18.3327 12.4762 18.1963 12.8557 17.6592 13.224C16.6561 13.9132 15.7992 14.7772 15.1529 15.822C13.4743 17.8475 12.4843 20.2068 11.7132 22.67C11.0734 24.1103 10.7913 25.6352 10.7288 27.2277C11.1805 25.7888 11.6315 24.3476 12.0832 22.9087C12.4469 22.1175 12.7624 21.3032 13.1846 20.5453C13.8074 19.4423 14.2047 18.1908 15.3083 17.4077ZM22.3081 8.16412C22.3428 8.19607 22.3832 8.23941 22.4254 8.27968C22.4458 8.24843 22.4887 8.20341 22.4787 8.18547C22.4523 8.1358 22.4028 8.09749 22.3624 8.05416C22.3475 8.08651 22.3308 8.12193 22.3081 8.16412Z" fill="#6001D3"/>
<path d="M20.428 56.239C20.2564 55.8621 20.0816 55.4834 19.91 55.1064C19.8455 54.8658 19.8006 54.62 19.7123 54.3883C17.5242 48.6537 18.0561 43.0026 20.3654 37.404C22.0246 33.3824 24.5709 29.9278 27.4366 26.679C27.8267 26.3089 28.2168 25.9387 28.6921 25.4864C29.8817 27.6022 31.6462 29.012 33.7682 29.9985C34.411 30.2982 34.2078 30.5357 33.809 30.854C32.9558 31.5366 31.9525 31.8054 30.8957 31.9235C29.5949 32.0683 28.2955 32.0425 27.0079 31.846C26.3911 31.7508 25.9854 31.9162 25.6384 32.4373C24.9443 33.4795 24.152 34.4577 23.4882 35.515C20.1192 40.8792 20.5216 46.1794 25.3077 51.6795C25.9161 52.3779 25.7859 52.7609 25.3072 53.3276C24.1839 54.6524 22.8221 55.7316 21.396 56.9029C22.2301 57.2133 22.6105 56.5336 23.1568 56.395C23.2886 57.5898 21.9789 57.5746 21.6336 57.5356C20.5822 57.4201 21.0326 57.939 21.0659 58.3659C21.1769 59.8835 21.7491 61.3549 21.5188 62.9073C20.6976 61.6882 20.2536 60.314 19.8002 58.9346C19.5422 58.1475 20.0326 57.5854 20.2708 56.9414C20.4346 56.7324 20.6586 56.5332 20.428 56.239Z" fill="#6001D3"/>
<path d="M21.5201 62.9121C21.7504 61.3597 21.1782 59.8883 21.0672 58.3707C21.0364 57.9432 20.5835 57.4249 21.6349 57.5404C21.9796 57.577 23.2899 57.5946 23.1581 56.3998C24.6314 55.2778 26.073 54.1256 26.9089 52.4213C27.0525 52.1275 27.2244 51.968 27.5948 52.0518C31.2182 52.8707 34.9203 52.6653 38.8959 52.758C36.7849 53.5996 34.901 54.2436 33.1553 55.1885C29.3755 57.2328 26.7078 59.9902 26.8596 64.5993C26.9287 66.6929 27.4278 68.7022 27.883 70.7233C28.1175 71.7643 28.4289 72.7898 28.5836 73.865C25.9751 70.35 23.4126 66.8407 21.5201 62.9121Z" fill="#6001D3"/>
<path d="M31.7993 3.97097C31.9347 5.34535 31.5268 6.07874 30.4939 6.19818C29.2782 6.33825 28.778 5.62381 28.6204 4.55711C29.4387 2.77761 30.434 2.59602 31.7993 3.97097Z" fill="#6001D3"/>
<path d="M41.6819 12.3994C41.1886 11.1931 41.6749 10.186 42.3938 9.21708C42.3399 10.2657 43.7486 11.5 41.9332 12.3217C41.8484 12.347 41.7667 12.3741 41.6819 12.3994Z" fill="#6001D3"/>
<path d="M24.0802 18.9571C24.0579 18.8934 24.035 18.8273 24.0127 18.7637C23.9879 18.7884 23.9656 18.8124 23.9408 18.8371C23.9923 18.8826 24.0462 18.9275 24.0976 18.973C24.1007 18.9748 24.0802 18.9571 24.0802 18.9571Z" fill="#6001D3"/>
<path d="M72.206 26.2072H65.2374V29.9613H71.5954V34.7882H65.2374V43.5479H59.4541V21.3803H72.206V26.2072Z" fill="white"/>
<path d="M80.8332 22.6675C80.8332 23.5256 80.5339 24.2407 79.9352 24.8127C79.3605 25.3848 78.654 25.6708 77.8159 25.6708C76.9777 25.6708 76.2593 25.3848 75.6606 24.8127C75.0859 24.2168 74.7985 23.5017 74.7985 22.6675C74.7985 22.2623 74.8703 21.8809 75.014 21.5234C75.1817 21.1658 75.3972 20.8559 75.6606 20.5937C75.948 20.3077 76.2713 20.0932 76.6305 19.9502C76.9897 19.7833 77.3848 19.6999 77.8159 19.6999C78.223 19.6999 78.6061 19.7833 78.9653 19.9502C79.3485 20.0932 79.6718 20.3077 79.9352 20.5937C80.2226 20.8559 80.4381 21.1658 80.5818 21.5234C80.7494 21.8809 80.8332 22.2623 80.8332 22.6675ZM80.474 43.5479H75.1218V28.4954H80.474V43.5479Z" fill="white"/>
<path d="M96.4939 38.4708C96.4939 40.187 95.8473 41.5576 94.5541 42.5826C93.261 43.6075 91.5009 44.12 89.2738 44.12C87.2143 44.12 85.2027 43.536 83.2391 42.368L85.1788 38.6139C86.7114 39.615 88.1363 40.1155 89.4534 40.1155C90.5789 40.1155 91.1417 39.7342 91.1417 38.9714C91.1417 38.6854 91.0818 38.4828 90.9621 38.3636C90.8663 38.2206 90.6627 38.1133 90.3514 38.0418C90.064 37.9464 89.633 37.8392 89.0582 37.72C88.5075 37.577 87.789 37.3505 86.903 37.0407C85.2267 36.3733 84.3885 35.1219 84.3885 33.2865C84.3885 32.5237 84.5322 31.8206 84.8196 31.177C85.1309 30.5334 85.5739 29.9733 86.1487 29.4965C86.7234 29.0198 87.4298 28.6504 88.268 28.3882C89.1061 28.1021 90.064 27.9591 91.1417 27.9591C92.818 27.9591 94.4464 28.2809 96.0269 28.9245L94.2309 32.3569C93.2251 31.8563 92.2672 31.606 91.3572 31.606C90.2796 31.606 89.7407 31.9755 89.7407 32.7144C89.7407 32.9766 89.9084 33.1792 90.2436 33.3222C90.5789 33.4653 90.998 33.6083 91.5009 33.7513C92.0038 33.8705 92.5426 34.0254 93.1173 34.2161C93.692 34.3829 94.2309 34.6332 94.7337 34.9669C95.2366 35.3006 95.6557 35.7535 95.991 36.3256C96.3262 36.8738 96.4939 37.5889 96.4939 38.4708Z" fill="white"/>
<path d="M115.171 43.5479H109.819V35.9323C109.819 35.1457 109.759 34.514 109.639 34.0373C109.519 33.5368 109.352 33.1673 109.136 32.9289C108.921 32.6667 108.657 32.4999 108.346 32.4284C108.058 32.333 107.735 32.2854 107.376 32.2854C106.562 32.2854 105.891 32.5476 105.364 33.072C104.838 33.5963 104.574 34.3949 104.574 35.4675V43.5479H99.2219V19.1636H104.574V30.3904C104.957 29.9375 105.316 29.568 105.652 29.282C106.011 28.996 106.382 28.7695 106.765 28.6027C107.148 28.4358 107.556 28.3166 107.987 28.2451C108.418 28.1736 108.909 28.1379 109.459 28.1379C111.184 28.1379 112.561 28.6265 113.59 29.6038C114.644 30.5811 115.171 32.0351 115.171 33.9658V43.5479Z" fill="white"/>
<path d="M124.471 22.6675C124.471 23.5256 124.172 24.2407 123.573 24.8127C122.999 25.3848 122.292 25.6708 121.454 25.6708C120.616 25.6708 119.898 25.3848 119.299 24.8127C118.724 24.2168 118.437 23.5017 118.437 22.6675C118.437 22.2623 118.509 21.8809 118.652 21.5234C118.82 21.1658 119.035 20.8559 119.299 20.5937C119.586 20.3077 119.91 20.0932 120.269 19.9502C120.628 19.7833 121.023 19.6999 121.454 19.6999C121.861 19.6999 122.244 19.7833 122.604 19.9502C122.987 20.0932 123.31 20.3077 123.573 20.5937C123.861 20.8559 124.076 21.1658 124.22 21.5234C124.388 21.8809 124.471 22.2623 124.471 22.6675ZM124.112 43.5479H118.76V28.4954H124.112V43.5479Z" fill="white"/>
<path d="M143.76 43.5479H138.408V35.9323C138.408 35.1457 138.348 34.526 138.228 34.0731C138.109 33.5963 137.941 33.2269 137.725 32.9647C137.51 32.7025 137.246 32.5356 136.935 32.4641C136.648 32.3688 136.325 32.3211 135.965 32.3211C135.175 32.3211 134.505 32.5833 133.954 33.1077C133.427 33.6083 133.163 34.3949 133.163 35.4675V43.5479H127.811V28.4954H133.163V30.3904C133.547 29.9375 133.918 29.568 134.277 29.282C134.636 28.996 134.995 28.7695 135.355 28.6027C135.738 28.4358 136.145 28.3286 136.576 28.2809C137.007 28.2094 137.498 28.1736 138.049 28.1736C139.797 28.1736 141.186 28.6623 142.216 29.6396C143.245 30.6168 143.76 32.0589 143.76 33.9658V43.5479Z" fill="white"/>
<path d="M164.34 42.5111C164.34 43.3453 164.304 44.0723 164.232 44.6921C164.16 45.3356 164.029 45.9077 163.837 46.4083C163.646 46.9327 163.382 47.4094 163.047 47.8384C162.712 48.2913 162.281 48.7442 161.754 49.1971C160.197 50.5081 158.138 51.1636 155.575 51.1636C154.45 51.1636 153.372 51.0086 152.342 50.6988C151.337 50.4127 150.451 50.0075 149.684 49.4831C148.918 48.9587 148.283 48.339 147.78 47.6239C147.302 46.9327 147.026 46.1818 146.954 45.3714H152.989C153.205 45.9911 153.516 46.4083 153.923 46.6228C154.354 46.8612 154.881 46.9803 155.503 46.9803C156.509 46.9803 157.335 46.6824 157.982 46.0865C158.653 45.5144 158.988 44.5848 158.988 43.2977V41.8675C158.15 42.6541 157.383 43.1904 156.689 43.4764C155.994 43.7386 155.156 43.8697 154.174 43.8697C153.097 43.8697 152.103 43.679 151.193 43.2977C150.307 42.9163 149.529 42.3919 148.858 41.7245C148.212 41.0571 147.697 40.2585 147.314 39.3289C146.954 38.3993 146.775 37.3744 146.775 36.2541C146.775 35.0861 146.966 34.0016 147.349 33.0004C147.757 31.9993 148.307 31.1293 149.002 30.3904C149.696 29.6515 150.498 29.0794 151.408 28.6742C152.342 28.269 153.348 28.0664 154.426 28.0664C155.36 28.0664 156.174 28.2094 156.868 28.4954C157.587 28.7815 158.293 29.3058 158.988 30.0686V28.4954H164.34V42.5111ZM159.239 35.968C159.239 35.4913 159.143 35.0384 158.952 34.6094C158.784 34.1803 158.545 33.8109 158.233 33.501C157.946 33.1673 157.587 32.9051 157.156 32.7144C156.749 32.5237 156.294 32.4284 155.791 32.4284C155.312 32.4284 154.857 32.5237 154.426 32.7144C154.019 32.9051 153.66 33.1673 153.348 33.501C153.037 33.8109 152.785 34.1803 152.594 34.6094C152.426 35.0384 152.342 35.4913 152.342 35.968C152.342 36.4448 152.426 36.8977 152.594 37.3267C152.785 37.7319 153.037 38.1014 153.348 38.4351C153.66 38.745 154.019 38.9952 154.426 39.1859C154.857 39.3766 155.312 39.472 155.791 39.472C156.27 39.472 156.713 39.3766 157.12 39.1859C157.551 38.9952 157.922 38.745 158.233 38.4351C158.545 38.1014 158.784 37.7319 158.952 37.3267C159.143 36.8977 159.239 36.4448 159.239 35.968Z" fill="white"/>
<path d="M197.501 43.5479H191.718V34.3234H183.348V43.5479H177.565V21.3803H183.348V29.9256H191.718V21.3803H197.501V43.5479Z" fill="white"/>
<path d="M217.781 38.0418C217.781 40.0679 217.111 41.6053 215.769 42.6541C214.428 43.679 212.417 44.1915 209.735 44.1915C207.172 44.1915 205.185 43.6909 203.772 42.6898C202.359 41.6887 201.653 40.1394 201.653 38.0418V28.4954H207.005V37.0049C207.005 38.888 207.915 39.8295 209.735 39.8295C210.597 39.8295 211.255 39.6031 211.71 39.1502C212.189 38.6973 212.429 37.9822 212.429 37.0049V28.4954H217.781V38.0418Z" fill="white"/>
<path d="M230.454 32.8574H227.401V43.5479H222.049V32.8574H220.288V28.4954H222.049V23.9546H227.401V28.4954H230.454V32.8574Z" fill="white"/>
</svg>
