<svg width="235" height="85" viewBox="0 0 235 85" fill="none" xmlns="http://www.w3.org/2000/svg">
<g clip-path="url(#clip0_1_18525)">
<path d="M19.3083 24.2443C18.9735 25.1335 18.637 26.0257 18.3047 26.9142C18.0724 27.2189 17.9354 27.5573 17.9069 27.9389C17.7524 28.3878 17.2849 28.7813 17.6443 29.3219L17.6817 29.3248C17.1327 29.4048 17.2483 29.8948 17.1064 30.2243C16.7536 31.095 16.4881 31.9888 16.3634 32.9197C16.0113 33.8806 15.8308 34.8574 15.743 35.848C15.8603 35.8656 15.9799 35.8825 16.0971 35.9001C16.3171 34.9927 16.5371 34.0853 16.757 33.1779C17.0002 32.9038 16.8471 32.4007 17.3087 32.2487C17.3088 33.9481 16.8163 35.5862 16.6544 37.2672C16.2319 41.6562 16.1759 46.027 16.9667 50.3746C17.3419 52.1361 17.7171 53.8975 18.7682 55.4185C18.3086 53.7029 17.8489 51.9873 17.3892 50.2718C16.6406 45.0076 17.6059 39.9393 19.3099 34.9619C19.95 33.0934 21.1863 31.9756 23.2857 31.8721C24.5796 31.8091 25.8953 31.8176 27.1611 31.4346C27.6454 31.2893 28.1468 31.1782 28.5996 30.964C29.4376 30.5667 30.4921 30.1372 30.7674 29.3387C31.0917 28.4008 29.7074 28.2533 29.2653 27.5801C28.8733 26.9862 27.9549 26.732 28.0881 25.7937L28.1085 25.8114C30.4173 26.753 32.6641 27.8634 35.2065 28.1441C37.2455 28.3714 39.2495 28.2832 41.2724 27.6793C39.3778 26.7505 37.6139 25.7041 36.1017 24.2396C36.625 23.7125 37.0195 24.218 37.3861 24.4241C38.885 25.2629 40.4004 26.0458 42.1246 26.3291C42.5789 26.4034 43.0401 26.4551 43.5002 26.4634C45.8802 26.4988 46.4312 25.8018 45.6573 23.763C47.1925 24.7958 47.3558 26.2839 46.0665 27.6532C44.7325 29.0706 42.9462 29.5905 41.1283 29.9538C38.6917 30.4391 36.2259 30.7181 33.7709 30.1096C33.2639 29.985 32.9936 30.1477 32.6987 30.4924C31.9931 31.3158 31.204 32.0714 30.6346 33.0028C27.3112 36.9261 24.7214 41.2924 23.0354 46.1026C21.1624 51.445 21.0618 56.8207 23.4913 62.0599C23.535 62.2623 23.5781 62.4622 23.6682 62.8765C20.9022 60.59 18.152 58.5674 16.0417 55.8474C13.0614 52.009 10.8304 47.774 9.25622 43.1978C8.32451 40.492 7.44586 37.7695 6.52392 35.0611C6.38553 34.652 6.32921 34.3344 6.57518 33.9049C7.63179 32.0383 7.06826 31.0288 4.93377 30.8451C4.80743 30.8325 4.69583 30.7773 4.4917 30.7186C5.1009 29.9261 5.68947 29.1933 6.24395 28.4309C8.24715 25.6737 8.0893 24.6354 5.34649 22.6599C6.26521 21.9289 7.21096 21.25 8.07219 20.4802C10.4538 18.3541 10.2993 16.6547 7.61122 14.9224C7.33322 14.7442 7.04688 14.5836 6.60661 14.3173C11.7569 9.84004 17.8075 8.91769 24.2141 9.02174C24.1944 9.56343 23.7612 9.63568 23.487 9.83294C21.5026 11.2544 19.6749 12.8504 17.9989 14.6122C17.4318 15.2103 16.9324 15.4653 16.0495 15.2558C15.0136 15.0124 13.8964 14.7392 12.6335 15.2891C13.7283 15.5863 14.6468 15.8405 15.5651 16.0844C16.0525 16.2143 16.1563 16.416 15.8364 16.8628C14.7891 18.3246 13.7665 19.8003 12.7574 21.288C12.4811 21.6921 12.143 21.7388 11.6876 21.7577C10.6378 21.8043 9.62514 22.0576 8.48497 22.7629C9.45492 22.9749 10.1912 23.1645 10.9364 23.2897C11.5036 23.3853 11.6223 23.6037 11.38 24.1251C10.8168 25.3333 10.2752 26.5538 9.75572 27.7788C9.43333 28.5382 8.49368 28.576 8.05803 29.2936C8.58194 29.5401 9.09584 29.0851 9.64669 29.2857C9.08755 31.3001 8.9001 33.3541 9.1066 35.4625C9.72112 35.2953 9.52704 34.8444 9.56915 34.5133C11.1265 22.1634 17.7253 13.5224 29.3842 8.80724C35.7696 6.22462 42.261 6.2054 48.6322 8.97005C49.2064 9.21852 49.7658 9.50962 50.2975 9.83393C51.4596 10.5386 52.1792 11.5347 51.8708 12.9326C51.5378 14.4531 50.6177 15.5791 49.073 16.3566C49.4146 15.4733 49.7253 14.7582 49.9671 14.0203C50.2732 13.0925 49.8734 12.5084 48.9684 12.2068C48.0689 11.9062 47.1561 11.9368 46.2378 12.1029C42.1851 12.8355 38.7981 14.8906 35.6306 17.3744C35.2136 17.7028 34.8459 18.0979 34.0901 18.2359C36.5816 14.7135 39.801 12.355 43.9554 10.6152C41.1133 10.193 38.6247 10.5916 36.1379 10.6751C35.7606 9.66729 34.9816 9.30866 33.9628 9.47076C32.8835 9.64134 32.2444 10.2639 32.2265 11.3982C28.6515 12.7224 27.1385 15.356 27.5027 19.6348C27.5327 20.0007 27.5731 20.3664 27.6155 20.7883C26.8574 20.0192 26.7044 19.712 26.5442 18.1766C26.4484 17.243 26.4547 16.2999 26.4142 15.3283C25.0665 16.5481 25.0982 19.1366 26.5627 24.0361C25.1026 23.0296 24.4289 21.7556 23.8368 20.4443C23.2415 19.1209 23.0481 17.6666 22.6335 16.0705C22.1161 17.0395 22.1347 17.8804 22.25 18.7109C22.3327 19.3128 22.1963 19.6924 21.6592 20.0607C20.6561 20.7498 19.7992 21.6138 19.1529 22.6587C17.4743 24.6842 16.4843 27.0435 15.7132 29.5067C15.0734 30.9469 14.7913 32.4719 14.7288 34.0644C15.1805 32.6255 15.6315 31.1842 16.0832 29.7454C16.4469 28.9542 16.7624 28.1398 17.1846 27.382C17.8074 26.2789 18.2047 25.0275 19.3083 24.2443ZM26.3081 15.0008C26.3428 15.0327 26.3832 15.0761 26.4254 15.1164C26.4458 15.0851 26.4887 15.0401 26.4787 15.0221C26.4523 14.9725 26.4028 14.9342 26.3624 14.8908C26.3475 14.9232 26.3308 14.9586 26.3081 15.0008Z" fill="#6001D3"/>
<path d="M24.428 63.0757C24.2564 62.6988 24.0816 62.3201 23.91 61.9431C23.8455 61.7025 23.8006 61.4566 23.7123 61.225C21.5242 55.4903 22.0561 49.8393 24.3654 44.2406C26.0246 40.2191 28.5709 36.7645 31.4366 33.5157C31.8267 33.1455 32.2168 32.7754 32.6921 32.3231C33.8817 34.4388 35.6462 35.8486 37.7682 36.8352C38.411 37.1348 38.2078 37.3724 37.809 37.6907C36.9558 38.3732 35.9525 38.6421 34.8957 38.7602C33.5949 38.905 32.2955 38.8792 31.0079 38.6827C30.3911 38.5875 29.9854 38.7529 29.6384 39.274C28.9443 40.3162 28.152 41.2944 27.4882 42.3517C24.1192 47.7159 24.5216 53.0161 29.3077 58.5162C29.9161 59.2145 29.7859 59.5976 29.3072 60.1643C28.1839 61.4891 26.8221 62.5683 25.396 63.7396C26.2301 64.0499 26.6105 63.3703 27.1568 63.2317C27.2886 64.4265 25.9789 64.4112 25.6336 64.3722C24.5822 64.2568 25.0326 64.7757 25.0659 65.2026C25.1769 66.7202 25.7491 68.1916 25.5188 69.7439C24.6976 68.5249 24.2536 67.1507 23.8002 65.7713C23.5422 64.9842 24.0326 64.4221 24.2708 63.778C24.4346 63.5691 24.6586 63.3698 24.428 63.0757Z" fill="#6001D3"/>
<path d="M25.5201 69.7487C25.7504 68.1964 25.1782 66.725 25.0672 65.2074C25.0364 64.7798 24.5835 64.2616 25.6349 64.377C25.9796 64.4136 27.2899 64.4313 27.1581 63.2365C28.6314 62.1145 30.073 60.9622 30.9089 59.258C31.0525 58.9642 31.2244 58.8047 31.5948 58.8885C35.2182 59.7074 38.9203 59.502 42.8959 59.5947C40.7849 60.4362 38.901 61.0803 37.1553 62.0252C33.3755 64.0695 30.7078 66.8268 30.8596 71.4359C30.9287 73.5295 31.4278 75.5389 31.883 77.56C32.1175 78.6009 32.4289 79.6264 32.5836 80.7017C29.9751 77.1867 27.4126 73.6774 25.5201 69.7487Z" fill="#6001D3"/>
<path d="M35.7993 10.8076C35.9347 12.182 35.5268 12.9154 34.4939 13.0349C33.2782 13.1749 32.778 12.4605 32.6204 11.3938C33.4387 9.61428 34.434 9.43269 35.7993 10.8076Z" fill="#6001D3"/>
<path d="M45.6819 19.236C45.1886 18.0298 45.6749 17.0226 46.3938 16.0537C46.3399 17.1023 47.7486 18.3367 45.9332 19.1584C45.8484 19.1837 45.7667 19.2107 45.6819 19.236Z" fill="#6001D3"/>
<path d="M28.0802 25.7937C28.0579 25.7301 28.035 25.664 28.0127 25.6003C27.9879 25.625 27.9656 25.6491 27.9408 25.6738C27.9923 25.7193 28.0462 25.7642 28.0976 25.8097C28.1007 25.8115 28.0802 25.7937 28.0802 25.7937Z" fill="#6001D3"/>
</g>
<path d="M76.2055 33.0436H69.2369V36.7978H75.5949V41.6246H69.2369V50.3844H63.4536V28.2168H76.2055V33.0436Z" fill="#080422"/>
<path d="M84.8327 29.5039C84.8327 30.362 84.5334 31.0771 83.9347 31.6492C83.36 32.2212 82.6535 32.5073 81.8154 32.5073C80.9772 32.5073 80.2588 32.2212 79.6601 31.6492C79.0854 31.0533 78.798 30.3382 78.798 29.5039C78.798 29.0987 78.8699 28.7173 79.0135 28.3598C79.1812 28.0022 79.3967 27.6924 79.6601 27.4302C79.9475 27.1441 80.2708 26.9296 80.63 26.7866C80.9892 26.6197 81.3843 26.5363 81.8154 26.5363C82.2225 26.5363 82.6056 26.6197 82.9648 26.7866C83.348 26.9296 83.6713 27.1441 83.9347 27.4302C84.2221 27.6924 84.4376 28.0022 84.5813 28.3598C84.7489 28.7173 84.8327 29.0987 84.8327 29.5039ZM84.4735 50.3844H79.1213V35.3318H84.4735V50.3844Z" fill="#080422"/>
<path d="M100.493 45.3073C100.493 47.0235 99.8468 48.394 98.5537 49.419C97.2605 50.4439 95.5004 50.9564 93.2733 50.9564C91.2138 50.9564 89.2023 50.3724 87.2386 49.2045L89.1783 45.4503C90.7109 46.4514 92.1358 46.952 93.4529 46.952C94.5784 46.952 95.1412 46.5706 95.1412 45.8078C95.1412 45.5218 95.0813 45.3192 94.9616 45.2C94.8658 45.057 94.6622 44.9497 94.3509 44.8782C94.0635 44.7829 93.6325 44.6756 93.0578 44.5564C92.507 44.4134 91.7886 44.187 90.9025 43.8771C89.2262 43.2097 88.388 41.9583 88.388 40.1229C88.388 39.3601 88.5317 38.657 88.8191 38.0134C89.1304 37.3698 89.5734 36.8097 90.1482 36.333C90.7229 35.8562 91.4293 35.4868 92.2675 35.2246C93.1057 34.9385 94.0635 34.7955 95.1412 34.7955C96.8175 34.7955 98.4459 35.1173 100.026 35.7609L98.2304 39.1933C97.2246 38.6927 96.2667 38.4425 95.3567 38.4425C94.2791 38.4425 93.7403 38.8119 93.7403 39.5508C93.7403 39.813 93.9079 40.0156 94.2431 40.1587C94.5784 40.3017 94.9975 40.4447 95.5004 40.5877C96.0033 40.7069 96.5421 40.8618 97.1168 41.0525C97.6916 41.2194 98.2304 41.4696 98.7333 41.8034C99.2362 42.1371 99.6552 42.5899 99.9905 43.162C100.326 43.7102 100.493 44.4253 100.493 45.3073Z" fill="#080422"/>
<path d="M119.17 50.3844H113.818V42.7687C113.818 41.9821 113.758 41.3505 113.638 40.8737C113.519 40.3732 113.351 40.0037 113.136 39.7654C112.92 39.5032 112.657 39.3363 112.345 39.2648C112.058 39.1695 111.735 39.1218 111.375 39.1218C110.561 39.1218 109.891 39.384 109.364 39.9084C108.837 40.4328 108.574 41.2313 108.574 42.3039V50.3844H103.221V26H108.574V37.2268C108.957 36.7739 109.316 36.4045 109.651 36.1184C110.01 35.8324 110.382 35.606 110.765 35.4391C111.148 35.2723 111.555 35.1531 111.986 35.0816C112.417 35.0101 112.908 34.9743 113.459 34.9743C115.183 34.9743 116.56 35.4629 117.59 36.4402C118.643 37.4175 119.17 38.8715 119.17 40.8022V50.3844Z" fill="#080422"/>
<path d="M128.471 29.5039C128.471 30.362 128.172 31.0771 127.573 31.6492C126.998 32.2212 126.292 32.5073 125.454 32.5073C124.615 32.5073 123.897 32.2212 123.298 31.6492C122.724 31.0533 122.436 30.3382 122.436 29.5039C122.436 29.0987 122.508 28.7173 122.652 28.3598C122.819 28.0022 123.035 27.6924 123.298 27.4302C123.586 27.1441 123.909 26.9296 124.268 26.7866C124.627 26.6197 125.023 26.5363 125.454 26.5363C125.861 26.5363 126.244 26.6197 126.603 26.7866C126.986 26.9296 127.31 27.1441 127.573 27.4302C127.86 27.6924 128.076 28.0022 128.22 28.3598C128.387 28.7173 128.471 29.0987 128.471 29.5039ZM128.112 50.3844H122.76V35.3318H128.112V50.3844Z" fill="#080422"/>
<path d="M147.76 50.3844H142.407V42.7687C142.407 41.9821 142.348 41.3624 142.228 40.9095C142.108 40.4328 141.94 40.0633 141.725 39.8011C141.509 39.5389 141.246 39.3721 140.935 39.3006C140.647 39.2052 140.324 39.1575 139.965 39.1575C139.175 39.1575 138.504 39.4197 137.953 39.9441C137.426 40.4447 137.163 41.2313 137.163 42.3039V50.3844H131.811V35.3318H137.163V37.2268C137.546 36.7739 137.917 36.4045 138.277 36.1184C138.636 35.8324 138.995 35.606 139.354 35.4391C139.737 35.2723 140.144 35.165 140.575 35.1173C141.007 35.0458 141.497 35.0101 142.048 35.0101C143.796 35.0101 145.185 35.4987 146.215 36.476C147.245 37.4533 147.76 38.8953 147.76 40.8022V50.3844Z" fill="#080422"/>
<path d="M168.34 49.3475C168.34 50.1818 168.304 50.9088 168.232 51.5285C168.16 52.1721 168.028 52.7441 167.837 53.2447C167.645 53.7691 167.382 54.2458 167.046 54.6749C166.711 55.1277 166.28 55.5806 165.753 56.0335C164.197 57.3445 162.137 58 159.575 58C158.449 58 157.372 57.8451 156.342 57.5352C155.336 57.2492 154.45 56.844 153.684 56.3196C152.917 55.7952 152.283 55.1754 151.78 54.4603C151.301 53.7691 151.026 53.0182 150.954 52.2078H156.989C157.204 52.8276 157.515 53.2447 157.922 53.4592C158.354 53.6976 158.88 53.8168 159.503 53.8168C160.509 53.8168 161.335 53.5188 161.982 52.9229C162.652 52.3508 162.987 51.4212 162.987 50.1341V48.7039C162.149 49.4905 161.383 50.0268 160.688 50.3128C159.994 50.575 159.156 50.7061 158.174 50.7061C157.096 50.7061 156.102 50.5155 155.192 50.1341C154.306 49.7527 153.528 49.2283 152.858 48.5609C152.211 47.8935 151.696 47.095 151.313 46.1654C150.954 45.2358 150.774 44.2108 150.774 43.0905C150.774 41.9225 150.966 40.838 151.349 39.8369C151.756 38.8358 152.307 37.9657 153.001 37.2268C153.696 36.4879 154.498 35.9158 155.408 35.5106C156.342 35.1054 157.348 34.9028 158.425 34.9028C159.359 34.9028 160.174 35.0458 160.868 35.3318C161.586 35.6179 162.293 36.1423 162.987 36.905V35.3318H168.34V49.3475ZM163.239 42.8045C163.239 42.3277 163.143 41.8749 162.951 41.4458C162.784 41.0168 162.544 40.6473 162.233 40.3374C161.946 40.0037 161.586 39.7415 161.155 39.5508C160.748 39.3602 160.293 39.2648 159.79 39.2648C159.311 39.2648 158.856 39.3602 158.425 39.5508C158.018 39.7415 157.659 40.0037 157.348 40.3374C157.036 40.6473 156.785 41.0168 156.593 41.4458C156.426 41.8749 156.342 42.3277 156.342 42.8045C156.342 43.2812 156.426 43.7341 156.593 44.1631C156.785 44.5683 157.036 44.9378 157.348 45.2715C157.659 45.5814 158.018 45.8317 158.425 46.0223C158.856 46.213 159.311 46.3084 159.79 46.3084C160.269 46.3084 160.712 46.213 161.119 46.0223C161.55 45.8317 161.922 45.5814 162.233 45.2715C162.544 44.9378 162.784 44.5683 162.951 44.1631C163.143 43.7341 163.239 43.2812 163.239 42.8045Z" fill="#080422"/>
<path d="M201.501 50.3844H195.717V41.1598H187.348V50.3844H181.565V28.2168H187.348V36.762H195.717V28.2168H201.501V50.3844Z" fill="#080422"/>
<path d="M221.781 44.8782C221.781 46.9043 221.11 48.4417 219.769 49.4905C218.428 50.5155 216.416 51.0279 213.734 51.0279C211.172 51.0279 209.184 50.5274 207.771 49.5263C206.359 48.5251 205.652 46.9758 205.652 44.8782V35.3318H211.004V43.8413C211.004 45.7244 211.914 46.6659 213.734 46.6659C214.596 46.6659 215.255 46.4395 215.71 45.9866C216.189 45.5337 216.428 44.8186 216.428 43.8413V35.3318H221.781V44.8782Z" fill="#080422"/>
<path d="M234.454 39.6939H231.4V50.3844H226.048V39.6939H224.288V35.3318H226.048V30.7911H231.4V35.3318H234.454V39.6939Z" fill="#080422"/>
<defs>
<clipPath id="clip0_1_18525">
<rect width="50.6865" height="72.9052" fill="white" transform="translate(0 13.9553) rotate(-15)"/>
</clipPath>
</defs>
</svg>
