<svg width="59" height="42" viewBox="0 0 59 42" fill="none" xmlns="http://www.w3.org/2000/svg">
<path d="M25.8112 5.89971H44.2478C46.5051 5.89958 48.677 6.76202 50.3194 8.31058C51.9617 9.85913 52.9502 11.9767 53.0826 14.2301L53.0974 14.7493V17.6991L56.0472 17.7522C56.7679 17.752 57.4638 18.0156 58.0034 18.4933C58.5431 18.971 58.8892 19.6297 58.9764 20.3451L59 20.6991V26.5988C59.0007 27.3132 58.7422 28.0036 58.2724 28.5418C57.8025 29.08 57.1534 29.4294 56.4454 29.5251L56.0502 29.5516L53.0974 29.4985V32.4484C53.0975 34.7056 52.235 36.8776 50.6865 38.52C49.1379 40.1623 47.0203 41.1508 44.767 41.2832L44.2478 41.2979H17.6932C17.1327 41.2978 16.5931 41.0848 16.1835 40.7022C15.7739 40.3195 15.5249 39.7956 15.4867 39.2364C15.4484 38.6771 15.6239 38.1242 15.9777 37.6894C16.3314 37.2546 16.837 36.9702 17.3923 36.8938L17.6932 36.8732H44.2478C45.3473 36.8732 46.4074 36.4639 47.2216 35.7249C48.0357 34.986 48.5456 33.9705 48.6519 32.8761L48.6726 32.4484V14.7493C48.6726 13.6498 48.2633 12.5897 47.5243 11.7755C46.7854 10.9613 45.7699 10.4514 44.6755 10.3451L44.2478 10.3245H25.8112C25.2507 10.3243 24.7111 10.1114 24.3015 9.7287C23.8919 9.34602 23.6429 8.82213 23.6046 8.26289C23.5664 7.70366 23.7419 7.15076 24.0957 6.71594C24.4494 6.28111 24.955 5.99676 25.5103 5.92036L25.8112 5.89971H44.2478H25.8112ZM12.5398 20.6431V39.0856C12.5346 39.6426 12.3194 40.1772 11.9373 40.5825C11.5552 40.9878 11.0342 41.2341 10.4784 41.2721C9.92266 41.3101 9.37302 41.137 8.93928 40.7874C8.50554 40.4379 8.21962 39.9376 8.13864 39.3864L8.11799 39.0856V20.6431H5.16224C3.79364 20.6431 2.48105 20.0996 1.51303 19.1321C0.545005 18.1647 0.000782058 16.8524 0 15.4838V8.1121C0 7.52534 0.23309 6.96261 0.647994 6.5477C1.0629 6.1328 1.62563 5.89971 2.21239 5.89971H4.42773V2.21239C4.42775 1.67777 4.62137 1.16124 4.97277 0.758319C5.32416 0.355403 5.80958 0.0933596 6.33923 0.0206507L6.64012 1.84567e-06C7.17474 2.43911e-05 7.69128 0.193639 8.09419 0.545038C8.49711 0.896438 8.75915 1.38185 8.83186 1.91151L8.85251 2.21239V5.89971H11.7876V2.21239C11.7878 1.67688 11.9823 1.15962 12.3349 0.756577C12.6875 0.35353 13.1743 0.0920522 13.705 0.0206507L14 1.84567e-06C14.5351 -0.000689036 15.0524 0.192603 15.4559 0.544068C15.8594 0.895532 16.1219 1.38135 16.1947 1.91151L16.2153 2.21239L16.2124 5.89971H18.4484C19.0351 5.89971 19.5979 6.1328 20.0128 6.5477C20.4277 6.96261 20.6608 7.52534 20.6608 8.1121V15.4838C20.6608 16.8529 20.1169 18.1659 19.1488 19.134C18.1807 20.1021 16.8676 20.646 15.4985 20.646L12.5398 20.6431V39.0856V20.6431V20.6431ZM16.236 10.3245H4.42478V15.4838C4.42478 15.8909 4.75516 16.2212 5.16224 16.2212H15.4985C15.6941 16.2212 15.8817 16.1435 16.02 16.0052C16.1583 15.8669 16.236 15.6794 16.236 15.4838V10.3245Z" fill="white"/>
</svg>
