<svg width="50" height="34" viewBox="0 0 50 34" fill="none" xmlns="http://www.w3.org/2000/svg">
<path d="M14.2857 33.3333H2.38095C1.74948 33.3333 1.14388 33.0825 0.697365 32.636C0.25085 32.1895 0 31.5838 0 30.9524V2.38095C0 1.74948 0.25085 1.14388 0.697365 0.697365C1.14388 0.25085 1.74948 0 2.38095 0H18.1548L15.3762 4.7619H4.7619V28.5714H14.2857V33.3333ZM24.7024 33.3333L27.481 28.5714H38.0952V4.7619H28.5714V0H40.4762C41.1077 0 41.7133 0.25085 42.1598 0.697365C42.6063 1.14388 42.8571 1.74948 42.8571 2.38095V30.9524C42.8571 31.5838 42.6063 32.1895 42.1598 32.636C41.7133 33.0825 41.1077 33.3333 40.4762 33.3333H24.7024ZM45.2381 9.52381H50V23.8095H45.2381V9.52381ZM23.8095 14.2857H30.9524L19.0476 33.3333V19.0476H11.9048L23.8095 0V14.2857Z" fill="white"/>
</svg>
