<svg width="48" height="49" viewBox="0 0 48 49" fill="none" xmlns="http://www.w3.org/2000/svg">
<path d="M28.7968 0C29.1645 1.1586e-05 29.5227 0.116713 29.8198 0.333298C30.1169 0.549884 30.3376 0.855175 30.4501 1.20521L32.3603 7.14093C33.1626 7.5334 33.9302 7.9745 34.6631 8.47117L40.762 7.1583C41.1216 7.08152 41.4963 7.12087 41.8321 7.27067C42.1679 7.42047 42.4475 7.67299 42.6306 7.99187L47.4445 16.3241C47.6283 16.6428 47.7062 17.0116 47.6669 17.3774C47.6275 17.7432 47.473 18.0871 47.2257 18.3594L43.0405 22.9788C43.1014 23.8646 43.1014 24.7535 43.0405 25.6393L47.2257 30.2656C47.473 30.5379 47.6275 30.8818 47.6669 31.2476C47.7062 31.6134 47.6283 31.9822 47.4445 32.3009L42.6306 40.6366C42.447 40.9548 42.1672 41.2067 41.8314 41.3558C41.4957 41.505 41.1213 41.5438 40.762 41.4667L34.6631 40.1538C33.9337 40.647 33.1626 41.0916 32.3638 41.4841L30.4501 47.4198C30.3376 47.7698 30.1169 48.0751 29.8198 48.2917C29.5227 48.5083 29.1645 48.625 28.7968 48.625H19.1691C18.8014 48.625 18.4432 48.5083 18.1461 48.2917C17.849 48.0751 17.6283 47.7698 17.5158 47.4198L15.609 41.4875C14.8089 41.0963 14.0371 40.6494 13.2993 40.1504L7.20383 41.4667C6.84424 41.5435 6.46955 41.5041 6.13374 41.3543C5.79794 41.2045 5.51835 40.952 5.33525 40.6331L0.521371 32.3009C0.337549 31.9822 0.259688 31.6134 0.299014 31.2476C0.33834 30.8818 0.492821 30.5379 0.740183 30.2656L4.92541 25.6393C4.86478 24.7558 4.86478 23.8692 4.92541 22.9857L0.740183 18.3594C0.492821 18.0871 0.33834 17.7432 0.299014 17.3774C0.259688 17.0116 0.337549 16.6428 0.521371 16.3241L5.33525 7.98839C5.51885 7.67016 5.79866 7.41835 6.13442 7.26919C6.47019 7.12003 6.84461 7.0812 7.20383 7.1583L13.2993 8.47464C14.0356 7.97797 14.8067 7.52993 15.609 7.13746L17.5193 1.20521C17.6314 0.856302 17.8511 0.551819 18.1468 0.335339C18.4425 0.118858 18.7991 0.00147843 19.1656 0H28.7933H28.7968ZM27.5256 3.47321H20.4403L18.4675 9.61038L17.1372 10.2599C16.4833 10.5799 15.852 10.9443 15.2478 11.3505L14.0183 12.184L7.71092 10.8225L4.16825 16.9632L8.4924 21.7493L8.3882 23.2219C8.3383 23.9481 8.3383 24.6769 8.3882 25.4031L8.4924 26.8757L4.1613 31.6618L7.70745 37.8025L14.0148 36.4444L15.2443 37.2745C15.8485 37.6807 16.4798 38.0451 17.1338 38.3651L18.464 39.0146L20.4403 45.1518H27.5326L29.5123 39.0111L30.8391 38.3651C31.4923 38.0459 32.1225 37.6815 32.725 37.2745L33.9511 36.4444L40.2619 37.8025L43.8046 31.6618L39.4769 26.8757L39.5811 25.4031C39.6312 24.6757 39.6312 23.9458 39.5811 23.2184L39.4769 21.7458L43.808 16.9632L40.2619 10.8225L33.9511 12.1771L32.725 11.3505C32.1225 10.9435 31.4923 10.579 30.8391 10.2599L29.5123 9.61386L27.5291 3.47321H27.5256ZM23.9829 13.8929C26.7464 13.8929 29.3967 14.9906 31.3507 16.9447C33.3048 18.8988 34.4026 21.549 34.4026 24.3125C34.4026 27.076 33.3048 29.7262 31.3507 31.6803C29.3967 33.6344 26.7464 34.7321 23.9829 34.7321C21.2195 34.7321 18.5692 33.6344 16.6151 31.6803C14.6611 29.7262 13.5633 27.076 13.5633 24.3125C13.5633 21.549 14.6611 18.8988 16.6151 16.9447C18.5692 14.9906 21.2195 13.8929 23.9829 13.8929V13.8929ZM23.9829 17.3661C22.1406 17.3661 20.3738 18.0979 19.0711 19.4006C17.7684 20.7033 17.0365 22.4702 17.0365 24.3125C17.0365 26.1548 17.7684 27.9217 19.0711 29.2244C20.3738 30.5271 22.1406 31.2589 23.9829 31.2589C25.8252 31.2589 27.5921 30.5271 28.8948 29.2244C30.1975 27.9217 30.9294 26.1548 30.9294 24.3125C30.9294 22.4702 30.1975 20.7033 28.8948 19.4006C27.5921 18.0979 25.8252 17.3661 23.9829 17.3661V17.3661Z" fill="white"/>
</svg>
