<svg width="356" height="77" viewBox="0 0 356 77" fill="none" xmlns="http://www.w3.org/2000/svg">
<g clip-path="url(#clip0_1_18308)">
<path d="M19.4639 49.1205C19.6883 47.173 20.5414 45.5444 21.8996 44.1355C24.9323 40.9888 28.6744 39.2323 32.953 38.7066C38.9739 37.9684 44.6755 39.2093 50.036 41.9725C51.9351 42.952 53.6342 44.246 54.8671 46.0485C54.5708 46.1648 54.3564 46.0384 54.1852 45.8086C54.0859 45.675 54.0068 45.5142 53.7939 45.5659C52.607 45.8546 51.3826 45.8287 50.1799 45.9077C49.2505 45.9695 48.3801 46.3558 47.4334 46.2567C45.2927 46.0341 43.2584 46.8929 41.1219 46.8944C39.8041 46.8958 38.4891 47.2778 37.1511 47.2491C36.4534 47.2348 35.7772 47.3698 35.0981 47.4818C33.3199 47.7748 31.5057 47.9227 29.7304 48.029C27.7363 48.1482 25.774 48.5963 23.7727 48.5546C23.6821 48.5532 23.5713 48.5747 23.5008 48.6279C23.0692 48.9539 22.5858 48.8577 22.1211 48.783C21.9024 48.7485 21.7154 48.7198 21.4996 48.7973C20.8436 49.0329 20.1401 48.9998 19.4639 49.1205ZM28.2557 41.8821C30.3907 41.2832 32.3675 41.0218 34.3701 40.9457C36.3627 40.8696 38.3438 41.0247 40.3191 41.2774C42.2829 41.5288 44.2208 41.9395 46.3659 42.3574C40.5795 39.2021 32.4653 38.9594 28.2557 41.8821Z" fill="#FDDC17"/>
<path d="M55.7075 55.7629C55.6384 56.6016 54.9623 57.0095 54.4141 57.4677C53.5552 58.1858 52.5266 58.654 51.4116 58.7272C48.4551 58.9197 45.7892 59.9925 43.1794 61.275C40.748 62.4699 38.2778 63.5586 35.5385 63.8429C30.9102 64.3255 26.6071 63.6548 23.0636 60.3171C22.7874 60.0571 22.5587 59.7498 22.3069 59.464C22.6176 59.3663 22.9471 59.3994 23.255 59.227C24.2031 58.6956 25.2504 58.6927 26.3021 58.7387C26.7568 58.7588 27.2128 58.7287 27.6674 58.7459C28.0386 58.7602 28.381 58.6999 28.6961 58.5003C29.1363 58.2202 29.6183 58.1671 30.1348 58.1556C31.0613 58.1341 32.018 58.3567 32.91 58.0034C33.4409 57.7923 33.9646 57.7664 34.5142 57.7248C35.7572 57.6328 37.0491 57.9818 38.2404 57.3284C38.4073 57.2364 38.6648 57.2982 38.8806 57.3083C39.8388 57.3528 40.8041 57.3327 41.7306 57.1172C42.4874 56.942 43.2341 56.9061 43.9966 56.8616C44.9921 56.8042 46.0496 57.1733 46.9732 56.471C47.0969 56.3776 47.3473 56.4523 47.5386 56.4437C48.4436 56.402 49.3442 56.481 50.2549 56.3273C51.062 56.1923 51.777 55.7529 52.6661 55.8347C53.5696 55.918 54.5307 56.066 55.4169 55.6121C55.532 55.5518 55.6399 55.6523 55.7075 55.7629Z" fill="#FCBA3B"/>
<path d="M45.1849 39.0285C42.9621 38.4684 40.7437 37.8896 38.4403 37.7517C38.1943 37.7374 38.062 37.6067 37.9555 37.3955C35.7313 32.9462 35.1299 28.3533 36.8808 23.6153C37.7383 21.293 39.2848 19.4704 41.44 18.1965C41.2702 18.9089 41.1451 19.5853 41.3781 20.3508C41.7076 21.4366 41.9493 22.5683 42.1248 23.6828C42.4931 26.0267 43.0758 28.3246 43.5031 30.6526C43.6786 31.6077 43.8225 32.5685 43.9735 33.525C44.1462 34.6151 44.4613 35.6879 44.6641 36.7837C44.8022 37.5262 44.7073 38.3564 45.1849 39.0285ZM38.9856 35.8157C38.518 33.6744 38.0864 31.5316 38.0763 29.3241C38.0648 27.1153 38.3655 24.9553 38.9928 22.7708C36.7297 25.5139 36.711 32.748 38.9856 35.8157Z" fill="#FDDC17"/>
<path d="M55.7075 55.763C55.6413 55.6524 55.5334 55.5533 55.4169 55.6122C54.5306 56.0661 53.5696 55.9196 52.6661 55.8348C51.777 55.753 51.062 56.1924 50.2548 56.3274C49.3442 56.4797 48.4435 56.4021 47.5386 56.4438C47.3473 56.4524 47.0969 56.3777 46.9732 56.4711C46.0496 57.1734 44.9921 56.8043 43.9965 56.8617C43.234 56.9062 42.4859 56.9407 41.7306 57.1173C40.8041 57.3328 39.8387 57.3529 38.8806 57.3084C38.6662 57.2983 38.4072 57.2366 38.2403 57.3285C37.0491 57.9834 35.7572 57.6329 34.5141 57.7249C33.9646 57.7651 33.4409 57.7924 32.91 58.0035C32.018 58.3582 31.0627 58.1356 30.1348 58.1557C29.6183 58.1672 29.1363 58.2189 28.6961 58.5004C28.3824 58.7 28.0386 58.7618 27.6674 58.746C27.2128 58.7273 26.7567 58.7589 26.3021 58.7388C25.2504 58.6928 24.2045 58.6957 23.255 59.2271C22.9471 59.3995 22.6162 59.3664 22.3069 59.4641C21.2494 58.3439 20.5171 57.0326 20.0222 55.5835C20.3258 55.6194 20.7804 55.4313 20.9085 55.6869C21.3343 56.5314 22.0191 56.1551 22.5773 56.0747C23.6866 55.9153 24.7929 55.6898 25.9108 55.7443C27.0517 55.8004 28.1278 55.47 29.2385 55.3609C29.5449 55.3307 29.9434 55.3867 30.1391 55.2187C30.893 54.5695 31.7245 54.9085 32.523 54.9501C32.9287 54.9717 33.3186 55.0492 33.7214 54.9157C34.5645 54.6356 35.4119 54.4489 36.3111 54.6916C36.5758 54.7634 36.9196 54.7764 37.157 54.6658C37.8979 54.3225 38.6705 54.2938 39.456 54.2895C40.1265 54.2852 40.8343 54.4015 41.4558 54.222C42.2442 53.9951 43.0197 53.8672 43.8297 53.8601C44.3807 53.8543 44.9475 53.9247 45.4784 53.8184C46.8423 53.5455 48.222 53.3272 49.5959 53.4594C50.7972 53.5757 51.7871 52.6005 52.9898 52.9624C53.0085 52.9682 53.0401 52.9524 53.056 52.938C53.6315 52.3779 54.3565 52.6192 55.0284 52.5661C55.4097 52.5359 55.6873 52.6178 55.6111 53.1305C56.1218 52.7226 56.293 52.1165 56.8268 51.8508C56.8671 53.04 56.6182 54.1717 56.142 55.256C56.0542 55.4614 56.0154 55.7343 55.7075 55.763Z" fill="#FCC432"/>
<path d="M19.7245 54.5795C19.3461 53.5584 19.2123 52.5042 19.2813 51.4199C19.7676 51.2619 20.1244 50.8497 20.6956 50.831C22.973 50.7549 25.2289 50.3384 27.5164 50.4102C27.8243 50.4203 28.1552 50.4447 28.44 50.3513C29.5263 49.9966 30.6369 49.9492 31.7634 49.9794C32.4482 49.998 33.1589 50.1029 33.7071 49.5011C33.8596 49.3345 34.1171 49.4192 34.33 49.4092C35.4968 49.3604 36.6636 49.4853 37.8333 49.2914C38.226 49.2254 38.4361 48.9223 38.7813 48.8491C39.2647 48.7471 39.7237 48.9625 40.197 48.974C41.1696 48.997 42.1234 48.7026 43.0543 48.6222C45.5763 48.4039 48.0997 48.0462 50.6448 48.1209C51.0562 48.1324 51.4893 48.1425 51.8375 47.9543C52.469 47.6125 53.1294 47.6944 53.7883 47.6886C54.7105 47.68 54.9278 47.4947 55.1263 46.5095C55.8701 47.4517 56.4887 48.4484 56.5449 49.6964C56.1765 49.7424 56.3866 49.2167 56.0658 49.2038C56.06 50.2709 56.0586 50.291 54.9465 50.2666C53.6632 50.2379 52.4762 50.9746 51.1656 50.7219C51.0908 50.7075 50.9671 50.7721 50.9167 50.8382C50.652 51.1886 50.4434 51.2001 50.1168 50.8626C49.8262 50.5653 49.3169 50.561 49.0665 50.8368C48.5975 51.3538 48.0422 51.2518 47.4797 51.2791C46.7661 51.3136 46.0568 51.2604 45.336 51.3696C44.2613 51.5319 43.201 51.8062 42.0846 51.7272C41.2832 51.6712 40.4301 51.5204 39.6633 51.8249C38.3411 52.352 36.9571 52.2945 35.5875 52.4381C34.0826 52.5961 32.5792 52.5516 31.0743 52.5717C30.9563 52.5731 30.8038 52.5674 30.729 52.6334C30.2024 53.1031 29.5651 52.9939 28.9493 52.9982C28.207 53.0025 27.4632 53.0011 26.7208 52.9982C26.4777 52.9982 26.2187 52.9839 26.0921 53.2424C25.918 53.6 25.5986 53.5311 25.2936 53.5828C24.2132 53.7637 23.127 53.544 22.0364 53.6819C21.3516 53.768 20.6927 54.2664 19.9489 53.8973C19.8252 53.8355 19.759 54.0036 19.8065 54.1357C19.8611 54.3009 19.9043 54.4574 19.7245 54.5795Z" fill="#FDD026"/>
<path d="M19.7244 54.5795C19.9056 54.4574 19.8625 54.3009 19.8035 54.1343C19.7575 54.0021 19.8222 53.8341 19.9459 53.8959C20.6883 54.265 21.3486 53.7666 22.0335 53.6804C23.124 53.544 24.2102 53.7623 25.2907 53.5813C25.5957 53.5311 25.9136 53.5986 26.0891 53.241C26.2143 52.9839 26.4747 52.9968 26.7178 52.9968C27.4602 52.9983 28.204 53.0011 28.9464 52.9968C29.5621 52.9925 30.1995 53.1017 30.726 52.632C30.8008 52.566 30.9548 52.5717 31.0713 52.5703C32.5762 52.5502 34.0796 52.5947 35.5845 52.4367C36.9541 52.2931 38.3381 52.3505 39.6603 51.8234C40.4271 51.519 41.2803 51.6698 42.0816 51.7258C43.198 51.8033 44.2598 51.5305 45.333 51.3682C46.0553 51.259 46.7631 51.3136 47.4767 51.2777C48.0407 51.2504 48.596 51.3509 49.0636 50.8353C49.3139 50.5596 49.8232 50.5639 50.1138 50.8612C50.4418 51.1973 50.6504 51.1872 50.9137 50.8368C50.9641 50.7707 51.0878 50.7061 51.1626 50.7204C52.4718 50.9732 53.6602 50.2364 54.9435 50.2652C56.0556 50.2896 56.057 50.2695 56.0628 49.2024C56.3836 49.2153 56.1736 49.7424 56.5419 49.695C56.8253 50.3887 56.8023 51.1211 56.8282 51.8493C56.293 52.115 56.1232 52.7211 55.6125 53.1289C55.6887 52.6177 55.4125 52.5344 55.0298 52.5645C54.3594 52.6177 53.6328 52.3764 53.0574 52.9365C53.0415 52.9523 53.0099 52.9667 52.9912 52.9609C51.7884 52.599 50.7986 53.5727 49.5973 53.4578C48.2234 53.3257 46.8437 53.544 45.4798 53.8169C44.9489 53.9232 44.3821 53.8528 43.8311 53.8585C43.0211 53.8657 42.2456 53.9935 41.4572 54.2204C40.8357 54.4 40.1264 54.2836 39.4574 54.2879C38.6705 54.2923 37.8979 54.321 37.1584 54.6642C36.921 54.7748 36.5772 54.7605 36.3125 54.6901C35.4133 54.4474 34.5659 54.6355 33.7228 54.9141C33.32 55.0477 32.9301 54.9701 32.5244 54.9486C31.7259 54.9069 30.8944 54.568 30.1405 55.2172C29.9448 55.3852 29.5463 55.3292 29.2399 55.3593C28.1292 55.4685 27.0531 55.8003 25.9122 55.7428C24.7943 55.6868 23.6865 55.9123 22.5787 56.0731C22.0205 56.1536 21.3357 56.5313 20.9098 55.6854C20.7818 55.4297 20.3257 55.6179 20.0236 55.582C19.8265 55.2775 19.756 54.9328 19.7244 54.5795Z" fill="#FECA2D"/>
<path d="M55.1234 46.5096C54.9249 47.4949 54.7076 47.6801 53.7854 47.6888C53.1265 47.6945 52.4676 47.6126 51.8346 47.9545C51.4864 48.1426 51.0548 48.1325 50.6419 48.1211C48.0983 48.0464 45.5734 48.4054 43.0514 48.6223C42.1205 48.7027 41.1681 48.9971 40.1941 48.9742C39.7208 48.9627 39.2618 48.7472 38.7785 48.8492C38.4332 48.9225 38.2246 49.2255 37.8304 49.2916C36.6607 49.4854 35.4939 49.3605 34.3271 49.4093C34.1157 49.4179 33.8567 49.3346 33.7042 49.5012C33.156 50.1016 32.4453 49.9967 31.7605 49.9795C30.634 49.9493 29.5234 49.9967 28.4371 50.3515C28.1523 50.4448 27.8214 50.4204 27.5135 50.4103C25.226 50.3371 22.9687 50.755 20.6927 50.8311C20.123 50.8498 19.7647 51.2634 19.2784 51.42C19.2511 50.6459 19.2267 49.8732 19.4612 49.1206C20.1388 49 20.8409 49.033 21.4969 48.7975C21.7141 48.7199 21.8997 48.7472 22.1184 48.7831C22.5831 48.8578 23.0665 48.954 23.4981 48.628C23.5686 48.5749 23.6794 48.5533 23.77 48.5548C25.7713 48.5979 27.7336 48.1483 29.7276 48.0291C31.503 47.9229 33.3172 47.7749 35.0954 47.4819C35.7745 47.3699 36.4506 47.2349 37.1484 47.2493C38.4864 47.278 39.8014 46.8945 41.1192 46.8945C43.2557 46.8931 45.29 46.0328 47.4307 46.2569C48.3774 46.356 49.2478 45.9682 50.1772 45.9079C51.3799 45.8289 52.6043 45.8547 53.7912 45.5661C54.0041 45.5144 54.0818 45.6752 54.1825 45.8088C54.3551 46.0386 54.5681 46.165 54.8644 46.0486C54.8644 46.0486 54.8544 46.0673 54.8544 46.0687C54.8932 46.1291 54.9306 46.1908 54.9695 46.2511C55.0227 46.3359 55.073 46.422 55.1234 46.5096Z" fill="#FDD51F"/>
<path d="M52.6387 42.5829C51.6892 41.9869 50.7396 41.3923 49.7887 40.7963C49.7484 40.4703 50.3167 40.5234 50.2001 40.2118C49.9987 39.6703 50.1109 38.9996 49.8347 38.5717C49.2477 37.6626 49.4592 36.617 49.1585 35.6576C48.8449 34.6609 48.8276 33.4962 48.5312 32.4535C48.1946 31.2672 48.514 29.9229 47.6608 28.8659C47.6119 28.8041 47.6321 28.6806 47.6349 28.5858C47.6493 27.8821 47.9399 27.1223 47.2263 26.5622C47.199 26.5407 47.2033 26.4703 47.2048 26.4243C47.2479 25.6072 46.9659 24.8474 46.8307 24.0647C46.5012 22.1589 45.9402 20.2818 45.9056 18.3285C45.9028 18.182 45.8999 17.9767 45.7704 17.9436C45.0381 17.7598 45.182 17.1954 45.1877 16.687C46.1847 16.3911 47.2062 16.3624 48.2349 16.4141C48.2377 17.4108 48.0579 18.4133 48.3586 19.3971C48.514 20.4871 48.8995 21.4939 49.4765 22.4303C49.5901 22.6615 49.7038 22.8928 49.8174 23.124C49.5283 23.2331 49.3124 23.3897 49.3585 23.7502C49.4232 24.2672 49.347 24.8488 49.5613 25.2912C50.0807 26.3669 50.0821 27.5604 50.2778 28.6677C50.5857 30.4055 51.0605 32.1045 51.3367 33.8452C51.3957 34.2171 51.4158 34.5877 51.518 34.9625C51.81 36.0339 52.1265 37.1225 52.2028 38.2212C52.2848 39.4205 52.4488 40.5881 52.843 41.7083C52.9897 42.1248 52.9365 42.3431 52.6387 42.5829Z" fill="#FCC432"/>
<path d="M52.6387 42.583C52.9365 42.3431 52.9883 42.1248 52.843 41.7083C52.4488 40.5896 52.2848 39.4205 52.2028 38.2213C52.128 37.1226 51.8115 36.034 51.518 34.9626C51.4158 34.5863 51.3957 34.2157 51.3367 33.8452C51.059 32.106 50.5843 30.4055 50.2778 28.6677C50.0822 27.559 50.0807 26.3669 49.5614 25.2912C49.347 24.8475 49.4232 24.2672 49.3585 23.7502C49.3125 23.3897 49.5283 23.2332 49.8174 23.124C49.9095 23.2289 50.0045 23.3323 50.0937 23.4414C50.6231 24.0949 51.059 24.8345 51.7928 25.3027L51.7942 25.2941C51.8431 25.3429 51.8935 25.3932 51.9424 25.442L51.9323 25.4449C51.9266 25.4909 51.9366 25.534 51.964 25.5727C52.2201 26.0768 52.8257 26.2334 53.102 26.7159C53.0128 27.3206 53.3566 27.8793 53.3581 28.4379C53.3609 30.282 53.9537 32.0112 54.2616 33.7949C54.4702 35.0013 54.6817 36.2163 54.9277 37.407C55.2845 39.1347 55.5276 40.8897 55.9678 42.6017C56.0585 42.9564 56.2095 43.3126 56.0441 43.7161C55.9333 43.9862 56.2124 44.1226 56.4167 44.2461C56.2182 44.6985 56.0067 45.1437 55.6254 45.5329C54.7435 44.4098 53.7206 43.4662 52.6387 42.583Z" fill="#FCBA3B"/>
<path d="M56.4166 44.2433C56.2123 44.1198 55.9332 43.9833 56.044 43.7133C56.2094 43.3098 56.0584 42.9536 55.9677 42.5989C55.5275 40.8869 55.2844 39.1319 54.9276 37.4041C54.6816 36.2135 54.4701 35 54.2615 33.7921C53.9536 32.0098 53.3594 30.2806 53.358 28.4351C53.358 27.8765 53.0127 27.3178 53.1019 26.7131C53.1479 26.716 53.1954 26.7189 53.2414 26.7218C54.3276 27.7386 55.5836 28.5227 56.8396 29.304C57.6697 30.0121 58.6336 30.5478 59.4177 31.3147C59.3961 35.4279 58.5631 39.376 56.9777 43.169C56.8223 43.5424 56.6842 43.9273 56.4166 44.2433Z" fill="#FAB043"/>
<path d="M45.1877 16.687C45.1834 17.1954 45.0381 17.7598 45.7704 17.9437C45.8999 17.9767 45.9028 18.1821 45.9056 18.3286C45.9402 20.2832 46.5013 22.1589 46.8307 24.0647C46.966 24.8475 47.2479 25.6072 47.2048 26.4244C47.2019 26.4718 47.199 26.5407 47.2264 26.5623C47.94 27.1224 47.6479 27.8821 47.635 28.5859C47.6335 28.6806 47.6119 28.8056 47.6608 28.8659C48.5154 29.923 48.1946 31.2672 48.5313 32.4535C48.8276 33.4962 48.8449 34.661 49.1585 35.6577C49.4592 36.617 49.2477 37.6626 49.8347 38.5717C50.1109 38.9983 49.9973 39.6704 50.2001 40.2118C50.3167 40.5235 49.7484 40.4689 49.7887 40.7964C49.4161 40.693 49.0578 40.5623 48.76 40.3023C48.0392 39.5957 48.0133 38.6923 48.0378 37.7746C48.0378 37.7516 48.0292 37.7243 48.0148 37.7071C47.2278 36.8152 47.7544 35.6304 47.3012 34.5863C46.9545 33.7863 46.9214 32.7365 46.6365 31.8058C46.2927 30.6784 46.3229 29.4591 46.0409 28.3216C45.7503 27.1511 45.8179 25.8959 45.2122 24.7972C45.1302 24.6478 45.205 24.4195 45.1849 24.2299C45.0827 23.2533 44.8511 22.2925 44.6813 21.3317C44.5691 20.704 44.4439 20.0477 44.2785 19.4273C44.0886 18.712 44.0483 17.7598 43.0297 17.5344C43.0283 17.4827 43.0268 17.431 43.0254 17.3807C43.6987 16.9972 44.4267 16.7919 45.1877 16.687Z" fill="#FECA2D"/>
<path d="M45.1849 39.0284C44.7072 38.3562 44.8022 37.5247 44.6641 36.7836C44.4612 35.6864 44.1476 34.615 43.9735 33.5249C43.821 32.5684 43.6771 31.6076 43.503 30.6525C43.0757 28.323 42.4931 26.0265 42.1248 23.6827C41.9492 22.5682 41.7075 21.4365 41.3781 20.3507C41.145 19.5852 41.2702 18.9088 41.4399 18.1964C41.732 17.948 42.0557 17.7555 42.4298 17.6521C42.2787 18.1691 42.9463 18.3802 42.8858 18.8599C42.7204 20.1827 43.2872 21.3934 43.6124 22.6027C44.1217 24.5042 44.2396 26.4603 44.7015 28.3675C45.0928 29.9804 45.3215 31.6435 45.674 33.2807C46.0322 34.9424 46.5128 36.607 46.5185 38.3376C46.5185 38.5114 46.6077 38.7842 46.7329 38.8417C47.1228 39.0212 47.0508 39.3242 47.0393 39.6273C46.4207 39.4276 45.8021 39.228 45.1849 39.0284Z" fill="#FDD51F"/>
<path d="M47.0379 39.6274C47.0494 39.3244 47.1213 39.0213 46.7314 38.8418C46.6063 38.7843 46.5185 38.5129 46.5171 38.3377C46.5113 36.6071 46.0308 34.9411 45.6726 33.2809C45.3201 31.6436 45.0913 29.9805 44.7 28.3676C44.2382 26.4604 44.1202 24.5043 43.6109 22.6028C43.2872 21.3935 42.7189 20.1828 42.8844 18.8601C42.9448 18.3804 42.2773 18.1692 42.4283 17.6522C42.4283 17.6522 42.4312 17.6666 42.4326 17.6666C42.4859 17.6307 42.5391 17.5948 42.5938 17.5589C42.6225 17.5258 42.6571 17.5129 42.7002 17.5187C42.811 17.5244 42.9218 17.5287 43.0311 17.5345C44.0497 17.7599 44.09 18.7136 44.2799 19.4274C44.4454 20.0478 44.5705 20.7056 44.6827 21.3317C44.854 22.2926 45.0856 23.2534 45.1863 24.23C45.2064 24.4196 45.1316 24.6493 45.2136 24.7973C45.8193 25.896 45.7517 27.1512 46.0423 28.3217C46.3257 29.4577 46.2941 30.6785 46.6379 31.8059C46.9214 32.7365 46.9544 33.7878 47.3026 34.5864C47.7558 35.6319 47.2278 36.8168 48.0162 37.7072C48.0306 37.723 48.0392 37.7517 48.0392 37.7747C48.0148 38.6924 48.0406 39.5972 48.7614 40.3024C48.1874 40.0784 47.6119 39.8529 47.0379 39.6274Z" fill="#FDD026"/>
<path d="M73.3573 25.0241C69.916 13.9783 62.3643 6.46417 51.5684 2.24607C49.7441 1.53372 47.8709 0.940571 45.9071 0.713653C43.6498 0.163591 41.3537 0.0142273 39.0388 -0.000134649C37.0434 -0.0116242 35.0666 0.142048 33.1042 0.501096C32.9604 0.703599 32.9546 0.880251 33.0064 1.04685C32.9546 0.880251 32.9604 0.703599 33.1042 0.501096C30.5189 0.87307 28.0242 1.56531 25.623 2.59363C26 2.75879 26.1841 2.90959 26.1036 3.4496C25.9827 4.2553 25.941 5.11127 26.21 5.92559C28.4961 5.24627 30.7577 4.47935 33.1114 4.04993C33.2064 4.037 33.2999 4.02551 33.3948 4.01259C33.5258 3.62769 33.7387 3.69662 33.9761 3.90918C35.2407 3.81008 36.5039 3.6837 37.7699 3.6162C40.5077 3.46971 43.2125 3.81008 45.91 4.22945C47.4048 4.65025 48.937 4.94898 50.3887 5.50766C63.0678 10.3921 70.8137 19.4416 73.1142 32.8499C74.5385 41.1525 72.7991 48.9539 68.4385 56.1665C67.3091 58.0349 65.938 59.721 64.5396 61.3885C64.5669 61.4186 64.5928 61.4488 64.6187 61.4818C64.695 61.4258 64.7813 61.3798 64.8446 61.3123C74.55 50.8224 77.6 38.6435 73.3573 25.0241ZM45.4971 1.55813C45.477 1.55813 45.4568 1.54664 45.4367 1.53946C45.4424 1.52223 45.4496 1.50356 45.4554 1.48632C45.4755 1.49351 45.4957 1.50069 45.5173 1.50787C45.5101 1.5251 45.5043 1.55813 45.4971 1.55813ZM46.7229 1.56101C46.5819 1.5768 46.5056 1.49494 46.5085 1.35563C46.5114 1.22637 46.5804 1.1201 46.7027 1.09281C46.8581 1.05834 46.8955 1.17611 46.9013 1.30393C46.8984 1.42888 46.8682 1.54521 46.7229 1.56101Z" fill="#8CB73E"/>
<path d="M63.2619 25.0414C63.1253 23.6971 62.7498 22.4232 62.1024 21.2341C61.6118 20.2216 61.0147 19.2852 60.163 18.5312C59.1559 17.3908 57.9345 16.5463 56.5533 15.923C56.5418 15.9992 56.5605 16.0925 56.4483 16.1112C56.4397 16.0293 56.4296 15.9475 56.421 15.8642C56.3433 15.844 56.2642 15.8254 56.185 15.8067C55.6585 15.2739 54.9017 15.2925 54.273 15.0082C52.794 14.3404 51.21 14.1134 49.6016 13.9009C51.1726 14.889 52.6084 16.0494 54.0946 17.1424C55.1262 18.1578 56.208 19.1243 57.0986 20.2733C57.1245 20.3925 57.2022 20.5318 56.9835 20.5504C56.3605 19.7878 55.6628 19.1056 54.8729 18.5154C54.1809 17.8892 53.4875 17.2673 52.6775 16.7905C51.5999 15.979 50.4691 15.2509 49.3038 14.573C49.0017 14.3978 48.8362 14.4366 48.7369 14.7813C48.5787 15.327 48.4032 15.8685 48.2348 16.4113C48.2377 17.4081 48.0579 18.4105 48.3586 19.3943C48.5139 20.4844 48.8995 21.4912 49.4764 22.4276C49.5901 22.6588 49.7037 22.89 49.8174 23.1212C49.9095 23.2261 50.0044 23.3295 50.0936 23.4386C50.6231 24.0921 51.059 24.8317 51.7927 25.2999L51.7941 25.2913C51.8431 25.3401 51.8934 25.3904 51.9423 25.4392L51.9323 25.4421C51.9984 25.4565 52.0646 25.4694 52.1308 25.4838C52.0747 25.5125 52.0186 25.5412 51.9639 25.5699C52.22 26.074 52.8257 26.2306 53.1019 26.7131C53.148 26.716 53.1954 26.7189 53.2415 26.7218C54.3277 27.7386 55.5837 28.5227 56.8396 29.304C57.6698 30.0121 58.6337 30.5478 59.4192 31.3147C60.4277 32.073 61.3514 32.9247 62.2721 33.9386C63.2519 30.9815 63.7842 28.0747 63.2619 25.0414Z" fill="#71A246"/>
<path d="M49.9167 11.7236C50.2318 11.4565 50.3627 11.1362 50.0649 10.7915C49.77 10.4497 49.4304 10.5244 49.1154 10.7886C48.9514 10.9265 48.7902 11.073 48.642 11.2267C47.4911 12.4202 46.989 13.875 46.8465 15.5022C46.8005 16.0351 46.9286 16.2232 47.4609 16.1083C47.9846 16.2505 48.1068 15.979 48.1112 15.5051C48.1155 15.1504 48.196 14.7927 48.2809 14.4452C48.5399 13.368 49.0636 12.446 49.9167 11.7236Z" fill="#71A246"/>
<path d="M12.3999 60.4607C12.4445 60.4162 12.4891 60.3717 12.5337 60.3271C13.0416 60.8758 13.6444 61.3468 13.9724 62.0463L13.9753 62.042C13.3638 61.6011 12.8775 61.0366 12.3999 60.4607Z" fill="#81B040"/>
<path d="M62.8751 63.1925C62.6895 63.5429 62.3989 63.7612 61.9802 63.833C62.186 63.5702 62.3269 63.2427 62.7384 63.1939L62.806 63.1838L62.8751 63.1925Z" fill="#DFE0E3"/>
<path d="M66.5048 65.5003C66.3696 65.4702 66.1739 65.4501 66.2718 65.2548C66.3897 65.0178 66.6084 65.0321 66.8213 65.1542C66.771 65.3194 66.6444 65.4156 66.5048 65.5003Z" fill="#FDD026"/>
<path d="M33.3948 4.01251C33.5257 3.62761 33.7386 3.69655 33.976 3.9091C33.7976 4.03405 33.5962 4.024 33.3948 4.01251Z" fill="#8CB73E"/>
<path d="M14.1264 62.0706C14.322 62.2142 14.5479 62.3319 14.5421 62.6264L14.5479 62.6177C14.3623 62.5172 14.2012 62.3923 14.122 62.1869C14.1192 62.1481 14.1206 62.1093 14.1264 62.0706Z" fill="#A5CC3C"/>
<path d="M63.3139 62.7659C63.193 62.9052 63.088 63.0675 62.865 63.0344L62.8765 63.0431C62.9974 62.9066 63.0966 62.7343 63.3239 62.7745L63.3139 62.7659Z" fill="#A5CC3C"/>
<path d="M64.6186 61.4832C64.5553 61.6139 64.4661 61.7159 64.3237 61.7619L64.282 61.7116C64.3021 61.5522 64.4215 61.4703 64.5395 61.3899C64.5668 61.4201 64.5942 61.4516 64.6186 61.4832Z" fill="#A5CC3C"/>
<path d="M61.1428 67.0371C61.1269 67.208 61.1413 67.422 60.8708 67.2238C60.9615 67.1621 61.0521 67.1003 61.1428 67.0371Z" fill="#FECA2D"/>
<path d="M15.1334 63.0386C14.9435 63.0343 14.8126 62.9726 14.85 62.7471L14.8428 62.7571C14.9363 62.8533 15.0312 62.9496 15.1248 63.0472C15.1233 63.0472 15.1334 63.0386 15.1334 63.0386Z" fill="#A5CC3C"/>
<path d="M56.5535 15.9244C56.542 16.0005 56.5607 16.0938 56.447 16.1125C56.4384 16.0306 56.4283 15.9488 56.4197 15.8655C56.4657 15.8856 56.5089 15.9043 56.5535 15.9244Z" fill="#71A246"/>
<path d="M61.6865 64.1073C61.7038 64.1001 61.7196 64.0943 61.7369 64.0872C61.7412 64.113 61.747 64.1389 61.7513 64.1647C61.7326 64.1618 61.711 64.1633 61.6966 64.1532C61.688 64.146 61.6894 64.1231 61.6865 64.1073Z" fill="#DFE0E3"/>
<path d="M43.0311 17.5328C42.9203 17.5271 42.811 17.5228 42.7002 17.517C42.7678 17.3748 42.8973 17.3763 43.0268 17.3792C43.0282 17.4309 43.0297 17.4826 43.0311 17.5328Z" fill="#FDD51F"/>
<path d="M14.5422 62.6266C14.6875 62.5677 14.7609 62.6697 14.8415 62.7573C14.8415 62.7573 14.8487 62.7472 14.8501 62.7472C14.7134 62.7874 14.6127 62.7472 14.5494 62.618L14.5422 62.6266Z" fill="#A5CC3C"/>
<path d="M14.1264 62.0707C14.1206 62.1095 14.1192 62.1468 14.1235 62.1856C14.0314 62.1813 13.9825 62.1339 13.9753 62.042L13.9724 62.0463C14.0228 62.0549 14.0746 62.0635 14.1264 62.0707Z" fill="#81B040"/>
<path d="M64.1797 61.9054C64.1294 61.9514 64.079 61.9973 64.0287 62.0419L64.0344 62.0476C63.9697 61.937 64.0431 61.8968 64.1308 61.8638C64.1323 61.8638 64.1797 61.9054 64.1797 61.9054Z" fill="#A5CC3C"/>
<path d="M15.4126 63.3389C15.4255 63.349 15.4399 63.3576 15.4529 63.3677C15.4414 63.3547 15.4313 63.3432 15.4198 63.3303L15.4126 63.3389Z" fill="#A5CC3C"/>
<path d="M15.4213 63.3316C15.3738 63.2827 15.3249 63.2339 15.2774 63.1865L15.2688 63.1951C15.3163 63.244 15.3652 63.2914 15.4127 63.3402C15.4127 63.3388 15.4213 63.3316 15.4213 63.3316Z" fill="#A5CC3C"/>
<path d="M64.3236 61.762C64.2762 61.8094 64.2287 61.8568 64.1798 61.9056C64.1798 61.9056 64.1309 61.8654 64.1309 61.864C64.1812 61.8137 64.2316 61.7634 64.2834 61.7132C64.2819 61.7117 64.3236 61.762 64.3236 61.762Z" fill="#A5CC3C"/>
<path d="M63.8936 62.1942C63.872 62.0808 63.9152 62.0262 64.0346 62.0477L64.0288 62.042C63.9799 62.0894 63.931 62.1353 63.8821 62.1827L63.8936 62.1942Z" fill="#A5CC3C"/>
<path d="M62.875 63.1924L62.8059 63.1838L62.7383 63.1939C62.7843 63.1436 62.8304 63.0948 62.8764 63.0445L62.8649 63.0359C62.8678 63.0876 62.8721 63.1393 62.875 63.1924Z" fill="#A5CC3C"/>
<path d="M15.2775 63.1851C15.1825 63.1808 15.135 63.1334 15.1322 63.0386L15.1235 63.0472C15.1725 63.096 15.2199 63.1463 15.2688 63.1951L15.2775 63.1851Z" fill="#A5CC3C"/>
<path d="M9.07221 15.9172C9.03049 15.9761 8.99021 16.0364 8.94849 16.0953C8.99021 16.0364 9.03193 15.9761 9.07221 15.9172Z" fill="#71A246"/>
<path d="M8.92412 16.1584C8.8752 16.2331 8.82772 16.3064 8.77881 16.3811C8.82629 16.3064 8.8752 16.2317 8.92412 16.1584Z" fill="#71A246"/>
<path d="M42.5923 17.5574C42.5391 17.5933 42.4858 17.6292 42.4312 17.6651C42.4858 17.6292 42.5391 17.5933 42.5923 17.5574Z" fill="#FDD51F"/>
<path d="M63.8836 62.1826C63.8361 62.23 63.7887 62.2788 63.7397 62.3262L63.7498 62.3377C63.7282 62.2214 63.7786 62.1754 63.8937 62.1941L63.8836 62.1826Z" fill="#A5CC3C"/>
<path d="M63.6058 62.4801C63.6087 62.3867 63.636 62.3192 63.7511 62.3379L63.741 62.3264C63.6936 62.3738 63.6461 62.4226 63.5972 62.47L63.6058 62.4801Z" fill="#A5CC3C"/>
<path d="M63.4649 62.6251C63.4477 62.5145 63.5124 62.4829 63.6059 62.48L63.5973 62.47C63.5498 62.5188 63.5038 62.5676 63.4563 62.6165C63.4563 62.615 63.4649 62.6251 63.4649 62.6251Z" fill="#A5CC3C"/>
<path d="M54.9723 46.2495C54.9334 46.1892 54.896 46.1289 54.8572 46.0671C54.955 46.0916 54.9881 46.1562 54.9723 46.2495Z" fill="#FDDC17"/>
<path d="M63.3238 62.7744C63.3123 62.6695 63.3612 62.6221 63.4633 62.6236L63.4547 62.6135C63.4072 62.6638 63.3597 62.7141 63.3123 62.7643C63.3137 62.7658 63.3238 62.7744 63.3238 62.7744Z" fill="#A5CC3C"/>
<path d="M51.9322 25.4448C51.9984 25.4592 52.0646 25.4721 52.1308 25.4865C52.0747 25.5152 52.0185 25.5439 51.9639 25.5726C51.9365 25.5324 51.9265 25.4908 51.9322 25.4448Z" fill="#81B040"/>
<path d="M51.7942 25.2942C51.8431 25.343 51.8935 25.3933 51.9424 25.4421C51.892 25.3919 51.8431 25.343 51.7942 25.2942Z" fill="#81B040"/>
<path d="M70.6339 57.3901C70.8511 57.6386 70.8511 57.6386 70.6497 57.9919C70.4368 57.7894 70.7231 57.5812 70.6252 57.4045C70.6267 57.4031 70.6339 57.3901 70.6339 57.3901Z" fill="#FDD026"/>
<path d="M26.1021 3.44826C26.1827 2.90968 25.9985 2.75745 25.6216 2.59229C22.9931 3.58757 20.5358 4.89881 18.2727 6.5691C18.2166 6.62655 18.1605 6.68256 18.1044 6.74001L18.0987 6.71846C17.8095 6.83623 17.5462 6.98847 17.3764 7.26565C17.3764 7.26422 17.3678 7.26709 17.3678 7.26709C16.6902 7.58449 16.1579 8.09721 15.604 8.57833C13.1122 10.7455 10.8534 13.1196 9.07088 15.9158C9.02915 15.9747 8.98887 16.035 8.94715 16.0939L8.9155 16.1169L8.92125 16.1557C8.87377 16.2275 8.8263 16.3007 8.77882 16.3725C8.77882 16.3697 8.77738 16.3682 8.77738 16.3654C8.05804 17.2328 7.5473 18.2281 7.03801 19.222C1.90332 29.2595 1.43719 39.5254 5.63816 49.9737C7.21209 53.8873 9.47946 57.3902 12.3971 60.4565C12.4417 60.4119 12.4863 60.3674 12.5309 60.3229C12.3899 60.1319 12.2547 59.9351 12.108 59.7484C5.50724 51.3481 3.1967 41.8793 5.09721 31.398C5.91151 26.907 7.72858 22.7952 10.1931 18.9634C10.5182 18.5225 10.8462 18.0816 11.1685 17.6378C13.105 14.9723 15.4457 12.7016 17.9994 10.6378C19.51 9.59228 21.0134 8.53238 22.6507 7.68646C23.8261 7.07895 25.0202 6.50591 26.2057 5.91851C25.9395 5.10993 25.9812 4.25396 26.1021 3.44826Z" fill="#79A842"/>
<path d="M77.6575 32.9563C77.2835 30.0811 76.6217 27.269 75.5369 24.5675C75.3527 23.9212 75.1182 23.2936 74.7931 22.7033C74.6089 22.2581 74.4233 21.8129 74.2392 21.3677C74.2939 21.8531 74.373 22.3213 74.6722 22.7005C74.8348 23.4444 75.1082 24.151 75.393 24.8547C76.0275 27.1598 76.5771 29.4836 76.8173 31.8662C77.6244 39.8673 76.1814 47.4202 72.2955 54.4906C71.7589 55.4686 71.0539 56.3476 70.6338 57.3902C70.8511 57.6387 70.8511 57.6387 70.6497 57.992C70.4367 57.7895 70.723 57.5813 70.6252 57.4046C70.2943 57.5511 70.1821 57.8685 70.0325 58.1572C70.0727 58.1643 70.1217 58.1687 70.172 58.1744C70.1217 58.1687 70.0727 58.1643 70.0325 58.1572C68.7722 59.793 67.4284 61.3584 66.03 62.8765C64.5726 64.2165 63.0908 65.5291 61.5298 66.7499C61.3643 66.7973 61.2306 66.8863 61.1414 67.0371C61.1255 67.208 61.1399 67.422 60.8694 67.2239C59.3113 68.2191 57.7345 69.1828 56.1088 70.0646C53.5983 71.2323 51.0216 72.2189 48.35 72.9499C48.2118 72.9456 48.0824 72.9657 47.986 73.0792C47.963 73.0519 47.9385 73.049 47.9112 73.0735C47.7385 73.1108 47.5673 73.1467 47.3947 73.184C47.2825 73.207 47.1702 73.2286 47.0595 73.2515C45.6165 73.4655 44.1835 73.7284 42.729 73.872C37.1598 74.4235 31.7331 73.7858 26.456 71.9432C21.3458 70.1594 16.8196 67.4077 12.8819 63.6822C9.05503 60.0616 6.09852 55.8478 4.0153 51.0164C1.38394 44.904 0.51353 38.5287 1.1854 31.9337C1.45731 29.2667 2.01121 26.6514 2.89744 24.1151C3.21683 23.2031 3.55636 22.2998 3.88726 21.3921C3.22978 22.4879 2.75932 23.6584 2.33203 24.8476C0.0502717 31.1912 -0.56261 37.7029 0.517846 44.3424C1.64434 51.2606 4.44547 57.4534 8.94281 62.8564C13.8315 68.7261 19.9085 72.848 27.1983 75.1818C32.4078 76.8506 37.7382 77.3246 43.1635 76.7918C44.5403 76.6568 45.9229 76.4902 47.2551 76.0751C47.6234 76.0033 48.0119 76.022 48.3543 75.8338C48.5226 75.8295 48.6938 75.8353 48.8276 75.7046C51.4259 75.11 53.9047 74.1937 56.2599 72.9456C56.4426 72.9155 56.6181 72.8724 56.7059 72.6828C58.5877 71.8742 60.2882 70.7669 61.9067 69.5275C62.052 69.4945 62.1599 69.4198 62.1988 69.2675L62.2218 69.2431C63.1584 68.7649 63.9022 68.031 64.6762 67.3459C65.3236 66.7729 66.0833 66.2989 66.5048 65.499C66.3696 65.4688 66.1739 65.4487 66.2717 65.2534C66.3897 65.0164 66.6084 65.0308 66.8213 65.1529C66.853 65.15 66.8731 65.1328 66.8817 65.104C68.5074 63.7396 69.785 62.0823 70.946 60.3258C73.6421 56.6449 75.4707 52.5531 76.6663 48.1742C78.0301 43.1734 78.3236 38.0893 77.6575 32.9563Z" fill="#FCC432"/>
<path d="M18.5776 40.3626C18.2366 39.3343 17.7158 38.3979 17.1231 37.496C16.5232 36.4016 15.7851 35.4006 15.0053 34.4283C14.9478 33.9041 14.5723 33.5378 14.3335 33.1055C13.722 31.9925 13.1221 30.8751 12.6301 29.5969C11.0835 31.4223 9.85483 33.2764 9.2103 35.4709C8.65641 36.8583 8.43629 38.2974 8.5557 39.7867C8.57584 40.8897 8.80315 41.9482 9.25778 42.9549C9.28943 43.0052 9.32108 43.0555 9.35273 43.1057C9.34842 43.1043 9.34554 43.1029 9.34122 43.1014C9.40309 43.2867 9.46639 43.4734 9.52825 43.6587C9.51243 43.8124 9.64191 43.8727 9.72391 43.9631C9.79153 44.0694 9.86059 44.1757 9.92821 44.282C9.93109 44.3911 9.96561 44.4802 10.0721 44.5276C10.1239 44.6152 10.1771 44.7042 10.2289 44.7918C10.2663 44.8995 10.308 45.0044 10.4533 44.99L10.4879 45.0231C10.4634 45.0345 10.4505 45.0547 10.449 45.0819C11.2216 46.4334 12.3711 47.4359 13.5609 48.3967C14.0055 48.7557 14.4759 49.086 14.9521 49.4049C15.4254 49.7208 15.8829 50.0713 16.5634 50.3327C14.9636 48.2172 13.7393 46.0686 12.7524 43.7822C12.6747 43.5495 12.5955 43.3183 12.5179 43.0856C12.479 43.0167 12.4402 42.9478 12.4028 42.8788C12.5322 42.6318 12.1812 42.481 12.2762 42.2412C12.3582 42.244 12.4402 42.2469 12.5222 42.2498C12.8977 43.4131 13.4113 44.5132 14.0702 45.543C14.8298 47.0625 15.8484 48.411 16.8656 49.7625C17.1778 50.1761 17.3403 49.9478 17.5677 49.7036C19.0107 48.1583 19.4005 46.2582 19.4365 44.236C19.4696 42.8774 19.1142 41.5992 18.5776 40.3626ZM11.7208 42.3173C11.6575 42.3316 11.5942 42.3446 11.5295 42.3532C11.5942 42.3446 11.6575 42.3316 11.7208 42.3173C11.8474 42.2886 11.9755 42.2526 12.1021 42.2282C12.1308 42.1837 12.1308 42.1234 12.1222 42.0602C12.1308 42.1234 12.1308 42.1837 12.1021 42.2282C11.9755 42.2526 11.8489 42.2886 11.7208 42.3173ZM12.7365 41.5805C12.6243 41.592 12.5049 41.6566 12.3927 41.6595C12.5035 41.6566 12.6243 41.592 12.7365 41.5805C12.7783 41.5762 12.82 41.5791 12.8574 41.5963C12.8185 41.5791 12.7783 41.5762 12.7365 41.5805Z" fill="#79A842"/>
<path d="M17.8541 50.9387C16.1463 51.2504 14.5221 51.1254 13.0618 50.0799C12.6791 49.8056 12.2892 49.7395 12.0043 50.1661C11.7267 50.5811 11.9151 50.9258 12.3007 51.1958C13.5135 52.0446 14.8616 52.4496 16.4859 52.4396C16.916 52.4654 17.4829 52.3721 18.0468 52.273C18.9 52.125 18.431 51.4673 18.4439 51.0666C18.4597 50.5984 18.0584 50.9014 17.8541 50.9387Z" fill="#79A842"/>
</g>
<path d="M114.389 54.0415L107.333 30.805H107.169C107.415 35.5353 107.538 38.6888 107.538 40.2656V54.0415H102V24.4149H110.451L117.384 47.0705H117.507L124.851 24.4149H133.302V54.0415H127.517V40.0166C127.517 39.3527 127.517 38.592 127.517 37.7344C127.545 36.8769 127.64 34.5809 127.805 30.8465H127.64L120.092 54.0415H114.389Z" fill="#F9D25D"/>
<path d="M154.444 54.0415L153.255 50.971H153.09C152.051 52.2711 150.985 53.184 149.891 53.7095C148.824 54.2075 147.415 54.4564 145.665 54.4564C143.504 54.4564 141.809 53.834 140.578 52.5892C139.347 51.3444 138.732 49.574 138.732 47.278C138.732 44.8714 139.566 43.101 141.234 41.9668C142.903 40.805 145.405 40.1687 148.742 40.0581L152.639 39.9336V38.9378C152.639 36.6418 151.477 35.4938 149.152 35.4938C147.347 35.4938 145.241 36.047 142.834 37.1535L140.824 32.9627C143.395 31.6072 146.253 30.9295 149.398 30.9295C152.407 30.9295 154.704 31.5934 156.29 32.9212C157.904 34.249 158.711 36.2545 158.711 38.9378V54.0415H154.444ZM152.639 43.5436L150.26 43.6266C148.482 43.6819 147.156 44.0138 146.28 44.6224C145.433 45.2033 145.009 46.1023 145.009 47.3195C145.009 49.0622 145.993 49.9336 147.962 49.9336C149.385 49.9336 150.52 49.5187 151.367 48.6888C152.215 47.8589 152.639 46.7663 152.639 45.4108V43.5436Z" fill="#F9D25D"/>
<path d="M185.644 54.0415H179.531V40.805C179.531 39.1729 179.244 37.9557 178.67 37.1535C178.096 36.3237 177.179 35.9087 175.921 35.9087C174.226 35.9087 172.995 36.4896 172.229 37.6515C171.463 38.7856 171.08 40.6943 171.08 43.3776V54.0415H164.968V31.3859H169.645L170.465 34.2905H170.793C171.477 33.184 172.421 32.3541 173.624 31.8008C174.827 31.2476 176.181 30.971 177.685 30.971C180.284 30.971 182.253 31.6902 183.593 33.1286C184.96 34.5394 185.644 36.5864 185.644 39.2697V54.0415Z" fill="#F9D25D"/>
<path d="M211.417 31.3859V34.5394L207.93 35.4523C208.559 36.4481 208.873 37.5823 208.873 38.8548C208.873 41.2891 208.039 43.184 206.371 44.5394C204.703 45.8949 202.378 46.5726 199.397 46.5726L198.289 46.4896L197.386 46.4066C196.757 46.8769 196.443 47.4163 196.443 48.0249C196.443 48.9101 197.564 49.3527 199.807 49.3527H203.622C206.084 49.3527 207.957 49.8921 209.243 50.971C210.528 52.0221 211.171 53.5851 211.171 55.6597C211.171 58.3154 210.077 60.3624 207.889 61.8008C205.701 63.2669 202.569 64 198.494 64C195.376 64 192.983 63.4468 191.315 62.3402C189.674 61.2614 188.853 59.7261 188.853 57.7344C188.853 56.379 189.264 55.231 190.084 54.2905C190.932 53.3776 192.176 52.7275 193.817 52.3402C193.188 52.0636 192.641 51.621 192.176 51.0124C191.711 50.4039 191.479 49.7538 191.479 49.0622C191.479 48.2047 191.725 47.4855 192.217 46.9046C192.71 46.3237 193.421 45.7566 194.351 45.2033C193.175 44.7054 192.245 43.8893 191.561 42.7552C190.877 41.621 190.535 40.2794 190.535 38.7303C190.535 36.2683 191.329 34.3596 192.915 33.0041C194.501 31.6487 196.771 30.971 199.725 30.971C200.354 30.971 201.092 31.0263 201.94 31.1369C202.815 31.2476 203.376 31.3306 203.622 31.3859H211.417ZM194.146 57.2365C194.146 58.0941 194.542 58.7579 195.335 59.2282C196.156 59.7261 197.291 59.9751 198.74 59.9751C200.928 59.9751 202.638 59.6708 203.868 59.0622C205.126 58.4537 205.756 57.6238 205.756 56.5726C205.756 55.7151 205.386 55.1203 204.648 54.7884C203.909 54.4841 202.774 54.3319 201.243 54.3319H198.084C196.963 54.3319 196.019 54.5947 195.253 55.1203C194.515 55.6459 194.146 56.3513 194.146 57.2365ZM196.361 38.8133C196.361 40.0304 196.634 40.9986 197.181 41.7178C197.756 42.4371 198.604 42.7967 199.725 42.7967C200.874 42.7967 201.708 42.4371 202.227 41.7178C202.774 40.9986 203.048 40.0304 203.048 38.8133C203.048 36.0747 201.94 34.7054 199.725 34.7054C197.482 34.7054 196.361 36.0747 196.361 38.8133Z" fill="#F9D25D"/>
<path d="M220.009 42.6722C220.009 44.9129 220.364 46.6141 221.075 47.7759C221.814 48.9101 223.004 49.4772 224.644 49.4772C226.285 49.4772 227.462 48.9101 228.173 47.7759C228.884 46.6418 229.239 44.9405 229.239 42.6722C229.239 40.4315 228.87 38.758 228.132 37.6515C227.42 36.5173 226.244 35.9502 224.603 35.9502C222.99 35.9502 221.814 36.5173 221.075 37.6515C220.364 38.758 220.009 40.4315 220.009 42.6722ZM235.475 42.6722C235.475 46.3513 234.518 49.242 232.603 51.3444C230.689 53.4191 228.009 54.4564 224.562 54.4564C222.402 54.4564 220.501 53.9862 218.86 53.0456C217.219 52.0775 215.961 50.7082 215.086 48.9378C214.211 47.1397 213.773 45.0512 213.773 42.6722C213.773 38.9654 214.73 36.0885 216.645 34.0415C218.559 31.9945 221.239 30.971 224.686 30.971C226.846 30.971 228.747 31.4412 230.388 32.3817C232.029 33.3223 233.287 34.6777 234.162 36.4481C235.037 38.2185 235.475 40.2932 235.475 42.6722Z" fill="#F9D25D"/>
<path d="M270.069 45.8257C270.069 48.4813 269.112 50.5837 267.197 52.1328C265.31 53.6819 262.671 54.4564 259.28 54.4564C256.162 54.4564 253.399 53.8617 250.993 52.6722V46.8216C252.962 47.7068 254.63 48.343 255.998 48.7303C257.365 49.0899 258.623 49.2697 259.772 49.2697C261.139 49.2697 262.179 49.0069 262.89 48.4813C263.628 47.9557 263.997 47.1674 263.997 46.1162C263.997 45.5353 263.833 45.0235 263.505 44.5809C263.177 44.1106 262.698 43.668 262.069 43.2531C261.468 42.8382 260.209 42.1743 258.295 41.2614C256.517 40.4039 255.177 39.5878 254.275 38.8133C253.372 38.0111 252.647 37.0982 252.1 36.0747C251.581 35.0235 251.321 33.8064 251.321 32.4232C251.321 29.7953 252.196 27.7344 253.946 26.2407C255.724 24.7469 258.158 24 261.249 24C262.78 24 264.23 24.1798 265.597 24.5394C266.992 24.899 268.442 25.4108 269.946 26.0747L267.936 30.971C266.377 30.3071 265.078 29.8506 264.038 29.6017C263.026 29.3527 262.028 29.2282 261.044 29.2282C259.868 29.2282 258.965 29.5048 258.336 30.0581C257.707 30.6113 257.392 31.3306 257.392 32.2158C257.392 32.769 257.515 33.2531 257.762 33.668C258.035 34.083 258.445 34.4841 258.992 34.8714C259.539 35.2586 260.852 35.9502 262.931 36.9461C265.666 38.2739 267.539 39.6017 268.551 40.9295C269.563 42.2573 270.069 43.8893 270.069 45.8257Z" fill="#F9D25D"/>
<path d="M284.337 49.5187C285.403 49.5187 286.689 49.2835 288.193 48.8133V53.4191C286.661 54.1106 284.788 54.4564 282.573 54.4564C280.138 54.4564 278.361 53.834 277.239 52.5892C276.118 51.3167 275.557 49.4357 275.557 46.9461V36.0332H272.645V33.4191L276.009 31.3444L277.773 26.5726H281.67V31.3859H287.947V36.0332H281.67V46.9461C281.67 47.8313 281.916 48.4813 282.408 48.8963C282.901 49.3112 283.544 49.5187 284.337 49.5187Z" fill="#F9D25D"/>
<path d="M297.571 42.6722C297.571 44.9129 297.926 46.6141 298.638 47.7759C299.376 48.9101 300.566 49.4772 302.207 49.4772C303.848 49.4772 305.024 48.9101 305.735 47.7759C306.446 46.6418 306.801 44.9405 306.801 42.6722C306.801 40.4315 306.432 38.758 305.694 37.6515C304.983 36.5173 303.807 35.9502 302.166 35.9502C300.552 35.9502 299.376 36.5173 298.638 37.6515C297.926 38.758 297.571 40.4315 297.571 42.6722ZM313.037 42.6722C313.037 46.3513 312.08 49.242 310.166 51.3444C308.251 53.4191 305.571 54.4564 302.125 54.4564C299.964 54.4564 298.063 53.9862 296.422 53.0456C294.781 52.0775 293.523 50.7082 292.648 48.9378C291.773 47.1397 291.335 45.0512 291.335 42.6722C291.335 38.9654 292.292 36.0885 294.207 34.0415C296.121 31.9945 298.802 30.971 302.248 30.971C304.408 30.971 306.309 31.4412 307.95 32.3817C309.591 33.3223 310.849 34.6777 311.724 36.4481C312.6 38.2185 313.037 40.2932 313.037 42.6722Z" fill="#F9D25D"/>
<path d="M330.602 30.971C331.422 30.971 332.106 31.0263 332.653 31.1369L332.202 36.9461C331.709 36.8077 331.108 36.7386 330.396 36.7386C328.455 36.7386 326.937 37.2503 325.843 38.2739C324.749 39.2697 324.202 40.6805 324.202 42.5062V54.0415H318.089V31.3859H322.725L323.627 35.2033H323.915C324.626 33.9308 325.569 32.9073 326.745 32.1328C327.921 31.3582 329.207 30.971 330.602 30.971Z" fill="#F9D25D"/>
<path d="M345.99 35.3693C344.705 35.3693 343.693 35.7842 342.954 36.6141C342.216 37.444 341.792 38.6196 341.682 40.1411H350.257C350.229 38.6196 349.833 37.444 349.067 36.6141C348.328 35.7842 347.303 35.3693 345.99 35.3693ZM346.851 54.4564C343.241 54.4564 340.424 53.4467 338.4 51.4274C336.377 49.408 335.365 46.5588 335.365 42.8797C335.365 39.0899 336.294 36.1577 338.154 34.083C340.041 32.0083 342.64 30.971 345.949 30.971C349.122 30.971 351.583 31.8838 353.333 33.7095C355.111 35.5353 356 38.0526 356 41.2614V44.249H341.559C341.614 46.0194 342.12 47.4025 343.077 48.3983C344.062 49.3665 345.416 49.8506 347.139 49.8506C348.479 49.8506 349.751 49.7123 350.954 49.4357C352.157 49.1314 353.415 48.675 354.728 48.0664V52.8382C353.662 53.3914 352.513 53.7925 351.282 54.0415C350.079 54.3181 348.602 54.4564 346.851 54.4564Z" fill="#F9D25D"/>
<defs>
<clipPath id="clip0_1_18308">
<rect width="78" height="77" fill="white"/>
</clipPath>
</defs>
</svg>
