<svg width="22" height="22" viewBox="0 0 22 22" fill="none" xmlns="http://www.w3.org/2000/svg">
<g clip-path="url(#clip0_1_18279)">
<path d="M11.0088 22C4.9432 22.0057 0.0103899 17.0846 -0.000227051 11.0167C-0.010844 4.93823 4.92687 -0.00411189 11.0063 -2.79885e-05C17.076 0.00405592 21.9981 4.92843 21.9998 10.9979C22.0014 17.0658 17.0776 21.9943 11.0088 22ZM16.6276 8.35074C16.6211 7.87374 16.4406 7.48169 16.0486 7.1999C15.4565 6.77354 14.7459 6.84296 14.1955 7.39103C12.8324 8.74852 11.4718 10.1076 10.1194 11.4749C9.94869 11.6481 9.85723 11.6783 9.67265 11.4855C9.0536 10.8395 8.41332 10.2122 7.77711 9.58163C7.1646 8.97395 6.30299 8.95598 5.73457 9.53426C5.17432 10.1044 5.19311 10.9538 5.79011 11.5558C6.80852 12.5809 7.82938 13.6035 8.85515 14.6212C9.46685 15.228 10.2852 15.2517 10.8969 14.6465C12.6691 12.8929 14.4266 11.1245 16.1874 9.35947C16.4643 9.08258 16.63 8.7526 16.6276 8.35074Z" fill="#FF0D51"/>
</g>
<defs>
<clipPath id="clip0_1_18279">
<rect width="22" height="22" fill="white"/>
</clipPath>
</defs>
</svg>
