<svg width="299" height="298" viewBox="0 0 299 298" fill="none" xmlns="http://www.w3.org/2000/svg">
<g clip-path="url(#clip0_1197_173)">
<path d="M289.544 137.284C289.667 139.263 291.359 140.764 293.337 140.641C295.315 140.519 296.816 138.826 296.693 136.848C296.571 134.869 294.879 133.368 292.9 133.491C290.922 133.613 289.421 135.306 289.544 137.284Z" fill="#F7EDE1"/>
<path d="M260.485 62.051C260.526 62.7197 260.744 63.3748 261.167 63.9479C262.34 65.5446 264.578 65.8994 266.174 64.7258C267.198 63.9752 267.702 62.7879 267.634 61.6143C267.593 60.9457 267.375 60.2906 266.952 59.7175C265.779 58.1208 263.541 57.766 261.945 58.9396C260.922 59.6902 260.403 60.8774 260.485 62.051Z" fill="#F7EDE1"/>
<path d="M195.595 12.9642C195.404 13.4555 195.336 13.9741 195.363 14.4654C195.445 15.83 196.305 17.0719 197.655 17.5904C199.511 18.3 201.571 17.3857 202.294 15.5298C202.485 15.0385 202.553 14.5199 202.526 14.0287C202.444 12.6777 201.585 11.4222 200.234 10.9036C198.392 10.194 196.318 11.122 195.595 12.9642Z" fill="#F7EDE1"/>
<path d="M119.178 12.9506C120.951 12.5822 122.138 10.9855 122.029 9.22512C122.016 9.06136 122.002 8.88396 121.961 8.70655C121.565 6.76874 119.669 5.51325 117.732 5.92265C115.958 6.29111 114.771 7.88776 114.88 9.64816C114.894 9.81192 114.907 9.98933 114.948 10.1667C115.344 12.1045 117.227 13.36 119.178 12.9506Z" fill="#F7EDE1"/>
<path d="M51.7094 48.7047C51.6548 47.8722 51.3273 47.0534 50.6997 46.412C49.3081 44.9928 47.0432 44.9655 45.6243 46.3575C44.8466 47.1217 44.4919 48.1315 44.5465 49.1413C44.601 49.9738 44.9285 50.7926 45.5561 51.434C46.9477 52.8532 49.2126 52.8805 50.6315 51.4886C51.4092 50.7243 51.7776 49.7009 51.7094 48.7047Z" fill="#F7EDE1"/>
<path d="M13.8081 120.963C13.89 120.622 13.9172 120.281 13.89 119.94C13.7945 118.398 12.703 117.033 11.1067 116.664C9.18291 116.214 7.25916 117.429 6.82256 119.353C6.7407 119.694 6.71341 120.035 6.7407 120.376C6.83621 121.918 7.9277 123.283 9.524 123.651C11.4478 124.088 13.3715 122.887 13.8081 120.963Z" fill="#F7EDE1"/>
<path d="M20.5876 200.318C20.574 199.99 20.5058 199.649 20.383 199.322C19.7144 197.452 17.6542 196.497 15.7987 197.166C14.2706 197.711 13.3429 199.199 13.4384 200.755C13.452 201.096 13.5202 201.423 13.643 201.751C14.3116 203.62 16.3717 204.576 18.2273 203.907C19.7554 203.361 20.6831 201.874 20.5876 200.318Z" fill="#F7EDE1"/>
<path d="M69.6636 264.32C69.609 263.324 69.1178 262.342 68.2583 261.687C66.6893 260.486 64.4381 260.786 63.2374 262.355C62.6917 263.065 62.4598 263.925 62.5007 264.757C62.5553 265.753 63.0464 266.736 63.906 267.391C65.475 268.592 67.7262 268.305 68.9268 266.722C69.4726 265.999 69.7045 265.153 69.6636 264.32Z" fill="#F7EDE1"/>
<path d="M145.536 291.613C145.427 289.867 144.049 288.407 142.248 288.256C140.27 288.093 138.537 289.553 138.374 291.532C138.36 291.709 138.36 291.873 138.374 292.05C138.483 293.797 139.861 295.257 141.662 295.407C143.64 295.571 145.373 294.111 145.536 292.132C145.55 291.955 145.55 291.777 145.536 291.613Z" fill="#F7EDE1"/>
<path d="M216.975 273.982C217.003 274.473 217.139 274.978 217.385 275.442C218.312 277.189 220.482 277.858 222.228 276.93C223.511 276.247 224.206 274.91 224.125 273.545C224.097 273.054 223.961 272.549 223.715 272.085C222.787 270.338 220.618 269.67 218.872 270.598C217.589 271.28 216.893 272.631 216.975 273.982Z" fill="#F7EDE1"/>
<path d="M273.774 214.319C273.419 214.947 273.282 215.629 273.323 216.284C273.392 217.458 274.047 218.577 275.152 219.205C276.884 220.174 279.067 219.559 280.036 217.826C280.391 217.199 280.527 216.516 280.486 215.861C280.418 214.688 279.763 213.569 278.658 212.941C276.925 211.986 274.742 212.6 273.774 214.319Z" fill="#F7EDE1"/>
<path d="M289.477 161.316C289.463 161.466 289.463 161.616 289.477 161.766C289.586 163.541 290.991 165.001 292.82 165.124C294.798 165.246 296.504 163.759 296.626 161.78C296.64 161.63 296.64 161.48 296.626 161.33C296.517 159.556 295.112 158.096 293.284 157.973C291.319 157.836 289.613 159.337 289.477 161.316Z" fill="#F7EDE1"/>
<path d="M273.663 82.6709C273.69 83.1895 273.84 83.7081 274.113 84.1857C275.068 85.9188 277.251 86.5466 278.984 85.5913C280.239 84.8953 280.908 83.5716 280.826 82.2342C280.799 81.7157 280.649 81.1971 280.376 80.7195C279.421 78.9864 277.238 78.3586 275.505 79.3139C274.25 80.0098 273.581 81.3336 273.663 82.6709Z" fill="#F7EDE1"/>
<path d="M218.026 22.7762C217.698 23.3903 217.562 24.0453 217.603 24.6867C217.671 25.8876 218.353 27.0203 219.486 27.6343C221.232 28.576 223.401 27.9209 224.343 26.1742C224.67 25.5601 224.807 24.905 224.766 24.2636C224.697 23.0627 224.015 21.9301 222.883 21.316C221.136 20.388 218.967 21.0294 218.026 22.7762Z" fill="#F7EDE1"/>
<path d="M142.399 2.44265C140.448 2.59276 138.974 4.28494 139.097 6.23639C139.097 6.26369 139.097 6.27733 139.097 6.30463C139.247 8.28338 140.98 9.75721 142.944 9.60709C144.896 9.45698 146.369 7.76481 146.246 5.81335C146.246 5.78606 146.246 5.77241 146.246 5.74512C146.096 3.76637 144.377 2.29254 142.399 2.44265Z" fill="#F7EDE1"/>
<path d="M68.8322 35.795C69.8282 35.0444 70.3194 33.8708 70.2512 32.7245C70.2103 32.0422 69.9783 31.3599 69.5281 30.7731C68.3274 29.1901 66.0899 28.8898 64.5072 30.0771C63.5112 30.8276 63.0201 32.0012 63.0883 33.1476C63.1292 33.8299 63.3612 34.5122 63.8114 35.099C65.012 36.682 67.2496 36.9959 68.8322 35.795Z" fill="#F7EDE1"/>
<path d="M20.6301 97.914C20.8075 97.4364 20.8757 96.9451 20.8484 96.4675C20.7665 95.0892 19.8797 93.8201 18.5017 93.3151C16.6462 92.6328 14.586 93.5881 13.9038 95.444C13.7264 95.9216 13.6582 96.4129 13.6855 96.8905C13.7674 98.2688 14.6542 99.538 16.0322 100.043C17.9014 100.739 19.9616 99.7836 20.6301 97.914Z" fill="#F7EDE1"/>
<path d="M13.752 176.819C13.7384 176.628 13.7111 176.437 13.6702 176.245C13.2336 174.308 11.3235 173.093 9.38607 173.53C7.63969 173.926 6.47998 175.509 6.58913 177.242C6.60277 177.433 6.63006 177.624 6.67099 177.815C7.10759 179.753 9.01769 180.967 10.9551 180.53C12.7015 180.135 13.8612 178.552 13.752 176.819Z" fill="#F7EDE1"/>
<path d="M51.2046 248.245C51.1501 247.398 50.7953 246.552 50.1404 245.911C48.7351 244.519 46.4567 244.533 45.065 245.938C44.3146 246.689 43.9735 247.699 44.0417 248.681C44.0963 249.527 44.451 250.373 45.1059 251.015C46.5112 252.407 48.7897 252.393 50.1814 250.987C50.9181 250.223 51.2729 249.227 51.2046 248.245Z" fill="#F7EDE1"/>
<path d="M121.252 289.034C121.32 288.707 121.347 288.393 121.32 288.079C121.224 286.51 120.092 285.131 118.482 284.79C116.545 284.381 114.648 285.623 114.239 287.56C114.171 287.888 114.143 288.202 114.171 288.516C114.266 290.085 115.399 291.463 117.008 291.805C118.946 292.214 120.842 290.972 121.252 289.034Z" fill="#F7EDE1"/>
<path d="M201.612 282.607C200.902 280.751 198.842 279.823 196.987 280.532C195.486 281.106 194.585 282.579 194.681 284.094C194.708 284.449 194.776 284.804 194.913 285.159C195.622 287.014 197.682 287.942 199.538 287.233C201.039 286.66 201.939 285.186 201.844 283.671C201.816 283.316 201.748 282.961 201.612 282.607Z" fill="#F7EDE1"/>
<path d="M260.034 236.85C260.102 237.873 260.594 238.856 261.48 239.525C263.077 240.698 265.314 240.371 266.488 238.774C267.006 238.064 267.238 237.232 267.183 236.427C267.115 235.403 266.624 234.421 265.737 233.752C264.141 232.578 261.903 232.906 260.716 234.503C260.211 235.212 259.993 236.045 260.034 236.85Z" fill="#F7EDE1"/>
<path d="M133.161 289.607C133.216 288.597 133.188 287.533 133.134 286.51C132.997 284.176 132.643 282.02 132.411 280.778C132.451 280.587 132.479 280.41 132.506 280.205C132.629 279.304 132.97 278.294 133.229 277.189C133.488 276.084 133.911 274.937 134.293 273.777C134.921 271.962 135.658 270.284 136.354 268.824C143.285 261.714 147.528 255.3 147.528 255.3C144.294 263.351 143.189 270.038 143.516 275.374C144.267 287.738 152.603 292.937 159.575 291.136C165.251 289.676 167.638 283.412 167.297 277.871C167.038 273.682 165.237 269.902 162.126 268.933C154.909 266.695 151.989 272.999 151.989 272.999C151.921 272.358 151.866 271.73 151.825 271.103C151.089 258.793 156.028 248.668 163.436 240.78C173.219 246.593 181.05 255.532 183.356 268.578C183.356 268.578 178.799 263.324 172.496 267.486C170.326 268.905 169.453 271.812 169.644 275.005C170.012 281.133 174.324 288.311 181.091 288.106C187.449 287.929 193.316 282.211 192.743 272.535C192.374 266.531 189.523 258.998 182.742 250.319C182.742 250.319 188.609 255.313 197.231 260.226C198.309 261.441 199.483 262.846 200.588 264.416C201.284 265.412 202.007 266.394 202.552 267.391C203.112 268.387 203.726 269.26 204.094 270.093C204.19 270.284 204.272 270.434 204.353 270.611C204.531 272.413 204.995 276.165 206.072 279.304C207.491 283.439 209.975 284.722 211.83 284.217C212.785 283.589 213.399 282.388 213.304 280.723C213.235 279.577 212.826 278.199 211.926 276.657C210.275 273.777 207.764 270.952 206.523 269.642C206.441 269.465 206.386 269.301 206.304 269.11C205.909 268.291 205.663 267.254 205.281 266.176C204.899 265.098 204.64 263.911 204.34 262.737C203.903 260.936 203.589 259.121 203.385 257.538C205.39 247.753 205.486 240.016 205.486 240.016C210.861 268.25 227.984 271.212 234.997 263.665C236.893 261.618 237.576 259.066 237.412 256.473C236.989 249.473 230.454 242.131 225.146 243.605C218.788 245.365 218.706 250.837 218.788 252.202C218.802 252.393 218.816 252.516 218.816 252.516C213.276 245.624 210.739 238.078 210.275 230.49C210.043 226.71 210.329 222.93 211.025 219.218C222.39 218.823 233.824 222.098 242.815 231.828C242.815 231.828 236.143 229.876 233.087 236.781C232.718 237.6 232.582 238.501 232.637 239.415C233.046 246.211 243.974 254.604 251.465 249.473C254.657 247.289 256.595 243.468 256.336 239.047C255.899 231.705 249.364 222.712 232.432 216.789C232.432 216.789 240.072 217.826 250.005 217.294C251.56 217.731 253.307 218.277 255.067 219C256.185 219.464 257.332 219.901 258.328 220.446C259.337 220.979 260.32 221.388 261.084 221.893C261.261 222.002 261.411 222.098 261.588 222.193C262.707 223.613 265.122 226.519 267.728 228.566C271.166 231.268 273.936 231.023 275.218 229.59C275.409 229.153 275.505 228.675 275.464 228.157C275.368 226.574 274.127 224.704 271.207 223.176C268.26 221.647 264.617 220.638 262.871 220.201C262.707 220.092 262.571 219.996 262.393 219.873C261.616 219.396 260.838 218.659 259.951 217.963C259.051 217.267 258.177 216.407 257.291 215.575C255.899 214.251 254.685 212.873 253.634 211.631C250.046 202.378 245.966 195.842 245.966 195.842C265.75 216.68 281.767 209.925 283.568 199.772C283.705 199.049 283.732 198.339 283.691 197.643C283.145 188.691 269.106 183 264.44 188.227C262.475 190.424 261.97 192.567 262.08 194.368C262.243 197.179 263.935 199.144 263.935 199.144C251.369 194.941 243.688 185.866 239.377 175.345C248.722 168.862 260.115 165.437 272.94 168.767C272.94 168.767 266.909 170.541 267.319 177.132C267.332 177.473 267.373 177.828 267.428 178.197C268.588 185.661 285.751 188.432 289.762 178.934C290.417 177.378 290.704 175.686 290.608 173.98C290.09 165.287 279.448 156.158 256.09 161.739C256.09 161.739 263.103 158.477 271.193 152.623C272.708 152.159 274.495 151.695 276.323 151.354C277.524 151.136 278.711 150.89 279.844 150.808C280.976 150.713 282.027 150.522 282.941 150.535C283.159 150.535 283.323 150.522 283.527 150.522C285.233 151.108 288.835 152.241 292.136 152.568C296.489 152.992 298.685 151.272 298.986 149.375C298.685 147.478 296.502 145.745 292.15 146.141C288.848 146.441 285.233 147.56 283.527 148.147C283.336 148.147 283.159 148.133 282.941 148.133C282.027 148.147 280.976 147.956 279.844 147.847C278.711 147.751 277.51 147.492 276.323 147.274C274.495 146.919 272.694 146.441 271.18 145.977C263.13 140.109 256.145 136.793 256.145 136.793C280.73 142.811 291.277 132.399 290.731 123.324C290.663 122.096 290.376 120.895 289.913 119.762C285.956 110.25 268.765 112.925 267.578 120.39C267.441 121.222 267.414 121.987 267.455 122.683C267.796 128.264 273.049 129.833 273.049 129.833C260.21 133.095 248.845 129.615 239.527 123.078C243.879 112.57 251.615 103.536 264.208 99.4015C264.208 99.4015 262.134 101.803 262.325 105.106C262.421 106.689 263.035 108.476 264.658 110.319C269.502 115.791 284.537 109.473 283.964 99.8791C283.95 99.5516 283.909 99.2104 283.841 98.8693C282.081 88.7162 266.118 81.8656 246.212 102.608C246.212 102.608 250.319 96.099 253.948 86.8603C254.999 85.6185 256.226 84.2538 257.618 82.9437C258.505 82.1113 259.378 81.2652 260.292 80.5692C261.193 79.8733 261.97 79.15 262.748 78.6587C262.925 78.5359 263.062 78.4404 263.226 78.3312C264.986 77.9081 268.628 76.9119 271.576 75.3972C274.768 73.7596 275.955 71.699 275.86 70.0341C275.832 69.6656 275.75 69.3245 275.614 69.0106C274.345 67.564 271.562 67.3048 268.124 69.9931C265.504 72.0401 263.076 74.9332 261.957 76.3388C261.793 76.4343 261.643 76.5298 261.452 76.639C260.688 77.1439 259.706 77.5397 258.696 78.0719C257.686 78.6041 256.554 79.0408 255.421 79.4911C253.648 80.2008 251.901 80.733 250.346 81.1697C240.413 80.5829 232.773 81.5927 232.773 81.5927C251.042 75.3153 257.25 65.4079 256.786 57.8068C256.568 54.0949 254.753 50.9289 251.97 49.0184C244.22 43.6553 232.664 52.8667 233.087 59.7719C233.128 60.4132 233.264 61.041 233.523 61.6278C236.552 68.5466 243.224 66.6224 243.224 66.6224C234.178 76.3115 222.745 79.5321 211.38 79.0681C211.039 77.1576 210.793 75.2334 210.684 73.2956C210.111 63.8931 212.417 54.3405 219.334 45.7978C219.334 45.7978 219.252 46.3436 219.307 47.1761C219.43 49.2913 220.398 53.2488 225.624 54.7363C231.3 56.3329 238.408 47.8857 237.958 40.4893C237.835 38.4013 237.098 36.3953 235.57 34.7304C228.598 27.1429 211.462 30.0223 205.95 58.2298C205.95 58.2298 205.936 57.1108 205.827 55.1866C205.636 52.0615 205.158 46.8076 203.958 40.7758C204.176 39.1655 204.463 37.3642 204.926 35.5219C205.227 34.3483 205.499 33.1611 205.895 32.083C206.277 31.0049 206.536 29.9814 206.932 29.149C207.014 28.9579 207.082 28.7942 207.164 28.6168C208.406 27.3067 210.943 24.4955 212.608 21.6297C213.686 19.7601 214.081 18.1498 213.999 16.8671C213.918 15.557 213.358 14.6017 212.54 14.0559C210.684 13.5373 208.201 14.8064 206.768 18.9277C205.677 22.0528 205.186 25.8056 205.008 27.6069C204.926 27.7843 204.845 27.9344 204.749 28.1255C204.381 28.9579 203.767 29.8313 203.194 30.8138C202.634 31.81 201.911 32.779 201.215 33.7888C200.11 35.3582 198.923 36.7501 197.832 37.9646C189.182 42.8365 183.301 47.7902 183.301 47.7902C191.16 37.8282 193.807 29.3673 193.425 22.9944C192.934 14.9292 187.599 10.1939 181.841 10.0028C174.433 9.7572 169.931 18.3409 170.313 24.7411C170.463 27.2384 171.363 29.4083 173.137 30.5955C179.426 34.785 184.011 29.5584 184.011 29.5584C181.637 42.5908 173.764 51.4884 163.941 57.2609C157.583 50.424 153.081 41.9494 152.467 31.851C152.33 29.6402 152.385 27.3476 152.658 24.9731C152.658 24.9731 155.55 31.2915 162.768 29.0807C166.41 27.9754 168.293 23.008 167.979 18.027C167.679 13.1143 165.264 8.1742 160.312 6.86413C152.644 4.84444 143.257 11.3129 144.171 26.5834C144.444 31.155 145.645 36.5045 148.087 42.6454C148.087 42.6454 143.871 36.2042 136.981 29.0534C136.285 27.5796 135.562 25.9011 134.935 24.0861C134.553 22.9261 134.143 21.7798 133.884 20.6745C133.625 19.5691 133.284 18.5592 133.175 17.6449C133.134 17.4402 133.106 17.2628 133.079 17.0718C133.42 15.2977 134.034 11.5585 133.884 8.25608C133.884 8.18785 133.87 8.11961 133.87 8.05138C133.611 3.83459 131.633 1.95137 129.75 1.92407C128.236 2.38806 127.021 4.09388 127.199 7.05518C127.24 7.69657 127.335 8.39254 127.526 9.15675C128.29 12.3773 129.914 15.8026 130.732 17.4129C130.76 17.604 130.773 17.7814 130.801 17.9861C130.842 18.2454 130.869 18.5046 130.882 18.7776C130.923 19.4872 130.91 20.2651 130.951 21.0838C131.019 22.2165 130.937 23.4311 130.882 24.6592C130.801 26.5015 130.582 28.3438 130.337 29.9132C125.657 38.7289 123.392 46.1389 123.392 46.1389C123.747 42.5635 123.801 39.302 123.624 36.368C122.369 15.7617 109.476 10.4668 101.726 15.0794C98.1241 17.2219 96.828 21.2476 97.0736 25.2733C97.4283 31.1414 101.044 37.023 105.519 37.0913C113.078 37.2141 114.101 30.3362 114.101 30.3362C115.861 34.5803 116.775 38.7834 117.021 42.8638C117.484 50.5468 115.547 57.8613 112.191 64.4936C101.167 61.6687 91.125 55.3094 85.2446 43.4369C85.2446 43.4369 91.084 47.1897 95.9821 41.4309C97.0326 40.2027 97.4283 38.5515 97.3192 36.7638C96.9235 30.1725 89.6242 21.5615 81.9155 24.0724C77.113 25.6282 73.5929 30.4454 73.9886 36.9275C74.3979 43.6826 79.064 52.239 90.9885 60.7817C90.9885 60.7817 83.962 57.643 74.3024 55.364C72.9244 54.5043 71.3963 53.4808 69.8955 52.2799C68.9541 51.5157 67.9854 50.7788 67.1667 49.9736C66.3481 49.1821 65.5159 48.5134 64.9292 47.8175C64.7791 47.6537 64.67 47.5309 64.5335 47.3944C63.865 45.7159 62.3642 42.2497 60.4404 39.5477C57.9027 35.9859 55.174 35.44 53.5368 36.4635C53.032 37.064 52.7454 37.8691 52.8137 38.838C52.8955 40.2436 53.7005 41.9494 55.5833 43.7508C57.971 46.0434 61.1908 48.0495 62.7462 48.9638C62.869 49.1139 62.9782 49.2504 63.1146 49.4141C63.7149 50.0964 64.2607 51.0108 64.9156 51.9387C65.5841 52.8531 66.1708 53.9311 66.7984 54.9819C67.7671 56.6468 68.5448 58.3117 69.1997 59.7992C70.0319 69.6793 72.0921 77.103 72.0921 77.103C58.9669 51.502 41.7077 53.4808 37.1098 62.7059C36.3594 64.207 36.0866 65.7627 36.1821 67.2911C36.6596 75.1788 46.8378 82.507 52.2133 79.1773C55.8971 76.8847 56.5247 73.8278 56.4019 71.6307C56.3064 70.0068 55.788 68.8605 55.788 68.8605C66.6619 76.4343 71.4781 87.297 72.6378 98.6236C61.8457 102.213 49.9485 102.281 38.5834 95.4849C38.5834 95.4849 45.528 95.4849 46.5239 87.993C46.5649 87.6518 46.5785 87.3243 46.5649 86.9831C46.1283 79.8596 31.5432 73.3638 25.3081 80.9923C23.5617 83.1348 22.6612 85.8914 22.8386 88.8118C23.3161 96.7677 31.7888 105.911 52.7864 106.975C52.7864 106.975 45.1323 108.135 35.7182 111.465C34.1355 111.479 32.28 111.424 30.4381 111.233C29.2238 111.097 28.0095 111.001 26.9044 110.769C25.7856 110.551 24.7214 110.428 23.8619 110.169C23.6572 110.114 23.4935 110.073 23.3025 110.019C21.829 108.968 18.691 106.866 15.6075 105.624C11.5553 103.987 8.96305 105.024 8.13079 106.757C8.1035 106.948 8.1035 107.139 8.11715 107.33C8.2263 109.104 9.9181 111.028 13.7929 111.793C17.0401 112.434 20.8194 112.379 22.634 112.297C22.825 112.366 22.9887 112.407 23.1934 112.475C24.0665 112.721 25.0216 113.198 26.0858 113.621C27.15 114.031 28.2142 114.617 29.3057 115.163C31.0111 116.037 32.5665 117.019 33.9172 117.92C39.9614 125.794 45.719 130.911 45.719 130.911C21.256 116.719 7.84427 127.104 8.45824 137.189C8.47188 137.366 8.48552 137.544 8.49917 137.721C9.61795 147.97 26.8635 150.235 30.1107 143.412C30.9156 141.733 31.1612 140.232 31.0794 138.936C30.8338 134.951 27.532 132.808 27.532 132.808C40.7663 133.3 50.6989 139.836 57.7936 148.734C50.6443 157.59 40.6845 164.086 27.4502 164.509C27.4502 164.509 31.3113 162.026 31.0384 157.427C30.9702 156.362 30.6837 155.189 30.0834 153.906C26.8771 147.069 9.61795 149.252 8.44459 159.487C8.37638 160.115 8.34909 160.756 8.39002 161.384C8.96305 170.991 22.211 179.903 45.5962 166.488C45.5962 166.488 39.8249 171.578 33.7262 179.425C32.3755 180.312 30.8065 181.281 29.101 182.154C28.0096 182.7 26.9317 183.273 25.8675 183.683C24.8033 184.106 23.8619 184.583 22.9751 184.815C22.7704 184.884 22.6067 184.938 22.4157 184.993C20.6147 184.911 16.8354 184.829 13.5746 185.457C9.42693 186.248 7.76241 188.391 7.88521 190.26C7.88521 190.329 7.89885 190.397 7.89885 190.451C8.71747 192.198 11.2961 193.235 15.3619 191.625C18.4454 190.397 21.597 188.309 23.0706 187.272C23.2616 187.217 23.4253 187.176 23.6299 187.122C24.5031 186.849 25.5673 186.739 26.6861 186.535C27.8049 186.303 29.0192 186.221 30.2335 186.084C32.0753 185.907 33.9309 185.866 35.5135 185.88C44.9004 189.25 52.5544 190.451 52.5544 190.451C30.2335 191.475 22.02 201.696 22.5112 209.952C22.6476 212.313 23.5072 214.524 24.9534 216.298C31.3386 224.186 46.6877 217.117 46.2374 209.748C46.2238 209.638 46.2238 209.516 46.2101 209.406C45.2551 201.914 38.3105 201.874 38.3105 201.874C49.7166 195.132 61.6002 195.255 72.3786 198.899C71.1507 210.212 66.2799 221.061 55.3787 228.58C55.3787 228.58 56.1427 226.901 56.0063 224.732C55.8835 222.685 54.9693 220.187 51.8586 218.236C46.2374 214.701 35.268 222.889 35.7591 231.2C35.8273 232.346 36.1139 233.506 36.6733 234.625C41.2166 243.878 58.4758 245.938 71.7237 220.433C71.7237 220.433 69.609 227.843 68.7221 237.75C68.0672 239.224 67.2759 240.875 66.3208 242.527C65.6932 243.577 65.1066 244.642 64.4244 245.556C63.7558 246.484 63.2101 247.398 62.6098 248.081C62.4733 248.245 62.3642 248.381 62.2414 248.531C60.6724 249.432 57.4525 251.424 55.0512 253.703C52.9364 255.709 52.1724 257.62 52.2679 259.107C52.3088 259.844 52.5681 260.486 52.991 260.977C54.6146 262 57.357 261.482 59.9083 257.92C61.8457 255.232 63.3602 251.765 64.0424 250.087C64.1788 249.937 64.2879 249.814 64.438 249.664C65.0247 248.968 65.857 248.299 66.6892 247.521C67.5078 246.73 68.4765 245.993 69.4316 245.229C70.9324 244.041 72.4468 243.045 73.8248 242.185C83.5118 239.947 90.5656 236.836 90.5656 236.836C77.3995 246.17 73.0199 255.573 73.4428 262.587C73.7703 268.059 77.0311 272.085 81.3152 273.504C89.4468 276.193 97.1964 266.463 96.7871 259.776C96.7052 258.411 96.2822 257.183 95.4636 256.201C90.6065 250.414 84.7397 254.14 84.7397 254.14C90.6884 242.295 100.757 235.976 111.795 233.22C114.428 238.487 116.175 244.178 116.529 250.141C116.87 255.696 115.997 261.482 113.528 267.391C113.528 267.391 112.532 260.513 104.987 260.595C100.021 260.649 96.0776 267.841 96.4733 274.269C96.6779 277.626 98.0559 280.764 101.085 282.593C109.667 287.765 124.688 280.737 123.065 254.017C123.024 253.266 122.956 252.489 122.887 251.697C122.887 251.697 125.111 259.08 129.736 267.909C129.955 269.288 130.146 270.816 130.241 272.44C130.255 272.699 130.269 272.945 130.282 273.204C130.323 274.419 130.405 275.633 130.323 276.78C130.269 277.912 130.296 278.977 130.159 279.877C130.132 280.096 130.118 280.259 130.091 280.45C129.259 282.061 127.622 285.472 126.844 288.693C126.544 289.908 126.448 290.986 126.503 291.9C126.639 294.179 127.717 295.53 129.027 295.926C130.923 295.885 132.943 293.974 133.161 289.607ZM160.953 272.767C161.976 273.081 163.122 275.169 163.3 278.117C163.532 281.87 162.14 286.332 158.579 287.246C156.505 287.779 154.254 287.315 152.385 285.964C151.771 285.527 151.225 284.995 150.72 284.394L155.605 274.746C156.11 273.805 157.583 271.717 160.953 272.767ZM147.841 271.335C147.882 272.017 147.937 272.713 148.019 273.422L148.878 281.283C148.142 279.522 147.678 277.435 147.541 275.128C147.432 273.327 147.514 271.416 147.773 269.397C147.787 270.038 147.814 270.693 147.841 271.335ZM186.166 281.638C184.775 283.152 182.947 284.012 181.009 284.067C176.657 284.19 173.914 278.622 173.683 274.733C173.573 272.877 173.996 271.294 174.733 270.816C177.68 268.878 179.686 270.461 180.354 271.184L187.585 279.522C187.203 280.328 186.726 281.037 186.166 281.638ZM188.759 272.767C188.813 273.736 188.8 274.678 188.69 275.565L187.326 267.868C187.094 266.545 186.808 265.235 186.453 263.965C188.063 267.636 188.636 270.584 188.759 272.767ZM203.112 262.983C203.371 264.197 203.589 265.439 203.944 266.545C204.012 266.763 204.08 266.995 204.135 267.2C204.012 267.009 203.889 266.818 203.767 266.626C203.153 265.617 202.389 264.648 201.638 263.652C201.12 262.983 200.588 262.355 200.056 261.741C200.751 262.109 201.434 262.492 202.157 262.846C202.348 262.109 202.539 261.386 202.703 260.663C202.825 261.427 202.948 262.205 203.112 262.983ZM222.8 251.943C222.704 250.36 223.223 248.299 226.224 247.467C226.824 247.303 227.779 247.617 228.762 248.326C231.272 250.114 233.223 253.649 233.414 256.705C233.523 258.425 233.06 259.844 232.064 260.922C230.181 262.956 227.302 263.679 224.328 262.887L222.8 251.943ZM215.691 255L220.617 261.127C217.861 259.216 215.405 256.064 213.413 251.915C214.122 252.966 214.886 253.99 215.691 255ZM241.696 235.649L252.283 238.76C252.311 238.951 252.324 239.115 252.324 239.265C252.502 242.104 251.328 244.669 249.2 246.129C246.853 247.74 244.029 246.771 242.556 246.047C239.049 244.328 236.757 241.121 236.634 239.142C236.621 238.842 236.648 238.583 236.743 238.378C238.19 235.144 240.727 235.403 241.696 235.649ZM251.015 234.748L245.762 229.071C244.82 228.048 243.838 227.079 242.815 226.164C247.399 229.194 249.787 232.278 251.015 234.748ZM259.064 201.532C260.238 202.037 261.438 202.501 262.666 202.911L270.211 205.408C266.828 205.312 263.021 203.975 259.064 201.532ZM267.032 196.538C267.019 196.524 266.186 195.46 266.104 194.081C266.036 193.003 266.486 191.952 267.455 190.861C268.096 190.137 270.225 189.865 272.899 190.793C276.037 191.884 279.516 194.559 279.707 197.848C279.734 198.23 279.707 198.639 279.639 199.035C279.148 201.819 277.033 204.016 274.004 204.93C273.936 204.958 273.854 204.971 273.786 204.999L267.032 196.538ZM286.597 174.171C286.665 175.263 286.488 176.327 286.065 177.323C284.714 180.53 280.567 181.213 277.429 180.831C274.059 180.407 271.589 178.784 271.398 177.528C271.357 177.282 271.33 177.05 271.316 176.832C271.139 173.789 273.417 172.779 274.072 172.561L284.673 169.449C285.833 170.882 286.502 172.492 286.597 174.171ZM274.263 125.971C273.827 125.821 271.616 124.948 271.466 122.396C271.439 121.959 271.466 121.482 271.548 120.977C271.753 119.721 274.222 118.111 277.592 117.715C280.73 117.347 284.878 118.043 286.215 121.263C286.515 121.973 286.693 122.737 286.734 123.515C286.856 125.603 286.065 127.691 284.51 129.438L274.263 125.971ZM279.884 99.5106C279.912 99.7017 279.939 99.8927 279.953 100.084C280.144 103.332 277.033 106.116 273.854 107.426C270.948 108.627 268.424 108.463 267.66 107.617C266.814 106.661 266.377 105.747 266.323 104.833C266.227 103.291 267.223 102.008 267.223 102.008L274.454 93.6563C277.388 94.6115 279.421 96.7813 279.884 99.5106ZM270.416 93.0968L262.953 95.5531C261.725 95.9625 260.511 96.4129 259.337 96.9178C263.267 94.5024 267.046 93.1923 270.416 93.0968ZM237.207 59.9629C237.139 59.8264 237.112 59.6627 237.098 59.4853C236.989 57.6976 239.09 54.5316 242.392 52.662C243.688 51.9251 247.017 50.424 249.691 52.2662C251.519 53.5217 252.638 55.6097 252.788 57.9978C252.829 58.6665 252.788 59.3488 252.679 60.0721L242.187 62.6922C241.164 62.9515 238.626 63.1971 237.207 59.9629ZM246.171 69.3108L251.574 63.4837C250.182 66.3359 247.535 69.3517 243.251 72.1629C244.261 71.2623 245.23 70.3207 246.171 69.3108ZM224.887 35.3991C227.875 34.6212 230.754 35.3582 232.623 37.4051C233.442 38.3058 233.878 39.3702 233.96 40.694C234.137 43.6962 232.296 47.5582 229.676 49.6734C228.544 50.5877 227.411 51.0244 226.715 50.8334C225.337 50.4376 223.482 49.6188 223.318 46.9031C223.304 46.5893 223.318 46.3573 223.318 46.3436L224.887 35.3991ZM221.19 37.1186L216.237 43.2186C215.418 44.2148 214.668 45.2383 213.945 46.2891C215.95 42.1541 218.42 39.0154 221.19 37.1186ZM200.615 36.4089C201.147 35.7812 201.693 35.1671 202.211 34.4984C202.962 33.5022 203.753 32.5333 204.353 31.5235C204.476 31.3324 204.599 31.1414 204.722 30.9503C204.654 31.1687 204.599 31.387 204.531 31.6054C204.176 32.7244 203.944 33.9526 203.671 35.1671C203.494 35.9859 203.385 36.7774 203.262 37.5689C203.085 36.8183 202.907 36.0678 202.716 35.2899C202.007 35.672 201.324 36.0405 200.615 36.4089ZM175.347 27.1975C174.788 26.8291 174.392 25.7783 174.31 24.4546C174.133 21.4932 175.429 17.9588 177.475 15.8572C178.744 14.5608 180.163 13.9194 181.691 13.974C184.12 14.0559 186.753 15.5297 188.24 18.5456L180.968 26.8563C180.586 27.2794 178.553 29.3264 175.347 27.1975ZM187.94 30.2134L189.345 22.5031C189.373 22.7214 189.386 22.9534 189.4 23.1854C189.591 26.4197 188.786 30.0906 187.081 34.0208C187.422 32.779 187.708 31.5098 187.94 30.2134ZM152.658 12.2818C154.622 10.6715 157.037 10.0984 159.288 10.6852C162.454 11.5176 163.777 15.1067 163.968 18.2044C164.187 21.8208 162.89 24.7821 161.581 25.1778C158.197 26.215 156.737 24.127 156.287 23.24L151.689 13.1961C152.003 12.8686 152.317 12.5684 152.658 12.2818ZM148.183 26.2832C147.951 22.5167 148.428 19.2416 149.52 16.6351L148.646 24.4682C148.496 25.8056 148.415 27.1293 148.374 28.453C148.292 27.7161 148.224 26.9928 148.183 26.2832ZM132.138 24.7002C132.233 23.4584 132.37 22.2165 132.342 21.0429C132.342 20.8109 132.342 20.5789 132.342 20.3606C132.411 20.5789 132.479 20.7973 132.533 21.0156C132.834 22.1483 133.297 23.3082 133.734 24.4818C134.021 25.2461 134.348 25.9966 134.662 26.7199C134.102 26.1877 133.584 25.6418 132.997 25.1096C132.602 25.7646 132.22 26.406 131.851 27.0474C131.988 26.2832 132.083 25.5053 132.138 24.7002ZM105.587 33.0928C104.005 33.0655 101.358 29.5993 101.085 25.0414C100.976 23.2809 101.18 20.074 103.786 18.5319C105.983 17.2219 108.78 17.2355 111.263 18.5456C111.427 18.6411 111.604 18.7366 111.768 18.8322L110.144 29.7631C110.049 30.3226 109.435 33.1474 105.587 33.0928ZM117.826 28.8215L114.824 21.5615C116.939 24.1816 118.439 27.9617 119.176 32.5606C118.781 31.3051 118.33 30.0496 117.826 28.8215ZM78.1362 34.1027C78.6683 31.0868 80.4966 28.7669 83.1707 27.8935C84.8216 27.3613 86.568 27.7024 88.3553 28.917C91.0158 30.732 93.1579 34.2118 93.3352 37.0094C93.3625 37.487 93.3489 38.3604 92.9396 38.838C90.6474 41.54 88.2871 40.5711 87.4412 40.0662L78.1362 34.1027ZM78.1772 38.2103L81.6563 45.2246C82.2702 46.4665 82.9388 47.6537 83.6482 48.8137C80.0054 44.4741 78.641 40.8031 78.1772 38.2103ZM61.1363 67.9052C60.1539 67.0864 59.1307 66.3086 58.0665 65.5716L51.5312 61.0546C54.7647 62.0918 58.0392 64.439 61.1363 67.9052ZM52.0905 70.4435C52.0905 70.4435 52.3361 71.0576 52.3907 71.8764C52.4862 73.5276 51.7767 74.7285 50.0986 75.7656C49.3755 76.216 47.8337 75.9703 46.2511 75.1515C42.9766 73.4594 40.3707 69.9795 40.1933 67.0591C40.1387 66.1448 40.3025 65.3124 40.7118 64.5072C41.967 61.9826 44.6138 60.4542 47.7792 60.4405C47.861 60.4405 47.9292 60.4405 47.9975 60.4405L52.0905 70.4435ZM26.8498 88.5525C26.7407 86.6829 27.3001 84.8952 28.4189 83.5169C30.8065 80.5829 35.2134 81.7292 36.5095 82.1386C40.0159 83.2712 42.4581 85.673 42.5537 87.2151C42.5537 87.297 42.5537 87.3789 42.54 87.4471C42.0761 90.9543 39.5657 91.4182 38.5697 91.4592H27.5184C27.1364 90.4903 26.9044 89.5214 26.8498 88.5525ZM29.8242 94.9118L36.5232 98.9238C37.6419 99.5925 38.7744 100.207 39.9341 100.766C35.3225 99.2923 31.9798 97.218 29.8242 94.9118ZM19.7961 168.74L27.573 168.494C28.9373 168.453 30.3017 168.344 31.6251 168.18C26.2632 169.654 22.3747 169.395 19.7961 168.74ZM38.2968 205.872C38.8699 205.872 41.7487 206.077 42.2535 209.98C42.3354 211.331 40.2206 213.637 36.9598 214.906C34.04 216.039 30.1789 216.339 28.1051 213.76C27.1773 212.613 26.6452 211.208 26.5497 209.693C26.4678 208.41 26.727 207.087 27.2728 205.804L38.2968 205.872ZM36.2639 198.394L29.524 202.378C31.8707 199.867 35.3498 197.889 39.7567 196.524C38.5834 197.097 37.4237 197.725 36.2639 198.394ZM40.2752 232.838C39.975 232.223 39.8113 231.609 39.7704 230.941C39.5793 227.679 42.3899 224.254 45.2687 222.534C47.3562 221.293 49.0344 221.183 49.7166 221.606C51.6539 222.821 51.9405 224.09 51.995 224.936C52.0633 226.001 51.7222 226.874 51.7222 226.874L47.1379 236.918C44.0545 236.85 41.5031 235.321 40.2752 232.838ZM51.1764 236.331L57.6435 231.869C58.7077 231.132 59.7446 230.354 60.727 229.549C57.6299 232.96 54.3827 235.28 51.1764 236.331ZM92.3665 258.766C92.653 259.094 92.7349 259.626 92.7485 259.994C92.885 262.273 91.2341 265.999 88.2325 268.305C86.8954 269.342 84.808 270.407 82.5431 269.656C79.9099 268.783 78.068 266.449 77.5495 263.42L86.8681 257.497C87.3593 257.21 89.897 255.818 92.3665 258.766ZM81.1378 252.325L77.6451 259.285C78.1362 256.664 79.5279 253.035 83.1298 248.777C82.4067 249.909 81.7518 251.097 81.1378 252.325ZM103.118 279.127C101.098 277.912 100.553 275.661 100.444 273.996C100.266 271.007 101.385 267.582 103.159 265.685C103.8 264.989 104.482 264.593 105.001 264.58C108.534 264.539 109.353 266.954 109.53 267.937L111.099 278.867C108.466 280.45 105.492 280.546 103.118 279.127ZM114.183 276.152L117.212 268.919C117.703 267.732 118.153 266.531 118.535 265.33C117.771 269.847 116.297 273.545 114.183 276.152ZM207.682 239.402L207.205 239.443C207.246 238.951 207.287 238.46 207.328 237.982C207.437 238.46 207.56 238.938 207.682 239.402ZM201.106 254.945C200.861 256.187 200.574 257.429 200.274 258.684C199.128 258.084 198.009 257.47 196.918 256.842C189.414 252.557 184.093 248.285 178.526 244.287C184.761 244.642 189.482 243.891 192.879 242.363C196.249 240.807 199.933 237.846 203.767 232.919C203.112 239.715 202.812 246.511 201.106 254.945ZM256.404 216.434C257.277 217.321 258.137 218.236 259.037 218.986C259.214 219.136 259.392 219.287 259.555 219.437C259.351 219.341 259.146 219.246 258.928 219.15C257.877 218.632 256.69 218.236 255.517 217.799C254.739 217.513 253.989 217.294 253.211 217.062C253.975 216.994 254.739 216.926 255.517 216.83C255.271 216.052 254.999 215.329 254.726 214.578C255.271 215.206 255.803 215.82 256.404 216.434ZM250.36 210.757C250.81 211.931 251.26 213.132 251.683 214.36C250.401 214.483 249.118 214.565 247.863 214.633C239.267 215.083 232.514 214.374 225.706 214.019C231.136 210.948 234.615 207.755 236.648 204.644C238.653 201.519 240.086 196.947 240.659 190.724C243.783 196.811 247.235 202.692 250.36 210.757ZM281.535 166.802L273.963 164.837C272.64 164.496 271.303 164.209 269.966 163.991C275.641 164.086 279.298 165.465 281.535 166.802ZM276.064 148.461C277.279 148.734 278.493 149.034 279.653 149.184C279.884 149.211 280.116 149.252 280.335 149.28C280.116 149.321 279.884 149.348 279.653 149.375C278.493 149.512 277.279 149.812 276.051 150.071C275.273 150.249 274.509 150.453 273.772 150.658C274.359 150.208 274.945 149.744 275.532 149.266C274.918 148.761 274.318 148.311 273.704 147.833C274.482 148.051 275.259 148.27 276.064 148.461ZM267.919 146.946C268.942 147.683 269.966 148.461 270.975 149.252C269.952 150.044 268.929 150.808 267.905 151.545C260.893 156.594 254.794 159.651 248.845 163.063C251.751 157.536 253.034 152.923 253.061 149.211C253.061 148.857 253.047 148.502 253.02 148.12C252.802 144.613 251.533 140.355 248.927 135.333C254.862 138.772 260.933 141.856 267.919 146.946ZM270.238 134.473C271.507 134.268 272.776 134.009 274.045 133.682L281.713 131.717C278.779 133.477 274.864 134.405 270.238 134.473ZM256.363 134.951C255.913 134.705 255.476 134.446 255.026 134.2C255.026 134.2 255.026 134.2 255.012 134.2C255.517 134.296 256.022 134.391 256.527 134.473L256.363 134.951ZM250.673 87.6518C247.508 95.6896 244.029 101.544 240.877 107.617C240.345 101.394 238.913 96.8359 236.921 93.6972C234.901 90.5722 231.436 87.3652 226.019 84.2674C232.828 83.9536 239.595 83.2712 248.19 83.7625C249.446 83.8308 250.728 83.9263 252.011 84.0491C251.588 85.2773 251.137 86.4782 250.673 87.6518ZM253.566 81.3607C254.33 81.1287 255.094 80.9104 255.872 80.6375C257.045 80.2008 258.232 79.805 259.283 79.3001C259.487 79.2046 259.706 79.109 259.91 79.0135C259.746 79.1636 259.569 79.3137 259.392 79.4639C258.491 80.2144 257.632 81.1151 256.745 82.0021C256.145 82.6026 255.612 83.2303 255.067 83.8444C255.34 83.0938 255.612 82.3706 255.858 81.6064C255.094 81.5108 254.316 81.429 253.566 81.3607ZM231.995 79.9278C231.477 79.9551 230.972 79.9824 230.467 80.0234C230.467 80.0234 230.467 80.0234 230.454 80.0234C230.931 79.8323 231.409 79.6413 231.873 79.4366L231.995 79.9278ZM193.343 55.7325C189.959 54.2041 185.239 53.4126 179.004 53.7401C184.584 49.7826 189.918 45.5248 197.45 41.2808C198.541 40.6667 199.674 40.0526 200.82 39.4658C201.12 40.7213 201.393 41.9767 201.638 43.2049C203.316 51.6522 203.562 58.4481 204.19 65.2305C200.369 60.2904 196.713 57.3018 193.343 55.7325ZM131.81 32.9837C132.397 31.8646 133.011 30.7456 133.666 29.6266C134.594 30.5273 135.494 31.4279 136.381 32.3423C142.384 38.5651 146.272 44.1738 150.488 49.5642C144.608 47.4627 139.86 46.8622 136.176 47.3671C132.506 47.8993 128.113 49.7962 123.037 53.4535C125.575 47.0806 127.758 40.6257 131.81 32.9837ZM67.9035 54.3542C67.3168 53.2625 66.7438 52.1434 66.0889 51.1609C65.9661 50.9698 65.8433 50.7788 65.7205 50.5741C65.8979 50.7242 66.0616 50.8743 66.239 51.0244C67.0985 51.8159 68.1218 52.5392 69.1314 53.2897C69.8136 53.7947 70.5094 54.2314 71.1916 54.6817C70.4139 54.5179 69.6635 54.3542 68.8586 54.2177C68.8858 55.0092 68.9268 55.7871 68.9541 56.5513C68.613 55.828 68.2855 55.0911 67.9035 54.3542ZM72.0921 61.505C72.0239 60.6725 71.9557 59.8264 71.9011 58.9804C71.8738 58.5437 71.8465 58.1206 71.8329 57.6839C73.1017 57.9296 74.3433 58.2025 75.5712 58.5027C83.9757 60.4951 90.2791 63.1016 96.7461 65.367C90.6611 66.7862 86.336 68.8468 83.5118 71.2486C80.7149 73.6914 78.0271 77.567 75.7349 83.3668C74.4661 76.6663 72.8152 70.075 72.0921 61.505ZM29.8787 114.044C28.7872 113.444 27.7094 112.802 26.6315 112.338C26.4132 112.243 26.2086 112.147 26.0039 112.052C26.2222 112.079 26.4542 112.12 26.6861 112.147C27.8458 112.352 29.0874 112.393 30.329 112.489C31.1203 112.543 31.9116 112.557 32.6893 112.57C31.9935 112.843 31.2977 113.116 30.6018 113.416C31.0657 114.085 31.5296 114.713 31.9935 115.354C31.3113 114.904 30.6291 114.454 29.8787 114.044ZM27.6685 128.783L19.7415 128.51C23.0023 127.664 27.0136 127.868 31.475 129.083C30.2335 128.933 28.951 128.823 27.6685 128.783ZM25.2808 136.124C25.2945 136.138 26.959 137.325 27.0681 139.168C27.1091 139.918 26.9181 140.764 26.4815 141.679C25.9357 142.825 23.1115 143.671 19.7552 143.111C16.6444 142.579 12.8651 140.737 12.4831 137.284L12.4558 136.943C12.2921 134.187 13.7793 131.553 16.4261 129.915L25.2808 136.124ZM37.2736 117.783C36.5095 116.787 35.7455 115.764 34.9951 114.699C36.1957 114.222 37.3964 113.785 38.5834 113.362C46.7013 110.51 53.3867 109.282 60.0175 107.712C55.6652 112.188 53.2366 116.241 52.1588 119.789C51.4766 122.123 51.1764 124.948 51.3811 128.332C51.4902 130.12 51.7904 132.126 52.2133 134.255C47.4926 129.301 42.54 124.62 37.2736 117.783ZM15.9895 167.075C13.8338 165.601 12.5513 163.472 12.4012 161.125C12.374 160.729 12.3876 160.32 12.4285 159.924C12.8242 156.471 16.6035 154.643 19.7279 154.124C23.0706 153.578 25.8948 154.438 26.4405 155.584C26.7816 156.321 26.9726 157.004 27.0136 157.631C27.1364 159.76 25.2945 161.07 25.2672 161.098L15.9895 167.075ZM26.4542 184.938C27.532 184.474 28.6099 183.846 29.7014 183.246C30.4381 182.837 31.1339 182.386 31.8298 181.95C31.3659 182.591 30.8884 183.205 30.4381 183.874C31.1339 184.174 31.8298 184.461 32.5256 184.733C31.7479 184.733 30.9702 184.761 30.1652 184.802C28.9237 184.884 27.6685 184.938 26.5088 185.129C26.2768 185.17 26.0449 185.197 25.8266 185.225C26.0312 185.129 26.2495 185.034 26.4542 184.938ZM38.406 183.956C37.219 183.533 36.0184 183.082 34.8177 182.605C35.5681 181.554 36.3458 180.53 37.1098 179.534C42.4036 172.738 47.3699 168.085 52.1042 163.158C51.3401 166.911 51.0809 170.173 51.2446 172.929C51.3538 174.662 51.613 176.218 52.0087 177.596C53.0592 181.158 55.5697 185.238 59.8947 189.742C53.2503 188.118 46.5376 186.876 38.406 183.956ZM68.381 243.264C69.1451 243.127 69.9091 242.991 70.6595 242.841C69.991 243.277 69.3224 243.7 68.6539 244.178C67.6579 244.915 66.621 245.638 65.7615 246.416C65.5841 246.566 65.4067 246.716 65.243 246.866C65.3658 246.675 65.4886 246.484 65.6114 246.293C66.2663 245.324 66.8393 244.205 67.4396 243.113C67.8353 242.39 68.1491 241.667 68.4902 240.944C68.4356 241.708 68.4083 242.486 68.381 243.264ZM75.121 239.019C73.8931 239.306 72.6378 239.565 71.369 239.811C71.4372 238.515 71.5327 237.245 71.6419 235.99C72.4195 227.379 74.0977 220.774 75.4211 214.046C77.686 219.86 80.3465 223.858 83.1298 226.301C85.9404 228.73 90.2518 230.804 96.3232 232.251C89.8561 234.489 83.5391 237.068 75.121 239.019ZM136.203 243.809C129.805 244.082 121.96 238.119 118.289 234.966C117.102 232.701 115.793 230.409 114.155 227.993C111.263 228.321 108.671 228.826 106.174 229.399C101.399 228.662 91.7662 226.587 87.7959 221.552C87.7004 221.443 87.6185 221.334 87.5503 221.224C87.4275 221.17 87.3047 221.102 87.1819 221.02C81.6563 217.785 78.2727 208.519 76.8947 203.893C77.113 201.341 77.263 198.708 77.1948 195.801C74.5889 194.518 72.133 193.535 69.7181 192.662C66.1025 189.455 59.117 182.509 58.5031 176.122C58.4894 176.041 58.4894 175.959 58.4894 175.877C58.4894 175.822 58.4894 175.768 58.4758 175.699C58.4075 175.59 58.3393 175.467 58.2711 175.331C57.4252 173.652 57.0022 171.646 56.8795 169.518C56.5657 164.373 57.93 158.614 58.8851 155.339C60.4541 153.319 61.9958 151.177 63.5103 148.693C62.0095 146.196 60.4677 144.053 58.926 142.02C58.2165 139.481 57.2615 135.469 57.0159 131.403C56.8112 128.018 57.0978 124.62 58.4348 122.041C58.5031 121.918 58.5713 121.795 58.6395 121.673C58.6395 121.536 58.6531 121.4 58.6668 121.263C59.308 114.89 66.3345 107.972 69.9637 104.778C72.3786 103.918 74.8345 102.963 77.454 101.68C77.5223 99.3878 77.4813 97.2317 77.3585 95.171C77.3313 94.6115 77.263 94.093 77.2085 93.5335C78.6274 88.8936 82.0383 79.6958 87.5776 76.5025C87.7004 76.4343 87.8232 76.3661 87.946 76.3115C88.0278 76.2023 88.1097 76.0932 88.1916 75.984C92.1755 70.962 101.822 68.9424 106.61 68.2327C109.094 68.8195 111.686 69.3381 114.578 69.6793C116.229 67.2775 117.539 64.9848 118.74 62.7332C122.423 59.6081 130.296 53.6855 136.695 53.9857C136.845 53.9857 136.981 53.9994 137.104 54.013C137.227 53.9584 137.35 53.9175 137.486 53.8629C143.544 51.8023 152.753 55.3094 157.16 57.3018C158.934 59.1441 160.844 60.9728 163.081 62.8287C165.769 61.696 168.116 60.4815 170.34 59.226C175.129 58.5846 184.966 57.8613 190.178 61.5732C190.3 61.6551 190.41 61.737 190.505 61.8188C190.642 61.8461 190.764 61.8734 190.914 61.9007C197.136 63.4428 202.975 71.3851 205.609 75.4381C206.113 77.9491 206.714 80.5146 207.601 83.2849C210.466 83.7898 213.099 84.0354 215.65 84.1856C220.03 86.2462 228.694 90.9406 231.068 96.8905C231.122 97.027 231.163 97.1498 231.204 97.2863C231.3 97.3818 231.395 97.4773 231.491 97.5728C235.024 101.312 236.129 108.422 236.43 113.567C236.511 114.822 236.539 115.955 236.539 116.896C235.611 119.271 234.724 121.768 233.974 124.579C236.116 126.558 238.203 128.182 240.263 129.697C242.446 133.163 246.185 139.904 246.539 145.718C246.608 146.755 246.553 147.765 246.376 148.72C246.348 148.857 246.321 148.993 246.28 149.13C246.308 149.252 246.348 149.389 246.362 149.539C246.444 149.976 246.499 150.412 246.526 150.863C246.894 157.004 242.569 164.728 240.168 168.535C238.094 170.036 236.007 171.646 233.851 173.611C234.588 176.436 235.461 178.92 236.375 181.308C236.32 186.139 235.638 195.978 231.218 200.618C231.122 200.727 231.013 200.823 230.918 200.905C230.877 201.027 230.822 201.164 230.767 201.287C228.353 207.223 219.675 211.876 215.282 213.91C212.731 214.046 210.097 214.278 207.232 214.77C206.332 217.54 205.704 220.105 205.199 222.616C202.539 226.656 196.658 234.557 190.437 236.072C190.3 236.099 190.164 236.14 190.028 236.154C189.918 236.236 189.809 236.317 189.7 236.399C184.461 240.084 174.638 239.306 169.849 238.651C167.625 237.396 165.292 236.167 162.604 235.021C160.353 236.863 158.443 238.692 156.655 240.521C152.235 242.486 143.012 245.952 136.954 243.85C136.817 243.809 136.695 243.755 136.572 243.7C136.49 243.796 136.354 243.809 136.203 243.809ZM131.224 264.811C127.226 257.142 125.07 250.674 122.546 244.314C127.594 247.985 131.988 249.909 135.658 250.455C139.342 250.974 144.09 250.387 149.984 248.326C145.74 253.703 141.825 259.285 135.794 265.48C134.921 266.381 134.007 267.282 133.065 268.182C132.411 267.05 131.797 265.931 131.224 264.811ZM131.701 276.752C131.715 276.193 131.701 275.62 131.66 275.033C131.619 274.391 131.565 273.736 131.524 273.081C131.456 272.29 131.374 271.512 131.264 270.734C131.633 271.375 132.001 272.031 132.397 272.672C132.997 272.126 133.543 271.58 134.116 271.021C133.775 271.771 133.434 272.508 133.12 273.3C132.683 274.46 132.206 275.62 131.892 276.752C131.824 276.971 131.756 277.203 131.701 277.407C131.701 277.216 131.701 276.984 131.701 276.752Z" fill="#F7EDE1"/>
<path d="M265.654 181.827C263.417 180.135 262.776 176.682 262.626 174.198C262.53 172.561 262.639 171.36 262.639 171.36C255.858 172.22 249.978 174.28 244.971 176.955C247.713 181.922 251.52 186.862 256.745 191.27C256.745 191.27 260.32 184.461 264.972 184.133C266.923 183.997 269.488 184.338 272.244 185.034C269.556 184.119 267.223 183.014 265.654 181.827ZM256.077 185.17C254.098 183.15 252.311 180.981 250.742 178.661C253.334 177.569 256.022 176.709 258.792 176.109C259.065 178.183 259.597 179.984 260.361 181.513C258.642 182.482 257.209 183.846 256.077 185.17Z" fill="#F7EDE1"/>
<path d="M233.401 245.133C231.641 242.909 230.277 240.712 229.594 238.869C229.403 238.364 229.308 237.832 229.267 237.286C229.021 233.165 232.705 228.443 232.705 228.443C226.538 225.496 220.48 224.063 214.818 223.599C214.682 225.673 214.668 227.816 214.805 230.026C215.037 233.847 215.719 237.86 216.988 242.008C216.988 242.008 223.673 238.214 227.766 240.452C229.499 241.394 231.464 243.073 233.401 245.133ZM218.83 229.781C218.802 229.235 218.775 228.689 218.761 228.143C221.531 228.634 224.26 229.371 226.92 230.34C226.184 231.923 225.515 233.793 225.324 235.731C223.359 235.635 221.408 236.004 219.744 236.509C219.266 234.284 218.966 232.032 218.83 229.781Z" fill="#F7EDE1"/>
<path d="M168.43 267.377C169.439 262.833 176.698 260.295 176.698 260.295C173.096 254.481 168.784 249.991 164.268 246.539C160.898 251.097 157.979 256.61 156.137 263.188C156.137 263.188 163.804 263.611 166.042 267.705C166.983 269.424 167.734 271.894 168.239 274.692C168.184 274.187 168.143 273.682 168.116 273.204C167.993 270.966 168.089 268.946 168.43 267.377ZM161.417 260.049C162.426 257.415 163.668 254.891 165.128 252.489C167.188 254.399 169.085 256.474 170.79 258.725C169.303 259.653 167.747 260.868 166.533 262.41C164.923 261.263 163.095 260.527 161.417 260.049Z" fill="#F7EDE1"/>
<path d="M112.274 252.707C111.96 247.494 110.882 242.745 109.34 238.487C104.033 240.507 98.6164 243.55 93.5 248.108C93.5 248.108 99.1212 252.188 99.394 256.583C99.4077 256.815 99.4077 257.033 99.394 257.265C99.2576 259.216 98.5481 261.714 97.4703 264.334C98.7528 261.809 100.185 259.653 101.577 258.275C104.892 255 112.355 256.787 112.355 256.787C112.383 255.395 112.355 254.044 112.274 252.707ZM99.626 248.313C101.904 246.634 104.306 245.188 106.83 243.946C107.539 246.662 108.003 249.446 108.221 252.257C106.475 252.229 104.497 252.42 102.641 253.062C101.918 251.233 100.772 249.623 99.626 248.313Z" fill="#F7EDE1"/>
<path d="M67.4679 202.024C61.915 200.85 55.7071 200.482 48.9399 201.546C48.9399 201.546 49.9768 204.207 50.1542 207.141C50.2633 209.011 50.0314 210.99 48.9399 212.436C47.7665 214.005 45.8292 215.711 43.4961 217.335C45.9519 215.902 48.3123 214.865 50.236 214.456C54.793 213.487 60.114 219.027 60.114 219.027C63.9206 213.35 66.2127 207.564 67.4679 202.024ZM53.9608 210.648C54.1791 209.502 54.2609 208.247 54.1791 206.896C54.1381 206.254 54.0699 205.627 53.9744 205.026C56.7986 204.849 59.6229 204.931 62.4198 205.258C61.5466 207.933 60.4278 210.512 59.0908 212.996C57.6309 212.027 55.8709 211.126 53.9608 210.648Z" fill="#F7EDE1"/>
<path d="M30.7526 149.853C35.105 151.504 36.5921 159.051 36.5921 159.051C42.8682 156.321 47.9163 152.678 51.9685 148.706C47.93 144.708 42.8955 141.051 36.6467 138.281C36.6467 138.281 35.1322 145.813 30.7663 147.437C28.9244 148.12 26.373 148.515 23.5352 148.625C26.3594 148.747 28.9107 149.157 30.7526 149.853ZM39.007 143.944C41.4765 145.322 43.7959 146.905 45.9653 148.693C43.7823 150.467 41.4492 152.036 38.9797 153.401C38.2703 151.804 37.2879 150.085 35.9372 148.666C37.2879 147.246 38.2839 145.527 39.007 143.944Z" fill="#F7EDE1"/>
<path d="M43.8633 80.0234C46.1827 81.6609 48.1064 83.3804 49.2798 84.9498C50.0575 86.0005 50.3986 87.3243 50.4804 88.6753C50.6851 92.1415 49.2252 95.8397 49.2252 95.8397C55.9788 96.9315 62.1867 96.6039 67.7533 95.4576C66.5117 89.9171 64.2605 84.1173 60.4949 78.3994C60.4949 78.3994 55.1466 83.9126 50.5896 82.9301C48.6658 82.507 46.3055 81.4562 43.8633 80.0234ZM62.6915 92.1961C59.8945 92.51 57.0703 92.5782 54.2461 92.3871C54.4371 91.1589 54.5462 89.7943 54.4644 88.4433C54.4234 87.8565 54.3552 87.297 54.2597 86.7648C56.1698 86.3144 57.9299 85.4137 59.4034 84.4448C60.7404 86.9285 61.8319 89.5214 62.6915 92.1961Z" fill="#F7EDE1"/>
<path d="M98.0424 33.2976C99.1066 35.9314 99.8024 38.4151 99.9252 40.3802C99.9252 40.3938 99.9252 40.4075 99.9252 40.4075C100.212 45.0473 93.9902 49.5097 93.9902 49.5097C99.0793 54.0813 104.482 57.1654 109.79 59.1988C111.741 53.863 112.982 47.763 112.9 40.926C112.9 40.926 105.424 42.6728 102.122 39.384C100.744 37.9784 99.3249 35.8222 98.0424 33.2976ZM108.739 45.4158C108.507 48.2269 108.03 50.9972 107.32 53.7129C104.796 52.471 102.395 50.9972 100.13 49.3187C101.29 48.0086 102.436 46.412 103.172 44.5833C105.014 45.2383 106.993 45.4294 108.739 45.4158Z" fill="#F7EDE1"/>
<path d="M156.725 34.7305C158.539 41.3354 161.418 46.8486 164.774 51.4202C169.304 47.995 173.643 43.5325 177.272 37.7327C177.272 37.7327 170.027 35.1535 169.045 30.6092C168.895 29.9133 168.799 29.1354 168.745 28.2893C168.649 26.7882 168.717 25.096 168.895 23.2947C168.363 26.0786 167.612 28.5486 166.657 30.2681C164.406 34.3347 156.725 34.7305 156.725 34.7305ZM171.323 39.2748C169.618 41.5128 167.708 43.6008 165.634 45.484C164.188 43.0686 162.96 40.5439 161.964 37.8965C163.642 37.4189 165.484 36.6956 167.08 35.5629C168.294 37.105 169.85 38.3332 171.323 39.2748Z" fill="#F7EDE1"/>
<path d="M215.214 74.6058C215.214 74.6194 215.214 74.6194 215.214 74.6331C220.876 74.1964 226.934 72.7908 233.128 69.8704C233.128 69.8704 229.963 65.7764 229.731 61.8872C229.677 61.0411 229.772 60.195 230.059 59.4171C230.741 57.5749 232.119 55.3914 233.892 53.1807C231.941 55.2413 229.963 56.9062 228.244 57.8341C224.151 60.0449 217.479 56.2238 217.479 56.2238C215.433 62.7469 214.873 68.9424 215.214 74.6058ZM225.747 62.5422C225.938 64.48 226.579 66.3632 227.316 67.9462C224.656 68.9152 221.927 69.6384 219.157 70.1024C219.239 67.2912 219.58 64.4937 220.167 61.7371C221.845 62.242 223.783 62.6241 225.747 62.5422Z" fill="#F7EDE1"/>
<path d="M256.964 107.167C251.711 111.561 247.891 116.473 245.121 121.427C250.115 124.116 255.981 126.217 262.762 127.104C262.762 127.104 262.762 127.036 262.749 126.913C262.68 125.699 262.448 119.189 265.832 116.665C267.401 115.491 269.748 114.399 272.436 113.485C269.68 114.167 267.115 114.495 265.164 114.345C260.497 113.99 256.964 107.167 256.964 107.167ZM260.525 116.951C259.638 118.684 259.16 120.608 258.928 122.341C256.172 121.714 253.485 120.854 250.892 119.749C252.489 117.429 254.276 115.259 256.268 113.267C257.387 114.59 258.819 115.969 260.525 116.951Z" fill="#F7EDE1"/>
<path d="M294.798 191.72C293.216 189.66 289.723 187.818 284.17 187.449C281.455 187.272 278.535 186.78 275.766 186.071C278.467 186.985 281.182 188.172 283.556 189.496C288.413 192.225 292.343 192.594 294.798 191.72Z" fill="#F7EDE1"/>
<path d="M240.523 255.027C243.129 259.94 246.254 262.369 248.778 262.956C248.56 260.363 246.622 256.924 242.147 253.621C239.964 252.011 237.767 250.019 235.816 247.931C237.59 250.169 239.241 252.625 240.523 255.027Z" fill="#F7EDE1"/>
<path d="M168.771 278.349C168.84 279.031 168.894 279.714 168.935 280.41C169.072 282.593 169.058 284.804 168.881 286.864C168.771 288.133 168.758 289.307 168.826 290.385C169.044 294.015 170.136 296.553 171.528 298C172.196 296.731 172.564 294.97 172.428 292.773C172.319 290.986 171.882 288.898 170.995 286.564C170.04 284.026 169.276 281.16 168.771 278.349Z" fill="#F7EDE1"/>
<path d="M93.3631 275.811C93.9225 273.15 94.823 270.325 95.9145 267.691C94.6183 270.243 93.0629 272.754 91.4121 274.91C88.4105 278.827 87.3599 282.279 87.51 284.79C87.5236 285.118 87.5646 285.418 87.6328 285.704C89.8976 284.449 92.217 281.256 93.3631 275.811Z" fill="#F7EDE1"/>
<path d="M40.399 219.328C37.9295 220.774 35.269 222.057 32.704 222.971C27.4784 224.854 24.6269 227.597 23.6719 230.013C26.2642 230.163 29.9479 228.73 33.85 224.773C35.7738 222.848 38.0659 220.952 40.399 219.328Z" fill="#F7EDE1"/>
<path d="M19.8378 148.611C16.9863 148.488 14.0393 148.12 11.3924 147.519C5.97588 146.277 2.10109 147.042 -0.0136719 148.556C2.08745 150.085 5.94859 150.876 11.3788 149.662C14.0393 149.075 16.9863 148.72 19.8378 148.611Z" fill="#F7EDE1"/>
<path d="M34.2446 72.5314C30.3562 68.5602 26.686 67.1 24.0938 67.2502C25.0352 69.6792 27.8594 72.4222 33.0849 74.3327C35.6363 75.2607 38.2968 76.5571 40.7526 78.0173C38.4196 76.3661 36.1547 74.4692 34.2446 72.5314Z" fill="#F7EDE1"/>
<path d="M94.0189 21.7936C92.9002 16.3486 90.5944 13.1417 88.3295 11.8589C88.2068 12.4457 88.1658 13.1007 88.2068 13.824C88.3568 16.2121 89.4756 19.2826 92.0543 22.6806C93.6915 24.8504 95.2332 27.375 96.5157 29.9269C95.4515 27.2932 94.5647 24.4547 94.0189 21.7936Z" fill="#F7EDE1"/>
<path d="M169.59 11.1219C169.603 11.3403 169.617 11.5586 169.63 11.777C169.781 14.3016 169.699 17.0173 169.426 19.6374C169.944 16.8262 170.736 13.9741 171.704 11.4358C172.905 8.3244 173.314 5.64968 173.178 3.52081C173.096 2.10157 172.768 0.91432 172.291 0C170.531 1.80135 169.221 5.3631 169.549 10.6443C169.562 10.7944 169.576 10.9582 169.59 11.1219Z" fill="#F7EDE1"/>
<path d="M241.055 43.3279C239.772 45.716 238.108 48.1724 236.32 50.3968C238.271 48.3225 240.482 46.3301 242.678 44.7335C247.167 41.4446 249.118 38.0194 249.35 35.4265C246.812 36.0133 243.688 38.4288 241.055 43.3279Z" fill="#F7EDE1"/>
<path d="M275.955 112.448C278.725 111.752 281.644 111.288 284.36 111.124C289.913 110.783 293.405 108.968 295.002 106.907C292.559 106.034 288.616 106.361 283.759 109.063C281.399 110.373 278.67 111.547 275.955 112.448Z" fill="#F7EDE1"/>
<path d="M218.053 193.768C218.285 197.602 221.014 200.918 224.779 201.382C227.113 201.669 228.586 200.891 229.487 200.004C229.691 199.445 229.828 198.776 229.773 198.025C229.718 197.179 229.446 196.21 228.804 195.146C226.635 191.57 221.832 190.574 218.053 192.608C218.04 193.003 218.04 193.385 218.053 193.768ZM225.393 197.234C225.434 197.302 225.462 197.357 225.503 197.425C225.434 197.425 225.366 197.411 225.284 197.398C224.206 197.261 223.279 196.592 222.692 195.61C223.811 195.746 224.82 196.306 225.393 197.234Z" fill="#F7EDE1"/>
<path d="M184.653 233.233C186.454 234.735 188.119 234.871 189.36 234.625C190.37 233.861 191.352 232.524 191.421 230.163C191.421 229.958 191.421 229.74 191.407 229.535C191.175 225.632 187.819 222.521 183.739 222.207C182.47 223.899 181.897 225.933 182.02 227.884C182.129 229.931 183.016 231.869 184.653 233.233ZM186.018 227.243C186.823 227.898 187.341 228.798 187.396 229.781C187.396 229.876 187.409 229.972 187.396 230.054C187.396 230.136 187.396 230.204 187.382 230.272C187.328 230.231 187.273 230.19 187.218 230.136C186.25 229.331 186.059 228.225 186.018 227.638C186.004 227.516 186.004 227.379 186.018 227.243Z" fill="#F7EDE1"/>
<path d="M141.02 239.388C141.962 237.996 142.358 236.386 142.262 234.789C142.126 232.428 140.911 230.095 138.851 228.539C135.399 229.822 133.148 233.138 133.353 236.563C133.394 237.15 133.489 237.723 133.68 238.31C134.39 240.548 135.713 241.572 136.886 242.022C138.142 241.94 139.697 241.34 141.02 239.388ZM137.5 237.109C137.419 236.85 137.378 236.591 137.35 236.331C137.296 235.526 137.569 234.707 138.046 234.011C138.155 234.339 138.224 234.694 138.237 235.035C138.264 235.567 138.196 236.372 137.678 237.136C137.637 237.205 137.596 237.259 137.555 237.314C137.541 237.246 137.528 237.177 137.5 237.109Z" fill="#F7EDE1"/>
<path d="M98.1931 212.108C98.1386 211.276 97.9748 210.43 97.6747 209.625C93.4724 208.71 89.1338 211.003 88.0423 215.042C87.824 215.861 87.7558 216.598 87.783 217.24C87.8513 218.372 88.2469 219.246 88.7245 219.901C89.8296 220.501 91.4668 220.842 93.6362 219.914C96.706 218.604 98.3841 215.397 98.1931 212.108ZM91.9034 216.08C92.1899 215.029 92.9949 214.224 94.0318 213.787C93.759 214.797 93.1313 215.752 92.0535 216.216C91.9853 216.243 91.9171 216.271 91.8488 216.298C91.8761 216.23 91.8898 216.161 91.9034 216.08Z" fill="#F7EDE1"/>
<path d="M73.2657 171.415C70.2232 168.371 65.3387 167.948 62.2416 170.759C60.4953 172.329 60.1269 173.953 60.1951 175.222C60.8091 176.327 61.9961 177.501 64.3155 177.897C68.4358 178.593 72.3243 175.618 73.2657 171.415ZM64.7657 173.898C64.8203 173.844 64.8612 173.803 64.9294 173.748C65.7344 173.025 66.8532 172.766 67.972 172.97C67.1397 173.734 66.0619 174.117 64.984 173.939C64.9021 173.925 64.8339 173.912 64.7657 173.898Z" fill="#F7EDE1"/>
<path d="M64.4528 119.571C62.1334 119.953 60.9464 121.113 60.3188 122.219C60.3052 122.423 60.3052 122.628 60.3188 122.846C60.387 123.993 60.8782 125.357 62.3381 126.695C65.4352 129.52 70.306 129.124 73.3758 126.094C72.4616 121.878 68.5869 118.889 64.4528 119.571ZM65.0532 123.72C64.9986 123.679 64.944 123.624 64.9031 123.57C64.9713 123.556 65.0395 123.542 65.1214 123.529C66.1856 123.351 67.2634 123.747 68.0957 124.511C66.9769 124.702 65.8445 124.457 65.0532 123.72Z" fill="#F7EDE1"/>
<path d="M98.52 84.4314C98.3427 81.5383 96.7191 78.8772 94.004 77.7036C91.8483 76.7756 90.2111 77.1032 89.0923 77.7036C88.5193 78.4815 88.0417 79.6005 88.1372 81.1016C88.1645 81.5519 88.2464 82.0296 88.3828 82.5481C89.4607 86.5875 93.772 88.9074 97.9879 88.0068C98.4109 86.8332 98.5882 85.6186 98.52 84.4314ZM92.244 81.511C92.2303 81.4428 92.203 81.3745 92.1894 81.3063C92.2576 81.3336 92.3258 81.3609 92.394 81.3882C93.5128 81.8658 94.1131 82.862 94.3587 83.8309C93.3355 83.3806 92.5305 82.5618 92.244 81.511Z" fill="#F7EDE1"/>
<path d="M142.699 62.0782C142.617 60.809 142.222 59.5672 141.485 58.4482C140.175 56.4967 138.62 55.8963 137.365 55.7871C136.178 56.2374 134.854 57.2473 134.131 59.4853C133.845 60.3587 133.749 61.2594 133.804 62.1328C133.995 65.2169 136.137 68.0827 139.275 69.2699C141.594 67.5232 142.863 64.7665 142.699 62.0782ZM137.801 61.9008C137.774 61.505 137.829 61.1093 137.951 60.7272C137.979 60.6589 137.992 60.5907 138.02 60.5225C138.061 60.577 138.101 60.6316 138.142 60.6999C138.47 61.1911 138.647 61.737 138.688 62.3375C138.715 62.8424 138.647 63.3473 138.483 63.8386C138.088 63.2381 137.842 62.5831 137.801 61.9008Z" fill="#F7EDE1"/>
<path d="M182.402 71.2077C182.498 72.8317 183.071 74.4556 184.094 75.8475C188.392 75.5337 191.898 72.122 191.816 67.9462C191.816 67.837 191.816 67.7278 191.803 67.6187C191.68 65.4762 190.739 64.2207 189.784 63.4838C188.542 63.2245 186.891 63.3609 185.076 64.8484C183.153 66.4314 182.266 68.8059 182.402 71.2077ZM187.805 67.8507V68.0281C187.832 69.1061 187.287 70.1296 186.4 70.8393C186.359 69.6656 186.809 68.6149 187.628 67.9462C187.682 67.8916 187.737 67.8507 187.792 67.8097C187.805 67.8234 187.805 67.837 187.805 67.8507Z" fill="#F7EDE1"/>
<path d="M218.284 105.57C218.284 105.584 218.284 105.611 218.284 105.624C222.063 107.685 226.866 106.716 229.049 103.141C229.867 101.817 230.099 100.643 230.031 99.6472C230.004 99.1423 229.894 98.6783 229.744 98.2826C228.844 97.3956 227.37 96.6041 225.037 96.877C220.917 97.3683 218.024 101.285 218.284 105.57ZM225.624 101.039C225.051 101.967 224.055 102.513 222.936 102.649C223.523 101.681 224.451 100.998 225.528 100.875C225.61 100.862 225.679 100.862 225.747 100.862C225.706 100.916 225.665 100.985 225.624 101.039Z" fill="#F7EDE1"/>
<path d="M230.945 149.157C233.005 152.937 237.576 154.711 241.342 152.896C243.457 151.873 244.275 150.426 244.562 149.198C244.289 147.97 243.47 146.51 241.369 145.472C237.59 143.63 233.019 145.377 230.945 149.157ZM239.595 149.075C239.664 149.102 239.732 149.143 239.786 149.171C239.732 149.198 239.664 149.239 239.595 149.266C238.613 149.73 237.467 149.662 236.457 149.157C237.481 148.666 238.627 148.597 239.595 149.075Z" fill="#F7EDE1"/>
<path d="M197.206 164.81C198.052 164.537 198.829 164.073 199.498 163.472C199.266 162.599 198.87 161.794 198.297 161.098C193.413 155.107 185.841 158.983 185.309 159.269C185.609 159.801 189.838 167.17 197.206 164.81Z" fill="#F7EDE1"/>
<path d="M185.361 138.799C185.893 139.086 193.438 143.002 198.364 137.039C198.937 136.343 199.332 135.538 199.578 134.664C198.909 134.05 198.132 133.586 197.286 133.313C189.932 130.911 185.661 138.267 185.361 138.799Z" fill="#F7EDE1"/>
<path d="M136.054 185.648C135.931 183.683 135.413 182.182 135.331 181.95C134.785 182.154 127.609 185.007 128.032 191.843C128.059 192.198 128.1 192.553 128.154 192.922C128.305 193.809 128.646 194.627 129.15 195.392C130.051 195.282 130.91 195.009 131.675 194.545C135.577 192.198 136.231 188.445 136.054 185.648Z" fill="#F7EDE1"/>
<path d="M174.216 177.91C174.38 180.571 175.43 186.003 181.215 187.545C182.075 187.777 182.975 187.804 183.876 187.654C184.121 186.89 184.23 186.098 184.176 185.32C184.176 185.211 184.162 185.116 184.148 185.007C183.275 177.324 174.816 176.491 174.202 176.45C174.202 176.587 174.175 177.133 174.216 177.91Z" fill="#F7EDE1"/>
<path d="M131.566 170.691L134.649 170.882C136.491 170.991 138.251 171.373 139.902 172.015C141.458 172.847 142.904 173.939 144.186 175.263L146.328 177.473L149.016 175.972C150.626 175.072 152.318 174.444 154.051 174.089C155.811 173.939 157.612 174.089 159.399 174.499L162.4 175.195L163.847 172.465C164.72 170.841 165.798 169.395 167.067 168.167C168.472 167.088 170.055 166.242 171.801 165.615L174.707 164.577L174.461 161.507L174.434 161.111C174.325 159.405 174.475 157.741 174.843 156.144C175.444 154.479 176.317 152.91 177.449 151.449L179.332 149.007L177.463 146.55C176.344 145.09 175.471 143.494 174.884 141.842C174.68 140.955 174.557 140.041 174.489 139.113C174.434 138.253 174.448 137.366 174.53 136.479L174.803 133.409L171.896 132.372C170.164 131.744 168.581 130.884 167.176 129.806C165.921 128.578 164.843 127.118 163.983 125.494L162.551 122.764L159.549 123.447C157.748 123.856 155.947 123.993 154.187 123.829C152.454 123.474 150.776 122.833 149.166 121.918L146.478 120.404L144.323 122.601C143.027 123.924 141.58 125.002 140.025 125.821C138.374 126.463 136.614 126.831 134.772 126.94L131.689 127.118L131.061 130.134C130.693 131.935 130.051 133.627 129.192 135.169C128.155 136.588 126.872 137.858 125.372 138.949L122.875 140.764L123.98 143.644C124.635 145.336 125.017 147.083 125.126 148.816V148.898C125.017 150.658 124.621 152.418 123.953 154.138L122.834 157.017L125.317 158.846C126.804 159.938 128.087 161.207 129.11 162.64C129.97 164.182 130.597 165.874 130.966 167.689L131.566 170.691ZM132.494 160.456C131.225 158.655 129.615 157.004 127.677 155.584C128.551 153.36 129.015 151.095 129.124 148.898C129.124 148.788 129.11 148.679 129.11 148.57C128.987 146.468 128.523 144.326 127.705 142.197C129.642 140.792 131.266 139.14 132.548 137.353C133.653 135.442 134.486 133.3 134.977 130.952C137.364 130.816 139.616 130.311 141.662 129.492C143.627 128.496 145.496 127.131 147.161 125.426C149.248 126.599 151.417 127.391 153.573 127.814C155.77 128.032 158.075 127.896 160.409 127.363C161.527 129.479 162.919 131.321 164.515 132.849C166.248 134.214 168.254 135.347 170.505 136.165C170.409 137.257 170.396 138.335 170.464 139.386C170.532 140.628 170.723 141.842 170.996 143.002C171.705 145.09 172.783 147.124 174.243 149.034C172.783 150.931 171.692 152.964 170.969 155.052C170.478 157.045 170.273 159.187 170.409 161.411C170.423 161.575 170.437 161.725 170.437 161.889C168.185 162.694 166.166 163.813 164.433 165.178C162.837 166.693 161.432 168.521 160.299 170.637C157.966 170.091 155.661 169.941 153.464 170.159C151.295 170.568 149.125 171.346 147.038 172.52C145.373 170.8 143.504 169.436 141.553 168.426C139.506 167.593 137.255 167.075 134.868 166.938C134.417 164.523 133.599 162.367 132.494 160.456Z" fill="#F7EDE1"/>
<path d="M119.914 168.508C119.314 168.385 110.978 166.747 107.935 173.857C107.581 174.676 107.431 175.563 107.444 176.477C108.263 176.873 109.136 177.105 110.023 177.132C117.745 177.364 119.778 169.094 119.914 168.508Z" fill="#F7EDE1"/>
<path d="M101.223 146.878C100.486 147.383 99.8721 148.038 99.3945 148.816C99.8721 149.594 100.472 150.249 101.209 150.753C107.581 155.134 113.748 149.28 114.184 148.843C113.761 148.434 107.622 142.538 101.223 146.878Z" fill="#F7EDE1"/>
<path d="M110.159 120.567C109.272 120.595 108.399 120.813 107.58 121.209C107.58 121.4 107.58 121.591 107.594 121.782C107.635 122.492 107.785 123.174 108.058 123.815C111.059 130.939 119.409 129.356 120.009 129.233C119.873 128.646 117.895 120.376 110.159 120.567Z" fill="#F7EDE1"/>
<path d="M174.353 121.55C174.353 121.564 174.353 121.564 174.353 121.55C174.967 121.509 183.426 120.731 184.34 113.048C184.381 112.693 184.394 112.338 184.367 111.984C184.34 111.451 184.231 110.919 184.067 110.401C183.166 110.251 182.266 110.278 181.406 110.496C173.943 112.448 174.312 120.909 174.353 121.55Z" fill="#F7EDE1"/>
<path d="M136.245 110.592C136.095 108.067 135.099 105.188 131.906 103.25C131.142 102.786 130.296 102.499 129.382 102.39C128.877 103.141 128.522 103.973 128.372 104.847C128.236 105.638 128.195 106.375 128.236 107.071C128.604 113.089 134.989 115.655 135.494 115.859C135.603 115.573 136.408 113.294 136.245 110.592Z" fill="#F7EDE1"/>
<path d="M160.272 193.003C159.999 188.391 155.961 185.197 155.579 184.911C155.333 185.252 152.877 188.664 153.123 192.621C153.232 194.382 153.873 196.265 155.469 198.025C156.07 198.68 156.806 199.199 157.639 199.554C158.335 198.98 158.908 198.285 159.303 197.479C160.095 195.883 160.354 194.382 160.272 193.003Z" fill="#F7EDE1"/>
<path d="M160.832 222.071L162.455 220.979C168.172 217.117 171.487 211.563 172.579 204.03C172.838 202.229 172.92 200.468 172.811 198.776C172.797 198.503 172.77 198.244 172.743 197.984C174.08 199.39 175.635 200.686 177.409 201.846C183.794 205.995 190.152 207.155 196.824 205.395L198.72 204.89L199.498 203.088C200.93 199.759 201.544 196.306 201.34 192.826C201.149 189.756 200.316 186.576 198.856 183.355C197.97 181.418 196.919 179.684 195.705 178.142C197.56 178.62 199.566 178.879 201.749 178.893C209.362 178.934 215.338 176.477 220.004 171.374L221.327 169.927L221 167.989C219.854 161.18 216.197 155.858 209.785 151.736C208.011 150.59 206.183 149.703 204.341 149.062C206.183 148.434 208.025 147.56 209.799 146.414C216.225 142.32 219.922 137.025 221.096 130.229L221.423 128.305L220.113 126.859C215.474 121.741 209.512 119.257 201.899 119.257C199.661 119.257 197.656 119.517 195.882 119.94C197.096 118.425 198.147 116.692 199.034 114.781C200.958 110.619 201.817 106.498 201.585 102.554C201.435 100.029 200.835 97.5048 199.784 95.0484L199.02 93.2471L197.124 92.7422C190.452 90.9545 184.094 92.0735 177.695 96.1947C175.922 97.341 174.352 98.6238 173.002 100.043C173.138 98.7739 173.165 97.4639 173.084 96.1265C173.043 95.4305 172.974 94.7209 172.865 93.984C171.815 86.4374 168.54 80.8833 162.837 76.9804L161.214 75.875L159.345 76.4755C152.768 78.577 148.02 82.9576 144.855 89.89C143.968 91.8142 143.354 93.7383 142.986 95.6489C142.099 93.9158 140.967 92.2236 139.602 90.6406C134.65 84.8544 128.878 81.9614 121.975 81.7567L120.01 81.7021L118.768 83.2169C114.935 87.8567 113.188 93.4108 113.57 99.7292C113.625 100.575 113.707 101.435 113.843 102.336C114.143 104.424 114.662 106.389 115.398 108.204C113.775 107.248 111.933 106.443 109.832 105.816C102.532 103.632 96.12 104.314 90.1986 107.876L88.5205 108.886L88.2885 110.837C88.1111 112.27 88.0702 113.703 88.1521 115.082C88.4659 120.213 90.5806 125.098 94.4691 129.574C95.8607 131.171 97.3615 132.549 98.9442 133.668C96.9931 133.75 94.9875 134.078 92.9546 134.664C85.6416 136.78 80.6072 140.819 77.5646 147.015L76.7051 148.775L77.5646 150.535C80.5799 156.758 85.5871 160.811 92.9001 162.967C94.933 163.568 96.9386 163.909 98.876 163.991C97.2797 165.11 95.7652 166.475 94.3736 168.071C89.6938 173.421 87.5927 179.111 87.9747 185.443C88.002 185.894 88.0429 186.344 88.0975 186.794L88.3158 188.746L89.994 189.769C95.888 193.372 102.301 194.082 109.613 191.939C111.701 191.325 113.57 190.52 115.207 189.565C114.471 191.366 113.939 193.345 113.625 195.433C113.311 197.52 113.215 199.554 113.325 201.464C113.625 206.363 115.344 210.771 118.455 214.565L119.696 216.08L121.661 216.039C128.564 215.875 134.349 213.009 139.329 207.25C140.803 205.558 141.908 203.88 142.74 202.269C143.095 204.18 143.709 206.104 144.582 208.028C147.706 214.974 152.427 219.382 159.003 221.511L160.832 222.071ZM195.186 185.02C196.496 187.9 197.165 190.561 197.315 193.072C197.492 196.101 196.919 198.885 195.787 201.505C190.752 202.829 185.445 202.283 179.578 198.476C173.739 194.682 171.528 189.796 171.269 185.498C171.037 181.568 172.429 178.129 174.175 176.45C178.227 173.311 189.661 172.929 195.186 185.02ZM207.588 155.134C213.469 158.914 216.157 163.527 217.016 168.672C213.496 172.506 208.734 174.922 201.735 174.881C190.247 174.826 185.445 166.911 185.117 161.562C185.063 160.716 185.131 159.938 185.295 159.269C187 154.438 196.414 147.942 207.588 155.134ZM217.112 129.574C216.225 134.705 213.523 139.304 207.616 143.057C196.401 150.194 187.027 143.644 185.336 138.813C185.254 138.458 185.199 138.062 185.172 137.653C184.858 132.372 189.538 123.283 201.858 123.283C208.871 123.283 213.619 125.712 217.112 129.574ZM179.837 99.5791C185.718 95.799 191.025 95.2804 196.059 96.6314C196.892 98.5965 197.41 100.644 197.547 102.813C197.738 105.952 197.096 109.35 195.364 113.103C189.783 125.166 178.35 124.73 174.325 121.577C172.852 120.144 171.651 117.483 171.46 114.331C171.174 109.637 173.152 103.878 179.837 99.5791ZM148.498 91.5413C151.404 85.182 155.593 81.8658 160.545 80.2828C164.843 83.2169 167.899 87.5974 168.868 94.5162C168.95 95.144 169.018 95.758 169.045 96.3448C169.768 108.217 160.586 113.471 155.743 113.021C152.113 112.298 147.038 107.699 146.615 100.616C146.465 97.9415 146.97 94.8847 148.498 91.5413ZM117.786 101.749C117.677 100.971 117.595 100.207 117.554 99.4699C117.199 93.6974 118.905 89.3169 121.838 85.7551C127.036 85.9052 131.975 87.9249 136.532 93.2334C139.67 96.8907 140.994 100.548 141.185 103.864C141.54 109.691 138.388 114.399 135.495 115.9C130.761 117.756 119.682 114.904 117.786 101.749ZM97.4707 126.927C93.937 122.846 92.368 118.821 92.1224 114.809C92.0541 113.635 92.0951 112.461 92.2315 111.274C96.693 108.586 101.932 107.617 108.631 109.623C117.5 112.27 120.774 118.602 121.088 123.693C121.224 125.917 120.788 127.896 120.024 129.233C117.036 133.395 106.175 136.984 97.4707 126.927ZM93.9779 159.105C87.2652 157.127 83.3905 153.469 81.1256 148.775C83.4177 144.094 87.3062 140.451 94.0325 138.513C106.762 134.842 113.898 143.685 114.211 148.802C114.211 148.816 114.211 148.843 114.211 148.857C113.939 153.961 106.735 162.858 93.9779 159.105ZM111.483 160.306C115.371 157.427 118.004 153.06 118.223 149.089L118.236 148.802L118.223 148.57C117.991 144.613 115.371 140.287 111.537 137.407C116.367 137.093 120.938 134.842 123.284 131.608L123.407 131.43L123.516 131.253C124.717 129.151 125.29 126.395 125.113 123.461C125.003 121.755 124.635 119.953 123.953 118.152C128.196 120.513 133.272 121.1 136.983 119.64L137.174 119.558L137.365 119.462C140.598 117.784 143.723 113.812 144.828 108.695C147.229 113.185 151.213 116.228 154.979 116.978L155.183 117.019L155.388 117.033C159.276 117.401 163.82 115.559 167.244 112.243C167.326 112.161 167.394 112.093 167.476 112.011C167.408 112.857 167.408 113.703 167.462 114.563C167.694 118.507 169.222 122.219 171.556 124.457L171.706 124.607L171.869 124.743C175.007 127.2 180.028 128.1 184.763 127.063C182.32 130.311 180.97 134.31 181.188 137.899C181.229 138.54 181.311 139.154 181.447 139.741L181.502 139.946L181.57 140.15C182.88 143.917 186.618 147.383 191.161 149.062C186.618 150.726 182.852 154.179 181.529 157.932L181.461 158.136L181.406 158.341C181.147 159.406 181.052 160.579 181.133 161.807C181.324 164.973 182.539 168.221 184.667 171.032C179.933 169.968 174.912 170.841 171.747 173.284L171.583 173.407L171.433 173.557C168.595 176.286 166.999 180.954 167.285 185.757C167.285 185.839 167.299 185.907 167.299 185.989C166.944 185.634 166.589 185.293 166.207 184.966C162.946 182.154 158.744 180.599 155.224 180.899L155.019 180.913L154.815 180.954C150.94 181.704 147.011 184.72 144.623 189.128C143.504 183.819 140.284 179.985 137.215 178.374L137.024 178.279L136.833 178.197C133.121 176.723 128.046 177.283 123.789 179.616C124.744 177.132 125.126 174.581 124.976 172.179C124.853 170.05 124.308 168.085 123.421 166.515L123.312 166.338L123.189 166.161C120.869 162.913 116.313 160.647 111.483 160.306ZM92.0542 186.317C92.0132 185.935 91.9723 185.566 91.9586 185.184C91.6721 180.38 93.1047 175.577 97.3615 170.705C106.121 160.702 116.954 164.346 119.928 168.494C120.501 169.504 120.883 170.869 120.965 172.424C121.279 177.706 118.304 185.17 108.44 188.063C101.727 190.015 96.4883 189.032 92.0542 186.317ZM136.259 204.589C131.675 209.871 126.736 211.877 121.524 211.999C119.109 209.052 117.554 205.558 117.295 201.191C117.199 199.581 117.281 197.848 117.554 195.992C119.505 182.837 130.597 180.039 135.345 181.936C137.924 183.287 140.68 187.176 140.98 192.144C141.198 195.883 140.011 200.25 136.259 204.589ZM148.211 206.336C147.079 203.812 146.506 201.451 146.383 199.281C145.892 191.052 151.609 185.662 155.579 184.884C160.054 184.488 168.199 188.978 168.8 199.022C168.881 200.4 168.827 201.874 168.595 203.457C167.599 210.376 164.515 214.742 160.204 217.649C155.251 216.052 151.076 212.709 148.211 206.336Z" fill="#F7EDE1"/>
<path d="M162.128 231.309C171.283 227.284 177.095 221.156 180.138 214.292C187.3 216.516 195.746 216.189 204.805 211.945C209.662 204.63 211.463 197.343 211.054 190.656C210.999 189.728 210.904 188.8 210.754 187.886C217.985 185.88 224.902 181.035 230.237 172.574C230.251 171.455 230.223 170.377 230.169 169.313C229.664 160.852 226.662 154.111 222.242 149.116C227.235 143.521 230.442 135.701 230.36 125.699C225.08 117.21 218.176 112.325 210.958 110.292C211.3 108.163 211.409 105.966 211.272 103.714C210.931 98.1052 209.035 92.1689 205.119 86.2054C196.087 81.9204 187.642 81.5519 180.465 83.7354C177.45 76.8575 171.678 70.7029 162.537 66.6226C152.618 67.9053 145.319 72.1494 140.462 77.881C134.213 73.7324 126.027 71.6718 116.135 73.1866C108.481 79.6277 104.634 87.147 103.651 94.5844C96.1474 94.4752 88.1386 97.1636 80.6482 103.782C79.1611 108.599 78.629 113.13 78.8882 117.306C79.1338 121.414 80.1434 125.18 81.7124 128.551C75.3408 132.508 70.0608 139.099 67.332 148.734C70.0062 158.368 75.259 164.987 81.6033 168.985C79.4612 173.489 78.3561 178.702 78.7108 184.502C78.8882 187.436 79.4339 190.52 80.4163 193.74C87.8793 200.4 95.8745 203.129 103.378 203.061C104.334 210.498 108.14 218.045 115.753 224.527C125.631 226.096 133.831 224.077 140.107 219.955C144.937 225.701 152.223 229.986 162.128 231.309ZM137.91 216.598C132.262 220.31 125.236 221.729 117.513 220.72C111.728 215.507 108.222 209.243 107.362 202.542L106.912 199.008L103.338 199.049C96.584 199.117 89.8986 196.511 83.95 191.489C83.2814 189.032 82.8721 186.603 82.722 184.27C82.4219 179.398 83.2678 174.84 85.2325 170.719L86.7606 167.498L83.7453 165.601C78.0286 162.012 73.8128 156.199 71.5206 148.761C73.8537 141.337 78.0968 135.551 83.8272 131.976L86.8561 130.093L85.3416 126.858C83.9227 123.829 83.0904 120.54 82.8858 117.088C82.6675 113.567 83.1041 109.869 84.1546 106.088C90.1305 101.107 96.8295 98.5282 103.583 98.6237L107.144 98.6783L107.622 95.1439C108.508 88.4434 112.042 82.2069 117.854 77.0212C125.577 76.066 132.603 77.5125 138.224 81.2517L141.199 83.2304L143.504 80.5148C147.87 75.37 154.228 72.0266 161.91 70.8121C168.922 74.1828 174.052 79.2047 176.768 85.3866L178.2 88.6618L181.611 87.6246C188.078 85.6595 195.214 86.2736 202.349 89.4123C205.296 94.1886 206.947 99.1014 207.247 104.014C207.357 105.925 207.275 107.835 206.975 109.718L206.415 113.239L209.853 114.208C216.348 116.05 222.023 120.431 226.335 126.927C226.185 134.705 223.743 141.46 219.254 146.496L216.88 149.157L219.24 151.832C223.401 156.54 225.734 162.517 226.157 169.613C226.198 170.214 226.212 170.828 226.226 171.442C221.887 177.91 216.198 182.264 209.69 184.079L206.251 185.034L206.797 188.568C206.92 189.36 207.002 190.151 207.056 190.956C207.425 196.961 205.747 202.965 202.076 208.833C194.941 211.931 187.778 212.518 181.338 210.512L177.927 209.461L176.481 212.723C173.739 218.891 168.595 223.886 161.555 227.229C153.874 225.973 147.543 222.603 143.191 217.431L140.898 214.701L137.91 216.598Z" fill="#F7EDE1"/>
<path d="M155.756 113.007C156.151 112.707 160.804 109.077 160.49 103.891C160.422 102.8 160.135 101.653 159.549 100.439C159.153 99.6336 158.594 98.9376 157.898 98.3508C157.066 98.7056 156.315 99.2106 155.715 99.8792C153.737 102.022 153.204 104.355 153.327 106.443C153.546 109.909 155.537 112.707 155.756 113.007Z" fill="#F7EDE1"/>
<path d="M152.563 163.527C152.645 163.513 152.727 163.486 152.795 163.472C154.159 163.172 155.51 163.022 156.861 162.981C157.788 161.998 158.798 161.07 159.917 160.252C159.985 160.197 160.053 160.156 160.108 160.101C160.162 160.047 160.217 159.992 160.285 159.924C161.267 158.941 162.318 158.068 163.437 157.304C163.682 155.98 164.037 154.656 164.528 153.36C164.556 153.278 164.583 153.21 164.61 153.128C164.624 153.046 164.637 152.964 164.665 152.896C164.965 151.545 165.374 150.235 165.906 148.993C165.388 147.738 164.978 146.441 164.692 145.077C164.678 144.995 164.665 144.913 164.637 144.845C164.61 144.763 164.583 144.694 164.556 144.613C164.064 143.316 163.723 141.992 163.491 140.655C162.386 139.877 161.336 139.004 160.353 138.021C160.299 137.967 160.244 137.912 160.19 137.844C160.121 137.803 160.053 137.748 159.999 137.694C158.893 136.861 157.884 135.933 156.956 134.951C155.605 134.896 154.255 134.732 152.89 134.432C152.808 134.419 152.727 134.391 152.658 134.378C152.576 134.378 152.495 134.364 152.413 134.364C151.021 134.268 149.684 134.036 148.374 133.695C147.214 134.378 145.973 134.978 144.677 135.456C144.595 135.483 144.527 135.51 144.445 135.538C144.377 135.579 144.308 135.619 144.227 135.66C143.012 136.329 141.743 136.861 140.461 137.284C139.861 138.499 139.137 139.659 138.305 140.764C138.251 140.832 138.21 140.887 138.155 140.955C138.114 141.024 138.073 141.092 138.046 141.174C137.377 142.388 136.613 143.521 135.754 144.572C135.795 144.926 135.822 145.268 135.836 145.622C135.89 146.632 135.89 147.642 135.808 148.666C135.808 148.747 135.795 148.829 135.795 148.911C135.795 148.993 135.808 149.075 135.808 149.157C135.808 149.239 135.822 149.307 135.822 149.389C135.904 150.699 135.863 151.982 135.727 153.264C136.572 154.315 137.337 155.448 137.991 156.676C138.032 156.744 138.073 156.813 138.101 156.894C138.155 156.963 138.196 157.017 138.251 157.086C139.083 158.205 139.792 159.364 140.393 160.579C141.675 161.002 142.93 161.548 144.145 162.217C144.213 162.258 144.281 162.299 144.363 162.339C144.445 162.367 144.513 162.394 144.595 162.421C145.891 162.913 147.119 163.513 148.279 164.195C149.588 163.868 150.939 163.636 152.317 163.554C152.399 163.527 152.481 163.527 152.563 163.527ZM146.41 157.836C145.564 157.372 144.704 156.963 143.831 156.594C143.353 155.789 142.821 154.984 142.248 154.206C141.784 153.36 141.28 152.541 140.747 151.763C140.775 150.876 140.775 149.976 140.72 149.075C140.72 149.02 140.706 148.966 140.706 148.911C140.775 147.942 140.788 146.987 140.761 146.045C141.293 145.268 141.798 144.462 142.275 143.616C142.849 142.839 143.381 142.047 143.872 141.242C144.745 140.887 145.605 140.478 146.45 140.014C147.351 139.673 148.224 139.29 149.07 138.881C149.998 139.045 150.939 139.168 151.908 139.249C152.849 139.454 153.791 139.604 154.732 139.713C155.414 140.355 156.151 140.969 156.915 141.556C157.597 142.238 158.307 142.879 159.044 143.466C159.275 144.381 159.562 145.295 159.889 146.196C160.094 147.137 160.353 148.065 160.64 148.952C160.34 149.853 160.08 150.767 159.876 151.709C159.535 152.609 159.248 153.524 159.016 154.438C158.279 155.025 157.57 155.666 156.888 156.349C156.11 156.922 155.387 157.536 154.691 158.177C153.75 158.273 152.808 158.423 151.867 158.628C150.898 158.696 149.957 158.819 149.029 158.982C148.183 158.573 147.31 158.191 146.41 157.836Z" fill="#F7EDE1"/>
</g>
<defs>
<clipPath id="clip0_1197_173">
<rect width="299" height="298" fill="white"/>
</clipPath>
</defs>
</svg>
