<svg width="34" height="34" viewBox="0 0 34 34" fill="none" xmlns="http://www.w3.org/2000/svg">
<path d="M0.852539 24.0313C1.03418 23.7718 0.989623 23.4563 1.05245 23.1683C1.44314 21.3657 2.33648 19.8534 3.63421 18.5607C5.98064 16.222 8.32249 13.8776 10.6644 11.5355C13.2667 8.9328 15.869 6.33124 18.469 3.72624C19.7622 2.43003 21.2667 1.50988 23.0773 1.15668C26.2988 0.528007 29.1239 1.35443 31.3572 3.74682C33.851 6.41925 34.4256 9.57291 33.2102 13.0272C32.7738 14.2674 32.0175 15.3121 31.0934 16.2391C26.1115 21.2377 21.1399 26.2465 16.1466 31.2336C13.0885 34.2878 8.53612 34.7976 4.91595 32.4772C2.73402 31.0781 1.43515 29.0561 0.982769 26.4968C0.958779 26.3608 0.999905 26.1905 0.852539 26.0887C0.852539 25.4029 0.852539 24.7171 0.852539 24.0313ZM9.71961 32.092C11.576 32.1194 13.4392 31.3547 14.8431 29.9568C17.0628 27.745 19.2675 25.5184 21.486 23.3054C21.6562 23.1363 21.6745 23.0482 21.494 22.8676C18.2977 19.6774 15.1082 16.4803 11.9244 13.2775C11.753 13.1049 11.6685 13.0981 11.4926 13.2741C9.26609 15.5144 7.02705 17.7422 4.79943 19.9815C3.52454 21.2628 2.80485 22.8105 2.70204 24.6176C2.47128 28.6823 5.6265 32.0326 9.71961 32.092ZM25.1268 2.79695C23.1116 2.83581 21.4974 3.36275 20.2146 4.6041C17.835 6.90733 15.5149 9.27229 13.1604 11.6018C12.9457 11.8144 13.109 11.8944 13.2267 12.0122C16.4025 15.1898 19.5794 18.3663 22.7495 21.5497C22.9334 21.7349 23.0237 21.7486 23.2156 21.5554C25.4112 19.3368 27.6206 17.1307 29.8219 14.9155C31.1356 13.593 31.8542 12.0064 31.9341 10.133C32.1032 6.14835 28.8783 2.78437 25.1268 2.79695Z" fill="#9CC9C0"/>
<path d="M19.1407 12.3137C18.6564 12.3115 18.3788 12.156 18.2154 11.8348C18.0543 11.5193 18.0612 11.2027 18.2794 10.9078C18.3388 10.8266 18.4005 10.7444 18.4713 10.6746C19.4537 9.70418 20.4328 8.73145 21.4221 7.76901C21.9384 7.26721 22.5781 7.30036 22.9117 7.83188C23.1116 8.14964 23.1139 8.47541 22.9094 8.79089C22.8352 8.90634 22.7415 9.01378 22.6432 9.11094C21.6882 10.0551 20.7321 10.997 19.7748 11.9388C19.5646 12.1457 19.3384 12.3263 19.1407 12.3137Z" fill="#9CC9C0"/>
</svg>
