<svg width="50" height="50" viewBox="0 0 50 50" fill="none" xmlns="http://www.w3.org/2000/svg">
<path d="M39.7504 37.6194C39.3072 37.312 38.6987 37.4225 38.3915 37.8658C38.0939 38.2955 37.7566 38.7132 37.3885 39.1077C37.1419 39.3722 36.8027 39.6912 36.4335 40.0052C36.0228 40.3548 35.9732 40.9711 36.3227 41.382C36.5159 41.6089 36.7906 41.7255 37.0669 41.7255C37.2907 41.7255 37.5156 41.6491 37.6994 41.4926C38.1301 41.126 38.5167 40.762 38.8169 40.4396C39.2488 39.9769 39.6458 39.4852 39.997 38.9782C40.3041 38.5349 40.1938 37.9265 39.7504 37.6194Z" fill="#2E514A"/>
<path d="M35.4958 41.9977C35.2667 41.5095 34.6855 41.2993 34.197 41.5283L34.1665 41.5421C33.673 41.7598 33.4496 42.3363 33.6674 42.8298C33.8286 43.195 34.1862 43.4123 34.5613 43.4123C34.693 43.4123 34.8269 43.3854 34.955 43.3289C34.9789 43.3184 35.0025 43.3077 35.0262 43.2967C35.5145 43.0676 35.7248 42.4862 35.4958 41.9977Z" fill="#2E514A"/>
<path d="M47.0825 2.53918H2.91747C1.30869 2.53918 0 3.84807 0 5.45666V32.825C0 34.4335 1.30869 35.7422 2.91747 35.7422H23.4825C24.3542 39.4307 26.3256 42.043 28.0486 43.7166C30.5634 46.1598 33.4462 47.4609 34.5604 47.4609C35.6744 47.4609 38.5573 46.1599 41.0722 43.7167C42.7951 42.043 44.7666 39.4307 45.6383 35.7423H47.0825C48.6912 35.7423 50 34.4336 50 32.8251V5.45666C50 3.84807 48.6912 2.53918 47.0825 2.53918ZM44.1405 31.7401C44.1406 36.8854 41.7655 40.2984 39.773 42.2555C37.4094 44.5771 34.9849 45.4801 34.5604 45.5076C34.1358 45.4801 31.7112 44.5772 29.3476 42.2555C27.3552 40.2984 24.9801 36.8854 24.9801 31.7401V26.9309C28.3424 25.9586 31.4885 24.6278 34.5607 22.879C37.5636 24.5834 40.8507 25.9733 44.1405 26.9303V31.7401ZM48.0469 32.825C48.0469 33.3566 47.6142 33.7891 47.0825 33.7891H45.9779C46.0527 33.1347 46.0938 32.4523 46.0938 31.7401V26.1905C46.0938 25.7497 45.7985 25.3636 45.3732 25.2481C41.827 24.2851 38.2585 22.7846 35.0536 20.9087C34.749 20.7304 34.3718 20.7306 34.0669 20.9089C30.7712 22.838 27.3957 24.2572 23.7476 25.2481C23.3223 25.3637 23.027 25.7498 23.027 26.1905V31.7401C23.027 32.4523 23.0679 33.1347 23.1428 33.7891H2.91747C2.38574 33.7891 1.95312 33.3565 1.95312 32.825V16.2108H48.0469V32.825ZM48.0469 14.2578H1.95312V10.3518H48.0469V14.2578ZM48.0469 8.39855H1.95312V5.45666C1.95312 4.92492 2.38574 4.49231 2.91747 4.49231H47.0825C47.6142 4.49231 48.0469 4.92492 48.0469 5.45666V8.39855Z" fill="#2E514A"/>
<path d="M11.7183 23.0469C11.1296 23.0469 10.5482 23.1659 10.0101 23.3929C9.48446 23.1701 8.90673 23.0469 8.30087 23.0469C5.87773 23.0469 3.90625 25.0182 3.90625 27.4412C3.90625 29.8642 5.87763 31.8357 8.30087 31.8357C8.90673 31.8357 9.48446 31.7125 10.01 31.4897C10.5482 31.7167 11.1296 31.8357 11.7183 31.8357C14.1416 31.8357 16.1131 29.8642 16.1131 27.4412C16.1131 25.0182 14.1416 23.0469 11.7183 23.0469ZM8.30087 29.8826C6.95458 29.8826 5.85937 28.7875 5.85937 27.4412C5.85937 26.095 6.95458 25 8.30087 25C9.64696 25 10.7422 26.095 10.7422 27.4412C10.7422 28.7874 9.64696 29.8826 8.30087 29.8826ZM11.9604 29.8707C12.4243 29.1743 12.6953 28.3389 12.6953 27.4413C12.6953 26.5437 12.4243 25.7085 11.9605 25.0121C13.1934 25.134 14.1598 26.177 14.1598 27.4413C14.1598 28.7057 13.1934 29.7487 11.9604 29.8707Z" fill="#2E514A"/>
<path d="M9.90594 18.6523H4.88281C4.34346 18.6523 3.90625 19.0896 3.90625 19.6289C3.90625 20.1682 4.34346 20.6055 4.88281 20.6055H9.90594C10.4453 20.6055 10.8825 20.1681 10.8825 19.6289C10.8825 19.0896 10.4453 18.6523 9.90594 18.6523Z" fill="#2E514A"/>
<path d="M12.7924 18.6525H12.7461C12.2067 18.6525 11.7695 19.0897 11.7695 19.629C11.7695 20.1683 12.2067 20.6056 12.7461 20.6056H12.7924C13.3316 20.6056 13.7689 20.1682 13.7689 19.629C13.7689 19.0897 13.3316 18.6525 12.7924 18.6525Z" fill="#2E514A"/>
<path d="M39.9212 29.4949C39.54 29.1138 38.9218 29.1136 38.5402 29.4948L33.3179 34.7168L30.5813 31.98C30.1998 31.5989 29.5815 31.5987 29.2001 31.98C28.8188 32.3614 28.8187 32.9798 29.2001 33.3611L32.6273 36.7885C32.8181 36.9792 33.068 37.0746 33.3179 37.0746C33.5678 37.0746 33.8178 36.9792 34.0083 36.7885L39.9211 30.8761C40.3025 30.4948 40.3025 29.8765 39.9212 29.4949Z" fill="#2E514A"/>
</svg>
