<svg width="42" height="57" viewBox="0 0 42 57" fill="none" xmlns="http://www.w3.org/2000/svg">
<g clip-path="url(#clip0_154_134)">
<path d="M16.8482 56.9996C16.5808 56.2706 16.1936 55.5996 15.7933 54.9465C15.2424 54.0494 14.9853 53.1225 15.0759 52.0617C15.1387 51.3297 15.089 51.3252 14.3804 51.3252C10.6998 51.3252 7.01924 51.3267 3.33867 51.3252C1.28141 51.3237 0.011689 50.0249 0.0102279 47.9212C0.0102279 35.2691 0.0146112 22.6154 0 9.96183C0 9.49467 0.113968 9.37416 0.566916 9.38904C1.68175 9.42326 1.68321 9.39796 1.68321 10.5153C1.68321 22.8907 1.68321 35.2661 1.68321 47.6415C1.68321 47.8081 1.67591 47.9762 1.68614 48.1428C1.7402 49.0415 2.2662 49.6143 3.14288 49.6172C7.00609 49.6336 10.8693 49.6217 14.731 49.6306C15.0247 49.6306 15.0993 49.531 15.0949 49.2468C15.0817 48.2827 15.0876 47.3171 15.0934 46.353C15.1051 44.3148 16.4376 42.8925 18.4423 42.7853C18.8061 42.766 19.1729 42.7377 19.5338 42.7705C19.9911 42.8121 20.1401 42.6886 20.1357 42.1783C20.1065 38.9692 20.1153 35.7585 20.1241 32.5494C20.1299 30.7864 21.2623 29.4354 22.9601 29.126C24.823 28.7883 26.7079 30.224 26.7955 32.1536C26.8759 33.9315 26.8379 35.7154 26.8262 37.4963C26.8233 37.9337 26.8569 38.0572 27.3347 37.8682C28.9668 37.2195 30.7011 37.9114 31.5004 39.5033C31.6596 39.8202 31.7502 39.8797 32.0877 39.7116C33.7724 38.865 35.6675 39.5182 36.55 41.2321C36.6917 41.5073 36.7677 41.5951 37.0965 41.4315C39.3466 40.3156 41.9094 41.8421 41.9547 44.3951C42.0234 48.3452 41.9825 52.2982 41.9985 56.2498C42 56.5176 41.924 56.5831 41.6639 56.5935C40.3212 56.6441 40.3226 56.653 40.3168 55.2708C40.3036 51.7641 40.2905 48.2574 40.2788 44.7507C40.2773 44.3401 40.2583 43.9399 40.0275 43.5754C39.6344 42.9549 38.9083 42.6336 38.2391 42.8091C37.4939 43.004 36.981 43.5813 36.9489 44.3386C36.9168 45.0974 36.9211 45.8606 36.9401 46.6194C36.9489 46.9541 36.8568 47.0612 36.5149 47.0657C35.2335 47.0806 35.2335 47.0954 35.2335 45.7758C35.2335 44.8117 35.2408 43.8461 35.2321 42.882C35.2233 41.8094 34.5439 41.0759 33.5752 41.0699C32.6064 41.064 31.9051 41.7915 31.8905 42.8582C31.873 44.1005 31.8759 45.3443 31.8934 46.5866C31.8978 46.9348 31.8262 47.0687 31.4463 47.0687C30.1956 47.0687 30.1956 47.085 30.1956 45.8055C30.1956 44.2657 30.2 42.7258 30.1941 41.186C30.1897 40.1282 29.5059 39.3634 28.5577 39.3352C27.6006 39.3069 26.8496 40.0895 26.8408 41.1711C26.8262 42.9713 26.8262 44.77 26.8452 46.5703C26.8496 46.9586 26.7429 47.0716 26.3601 47.0672C25.1606 47.0568 25.1606 47.0731 25.1606 45.8695C25.1606 41.4359 25.1635 37.0008 25.1576 32.5672C25.1562 31.6582 24.5878 30.9649 23.7739 30.828C22.9776 30.6941 22.2062 31.1271 21.9227 31.8769C21.8102 32.1745 21.7897 32.4884 21.7912 32.8068C21.7956 34.9774 21.7941 37.1481 21.7941 39.3188C21.7941 43.4191 21.7868 47.5195 21.8043 51.6198C21.8058 52.0899 21.6758 52.2045 21.2272 52.1911C20.1255 52.1584 20.1241 52.1822 20.1241 51.0604C20.1241 49.0385 20.1153 47.0151 20.1314 44.9932C20.1343 44.6049 20.0875 44.407 19.6375 44.477C19.262 44.535 18.8733 44.5022 18.492 44.5156C17.4984 44.5499 16.7883 45.2149 16.7752 46.2236C16.7445 48.4493 16.7605 50.6765 16.7503 52.9023C16.7489 53.1225 16.8438 53.2906 16.9388 53.4691C17.3479 54.2324 17.7278 55.0134 18.1691 55.7573C18.3897 56.1308 18.2962 56.2736 17.9528 56.4417C17.6431 56.595 17.2866 56.6931 17.0674 57.0026C16.9943 56.9996 16.9213 56.9996 16.8482 56.9996Z" fill="#2E514A"/>
<path d="M31.9387 19.7009C31.9387 25.1923 31.9329 30.6852 31.9489 36.1766C31.9504 36.6363 31.8846 36.8134 31.3732 36.791C30.2701 36.7434 30.2686 36.7777 30.2686 35.6633C30.2686 24.9944 30.2686 14.327 30.2686 3.65809C30.2686 2.16584 29.8157 1.7076 28.34 1.7076C26.8818 1.7076 25.425 1.71653 23.9668 1.70165C23.6454 1.69868 23.5066 1.76712 23.527 2.12865C23.5562 2.62706 23.5445 3.12993 23.5255 3.63131C23.4686 5.19795 22.269 6.53547 20.726 6.57712C18.2129 6.64407 15.6983 6.61134 13.1837 6.61729C12.5277 6.61878 11.8702 6.63515 11.217 6.60242C9.4184 6.51166 8.21736 5.22919 8.1969 3.40368C8.19252 3.03322 8.16622 2.6583 8.20275 2.29082C8.24658 1.84448 8.12677 1.6838 7.6519 1.6957C6.2127 1.72992 4.77349 1.70314 3.33428 1.70909C2.22675 1.71356 1.69052 2.2566 1.68321 3.38285C1.67591 4.68169 1.6686 5.98052 1.69052 7.27936C1.69636 7.63047 1.59555 7.70635 1.26387 7.70635C0.0102279 7.70784 0.0102279 7.72123 0.0102279 6.46703C0.0102279 5.37202 0.00292225 4.27701 0.011689 3.18349C0.0277613 1.37583 1.35154 0.00706698 3.12388 0.00557919C11.6875 -0.00185973 20.2512 -0.00185973 28.8163 0.00557919C30.6149 0.00706698 31.9343 1.37434 31.9372 3.22514C31.9431 8.71656 31.9387 14.2095 31.9387 19.7009ZM15.862 1.7076C14.0063 1.7076 12.1492 1.71356 10.2936 1.70165C9.97655 1.70017 9.82752 1.75968 9.85382 2.12567C9.88742 2.58689 9.84359 3.05256 9.86989 3.51377C9.91811 4.33354 10.4792 4.89593 11.2872 4.8989C14.3439 4.91081 17.4005 4.91081 20.4587 4.8989C21.2608 4.89593 21.8204 4.32164 21.8643 3.50187C21.8876 3.07637 21.8423 2.64788 21.8789 2.22387C21.9154 1.81026 21.7927 1.69124 21.3748 1.69719C19.5367 1.72099 17.6986 1.7076 15.862 1.7076Z" fill="#2E514A"/>
<path d="M15.9569 23.0112C12.6051 23.0112 9.2533 23.0008 5.90148 23.0231C5.43538 23.0261 5.2805 22.8847 5.35063 22.4354C5.36963 22.309 5.35356 22.1765 5.35356 22.0456C5.35356 21.2943 5.35502 21.2541 6.08558 21.2913C6.56337 21.3151 6.502 21.0027 6.55022 20.7334C7.2574 16.706 9.55575 14.0979 13.3532 12.8377C13.7652 12.7008 14.2021 12.619 14.6346 12.5818C15.0043 12.5491 15.1694 12.4211 15.0978 12.0418C15.0101 11.5672 15.2147 11.4065 15.6589 11.4838C15.7655 11.5017 15.878 11.4957 15.9862 11.4853C16.5092 11.4303 16.9359 11.466 16.781 12.2039C16.7109 12.5372 16.9783 12.5357 17.1945 12.5655C19.4256 12.866 21.309 13.8658 22.8534 15.5232C24.2488 17.0199 25.0758 18.8067 25.3476 20.8465C25.3972 21.2139 25.5083 21.2943 25.8429 21.2868C26.5705 21.2705 26.5705 21.2883 26.5705 22.001C26.5705 23.0127 26.5705 23.0127 25.5755 23.0127C22.3698 23.0112 19.1626 23.0112 15.9569 23.0112ZM15.8985 21.2764C18.3561 21.2764 20.8137 21.2735 23.2713 21.2794C23.5562 21.2794 23.7213 21.3002 23.6644 20.8792C23.153 17.1449 19.7778 14.1946 15.9613 14.1782C12.1712 14.1618 8.72145 17.1359 8.21444 20.8361C8.16037 21.2333 8.2948 21.2839 8.63524 21.2824C11.0563 21.2705 13.4774 21.2764 15.8985 21.2764Z" fill="#2E514A"/>
<path d="M10.111 41.0729C8.83834 41.0729 7.56716 41.0625 6.29452 41.0803C5.98476 41.0848 5.90586 40.9911 5.90002 40.6786C5.87956 39.3441 5.86933 39.3441 7.17558 39.3441C9.3921 39.3441 11.6101 39.353 13.8266 39.3352C14.205 39.3322 14.319 39.4334 14.3161 39.8276C14.3059 41.0729 14.3219 41.0729 13.1077 41.0729C12.1098 41.0729 11.1104 41.0729 10.111 41.0729Z" fill="#2E514A"/>
<path d="M10.0671 32.5077C11.3412 32.5077 12.6139 32.5196 13.888 32.5003C14.2226 32.4943 14.3132 32.5881 14.3146 32.9317C14.3176 34.2097 14.3322 34.2097 13.08 34.2097C10.8605 34.2097 8.64109 34.2023 6.42164 34.2172C6.04905 34.2202 5.88541 34.1785 5.8971 33.7232C5.92924 32.5092 5.90294 32.5077 7.12006 32.5077C8.10193 32.5077 9.08527 32.5077 10.0671 32.5077Z" fill="#2E514A"/>
<path d="M10.0701 37.6361C8.81496 37.6361 7.55985 37.6272 6.30621 37.6421C6.01398 37.645 5.90586 37.587 5.90294 37.2567C5.88687 35.9385 5.87372 35.9385 7.18727 35.9385C9.38772 35.9385 11.5882 35.9475 13.7886 35.9296C14.1685 35.9266 14.3278 35.9832 14.319 36.431C14.2927 37.6346 14.3175 37.6346 13.1267 37.6346C12.1069 37.6361 11.0885 37.6361 10.0701 37.6361Z" fill="#2E514A"/>
<path d="M16.9373 27.5043C16.9373 28.3211 16.9373 28.3211 15.9204 28.3196C15.2322 28.3196 15.2322 28.3196 15.2322 27.2796C15.2322 26.6057 15.2322 26.6057 16.331 26.6072C16.9373 26.6087 16.9373 26.6087 16.9373 27.5043Z" fill="#2E514A"/>
<path d="M12.7322 28.3166C11.8877 28.3166 11.8877 28.3166 11.8877 27.2826C11.8877 26.6087 11.8877 26.6087 12.9704 26.6101C13.5665 26.6101 13.5665 26.6101 13.5651 27.7215C13.5651 28.3166 13.5651 28.3166 12.7322 28.3166Z" fill="#2E514A"/>
<path d="M19.4286 26.6101C20.2804 26.6101 20.2804 26.6101 20.2804 27.4626C20.2804 28.3166 20.2804 28.3166 19.4213 28.3166C18.6016 28.3166 18.6016 28.3166 18.6016 27.485C18.6016 27.4671 18.6016 27.4478 18.6016 27.4299C18.6016 26.6101 18.6016 26.6101 19.4286 26.6101Z" fill="#2E514A"/>
</g>
<defs>
<clipPath id="clip0_154_134">
<rect width="42" height="57" fill="white"/>
</clipPath>
</defs>
</svg>
