<svg width="264" height="81" viewBox="0 0 264 81" fill="none" xmlns="http://www.w3.org/2000/svg">
<g clip-path="url(#clip0_154_103)">
<path d="M64.8893 41.7646C65.4267 42.2731 65.3951 42.9418 65.3951 43.593C65.3916 45.1672 65.4021 46.7414 65.3459 48.3155C65.3213 48.9598 65.5356 49.1409 66.1643 49.127C67.5764 49.0887 68.9884 49.1096 70.4004 49.1166C73.6706 49.134 76.0661 51.2758 76.1891 54.5147C76.5403 63.7021 69.4942 72.562 59.5608 72.2486C56.3679 72.1476 53.86 72.865 51.1905 74.8641C37.2774 85.2669 18.5205 82.1324 7.99351 67.8952C2.60179 60.599 0.315139 52.3624 0.553991 43.3875C0.596141 41.7751 1.3408 40.8904 2.87577 40.5213C4.8217 40.9253 6.76764 40.974 8.71006 40.4934C8.8892 40.4899 9.06834 40.483 9.25099 40.4795C9.19479 40.5944 9.10346 40.7059 9.0859 40.8278C8.04268 47.7479 8.84705 54.3754 12.6019 60.4144C16.9434 67.3972 23.1711 71.667 31.5449 72.2103C41.6996 72.872 51.0746 66.7146 55.0894 57.1372C57.3058 51.8505 57.7835 46.4105 56.8526 40.8069C59.2903 40.772 61.728 40.671 64.1552 40.9601L64.1271 40.9322C64.1482 41.1308 64.257 41.2213 64.4573 41.1969L64.4292 41.1725C64.4116 41.378 64.5099 41.479 64.7172 41.4825L64.7066 41.4616C64.7066 41.5974 64.7102 41.7367 64.7102 41.8726C64.7628 41.8343 64.8261 41.7994 64.8893 41.7646ZM59.4835 66.3559C65.6375 67.129 70.7271 62.7269 70.8184 56.6705C70.836 55.4655 70.3232 54.9431 69.0516 54.9257C67.8152 54.9083 66.5753 54.9814 65.3459 54.9013C64.5556 54.8491 64.2957 55.1555 64.1201 55.859C63.4527 58.5407 62.4235 61.0935 61.1098 63.5279C60.604 64.4752 60.042 65.3912 59.4835 66.3559Z" fill="#0F4E46"/>
<path d="M56.8457 40.8068C57.7765 46.4104 57.2988 51.8504 55.0824 57.1371C51.0676 66.7145 41.6962 72.8719 31.538 72.2101C23.1641 71.6634 16.9399 67.3971 12.595 60.4143C8.83656 54.3718 8.03219 47.7478 9.07892 40.8277C9.09648 40.7058 9.18781 40.5943 9.24401 40.4794C11.4464 40.3819 13.6487 40.354 15.8511 40.4933C15.8124 40.6744 15.7738 40.8555 15.7351 41.0366C12.7881 48.4095 13.6452 55.3957 18.2712 61.7865C24.4778 70.3643 35.9778 71.8375 44.32 65.3109C51.3626 59.8013 53.8354 49.4543 50.1859 40.7719C50.1894 40.6814 50.193 40.5873 50.1965 40.4968C50.3089 40.4863 50.4213 40.4759 50.5302 40.4655C52.4866 40.967 54.4396 40.9809 56.3926 40.4585C56.4839 40.4724 56.5752 40.4829 56.67 40.4968C56.7298 40.6013 56.786 40.7023 56.8457 40.8068Z" fill="#88C65B"/>
<path d="M12.707 21.1717C12.707 21.1264 12.707 21.0846 12.707 21.0394C12.7386 17.588 13.4411 16.9542 16.9256 17.2154C25.8614 17.884 30.1291 26.6151 28.696 33.3924C28.5309 34.1761 28.0708 34.3467 27.428 34.4477C22.2822 35.2557 18.2673 33.3855 15.2571 29.2933C13.4868 26.8972 12.7105 24.1424 12.707 21.1717Z" fill="#87C55A"/>
<path d="M53.2481 21.0839C53.2341 28.7876 47.456 34.9102 40.4134 34.6281C37.0027 34.4923 37.2416 34.6629 37.0659 31.3579C36.7182 24.7129 40.9297 18.9107 46.9221 17.5525C48.1655 17.2704 49.423 17.0997 50.7226 17.3087C53.0479 17.6813 53.0549 17.65 53.1884 19.9555C53.213 20.3874 53.2341 20.8262 53.2481 21.0839Z" fill="#87C55A"/>
<path d="M39.2619 11.4125C39.1636 15.9539 37.4951 19.6316 33.9721 22.4631C33.2625 23.0342 32.7602 23.0447 32.0261 22.4979C24.8711 17.152 24.966 5.4954 32.2088 0.30271C32.834 -0.146557 33.2309 -0.0838687 33.807 0.361915C37.4776 3.20031 39.1636 6.96161 39.2619 11.4125Z" fill="#87C55A"/>
<path d="M15.7344 41.0368C15.773 40.8557 15.8116 40.6746 15.8503 40.4935C21.523 40.4761 27.1957 40.4482 32.8684 40.4482C38.4955 40.4482 44.1261 40.4796 49.7531 40.4935C49.7637 40.5875 49.7742 40.6816 49.7812 40.7756C39.0364 40.7756 28.2881 40.7756 17.5433 40.7686C16.9251 40.7686 16.3104 40.7687 15.7344 41.0368Z" fill="#00352B"/>
<path d="M56.845 40.8064C56.7888 40.7054 56.7326 40.6009 56.6729 40.4999C58.6855 40.4825 60.6982 40.4547 62.7144 40.4512C63.2413 40.4512 63.7646 40.5278 64.1475 40.9596C61.7168 40.6706 59.2791 40.7716 56.845 40.8064Z" fill="#00352B"/>
<path d="M8.70637 40.4933C6.76394 40.9739 4.81801 40.9251 2.87207 40.5211C4.81801 40.3748 6.76043 40.4236 8.70637 40.4933Z" fill="#00352B"/>
<path d="M56.3956 40.4619C54.4426 40.9808 52.4862 40.9704 50.5332 40.4689C52.4897 40.4654 54.4426 40.4619 56.3956 40.4619Z" fill="#87C55A"/>
<path d="M49.7849 40.7753C49.7744 40.6812 49.7639 40.5872 49.7568 40.4932C49.9044 40.4966 50.0554 40.4966 50.2029 40.5001C50.1994 40.5907 50.1959 40.6847 50.1924 40.7753C50.0554 40.7753 49.9184 40.7753 49.7849 40.7753Z" fill="#0F4E46"/>
<path d="M64.8895 41.7639C64.8263 41.7988 64.763 41.8336 64.6998 41.8719C64.6998 41.7361 64.6963 41.5968 64.6963 41.4609C64.7595 41.5619 64.8263 41.6629 64.8895 41.7639Z" fill="#00352B"/>
<path d="M64.7063 41.4818C64.5026 41.4784 64.4043 41.3808 64.4183 41.1719C64.5167 41.2764 64.6115 41.3774 64.7063 41.4818Z" fill="#00352B"/>
<path d="M64.4503 41.1963C64.2501 41.2207 64.1412 41.1267 64.1201 40.9316C64.229 41.0187 64.3414 41.1093 64.4503 41.1963Z" fill="#00352B"/>
<path d="M49.785 40.775C49.922 40.775 50.0555 40.7715 50.1925 40.7715C53.842 49.4538 51.3692 59.8009 44.3266 65.3105C35.9843 71.8371 24.4843 70.3639 18.2777 61.786C13.6517 55.3953 12.7947 48.409 15.7417 41.0362C16.3177 40.768 16.9289 40.7715 17.5506 40.7715C28.2919 40.775 39.0367 40.775 49.785 40.775ZM25.3273 51.0454C25.2887 51.1325 25.2466 51.223 25.2079 51.3101C26.483 52.3027 27.7369 53.3231 29.0401 54.2739C29.6723 54.7336 29.8199 55.2107 29.581 55.9456C29.0436 57.5824 28.5799 59.2437 27.9863 61.2323C29.5494 60.0273 30.8736 59.0939 32.0924 58.0421C32.7774 57.4501 33.234 57.5197 33.8803 58.0596C35.1097 59.08 36.4023 60.0273 37.9724 61.2392C37.3683 59.2019 36.9151 57.5267 36.3602 55.8829C36.1213 55.1794 36.2548 54.7789 36.8519 54.34C38.1761 53.3719 39.4442 52.327 40.7332 51.3136C39.3388 51.0489 38.0251 50.934 36.743 51.0768C35.2572 51.2474 34.6355 50.6658 34.3405 49.2762C34.0384 47.8518 33.508 46.4761 32.9811 44.7696C32.3664 46.7756 31.8185 48.4334 31.3548 50.1121C31.1546 50.8295 30.8069 51.0872 30.0552 51.0628C28.4816 51.0106 26.9045 51.0454 25.3273 51.0454Z" fill="#0E4E47"/>
<path d="M25.3274 51.0453C26.9046 51.0453 28.4817 51.0105 30.0553 51.0627C30.807 51.0871 31.1547 50.8294 31.3549 50.112C31.8186 48.4333 32.363 46.7756 32.9812 44.7695C33.5081 46.476 34.035 47.8517 34.3406 49.2761C34.6356 50.6622 35.2608 51.2438 36.7431 51.0767C38.0252 50.9304 39.3389 51.0453 40.7333 51.3135C39.4443 52.327 38.1762 53.3718 36.852 54.34C36.2549 54.7753 36.1249 55.1758 36.3603 55.8828C36.9152 57.5266 37.3684 59.2018 37.9725 61.2392C36.4024 60.0272 35.1098 59.0834 33.8804 58.0595C33.2341 57.5231 32.7775 57.45 32.0925 58.0421C30.8737 59.0938 29.553 60.0272 27.9864 61.2322C28.58 59.2471 29.0437 57.5858 29.5811 55.9455C29.8235 55.2106 29.6724 54.7335 29.0402 54.2738C27.737 53.323 26.4831 52.3026 25.208 51.31C25.2466 51.223 25.2888 51.1359 25.3274 51.0453Z" fill="#88C65B"/>
</g>
<path d="M103.894 67.3147C102.524 67.3147 101.236 67.0748 100.033 66.5952C98.8384 66.1058 97.7861 65.3913 96.8758 64.4516C95.9753 63.5119 95.2705 62.3618 94.7615 61.0012C94.2525 59.6309 93.998 58.0647 93.998 56.3028C93.998 53.9928 94.4287 52.0205 95.2901 50.3858C96.1515 48.7414 97.331 47.4836 98.8286 46.6124C100.326 45.7315 102.015 45.291 103.894 45.291C106.498 45.291 108.558 45.8979 110.075 47.1116C111.602 48.3156 112.635 50.009 113.173 52.1918L109.561 52.7644C109.16 51.5115 108.504 50.5131 107.594 49.7692C106.684 49.0155 105.524 48.6386 104.114 48.6386C102.695 48.619 101.515 48.9274 100.576 49.5636C99.6361 50.1998 98.9264 51.0955 98.4468 52.2505C97.977 53.4055 97.7421 54.7563 97.7421 56.3028C97.7421 57.8494 97.977 59.1953 98.4468 60.3405C98.9167 61.4759 99.6214 62.3618 100.561 62.998C101.511 63.6343 102.695 63.9622 104.114 63.9817C105.181 63.9915 106.116 63.8007 106.919 63.4091C107.721 63.0078 108.377 62.4058 108.886 61.6032C109.395 60.7908 109.738 59.7777 109.914 58.5639H106.184V55.7889H113.672C113.692 55.9456 113.707 56.1756 113.717 56.479C113.726 56.7825 113.731 56.9635 113.731 57.0223C113.731 59.0191 113.335 60.7957 112.542 62.352C111.759 63.8985 110.633 65.1123 109.165 65.9932C107.697 66.8742 105.94 67.3147 103.894 67.3147Z" fill="white"/>
<path d="M120.498 66.8742V51.0172H123.625V54.8786L123.243 54.3794C123.439 53.8509 123.698 53.3712 124.021 52.9406C124.354 52.5001 124.751 52.1379 125.211 51.8541C125.602 51.5898 126.033 51.3842 126.503 51.2374C126.982 51.0808 127.472 50.9878 127.971 50.9584C128.47 50.9193 128.955 50.9389 129.424 51.0172V54.3207C128.955 54.1837 128.411 54.1396 127.795 54.1886C127.188 54.2375 126.64 54.4088 126.15 54.7025C125.661 54.9667 125.26 55.3044 124.946 55.7155C124.643 56.1266 124.418 56.5965 124.271 57.1251C124.124 57.6438 124.051 58.2067 124.051 58.8135V66.8742H120.498Z" fill="white"/>
<path d="M142.966 67.3147C141.361 67.3147 139.951 66.9672 138.737 66.2722C137.524 65.5772 136.574 64.6131 135.889 63.3798C135.214 62.1464 134.876 60.7271 134.876 59.1219C134.876 57.3893 135.209 55.8868 135.874 54.6144C136.54 53.3321 137.465 52.3386 138.649 51.6338C139.834 50.9291 141.204 50.5767 142.76 50.5767C144.405 50.5767 145.8 50.9633 146.945 51.7366C148.1 52.5001 148.956 53.5817 149.514 54.9814C150.072 56.3811 150.283 58.0305 150.146 59.9294H146.637V58.6373C146.627 56.9146 146.323 55.6568 145.726 54.864C145.129 54.0711 144.19 53.6747 142.907 53.6747C141.459 53.6747 140.382 54.1249 139.677 55.0255C138.972 55.9162 138.62 57.2229 138.62 58.9457C138.62 60.551 138.972 61.7941 139.677 62.675C140.382 63.556 141.41 63.9964 142.76 63.9964C143.632 63.9964 144.38 63.8056 145.007 63.4238C145.643 63.0323 146.133 62.4695 146.475 61.7353L149.97 62.7925C149.363 64.2216 148.423 65.3325 147.15 66.1254C145.888 66.9182 144.493 67.3147 142.966 67.3147ZM137.504 59.9294V57.2572H148.413V59.9294H137.504Z" fill="white"/>
<path d="M164.448 67.3147C162.843 67.3147 161.433 66.9672 160.22 66.2722C159.006 65.5772 158.056 64.6131 157.371 63.3798C156.696 62.1464 156.358 60.7271 156.358 59.1219C156.358 57.3893 156.691 55.8868 157.357 54.6144C158.022 53.3321 158.947 52.3386 160.132 51.6338C161.316 50.9291 162.686 50.5767 164.243 50.5767C165.887 50.5767 167.282 50.9633 168.427 51.7366C169.582 52.5001 170.439 53.5817 170.997 54.9814C171.555 56.3811 171.765 58.0305 171.628 59.9294H168.119V58.6373C168.109 56.9146 167.806 55.6568 167.209 54.864C166.611 54.0711 165.672 53.6747 164.389 53.6747C162.941 53.6747 161.864 54.1249 161.159 55.0255C160.455 55.9162 160.102 57.2229 160.102 58.9457C160.102 60.551 160.455 61.7941 161.159 62.675C161.864 63.556 162.892 63.9964 164.243 63.9964C165.114 63.9964 165.863 63.8056 166.489 63.4238C167.125 63.0323 167.615 62.4695 167.957 61.7353L171.452 62.7925C170.845 64.2216 169.905 65.3325 168.633 66.1254C167.37 66.9182 165.975 67.3147 164.448 67.3147ZM158.986 59.9294V57.2572H169.895V59.9294H158.986Z" fill="white"/>
<path d="M189.259 66.8742V59.2393C189.259 58.7401 189.225 58.1871 189.156 57.5802C189.088 56.9733 188.926 56.3909 188.672 55.833C188.427 55.2653 188.055 54.8003 187.556 54.4382C187.066 54.076 186.401 53.8949 185.559 53.8949C185.109 53.8949 184.663 53.9683 184.223 54.1152C183.782 54.262 183.381 54.5165 183.019 54.8786C182.667 55.231 182.383 55.7204 182.167 56.3469C181.952 56.9635 181.844 57.7564 181.844 58.7254L179.745 57.8298C179.745 56.479 180.004 55.2555 180.523 54.1592C181.052 53.0629 181.825 52.1918 182.843 51.5457C183.861 50.8899 185.114 50.562 186.601 50.562C187.776 50.562 188.745 50.7578 189.509 51.1493C190.272 51.5408 190.879 52.04 191.329 52.6469C191.779 53.2538 192.112 53.8998 192.328 54.585C192.543 55.2702 192.68 55.9211 192.739 56.5378C192.807 57.1446 192.842 57.6389 192.842 58.0207V66.8742H189.259ZM178.262 66.8742V51.0172H181.419V55.9358H181.844V66.8742H178.262Z" fill="white"/>
<path d="M215.267 66.8742V49.0497H208.425V45.7315H225.647V49.0497H218.805V66.8742H215.267Z" fill="white"/>
<path d="M236.67 67.3147C235.064 67.3147 233.655 66.9672 232.441 66.2722C231.227 65.5772 230.278 64.6131 229.593 63.3798C228.917 62.1464 228.58 60.7271 228.58 59.1219C228.58 57.3893 228.912 55.8868 229.578 54.6144C230.244 53.3321 231.169 52.3386 232.353 51.6338C233.537 50.9291 234.908 50.5767 236.464 50.5767C238.109 50.5767 239.503 50.9633 240.649 51.7366C241.804 52.5001 242.66 53.5817 243.218 54.9814C243.776 56.3811 243.986 58.0305 243.849 59.9294H240.34V58.6373C240.331 56.9146 240.027 55.6568 239.43 54.864C238.833 54.0711 237.893 53.6747 236.611 53.6747C235.162 53.6747 234.086 54.1249 233.381 55.0255C232.676 55.9162 232.324 57.2229 232.324 58.9457C232.324 60.551 232.676 61.7941 233.381 62.675C234.086 63.556 235.113 63.9964 236.464 63.9964C237.335 63.9964 238.084 63.8056 238.711 63.4238C239.347 63.0323 239.836 62.4695 240.179 61.7353L243.673 62.7925C243.066 64.2216 242.127 65.3325 240.854 66.1254C239.592 66.9182 238.197 67.3147 236.67 67.3147ZM231.208 59.9294V57.2572H242.117V59.9294H231.208Z" fill="white"/>
<path d="M255.09 67.3147C253.945 67.3147 252.976 67.0993 252.183 66.6686C251.39 66.2282 250.788 65.6458 250.377 64.9214C249.976 64.1971 249.775 63.3993 249.775 62.5282C249.775 61.7647 249.902 61.0795 250.157 60.4726C250.411 59.856 250.803 59.3274 251.331 58.8869C251.86 58.4367 252.545 58.0696 253.387 57.7858C254.023 57.5802 254.767 57.3942 255.619 57.2278C256.48 57.0614 257.41 56.9097 258.408 56.7727C259.417 56.6258 260.469 56.4692 261.565 56.3028L260.302 57.0223C260.312 55.926 260.068 55.1185 259.568 54.5997C259.069 54.0809 258.227 53.8215 257.043 53.8215C256.328 53.8215 255.638 53.9879 254.973 54.3207C254.307 54.6535 253.842 55.2261 253.578 56.0386L250.348 55.0255C250.739 53.6845 251.483 52.6078 252.579 51.7953C253.686 50.9829 255.173 50.5767 257.043 50.5767C258.452 50.5767 259.691 50.8067 260.758 51.2668C261.834 51.7268 262.632 52.4805 263.151 53.5279C263.435 54.0858 263.606 54.6584 263.665 55.2457C263.723 55.8232 263.753 56.4546 263.753 57.1397V66.8742H260.655V63.4385L261.169 63.9964C260.454 65.1417 259.617 65.9834 258.658 66.5218C257.709 67.0504 256.519 67.3147 255.09 67.3147ZM255.795 64.4956C256.598 64.4956 257.283 64.3537 257.85 64.0698C258.418 63.786 258.868 63.4385 259.201 63.0274C259.544 62.6163 259.774 62.2296 259.891 61.8675C260.077 61.4172 260.18 60.9033 260.2 60.3258C260.229 59.7385 260.244 59.2638 260.244 58.9016L261.33 59.2246C260.263 59.391 259.348 59.5379 258.585 59.6651C257.821 59.7924 257.165 59.9147 256.617 60.0322C256.069 60.1398 255.584 60.2622 255.164 60.3992C254.752 60.5461 254.405 60.7174 254.121 60.9131C253.837 61.1089 253.617 61.334 253.46 61.5885C253.314 61.843 253.24 62.1415 253.24 62.4841C253.24 62.8757 253.338 63.2232 253.534 63.5266C253.73 63.8202 254.013 64.0552 254.385 64.2313C254.767 64.4075 255.237 64.4956 255.795 64.4956Z" fill="white"/>
<defs>
<clipPath id="clip0_154_103">
<rect width="75.6597" height="81.0004" fill="white" transform="translate(0.536133)"/>
</clipPath>
</defs>
</svg>
