<svg width="100" height="100" viewBox="0 0 100 100" fill="none" xmlns="http://www.w3.org/2000/svg">
<g clip-path="url(#clip0_1222_2893)">
<path d="M41.2312 75.3921C44.4207 72.4163 44.9101 67.7571 42.3243 64.9855C39.7384 62.2139 35.0565 62.3794 31.867 65.3551C28.6774 68.3308 28.188 72.99 30.7739 75.7616C33.3597 78.5333 38.0416 78.3678 41.2312 75.3921Z" fill="#593A1B"/>
<path d="M83.4401 75.3911C86.6297 72.4153 87.1191 67.7562 84.5332 64.9845C81.9474 62.2129 77.2655 62.3784 74.076 65.3541C70.8864 68.3299 70.397 72.989 72.9829 75.7607C75.5687 78.5323 80.2506 78.3668 83.4401 75.3911Z" fill="#593A1B"/>
<path d="M7.75 39.0205C7.75 37.1787 6.25689 35.6855 4.41504 35.6855C2.57319 35.6855 1.08008 37.1787 1.08008 39.0205C1.08008 40.8624 2.57319 42.3555 4.41504 42.3555C6.25689 42.3555 7.75 40.8624 7.75 39.0205Z" fill="#FC981A"/>
<path d="M67.6953 69.7153C68.8809 63.856 74.416 59.1997 80.3652 59.1997C86.3145 59.1997 90.2246 63.5181 90.1113 69.0708C96.3066 69.2329 98.0312 61.0747 98.0312 61.0747C98.5527 58.7935 99.332 54.3462 99.9844 49.981C100.193 48.5825 100.029 47.2095 99.5098 45.9946C98.5059 43.647 96.5371 39.4536 93.6621 35.1587C91.5176 31.9556 87.9102 30.0552 83.7969 29.9888C81.3438 29.9478 78.9336 29.9263 77.1172 29.9263L77.1016 29.9106C76.8691 25.9868 74.0078 22.9849 69.9941 22.6255C67.3828 22.3911 57.0391 22.2231 52.0742 22.2231C50.1016 22.2231 47.2695 22.2505 44.4062 22.2974V22.2856H44.3867L44.377 22.2817L44.3691 22.2856H9.95508C8.11328 22.2856 6.61914 23.7798 6.61914 25.6216V25.6392C6.61914 27.4712 8.10547 28.9575 9.9375 28.9575L16.877 28.9673C18.5977 29.0903 19.9531 30.5239 19.9531 32.2759V32.2935C19.9531 34.1353 18.459 35.6294 16.6172 35.6294H13.0625C11.2207 35.6294 9.72656 37.1235 9.72656 38.9653C9.72656 40.8071 11.2207 42.3013 13.0625 42.3013H16.6172C18.459 42.3013 19.9531 43.7954 19.9531 45.6372C19.9531 47.479 18.459 48.9731 16.6172 48.9731H3.3125C1.4707 48.9731 -0.0234375 50.4673 -0.0234375 52.3091C-0.0234375 54.1509 1.4707 55.645 3.3125 55.645H16.6211C18.4629 55.645 19.957 57.1392 19.957 58.981C19.957 60.8228 18.4629 62.3169 16.6211 62.3169H12.5078C10.666 62.3169 9.17188 63.811 9.17188 65.6528C9.17188 67.4946 10.666 68.9888 12.5078 68.9888L25.6426 68.979L26.7363 66.2583C28.9727 62.1313 33.4219 59.2095 38.1328 59.2095C44.084 59.2095 48.3125 63.8696 47.8457 69.7329H67.6914M76.8008 34.5552C78.543 34.5571 80.8027 34.5806 83.0684 34.6177C85.8145 34.6626 88.2168 35.9224 89.6582 38.0767C91.4023 40.6841 92.7969 43.2642 93.8066 45.3286C94.4492 46.6411 93.2656 48.3501 91.7129 48.3501H75.0625L76.8008 34.5552Z" fill="#FC981A"/>
<path d="M69.9922 22.623C67.3809 22.3887 57.0371 22.2207 52.0723 22.2207C50.0996 22.2207 47.2676 22.248 44.4043 22.2949V22.2832H44.3848L44.375 22.2793L44.3672 22.2832H9.95508C8.11328 22.2832 6.61914 23.7773 6.61914 25.6191V25.6367C6.61914 27.4687 8.10547 28.9551 9.9375 28.9551L16.877 28.9648C18.5977 29.0879 19.9531 30.5215 19.9531 32.2734V32.291C19.9531 34.1328 18.459 35.627 16.6172 35.627H13.0625C11.2207 35.627 9.72656 37.1211 9.72656 38.9629C9.72656 40.8047 11.2207 42.2988 13.0625 42.2988H16.6172C18.459 42.2988 19.9531 43.793 19.9531 45.6348C19.9531 47.4766 18.459 48.9707 16.6172 48.9707H3.3125C1.65234 48.9707 0.279297 50.1855 0.0234375 51.7754V52.8379C0.279297 54.4258 1.65234 55.6426 3.3125 55.6426H16.6211C18.4629 55.6426 19.957 57.1367 19.957 58.9785C19.957 59.7715 19.6797 60.498 19.2168 61.0703C20.7402 61.1992 22.2793 61.2656 23.8359 61.2656C26.8281 61.2656 29.7637 61.0176 32.623 60.5508C34.3281 59.6914 36.209 59.2031 38.1328 59.2031C38.2988 59.2031 38.4629 59.209 38.627 59.2148C55.6094 54.3906 69.1836 41.4688 74.9141 24.8867C73.6719 23.627 71.9727 22.8047 69.9902 22.627L69.9922 22.623Z" fill="#FBB358"/>
<path d="M57.6818 34.5898H51.3166C50.5588 34.5898 49.8576 35.2051 49.7502 35.9629L48.2092 46.9238C48.1017 47.6816 48.631 48.2969 49.3888 48.2969H55.7541C56.4221 48.2969 57.0392 47.7559 57.133 47.0879C57.2267 46.4199 56.7619 45.8789 56.0939 45.8789H50.9631C50.9533 45.8789 50.9455 45.8691 50.9455 45.8594L51.4357 42.3711C51.4357 42.3711 51.4435 42.3574 51.4533 42.3574H55.4455C56.1135 42.3574 56.7306 41.8164 56.8244 41.1484C56.9181 40.4805 56.4533 39.9395 55.7853 39.9395H51.7971C51.7873 39.9395 51.7795 39.9297 51.7795 39.9199L52.1877 37.0215C52.1877 37.0215 52.1955 37.0078 52.2053 37.0078H57.34C58.008 37.0078 58.6252 36.4668 58.7189 35.7988C58.8127 35.1309 58.3478 34.5898 57.6799 34.5898H57.6818Z" fill="white"/>
<path d="M34.9736 34.5903H29.2646C28.5068 34.5903 27.8057 35.2056 27.6982 35.9634L26.1474 47.0024C26.0478 47.7173 26.5459 48.2974 27.2607 48.2974C27.9756 48.2974 28.6357 47.7173 28.7373 47.0024L29.3349 42.7524C29.3349 42.7524 29.3428 42.7388 29.3525 42.7388H32.6885C33.4033 42.7388 34.0635 42.1587 34.165 41.4438C34.2646 40.729 33.7666 40.1489 33.0517 40.1489H29.7197C29.7099 40.1489 29.7021 40.1392 29.7021 40.1294L30.1142 37.1938C30.1142 37.1938 30.1221 37.1802 30.1318 37.1802H34.6103C35.3252 37.1802 35.9873 36.6001 36.0869 35.8853C36.1865 35.1704 35.6885 34.5903 34.9736 34.5903Z" fill="white"/>
<path d="M46.5732 35.4748C45.4775 34.5334 43.542 34.59 43.542 34.59H39.1279C38.3701 34.59 37.6689 35.2052 37.5615 35.9631L36.0107 47.0021C35.9111 47.717 36.4092 48.297 37.124 48.297C37.8389 48.297 38.499 47.717 38.6006 47.0021L39.0693 43.6662C39.0693 43.6662 39.0771 43.6525 39.0869 43.6525H41.9482C41.9482 43.6525 41.9619 43.6564 41.9639 43.6642L43.3076 47.5685C43.4619 48.0158 43.874 48.299 44.3701 48.299H44.4189C45.376 48.299 46.1435 47.297 45.8447 46.4377L44.7334 43.2365C44.7334 43.2365 44.7334 43.2189 44.7432 43.215C45.374 42.9494 45.8994 42.5685 46.3193 42.0685C47.0049 41.2521 47.4287 40.2716 47.5908 39.1232C47.6982 38.3556 47.6728 37.6584 47.5127 37.0334C47.3525 36.4084 47.04 35.8888 46.5752 35.4767L46.5732 35.4748ZM44.9795 39.1213C44.9795 39.1213 44.7197 41.2345 42.4932 41.2345H39.4092L40.0029 37.008H43.0869C43.0869 37.008 45.3525 36.8634 44.9795 39.1213Z" fill="white"/>
<path d="M68.3478 34.5898H61.9826C61.2248 34.5898 60.5236 35.2051 60.4162 35.9629L58.8752 46.9238C58.7678 47.6816 59.2971 48.2969 60.0549 48.2969H66.4201C67.0881 48.2969 67.7053 47.7559 67.799 47.0879C67.8928 46.4199 67.4279 45.8789 66.7599 45.8789H61.6291C61.6193 45.8789 61.6115 45.8691 61.6115 45.8594L62.1017 42.3711C62.1017 42.3711 62.1095 42.3574 62.1193 42.3574H66.1115C66.7795 42.3574 67.3967 41.8164 67.4904 41.1484C67.5842 40.4805 67.1193 39.9395 66.4513 39.9395H62.4631C62.4533 39.9395 62.4455 39.9297 62.4455 39.9199L62.8537 37.0215C62.8537 37.0215 62.8615 37.0078 62.8713 37.0078H68.006C68.674 37.0078 69.2912 36.4668 69.3849 35.7988C69.4787 35.1309 69.0138 34.5898 68.3459 34.5898H68.3478Z" fill="white"/>
</g>
<defs>
<clipPath id="clip0_1222_2893">
<rect width="100" height="100" fill="white"/>
</clipPath>
</defs>
</svg>
