<svg width="82" height="82" viewBox="0 0 82 82" fill="none" xmlns="http://www.w3.org/2000/svg">
<g clip-path="url(#clip0_1222_2946)">
<path d="M37.9522 19.8579C36.7047 19.8579 35.6934 37.8902 35.6934 39.1377C35.6934 39.9325 36.105 40.6303 36.7257 41.0328L59.9959 64.303C63.9217 60.5243 66.8774 55.746 68.4554 50.3776C63.2591 45.2191 37.9522 19.8579 37.9522 19.8579Z" fill="url(#paint0_linear_1222_2946)"/>
<path d="M37.9529 43.1938C38.9451 43.1938 39.7495 42.3895 39.7495 41.3972C39.7495 40.405 38.9451 39.6006 37.9529 39.6006C36.9606 39.6006 36.1562 40.405 36.1562 41.3972C36.1562 42.3895 36.9606 43.1938 37.9529 43.1938Z" fill="url(#paint1_linear_1222_2946)"/>
<path d="M37.9522 16.147C37.734 16.147 37.5366 16.2354 37.3935 16.3784C37.2507 16.5213 37.1621 16.7187 37.1621 16.937V22.7294C37.1621 22.8929 37.2118 23.0449 37.297 23.1709C37.3537 23.255 37.4262 23.3276 37.5103 23.3843C37.5523 23.4128 37.5973 23.4371 37.6445 23.4571C37.739 23.497 37.8429 23.5193 37.9518 23.5193C38.17 23.5193 38.3674 23.4309 38.5105 23.2879C38.6533 23.1448 38.7419 22.9475 38.7419 22.7292V16.9369C38.7421 16.5006 38.3883 16.147 37.9522 16.147Z" fill="#FC981A"/>
<path d="M37.952 59.2739C37.5157 59.2739 37.1621 59.6277 37.1621 60.0638V65.8562C37.1621 65.9315 37.1759 66.0027 37.1956 66.0716C37.2898 66.4023 37.591 66.6461 37.9518 66.6461C38.0609 66.6461 38.1648 66.6238 38.2592 66.5839C38.5427 66.464 38.7417 66.1832 38.7417 65.856V60.0637C38.7419 59.6276 38.3881 59.2739 37.952 59.2739Z" fill="#FC981A"/>
<path d="M62.4123 40.6069H56.62C56.1837 40.6069 55.8301 40.9606 55.8301 41.3968C55.8301 41.8331 56.1837 42.1867 56.62 42.1867H62.4123C62.8486 42.1867 63.2022 41.8331 63.2022 41.3968C63.2024 40.9606 62.8486 40.6069 62.4123 40.6069Z" fill="#FC981A"/>
<path d="M20.0756 41.3963C20.0756 41.2328 20.0259 41.0807 19.9407 40.9546C19.884 40.8705 19.8115 40.798 19.7274 40.7413C19.6014 40.6561 19.4494 40.6064 19.2857 40.6064H13.4932C13.275 40.6064 13.0776 40.6949 12.9346 40.8379C12.7917 40.9809 12.7031 41.1782 12.7031 41.3965C12.7031 41.8328 13.0567 42.1864 13.493 42.1864H19.2854C19.5035 42.1864 19.701 42.098 19.844 41.955C19.987 41.8119 20.0756 41.6146 20.0756 41.3963Z" fill="#FC981A"/>
<path d="M51.7118 28.7554L55.8077 24.6595C56.1161 24.3511 56.1161 23.8509 55.8077 23.5424C55.4992 23.2338 54.999 23.234 54.6906 23.5424L50.5947 27.6383C50.2861 27.9469 50.2861 28.4469 50.5947 28.7554C50.9032 29.0638 51.4034 29.0638 51.7118 28.7554Z" fill="#FC981A"/>
<path d="M25.3106 54.038C25.0022 53.7295 24.502 53.7295 24.1935 54.038L20.0977 58.1338C19.8317 58.3998 19.7964 58.8079 19.9893 59.1133C20.0138 59.1521 20.0431 59.1883 20.0749 59.2232C20.0831 59.2322 20.0889 59.2423 20.0977 59.2511C20.2482 59.4016 20.4444 59.4775 20.6417 59.4811C20.6465 59.4812 20.6513 59.4825 20.6562 59.4825C20.8583 59.4825 21.0604 59.4053 21.2148 59.2511L25.3106 55.1552C25.4262 55.0396 25.4986 54.8971 25.5275 54.7476C25.5371 54.6978 25.5419 54.6474 25.5419 54.5968C25.542 54.3943 25.465 54.1921 25.3106 54.038Z" fill="#FC981A"/>
<path d="M55.8075 58.1339L51.7117 54.038C51.6153 53.9416 51.4993 53.879 51.3773 53.8428C51.2599 53.8081 51.1369 53.7988 51.0168 53.8196C50.8622 53.8467 50.7141 53.9184 50.5947 54.0377C50.2861 54.3463 50.2861 54.8464 50.5947 55.1548L54.6906 59.2507C54.7369 59.2969 54.7883 59.3339 54.8419 59.3663C55.1456 59.5498 55.5455 59.513 55.8078 59.2507C55.9336 59.1249 56.0053 58.9669 56.0284 58.8033C56.0618 58.5663 55.9903 58.3168 55.8075 58.1339Z" fill="#FC981A"/>
<path d="M21.2157 23.5425C21.0615 23.3882 20.8592 23.311 20.6571 23.311C20.6066 23.311 20.556 23.3158 20.5062 23.3254C20.3568 23.3544 20.2142 23.4265 20.0986 23.5423C19.9444 23.6965 19.8672 23.8988 19.8672 24.1009C19.8672 24.1514 19.872 24.202 19.8816 24.2518C19.9106 24.4012 19.9827 24.5438 20.0985 24.6594L24.1943 28.7552C24.2013 28.7623 24.2097 28.7669 24.217 28.7736C24.2891 28.8406 24.3693 28.8936 24.4557 28.9287C24.5506 28.9673 24.6519 28.9865 24.7529 28.9865C24.955 28.9865 25.1573 28.9093 25.3115 28.7551C25.4272 28.6394 25.4996 28.4967 25.5284 28.3475C25.538 28.2977 25.5428 28.2472 25.5428 28.1966C25.5428 27.9945 25.4656 27.7922 25.3114 27.638L21.2157 23.5425Z" fill="#FC981A"/>
<path d="M66.6949 54.9981C66.2911 55.8534 65.8494 56.6867 65.3702 57.4963C64.4155 59.1214 63.3215 60.653 62.1002 62.0752C60.8232 63.565 59.4108 64.9356 57.8833 66.1688L35.5178 43.8315C34.1712 42.4868 34.1712 40.3068 35.5178 38.9621C35.5773 38.9025 35.6371 38.8466 35.7007 38.793C36.9894 37.6712 38.915 37.6712 40.2039 38.793C40.2677 38.8466 40.3273 38.9023 40.3868 38.9621C40.4464 39.0217 40.5061 39.0854 40.5579 39.1491H40.5598C40.5995 39.1511 40.6394 39.1532 40.6831 39.1551C40.7587 39.161 40.8423 39.165 40.9317 39.1709C41.4011 39.2007 42.0436 39.2505 42.7895 39.3181C43.0123 39.338 43.245 39.3599 43.4857 39.3838C43.6587 39.4016 43.8358 39.4176 44.0168 39.4374C44.17 39.4533 44.3252 39.4693 44.4841 39.4852C44.5994 39.497 44.7168 39.5111 44.8342 39.523C45.0213 39.5428 45.2082 39.5648 45.3972 39.5867C46.2963 39.6902 47.2271 39.8074 48.1161 39.9389C48.2375 39.9567 48.3588 39.9748 48.4782 39.9945C48.496 39.9964 48.516 39.9985 48.5338 40.0025C48.673 40.0244 48.8104 40.0462 48.9456 40.0662C49.0808 40.0901 49.2142 40.112 49.3455 40.1338C49.4329 40.1496 49.5205 40.1637 49.608 40.1796C49.7412 40.2035 49.8745 40.2273 50.0058 40.2533C50.0715 40.2651 50.1371 40.2771 50.2007 40.2891C50.3359 40.317 50.4651 40.3428 50.5926 40.3687C50.6323 40.3767 50.6703 40.3846 50.7081 40.3926C50.7598 40.4045 50.8116 40.4166 50.8614 40.4264C50.8852 40.4304 50.9091 40.4363 50.933 40.4423C51.0066 40.46 51.0801 40.476 51.1496 40.4919C51.1993 40.5038 51.247 40.5159 51.2928 40.5257C51.4778 40.5734 51.6509 40.6191 51.814 40.6649C51.8518 40.6767 51.8896 40.6887 51.9254 40.6987C51.9554 40.7067 51.9831 40.7164 52.011 40.7246C52.0528 40.7385 52.0925 40.7525 52.1324 40.7645C52.1463 40.7685 52.1602 40.7723 52.1742 40.7784C52.2538 40.8063 52.3274 40.8321 52.3969 40.8599C52.4029 40.8619 52.4088 40.8659 52.4168 40.8678C52.4546 40.8836 52.4924 40.8997 52.5283 40.9136C52.6138 40.9514 52.6894 40.9873 52.7571 41.0251C52.7871 41.0428 52.8127 41.0589 52.8387 41.0747C52.9221 41.1284 52.9858 41.1822 53.0276 41.2358C53.0416 41.2498 53.0515 41.2658 53.0595 41.2795C53.0614 41.2836 53.0635 41.2855 53.0635 41.2876C53.0734 41.3053 53.0813 41.3234 53.0855 41.3431C53.0914 41.3609 53.0933 41.379 53.0933 41.3968L66.6949 54.9981Z" fill="url(#paint2_linear_1222_2946)"/>
<path d="M40.212 43.6554C38.9645 43.6554 37.9531 42.644 37.9531 41.3965C37.9531 40.1491 38.9645 39.1377 40.212 39.1377C41.4594 39.1377 53.0932 40.1491 53.0932 41.3965C53.0933 42.6442 41.4594 43.6554 40.212 43.6554Z" fill="#FC981A"/>
<path d="M40.211 39.1377C40.211 40.3851 39.1997 41.3965 37.9522 41.3965C36.7047 41.3965 35.6934 40.3851 35.6934 39.1377C35.6934 37.8902 36.7047 19.8579 37.9522 19.8579C39.1997 19.8581 40.211 37.8902 40.211 39.1377Z" fill="#FC981A"/>
<path d="M37.9538 44.8411C39.8558 44.8411 41.3978 43.2992 41.3978 41.3971C41.3978 39.4951 39.8558 37.9531 37.9538 37.9531C36.0517 37.9531 34.5098 39.4951 34.5098 41.3971C34.5098 43.2992 36.0517 44.8411 37.9538 44.8411Z" fill="#FC981A"/>
<path d="M36.3732 68.6506C35.3926 69.941 34.9023 71.2618 34.9023 72.6127V73.0416C35.9064 73.1372 36.9237 73.188 37.953 73.188C45.4996 73.188 52.4316 70.5584 57.8836 66.1685C59.4112 64.9353 60.8236 63.5647 62.1006 62.0749C62.6164 61.4742 63.1081 60.8529 63.5775 60.2146L51.4692 48.1149C49.5908 46.4398 47.3141 45.6025 44.6395 45.6025C42.115 45.6025 39.9436 46.3463 38.1256 47.8338C36.3071 49.3214 35.3983 51.2373 35.3983 53.5814C35.3983 54.7422 35.7095 55.5202 36.3274 55.9212L43.1877 62.8158L39.9964 65.1387C38.5618 66.1898 37.3537 67.3602 36.3732 68.6506Z" fill="url(#paint3_linear_1222_2946)"/>
<path d="M34.9023 76.9799V72.6127C34.9023 71.2616 35.3926 69.9412 36.3732 68.6506C37.3535 67.3602 38.5616 66.1897 39.9964 65.1387L44.324 61.9888C45.7667 60.9391 46.9908 59.7841 47.9982 58.5239C49.0047 57.2646 49.5083 56.0044 49.5083 54.7443C49.5083 53.4849 49.0949 52.3824 48.2687 51.4372C47.4418 50.4927 46.2324 50.0201 44.6397 50.0201C43.2873 50.0201 42.1899 50.3934 41.3491 51.1391C40.5072 51.8853 40.0868 52.9889 40.0868 54.4505C40.0868 54.9283 39.8536 55.3464 39.388 55.7044C38.9219 56.0623 38.3132 56.2412 37.5622 56.2412C36.1197 56.2412 35.3985 55.3549 35.3985 53.5814C35.3985 51.2373 36.3072 49.3215 38.1258 47.8338C39.9437 46.3463 42.1151 45.6025 44.6397 45.6025C47.3141 45.6025 49.5909 46.4397 51.4694 48.1147C53.3471 49.7898 54.2869 51.9542 54.2869 54.6096C54.2869 56.4099 53.7833 58.097 52.7767 59.6718C51.7694 61.2468 50.5523 62.5817 49.1252 63.6762C47.6974 64.7715 46.2698 65.8061 44.8428 66.781C43.415 67.7558 42.1981 68.7384 41.1914 69.7282C40.184 70.7186 39.6812 71.6785 39.6812 72.6082V74.3177H52.9345C53.3551 74.3177 53.7233 74.5207 54.0389 74.9263C54.3546 75.3322 54.5125 75.8211 54.5125 76.3916C54.5125 76.9629 54.3554 77.4664 54.042 77.9017C53.7285 78.3378 53.3629 78.5556 52.9452 78.5556H37.0066C36.529 78.5556 36.0585 78.4054 35.5966 78.1054C35.1334 77.8053 34.9023 77.4305 34.9023 76.9799Z" fill="#FC981A"/>
<path d="M54.6934 69.3766C54.6934 69.047 54.7835 68.7168 54.964 68.3864L65.8732 46.9081C66.3241 46.0377 67.015 45.6025 67.9469 45.6025C68.4573 45.6025 68.9838 45.7826 69.5246 46.1434C70.0655 46.5042 70.3361 46.9398 70.3361 47.4507C70.3361 47.6309 70.2605 47.8718 70.1105 48.1721L60.8243 66.6994H67.4509V60.4428C67.4509 59.3846 68.2467 58.8558 69.8401 58.8558C70.5008 58.8558 71.0642 58.9924 71.5306 59.2643C71.9962 59.5363 72.2293 59.9292 72.2293 60.4429V66.6996H74.4382C74.9488 66.6996 75.3466 66.923 75.6327 67.3695C75.9179 67.8161 76.0609 68.3367 76.0609 68.9311C76.0609 69.4663 75.8953 69.965 75.5649 70.4256C75.234 70.8869 74.8585 71.1174 74.4381 71.1174H72.2292V76.9677C72.2292 77.4523 71.9883 77.8377 71.5078 78.1252C71.0266 78.4123 70.471 78.5557 69.8398 78.5557C69.1785 78.5557 68.6149 78.4126 68.1494 78.1252C67.683 77.8377 67.4506 77.4523 67.4506 76.9677V71.1174H56.3612C55.88 71.1174 55.4821 70.9617 55.1668 70.6491C54.8513 70.3361 54.6934 69.912 54.6934 69.3766Z" fill="#FC981A"/>
<path d="M79.3268 35.9541H75.6825H75.5133C72.8653 17.5964 57.032 3.44434 37.9527 3.44434C17.0254 3.44434 0 20.4696 0 41.3967C0 50.0319 2.97843 58.4835 8.38658 65.1945C13.7132 71.8045 21.1781 76.4879 29.406 78.3824C29.6311 78.4345 29.8562 78.4591 30.078 78.4591C31.4366 78.4591 32.665 77.5248 32.9829 76.1444C33.3525 74.5385 32.3506 72.9373 30.7446 72.5676C23.8143 70.9718 17.5243 67.0238 13.0329 61.4505C8.41044 55.7145 5.96726 48.7802 5.96726 41.397C5.96726 23.7602 20.3158 9.41176 37.9527 9.41176C53.7345 9.41176 66.8814 20.901 69.4727 35.9543H66.3255C63.9486 35.9543 62.7583 38.828 64.439 40.5085L70.9398 47.0092C71.9816 48.0511 73.6709 48.0511 74.7127 47.0092L81.2135 40.5085C82.894 38.8278 81.7035 35.9541 79.3268 35.9541Z" fill="#FC981A"/>
</g>
<defs>
<linearGradient id="paint0_linear_1222_2946" x1="50.8239" y1="42.2891" x2="16.71" y2="38.4594" gradientUnits="userSpaceOnUse">
<stop stop-color="#C3C3C3" stop-opacity="0"/>
<stop offset="0.267" stop-color="#A4A4A4" stop-opacity="0.267"/>
<stop offset="0.542" stop-color="#8B8B8B" stop-opacity="0.542"/>
<stop offset="0.794" stop-color="#7C7C7C" stop-opacity="0.794"/>
<stop offset="1" stop-color="#777777"/>
</linearGradient>
<linearGradient id="paint1_linear_1222_2946" x1="37.952" y1="40.5187" x2="37.952" y2="45.8807" gradientUnits="userSpaceOnUse">
<stop stop-color="#F18D00"/>
<stop offset="1" stop-color="#ED7103"/>
</linearGradient>
<linearGradient id="paint2_linear_1222_2946" x1="50.5013" y1="48.7551" x2="36.6131" y2="33.5002" gradientUnits="userSpaceOnUse">
<stop stop-color="#C3C3C3" stop-opacity="0"/>
<stop offset="0.267" stop-color="#A4A4A4" stop-opacity="0.267"/>
<stop offset="0.542" stop-color="#8B8B8B" stop-opacity="0.542"/>
<stop offset="0.794" stop-color="#7C7C7C" stop-opacity="0.794"/>
<stop offset="1" stop-color="#777777"/>
</linearGradient>
<linearGradient id="paint3_linear_1222_2946" x1="49.5242" y1="66.9136" x2="30.5794" y2="47.9688" gradientUnits="userSpaceOnUse">
<stop stop-color="#C3C3C3" stop-opacity="0"/>
<stop offset="0.267" stop-color="#A4A4A4" stop-opacity="0.267"/>
<stop offset="0.542" stop-color="#8B8B8B" stop-opacity="0.542"/>
<stop offset="0.794" stop-color="#7C7C7C" stop-opacity="0.794"/>
<stop offset="1" stop-color="#777777"/>
</linearGradient>
<clipPath id="clip0_1222_2946">
<rect width="82" height="82" fill="white"/>
</clipPath>
</defs>
</svg>
