<svg width="256" height="270" viewBox="0 0 256 270" fill="none" xmlns="http://www.w3.org/2000/svg">
<path d="M120.526 254.268C187.09 254.268 241.051 200.275 241.051 133.67C241.051 67.066 187.09 13.0725 120.526 13.0725C53.9612 13.0725 0 67.066 0 133.67C0 200.275 53.9612 254.268 120.526 254.268Z" fill="#5B9412"/>
<path d="M8.60324 132.404C8.60802 134.34 8.83252 131.362 8.66056 133.671C8.57458 133.413 8.51249 133.035 8.60324 132.404Z" fill="#5B9412"/>
<path d="M126.952 245.365C128.495 245.097 130.162 244.891 131.9 244.724C133.629 244.476 135.435 244.251 137.255 244.031C139.07 243.749 140.894 243.424 142.69 243.104C144.472 242.722 146.201 242.263 147.835 241.794C148.604 241.575 147.725 242.196 149.44 241.632C150.218 241.35 151.059 241.063 151.942 240.772C152.826 240.48 153.767 240.208 154.713 239.844C156.614 239.142 158.692 238.525 160.746 237.694C161.782 237.307 162.828 236.915 163.874 236.523C164.906 236.093 165.938 235.663 166.955 235.237C169.018 234.434 170.948 233.469 172.792 232.642L172.4 232.948C173.819 232.341 175.276 231.103 176.709 230.334C176.752 230.381 176.303 230.668 176.67 230.558C176.799 230.377 177.425 229.989 178.084 229.593C178.748 229.206 179.403 228.732 179.661 228.493C180.239 228.211 180.267 228.369 181.012 227.992L181.681 227.308C182.149 226.845 182.737 226.434 183.338 225.965C183.945 225.502 184.614 225.043 185.316 224.57C186.013 224.096 186.744 223.618 187.461 223.102C188.158 222.562 188.851 221.998 189.5 221.401C189.395 221.544 189.147 221.793 189.395 221.659C190.46 220.722 191.621 219.771 192.753 218.701C193.331 218.18 193.918 217.649 194.511 217.109C194.812 216.841 195.108 216.574 195.413 216.306C195.71 216.029 195.996 215.742 196.288 215.455C196.87 214.887 197.458 214.313 198.05 213.74C198.633 213.161 199.249 212.612 199.794 212C200.911 210.8 202.029 209.62 203.08 208.449C202.975 208.693 202.908 208.946 203.228 208.736C203.266 208.348 204.498 206.838 205.573 205.529C205.903 205.309 206.366 204.75 206.844 204.009C207.336 203.277 207.909 202.417 208.573 201.676L208.506 201.844C208.864 201.194 209.222 200.787 209.562 200.405C209.891 200.018 210.178 199.636 210.407 199.072L211.095 198.417C211.195 197.705 212.475 196.792 213.015 195.693L212.939 195.688C213.488 194.684 213.946 194.273 214.472 193.351L214.558 193.284C215.852 191.171 216.674 189.981 216.435 189.91C217.046 189.26 215.317 192.041 216.253 191.009C220.223 183.859 223.776 176.202 226.337 168.388C226.733 167.537 226.958 166.983 227.11 166.811C227.287 166.003 227.913 163.814 227.989 163.064C227.918 163.331 228.262 162.586 228.391 162.17C228.653 161.468 228.653 161.042 228.691 160.612C228.72 160.177 228.758 159.733 228.997 158.944C228.916 159.594 228.945 159.833 229.088 159.642C229.15 158.934 229.293 158.127 229.46 157.295C229.546 156.879 229.632 156.454 229.714 156.033C229.776 155.608 229.843 155.183 229.905 154.776C229.9 155.039 229.857 155.436 229.948 155.393C230.043 153.567 230.578 152.148 230.707 150.561C230.731 150.767 230.736 150.967 230.755 151.168C231.304 148.664 230.559 150.375 230.956 148.2C230.936 148.731 231.018 148.554 231.061 148.659C231.056 147.617 231.19 146.274 231.323 144.936C231.404 143.588 231.505 142.245 231.538 141.222C231.548 141.346 231.591 141.318 231.591 141.318C231.629 140.759 231.672 140.195 231.71 139.626C231.748 139.052 231.748 138.474 231.772 137.886C231.806 136.715 231.825 135.511 231.801 134.282C231.873 133.389 232.197 134.579 232.083 132.203C231.791 132.294 231.858 128.184 231.562 129.589C231.562 129.083 231.562 128.504 231.562 127.897C231.529 127.295 231.495 126.664 231.462 126.052C231.39 124.834 231.309 123.701 231.204 123.032C231.385 123.93 231.486 122.014 231.639 123.691L231.72 122.401C231.853 122.578 231.777 123.715 231.901 123.295C231.868 122.444 231.395 120.016 231.362 119.261C231.175 118.496 230.951 117.765 230.731 116.919C230.487 116.073 230.206 115.117 229.972 113.879C230.292 115.031 230.172 113.158 230.363 113.941L229.776 112.254C229.585 111.695 229.389 111.131 229.155 110.586C228.954 109.774 229.341 110.362 228.992 109.191C228.93 109.267 228.763 108.761 228.62 108.421C228.601 108.264 228.386 107.418 228.204 106.557C228.161 106.342 228.118 106.127 228.075 105.922C228.027 105.716 227.985 105.525 227.951 105.348C227.884 104.999 227.86 104.732 227.903 104.622C227.913 104.235 228.338 105.922 228.18 104.999C227.755 103.508 227.641 103.465 227.211 101.974L227.239 101.931C227.115 101.434 226.9 100.707 226.681 100.268C226.47 99.8232 226.322 99.6368 226.423 100.191C226.638 100.87 226.518 99.8805 226.747 100.913C226.384 100.272 225.744 98.5901 225.248 97.1228C225.463 97.6056 225.515 97.5195 225.658 97.6964C224.813 95.7894 223.92 93.7725 222.974 91.6457C222.831 91.6648 223.523 92.3578 223.581 92.7019C223.351 91.9898 223.079 91.2824 222.792 90.5846C222.482 89.8964 222.133 89.2273 221.808 88.563C221.479 87.9034 221.159 87.2582 220.872 86.6273C220.729 86.3119 220.595 86.0012 220.471 85.6954C220.342 85.3895 220.213 85.0979 220.103 84.8064C220.309 85.1553 220.027 85.0836 220.046 85.0454C219.411 83.7645 219.616 83.731 219.124 82.9329C219.186 82.7943 218.556 81.9053 218.088 81.0641C217.787 80.6627 218.025 80.8156 218.417 81.5516C217.72 80.4046 214.94 75.8307 213.33 73.1829C213.292 73.2833 212.093 71.73 211.658 71.1661L211.969 71.2903C211.682 70.6977 210.579 69.3595 210.636 69.1731C210.106 68.6186 210.99 69.7848 211.845 70.8889C212.06 71.1661 212.27 71.4385 212.456 71.6822C212.628 71.9308 212.781 72.1506 212.886 72.3083C213.101 72.619 213.134 72.6859 212.824 72.2796C212.69 71.7252 210.947 70.1003 211.415 70.3106C210.569 69.1587 209.638 68.1264 208.941 66.9459C209.16 67.2757 209.858 67.7058 209.136 66.8073C207.852 65.2253 208.711 66.4058 207.641 65.144L206.944 64.3793C206.762 64.4367 205.841 62.936 206.156 63.6577C206.137 63.347 204.169 61.4783 204.532 61.44L204.895 61.5022C204.307 60.8474 203.768 60.575 203.242 60.1209C203.18 60.0206 203.065 59.815 203.123 59.8246C202.941 59.8963 202.621 59.4757 202.191 59.0073C201.766 58.5342 201.27 57.975 200.811 57.6882C200.219 56.9809 199.421 56.1301 198.704 55.3654C197.959 54.6342 197.305 53.9747 197.071 53.5971C195.963 52.7033 194.979 51.8765 193.794 50.7868C194.057 50.9732 194.396 51.2504 194.516 51.2552C193.818 50.5144 193.57 50.4188 192.829 49.8548C192.925 49.9026 192.576 49.5346 192.108 49.0423C191.635 48.5548 191.053 47.9431 190.642 47.556C189.467 46.7674 189.729 47.2166 189.548 47.2214C188.75 46.1556 186.314 44.9273 185.163 43.7755C185.588 44.0192 186.94 44.8269 186.037 44.0766C185.187 43.0538 183.783 42.7622 182.168 41.4623C182.254 41.6343 182.35 41.8016 182.431 41.9784C181.757 41.3237 179.775 40.4729 180.114 40.3391C179.474 40.0523 178.108 38.9387 178.156 39.302C176.766 38.3222 174.941 37.3424 173.293 36.3913C171.598 35.5215 170.069 34.7042 169.248 34.0017C168.799 33.8057 167.705 33.2656 167.872 33.4998C168.546 33.9682 168.942 33.8822 169.167 34.1164C168.775 33.9252 168.655 33.9491 168.598 33.9634C167.667 33.4616 166.912 33.1079 167.925 33.3039C166.888 32.7399 166.282 32.5965 165.603 32.4292C165.264 32.348 164.906 32.2572 164.466 32.1042C164.027 31.9513 163.506 31.7315 162.819 31.4399C162.991 31.3826 162.795 31.2583 161.973 30.9524L160.354 30.5318C158.572 29.7767 159.422 29.8771 159.451 29.6763C159.208 29.5855 158.95 29.4947 158.696 29.3991C158.439 29.3179 158.176 29.2414 157.937 29.1649C157.45 29.0215 157.029 28.9164 156.781 28.9116L155.668 28.2712C156.485 28.7348 154.823 28.1087 154.345 27.9988L154.818 28.1087C154.665 27.9749 153.519 27.6116 152.917 27.4921C152.969 27.5734 153.289 27.6977 153.667 27.8554C154.044 28.0179 154.484 28.1899 154.794 28.3142C154.269 28.233 153.5 27.9271 152.788 27.8506C153.07 27.7263 151.207 27.258 150.424 27.0142C149.526 26.7179 149.354 26.8899 149.091 26.8087C149.096 26.7036 147.615 26.3738 148.36 26.4359C148.68 26.4933 149.043 26.7322 149.578 26.7896C149 26.5554 149.12 26.3738 147.83 26.1874C146.86 26.0631 147.978 26.6175 146.215 26.0822C146.698 26.1444 146.803 26.087 147.185 26.1061L145.523 25.6186L145.413 25.7764C145.193 25.6808 145.356 25.6999 145.26 25.6569C144.716 25.7333 142.681 25.0929 142.251 25.265C141.391 25.1311 140.469 24.8205 139.653 24.658L139.815 24.6723C138.831 24.4047 137.494 24.1896 136.624 24.2278L136.672 24.1944C136.123 24.1131 134.819 23.9745 134.117 23.9889C132.746 23.6782 133.73 23.2672 132.158 23.2911C130.735 23.162 129.904 23.4392 130.463 23.5874C129.197 23.4297 127.831 23.3675 126.493 23.2911C125.151 23.2528 123.837 23.2433 122.658 23.0712C122.29 23.1334 122.519 23.1859 121.76 23.205C121.292 23.1907 120.819 23.1573 120.336 23.1668C119.859 23.1812 119.376 23.1955 118.894 23.2146C117.929 23.2528 116.964 23.2863 116.023 23.3245C115.555 23.3484 115.087 23.3437 114.633 23.3771C114.179 23.4058 113.735 23.4345 113.3 23.4584C112.431 23.5014 111.61 23.5157 110.86 23.487C111.934 23.3293 110.917 23.3054 110.884 23.205C110 23.4297 109.79 23.1238 109.494 23.4201C109.599 23.5731 109.518 23.6543 110.573 23.64C109.46 23.7403 108.065 23.9554 106.79 24.1131C105.515 24.2661 104.359 24.376 103.733 24.3808C104.359 24.3808 103.886 24.4668 103.418 24.6102C103.537 24.3282 101.904 24.5815 100.691 24.8922L100.547 25.0738L99.7161 25.0594C99.2528 25.198 99.2576 25.4561 98.0157 25.5565C97.9392 25.5135 97.858 25.4705 97.624 25.4753C96.3916 25.8911 94.6721 26.5076 93.2774 26.694C92.8857 26.6988 92.5036 26.7466 92.1167 26.7705C91.5483 26.9569 90.6121 27.3679 91.6438 27.1433C90.4783 27.4109 89.5182 27.6307 88.7588 27.8028C88.3767 27.8888 88.0471 27.9557 87.7605 28.0035C87.4739 28.0561 87.2399 28.1039 87.044 28.1182C83.2562 29.8293 77.7059 31.9609 73.3784 34.0017L73.4596 33.8392C72.2416 34.2693 72.939 34.298 72.1031 34.6278C72.4231 34.341 71.1239 34.8572 71.9646 34.2741C70.2689 35.0053 69.9441 35.5358 68.9028 36.1285C68.8121 36.3483 69.7148 35.6027 69.5954 35.8799C69.519 35.9516 68.9363 36.2145 68.3583 36.5013C67.7756 36.7832 67.2311 37.1465 67.1594 37.309C66.7152 37.4619 66.9445 37.1321 67.1116 36.9266L66.1946 37.5862C64.8667 38.0402 68.6783 35.598 67.2645 36.0281L66.3808 36.5777C65.3969 36.8645 68.6449 34.9623 66.3283 36.1954C65.3921 36.8645 64.7234 37.6388 65.65 37.2229C63.6439 38.4656 64.967 38.2171 62.7985 39.5123C62.4737 39.6413 62.8892 39.3546 63.3382 39.063C63.792 38.7858 64.2648 38.4895 64.0021 38.5277C63.7203 38.6376 63.4528 38.7715 63.1949 38.9196C62.9417 39.0773 62.7029 39.2542 62.4689 39.4262C62.0008 39.7751 61.5566 40.1288 61.0932 40.3869C62.1297 39.8229 61.418 40.559 60.8019 41.0034C59.6603 41.6056 61.3846 40.3678 59.8418 41.3332C59.6603 41.6056 58.3133 42.5902 59.5791 41.8876C59.1826 42.4755 57.979 42.8913 57.3007 43.6512C56.6941 43.8233 58.5426 42.16 56.8517 43.2354C57.229 43.2211 55.0032 44.8891 56.0445 44.5258C55.3758 44.9321 55.2086 44.8508 55.6003 44.4159C54.5972 44.9416 53.6562 46.342 53.1212 46.2416L52.9493 46.6431C52.6293 46.8056 52.2089 47.0732 51.6835 47.3409C51.2966 47.6468 50.7091 48.1821 50.2219 48.6313C49.7443 49.0901 49.343 49.4247 49.2762 49.2765C49.0564 49.5107 47.3464 50.9732 48.1489 50.567C49.2905 49.7545 49.2618 49.3912 50.0404 49.1093C49.1376 49.5729 48.5358 50.4523 47.9817 51.0401L47.8002 51.0353C47.4706 51.389 46.6061 52.082 46.4819 52.3927C46.7016 52.0868 46.5058 52.1585 46.2096 52.3975L45.9708 52.885C44.6238 54.2997 45.412 52.9614 44.0745 54.314L45.0203 53.21C44.8101 53.4537 44.2226 53.7739 43.6017 54.443C43.4631 54.811 43.1288 55.4132 42.9998 55.7143C42.2977 56.5221 42.5269 55.9199 41.9203 56.804C42.1878 56.4265 42.4553 56.0393 42.7276 55.6665C42.8279 55.4706 41.8821 56.1397 40.8982 57.1816C40.3059 57.889 39.5082 59.079 40.5686 58.104C40.0766 58.625 39.3076 59.2798 39.6085 58.7875C38.5338 60.0062 39.8855 58.7492 39.0114 59.8485C38.5529 60.207 37.2632 61.4496 36.4273 62.1617L37.1725 60.8665L36.5324 61.6025C37.1868 60.4985 35.9783 61.9753 36.2649 61.2775C35.7968 61.7603 35.3287 62.4294 34.9514 62.9599C35.7443 62.3433 35.4768 62.8356 35.1186 63.4713C34.7699 64.1165 34.3161 64.8955 34.6314 64.7808C33.848 65.861 33.4181 66.0569 33.0312 66.3007C32.8354 66.4249 32.6491 66.5587 32.4294 66.8168C32.2145 67.0797 31.9518 67.462 31.6652 68.1168C32.0043 67.8014 31.455 69.0201 32.3578 67.6006C31.3547 68.9198 31.9852 68.7238 30.7337 70.2293C31.455 68.9675 29.5396 71.2951 30.5857 69.4646C30.6 69.6462 31.3356 68.5613 31.4932 68.2793C30.9869 68.7573 31.2878 67.9543 30.3039 69.3451C29.7259 70.215 28.9091 71.3811 29.1766 71.3142C29.3677 71.3955 30.0794 70.0094 29.8596 70.669C28.7037 72.38 28.3121 72.5377 28.1353 73.4458C28.8136 72.3322 29.1623 72.1697 29.2626 72.2701L28.5174 73.5892L28.5652 73.269C27.1752 75.262 28.3837 74.005 27.0845 75.9598C26.817 76.2226 26.5304 76.4807 26.2725 76.7579C26.3632 76.1557 28.1974 73.9285 27.6577 74.0767C27.2373 74.7171 26.9985 75.1712 26.7597 75.6109C26.5209 76.0506 26.2629 76.4664 25.876 77.0734C26.0098 76.777 26.2152 76.3899 26.368 76.1079C26.0528 76.5572 25.3793 76.7962 24.5291 78.8369C24.061 79.8741 24.4956 79.162 24.6007 79.2528C23.3875 81.3939 23.2251 82.1395 22.5134 83.5542C22.4226 83.1432 21.2142 86.0347 21.7635 84.3523C22.2745 83.7071 23.8556 80.5241 24.1135 79.6686C23.3875 80.2899 25.1166 78.0101 25.1022 77.3888C24.1087 79.0998 23.8842 78.8608 23.5451 79.0377C23.2585 79.5108 23.0674 80.0175 22.9289 80.3186C22.9815 80.6149 23.3397 79.9888 23.5355 80.0509C23.3922 80.2899 23.2537 80.5241 23.1152 80.7583C22.9815 80.9972 22.8668 81.241 22.7474 81.4752C22.5134 81.9483 22.2889 82.4119 22.093 82.8516C21.6966 83.7263 21.3813 84.5053 21.1855 85.0884C20.7652 85.7001 20.6935 85.4134 21.0756 84.6248C20.9323 84.9211 20.7843 85.2174 20.6362 85.5185C20.5025 85.8244 20.3639 86.1303 20.2302 86.4362C19.9532 87.0479 19.6761 87.6645 19.3991 88.281C19.1173 88.8928 18.8355 89.4949 18.5584 90.0924C18.267 90.6802 18.0473 91.292 17.7989 91.8607C18.6874 90.4747 16.8484 94.4798 17.498 93.5526C18.0569 92.3339 18.6826 91.3541 18.5441 92.0949C18.2193 92.8596 18.4247 92.0185 18.2336 92.3148C18.0043 93.3662 17.3691 93.7486 17.2449 94.8192C18.0282 92.5537 17.0538 94.2456 16.9822 93.7486C16.4759 95.4118 16.8436 93.6148 16.2131 95.2159C15.7689 96.8982 15.2005 98.9485 14.6417 100.784C14.2022 101.912 13.7819 103.384 13.3998 104.832C13.3043 105.195 13.2135 105.554 13.1227 105.907C13.0511 106.266 12.9795 106.615 12.9126 106.954C12.7788 107.628 12.6499 108.249 12.5305 108.775C12.1531 109.846 12.0528 109.038 11.728 110.228C11.408 111.633 12.263 109.253 11.6611 111.303L11.6516 111.093C11.5847 111.738 10.7727 114.912 11.0545 115.595L10.8682 114.897C10.7727 115.284 10.7727 115.662 10.7488 115.987C10.6485 115.987 10.4766 116.432 10.5291 115.782C10.4192 116.097 10.3333 116.427 10.2712 116.766C10.2234 117.105 10.19 117.454 10.1613 117.808C10.1088 118.515 10.0801 119.237 9.99413 119.949L10.2903 119.06C10.2043 120.284 10.0706 121.297 9.92248 122.296C9.82695 123.304 9.72187 124.298 9.66455 125.484L9.4926 125.398V126.812C9.35886 126.459 9.11048 127.744 9.25377 128.495C9.14869 127.266 9.13436 126.038 9.07227 124.8C9.25377 123.787 9.20123 125.933 9.42095 125.302C9.61679 124.772 9.72665 122.578 9.59291 122.21C9.50215 123.046 9.54514 123.089 9.55469 123.749C9.29199 124.002 9.38752 122.731 9.28721 122.081C9.249 122.52 9.13914 123.142 9.20123 123.242C9.12958 122.363 9.23467 121.493 9.4114 120.054C9.38274 121.039 9.63112 119.543 9.65022 119.92C9.44961 119.782 9.55947 118.396 9.84606 116.627C10.3142 115.409 10.2759 113.291 10.7106 111.26C10.7775 112.135 10.7584 113.225 10.6294 114.472C10.9638 113.215 10.8778 113.048 11.2121 111.791C11.15 111.136 11.0259 110.653 11.3029 108.976L11.4796 108.923C11.7471 107.408 11.5035 107.346 12.005 105.453C12.5018 103.847 12.9842 102.213 13.438 100.669C13.9348 99.1445 14.4411 97.725 14.8566 96.5111L15.0381 96.4728C15.0716 96.1048 15.1719 95.6412 15.3199 95.1155C15.4919 94.5993 15.7021 94.0306 15.9313 93.4475C16.3803 92.2813 16.8771 91.0674 17.1589 90.145C17.8897 88.6825 18.5966 87.0527 19.2224 85.6045C19.5185 84.8733 19.8815 84.2281 20.1777 83.6546C20.4833 83.0858 20.7652 82.6079 21.0183 82.2685C23.5738 77.1068 26.0766 72.6859 29.6543 67.8922L29.2626 68.8481C29.7402 67.8731 29.7737 68.3606 30.3564 67.4859C29.5062 68.3606 30.9917 66.1477 31.3642 65.5025C32.2622 64.5132 33.1889 63.3088 34.0821 62.1235C35.0183 60.9717 35.8924 59.8198 36.6041 58.8687L36.7856 58.907C36.9528 58.6584 37.1295 58.4051 37.3205 58.1566C37.5164 57.9129 37.7266 57.6739 37.9463 57.4301C38.3809 56.9474 38.8538 56.4647 39.341 55.9772C39.833 55.4945 40.3441 54.9974 40.8599 54.4908C41.3758 53.9842 41.9442 53.5158 42.4887 53.0044C42.7801 52.818 43.2769 52.5552 43.9026 51.9339C44.3993 51.2886 44.7862 50.8011 45.2925 50.2993C45.7989 49.8023 46.372 49.2383 47.2223 48.4067C47.5518 48.1247 47.934 47.7997 48.34 47.4556C48.5453 47.2835 48.7555 47.1067 48.9705 46.9299C49.1902 46.7578 49.4194 46.5905 49.6487 46.4185C50.561 45.735 51.4829 45.0659 52.2042 44.5641C57.1478 40.3104 62.8988 36.8932 68.8025 33.5858L69.3232 33.5333C70.0301 33.1127 70.7657 32.6969 71.5156 32.2763C72.275 31.8748 73.0727 31.5116 73.8704 31.1292C74.6729 30.7565 75.4849 30.3837 76.2969 30.0109C77.1089 29.6429 77.9543 29.3465 78.7759 29.012C79.6022 28.6918 80.419 28.3716 81.2262 28.0609C81.4268 27.9844 81.6275 27.9032 81.8281 27.8267C82.0287 27.7598 82.2341 27.6929 82.4347 27.626C82.8359 27.4921 83.2324 27.3583 83.624 27.2245C84.4026 26.9569 85.1621 26.694 85.8881 26.4407C86.2511 26.3116 86.6046 26.1826 86.9533 26.0583C87.3067 25.9436 87.6459 25.8337 87.9802 25.7286L87.5551 26.1874C89.2699 25.805 91.3763 25.0117 90.8891 24.9113C91.319 24.8157 91.7966 24.6819 92.2886 24.5337C92.7854 24.4095 93.3012 24.2756 93.7932 24.1514C94.782 23.9028 95.6991 23.6925 96.2722 23.6973C98.0348 23.3341 98.393 23.0856 99.8642 22.7749C100.757 22.6411 101.507 22.5264 102.19 22.426C102.869 22.3209 103.47 22.2109 104.072 22.144C105.276 21.9911 106.446 21.819 108.132 21.5753L107.292 21.6613C106.929 21.7808 106.914 21.9194 107.755 21.8334C108.065 21.7712 108.514 21.7091 108.987 21.647C109.465 21.6087 109.966 21.5657 110.387 21.5275C111.232 21.4462 111.762 21.3554 111.113 21.2121C112.025 21.1977 113.004 21.1404 114.022 21.0639C114.275 21.0448 114.533 21.0257 114.791 21.0018C115.049 20.9922 115.311 20.9826 115.569 20.9731C116.09 20.9492 116.62 20.9301 117.146 20.9062C118.196 20.8632 119.247 20.8201 120.26 20.801C121.268 20.8058 122.233 20.8823 123.116 20.9731C122.82 20.8584 123.713 20.8632 124.086 20.801C124.884 20.8249 125.691 20.844 126.493 20.8966C127.291 20.9731 128.089 21.0543 128.862 21.1308C129.636 21.2073 130.391 21.2742 131.112 21.322C131.47 21.3459 131.824 21.365 132.168 21.3841C132.507 21.4176 132.836 21.4415 133.156 21.4606C133.653 21.5753 132.335 21.537 133.625 21.7139C134.394 21.7712 133.653 21.5801 134.604 21.6374C135.249 21.6948 135.893 21.7617 136.538 21.8334C137.183 21.9051 137.833 21.9815 138.468 22.1106C139.743 22.3495 141.014 22.6028 142.27 22.8657C142.585 22.9326 142.896 22.9948 143.206 23.0617C143.517 23.1334 143.822 23.2194 144.128 23.2959C144.739 23.4536 145.346 23.6113 145.943 23.7642C146.545 23.9124 147.137 24.0606 147.725 24.2087C148.312 24.3473 148.895 24.4811 149.459 24.6484C157.593 26.5888 165.727 29.9105 172.83 33.605L172.716 33.6336C173.341 33.8822 174.01 34.1737 174.66 34.5513C175.304 34.9336 175.959 35.3447 176.594 35.7461C177.869 36.5491 179.106 37.2755 180.11 37.6866C180.606 38.0928 182.13 39.0248 181.652 38.8957C182.13 39.1395 182.675 39.474 183.272 39.8612C183.869 40.2435 184.475 40.7358 185.125 41.2137C185.77 41.6964 186.438 42.1983 187.117 42.6762C187.456 42.9104 187.795 43.1446 188.129 43.374C188.454 43.613 188.784 43.8376 189.104 44.0527C188.884 43.8711 188.745 43.785 188.468 43.6082C189.643 44.6405 190.804 45.5343 191.984 46.4376C193.14 47.3696 194.281 48.3637 195.476 49.4964C195.203 49.3052 194.726 48.9229 194.601 48.9181C195.031 49.3912 195.652 49.8214 196.202 50.2276C196.737 50.6482 197.19 51.0592 197.315 51.432C197.845 51.9339 197.821 51.6519 197.486 51.3556C202.64 56.3643 207.918 61.9801 212.351 68.0403C213.817 70.2962 213.731 70.4492 213.622 70.4539C213.497 70.4683 213.397 70.2914 214.648 71.9977C214.777 72.3274 214.902 72.1315 214.868 72.2223C215.838 73.5462 215.89 74.5881 216.664 75.4436C216.626 74.9226 217.151 76.0315 217.29 75.9884C218.045 77.4509 218.455 78.3447 218.861 79.1476C219.057 79.5491 219.272 79.9171 219.492 80.3425C219.712 80.763 219.97 81.2219 220.299 81.7763L220.103 81.6616C220.524 82.2972 220.93 82.9711 221.326 83.6641C221.522 84.013 221.718 84.3619 221.914 84.7108C222.105 85.0597 222.267 85.4229 222.444 85.7766C223.136 87.1961 223.81 88.5582 224.517 89.6479C231.08 105.08 234.165 121.283 233.669 137.676C233.353 145.772 232.255 153.763 230.301 161.577C228.362 169.397 225.486 177.015 221.713 184.323C220.686 185.962 220.17 186.856 219.63 187.792C219.072 188.72 218.541 189.714 217.543 191.578C217.586 191.401 217.705 191.167 217.524 191.386C217.576 191.539 217.237 192.204 216.812 192.844C216.401 193.494 215.976 194.163 215.972 194.397C212.666 199.492 209.375 204.052 205.21 208.721C205.836 207.956 205.998 207.44 205.244 208.339L204.565 209.376L204.379 209.481C203.873 210.107 203.347 210.815 203.987 210.274C198.743 216.144 192.806 221.291 186.448 225.736C180.09 230.181 173.317 233.928 166.31 237.072C164.643 237.818 162.57 238.583 160.483 239.433C159.446 239.878 158.367 240.232 157.33 240.604C156.289 240.972 155.281 241.331 154.345 241.661C148.666 243.214 143.187 244.289 137.651 245.102C132.101 245.814 126.508 246.249 120.551 246.421C120.551 246.421 120.943 246.244 121.936 246.029C122.433 245.924 123.088 245.809 123.914 245.699C124.329 245.647 124.788 245.594 125.294 245.551C125.786 245.475 126.345 245.446 126.952 245.365Z" fill="#5B9412"/>
<path d="M8.63672 130.076C8.77524 129.665 8.8851 128.318 9.02839 129.402C8.9042 129.532 8.75135 130.22 8.63672 130.076Z" fill="#5B9412"/>
<path d="M16.7763 95.1682C16.7572 95.1108 17.0151 94.7141 17.0724 94.6138C16.9244 95.0296 16.8671 95.4454 16.6855 95.756C16.8288 95.3307 16.7524 95.3785 16.7763 95.1682Z" fill="#5B9412"/>
<path d="M20.3859 86.7754C20.4337 86.9522 19.7125 88.7684 19.2539 89.8198L20.3859 86.7754Z" fill="#5B9412"/>
<path d="M24.7136 79.4535C25.1626 78.8657 25.11 79.0712 24.618 79.9219C24.5273 79.9506 24.6658 79.6543 24.7136 79.4535Z" fill="#5B9412"/>
<path d="M24.7852 78.7988C25.1338 78.1871 25.3679 77.9146 25.5972 77.6518C25.4969 77.6231 24.8377 79.0999 24.7852 78.7988Z" fill="#5B9412"/>
<path d="M35.4959 63.8345C35.7586 63.4809 36.327 62.7066 36.69 62.4724C36.3127 62.764 35.3956 64.1978 35.4959 63.8345Z" fill="#5B9412"/>
<path d="M41.0605 57.344C41.2564 57.1481 41.3519 57.0812 41.5478 56.8279C41.9347 56.4981 41.629 56.9426 41.3424 57.2628L41.0605 57.344Z" fill="#5B9412"/>
<path d="M183.696 42.7862L182.908 42.2939L183.085 42.2795L183.696 42.7862Z" fill="#5B9412"/>
<path d="M224.73 96.3582C225.098 97.2137 224.836 97.0034 224.869 97.1563C224.587 96.3677 225.098 97.4048 224.73 96.3582Z" fill="#5B9412"/>
<path d="M231.738 132.595L231.729 132.309L231.967 132.399L231.738 132.595Z" fill="#5B9412"/>
<path d="M45.6726 23.5967C43.8146 24.9492 46.9336 23.243 44.5215 24.5717C44.6696 24.2515 44.9657 23.8882 45.6726 23.5967Z" fill="#5B9412"/>
<path d="M16.1156 215.804C17.5199 217.052 18.8907 218.5 20.252 220.058C21.6897 221.554 23.1227 223.16 24.5652 224.799C26.0603 226.381 27.6031 227.953 29.1363 229.478C30.7174 230.945 32.3605 232.302 33.9702 233.516C34.3379 233.813 34.1851 233.899 34.1517 234.071C34.1134 234.248 34.209 234.501 35.0879 235.118C35.9237 235.648 36.7931 236.241 37.6911 236.886C38.5938 237.526 39.5061 238.238 40.5092 238.908C41.4979 239.596 42.5058 240.318 43.528 241.073C44.0438 241.441 44.5406 241.852 45.0803 242.205C45.6153 242.573 46.1503 242.941 46.69 243.314C47.7647 244.065 48.849 244.829 49.9237 245.608C51.0318 246.34 52.1352 247.071 53.229 247.797C55.3833 249.307 57.5996 250.593 59.6248 251.893L59.0277 251.783C60.561 252.801 62.868 253.164 64.5685 254.068C64.5303 254.182 63.9332 253.963 64.2676 254.307C64.5685 254.245 65.3757 254.574 66.2116 254.938C67.0475 255.31 67.955 255.621 68.3801 255.664C69.025 256.089 68.8435 256.328 69.6937 256.859L70.8735 256.892C71.6807 256.94 72.4927 257.189 73.3668 257.437C74.2361 257.695 75.1341 258.044 76.0655 258.417C76.9922 258.785 77.9475 259.201 78.9362 259.55C79.9345 259.865 80.9567 260.147 81.9932 260.329C81.7735 260.362 81.3531 260.314 81.6397 260.506C83.2924 260.845 85.0167 261.294 86.8366 261.638C87.7393 261.834 88.6564 262.03 89.5879 262.236C90.0512 262.341 90.5145 262.446 90.9826 262.551C91.4507 262.647 91.9283 262.723 92.406 262.814C93.3565 262.991 94.3118 263.168 95.2719 263.345C96.232 263.512 97.1825 263.732 98.1473 263.846C100.072 264.109 101.978 264.382 103.831 264.587C103.516 264.707 103.21 264.926 103.621 265.156C104.051 264.754 106.358 264.883 108.355 265.008C108.57 265.146 108.89 265.208 109.291 265.237C109.692 265.275 110.17 265.251 110.69 265.208C111.737 265.137 112.959 265.051 114.125 265.247L113.919 265.338C114.798 265.146 115.434 265.256 116.031 265.347C116.628 265.428 117.191 265.467 117.898 265.189L118.992 265.557C119.756 264.912 121.5 265.93 122.937 265.581L122.89 265.452C124.232 265.242 124.944 265.538 126.195 265.381L126.319 265.447C129.247 265.208 130.967 265.347 130.857 264.864C131.917 265.175 128.034 265.295 129.687 265.739C139.307 264.549 149.146 262.857 158.47 260.047C159.588 259.932 160.285 259.798 160.581 259.903C161.474 259.488 164.025 258.618 164.775 258.087C164.469 258.202 165.458 258.125 165.955 257.977C166.829 257.791 167.225 257.456 167.646 257.146C168.066 256.83 168.51 256.515 169.451 256.257C168.782 256.668 168.596 256.921 168.907 256.997C169.604 256.505 170.473 256.066 171.39 255.645C171.849 255.439 172.317 255.224 172.78 255.014C173.234 254.785 173.688 254.555 174.123 254.321C173.879 254.527 173.473 254.77 173.602 254.885C175.369 253.575 177.203 253.332 178.784 252.28C178.622 252.476 178.445 252.653 178.278 252.839C179.009 252.61 179.386 252.39 179.611 252.237C179.83 252.08 179.883 251.96 179.921 251.845C179.998 251.616 180.017 251.391 181.225 250.875C180.709 251.248 180.958 251.248 180.915 251.406C181.875 250.603 183.255 249.79 184.636 248.997C185.987 248.146 187.358 247.334 188.361 246.641C188.256 246.751 188.333 246.798 188.333 246.798C188.896 246.449 189.469 246.105 190.057 245.761C190.635 245.412 191.203 245.025 191.786 244.648C192.947 243.888 194.127 243.09 195.273 242.191C196.223 241.699 195.411 243.008 197.623 241.254C197.203 240.843 201.325 238.234 199.596 238.688C200.092 238.353 200.661 237.971 201.253 237.569C201.826 237.139 202.419 236.685 202.997 236.25C204.143 235.371 205.189 234.52 205.738 233.942C205.046 234.793 207.104 233.746 205.59 235.046L206.99 234.358C206.971 234.683 205.729 235.285 206.297 235.208C207.095 234.592 209.082 232.412 209.817 231.896C210.386 231.141 210.873 230.353 211.489 229.502C212.086 228.632 212.769 227.657 213.806 226.577C212.97 227.733 214.823 226.462 214.221 227.212L215.301 225.339C215.664 224.718 216.017 224.101 216.337 223.451C216.982 222.696 216.815 223.604 217.67 222.438C217.508 222.385 217.856 221.86 218.052 221.453C218.205 221.339 218.869 220.55 219.585 219.795C219.767 219.608 219.948 219.422 220.125 219.25C220.292 219.068 220.459 218.901 220.617 218.763C220.928 218.481 221.2 218.294 221.377 218.304C221.826 218.103 220.44 219.637 221.295 218.915C222.456 217.486 222.356 217.3 223.512 215.871L223.593 215.89C224.004 215.441 224.543 214.729 224.792 214.189C225.045 213.653 225.074 213.348 224.558 213.778C224.037 214.437 225.035 213.744 224.133 214.624C224.405 213.754 225.57 211.971 226.655 210.504C226.358 211.058 226.526 211.087 226.511 211.388C226.788 210.824 227.08 210.27 227.39 209.715C227.548 209.438 227.705 209.161 227.868 208.884C228.021 208.597 228.174 208.31 228.326 208.023C228.952 206.876 229.621 205.715 230.299 204.525C230.094 204.338 230.151 205.648 229.807 205.906C230.371 205.227 230.877 204.487 231.35 203.731C231.799 202.957 232.191 202.159 232.592 201.38C232.988 200.601 233.38 199.846 233.795 199.143C234.006 198.794 234.216 198.455 234.44 198.135C234.655 197.81 234.87 197.494 235.104 197.208C234.923 197.652 234.646 197.246 234.727 197.255C235.548 195.779 235.859 196.037 236.251 194.995C236.509 195.004 236.838 193.733 237.306 192.701C237.43 192.108 237.545 192.49 237.106 193.374C237.426 192.648 238.109 190.779 239.002 188.734C239.938 186.702 240.827 184.38 241.691 182.76C241.51 182.764 242.054 180.494 242.312 179.701L242.536 180.136C242.995 179.49 243.454 177.478 243.788 177.45C243.883 176.532 243.392 178.186 242.933 179.777C242.818 180.174 242.708 180.566 242.608 180.915C242.489 181.254 242.388 181.55 242.317 181.761C242.164 182.181 242.121 182.258 242.274 181.67C242.403 181.55 242.517 181.283 242.618 180.958C242.708 180.628 242.771 180.241 242.837 179.892C242.962 179.189 243.062 178.635 243.2 178.965C243.477 178.167 243.659 177.354 243.879 176.561C244.089 175.767 244.38 175.012 244.758 174.286C244.567 174.711 244.829 175.753 245.202 174.439C245.842 172.116 245.24 173.731 245.694 171.829L245.909 170.62C245.598 170.448 246.577 168.584 245.942 169.329C246.343 169.134 246.635 165.917 247.146 166.304L247.504 166.744C247.729 165.726 247.456 164.975 247.461 164.144C247.538 164.02 247.69 163.776 247.748 163.848C247.418 163.685 247.614 163.097 247.795 162.366C247.977 161.639 248.206 160.784 248.068 160.124C248.402 159.087 248.684 157.739 248.951 156.535C249.166 155.321 249.386 154.251 249.677 153.777C249.711 152.09 249.749 150.566 250.06 148.687C250.083 149.07 250.05 149.591 250.188 149.715C250.518 148.549 250.365 148.233 250.37 147.134C250.408 147.263 250.575 146.68 250.776 145.896C250.977 145.117 251.235 144.137 251.378 143.483C251.263 141.805 250.857 142.355 250.637 142.168C251.024 141.437 250.981 140.257 250.934 139.033C250.914 137.809 250.752 136.543 251.086 135.601C251.177 136.175 251.402 138.034 251.588 136.653C252.281 135.138 251.134 133.575 251.44 131.133L250.886 131.74C251.206 130.64 250.418 128.16 251.01 128.389C250.771 127.582 251.086 125.498 250.542 125.799C250.642 123.787 250.332 121.364 250.141 119.127C249.835 116.905 249.615 114.869 249.945 113.564C249.797 113.005 249.615 111.571 249.391 111.91C249.271 112.899 249.83 113.191 249.673 113.578C249.587 113.067 249.419 112.981 249.338 112.938C249.248 111.69 249.099 110.715 249.773 111.8C249.687 110.4 249.324 109.735 248.927 108.985C248.727 108.608 248.521 108.211 248.34 107.69C248.158 107.169 248.006 106.519 247.838 105.654C248.101 105.759 248.125 105.482 247.848 104.483L247.012 102.672C246.577 100.43 247.222 101.281 247.585 101.128C247.504 100.831 247.413 100.521 247.327 100.21C247.222 99.9043 247.117 99.6032 247.022 99.3212C246.816 98.7572 246.606 98.2841 246.391 98.0547L246.448 96.487C246.41 97.6341 245.942 95.5837 245.689 95.0628L245.937 95.5885C246.028 95.3304 245.565 93.9827 245.259 93.3279C245.168 93.4474 245.235 93.8536 245.312 94.3315C245.383 94.8143 245.498 95.3591 245.574 95.7462C245.23 95.2014 245.025 94.2455 244.543 93.5334C244.996 93.6768 244.151 91.5691 243.874 90.6371C243.587 89.5569 243.143 89.5665 243.048 89.2559C243.229 89.1603 242.484 87.5305 243.033 88.2522C243.22 88.5915 243.134 89.1364 243.501 89.6717C243.392 88.9308 243.778 88.8783 242.995 87.5401C242.388 86.5412 242.398 88.0801 241.815 85.982C242.116 86.4743 242.298 86.5173 242.594 86.8805L242.016 84.9114L241.658 84.9592C241.639 84.6724 241.739 84.8349 241.734 84.7011C241.452 84.486 241.132 83.7787 240.822 83.0857C240.664 82.7416 240.511 82.3974 240.354 82.1298C240.186 81.8669 240.029 81.671 239.886 81.6088C239.422 80.696 239.202 79.5489 238.825 78.6409L238.93 78.7986C238.773 78.2107 238.496 77.5655 238.18 76.9681C238.023 76.6718 237.856 76.3802 237.684 76.1221C237.502 75.8688 237.321 75.6346 237.153 75.4387L237.244 75.453C236.967 74.8604 236.198 73.5174 235.634 72.8817C235.104 71.295 236.537 71.7681 235.3 70.3486C234.459 68.8862 233.413 68.3891 233.566 69.0773C232.902 67.72 232.014 66.377 231.173 65.0388C230.29 63.7292 229.411 62.4483 228.876 61.1292C228.517 60.8473 228.599 61.1245 228.035 60.4219C227.739 59.9535 227.452 59.4708 227.123 59.0168C226.784 58.5675 226.44 58.1135 226.101 57.6594C225.408 56.7561 224.715 55.8576 224.037 54.9782C223.698 54.5385 223.387 54.0892 223.048 53.6734C222.709 53.2576 222.389 52.8418 222.083 52.4308C221.472 51.6087 220.937 50.801 220.512 50.0076C221.434 50.9062 220.832 49.8499 220.971 49.7018C220.058 49.0804 220.407 48.4973 219.762 48.5547C219.59 48.8415 219.409 48.8606 220.096 49.9073C219.222 48.9179 218.062 47.7327 217.059 46.5999C216.056 45.4672 215.196 44.4014 214.809 43.761C215.186 44.411 214.756 44.0334 214.274 43.7036C214.771 43.4886 213.448 42.0595 212.282 41.1419L211.919 41.2136L211.461 40.3103C210.988 39.9853 210.586 40.3198 209.736 39.1011C209.76 38.9625 209.779 38.8143 209.641 38.5754C208.337 37.7342 206.469 36.6206 205.423 35.3206C205.194 34.9 204.931 34.5177 204.683 34.1114C204.105 33.7004 203.011 33.1556 203.89 34.0397C202.877 33.0552 202.046 32.2427 201.387 31.6023C201.062 31.2773 200.78 30.9857 200.556 30.7229C200.326 30.4648 200.14 30.2449 200.021 30.0299C195.583 27.817 189.799 23.917 184.927 21.0829L185.185 20.9682C183.991 20.0075 184.311 20.9156 183.465 20.2752C184.005 20.3134 182.677 19.3145 183.857 19.6395C182.052 18.4064 181.197 18.6741 179.912 18.1101C179.582 18.2774 181.001 18.4685 180.58 18.6836C180.451 18.6741 179.816 18.2726 179.152 17.8998C178.493 17.5222 177.767 17.2498 177.519 17.3741C177.108 16.9822 177.633 16.8579 177.982 16.8197L176.688 16.4564C175.441 15.2807 180.451 17.1781 179.2 15.859L178.054 15.4002C177.189 14.4634 181.254 16.3131 178.512 14.8362C177.189 14.4634 175.876 14.5734 176.869 15.2664C175.579 14.7263 175.173 14.8362 174.758 14.9175C174.548 14.9557 174.337 14.9892 174.008 14.9318C173.678 14.8745 173.244 14.712 172.556 14.43C172.231 14.1528 172.795 14.3583 173.377 14.5829C173.955 14.8219 174.567 15.0656 174.385 14.7693C174.103 14.5351 173.798 14.3535 173.482 14.2053C173.162 14.0667 172.823 13.9664 172.494 13.8708C171.83 13.6844 171.171 13.5315 170.617 13.2351C171.835 13.9234 170.569 13.8995 169.714 13.6366C168.4 12.8576 170.789 13.6127 168.821 12.7476C168.396 12.8576 166.509 12.2888 168.013 13.1109C167.096 13.3451 165.993 12.1741 164.741 12.2123C164.226 11.5815 167.154 12.0451 165.004 11.051C165.214 11.5576 162.086 10.5921 163.06 11.5767C162.234 11.1561 162.243 10.8216 162.955 10.812C161.804 10.0999 159.697 10.5157 159.526 9.62193L158.971 9.8848C158.618 9.63627 158.083 9.36862 157.5 8.9576C156.946 8.79032 156.015 8.6326 155.251 8.48922C154.482 8.36018 153.884 8.1929 154.018 7.90614C153.641 7.87746 151.076 7.19879 151.964 7.8679C153.488 8.52745 153.88 8.02562 154.615 8.81422C153.612 8.06863 152.303 8.29326 151.348 8.21679L151.257 7.94437C150.689 7.90136 149.442 7.51423 149.036 7.7054C149.49 7.65761 149.309 7.45209 148.879 7.30393L148.22 7.5429C145.941 7.2657 147.823 6.8021 145.612 6.46276L147.336 6.52012C146.959 6.50578 146.28 6.01828 145.201 5.91314C144.728 6.16166 143.892 6.40063 143.496 6.58703C142.235 6.51056 143.004 6.11865 141.728 6.26681C142.282 6.21902 142.841 6.15688 143.4 6.11865C143.668 6.0374 142.416 5.40174 140.744 5.15322C139.655 5.10542 137.94 5.33005 139.588 5.76975C138.757 5.64549 137.616 5.26314 138.313 5.12454C136.407 4.95248 138.514 5.51167 136.856 5.48777C136.216 5.19623 134.162 4.66094 132.93 4.20212L134.707 3.82455L133.56 3.70029C135.094 3.40874 132.839 3.2797 133.728 2.89735C132.944 2.73963 131.975 2.80176 131.201 2.84478C132.319 3.35139 131.65 3.52345 130.79 3.70984C129.921 3.91058 128.86 4.09697 129.171 4.46021C127.599 4.46499 127.136 4.01572 126.644 3.67639C126.396 3.50911 126.142 3.36573 125.746 3.32272C125.345 3.2797 124.8 3.31794 123.974 3.59514C124.504 3.78631 122.952 4.28337 124.929 4.12087C122.98 4.01095 123.587 4.79954 121.304 4.48888C123.009 4.22124 119.474 3.77198 121.944 3.38007C121.777 3.60948 123.32 3.56646 123.702 3.50433C122.899 3.23191 123.888 2.80654 121.872 2.78743C120.64 2.84 118.959 2.84 119.207 3.20323C119.26 3.59992 121.075 3.17933 120.291 3.57124C117.86 3.66205 117.44 3.15066 116.451 3.87234C117.984 3.75764 118.376 4.14955 118.352 4.42197L116.585 4.65616L116.919 4.37896C114.063 4.29771 116.093 4.89035 113.341 4.92381C112.902 4.77087 112.458 4.59881 112.018 4.46499C112.649 3.96793 116.045 4.50322 115.524 3.78631C114.622 3.80543 114.024 3.91536 113.442 4.00139C112.859 4.09219 112.286 4.13999 111.436 4.13521C111.808 4.03962 112.319 3.96793 112.692 3.90102C112.047 3.89146 111.335 3.01206 108.804 3.79109C107.495 4.12565 108.479 4.08264 108.469 4.35506C105.589 4.65616 104.772 5.11498 102.938 5.39696C103.244 4.81866 99.6711 5.78887 101.629 4.9716C102.613 5.15799 106.745 4.52712 107.729 3.99661C106.616 3.45654 110.007 3.88668 110.576 3.19367C108.25 3.38007 108.302 2.75397 107.887 2.38118C107.232 2.40986 106.616 2.63449 106.239 2.73485C106.005 3.1411 106.855 3.05985 106.941 3.45176C106.616 3.4661 106.291 3.48521 105.971 3.51389C105.651 3.54735 105.336 3.59514 105.026 3.64293C104.409 3.73852 103.812 3.84845 103.253 3.96793C102.141 4.2069 101.185 4.48888 100.502 4.76609C99.6137 4.6944 99.8239 4.27859 100.841 4.10653C100.459 4.16866 100.072 4.23558 99.6854 4.29771C99.2985 4.37418 98.9116 4.45543 98.5199 4.5319C97.7413 4.68484 96.958 4.833 96.1747 4.9716C95.3913 5.10542 94.6127 5.23447 93.8485 5.36351C93.0795 5.47343 92.3391 5.65983 91.6131 5.79365C93.6049 5.96571 88.4463 6.69695 89.8362 6.90247C91.4029 6.67306 92.8072 6.79732 92.0286 7.27048C91.0686 7.45687 92 6.99327 91.5701 6.95982C90.4333 7.58114 89.5496 6.87379 88.4845 7.6815C91.1784 6.83556 88.8332 6.81166 89.22 6.21902C87.2903 6.95982 89.2248 5.86056 87.2426 6.32894C85.3368 7.13666 82.9915 8.05907 80.8516 8.7951C79.433 9.03885 77.723 9.62671 76.0703 10.2576C75.6595 10.4201 75.2488 10.5778 74.8475 10.7355C74.4559 10.9124 74.069 11.0892 73.7012 11.2565C72.9608 11.5958 72.2778 11.9065 71.6903 12.1454C70.3624 12.4131 70.9881 11.5624 69.6029 12.0164C68.0267 12.6616 71.0072 12.0976 68.5712 12.805L68.7527 12.6138C68.1079 13.0296 64.387 14.2053 64.0526 15.2329L64.5016 14.3631C64.0478 14.5112 63.7135 14.8171 63.3887 15.037C63.2836 14.8697 62.7104 14.9366 63.3505 14.5017C62.954 14.5734 62.5623 14.6928 62.1898 14.8601C61.822 15.037 61.4638 15.252 61.1103 15.4767C60.3986 15.9307 59.7012 16.4373 58.9513 16.834L60.0833 16.6428C58.8653 17.441 57.7858 17.9811 56.7063 18.5068C55.6555 19.0803 54.6047 19.6347 53.4297 20.3994L53.3246 20.0553L51.9919 21.0829C52.0827 20.8343 51.7674 20.8582 51.3519 21.0303C50.9363 21.1976 50.4252 21.5226 50.1386 21.8954C50.6593 21.3601 51.2229 20.8965 51.7722 20.3994L53.4344 18.9226C54.5808 18.4829 52.503 19.9597 53.3341 19.8689C54.0458 19.802 56.2287 18.3969 56.4341 17.895C55.5504 18.3634 55.5504 18.459 54.9486 18.9608C54.428 18.7123 55.7367 17.9428 56.2382 17.2976C55.7845 17.5652 55.0776 17.8281 55.0537 18.0145C55.8131 17.2641 56.7254 16.7623 58.2492 15.9498C57.3082 16.6572 58.9513 15.9211 58.6265 16.2461C58.5453 15.8064 59.9448 14.927 61.8841 14.0428C63.4747 13.8517 65.3757 12.0833 67.678 11.1704C66.9376 11.9877 65.925 12.8384 64.6449 13.6175C66.1304 13.1682 66.1973 12.891 67.6828 12.4418C68.2225 11.8204 68.533 11.1896 70.329 10.248L70.5535 10.5013C72.187 9.6745 72.0103 9.22046 74.217 8.45576C76.1324 7.87746 78.0621 7.25136 79.8724 6.65394C81.7018 6.10909 83.4309 5.64549 84.8973 5.22969L85.0884 5.50211C85.4514 5.22013 85.9625 4.96204 86.5691 4.72785C87.1805 4.52234 87.8826 4.33594 88.6039 4.15433C90.0464 3.79587 91.5701 3.4661 92.6496 3.05507C94.5889 2.83044 96.6475 2.38118 98.4817 1.98927C99.394 1.7742 100.273 1.68339 101.032 1.59258C101.797 1.51133 102.461 1.48744 102.967 1.55913C109.726 0.445533 115.744 -0.214021 122.861 0.0631827L121.657 0.512444C122.933 0.182667 122.479 0.784868 123.726 0.727516C122.302 0.345166 125.464 0.249578 126.357 0.0584033C127.934 0.335607 129.734 0.412077 131.507 0.445533C133.269 0.536341 134.998 0.54112 136.422 0.526782L136.493 0.856559C136.856 0.818324 137.224 0.799206 137.601 0.799206C137.974 0.803986 138.356 0.842221 138.738 0.880456C139.507 0.966484 140.3 1.10031 141.112 1.25803C141.924 1.41575 142.75 1.60214 143.591 1.78376C144.432 1.96537 145.277 2.22346 146.142 2.41463C146.514 2.62493 147.083 3.04551 148.119 3.21757C149.108 3.165 149.858 3.165 150.699 3.2797C151.539 3.40396 152.49 3.54257 153.889 3.75286C154.391 3.8819 154.964 4.03484 155.58 4.2069C155.886 4.29293 156.201 4.38374 156.521 4.47454C156.841 4.57491 157.156 4.68962 157.481 4.79954C158.761 5.2488 160.041 5.72674 161.011 6.12821C162.931 6.48188 164.78 7.1032 166.652 7.68628C167.583 7.99694 168.529 8.26937 169.442 8.64216C170.359 9.01017 171.276 9.37818 172.193 9.74619C173.11 10.119 174.032 10.4966 174.954 10.8693C175.861 11.2852 176.764 11.701 177.676 12.1168C178.593 12.523 179.51 12.934 180.428 13.3403C181.345 13.7513 182.243 14.2149 183.164 14.6307L183.504 15.2329C184.416 15.6057 185.338 16.012 186.274 16.4421C187.196 16.8914 188.108 17.4123 189.03 17.9237C189.952 18.4447 190.874 18.9799 191.791 19.52C192.708 20.0649 193.572 20.691 194.456 21.2693C195.33 21.8619 196.2 22.4498 197.055 23.0281C197.27 23.1715 197.48 23.3148 197.69 23.4582C197.895 23.6112 198.096 23.7641 198.301 23.9123C198.707 24.2134 199.108 24.5097 199.505 24.8012C200.298 25.3843 201.072 25.9483 201.826 26.474C202.204 26.7369 202.576 26.995 202.939 27.2435C203.297 27.5016 203.641 27.7597 203.98 28.0034L203.087 28.099C204.582 29.5758 206.88 30.9857 206.76 30.3023C207.138 30.6751 207.592 31.0526 208.074 31.4302C208.542 31.8269 209.025 32.2331 209.493 32.6251C210.419 33.4137 211.25 34.1736 211.57 34.814C213.094 36.3243 213.696 36.3912 215.029 37.5956C215.75 38.4033 216.361 39.0724 216.92 39.6746C217.479 40.2721 217.995 40.793 218.468 41.3378C219.437 42.4132 220.416 43.4312 221.826 44.9033L221.181 44.129C220.775 43.89 220.55 44.043 221.195 44.8172C221.482 45.0705 221.849 45.4577 222.236 45.8783C222.599 46.3132 222.986 46.7768 223.311 47.1639C223.975 47.9286 224.457 48.3587 224.276 47.5319C224.878 48.4448 225.594 49.3768 226.368 50.3183C226.564 50.5525 226.76 50.7915 226.956 51.0304C227.142 51.2742 227.333 51.5227 227.524 51.7712C227.906 52.2635 228.293 52.7606 228.68 53.2576C229.454 54.2517 230.223 55.2458 230.925 56.2256C231.603 57.2197 232.171 58.2329 232.635 59.1936C232.611 58.7778 233.232 59.6476 233.595 59.944C234.12 60.7421 234.641 61.5546 235.128 62.3862C235.587 63.2322 236.04 64.0733 236.485 64.8906C236.929 65.7079 237.373 66.4965 237.822 67.2373C238.042 67.6101 238.276 67.959 238.491 68.3079C238.701 68.6567 238.911 68.9913 239.126 69.3115C239.317 69.8946 238.367 68.6281 239.069 70.0093C239.566 70.7836 239.317 69.8946 239.948 70.8457C240.349 71.51 240.736 72.1839 241.108 72.8626C241.481 73.546 241.853 74.2295 242.159 74.9416C242.794 76.3611 243.387 77.7901 243.965 79.2096C244.108 79.5633 244.251 79.917 244.395 80.2706C244.528 80.6243 244.648 80.9875 244.772 81.3412C245.025 82.0533 245.273 82.7607 245.522 83.4585C245.77 84.1563 246.023 84.8397 246.281 85.5136C246.415 85.8482 246.544 86.1827 246.673 86.5173C246.802 86.847 246.912 87.1864 247.036 87.5114C247.49 88.6728 247.939 89.8485 248.378 91.0242C248.598 91.6169 248.818 92.2095 249.037 92.8021C249.233 93.4043 249.415 94.0065 249.601 94.6135C249.969 95.8275 250.332 97.0415 250.7 98.2554L250.972 99.1683L251.196 100.091L251.641 101.936C251.932 103.164 252.223 104.392 252.515 105.611C252.744 106.844 252.968 108.072 253.198 109.291C253.312 109.903 253.422 110.51 253.537 111.112L253.704 112.02L253.833 112.928C254.005 114.137 254.172 115.337 254.339 116.522L254.172 116.436C254.416 117.21 254.597 118.071 254.664 118.964C254.726 119.858 254.74 120.781 254.764 121.684C254.803 123.486 254.908 125.197 255.366 126.454C255.252 127.218 255.409 129.35 255.094 128.8C255.223 129.431 255.28 130.196 255.304 131.047C255.338 131.893 255.247 132.825 255.209 133.785C255.156 134.751 255.108 135.745 255.108 136.734C255.104 137.226 255.123 137.719 255.132 138.206C255.132 138.689 255.151 139.167 255.189 139.63C255.223 139.291 255.204 139.095 255.161 138.703C254.884 140.558 254.817 142.302 254.75 144.08C254.64 145.853 254.459 147.65 254.11 149.586C254.086 149.184 254.115 148.458 253.976 148.324C253.752 149.06 253.819 149.968 253.838 150.79C253.833 151.608 253.761 152.334 253.336 152.692C253.212 153.553 253.608 153.362 253.671 152.831C252.176 161.281 250.465 170.314 247.619 178.836C246.329 181.785 246.004 181.761 245.856 181.627C245.689 181.488 245.775 181.259 245.059 183.687C244.767 184.016 245.207 184.069 245.039 184.074C244.481 185.962 243.119 186.564 242.957 187.959C243.602 187.634 242.809 188.877 243.038 189.025C242.068 190.736 241.414 191.721 240.87 192.648C240.592 193.107 240.373 193.566 240.105 194.068C239.843 194.569 239.585 195.143 239.303 195.86L239.198 195.544C238.925 196.419 238.577 197.298 238.195 198.168C238.004 198.603 237.808 199.038 237.602 199.473C237.402 199.908 237.163 200.319 236.948 200.735C236.064 202.398 235.224 204.009 234.77 205.533C224.185 222.543 210.524 236.79 194.107 247.553C185.93 252.763 177.347 257.17 168.338 260.606C159.339 264.057 149.877 266.446 140.114 267.66C137.783 267.656 136.55 267.694 135.261 267.789C133.971 267.861 132.639 268.043 130.131 268.392C130.331 268.272 130.642 268.219 130.298 268.157C130.193 268.415 129.309 268.54 128.392 268.568C127.475 268.611 126.529 268.654 126.3 268.913C119.04 269.113 112.319 269.061 104.882 268.167C106.067 268.239 106.697 267.88 105.298 267.765L103.803 267.938L103.583 267.77C102.618 267.732 101.553 267.804 102.513 268.124C93.1463 267.072 84.0232 264.702 75.3395 261.428C66.6463 258.154 58.3829 253.987 50.4921 249.284C48.6436 248.117 46.4798 246.607 44.211 245.154C43.0646 244.447 41.9708 243.639 40.8913 242.884C39.8118 242.124 38.7658 241.388 37.7914 240.705C32.4656 236.083 27.7559 231.356 23.2278 226.443C18.7904 221.449 14.5584 216.268 10.25 210.609C10.25 210.609 10.7993 210.795 11.8071 211.541C12.3087 211.914 12.9296 212.425 13.6509 213.123C14.0091 213.472 14.396 213.868 14.8068 214.318C15.1889 214.767 15.614 215.278 16.1156 215.804Z" fill="#5B9412"/>
<path d="M47.9513 22.0291C48.5053 21.9718 49.9192 21.2071 49.0355 22.2012C48.7776 22.0817 47.9417 22.3111 47.9513 22.0291Z" fill="#5B9412"/>
<path d="M87.7785 7.25121C87.8119 7.16518 88.3899 7.21297 88.5284 7.22253C88.0269 7.36591 87.6065 7.67657 87.1719 7.65745C87.683 7.50451 87.5731 7.41371 87.7785 7.25121Z" fill="#5B9412"/>
<path d="M98.3431 5.14819C98.2189 5.4015 95.9978 6.0037 94.6699 6.27613L98.3431 5.14819Z" fill="#5B9412"/>
<path d="M108.37 4.78027C109.244 4.89976 109.015 5.02402 107.864 5.11961C107.773 5.0049 108.145 4.90932 108.37 4.78027Z" fill="#5B9412"/>
<path d="M109.029 4.20186C109.855 4.12539 110.28 4.22098 110.691 4.31657C110.648 4.12061 108.79 4.60333 109.029 4.20186Z" fill="#5B9412"/>
<path d="M130.66 4.7373C131.181 4.74686 132.313 4.69429 132.771 4.99539C132.246 4.75642 130.235 5.02407 130.66 4.7373Z" fill="#5B9412"/>
<path d="M140.678 5.60718C140.998 5.67409 141.122 5.73144 141.504 5.72666C142.077 5.92262 141.428 5.98953 140.926 5.93218L140.678 5.60718Z" fill="#5B9412"/>
<path d="M251.029 133.522L250.924 132.428L251.148 132.585L251.029 133.522Z" fill="#5B9412"/>
<path d="M226.902 209.39C226.372 210.356 226.276 209.878 226.143 210.002C226.711 209.194 226.157 210.465 226.902 209.39Z" fill="#5B9412"/>
<path d="M196.859 240.996L197.127 240.795L197.308 241.24L196.859 240.996Z" fill="#5B9412"/>
</svg>
