<svg width="100" height="100" viewBox="0 0 100 100" fill="none" xmlns="http://www.w3.org/2000/svg">
<g clip-path="url(#clip0_1222_2908)">
<path d="M12.6509 55.7834C12.4686 55.784 12.2912 55.7248 12.1458 55.6149C12.0004 55.505 11.8951 55.3504 11.8459 55.1749C11.7967 54.9994 11.8065 54.8126 11.8736 54.6432C11.9407 54.4738 12.0615 54.331 12.2175 54.2368L21.0175 48.8901L9.27254 55.6668C9.08311 55.7715 8.86036 55.7984 8.65144 55.7418C8.44251 55.6852 8.26381 55.5495 8.15315 55.3635C8.04248 55.1775 8.00854 54.9557 8.05851 54.7451C8.10848 54.5345 8.23844 54.3516 8.42088 54.2351L29.8325 41.1284L4.63588 55.6668C4.44714 55.7676 4.22686 55.7919 4.02066 55.7348C3.81446 55.6776 3.63815 55.5433 3.52825 55.3597C3.41836 55.1761 3.38329 54.9573 3.43032 54.7485C3.47735 54.5398 3.60287 54.3572 3.78088 54.2384L37.5209 33.3801L2.13254 53.8101C1.9436 53.9142 1.72167 53.9409 1.51342 53.8847C1.30516 53.8285 1.12681 53.6938 1.01587 53.5088C0.904919 53.3238 0.870022 53.103 0.918513 52.8928C0.967003 52.6826 1.0951 52.4994 1.27588 52.3818L39.3325 28.7634L2.13254 50.2368C1.94203 50.349 1.71472 50.381 1.50061 50.3257C1.28651 50.2704 1.10315 50.1323 0.990876 49.9418C0.878601 49.7512 0.846606 49.5239 0.901929 49.3098C0.957253 49.0957 1.09536 48.9124 1.28588 48.8001L2.32588 48.1751L2.13254 48.2868C1.94323 48.3934 1.71975 48.4219 1.50973 48.3662C1.29972 48.3104 1.11978 48.1749 1.00828 47.9884C0.896771 47.8019 0.862518 47.5792 0.912817 47.3678C0.963117 47.1564 1.09399 46.973 1.27754 46.8568L28.4292 30.0701L2.13254 45.2501C1.94623 45.339 1.73356 45.3556 1.53572 45.2966C1.33787 45.2377 1.16895 45.1074 1.06168 44.931C0.954401 44.7547 0.916408 44.5448 0.955057 44.342C0.993706 44.1392 1.10625 43.958 1.27088 43.8334L32.8975 23.8884L2.13254 41.6501C1.9442 41.7554 1.72237 41.7835 1.51372 41.7285C1.30507 41.6736 1.12586 41.5399 1.01381 41.3555C0.901751 41.1711 0.86558 40.9504 0.912903 40.7399C0.960226 40.5294 1.08736 40.3454 1.26754 40.2268L30.6425 21.5101L2.13254 37.9701C1.94311 38.0748 1.72036 38.1017 1.51144 38.0451C1.30251 37.9885 1.12381 37.8529 1.01314 37.6668C0.90248 37.4808 0.868542 37.259 0.918511 37.0484C0.968481 36.8378 1.09844 36.6549 1.28088 36.5384L2.06588 36.0601C1.87292 36.1516 1.65221 36.1655 1.4493 36.099C1.24638 36.0325 1.07674 35.8906 0.975385 35.7026C0.87403 35.5147 0.848696 35.295 0.904611 35.0889C0.960527 34.8828 1.09342 34.706 1.27588 34.5951L12.6525 27.5134L2.13254 33.5851C1.94542 33.6813 1.72882 33.7032 1.52624 33.6463C1.32365 33.5895 1.15008 33.4581 1.04037 33.2785C0.930658 33.099 0.892929 32.8846 0.934757 32.6783C0.976586 32.4721 1.09488 32.2894 1.26588 32.1668L19.9575 20.1668L2.13254 30.4568C1.9436 30.5608 1.72167 30.5876 1.51342 30.5314C1.30516 30.4752 1.12681 30.3404 1.01587 30.1554C0.904919 29.9705 0.870022 29.7497 0.918513 29.5395C0.967003 29.3293 1.0951 29.1461 1.27588 29.0284L2.35254 28.3618L2.13254 28.4884C1.94524 28.595 1.72395 28.6248 1.51512 28.5717C1.30629 28.5186 1.12614 28.3866 1.0125 28.2036C0.898859 28.0205 0.860551 27.8005 0.905618 27.5898C0.950685 27.3791 1.07562 27.194 1.25421 27.0734L18.6225 15.5101L2.13254 25.0301C1.94582 25.1385 1.72433 25.1701 1.51471 25.1184C1.3051 25.0667 1.12373 24.9357 1.00881 24.753C0.893879 24.5702 0.854365 24.35 0.898586 24.1387C0.942807 23.9273 1.06731 23.7414 1.24588 23.6201L15.9125 13.6201L2.13254 21.5834C1.94694 21.6905 1.72724 21.7219 1.51908 21.6712C1.31091 21.6205 1.13027 21.4916 1.01466 21.3112C0.899057 21.1308 0.857366 20.9128 0.898248 20.7025C0.939131 20.4922 1.05945 20.3057 1.23421 20.1818L13.6509 11.3801L2.13254 18.0284C1.9461 18.1306 1.72764 18.1577 1.52188 18.1041C1.31613 18.0505 1.13864 17.9203 1.02576 17.7401C0.912881 17.5599 0.873143 17.3434 0.914683 17.1349C0.956222 16.9264 1.0759 16.7416 1.24921 16.6184L4.95088 14.1184L2.13254 15.7384C1.94623 15.8582 1.71996 15.8991 1.50351 15.852C1.28706 15.805 1.09817 15.6739 0.978376 15.4876C0.858587 15.3013 0.817717 15.075 0.864757 14.8586C0.911798 14.6421 1.0429 14.4532 1.22921 14.3334L6.16588 10.7918L2.13254 13.1201C1.95359 13.2223 1.74313 13.2545 1.5418 13.2106C1.34047 13.1667 1.16254 13.0498 1.04238 12.8824C0.922213 12.715 0.868333 12.509 0.891141 12.3042C0.913949 12.0994 1.01183 11.9103 1.16588 11.7734L7.02588 6.60676L2.13254 9.42843C1.96148 9.52651 1.76118 9.56075 1.56725 9.52507C1.37332 9.48939 1.19833 9.3861 1.07338 9.23356C0.948427 9.08102 0.881615 8.88911 0.884819 8.69195C0.888022 8.49479 0.961035 8.30516 1.09088 8.15676L3.88754 4.99009L2.13254 6.00009C1.97422 6.08816 1.79151 6.12223 1.61209 6.09715C1.43267 6.07206 1.26631 5.9892 1.13821 5.86109C1.01011 5.73299 0.927239 5.56663 0.902157 5.38721C0.877076 5.20779 0.911147 5.02508 0.99921 4.86676L1.68588 3.65843C1.5154 3.63211 1.3573 3.55355 1.23337 3.43357C1.10944 3.31359 1.0258 3.15811 0.993975 2.98858C0.962154 2.81905 0.983724 2.64382 1.05571 2.48707C1.1277 2.33032 1.24655 2.19977 1.39588 2.11343L3.33254 1.00009C3.49099 0.908424 3.67521 0.871476 3.85675 0.894955C4.03829 0.918434 4.20704 1.00103 4.33695 1.12999C4.46686 1.25896 4.5507 1.4271 4.57551 1.60847C4.60031 1.78983 4.56472 1.97431 4.47421 2.13343L3.96588 3.02676L7.46754 1.00009C7.63813 0.899106 7.83943 0.863061 8.03447 0.898577C8.2295 0.934093 8.40517 1.03879 8.52921 1.19343C8.65423 1.34637 8.72084 1.53876 8.71718 1.73626C8.71352 1.93377 8.63981 2.12355 8.50921 2.27176L5.71088 5.43843L13.4092 1.00009C13.5879 0.899704 13.7974 0.868703 13.9975 0.913016C14.1976 0.957329 14.3744 1.07385 14.494 1.2403C14.6137 1.40674 14.6677 1.61144 14.6459 1.81526C14.6242 2.01908 14.528 2.20771 14.3759 2.34509L8.51921 7.51176L19.8025 1.00009C19.9876 0.893073 20.2066 0.861245 20.4145 0.911186C20.6223 0.961128 20.803 1.08902 20.9192 1.26843C21.0356 1.44812 21.0784 1.66573 21.0387 1.87612C20.999 2.08651 20.8798 2.27354 20.7059 2.39843L15.7692 5.94009L24.3325 1.00009C24.519 0.897885 24.7375 0.870809 24.9432 0.924409C25.149 0.978009 25.3264 1.10823 25.4393 1.28841C25.5522 1.4686 25.5919 1.68511 25.5504 1.89364C25.5089 2.10216 25.3892 2.28692 25.2159 2.41009L21.5109 4.91676L28.3042 1.00009C28.4894 0.896923 28.707 0.868242 28.9127 0.91989C29.1183 0.971538 29.2966 1.09963 29.4111 1.27808C29.5256 1.45653 29.5677 1.67192 29.529 1.88038C29.4903 2.08884 29.3735 2.27469 29.2025 2.40009L16.7875 11.2001L34.4625 1.00009C34.6487 0.898953 34.8664 0.872526 35.0714 0.926187C35.2764 0.979848 35.4532 1.10957 35.5659 1.28896C35.6787 1.46835 35.7188 1.68395 35.6783 1.89191C35.6377 2.09986 35.5194 2.28456 35.3475 2.40843L20.6809 12.3984L40.4292 1.00009C40.6161 0.898073 40.8349 0.871438 41.0408 0.925655C41.2466 0.979872 41.424 1.11083 41.5363 1.29165C41.6487 1.47247 41.6876 1.68945 41.6451 1.89805C41.6025 2.10665 41.4818 2.29105 41.3075 2.41343L23.9375 13.9734L46.4175 1.00009C46.6063 0.899285 46.8266 0.87494 47.0328 0.9321C47.239 0.98926 47.4153 1.12355 47.5252 1.30714C47.6351 1.49073 47.6701 1.70956 47.6231 1.9183C47.5761 2.12705 47.4506 2.3097 47.2725 2.42843L46.1975 3.09509L49.8325 1.00009C50.0206 0.896688 50.2412 0.869794 50.4486 0.925011C50.6559 0.980228 50.834 1.1133 50.9457 1.29652C51.0574 1.47973 51.0941 1.69897 51.0482 1.90858C51.0023 2.11818 50.8773 2.302 50.6992 2.42176L31.9992 14.4168L55.2492 1.00009C55.4384 0.890993 55.6629 0.860534 55.8743 0.915272C56.0858 0.970009 56.2673 1.10557 56.3798 1.29277C56.4923 1.47998 56.5268 1.70387 56.4759 1.91626C56.425 2.12865 56.2927 2.31257 56.1076 2.42843L44.7392 9.50009L59.4725 1.00009C59.6618 0.898971 59.8827 0.874712 60.0893 0.932365C60.2959 0.990019 60.4724 1.12514 60.5819 1.30961C60.6914 1.49408 60.7256 1.71368 60.6773 1.9227C60.629 2.13172 60.5019 2.31406 60.3226 2.43176L59.6409 2.84843L62.8442 1.00009C63.0326 0.894817 63.2544 0.866695 63.463 0.921644C63.6717 0.976593 63.8509 1.11033 63.963 1.29471C64.075 1.4791 64.1112 1.69976 64.0639 1.91027C64.0165 2.12079 63.8894 2.30474 63.7092 2.42343L34.3325 21.1351L69.2175 1.00009C69.406 0.896449 69.6273 0.869693 69.835 0.925421C70.0428 0.981149 70.2209 1.11504 70.3322 1.2991C70.4435 1.48316 70.4793 1.70312 70.4322 1.91298C70.385 2.12283 70.2586 2.30633 70.0792 2.42509L38.4559 22.3568L75.4526 1.00009C75.6413 0.899285 75.8616 0.87494 76.0678 0.9321C76.274 0.98926 76.4503 1.12355 76.5602 1.30714C76.6701 1.49073 76.7051 1.70956 76.6581 1.9183C76.6111 2.12705 76.4856 2.3097 76.3075 2.42843L49.1659 19.2101L80.7109 1.00009C80.9008 0.89428 81.1246 0.8669 81.3345 0.923797C81.5443 0.980694 81.7236 1.11736 81.8341 1.30463C81.9446 1.4919 81.9776 1.71494 81.9259 1.92614C81.8742 2.13735 81.742 2.31999 81.5576 2.43509L80.5575 3.04009L83.7092 1.21509C83.898 1.11429 84.1182 1.08994 84.3244 1.1471C84.5306 1.20426 84.7069 1.33855 84.8168 1.52214C84.9267 1.70573 84.9618 1.92456 84.9148 2.1333C84.8678 2.34205 84.7422 2.5247 84.5642 2.64343L46.4992 26.2751L84.5326 4.31509C84.7211 4.2169 84.9401 4.19448 85.1446 4.25243C85.3492 4.31038 85.5238 4.44431 85.6328 4.62681C85.7419 4.80931 85.777 5.02659 85.7311 5.23417C85.6852 5.44174 85.5617 5.62393 85.3859 5.74343L51.6659 26.5918L84.5326 7.61843C84.7224 7.51024 84.9472 7.48095 85.1584 7.53687C85.3696 7.59279 85.5505 7.72944 85.6619 7.91739C85.7734 8.10534 85.8065 8.32955 85.7543 8.54173C85.702 8.7539 85.5685 8.93706 85.3826 9.05176L63.9776 22.1668L84.5326 10.2968C84.7221 10.1937 84.9443 10.1681 85.1523 10.2255C85.3603 10.2829 85.5379 10.4187 85.6478 10.6044C85.7577 10.7901 85.7913 11.0112 85.7415 11.2211C85.6917 11.4311 85.5625 11.6135 85.3809 11.7301L76.5875 17.0734L84.5326 12.4868C84.7215 12.3827 84.9434 12.356 85.1517 12.4121C85.3599 12.4683 85.5383 12.6031 85.6492 12.7881C85.7602 12.9731 85.7951 13.1939 85.7466 13.404C85.6981 13.6142 85.57 13.7974 85.3892 13.9151L59.0442 30.3801L84.5326 15.6668C84.7219 15.5601 84.9453 15.5316 85.1554 15.5874C85.3654 15.6431 85.5453 15.7787 85.6568 15.9652C85.7683 16.1517 85.8026 16.3743 85.7523 16.5857C85.702 16.7971 85.5711 16.9805 85.3876 17.0968L67.5326 28.1784L84.5326 18.3651C84.7211 18.2669 84.9401 18.2445 85.1446 18.3024C85.3492 18.3604 85.5238 18.4943 85.6328 18.6768C85.7419 18.8593 85.777 19.0766 85.7311 19.2842C85.6852 19.4917 85.5617 19.6739 85.3859 19.7934L73.7192 27.0118L84.5275 20.7734C84.7158 20.6728 84.9356 20.6483 85.1414 20.7049C85.3473 20.7615 85.5235 20.895 85.6338 21.0778C85.7441 21.2606 85.7801 21.4787 85.7343 21.6872C85.6884 21.8958 85.5643 22.0787 85.3876 22.1984L69.1326 32.4351L84.5326 23.5451C84.7201 23.4418 84.9403 23.4147 85.1473 23.4693C85.3544 23.524 85.5324 23.6563 85.6445 23.8387C85.7567 24.0212 85.7942 24.2398 85.7495 24.4492C85.7048 24.6586 85.5811 24.8427 85.4042 24.9634L63.4126 39.3601L84.5326 27.1668C84.7197 27.0634 84.9394 27.036 85.1462 27.0901C85.353 27.1442 85.5311 27.2757 85.6437 27.4574C85.7563 27.6391 85.7947 27.8572 85.7511 28.0664C85.7074 28.2757 85.5851 28.4602 85.4092 28.5818L66.9592 40.8218L84.5326 30.6784C84.7196 30.5736 84.9398 30.5449 85.1474 30.5982C85.355 30.6516 85.5341 30.7829 85.6475 30.9649C85.7608 31.1469 85.7996 31.3655 85.7558 31.5754C85.7121 31.7853 85.5891 31.9702 85.4126 32.0918L70.7225 41.9601L84.5326 33.9884C84.7203 33.8865 84.9399 33.8606 85.1462 33.916C85.3525 33.9714 85.5296 34.1039 85.641 34.2861C85.7524 34.4683 85.7897 34.6863 85.745 34.8952C85.7003 35.104 85.5771 35.2878 85.4009 35.4084L82.1376 37.5168L84.5326 36.1351C84.718 36.0309 84.9364 36.0016 85.1428 36.0532C85.3492 36.1048 85.528 36.2333 85.6427 36.4126C85.7573 36.5918 85.7991 36.8081 85.7594 37.0171C85.7197 37.2261 85.6016 37.412 85.4292 37.5368L74.8726 44.9701L84.5392 39.3951C84.7253 39.2926 84.9434 39.2651 85.1491 39.318C85.3548 39.371 85.5324 39.5005 85.6459 39.6801C85.7593 39.8596 85.7998 40.0757 85.7592 40.2842C85.7187 40.4927 85.6 40.6778 85.4276 40.8018L81.4842 43.5084L84.5392 41.7451C84.7221 41.6395 84.9383 41.6072 85.144 41.6549C85.3497 41.7025 85.5297 41.8265 85.6476 42.0018C85.7656 42.1775 85.8124 42.3916 85.7783 42.6005C85.7443 42.8095 85.632 42.9976 85.4642 43.1268L79.1809 47.9601L84.5392 44.8684C84.724 44.7606 84.9432 44.728 85.1514 44.7774C85.3595 44.8267 85.5407 44.9542 85.6575 45.1335C85.7742 45.3128 85.8175 45.5301 85.7785 45.7404C85.7394 45.9508 85.6209 46.138 85.4476 46.2634L84.8259 46.7151C84.9774 46.6928 85.1322 46.712 85.2736 46.7707C85.4151 46.8294 85.538 46.9254 85.6292 47.0484C85.7504 47.2146 85.8059 47.4197 85.785 47.6243C85.7641 47.8289 85.6682 48.0186 85.5159 48.1568L83.1409 50.3051L84.5392 49.4984C84.6936 49.4093 84.8725 49.372 85.0497 49.392C85.2268 49.4121 85.3929 49.4884 85.5234 49.6099C85.654 49.7313 85.7422 49.8914 85.775 50.0666C85.8078 50.2418 85.7836 50.423 85.7059 50.5834L84.5942 52.8718C84.7888 52.7918 85.0065 52.7884 85.2035 52.8622C85.4005 52.936 85.5623 53.0817 85.6564 53.2699C85.7505 53.458 85.7699 53.6748 85.7107 53.8768C85.6516 54.0787 85.5183 54.2507 85.3375 54.3584L83.0776 55.6634C82.9232 55.7526 82.7442 55.7899 82.5671 55.7698C82.3899 55.7498 82.2239 55.6734 82.0933 55.552C81.9628 55.4306 81.8746 55.2705 81.8418 55.0953C81.8089 54.92 81.8332 54.7389 81.9109 54.5784L83.0192 52.3001L77.1859 55.6634C77.0085 55.761 76.8017 55.7907 76.6041 55.747C76.4065 55.7032 76.2315 55.589 76.1119 55.4257C75.9923 55.2625 75.9362 55.0612 75.9541 54.8596C75.972 54.658 76.0627 54.4697 76.2092 54.3301L78.5826 52.1834L72.5392 55.6668C72.3544 55.7746 72.1353 55.8072 71.9271 55.7578C71.7189 55.7085 71.5377 55.581 71.421 55.4017C71.3042 55.2224 71.2609 55.0051 71.3 54.7947C71.3391 54.5844 71.4575 54.3972 71.6309 54.2718L71.8292 54.1284L69.1626 55.6668C68.9794 55.7742 68.7622 55.8077 68.5552 55.7604C68.3482 55.7131 68.1671 55.5885 68.0488 55.4122C67.9305 55.2358 67.884 55.021 67.9188 54.8115C67.9536 54.6021 68.067 54.4138 68.2359 54.2851L74.5209 49.4434L63.7425 55.6668C63.5565 55.7692 63.3384 55.7968 63.1327 55.7438C62.927 55.6909 62.7493 55.5614 62.6359 55.3818C62.5225 55.2022 62.482 54.9861 62.5225 54.7776C62.5631 54.5691 62.6817 54.384 62.8542 54.2601L66.7975 51.5551L59.6659 55.6668C59.4804 55.771 59.2621 55.8003 59.0557 55.7487C58.8492 55.6971 58.6704 55.5685 58.5557 55.3893C58.4411 55.2101 58.3993 54.9938 58.439 54.7848C58.4787 54.5757 58.5968 54.3898 58.7692 54.2651L69.3326 46.8334L54.0275 55.6668C53.8398 55.7687 53.6202 55.7946 53.4139 55.7392C53.2076 55.6838 53.0305 55.5513 52.9191 55.3691C52.8076 55.1869 52.7704 54.9688 52.8151 54.76C52.8598 54.5511 52.983 54.3674 53.1592 54.2468L56.4259 52.1351L50.3075 55.6668C50.1208 55.7702 49.9015 55.798 49.6949 55.7445C49.4883 55.691 49.31 55.5603 49.197 55.3792C49.0839 55.1982 49.0446 54.9807 49.0872 54.7715C49.1298 54.5623 49.251 54.3775 49.4259 54.2551L64.1159 44.3868L44.5759 55.6668C44.3887 55.7701 44.169 55.7975 43.9622 55.7434C43.7554 55.6893 43.5773 55.5578 43.4647 55.3761C43.3522 55.1944 43.3137 54.9764 43.3573 54.7671C43.401 54.5578 43.5234 54.3733 43.6992 54.2518L62.1492 42.0118L38.4992 55.6668C38.3119 55.7687 38.0927 55.7949 37.8867 55.7401C37.6806 55.6853 37.5034 55.5536 37.3915 55.3721C37.2796 55.1906 37.2416 54.9731 37.2852 54.7644C37.3288 54.5557 37.4507 54.3716 37.6259 54.2501L59.6259 39.8484L32.2192 55.6668C32.0307 55.7704 31.8095 55.7972 31.6018 55.7414C31.394 55.6857 31.2159 55.5518 31.1046 55.3678C30.9933 55.1837 30.9574 54.9637 31.0046 54.7539C31.0517 54.544 31.1782 54.3605 31.3575 54.2418L47.6159 44.0068L27.4192 55.6734C27.2303 55.7775 27.0083 55.8042 26.8001 55.748C26.5918 55.6918 26.4135 55.5571 26.3025 55.3721C26.1916 55.1871 26.1567 54.9663 26.2052 54.7561C26.2537 54.546 26.3818 54.3628 26.5625 54.2451L38.2292 47.0201L23.2459 55.6668C23.0569 55.7708 22.835 55.7976 22.6268 55.7414C22.4185 55.6852 22.2401 55.5504 22.1292 55.3654C22.0183 55.1805 21.9834 54.9597 22.0318 54.7495C22.0803 54.5393 22.2084 54.3561 22.3892 54.2384L40.2392 43.1668L18.5725 55.6768C18.3839 55.7789 18.1632 55.8044 17.9563 55.748C17.7493 55.6915 17.5721 55.5574 17.4616 55.3736C17.351 55.1898 17.3155 54.9705 17.3626 54.7612C17.4097 54.5519 17.5356 54.3689 17.7142 54.2501L44.0476 37.7884L13.0675 55.6668C12.9414 55.7417 12.7976 55.7819 12.6509 55.7834Z" fill="#FC981A"/>
<path d="M32.8942 49.1169C32.7139 49.1173 32.5383 49.0593 32.3938 48.9514C32.2492 48.8436 32.1436 48.6918 32.0927 48.5188C32.0418 48.3458 32.0484 48.1609 32.1114 47.992C32.1745 47.8231 32.2907 47.6792 32.4426 47.5819L48.3342 37.3719L28.1842 49.0002C27.9964 49.1008 27.7771 49.1256 27.5716 49.0695C27.366 49.0134 27.1897 48.8807 27.079 48.6987C26.9682 48.5167 26.9314 48.2991 26.9761 48.0908C27.0208 47.8825 27.1436 47.6992 27.3192 47.5785L45.5459 35.9352L22.9126 49.0002C22.7244 49.1022 22.5042 49.1278 22.2977 49.0719C22.0911 49.016 21.914 48.8827 21.803 48.6997C21.692 48.5168 21.6557 48.2981 21.7015 48.0891C21.7473 47.88 21.8719 47.6966 22.0492 47.5769L40.5392 35.8335L17.8342 48.9335C17.6461 49.0355 17.4259 49.0612 17.2193 49.0052C17.0128 48.9493 16.8356 48.816 16.7247 48.6331C16.6137 48.4501 16.5773 48.2314 16.6232 48.0224C16.669 47.8133 16.7935 47.63 16.9709 47.5102L39.1676 33.3735L16.6809 46.3535C16.4919 46.4683 16.2651 46.5032 16.0504 46.4507C15.8357 46.3982 15.6506 46.2625 15.5359 46.0735C15.4212 45.8846 15.3862 45.6578 15.4387 45.4431C15.4913 45.2283 15.6269 45.0433 15.8159 44.9285L37.7209 30.9769L15.3475 43.8935C15.1586 44.0083 14.9318 44.0432 14.7171 43.9907C14.5023 43.9382 14.3173 43.8025 14.2025 43.6135C14.0878 43.4246 14.0529 43.1978 14.1054 42.9831C14.1579 42.7683 14.2936 42.5833 14.4825 42.4685L36.2892 28.5935L13.1675 41.9435C12.9795 42.047 12.7589 42.0738 12.5515 42.0186C12.3442 41.9634 12.1661 41.8303 12.0544 41.6471C11.9427 41.4639 11.906 41.2447 11.9519 41.0351C11.9978 40.8255 12.1228 40.6416 12.3009 40.5219L33.7459 26.7519L9.61088 40.6852C9.42317 40.7871 9.2035 40.813 8.99723 40.7576C8.79096 40.7022 8.61383 40.5698 8.5024 40.3876C8.39098 40.2053 8.35377 39.9873 8.39846 39.7785C8.44315 39.5696 8.56632 39.3859 8.74255 39.2652L29.1342 26.1202L8.80088 37.8585C8.61125 37.9721 8.38426 38.0058 8.16984 37.952C7.95543 37.8982 7.77115 37.7615 7.65755 37.5719C7.54395 37.3822 7.51033 37.1553 7.56409 36.9408C7.61785 36.7264 7.75458 36.5421 7.94421 36.4285L9.31088 35.5819L8.80088 35.8752C8.61241 35.9789 8.39116 36.0056 8.18342 35.9499C7.97567 35.8942 7.79752 35.7603 7.68623 35.5762C7.57493 35.3921 7.53911 35.1722 7.58626 34.9623C7.63342 34.7525 7.75988 34.569 7.93922 34.4502L13.6675 30.8435L8.80088 33.6519C8.61254 33.7572 8.39071 33.7853 8.18206 33.7303C7.97341 33.6754 7.7942 33.5416 7.68215 33.3573C7.57009 33.1729 7.53392 32.9522 7.58124 32.7417C7.62856 32.5312 7.75569 32.3472 7.93588 32.2285L14.9159 27.7719L8.80088 31.3019C8.61388 31.4067 8.39367 31.4354 8.18603 31.3821C7.97839 31.3287 7.79929 31.1974 7.68598 31.0154C7.57266 30.8334 7.53385 30.6148 7.57759 30.4049C7.62134 30.195 7.74429 30.0101 7.92088 29.8885L20.0876 21.7485L8.80088 28.2669C8.61358 28.3734 8.39229 28.4033 8.18346 28.3501C7.97462 28.297 7.79448 28.1651 7.68084 27.982C7.5672 27.7989 7.52889 27.579 7.57396 27.3682C7.61902 27.1575 7.74396 26.9725 7.92255 26.8519L14.7559 22.3119L8.80088 25.7469C8.61388 25.8517 8.39367 25.8804 8.18603 25.8271C7.97839 25.7737 7.79929 25.6424 7.68598 25.4604C7.57266 25.2784 7.53385 25.0598 7.57759 24.8499C7.62134 24.64 7.74429 24.4551 7.92088 24.3335L11.3925 22.0185L8.80088 23.5185C8.61579 23.6231 8.39772 23.653 8.1913 23.6021C7.98488 23.5512 7.80573 23.4233 7.69052 23.2447C7.5753 23.066 7.53274 22.85 7.57153 22.641C7.61033 22.4319 7.72756 22.2456 7.89921 22.1202L14.0009 17.7635L8.80422 20.7635C8.62092 20.8694 8.40419 20.9016 8.19805 20.8535C7.9919 20.8054 7.81178 20.6807 7.69426 20.5046C7.57675 20.3285 7.53064 20.1143 7.5653 19.9055C7.59996 19.6967 7.71279 19.5089 7.88088 19.3802L12.8642 15.5719L9.08588 17.7519C8.9087 17.8458 8.70359 17.8727 8.50819 17.8276C8.31278 17.7825 8.14019 17.6685 8.02208 17.5064C7.90398 17.3443 7.84827 17.1451 7.86519 16.9453C7.88212 16.7455 7.97053 16.5584 8.11422 16.4185L15.8342 9.48854C15.8044 9.32015 15.8271 9.14667 15.8993 8.99163C15.9714 8.83658 16.0895 8.70749 16.2375 8.62187L17.9042 7.66354C18.0815 7.56843 18.2871 7.54064 18.4832 7.58529C18.6794 7.62995 18.8527 7.74403 18.9713 7.90649C19.0899 8.06895 19.1457 8.26883 19.1285 8.46923C19.1113 8.66964 19.0221 8.85704 18.8776 8.99687L15.2009 12.3002L23.2326 7.66687C23.4159 7.56099 23.6326 7.52883 23.8387 7.57693C24.0449 7.62502 24.225 7.74977 24.3425 7.92583C24.46 8.1019 24.5061 8.31609 24.4715 8.52491C24.4368 8.73374 24.324 8.92155 24.1559 9.05021L19.1676 12.8535L28.1676 7.66687C28.353 7.55804 28.5734 7.5251 28.7825 7.57495C28.9917 7.6248 29.1735 7.75358 29.2899 7.93436C29.4064 8.11514 29.4484 8.33394 29.4073 8.545C29.3661 8.75606 29.245 8.94305 29.0692 9.06687L22.9659 13.4119L32.9259 7.66687C33.1127 7.56485 33.3316 7.53822 33.5374 7.59244C33.7433 7.64665 33.9206 7.77761 34.033 7.95843C34.1454 8.13925 34.1843 8.35623 34.1417 8.56483C34.0992 8.77343 33.9784 8.95784 33.8042 9.08021L30.3342 11.3952L36.7942 7.66687C36.9811 7.56485 37.1999 7.53822 37.4058 7.59244C37.6116 7.64665 37.789 7.77761 37.9013 7.95843C38.0137 8.13925 38.0526 8.35623 38.0101 8.56483C37.9675 8.77343 37.8468 8.95784 37.6726 9.08021L30.8342 13.6185L41.1676 7.66687C41.3546 7.56204 41.5748 7.53332 41.7824 7.58666C41.9901 7.64001 42.1691 7.77133 42.2825 7.95332C42.3958 8.13531 42.4346 8.35397 42.3908 8.56384C42.3471 8.77371 42.2241 8.95865 42.0476 9.08021L29.8809 17.2152L46.4159 7.66687C46.6042 7.5616 46.8261 7.53348 47.0347 7.58843C47.2434 7.64337 47.4226 7.77711 47.5346 7.9615C47.6467 8.14588 47.6828 8.36654 47.6355 8.57706C47.5882 8.78757 47.4611 8.97152 47.2809 9.09021L40.2892 13.5502L50.4876 7.66687C50.676 7.56323 50.8973 7.53647 51.105 7.5922C51.3128 7.64793 51.4909 7.78183 51.6022 7.96588C51.7135 8.14994 51.7493 8.3699 51.7022 8.57976C51.655 8.78962 51.5286 8.97312 51.3492 9.09187L45.6226 12.6935L54.3342 7.66687C54.523 7.56607 54.7432 7.54172 54.9494 7.59888C55.1556 7.65604 55.3319 7.79033 55.4418 7.97392C55.5517 8.15751 55.5868 8.37635 55.5398 8.58509C55.4928 8.79383 55.3672 8.97648 55.1892 9.09521L53.8392 9.92854L57.7709 7.66687C57.9586 7.56499 58.1783 7.53906 58.3845 7.59445C58.5908 7.64984 58.7679 7.78232 58.8794 7.96453C58.9908 8.14674 59.028 8.36478 58.9833 8.57363C58.9386 8.78249 58.8154 8.96621 58.6392 9.08687L38.2476 22.2285L63.4776 7.66687C63.6656 7.56347 63.8862 7.53658 64.0936 7.59179C64.3009 7.64701 64.479 7.78008 64.5907 7.9633C64.7024 8.14651 64.7391 8.36575 64.6932 8.57536C64.6473 8.78497 64.5223 8.96879 64.3442 9.08854L42.9242 22.8335L68.9876 7.79187C69.1757 7.68991 69.3959 7.66424 69.6024 7.72018C69.809 7.77612 69.9861 7.90938 70.0971 8.09236C70.2081 8.27534 70.2444 8.494 70.1986 8.70303C70.1528 8.91207 70.0283 9.09546 69.8509 9.21521L48.0176 23.1085L70.0176 10.4052C70.2063 10.2974 70.4296 10.2675 70.64 10.322C70.8504 10.3765 71.0312 10.511 71.1438 10.6969C71.2564 10.8828 71.2919 11.1053 71.2428 11.317C71.1937 11.5287 71.0638 11.7129 70.8809 11.8302L49.0009 25.7719L71.3826 12.8469C71.5715 12.7322 71.7983 12.6972 72.0131 12.7497C72.2278 12.8022 72.4129 12.9379 72.5276 13.1269C72.6423 13.3158 72.6772 13.5426 72.6247 13.7574C72.5722 13.9721 72.4365 14.1572 72.2476 14.2719L50.0559 28.4102L73.6176 14.8069C73.8057 14.7049 74.0259 14.6792 74.2325 14.7352C74.439 14.7911 74.6161 14.9244 74.7271 15.1074C74.8381 15.2903 74.8744 15.509 74.8286 15.718C74.7828 15.9271 74.6583 16.1105 74.4809 16.2302L55.9809 27.9852L76.8776 15.9252C77.0656 15.8218 77.2862 15.7949 77.4936 15.8501C77.7009 15.9053 77.879 16.0384 77.9907 16.2216C78.1024 16.4048 78.1391 16.6241 78.0932 16.8337C78.0473 17.0433 77.9223 17.2271 77.7442 17.3469L59.5159 29.0002L77.8676 18.3969C78.0562 18.2864 78.2806 18.2544 78.4926 18.3078C78.7045 18.3612 78.887 18.4958 79.0007 18.6825C79.1143 18.8691 79.1501 19.093 79.1003 19.3059C79.0504 19.5187 78.919 19.7034 78.7342 19.8202L62.8342 30.0369L77.8692 21.3569C78.057 21.2501 78.2788 21.2205 78.488 21.2741C78.6972 21.3277 78.8774 21.4605 78.9907 21.6444C79.1039 21.8283 79.1413 22.049 79.0951 22.2599C79.0488 22.4709 78.9224 22.6556 78.7426 22.7752L62.7076 33.3335L77.8742 24.5819C78.0628 24.4665 78.2894 24.4308 78.5043 24.4825C78.7192 24.5342 78.9047 24.6692 79.0201 24.8577C79.1354 25.0462 79.1712 25.2729 79.1195 25.4878C79.0677 25.7026 78.9328 25.8882 78.7442 26.0035L70.3542 31.4419L77.8742 27.1085C78.0608 27.0036 78.2806 26.9745 78.4881 27.0273C78.6955 27.08 78.8747 27.2106 78.9885 27.3919C79.1023 27.5732 79.142 27.7913 79.0993 28.0011C79.0566 28.2108 78.9348 28.3961 78.7592 28.5185L67.2992 36.3185L77.8742 30.2135C78.0617 30.1022 78.2854 30.0687 78.4973 30.1204C78.7091 30.1721 78.8923 30.3047 79.0075 30.4899C79.1226 30.6751 79.1606 30.8981 79.1133 31.1109C79.0659 31.3238 78.937 31.5096 78.7542 31.6285L73.8659 34.8952L77.8742 32.5819C78.0574 32.4802 78.2721 32.4512 78.4756 32.5007C78.6792 32.5502 78.8566 32.6745 78.9726 32.849C79.0886 33.0234 79.1347 33.2351 79.1016 33.442C79.0686 33.6488 78.9588 33.8356 78.7942 33.9652L69.5309 41.0002L77.8642 36.1869C78.0496 36.0812 78.2684 36.0505 78.4757 36.1014C78.6829 36.1522 78.8627 36.2806 78.9781 36.4601C79.0935 36.6396 79.1357 36.8565 79.0959 37.0661C79.0561 37.2758 78.9374 37.4622 78.7642 37.5869L77.0192 38.8285L77.8392 38.3569C78.0187 38.2553 78.2295 38.2239 78.4308 38.2688C78.6321 38.3136 78.8096 38.4315 78.929 38.5996C79.0484 38.7678 79.1013 38.9742 79.0773 39.179C79.0533 39.3839 78.9542 39.5725 78.7992 39.7085L70.8826 46.5319C70.9515 46.7167 70.9526 46.9199 70.8858 47.1054C70.8189 47.291 70.6885 47.4468 70.5176 47.5452L68.0009 49.0002C67.8214 49.1018 67.6106 49.1332 67.4093 49.0883C67.208 49.0435 67.0305 48.9256 66.9111 48.7575C66.7917 48.5893 66.7389 48.3829 66.7628 48.1781C66.7868 47.9732 66.8859 47.7846 67.0409 47.6485L71.0192 44.2185L62.7276 49.0002C62.5426 49.1025 62.3257 49.1306 62.1207 49.0789C61.9158 49.0272 61.7381 48.8996 61.6237 48.7219C61.5093 48.5441 61.4667 48.3296 61.5046 48.1216C61.5424 47.9137 61.6579 47.7279 61.8276 47.6019L63.5726 46.3585L59.0009 49.0002C58.8177 49.1039 58.602 49.1344 58.3972 49.0855C58.1924 49.0367 58.0137 48.9122 57.897 48.737C57.7803 48.5618 57.7342 48.3489 57.768 48.1411C57.8018 47.9333 57.913 47.746 58.0792 47.6169L67.3342 40.5802L52.7342 49.0002C52.5471 49.1087 52.325 49.1401 52.1151 49.0879C51.9052 49.0357 51.7238 48.9038 51.6093 48.7203C51.4948 48.5367 51.4562 48.3159 51.5016 48.1044C51.547 47.8928 51.6728 47.7073 51.8526 47.5869L56.7409 44.3202L48.6326 49.0002C48.4463 49.1038 48.2273 49.1321 48.0208 49.0792C47.8143 49.0263 47.6359 48.8963 47.5223 48.7159C47.4087 48.5355 47.3686 48.3184 47.4102 48.1094C47.4518 47.9003 47.5719 47.7151 47.7459 47.5919L59.2042 39.7919L43.2542 49.0002C43.0663 49.1052 42.8451 49.1334 42.6369 49.079C42.4287 49.0245 42.2496 48.8916 42.1372 48.7081C42.0247 48.5246 41.9877 48.3047 42.0337 48.0944C42.0798 47.8842 42.2054 47.6999 42.3842 47.5802L50.7859 42.1319L38.8876 49.0002C38.7001 49.1051 38.4794 49.1335 38.2715 49.0796C38.0637 49.0256 37.8846 48.8936 37.7718 48.7108C37.6589 48.5281 37.6209 48.3089 37.6658 48.0988C37.7107 47.8888 37.8349 47.7042 38.0126 47.5835L54.0492 37.0285L33.3109 49.0002C33.1847 49.0751 33.041 49.1154 32.8942 49.1169Z" fill="#FC981A"/>
<path d="M45.654 38.8332C45.4901 38.8331 45.3298 38.7848 45.1933 38.6942C45.0567 38.6035 44.9499 38.4746 44.8862 38.3236C44.8225 38.1726 44.8048 38.0061 44.8352 37.8451C44.8657 37.684 44.9429 37.5355 45.0573 37.4182L48.254 34.1382L40.6773 38.5132C40.4953 38.617 40.2808 38.6484 40.0767 38.6011C39.8725 38.5539 39.6936 38.4315 39.5757 38.2582C39.4577 38.085 39.4094 37.8737 39.4403 37.6664C39.4712 37.4592 39.579 37.2711 39.7423 37.1398L43.9273 33.8065L38.054 37.1965C37.8695 37.3031 37.6511 37.335 37.4438 37.2855C37.2365 37.236 37.056 37.109 36.9394 36.9306C36.8229 36.7522 36.7791 36.5358 36.8172 36.3261C36.8552 36.1164 36.9722 35.9293 37.144 35.8032L40.0407 33.6782L36.4273 35.7648C36.2434 35.871 36.0259 35.9029 35.8193 35.8541C35.6126 35.8053 35.4324 35.6794 35.3154 35.5022C35.1984 35.325 35.1534 35.1098 35.1897 34.9006C35.226 34.6914 35.3408 34.5039 35.5107 34.3765L40.144 30.9082L35.0407 33.8532C34.8569 33.9549 34.6415 33.9835 34.4376 33.9332C34.2337 33.8829 34.0563 33.7575 33.9409 33.5821C33.8254 33.4066 33.7805 33.1941 33.8151 32.9869C33.8497 32.7797 33.9612 32.5933 34.1273 32.4648L38.559 29.1665L34.1673 31.7015C33.984 31.8074 33.7673 31.8395 33.5612 31.7914C33.355 31.7433 33.1749 31.6186 33.0574 31.4425C32.9399 31.2665 32.8937 31.0523 32.9284 30.8435C32.9631 30.6346 33.0759 30.4468 33.244 30.3182L37.709 26.8982L33.8057 29.1515C33.6246 29.2564 33.4106 29.2893 33.2064 29.2437C33.0021 29.198 32.8225 29.0772 32.7033 28.9053C32.584 28.7333 32.5338 28.5227 32.5626 28.3155C32.5915 28.1082 32.6973 27.9193 32.859 27.7865L37.0007 24.3865L34.304 25.9415C34.1266 26.0417 33.9185 26.0734 33.7193 26.0307C33.5201 25.9879 33.3434 25.8736 33.2227 25.7094C33.102 25.5452 33.0457 25.3425 33.0643 25.1396C33.083 24.9366 33.1754 24.7476 33.324 24.6082L35.854 22.2748C35.7026 22.2232 35.5692 22.129 35.4698 22.0036C35.3705 21.8782 35.3093 21.7268 35.2937 21.5676C35.278 21.4083 35.3086 21.248 35.3816 21.1056C35.4547 20.9633 35.5672 20.845 35.7057 20.7648L40.5973 17.9315C40.7748 17.8299 40.9835 17.7971 41.1836 17.8393C41.3837 17.8815 41.5612 17.9959 41.6825 18.1606C41.8037 18.3253 41.8602 18.5288 41.8411 18.7324C41.822 18.936 41.7287 19.1255 41.579 19.2648L40.0007 20.7265L44.9473 17.8715C45.1284 17.7666 45.3424 17.7337 45.5466 17.7793C45.7509 17.8249 45.9305 17.9457 46.0497 18.1177C46.169 18.2897 46.2192 18.5002 46.1903 18.7075C46.1615 18.9148 46.0557 19.1036 45.894 19.2365L41.7507 22.6382L47.9657 19.0515C48.1487 18.9485 48.3638 18.9184 48.568 18.9672C48.7723 19.016 48.9506 19.1401 49.0672 19.3147C49.1839 19.4893 49.2304 19.7015 49.1973 19.9089C49.1643 20.1162 49.0542 20.3035 48.889 20.4332L44.424 23.8532L50.0007 20.6332C50.1845 20.5294 50.4009 20.4992 50.6061 20.5488C50.8113 20.5983 50.99 20.7239 51.1062 20.9002C51.2224 21.0765 51.2673 21.2903 51.232 21.4984C51.1966 21.7065 51.0835 21.8935 50.9157 22.0215L46.4807 25.3332L51.4273 22.4782C51.6112 22.372 51.8287 22.3401 52.0354 22.3889C52.2421 22.4377 52.4223 22.5635 52.5393 22.7407C52.6563 22.918 52.7012 23.1331 52.6649 23.3424C52.6286 23.5516 52.5139 23.739 52.344 23.8665L47.714 27.3332L52.409 24.6232C52.5935 24.5165 52.8119 24.4847 53.0192 24.5341C53.2265 24.5836 53.407 24.7106 53.5236 24.889C53.6401 25.0675 53.6839 25.2838 53.6458 25.4935C53.6078 25.7032 53.4908 25.8904 53.319 26.0165L50.4173 28.1432L52.824 26.7548C53.0061 26.649 53.2215 26.616 53.427 26.6626C53.6324 26.7091 53.8125 26.8317 53.9312 27.0057C54.0499 27.1797 54.0983 27.3922 54.0667 27.6005C54.035 27.8087 53.9257 27.9973 53.7607 28.1282L49.579 31.4515L52.649 29.6798C52.8231 29.5805 53.0271 29.5473 53.2237 29.5863C53.4203 29.6252 53.5963 29.7337 53.7194 29.8918C53.8425 30.05 53.9045 30.2472 53.894 30.4473C53.8835 30.6474 53.8013 30.8371 53.6623 30.9815L50.3673 34.3615C50.5613 34.3195 50.764 34.3481 50.9387 34.4422C51.1135 34.5363 51.2489 34.6897 51.3207 34.8748C51.3924 35.0598 51.3957 35.2644 51.3301 35.4518C51.2644 35.6391 51.134 35.7968 50.9623 35.8965L46.0707 38.7298C45.9432 38.8001 45.7995 38.8357 45.654 38.8332Z" fill="#FC981A"/>
<path d="M94.1062 98.6517C93.9546 98.6518 93.8058 98.6104 93.6759 98.5321C93.5461 98.4539 93.44 98.3416 93.3692 98.2076C93.2984 98.0735 93.2655 97.9226 93.2741 97.7712C93.2826 97.6198 93.3324 97.4736 93.4179 97.3484L95.3712 94.5L93.1346 95.7917C92.9643 95.89 92.7648 95.925 92.5713 95.8904C92.3777 95.8558 92.2026 95.7539 92.077 95.6027C91.9513 95.4515 91.8831 95.2608 91.8845 95.0642C91.8859 94.8676 91.9568 94.6778 92.0846 94.5284L94.1179 92.1484L92.3946 93.1484C92.2228 93.2486 92.0209 93.284 91.8253 93.2484C91.6297 93.2127 91.4533 93.1083 91.3279 92.9539C91.2025 92.7996 91.1365 92.6055 91.1417 92.4067C91.1469 92.208 91.223 92.0176 91.3562 91.8701L93.4712 89.5L91.5546 90.6067C91.3853 90.7044 91.1871 90.7395 90.9945 90.7059C90.802 90.6722 90.6274 90.5719 90.5013 90.4226C90.3752 90.2733 90.3056 90.0844 90.3047 89.8889C90.3038 89.6935 90.3716 89.5039 90.4962 89.3534L93.4862 85.7434L90.3579 87.55C90.185 87.648 89.9829 87.6809 89.7879 87.6429C89.5929 87.6049 89.4178 87.4985 89.2944 87.3428C89.1709 87.1872 89.1071 86.9926 89.1145 86.794C89.1218 86.5955 89.1999 86.4061 89.3346 86.26L92.0596 83.3534L89.1846 85.0201C89.0052 85.1245 88.7933 85.1583 88.5903 85.1147C88.3873 85.0712 88.2079 84.9534 88.0872 84.7846C87.9665 84.6157 87.9132 84.4078 87.9376 84.2017C87.9621 83.9955 88.0627 83.806 88.2196 83.67L89.1012 82.9001L88.3212 83.35C88.1438 83.4517 87.9351 83.4845 87.735 83.4422C87.5349 83.4 87.3573 83.2856 87.2361 83.121C87.1148 82.9563 87.0584 82.7527 87.0775 82.5491C87.0965 82.3455 87.1898 82.156 87.3396 82.0167L89.3862 80.1317L87.1946 81.3967C87.0189 81.498 86.8123 81.5318 86.6135 81.4917C86.4147 81.4516 86.2373 81.3404 86.1146 81.1788C85.992 81.0173 85.9324 80.8166 85.9471 80.6144C85.9618 80.4121 86.0498 80.2221 86.1946 80.08L89.3212 77.0184L85.6912 79.1134C85.5138 79.2136 85.3058 79.2453 85.1066 79.2026C84.9073 79.1598 84.7306 79.0455 84.6099 78.8813C84.4893 78.7171 84.4329 78.5144 84.4516 78.3115C84.4702 78.1085 84.5626 77.9195 84.7112 77.78L87.5662 75.16L84.1879 77.1117C84.0126 77.2103 83.8076 77.2421 83.6107 77.2014C83.4138 77.1607 83.2382 77.0502 83.1164 76.8902C82.9946 76.7302 82.9347 76.5316 82.9479 76.3309C82.961 76.1303 83.0463 75.9411 83.1879 75.7984L87.2862 71.7417L82.0979 74.7417C81.918 74.8456 81.7057 74.8786 81.5027 74.8341C81.2998 74.7896 81.1207 74.6709 81.0008 74.5013C80.8808 74.3316 80.8285 74.1233 80.8542 73.9171C80.8799 73.7109 80.9816 73.5217 81.1396 73.3867L84.0279 70.9084L80.3162 73.0334C80.1353 73.1304 79.9248 73.1572 79.7253 73.1086C79.5257 73.06 79.3512 72.9395 79.2351 72.7701C79.119 72.6007 79.0695 72.3944 79.0962 72.1907C79.1228 71.9871 79.2238 71.8005 79.3796 71.6667L81.2529 70.1667L78.6662 71.6667C78.4889 71.7656 78.2815 71.7963 78.083 71.753C77.8846 71.7098 77.7088 71.5955 77.5887 71.4318C77.4685 71.2681 77.4123 71.0661 77.4306 70.8638C77.4489 70.6616 77.5404 70.4729 77.6879 70.3334L82.3329 66.0834L75.9112 69.7917C75.7269 69.8973 75.5093 69.9285 75.3027 69.879C75.0962 69.8295 74.9164 69.7029 74.8 69.5253C74.6836 69.3476 74.6394 69.1322 74.6765 68.923C74.7136 68.7139 74.8292 68.5268 74.9996 68.4L75.0412 68.3684L74.2196 68.8434C74.0406 68.9471 73.8294 68.9806 73.6271 68.9373C73.4248 68.894 73.2458 68.7769 73.125 68.6089C73.0042 68.441 72.9503 68.2341 72.9736 68.0285C72.9969 67.8229 73.0959 67.6334 73.2512 67.4967L78.6129 62.7717L70.6896 67.345C70.5071 67.4501 70.2916 67.4822 70.0864 67.4349C69.8813 67.3876 69.7016 67.2643 69.5836 67.09C69.4656 66.9156 69.4179 66.703 69.4503 66.4949C69.4826 66.2868 69.5925 66.0987 69.7579 65.9684L73.7479 62.8467L67.5196 66.4417C67.3342 66.5474 67.1154 66.578 66.9082 66.5272C66.7009 66.4764 66.5211 66.348 66.4057 66.1685C66.2903 65.989 66.2482 65.7721 66.288 65.5625C66.3277 65.3528 66.4464 65.1664 66.6196 65.0417L67.4346 64.4617L64.8246 65.9617C64.6396 66.0679 64.421 66.0991 64.2138 66.0489C64.0065 65.9988 63.8264 65.8711 63.7104 65.6921C63.5945 65.5132 63.5515 65.2966 63.5904 65.0869C63.6293 64.8773 63.7471 64.6905 63.9196 64.565L66.7529 62.515L61.2079 65.7167C61.1131 65.7723 61.0082 65.8086 60.8994 65.8235C60.7905 65.8383 60.6797 65.8316 60.5735 65.8035C60.4672 65.7754 60.3676 65.7265 60.2803 65.6598C60.193 65.593 60.1197 65.5097 60.0648 65.4145C60.0098 65.3193 59.9742 65.2142 59.9601 65.1052C59.9459 64.9962 59.9534 64.8855 59.9822 64.7795C60.011 64.6734 60.0605 64.5741 60.1279 64.4872C60.1952 64.4004 60.279 64.3277 60.3746 64.2734L79.8329 53.0434C80.018 52.9342 80.238 52.9007 80.4472 52.9499C80.6563 52.999 80.8384 53.1271 80.9554 53.3073C81.0724 53.4875 81.1152 53.706 81.075 53.917C81.0348 54.1281 80.9146 54.3155 80.7396 54.44L77.9062 56.4934L81.6896 54.31C81.8749 54.2043 82.0938 54.1737 82.301 54.2245C82.5082 54.2754 82.6881 54.4038 82.8035 54.5833C82.9189 54.7627 82.961 54.9797 82.9212 55.1893C82.8814 55.3989 82.7627 55.5853 82.5896 55.71L81.7712 56.2917L83.1762 55.4817C83.3587 55.3766 83.5742 55.3445 83.7794 55.3918C83.9846 55.4392 84.1642 55.5624 84.2822 55.7368C84.4003 55.9112 84.4479 56.1238 84.4155 56.3319C84.3832 56.5399 84.2733 56.728 84.1079 56.8584L80.1162 59.9817L85.0179 57.1484C85.1969 57.0446 85.4081 57.0111 85.6104 57.0545C85.8127 57.0978 85.9917 57.2148 86.1125 57.3828C86.2332 57.5508 86.2872 57.7577 86.2639 57.9633C86.2406 58.1689 86.1416 58.3584 85.9862 58.495L80.6279 63.2167L87.1496 59.4517C87.3339 59.3461 87.5515 59.3149 87.7581 59.3644C87.9646 59.414 88.1445 59.5405 88.2609 59.7182C88.3773 59.8958 88.4214 60.1112 88.3843 60.3204C88.3472 60.5295 88.2317 60.7166 88.0612 60.8434L88.0179 60.875L88.2012 60.77C88.3786 60.6712 88.586 60.6405 88.7845 60.6837C88.9829 60.727 89.1587 60.8412 89.2788 61.005C89.399 61.1687 89.4552 61.3707 89.4369 61.5729C89.4186 61.7752 89.3271 61.9638 89.1796 62.1034L84.5129 66.3434L89.8979 63.2334C90.0801 63.1253 90.2966 63.0906 90.5034 63.1364C90.7102 63.1821 90.8918 63.305 91.0113 63.4799C91.1308 63.6548 91.1792 63.8686 91.1467 64.0779C91.1142 64.2872 91.0032 64.4763 90.8362 64.6067L88.9629 66.1067L90.9362 64.9667C91.1162 64.861 91.3293 64.8267 91.5334 64.8705C91.7374 64.9144 91.9176 65.0332 92.0383 65.2035C92.159 65.3738 92.2113 65.5832 92.185 65.7903C92.1587 65.9973 92.0557 66.187 91.8962 66.3217L89.0079 68.8L92.0396 67.05C92.2148 66.9515 92.4198 66.9196 92.6168 66.9603C92.8137 67.001 92.9893 67.1116 93.1111 67.2716C93.2329 67.4316 93.2927 67.6302 93.2796 67.8308C93.2665 68.0315 93.1812 68.2206 93.0396 68.3634L88.9496 72.4284L93.3112 69.91C93.4887 69.8098 93.6967 69.7781 93.8959 69.8209C94.0952 69.8636 94.2719 69.9779 94.3925 70.1421C94.5132 70.3063 94.5696 70.509 94.5509 70.712C94.5322 70.9149 94.4399 71.1039 94.2912 71.2434L91.4346 73.8634L94.2012 72.2667C94.3769 72.1654 94.5835 72.1316 94.7824 72.1717C94.9812 72.2118 95.1585 72.3231 95.2812 72.4846C95.4039 72.6461 95.4634 72.8468 95.4487 73.0491C95.434 73.2514 95.346 73.4413 95.2012 73.5834L92.0762 76.645L95.0579 74.9234C95.2354 74.8218 95.444 74.7889 95.6441 74.8312C95.8442 74.8734 96.0218 74.9878 96.1431 75.1525C96.2643 75.3172 96.3208 75.5207 96.3017 75.7243C96.2826 75.9279 96.1893 76.1174 96.0396 76.2567L93.9996 78.1434L95.6662 77.18C95.8454 77.0759 96.057 77.0423 96.2596 77.0858C96.4622 77.1292 96.6414 77.2466 96.7622 77.415C96.8829 77.5835 96.9366 77.7908 96.9127 77.9967C96.8888 78.2025 96.789 78.3921 96.6329 78.5284L95.7496 79.2984L96.1096 79.0917C96.2825 78.9938 96.4846 78.9609 96.6796 78.9989C96.8746 79.0369 97.0496 79.1433 97.1731 79.2989C97.2966 79.4546 97.3604 79.6492 97.353 79.8477C97.3456 80.0463 97.2676 80.2357 97.1329 80.3817L94.4046 83.2934L96.6662 81.9851C96.8355 81.8873 97.0338 81.8522 97.2263 81.8859C97.4188 81.9196 97.5934 82.0198 97.7195 82.1691C97.8456 82.3185 97.9152 82.5074 97.9161 82.7029C97.9171 82.8983 97.8493 83.0879 97.7246 83.2384L94.7346 86.8467L97.1746 85.4417C97.3461 85.3437 97.5469 85.3099 97.7411 85.3462C97.9353 85.3825 98.1103 85.4867 98.2348 85.64C98.3593 85.7934 98.4253 85.986 98.421 86.1835C98.4167 86.381 98.3424 86.5706 98.2112 86.7184L96.0996 89.0717L97.4829 88.2734C97.6532 88.1751 97.8527 88.1401 98.0462 88.1747C98.2398 88.2093 98.4149 88.3112 98.5405 88.4624C98.6662 88.6136 98.7344 88.8043 98.733 89.0009C98.7316 89.1975 98.6607 89.3873 98.5329 89.5367L96.4996 91.915L97.7062 91.2184C97.8698 91.1239 98.0606 91.0877 98.2474 91.1159C98.4341 91.144 98.6058 91.2348 98.7343 91.3733C98.8627 91.5118 98.9403 91.6898 98.9542 91.8782C98.9682 92.0666 98.9178 92.2541 98.8112 92.41L96.8596 95.2667L97.8596 94.6884C98.0509 94.5796 98.2774 94.5509 98.4898 94.6086C98.7022 94.6662 98.8831 94.8056 98.9931 94.9961C99.1032 95.1867 99.1334 95.4131 99.0771 95.6258C99.0209 95.8386 98.8827 96.0204 98.6929 96.1317L94.5262 98.5401C94.3989 98.6146 94.2538 98.6532 94.1062 98.6517Z" fill="#FC981A"/>
<path d="M54.9301 71.735C54.7708 71.735 54.6148 71.6894 54.4807 71.6035C54.3465 71.5176 54.2398 71.395 54.1732 71.2503C54.1065 71.1056 54.0827 70.9449 54.1046 70.7871C54.1265 70.6293 54.1932 70.4811 54.2968 70.36L56.1501 68.1934L53.2868 69.8467C53.0999 69.9608 52.8756 69.9968 52.6623 69.9468C52.4491 69.8969 52.2641 69.765 52.1474 69.5797C52.0306 69.3944 51.9915 69.1706 52.0385 68.9567C52.0855 68.7428 52.2148 68.556 52.3984 68.4367L59.1451 63.82L51.4484 68.2634C51.2613 68.3718 51.0393 68.4033 50.8293 68.351C50.6194 68.2988 50.438 68.167 50.3235 67.9834C50.209 67.7999 50.1704 67.579 50.2158 67.3675C50.2612 67.156 50.387 66.9704 50.5668 66.85L54.6201 64.125L49.8451 66.8834C49.6614 66.9886 49.4446 67.02 49.2386 66.9712C49.0326 66.9223 48.8529 66.7969 48.736 66.6204C48.6192 66.4439 48.5738 66.2296 48.6092 66.0209C48.6447 65.8121 48.7582 65.6247 48.9268 65.4967L59.7284 57.365L47.1968 64.6C47.0123 64.7041 46.7951 64.7341 46.5894 64.6838C46.3837 64.6335 46.2048 64.5068 46.0891 64.3294C45.9734 64.152 45.9297 63.9372 45.9667 63.7286C46.0037 63.5201 46.1188 63.3335 46.2884 63.2067L54.2501 57.3817L45.0118 62.715C44.8272 62.8216 44.6088 62.8535 44.4015 62.804C44.1942 62.7546 44.0137 62.6276 43.8972 62.4491C43.7807 62.2707 43.7369 62.0544 43.775 61.8447C43.813 61.635 43.93 61.4478 44.1018 61.3217L50.1851 56.865L43.0184 61C42.8326 61.1086 42.6119 61.141 42.4026 61.0905C42.1934 61.0401 42.0118 60.9105 41.8959 60.7292C41.78 60.5478 41.7388 60.3286 41.7809 60.1175C41.823 59.9064 41.9452 59.7197 42.1218 59.5967L44.3418 58.0334L41.4934 59.6784C41.3077 59.7837 41.0886 59.8138 40.8813 59.7623C40.674 59.7108 40.4945 59.5817 40.3796 59.4017C40.2648 59.2216 40.2235 59.0043 40.2642 58.7947C40.3049 58.585 40.4245 58.399 40.5984 58.275L44.0818 55.8334L40.5084 57.895C40.3258 57.9987 40.1108 58.0296 39.9063 57.9816C39.7019 57.9335 39.5231 57.8101 39.4058 57.6359C39.2885 57.4617 39.2413 57.2496 39.2736 57.0421C39.3059 56.8346 39.4154 56.647 39.5801 56.5167L48.9584 49.1984L47.0834 50.28C46.9004 50.383 46.6853 50.4131 46.4811 50.3643C46.2768 50.3155 46.0985 50.1914 45.9819 50.0168C45.8652 49.8422 45.8187 49.63 45.8518 49.4227C45.8848 49.2153 45.9949 49.028 46.1601 48.8984L52.6318 43.9417C52.5841 43.7644 52.5963 43.5762 52.6665 43.4065C52.7367 43.2369 52.861 43.0951 53.0201 43.0034L56.4801 41.0034C56.663 40.9023 56.8772 40.8736 57.0803 40.9231C57.2834 40.9725 57.4604 41.0965 57.5764 41.2703C57.6924 41.4442 57.7388 41.6552 57.7064 41.8617C57.6741 42.0682 57.5654 42.255 57.4018 42.385L57.3401 42.4334L58.4918 41.7667C58.6744 41.663 58.8894 41.6321 59.0939 41.6802C59.2983 41.7282 59.4771 41.8517 59.5944 42.0259C59.7117 42.2 59.7589 42.4121 59.7266 42.6196C59.6943 42.8271 59.5848 43.0148 59.4201 43.145L50.0401 50.4667L59.5401 44.9784C59.7259 44.873 59.945 44.8429 60.1522 44.8944C60.3595 44.9459 60.5391 45.075 60.6539 45.2551C60.7688 45.4351 60.8101 45.6524 60.7694 45.8621C60.7286 46.0717 60.609 46.2577 60.4351 46.3817L56.9568 48.8234L59.5718 47.315C59.7573 47.2108 59.9756 47.1815 60.182 47.2331C60.3884 47.2847 60.5673 47.4133 60.6819 47.5925C60.7966 47.7717 60.8383 47.988 60.7986 48.197C60.7589 48.4061 60.6408 48.592 60.4684 48.7167L58.2484 50.28L62.5951 47.77C62.7797 47.6634 62.998 47.6316 63.2053 47.681C63.4127 47.7305 63.5931 47.8575 63.7097 48.0359C63.8262 48.2144 63.87 48.4307 63.8319 48.6404C63.7939 48.8501 63.6769 49.0372 63.5051 49.1634L57.4268 53.6184L66.7601 48.23C66.9445 48.1281 67.1606 48.0998 67.3649 48.1508C67.5693 48.2018 67.7468 48.3283 67.8617 48.5049C67.9766 48.6814 68.0204 48.8949 67.9842 49.1024C67.948 49.31 67.8346 49.4961 67.6668 49.6234L59.7168 55.4484L70.7401 49.0817C70.9238 48.9765 71.1406 48.9451 71.3466 48.9939C71.5526 49.0427 71.7323 49.1681 71.8492 49.3446C71.9661 49.5211 72.0114 49.7355 71.976 49.9442C71.9405 50.1529 71.827 50.3403 71.6584 50.4684L60.8518 58.605L74.9001 50.5C75.0875 50.3829 75.3138 50.345 75.5292 50.3947C75.7445 50.4444 75.9313 50.5776 76.0484 50.765C76.1656 50.9525 76.2035 51.1787 76.1538 51.3941C76.1041 51.6094 75.9709 51.7962 75.7834 51.9134L71.7334 54.6334L77.1368 51.515C77.3235 51.4067 77.545 51.375 77.7546 51.4267C77.9642 51.4784 78.1456 51.6094 78.2605 51.7922C78.3754 51.9749 78.415 52.1952 78.3707 52.4065C78.3265 52.6178 78.202 52.8037 78.0234 52.925L60.7351 64.7584C60.7871 64.8979 60.8007 65.0487 60.7746 65.1953C60.7485 65.3418 60.6837 65.4787 60.5868 65.5917L58.7334 67.7584L59.5368 67.295C59.7272 67.1954 59.9488 67.1732 60.1552 67.2331C60.3617 67.293 60.537 67.4303 60.6445 67.6164C60.7521 67.8025 60.7836 68.0229 60.7325 68.2317C60.6813 68.4405 60.5515 68.6214 60.3701 68.7367L55.3468 71.6384C55.219 71.7071 55.0751 71.7405 54.9301 71.735Z" fill="#FC981A"/>
<path d="M86.2069 8.07845C86.2069 6.49012 86.9352 2.51345 85.2952 1.47012C75.2752 0.350116 64.7319 1.47845 54.5485 1.09178C37.7152 1.24178 20.8419 0.83845 4.0152 1.09178C2.43854 1.17678 0.736871 1.77345 0.468538 3.51845C3.83354 65.7351 -15.4998 54.9101 39.0202 55.5751C38.9869 62.3668 48.7652 65.5751 52.7269 70.5435C56.5169 74.7918 62.4035 71.1885 61.2269 65.8768C77.2152 66.3768 88.1285 80.7435 91.4502 95.3601C91.9085 97.1718 92.5386 98.7535 94.6285 99.0968C108.02 99.0485 91.8785 58.1268 84.1285 55.2851C86.1769 54.9118 86.4169 52.5685 86.2002 50.7701L86.2069 8.07845ZM94.3502 76.0685C94.9502 79.3685 100.402 98.7201 94.4885 96.6768C91.2602 80.6768 76.7152 60.4118 58.7835 65.1135C59.3869 69.3568 58.0302 73.3351 53.9985 68.6951C51.1785 64.4768 36.6319 58.7701 43.2635 53.5901C47.4302 50.0901 51.4752 46.3785 55.6485 42.9135C59.1052 40.7235 58.7852 46.7385 58.7852 48.4485C74.8335 49.3635 90.6985 58.7701 94.3502 76.0685ZM9.54021 29.2551C9.76187 25.2185 9.11187 20.8818 9.76187 16.9768C13.1669 16.1068 18.6185 12.9851 17.3569 8.79512C34.0585 8.95012 50.7619 8.79512 67.4669 8.85012C68.4669 8.91012 68.6086 9.08512 68.9669 10.3101C69.2642 11.6137 69.8515 12.8335 70.6851 13.8789C71.5187 14.9243 72.5772 15.7684 73.7819 16.3485C75.1269 16.9668 77.0502 16.8235 77.1335 18.5618C77.3002 25.5135 77.3752 32.7185 76.9919 39.5951C73.6585 40.4285 68.0085 43.9285 69.2519 47.6601C69.2511 47.6878 69.2558 47.7153 69.2658 47.741C69.2759 47.7668 69.2909 47.7903 69.3102 47.8101C66.7469 48.2818 63.8769 47.4768 61.2419 47.5501C62.1119 35.3835 51.5419 43.0985 47.2235 47.8168C41.3569 46.7135 19.5569 50.2401 17.6385 46.0618C13.6085 35.5001 7.8202 45.5235 9.54021 29.2551ZM73.6869 49.5218C72.4102 49.1106 71.1122 48.769 69.7985 48.4985C79.7702 30.7651 79.9335 51.8485 79.5402 22.8151C81.5952 12.8451 73.9502 18.1318 71.6119 10.5585C71.1552 9.13178 71.2785 7.96512 69.5319 7.81678C52.5902 7.65012 35.5535 7.83178 18.5952 7.81678C14.6035 7.63845 15.5669 12.3168 13.1419 14.2835C9.05687 17.3918 5.99687 15.3435 7.12687 22.3985C7.86854 28.0835 5.58687 35.3635 7.96021 40.4135C9.61171 40.5998 11.1724 41.2662 12.4491 42.3302C13.7258 43.3943 14.6626 44.8092 15.1435 46.4001C16.2619 51.9435 39.9885 47.5118 46.0285 48.8501C43.9569 50.7835 41.6952 52.3768 39.7069 54.4251H5.66687C4.34687 54.4251 3.24187 54.7235 2.8752 53.0101C3.26354 36.3101 2.3752 18.4368 3.2752 2.24178C29.1335 2.22512 55.1535 2.25345 81.0652 2.24178C87.0519 1.80012 82.5485 23.3118 83.7969 28.2418C83.1535 36.6168 85.0585 46.9735 83.1019 54.4301C80.2577 52.2828 77.0759 50.624 73.6869 49.5218Z" fill="#4F030C"/>
<path d="M45.3185 38.9301C55.9852 37.3601 57.8752 21.5518 47.3802 18.1418C29.5502 12.6884 26.3568 41.6351 45.3185 38.9301ZM35.7568 23.5401C40.0352 15.4718 52.3802 19.7718 52.1152 28.4451C51.3735 44.0784 28.9185 36.7884 35.7568 23.5401Z" fill="#262626"/>
</g>
<defs>
<clipPath id="clip0_1222_2908">
<rect width="100" height="100" fill="white"/>
</clipPath>
</defs>
</svg>
