<svg width="100" height="100" viewBox="0 0 100 100" fill="none" xmlns="http://www.w3.org/2000/svg">
<path d="M25 31.25V68.75H75V34.375C71.4984 34.375 68.2734 33.2031 65.6656 31.25H25Z" fill="#FC981A"/>
<path d="M59.375 14.0625L50 6.25V12.5C29.2891 12.5 12.5 29.2891 12.5 50C12.5 66.05 22.5859 79.7375 36.7625 85.0891L39.5609 82.7562C25.6812 78.3359 15.625 65.3453 15.625 50C15.625 31.0156 31.0156 15.625 50 15.625V21.875L59.375 14.0625Z" fill="#FC981A"/>
<path d="M25 31.25H31.25V68.75H25V31.25Z" fill="#FC981A"/>
<path d="M46.875 31.25V40.625L50 37.5L53.125 40.625V31.25H46.875Z" fill="#B37324"/>
<path d="M59.375 59.375H68.75V62.5H59.375V59.375Z" fill="#F0F0F0"/>
<path d="M59.375 53.125H68.75V56.25H59.375V53.125Z" fill="#F0F0F0"/>
<path d="M80.1344 33.4908C82.8266 38.3924 84.375 44.0127 84.375 50.0002C84.375 68.9846 68.9844 84.3752 50 84.3752V78.1252L40.625 85.9377L50 93.7502V87.5002C70.7109 87.5002 87.5 70.7111 87.5 50.0002C87.5 43.5393 85.8438 37.4736 82.9656 32.1689C82.0734 32.6986 81.1281 33.1439 80.1344 33.4908Z" fill="#FC981A"/>
<path d="M75 31.25C81.9036 31.25 87.5 25.6536 87.5 18.75C87.5 11.8464 81.9036 6.25 75 6.25C68.0964 6.25 62.5 11.8464 62.5 18.75C62.5 25.6536 68.0964 31.25 75 31.25Z" fill="#FC981A"/>
<path d="M65.625 18.75C65.625 12.3766 70.3984 7.12812 76.5625 6.35781C76.05 6.29375 75.5297 6.25 75 6.25C68.0969 6.25 62.5 11.8469 62.5 18.75C62.5 25.6531 68.0969 31.25 75 31.25C75.5297 31.25 76.05 31.2062 76.5625 31.1422C70.3984 30.3719 65.625 25.1234 65.625 18.75Z" fill="#FC981A"/>
<path d="M82.8125 15.625L73.4375 25L67.1875 18.75L70.3125 15.625L73.4375 18.75L79.6875 12.5L82.8125 15.625Z" fill="#F0F0F0"/>
</svg>
