<svg width="30" height="30" viewBox="0 0 30 30" fill="none" xmlns="http://www.w3.org/2000/svg">
<g clip-path="url(#clip0_1222_243)">
<mask id="mask0_1222_243" style="mask-type:luminance" maskUnits="userSpaceOnUse" x="0" y="0" width="30" height="30">
<path d="M0 0H30V30H0V0Z" fill="white"/>
</mask>
<g mask="url(#mask0_1222_243)">
<path d="M25 2.5H10C8.625 2.5 7.5 3.625 7.5 5V20C7.5 21.375 8.625 22.5 10 22.5H25C26.375 22.5 27.5 21.375 27.5 20V5C27.5 3.625 26.375 2.5 25 2.5ZM14.7 16.6L12.1125 14C11.6375 13.5125 11.6375 12.7375 12.1125 12.25C12.6 11.7625 13.3875 11.7625 13.875 12.25L15.575 13.9625L21.1 8.3875C21.5875 7.9 22.375 7.9 22.8625 8.3875C23.3375 8.875 23.3375 9.65 22.8625 10.1375L16.45 16.6C15.9875 17.1 15.1875 17.1 14.7 16.6ZM3.75 7.5C3.0625 7.5 2.5 8.0625 2.5 8.75V25C2.5 26.375 3.625 27.5 5 27.5H21.25C21.9375 27.5 22.5 26.9375 22.5 26.25C22.5 25.5625 21.9375 25 21.25 25H6.25C5.5625 25 5 24.4375 5 23.75V8.75C5 8.0625 4.4375 7.5 3.75 7.5Z" fill="#FC981A"/>
</g>
</g>
<defs>
<clipPath id="clip0_1222_243">
<rect width="30" height="30" fill="white"/>
</clipPath>
</defs>
</svg>
