<svg width="333" height="90" viewBox="0 0 333 90" fill="none" xmlns="http://www.w3.org/2000/svg">
<g clip-path="url(#clip0_1222_2969)">
<mask id="mask0_1222_2969" style="mask-type:luminance" maskUnits="userSpaceOnUse" x="0" y="0" width="75" height="84">
<path d="M8.78364 21.9923H71.2122H71.2187C60.0024 24.2878 49.9605 30.6244 42.9751 39.5877H8.78364C3.95581 39.5864 0 35.6282 0 30.79C0 25.9506 3.95322 21.9923 8.78364 21.9923ZM11.4669 43.9833H39.9262C36.7107 49.2278 34.4641 55.1645 33.4809 61.5787H11.4669C6.64038 61.5787 2.68716 57.6192 2.68716 52.781C2.68716 47.9429 6.6365 43.9833 11.4669 43.9833ZM24.3446 65.9756H33.012L32.9836 66.3962C32.6438 72.2152 33.406 78.0225 35.2186 83.571H24.3433C19.5129 83.571 15.5635 79.6115 15.5635 74.7746C15.5648 69.9352 19.5129 65.9756 24.3446 65.9756ZM71.5934 17.5954C72.9641 17.5954 74.0751 16.4826 74.0751 15.111C74.0751 13.7394 72.9641 12.6266 71.5934 12.6266C70.2252 12.6266 69.1142 13.7394 69.1142 15.111C69.1142 16.4826 70.2252 17.5954 71.5934 17.5954ZM10.3533 72.3329C12.109 72.3329 13.5275 70.9095 13.5275 69.1536C13.5275 67.399 12.1103 65.9743 10.3533 65.9743C8.60407 65.9743 7.18427 67.3977 7.18427 69.1536C7.18298 70.9095 8.60407 72.3329 10.3533 72.3329ZM21.4675 0H58.5335C63.3639 0 67.3133 3.95955 67.3133 8.7977C67.3133 13.6359 63.3639 17.5954 58.5335 17.5954H21.4675C16.6371 17.5954 12.6878 13.6359 12.6878 8.7977C12.6878 3.95955 16.6371 0 21.4675 0Z" fill="white"/>
</mask>
<g mask="url(#mask0_1222_2969)">
<path d="M74.0751 0H0V83.571H74.0751V0Z" fill="url(#paint0_linear_1222_2969)"/>
</g>
<mask id="mask1_1222_2969" style="mask-type:luminance" maskUnits="userSpaceOnUse" x="1" y="1" width="28" height="37">
<path d="M23.217 23.7584H8.78387C4.92625 23.7584 1.76367 26.9261 1.76367 30.7899C1.76367 34.6537 4.92754 37.8213 8.78387 37.8213H19.4989C20.9872 35.4093 23.2157 34.9176 23.2157 32.1886V23.7584H23.217ZM21.4678 15.829H23.1317C23.1253 13.7224 23.2945 11.7763 24.1924 10.217C25.6768 7.63944 28.019 7.19561 28.019 4.39675V1.76611H21.4678C17.6101 1.76611 14.4476 4.93375 14.4476 8.79755C14.4463 12.6613 17.6101 15.829 21.4678 15.829Z" fill="white"/>
</mask>
<g mask="url(#mask1_1222_2969)">
<path d="M28.019 1.76611H1.76367V37.8213H28.019V1.76611Z" fill="url(#paint1_linear_1222_2969)"/>
</g>
<mask id="mask2_1222_2969" style="mask-type:luminance" maskUnits="userSpaceOnUse" x="3" y="25" width="19" height="6">
<path d="M21.6858 25.2905H8.78355C5.76825 25.2905 3.29297 27.7711 3.29297 30.7899H21.6845V25.2905H21.6858Z" fill="white"/>
</mask>
<g mask="url(#mask2_1222_2969)">
<path d="M21.6864 25.2905H3.29492V30.7899H21.6864V25.2905Z" fill="url(#paint2_linear_1222_2969)"/>
</g>
<mask id="mask3_1222_2969" style="mask-type:luminance" maskUnits="userSpaceOnUse" x="15" y="3" width="12" height="6">
<path d="M23.2861 8.79788C23.7228 8.16772 24.2305 7.61778 24.799 7.06655C25.2318 6.64601 25.7821 6.17242 26.1206 5.67553C26.3958 5.27052 26.4914 4.88233 26.4914 4.39709V3.2998H21.4671C18.4557 3.2998 15.9766 5.78035 15.9766 8.79918H23.2861V8.79788Z" fill="white"/>
</mask>
<g mask="url(#mask3_1222_2969)">
<path d="M26.4914 3.2998H15.9766V8.79918H26.4914V3.2998Z" fill="url(#paint3_linear_1222_2969)"/>
</g>
<mask id="mask4_1222_2969" style="mask-type:luminance" maskUnits="userSpaceOnUse" x="19" y="1" width="21" height="37">
<path d="M32.2556 23.7584H23.2149V32.1886C23.2149 34.9189 20.9863 35.4093 19.498 37.8213H33.3098C33.3098 37.8213 33.3098 37.82 33.3072 37.8174C31.8254 35.2411 32.3331 31.5986 32.3331 27.938C32.3331 27.6559 32.3331 27.4333 32.3331 27.2638C32.3331 26.0811 32.2775 24.8997 32.2556 23.7584ZM23.1309 15.829H34.9079C37.002 14.4535 40.0005 13.6849 40.0005 11.5615V1.76611H28.0194V4.39805C28.0194 7.19691 25.6772 7.63944 24.1928 10.2183C23.2937 11.7763 23.1231 13.7224 23.1309 15.829Z" fill="white"/>
</mask>
<g mask="url(#mask4_1222_2969)">
<path d="M40.0012 1.76611H19.5V37.8213H40.0012V1.76611Z" fill="url(#paint4_linear_1222_2969)"/>
</g>
<mask id="mask5_1222_2969" style="mask-type:luminance" maskUnits="userSpaceOnUse" x="36" y="25" width="61" height="65">
<path d="M96.4619 28.1282C79.3468 21.4435 59.883 26.2105 47.7779 40.0508C35.6702 53.8924 33.5114 73.8441 42.3829 89.9592C44.3866 73.2748 51.4275 57.6022 62.5624 45.0326C53.1302 57.1493 47.6823 71.9006 46.9704 87.2471C57.8134 81.8861 66.1694 88.2227 76.1235 77.1321C89.7453 61.9564 70.9507 42.2053 96.4619 28.1282Z" fill="white"/>
</mask>
<g mask="url(#mask5_1222_2969)">
<path d="M96.4622 21.4424H33.5117V89.9594H96.4622V21.4424Z" fill="url(#paint5_linear_1222_2969)"/>
</g>
<mask id="mask6_1222_2969" style="mask-type:luminance" maskUnits="userSpaceOnUse" x="37" y="25" width="60" height="42">
<path d="M96.462 28.1282C79.3469 21.4435 59.8831 26.2105 47.778 40.0508C41.2267 47.539 37.5913 56.8155 37.0371 66.3055C38.7515 54.4281 45.5559 43.8939 55.6767 37.4603C65.7961 31.0215 78.2178 29.3367 89.6847 32.8421H89.6886C91.5011 31.2143 93.7258 29.6382 96.462 28.1282Z" fill="white"/>
</mask>
<g mask="url(#mask6_1222_2969)">
<path d="M96.462 21.4424H37.0371V66.3056H96.462V21.4424Z" fill="url(#paint6_linear_1222_2969)"/>
</g>
</g>
<g clip-path="url(#clip1_1222_2969)">
<path fill-rule="evenodd" clip-rule="evenodd" d="M332.703 8.62947C328.924 8.61054 325.149 8.59678 321.372 8.57785C319.728 11.8277 318.095 15.0293 316.462 18.1793C314.85 21.3018 313.197 24.3641 311.576 27.4023C309.931 24.1473 308.293 20.9371 306.665 17.7716C305.053 14.6439 303.402 11.5541 301.777 8.51248C297.669 8.49356 293.557 8.48495 289.472 8.46603C292.092 13.161 294.733 17.9471 297.337 22.8295C299.974 27.7842 302.577 32.8542 305.2 38.0102C305.2 40.8092 305.2 43.6066 305.2 46.4056C305.2 49.2047 305.2 52.002 305.2 54.8011C309.088 55.5529 312.974 56.3133 316.884 57.0651C316.884 54.1731 316.884 51.2709 316.884 48.3772C316.884 45.4749 316.884 42.5778 316.884 39.672C319.505 34.7793 322.174 29.8022 324.771 24.6841C327.418 19.4713 330.058 14.1089 332.703 8.62947ZM267.058 40.5168C267.058 38.0102 267.058 35.5122 267.058 33.0038C273.167 33.3978 279.277 33.8296 285.386 34.3285C285.386 31.2869 285.386 28.2384 285.386 25.1916C279.277 24.863 273.167 24.5809 267.058 24.3176C267.058 22.0072 267.058 19.707 267.058 17.3965C273.987 17.5651 280.92 17.7681 287.872 17.9883C287.872 14.8142 287.872 11.6401 287.872 8.46603C277.075 8.4385 266.278 8.41442 255.505 8.40065C255.505 15.0775 255.505 21.7646 255.505 28.4414C255.505 35.1285 255.505 41.8053 255.505 48.4907C266.547 49.4387 277.588 50.6274 288.628 52.1259C288.628 48.9518 288.628 45.7674 288.628 42.5847C281.43 41.8225 274.232 41.1172 267.058 40.5168ZM235.801 8.37141C235.801 11.8363 235.801 15.3011 235.801 18.7677C235.801 22.2342 235.801 25.6888 235.801 29.1553C232.757 25.6613 229.692 22.1878 226.669 18.7161C223.65 15.2564 220.605 11.8139 217.583 8.37141C214.362 8.37141 211.163 8.37141 207.966 8.37141C207.966 14.8607 207.966 21.35 207.966 27.8393C207.966 34.3199 207.966 40.8127 207.966 47.2985C211.764 47.2521 215.583 47.2004 219.406 47.1488C219.406 43.7115 219.406 40.2656 219.406 36.8179C219.406 33.3806 219.406 29.9347 219.406 26.487C222.427 29.9244 225.476 33.3978 228.491 36.8833C231.516 40.3774 234.58 43.8887 237.621 47.4671C240.82 47.6082 244.023 47.7682 247.242 47.9178C247.242 41.3339 247.242 34.7432 247.242 28.1489C247.242 21.5667 247.242 14.9742 247.242 8.38517C243.419 8.38173 239.6 8.37141 235.801 8.37141ZM178.885 40.3292C175.753 40.5598 172.949 39.6617 170.954 37.7555C168.952 35.839 167.733 32.9281 167.733 29.3119C167.733 25.706 168.947 22.6729 170.954 20.5311C172.946 18.4098 175.753 17.1746 178.885 17.1041C182.016 17.0387 184.793 18.1363 186.795 20.0907C188.792 22.0347 190.036 24.8475 190.036 28.2797C190.036 31.7256 188.792 34.6279 186.795 36.7216C184.793 38.8273 182.016 40.0953 178.885 40.3292ZM178.885 49.8412C185.473 49.2219 191.209 46.6723 195.301 42.8066C199.337 38.9891 201.833 33.8434 201.833 27.9597C201.833 22.0897 199.359 17.0284 195.301 13.4087C191.231 9.78556 185.483 7.58691 178.885 7.58691C172.289 7.58691 166.512 9.87502 162.469 13.856C158.381 17.8851 155.958 23.614 155.958 30.0981C155.958 36.6012 158.388 41.9963 162.469 45.456C166.514 48.8847 172.281 50.4623 178.885 49.8412ZM138.143 8.51248C138.143 11.4044 138.143 14.2878 138.143 17.1712C138.143 20.0597 138.143 22.9465 138.143 25.8298C132.834 26.2427 127.527 26.6522 122.216 27.0892C122.216 23.9994 122.216 20.9199 122.216 17.8301C122.216 14.7489 122.216 11.6642 122.216 8.57957C118.329 8.59678 114.441 8.61054 110.553 8.62947C110.553 17.283 110.553 25.9331 110.553 34.5814C110.553 43.2264 110.553 51.8799 110.553 60.5248C114.441 59.6371 118.329 58.7459 122.216 57.8444C122.216 54.6428 122.216 51.4395 122.216 48.2378C122.216 45.0362 122.216 41.8328 122.216 38.6312C127.527 37.9362 132.836 37.2876 138.143 36.639C138.143 39.6342 138.143 42.6311 138.143 45.6263C138.143 48.6215 138.143 51.6167 138.143 54.6136C142.031 53.9564 145.918 53.3181 149.806 52.6609C149.806 45.2977 149.806 37.9362 149.806 30.5729C149.806 23.2097 149.806 15.8482 149.806 8.47635C145.918 8.48323 142.031 8.50216 138.143 8.51248Z" fill="white"/>
</g>
<path d="M197.067 76.8294C197.067 78.2815 196.538 79.431 195.479 80.278C194.436 81.125 192.976 81.5485 191.1 81.5485C189.376 81.5485 187.849 81.2233 186.518 80.5729V77.374C187.607 77.858 188.529 78.2058 189.285 78.4176C190.042 78.6142 190.737 78.7125 191.373 78.7125C192.129 78.7125 192.704 78.5688 193.097 78.2815C193.505 77.9941 193.71 77.563 193.71 76.9883C193.71 76.6706 193.619 76.3908 193.437 76.1488C193.256 75.8917 192.991 75.6497 192.643 75.4228C192.31 75.1959 191.615 74.8329 190.556 74.3338C189.573 73.8649 188.832 73.4187 188.333 72.9952C187.833 72.5566 187.433 72.0575 187.13 71.4978C186.843 70.9231 186.699 70.2576 186.699 69.5013C186.699 68.0644 187.183 66.9376 188.151 66.1209C189.134 65.3041 190.48 64.8957 192.189 64.8957C193.037 64.8957 193.838 64.994 194.594 65.1907C195.366 65.3873 196.167 65.6671 196.999 66.0301L195.888 68.7073C195.025 68.3443 194.307 68.0947 193.732 67.9586C193.173 67.8224 192.621 67.7544 192.076 67.7544C191.426 67.7544 190.927 67.9056 190.579 68.2081C190.231 68.5106 190.057 68.9039 190.057 69.3879C190.057 69.6904 190.125 69.9551 190.261 70.182C190.412 70.4088 190.639 70.6282 190.942 70.8399C191.244 71.0517 191.97 71.4298 193.12 71.9743C194.632 72.7003 195.668 73.4263 196.228 74.1523C196.788 74.8783 197.067 75.7707 197.067 76.8294Z" fill="#FC981A"/>
<path d="M206.251 81.3216H202.825V67.9813H198.424V65.1226H210.652V67.9813H206.251V81.3216Z" fill="#FC981A"/>
<path d="M227.852 73.1994C227.852 75.8766 227.186 77.9411 225.855 79.3932C224.524 80.83 222.619 81.5485 220.138 81.5485C217.658 81.5485 215.752 80.83 214.421 79.3932C213.09 77.9411 212.424 75.869 212.424 73.1767C212.424 70.4845 213.09 68.4274 214.421 67.0057C215.752 65.5839 217.665 64.873 220.161 64.873C222.641 64.873 224.539 65.5915 225.855 67.0284C227.186 68.4501 227.852 70.5072 227.852 73.1994ZM216.032 73.1994C216.032 75.0144 216.372 76.3833 217.053 77.3059C217.748 78.2134 218.777 78.6671 220.138 78.6671C222.876 78.6671 224.245 76.8446 224.245 73.1994C224.245 69.5543 222.883 67.7317 220.161 67.7317C218.799 67.7317 217.771 68.193 217.075 69.1156C216.379 70.0231 216.032 71.3844 216.032 73.1994Z" fill="#FC981A"/>
<path d="M234.633 72.3146H235.745C236.834 72.3146 237.635 72.1331 238.15 71.7701C238.664 71.4071 238.921 70.8399 238.921 70.0685C238.921 69.2971 238.656 68.7526 238.127 68.435C237.598 68.1023 236.781 67.9359 235.677 67.9359H234.633V72.3146ZM234.633 75.1052V81.3216H231.207V65.1226H235.926C238.119 65.1226 239.745 65.5234 240.804 66.3251C241.863 67.1267 242.392 68.3443 242.392 69.9778C242.392 70.9307 242.128 71.7777 241.598 72.5188C241.084 73.2599 240.343 73.8422 239.375 74.2657C241.81 77.9109 243.398 80.2628 244.139 81.3216H240.328L236.471 75.1052H234.633Z" fill="#FC981A"/>
<path d="M255.509 81.3216H246.185V65.1226H255.509V67.9359H249.611V71.4978H255.101V74.3111H249.611V78.4856H255.509V81.3216Z" fill="#FC981A"/>
<defs>
<linearGradient id="paint0_linear_1222_2969" x1="37.0377" y1="70.7348" x2="37.0377" y2="-42.4242" gradientUnits="userSpaceOnUse">
<stop stop-color="#F46B15"/>
<stop offset="1" stop-color="#FCD000"/>
</linearGradient>
<linearGradient id="paint1_linear_1222_2969" x1="14.8911" y1="98.0028" x2="14.8911" y2="14.8602" gradientUnits="userSpaceOnUse">
<stop stop-color="#F46B15"/>
<stop offset="1" stop-color="#FCD000"/>
</linearGradient>
<linearGradient id="paint2_linear_1222_2969" x1="12.4903" y1="30.7365" x2="12.4903" y2="18.6576" gradientUnits="userSpaceOnUse">
<stop stop-color="#FABD04"/>
<stop offset="1" stop-color="white"/>
</linearGradient>
<linearGradient id="paint3_linear_1222_2969" x1="21.2342" y1="8.46083" x2="21.2342" y2="-1.66516" gradientUnits="userSpaceOnUse">
<stop stop-color="#FCD000"/>
<stop offset="1" stop-color="#FDFDFD"/>
</linearGradient>
<linearGradient id="paint4_linear_1222_2969" x1="29.7499" y1="87.2984" x2="29.7499" y2="-1.05198" gradientUnits="userSpaceOnUse">
<stop stop-color="#F46B15"/>
<stop offset="1" stop-color="#FCD000"/>
</linearGradient>
<linearGradient id="paint5_linear_1222_2969" x1="72.332" y1="81.4374" x2="51.4727" y2="8.58282" gradientUnits="userSpaceOnUse">
<stop stop-color="#3FA025"/>
<stop offset="1" stop-color="#E2DE02"/>
</linearGradient>
<linearGradient id="paint6_linear_1222_2969" x1="77.1107" y1="80.0453" x2="60.9234" y2="23.7146" gradientUnits="userSpaceOnUse">
<stop stop-color="#3FA025"/>
<stop offset="1" stop-color="#E2DE02"/>
</linearGradient>
<clipPath id="clip0_1222_2969">
<rect width="96.4625" height="89.9594" fill="white"/>
</clipPath>
<clipPath id="clip1_1222_2969">
<rect width="222.15" height="52.9379" fill="white" transform="translate(110.553 7.58691)"/>
</clipPath>
</defs>
</svg>
