<svg width="267" height="73" viewBox="0 0 267 73" fill="none" xmlns="http://www.w3.org/2000/svg">
<g clip-path="url(#clip0_1222_193)">
<mask id="mask0_1222_193" style="mask-type:luminance" maskUnits="userSpaceOnUse" x="0" y="0" width="60" height="67">
<path d="M7.03405 17.6117H57.0277H57.0328C48.0507 19.45 40.009 24.5244 34.415 31.7023H7.03405C3.16786 31.7013 0 28.5315 0 24.657C0 20.7815 3.16579 17.6117 7.03405 17.6117ZM9.18286 35.2224H31.9734C29.3984 39.4222 27.5993 44.1765 26.812 49.313H9.18286C5.3177 49.313 2.15191 46.1422 2.15191 42.2677C2.15191 38.3933 5.3146 35.2224 9.18286 35.2224ZM19.4955 52.8341H26.4364L26.4137 53.1709C26.1416 57.8308 26.752 62.4814 28.2035 66.9248H19.4944C15.6262 66.9248 12.4635 63.7539 12.4635 59.8805C12.4645 56.005 15.6262 52.8341 19.4955 52.8341ZM57.3329 14.0906C58.4305 14.0906 59.3203 13.1995 59.3203 12.1011C59.3203 11.0027 58.4305 10.1115 57.3329 10.1115C56.2373 10.1115 55.3475 11.0027 55.3475 12.1011C55.3475 13.1995 56.2373 14.0906 57.3329 14.0906ZM8.29106 57.9251C9.69704 57.9251 10.833 56.7853 10.833 55.3791C10.833 53.974 9.69808 52.8331 8.29106 52.8331C6.89025 52.8331 5.75325 53.973 5.75325 55.3791C5.75222 56.7853 6.89025 57.9251 8.29106 57.9251ZM17.1915 0H46.8744C50.7426 0 53.9053 3.17086 53.9053 7.04531C53.9053 10.9198 50.7426 14.0906 46.8744 14.0906H17.1915C13.3232 14.0906 10.1605 10.9198 10.1605 7.04531C10.1605 3.17086 13.3232 0 17.1915 0Z" fill="white"/>
</mask>
<g mask="url(#mask0_1222_193)">
<path d="M59.3203 0H0V66.9248H59.3203V0Z" fill="url(#paint0_linear_1222_193)"/>
</g>
<mask id="mask1_1222_193" style="mask-type:luminance" maskUnits="userSpaceOnUse" x="1" y="1" width="22" height="30">
<path d="M18.5922 19.0263H7.03397C3.94474 19.0263 1.41211 21.563 1.41211 24.6571C1.41211 27.7513 3.94578 30.288 7.03397 30.288H15.6147C16.8065 28.3565 18.5912 27.9627 18.5912 25.7773V19.0263H18.5922ZM17.1914 12.6763H18.5239C18.5188 10.9893 18.6543 9.43081 19.3733 8.18215C20.562 6.11799 22.4377 5.76256 22.4377 3.5212V1.41455H17.1914C14.1022 1.41455 11.5695 3.95124 11.5695 7.04541C11.5685 10.1396 14.1022 12.6763 17.1914 12.6763Z" fill="white"/>
</mask>
<g mask="url(#mask1_1222_193)">
<path d="M22.4377 1.41455H1.41211V30.288H22.4377V1.41455Z" fill="url(#paint1_linear_1222_193)"/>
</g>
<mask id="mask2_1222_193" style="mask-type:luminance" maskUnits="userSpaceOnUse" x="2" y="20" width="16" height="5">
<path d="M17.3659 20.2532H7.03365C4.61896 20.2532 2.63672 22.2396 2.63672 24.6571H17.3649V20.2532H17.3659Z" fill="white"/>
</mask>
<g mask="url(#mask2_1222_193)">
<path d="M17.3668 20.2532H2.63867V24.6571H17.3668V20.2532Z" fill="url(#paint2_linear_1222_193)"/>
</g>
<mask id="mask3_1222_193" style="mask-type:luminance" maskUnits="userSpaceOnUse" x="12" y="2" width="10" height="6">
<path d="M18.6485 7.04527C18.9982 6.54062 19.4048 6.10023 19.86 5.65879C20.2066 5.32202 20.6473 4.94276 20.9184 4.54485C21.1387 4.22051 21.2153 3.90964 21.2153 3.52106V2.64233H17.1919C14.7803 2.64233 12.7949 4.62878 12.7949 7.0463H18.6485V7.04527Z" fill="white"/>
</mask>
<g mask="url(#mask3_1222_193)">
<path d="M21.2153 2.64233H12.7949V7.0463H21.2153V2.64233Z" fill="url(#paint3_linear_1222_193)"/>
</g>
<mask id="mask4_1222_193" style="mask-type:luminance" maskUnits="userSpaceOnUse" x="15" y="1" width="18" height="30">
<path d="M25.8316 19.0263H18.5917V25.7773C18.5917 27.9637 16.8071 28.3565 15.6152 30.288H26.6758C26.6758 30.288 26.6758 30.287 26.6738 30.2849C25.4871 28.2218 25.8937 25.3048 25.8937 22.3733C25.8937 22.1474 25.8937 21.9692 25.8937 21.8334C25.8937 20.8863 25.8492 19.9402 25.8316 19.0263ZM18.5245 12.6763H27.9556C29.6326 11.5748 32.0339 10.9592 32.0339 9.25879V1.41455H22.4393V3.52224C22.4393 5.7636 20.5636 6.11799 19.3749 8.18319C18.6548 9.43081 18.5182 10.9893 18.5245 12.6763Z" fill="white"/>
</mask>
<g mask="url(#mask4_1222_193)">
<path d="M32.0348 1.41455H15.6172V30.288H32.0348V1.41455Z" fill="url(#paint4_linear_1222_193)"/>
</g>
<mask id="mask5_1222_193" style="mask-type:luminance" maskUnits="userSpaceOnUse" x="29" y="20" width="49" height="53">
<path d="M77.2484 22.5256C63.5424 17.1724 47.9555 20.9899 38.2616 32.0734C28.5656 43.1579 26.8368 59.1355 33.9412 72.0407C35.5458 58.6795 41.1842 46.1288 50.1012 36.0628C42.5478 45.7661 38.185 57.5791 37.615 69.8687C46.2981 65.5756 52.9897 70.6501 60.9611 61.7685C71.8696 49.6157 56.8187 33.7987 77.2484 22.5256Z" fill="white"/>
</mask>
<g mask="url(#mask5_1222_193)">
<path d="M77.2475 17.1714H26.8359V72.0407H77.2475V17.1714Z" fill="url(#paint5_linear_1222_193)"/>
</g>
<mask id="mask6_1222_193" style="mask-type:luminance" maskUnits="userSpaceOnUse" x="29" y="20" width="49" height="34">
<path d="M77.2484 22.5256C63.5424 17.1724 47.9555 20.9899 38.2616 32.0734C33.0153 38.07 30.104 45.4987 29.6602 53.0984C31.033 43.5869 36.4821 35.151 44.587 29.9988C52.6908 24.8426 62.6382 23.4934 71.821 26.3005H71.8241C73.2756 24.997 75.0572 23.7348 77.2484 22.5256Z" fill="white"/>
</mask>
<g mask="url(#mask6_1222_193)">
<path d="M77.2484 17.1714H29.6602V53.0984H77.2484V17.1714Z" fill="url(#paint6_linear_1222_193)"/>
</g>
</g>
<g clip-path="url(#clip1_1222_193)">
<path fill-rule="evenodd" clip-rule="evenodd" d="M266.432 6.91057C263.406 6.89542 260.383 6.8844 257.358 6.86924C256.041 9.47172 254.734 12.0356 253.426 14.5582C252.135 17.0587 250.811 19.5111 249.513 21.9441C248.196 19.3375 246.884 16.7667 245.581 14.2317C244.29 11.727 242.967 9.25267 241.666 6.81689C238.376 6.80173 235.083 6.79485 231.812 6.77969C233.91 10.5394 236.025 14.3722 238.111 18.2821C240.222 22.2499 242.307 26.31 244.407 30.439C244.407 32.6805 244.407 34.9207 244.407 37.1622C244.407 39.4037 244.407 41.6439 244.407 43.8854C247.521 44.4875 250.633 45.0964 253.764 45.6985C253.764 43.3825 253.764 41.0583 253.764 38.7411C253.764 36.4169 253.764 34.0968 253.764 31.7699C255.863 27.8517 258.001 23.866 260.08 19.7673C262.2 15.5929 264.314 11.2986 266.432 6.91057ZM213.863 32.4463C213.863 30.439 213.863 28.4386 213.863 26.4299C218.755 26.7454 223.648 27.0912 228.54 27.4907C228.54 25.0549 228.54 22.6136 228.54 20.1737C223.648 19.9106 218.755 19.6846 213.863 19.4739C213.863 17.6236 213.863 15.7816 213.863 13.9314C219.412 14.0664 224.964 14.2289 230.531 14.4053C230.531 11.8634 230.531 9.32155 230.531 6.77969C221.884 6.75765 213.238 6.73836 204.611 6.72734C204.611 12.0742 204.611 17.4293 204.611 22.7762C204.611 28.1313 204.611 33.4782 204.611 38.832C213.453 39.5911 222.295 40.5431 231.136 41.7431C231.136 39.2012 231.136 36.6511 231.136 34.1023C225.372 33.492 219.608 32.9271 213.863 32.4463ZM188.831 6.70392C188.831 9.47861 188.831 12.2533 188.831 15.0294C188.831 17.8055 188.831 20.5719 188.831 23.348C186.394 20.5498 183.939 17.7683 181.519 14.9881C179.101 12.2175 176.662 9.4607 174.243 6.70392C171.663 6.70392 169.102 6.70392 166.541 6.70392C166.541 11.9006 166.541 17.0973 166.541 22.294C166.541 27.4838 166.541 32.6833 166.541 37.8772C169.582 37.84 172.641 37.7987 175.702 37.7574C175.702 35.0047 175.702 32.2452 175.702 29.4843C175.702 26.7316 175.702 23.9721 175.702 21.2111C178.122 23.9638 180.563 26.7454 182.978 29.5366C185.4 32.3347 187.854 35.1466 190.289 38.0122C192.851 38.1252 195.416 38.2533 197.994 38.3732C197.994 33.1007 197.994 27.8227 197.994 22.542C197.994 17.2709 197.994 11.9915 197.994 6.71494C194.932 6.71218 191.874 6.70392 188.831 6.70392ZM143.253 32.2962C140.745 32.4808 138.499 31.7616 136.901 30.2351C135.298 28.7003 134.322 26.3693 134.322 23.4733C134.322 20.5857 135.294 18.1568 136.901 16.4415C138.496 14.7428 140.745 13.7536 143.253 13.6971C145.76 13.6448 147.983 14.5238 149.587 16.0888C151.186 17.6456 152.183 19.8982 152.183 22.6467C152.183 25.4062 151.186 27.7304 149.587 29.4071C147.983 31.0934 145.76 32.1088 143.253 32.2962ZM143.253 39.9135C148.528 39.4175 153.122 37.3757 156.398 34.28C159.631 31.2229 161.63 27.1022 161.63 22.3905C161.63 17.6897 159.649 13.6365 156.398 10.7378C153.14 7.83639 148.537 6.07568 143.253 6.07568C137.971 6.07568 133.344 7.90803 130.106 11.096C126.832 14.3226 124.892 18.9104 124.892 24.1029C124.892 29.3107 126.838 33.6311 130.106 36.4017C133.346 39.1475 137.964 40.4108 143.253 39.9135ZM110.626 6.81689C110.626 9.13281 110.626 11.4418 110.626 13.7509C110.626 16.064 110.626 18.3758 110.626 20.6849C106.374 21.0155 102.124 21.3434 97.8717 21.6933C97.8717 19.219 97.8717 16.7529 97.8717 14.2785C97.8717 11.8111 97.8717 9.34084 97.8717 6.87062C94.7582 6.8844 91.6447 6.89542 88.5312 6.91057C88.5312 13.8404 88.5312 20.7675 88.5312 27.6932C88.5312 34.6162 88.5312 41.5461 88.5312 48.469C91.6447 47.7581 94.7582 47.0445 97.8717 46.3226C97.8717 43.7586 97.8717 41.1934 97.8717 38.6295C97.8717 36.0655 97.8717 33.5003 97.8717 30.9364C102.124 30.3798 106.376 29.8604 110.626 29.341C110.626 31.7396 110.626 34.1395 110.626 36.5381C110.626 38.9367 110.626 41.3353 110.626 43.7352C113.739 43.2089 116.853 42.6978 119.966 42.1715C119.966 36.275 119.966 30.3798 119.966 24.4832C119.966 18.5866 119.966 12.6914 119.966 6.78796C116.853 6.79347 113.739 6.80862 110.626 6.81689Z" fill="#593A1B"/>
</g>
<path d="M157.812 61.5258C157.812 62.6886 157.388 63.6091 156.54 64.2874C155.704 64.9657 154.535 65.3048 153.033 65.3048C151.653 65.3048 150.429 65.0444 149.363 64.5236V61.9618C150.235 62.3494 150.974 62.628 151.58 62.7976C152.185 62.955 152.743 63.0338 153.251 63.0338C153.857 63.0338 154.317 62.9187 154.632 62.6886C154.959 62.4584 155.123 62.1132 155.123 61.6529C155.123 61.3986 155.05 61.1745 154.905 60.9807C154.759 60.7748 154.547 60.581 154.269 60.3993C154.002 60.2176 153.445 59.9269 152.597 59.5272C151.81 59.1517 151.216 58.7944 150.817 58.4553C150.417 58.104 150.096 57.7043 149.854 57.2562C149.624 56.7959 149.509 56.2629 149.509 55.6573C149.509 54.5066 149.896 53.6043 150.671 52.9502C151.459 52.2961 152.537 51.9691 153.905 51.9691C154.584 51.9691 155.226 52.0478 155.831 52.2053C156.449 52.3627 157.091 52.5868 157.757 52.8775L156.867 55.0214C156.176 54.7307 155.601 54.5309 155.141 54.4219C154.693 54.3128 154.251 54.2583 153.815 54.2583C153.294 54.2583 152.894 54.3795 152.615 54.6217C152.337 54.864 152.198 55.1789 152.198 55.5665C152.198 55.8087 152.252 56.0207 152.361 56.2024C152.482 56.3841 152.664 56.5597 152.906 56.7293C153.148 56.8988 153.73 57.2016 154.65 57.6377C155.862 58.2191 156.691 58.8005 157.139 59.3819C157.588 59.9633 157.812 60.6779 157.812 61.5258Z" fill="#FC981A"/>
<path d="M165.166 65.1231H162.423V54.44H158.898V52.1508H168.691V54.44H165.166V65.1231Z" fill="#FC981A"/>
<path d="M182.464 58.6188C182.464 60.7627 181.931 62.416 180.865 63.5788C179.8 64.7295 178.273 65.3048 176.287 65.3048C174.301 65.3048 172.774 64.7295 171.708 63.5788C170.643 62.416 170.11 60.7566 170.11 58.6006C170.11 56.4446 170.643 54.7973 171.708 53.6588C172.774 52.5202 174.307 51.9509 176.305 51.9509C178.292 51.9509 179.812 52.5263 180.865 53.6769C181.931 54.8155 182.464 56.4628 182.464 58.6188ZM172.998 58.6188C172.998 60.0723 173.271 61.1685 173.816 61.9073C174.373 62.634 175.197 62.9974 176.287 62.9974C178.479 62.9974 179.575 61.5379 179.575 58.6188C179.575 55.6997 178.485 54.2402 176.305 54.2402C175.215 54.2402 174.391 54.6096 173.834 55.3485C173.277 56.0752 172.998 57.1653 172.998 58.6188Z" fill="#FC981A"/>
<path d="M187.895 57.9102H188.785C189.657 57.9102 190.299 57.7649 190.711 57.4742C191.123 57.1835 191.329 56.7293 191.329 56.1115C191.329 55.4938 191.117 55.0578 190.693 54.8034C190.269 54.5369 189.615 54.4037 188.731 54.4037H187.895V57.9102ZM187.895 60.145V65.1231H185.151V52.1508H188.93C190.687 52.1508 191.989 52.4718 192.837 53.1137C193.685 53.7557 194.109 54.7307 194.109 56.0389C194.109 56.8019 193.897 57.4802 193.473 58.0737C193.061 58.6672 192.467 59.1336 191.692 59.4727C193.642 62.3918 194.914 64.2753 195.507 65.1231H192.455L189.367 60.145H187.895Z" fill="#FC981A"/>
<path d="M204.613 65.1231H197.145V52.1508H204.613V54.4037H199.889V57.2562H204.286V59.5091H199.889V62.8521H204.613V65.1231Z" fill="#FC981A"/>
<defs>
<linearGradient id="paint0_linear_1222_193" x1="29.6603" y1="56.6453" x2="29.6603" y2="-33.9738" gradientUnits="userSpaceOnUse">
<stop stop-color="#F46B15"/>
<stop offset="1" stop-color="#FCD000"/>
</linearGradient>
<linearGradient id="paint1_linear_1222_193" x1="11.9247" y1="78.4821" x2="11.9247" y2="11.9005" gradientUnits="userSpaceOnUse">
<stop stop-color="#F46B15"/>
<stop offset="1" stop-color="#FCD000"/>
</linearGradient>
<linearGradient id="paint2_linear_1222_193" x1="10.0024" y1="24.6144" x2="10.0024" y2="14.9415" gradientUnits="userSpaceOnUse">
<stop stop-color="#FABD04"/>
<stop offset="1" stop-color="white"/>
</linearGradient>
<linearGradient id="paint3_linear_1222_193" x1="17.0053" y1="6.77535" x2="17.0053" y2="-1.33367" gradientUnits="userSpaceOnUse">
<stop stop-color="#FCD000"/>
<stop offset="1" stop-color="#FDFDFD"/>
</linearGradient>
<linearGradient id="paint4_linear_1222_193" x1="23.8254" y1="69.9099" x2="23.8254" y2="-0.842217" gradientUnits="userSpaceOnUse">
<stop stop-color="#F46B15"/>
<stop offset="1" stop-color="#FCD000"/>
</linearGradient>
<linearGradient id="paint5_linear_1222_193" x1="57.9237" y1="65.2161" x2="41.2193" y2="6.87328" gradientUnits="userSpaceOnUse">
<stop stop-color="#3FA025"/>
<stop offset="1" stop-color="#E2DE02"/>
</linearGradient>
<linearGradient id="paint6_linear_1222_193" x1="61.7516" y1="64.1014" x2="48.7886" y2="18.991" gradientUnits="userSpaceOnUse">
<stop stop-color="#3FA025"/>
<stop offset="1" stop-color="#E2DE02"/>
</linearGradient>
<clipPath id="clip0_1222_193">
<rect width="77.2484" height="72.0406" fill="white"/>
</clipPath>
<clipPath id="clip1_1222_193">
<rect width="177.901" height="42.3933" fill="white" transform="translate(88.5312 6.07568)"/>
</clipPath>
</defs>
</svg>
