<svg width="78" height="78" viewBox="0 0 78 78" fill="none" xmlns="http://www.w3.org/2000/svg">
<path d="M45.6713 5.64478H32.3292C19.3976 5.64478 8.98047 16.0619 8.98047 28.9935V39C8.98047 48.0316 14.1634 56.2421 22.3226 60.0908V71.2777C22.3226 71.8421 22.8357 72.3553 23.5028 72.3553C23.7594 72.3553 24.0673 72.2527 24.2726 72.0474L33.9199 62.3487H45.6713C58.6028 62.3487 69.0199 51.9316 69.0199 39V28.9935C69.0199 16.0619 58.6028 5.64478 45.6713 5.64478ZM54.4463 49.4171L51.1107 52.7527C47.5186 56.2421 38.2818 52.2395 30.1226 43.9264C21.9634 35.6132 18.3199 26.2224 21.7581 22.7329L25.0936 19.3974C26.4278 18.1658 28.5318 18.2171 29.866 19.5L34.6897 24.529C35.9213 25.8632 35.9213 27.8645 34.587 29.1987C34.2278 29.5579 33.8173 29.7632 33.3555 29.9685C31.662 30.4816 30.7897 32.1237 31.2002 33.8171C32.0213 37.5119 36.691 42.1303 40.2318 43.054C41.8739 43.4645 43.5673 42.5408 44.1318 40.95C44.6963 39.3079 46.5436 38.3843 48.2884 38.9487C48.8015 39.1027 49.212 39.4619 49.6226 39.7698L54.4463 44.7987C55.6778 46.0303 55.6778 48.0829 54.4463 49.4171ZM41.9765 21.5014C41.6173 21.5014 41.3094 21.5014 41.0015 21.604C40.437 21.7066 39.8213 21.2448 39.7699 20.5777C39.7186 19.9106 40.1292 19.3974 40.7449 19.3461C41.1555 19.2435 41.566 19.2435 41.9765 19.2435C48.1344 19.2435 53.0607 24.2724 53.1634 30.3277C53.1634 30.7382 53.1634 31.1487 53.0607 31.5592C52.9581 32.1237 52.4963 32.6369 51.8292 32.5343C51.162 32.4316 50.7515 31.9698 50.8542 31.3027C50.8542 30.9435 50.9568 30.6356 50.9568 30.3277C50.9055 25.504 46.9028 21.5014 41.9765 21.5014ZM48.6476 30.4303C48.5449 30.9948 48.0831 31.5079 47.416 31.4053C46.9028 31.3027 46.441 30.8921 46.441 30.4303C46.441 28.0185 44.4397 26.0171 42.0278 26.0171C41.4634 26.1198 40.8476 25.6066 40.7963 24.9908C40.6936 24.4264 41.2068 23.8106 41.7713 23.7592H41.9252C45.7739 23.7592 48.6476 26.7356 48.6476 30.4303ZM57.166 33.9711C57.0634 34.5356 56.4989 34.9461 55.9344 34.8948C55.3699 34.8435 54.9594 34.2277 55.0107 33.6632C55.0107 33.5606 55.0107 33.5606 55.0107 33.5093C55.2673 32.5343 55.3699 31.5079 55.3699 30.4303C55.3699 23.0921 49.366 17.0882 42.0278 17.0882C41.6686 17.0882 41.3607 17.0882 41.0528 17.0882C40.4884 17.1908 39.8726 16.6777 39.8726 16.0619C39.7699 15.4974 40.2831 14.8816 40.8476 14.8816C41.2581 14.8816 41.6686 14.779 42.0278 14.779C50.5976 14.779 57.6278 21.7579 57.6278 30.379C57.5765 31.5592 57.4226 32.8421 57.166 33.9711Z" fill="#24703E"/>
</svg>
