<svg width="56" height="48" viewBox="0 0 56 48" fill="none" xmlns="http://www.w3.org/2000/svg">
<path d="M11.6667 47.5999C13.9741 47.5999 16.2297 46.9157 18.1483 45.6337C20.0669 44.3518 21.5622 42.5297 22.4453 40.3979C23.3283 38.2661 23.5593 35.9203 23.1092 33.6572C22.659 31.3941 21.5479 29.3153 19.9162 27.6837C18.2846 26.0521 16.2058 24.9409 13.9427 24.4908C11.6796 24.0406 9.33383 24.2717 7.20203 25.1547C5.07022 26.0377 3.24814 27.533 1.96619 29.4516C0.684238 31.3702 0 33.6258 0 35.9333C0.00348932 39.0264 1.23377 41.9918 3.42094 44.179C5.60811 46.3662 8.57354 47.5964 11.6667 47.5999ZM11.6667 27.9999C13.2357 27.9999 14.7696 28.4652 16.0742 29.3369C17.3788 30.2087 18.3957 31.4477 18.9961 32.8973C19.5966 34.3469 19.7537 35.9421 19.4476 37.481C19.1415 39.0199 18.3859 40.4335 17.2764 41.543C16.1669 42.6525 14.7533 43.4081 13.2144 43.7142C11.6755 44.0203 10.0803 43.8632 8.63071 43.2627C7.18108 42.6623 5.94207 41.6454 5.07034 40.3408C4.19862 39.0362 3.73333 37.5023 3.73333 35.9333C3.73571 33.83 4.57231 31.8135 6.05958 30.3262C7.54685 28.8389 9.56334 28.0023 11.6667 27.9999ZM32.6667 35.9333C32.6667 38.2407 33.3509 40.4964 34.6329 42.4149C35.9148 44.3335 37.7369 45.8288 39.8687 46.7119C42.0005 47.5949 44.3463 47.8259 46.6094 47.3758C48.8725 46.9256 50.9513 45.8145 52.5829 44.1828C54.2145 42.5512 55.3257 40.4724 55.7758 38.2093C56.226 35.9462 55.9949 33.6004 55.1119 31.4686C54.2289 29.3368 52.7336 27.5147 50.815 26.2328C48.8964 24.9508 46.6408 24.2666 44.3333 24.2666C41.2402 24.2701 38.2748 25.5004 36.0876 27.6875C33.9004 29.8747 32.6702 32.8401 32.6667 35.9333ZM44.3333 27.9999C45.9024 27.9999 47.4362 28.4652 48.7409 29.3369C50.0455 30.2087 51.0623 31.4477 51.6628 32.8973C52.2632 34.3469 52.4203 35.9421 52.1142 37.481C51.8081 39.0199 51.0525 40.4335 49.943 41.543C48.8335 42.6525 47.42 43.4081 45.881 43.7142C44.3421 44.0203 42.747 43.8632 41.2974 43.2627C39.8478 42.6623 38.6087 41.6454 37.737 40.3408C36.8653 39.0362 36.4 37.5023 36.4 35.9333C36.4024 33.83 37.239 31.8135 38.7262 30.3262C40.2135 28.8389 42.23 28.0023 44.3333 27.9999Z" fill="white"/>
<path d="M35.223 7.95387C37.4194 7.95387 39.2 6.17333 39.2 3.97693C39.2 1.78053 37.4194 0 35.223 0C33.0266 0 31.2461 1.78053 31.2461 3.97693C31.2461 6.17333 33.0266 7.95387 35.223 7.95387Z" fill="white"/>
<path d="M20.4112 24.0683L26.1332 29.7138V40.1333H29.8665V29.3235C29.8656 28.9528 29.7914 28.586 29.6484 28.2439C29.5054 27.9019 29.2963 27.5915 29.0331 27.3304L23.0511 21.4285L30.804 13.6756L37.5899 20.6232C37.8512 20.8895 38.1629 21.1012 38.5068 21.2459C38.8506 21.3907 39.2198 21.4657 39.5929 21.4666H42.9332V17.7333H39.986L29.1958 6.68636L29.1404 6.7405L28.1604 5.7605L15.0938 18.8272L20.3734 24.1068L20.4112 24.0683Z" fill="white"/>
</svg>
