<svg width="64" height="50" viewBox="0 0 64 50" fill="none" xmlns="http://www.w3.org/2000/svg">
<path d="M53.531 14.5762C50.3043 6.05875 42.0827 0 32.4521 0C22.8215 0 14.6 6.0517 11.3733 14.5692C5.30753 16.1684 0.840958 21.7129 0.876183 28.293C0.918454 35.648 6.62495 41.6293 13.8109 42.2704C14.142 42.2985 14.4238 42.0379 14.4238 41.7067V37.4515C14.4238 37.1697 14.2125 36.9302 13.9307 36.895C12.0285 36.6554 10.232 35.8241 8.85119 34.4644C7.16038 32.8088 6.23043 30.5826 6.23043 28.2225C6.23043 26.2499 6.87153 24.39 8.07623 22.8401C9.25276 21.3324 10.9083 20.2405 12.733 19.7614L15.4031 19.0569L16.3824 16.4713C16.9882 14.8651 17.8336 13.3574 18.8974 11.9977C19.9472 10.6451 21.1941 9.46151 22.5891 8.47521C25.4846 6.43918 28.8944 5.36129 32.4521 5.36129C36.0099 5.36129 39.4197 6.43918 42.3152 8.48225C43.7172 9.46856 44.9571 10.6521 46.0068 12.0048C47.0706 13.3645 47.916 14.8721 48.5219 16.4784L49.4941 19.0569L52.1572 19.7614C55.9756 20.7759 58.6457 24.2491 58.6457 28.2155C58.6457 30.5826 57.7157 32.8018 56.0249 34.4574C54.6511 35.81 52.8617 36.6484 50.9595 36.8879C50.6777 36.9232 50.4734 37.1627 50.4734 37.4445V41.7067C50.4734 42.0379 50.7622 42.2985 51.0934 42.2704C58.2582 41.6222 63.9506 35.648 63.9999 28.307C64.0422 21.727 59.5827 16.1825 53.531 14.5762Z" fill="white"/>
<path d="M22.9201 34.8306C23.0469 32.4705 24.0262 30.2725 25.7029 28.5887C27.4924 26.7922 29.9299 25.7848 32.4662 25.7848C35.0165 25.7848 37.4188 26.7781 39.2294 28.5887C39.3281 28.6873 39.4196 28.7859 39.5183 28.8916L37.757 30.2725C37.6731 30.3374 37.6092 30.4247 37.5727 30.5243C37.5362 30.6239 37.5285 30.7318 37.5506 30.8355C37.5727 30.9393 37.6236 31.0347 37.6975 31.1108C37.7714 31.187 37.8653 31.2407 37.9684 31.2658L44.8866 32.9566C45.2389 33.0412 45.5841 32.7734 45.5841 32.4142L45.6193 25.2775C45.6193 24.8055 45.0839 24.5378 44.7105 24.8337L43.076 26.1159C40.4975 23.1569 36.7073 21.283 32.4732 21.283C24.9068 21.283 18.7353 27.2783 18.4254 34.7883C18.4113 35.1054 18.6649 35.3731 18.989 35.3731H22.3636C22.6594 35.366 22.906 35.1335 22.9201 34.8306ZM45.894 35.366H42.5195C42.2236 35.366 41.977 35.5985 41.9559 35.9015C41.829 38.2615 40.8498 40.4596 39.1731 42.1434C37.3836 43.9399 34.946 44.9473 32.4098 44.9473C29.8595 44.9473 27.4571 43.954 25.6466 42.1434C25.5479 42.0447 25.4563 41.9461 25.3577 41.8404L27.119 40.4596C27.2029 40.3947 27.2668 40.3074 27.3033 40.2078C27.3398 40.1082 27.3475 40.0003 27.3254 39.8965C27.3033 39.7928 27.2524 39.6973 27.1785 39.6212C27.1046 39.5451 27.0107 39.4914 26.9076 39.4663L19.9894 37.7754C19.6371 37.6909 19.2919 37.9586 19.2919 38.3179L19.2637 45.4616C19.2637 45.9336 19.7992 46.2013 20.1725 45.9054L21.807 44.6232C24.3855 47.5822 28.1757 49.4562 32.4098 49.4562C39.9762 49.4562 46.1477 43.4608 46.4577 35.9508C46.4717 35.6337 46.2181 35.366 45.894 35.366Z" fill="white"/>
</svg>
