<svg width="226" height="56" viewBox="0 0 226 56" fill="none" xmlns="http://www.w3.org/2000/svg">
<path d="M35.5208 12.6042C38.0417 12.6042 40.1042 10.5417 40.1042 8.02083C40.1042 5.5 38.0417 3.4375 35.5208 3.4375C33 3.4375 30.9375 5.5 30.9375 8.02083C30.9375 10.5417 33 12.6042 35.5208 12.6042ZM11.4583 50.4167C17.875 50.4167 22.9167 45.375 22.9167 38.9583C22.9167 32.5417 17.875 27.5 11.4583 27.5C5.04167 27.5 0 32.5417 0 38.9583C0 45.375 5.04167 50.4167 11.4583 50.4167ZM11.4583 30.9375C15.8125 30.9375 19.4792 34.6042 19.4792 38.9583C19.4792 43.3125 15.8125 46.9792 11.4583 46.9792C7.10417 46.9792 3.4375 43.3125 3.4375 38.9583C3.4375 34.6042 7.10417 30.9375 11.4583 30.9375ZM17.875 25.6667L25.2083 32.0833V43.5417H29.7917V29.3333L24.75 24.0625L30.25 18.5625L32.0833 20.3958C35.0625 23.375 38.9583 25.2083 43.7708 25.2083V20.625C40.3333 20.625 37.5833 19.25 35.5208 17.1875L31.1667 12.8333C30.0208 11.9167 28.875 11.4583 27.5 11.4583C26.125 11.4583 24.9792 11.9167 24.2917 12.8333L17.875 19.25C16.9583 20.1667 16.5 21.3125 16.5 22.4583C16.5 23.8333 16.9583 24.9792 17.875 25.6667V25.6667ZM43.5417 27.5C37.125 27.5 32.0833 32.5417 32.0833 38.9583C32.0833 45.375 37.125 50.4167 43.5417 50.4167C49.9583 50.4167 55 45.375 55 38.9583C55 32.5417 49.9583 27.5 43.5417 27.5ZM43.5417 46.9792C39.1875 46.9792 35.5208 43.3125 35.5208 38.9583C35.5208 34.6042 39.1875 30.9375 43.5417 30.9375C47.8958 30.9375 51.5625 34.6042 51.5625 38.9583C51.5625 43.3125 47.8958 46.9792 43.5417 46.9792Z" fill="white"/>
<path d="M82.1089 28.8312C83.3705 29.1001 84.384 29.7309 85.1493 30.7237C85.9145 31.6958 86.2972 32.8127 86.2972 34.0743C86.2972 35.8944 85.656 37.3422 84.3737 38.4178C83.112 39.4726 81.3436 40 79.0685 40H68.9235V18.2209H78.7272C80.9403 18.2209 82.6673 18.7276 83.9083 19.7411C85.17 20.7545 85.8008 22.13 85.8008 23.8673C85.8008 25.1497 85.4595 26.2148 84.777 27.0628C84.1151 27.9108 83.2258 28.5003 82.1089 28.8312ZM74.2287 27.0318H77.7034C78.5721 27.0318 79.234 26.8457 79.689 26.4734C80.1647 26.0804 80.4025 25.5116 80.4025 24.767C80.4025 24.0224 80.1647 23.4537 79.689 23.0607C79.234 22.6677 78.5721 22.4712 77.7034 22.4712H74.2287V27.0318ZM78.1378 35.7186C79.0271 35.7186 79.7097 35.5221 80.1854 35.1292C80.6818 34.7155 80.93 34.126 80.93 33.3608C80.93 32.5955 80.6714 31.9957 80.1543 31.5614C79.658 31.127 78.9651 30.9099 78.0757 30.9099H74.2287V35.7186H78.1378ZM92.0423 20.889C91.1115 20.889 90.3463 20.6201 89.7465 20.0823C89.1673 19.5239 88.8778 18.8414 88.8778 18.0347C88.8778 17.2074 89.1673 16.5249 89.7465 15.9871C90.3463 15.4287 91.1115 15.1495 92.0423 15.1495C92.9523 15.1495 93.6969 15.4287 94.276 15.9871C94.8758 16.5249 95.1757 17.2074 95.1757 18.0347C95.1757 18.8414 94.8758 19.5239 94.276 20.0823C93.6969 20.6201 92.9523 20.889 92.0423 20.889ZM94.6793 22.6884V40H89.3742V22.6884H94.6793ZM109.103 40L103.829 32.7403V40H98.5239V17.042H103.829V29.7309L109.072 22.6884H115.618L108.421 31.3752L115.68 40H109.103ZM134.021 31.065C134.021 31.5614 133.99 32.0784 133.928 32.6162H121.921C122.004 33.6917 122.345 34.519 122.945 35.0981C123.566 35.6566 124.321 35.9358 125.21 35.9358C126.534 35.9358 127.454 35.3774 127.971 34.2605H133.618C133.328 35.398 132.801 36.4219 132.035 37.3319C131.291 38.242 130.35 38.9555 129.212 39.4726C128.075 39.9897 126.803 40.2482 125.396 40.2482C123.7 40.2482 122.19 39.8862 120.867 39.1623C119.543 38.4384 118.509 37.4043 117.764 36.0599C117.02 34.7155 116.647 33.1436 116.647 31.3442C116.647 29.5448 117.009 27.9729 117.733 26.6285C118.478 25.2841 119.512 24.25 120.836 23.526C122.159 22.8021 123.679 22.4402 125.396 22.4402C127.071 22.4402 128.561 22.7918 129.864 23.495C131.167 24.1982 132.18 25.2014 132.904 26.5044C133.649 27.8074 134.021 29.3276 134.021 31.065ZM128.592 29.6689C128.592 28.7588 128.281 28.0349 127.661 27.4972C127.04 26.9594 126.265 26.6905 125.334 26.6905C124.445 26.6905 123.69 26.9491 123.069 27.4661C122.47 27.9832 122.097 28.7175 121.952 29.6689H128.592Z" fill="white"/>
<path d="M151.274 40.2172C149.682 40.2172 148.255 39.9586 146.993 39.4416C145.731 38.9245 144.718 38.1592 143.953 37.1458C143.208 36.1323 142.815 34.912 142.774 33.4849H148.42C148.503 34.2915 148.782 34.912 149.258 35.3463C149.733 35.76 150.354 35.9668 151.119 35.9668C151.905 35.9668 152.526 35.791 152.981 35.4394C153.436 35.0671 153.663 34.5604 153.663 33.9192C153.663 33.3815 153.477 32.9368 153.105 32.5852C152.753 32.2336 152.309 31.944 151.771 31.7165C151.254 31.489 150.509 31.2304 149.537 30.9409C148.131 30.5065 146.983 30.0722 146.093 29.6379C145.204 29.2035 144.439 28.5623 143.797 27.7143C143.156 26.8663 142.836 25.7598 142.836 24.3947C142.836 22.3678 143.57 20.7856 145.038 19.648C146.507 18.4898 148.42 17.9106 150.778 17.9106C153.177 17.9106 155.111 18.4898 156.58 19.648C158.048 20.7856 158.834 22.3781 158.937 24.4258H153.198C153.157 23.7225 152.898 23.1744 152.422 22.7815C151.947 22.3678 151.336 22.161 150.592 22.161C149.951 22.161 149.434 22.3368 149.041 22.6884C148.648 23.0193 148.451 23.5054 148.451 24.1465C148.451 24.8498 148.782 25.3979 149.444 25.7908C150.106 26.1838 151.14 26.6078 152.546 27.0628C153.953 27.5385 155.09 27.9936 155.959 28.4279C156.848 28.8622 157.614 29.4931 158.255 30.3204C158.896 31.1477 159.217 32.2129 159.217 33.5159C159.217 34.7569 158.896 35.8841 158.255 36.8976C157.634 37.911 156.724 38.7177 155.525 39.3175C154.325 39.9173 152.908 40.2172 151.274 40.2172ZM172.13 35.5015V40H169.431C167.507 40 166.008 39.5346 164.932 38.6039C163.857 37.6525 163.319 36.1116 163.319 33.9813V27.0939H161.209V22.6884H163.319V18.4691H168.624V22.6884H172.099V27.0939H168.624V34.0433C168.624 34.5604 168.748 34.9327 168.997 35.1602C169.245 35.3877 169.658 35.5015 170.238 35.5015H172.13ZM182.965 40.2482C181.269 40.2482 179.739 39.8862 178.374 39.1623C177.029 38.4384 175.964 37.4043 175.178 36.0599C174.413 34.7155 174.03 33.1436 174.03 31.3442C174.03 29.5655 174.423 28.0039 175.209 26.6595C175.995 25.2944 177.071 24.25 178.436 23.526C179.801 22.8021 181.331 22.4402 183.027 22.4402C184.723 22.4402 186.254 22.8021 187.619 23.526C188.984 24.25 190.06 25.2944 190.845 26.6595C191.631 28.0039 192.024 29.5655 192.024 31.3442C192.024 33.1229 191.621 34.6948 190.814 36.0599C190.029 37.4043 188.943 38.4384 187.557 39.1623C186.192 39.8862 184.661 40.2482 182.965 40.2482ZM182.965 35.6566C183.979 35.6566 184.837 35.2843 185.54 34.5397C186.264 33.7951 186.626 32.73 186.626 31.3442C186.626 29.9584 186.275 28.8933 185.571 28.1487C184.889 27.4041 184.041 27.0318 183.027 27.0318C181.993 27.0318 181.135 27.4041 180.452 28.1487C179.77 28.8726 179.429 29.9378 179.429 31.3442C179.429 32.73 179.759 33.7951 180.421 34.5397C181.104 35.2843 181.952 35.6566 182.965 35.6566ZM200.144 25.5737C200.765 24.6222 201.54 23.8777 202.471 23.3399C203.402 22.7815 204.436 22.5022 205.573 22.5022V28.1177H204.115C202.791 28.1177 201.799 28.4072 201.137 28.9863C200.475 29.5448 200.144 30.5376 200.144 31.9647V40H194.839V22.6884H200.144V25.5737ZM224.428 31.065C224.428 31.5614 224.397 32.0784 224.335 32.6162H212.328C212.411 33.6917 212.752 34.519 213.352 35.0981C213.973 35.6566 214.728 35.9358 215.617 35.9358C216.941 35.9358 217.861 35.3774 218.378 34.2605H224.025C223.735 35.398 223.208 36.4219 222.442 37.3319C221.698 38.242 220.757 38.9555 219.619 39.4726C218.482 39.9897 217.21 40.2482 215.803 40.2482C214.107 40.2482 212.597 39.8862 211.274 39.1623C209.95 38.4384 208.916 37.4043 208.171 36.0599C207.427 34.7155 207.054 33.1436 207.054 31.3442C207.054 29.5448 207.416 27.9729 208.14 26.6285C208.885 25.2841 209.919 24.25 211.243 23.526C212.566 22.8021 214.086 22.4402 215.803 22.4402C217.478 22.4402 218.968 22.7918 220.271 23.495C221.574 24.1982 222.587 25.2014 223.311 26.5044C224.056 27.8074 224.428 29.3276 224.428 31.065ZM218.999 29.6689C218.999 28.7588 218.688 28.0349 218.068 27.4972C217.447 26.9594 216.672 26.6905 215.741 26.6905C214.852 26.6905 214.097 26.9491 213.476 27.4661C212.877 27.9832 212.504 28.7175 212.359 29.6689H218.999Z" fill="#E81E28"/>
</svg>
