<svg width="162" height="44" viewBox="0 0 162 44" fill="none" xmlns="http://www.w3.org/2000/svg">
<circle cx="8" cy="22" r="8" fill="#3BB77E"/>
<path d="M74.4395 9.6875V15.7656C74.4395 16.4635 74.4186 17.1406 74.377 17.7969C74.3457 18.4531 74.3197 18.9635 74.2988 19.3281H74.4395C74.9082 18.5573 75.5853 17.9062 76.4707 17.375C77.3561 16.8438 78.4863 16.5781 79.8613 16.5781C82.0072 16.5781 83.7155 17.3229 84.9863 18.8125C86.2676 20.2917 86.9082 22.4948 86.9082 25.4219C86.9082 27.349 86.6165 28.974 86.0332 30.2969C85.4499 31.6198 84.627 32.6198 83.5645 33.2969C82.502 33.974 81.2467 34.3125 79.7988 34.3125C78.4447 34.3125 77.3301 34.0625 76.4551 33.5625C75.5905 33.0521 74.9238 32.4323 74.4551 31.7031H74.252L73.7207 34H71.8457V9.6875H74.4395ZM79.4395 18.75C78.1999 18.75 77.2155 18.9948 76.4863 19.4844C75.7572 19.9635 75.2311 20.6927 74.9082 21.6719C74.5957 22.6406 74.4395 23.8698 74.4395 25.3594V25.5C74.4395 27.6562 74.7988 29.3073 75.5176 30.4531C76.2363 31.5885 77.5436 32.1562 79.4395 32.1562C81.0332 32.1562 82.2259 31.5729 83.0176 30.4062C83.8197 29.2396 84.2207 27.5729 84.2207 25.4062C84.2207 23.1979 83.8249 21.5365 83.0332 20.4219C82.252 19.3073 81.054 18.75 79.4395 18.75ZM108.299 34H105.158L96.9238 22.8906L94.4863 25.0781V34H91.8301V11.1562H94.4863V22.5469C95.0801 21.8698 95.6895 21.1979 96.3145 20.5312C96.9395 19.8542 97.5592 19.1719 98.1738 18.4844L104.846 11.1562H107.955L98.8613 21.0625L108.299 34ZM117.439 16.5938C119.481 16.5938 120.997 17.0521 121.986 17.9688C122.976 18.8854 123.471 20.349 123.471 22.3594V34H121.58L121.08 31.4688H120.955C120.476 32.0938 119.976 32.6198 119.455 33.0469C118.934 33.4635 118.33 33.7812 117.643 34C116.965 34.2083 116.132 34.3125 115.143 34.3125C114.101 34.3125 113.174 34.1302 112.361 33.7656C111.559 33.401 110.924 32.849 110.455 32.1094C109.997 31.3698 109.768 30.4323 109.768 29.2969C109.768 27.5885 110.445 26.276 111.799 25.3594C113.153 24.4427 115.215 23.9427 117.986 23.8594L120.939 23.7344V22.6875C120.939 21.2083 120.622 20.1719 119.986 19.5781C119.351 18.9844 118.455 18.6875 117.299 18.6875C116.403 18.6875 115.549 18.8177 114.736 19.0781C113.924 19.3385 113.153 19.6458 112.424 20L111.627 18.0312C112.398 17.6354 113.283 17.2969 114.283 17.0156C115.283 16.7344 116.335 16.5938 117.439 16.5938ZM120.908 25.5625L118.299 25.6719C116.163 25.7552 114.658 26.1042 113.783 26.7188C112.908 27.3333 112.471 28.2031 112.471 29.3281C112.471 30.3073 112.768 31.0312 113.361 31.5C113.955 31.9688 114.742 32.2031 115.721 32.2031C117.242 32.2031 118.486 31.7812 119.455 30.9375C120.424 30.0938 120.908 28.8281 120.908 27.1406V25.5625ZM139.893 29.3125C139.893 30.4062 139.617 31.3281 139.064 32.0781C138.523 32.8177 137.742 33.375 136.721 33.75C135.71 34.125 134.502 34.3125 133.096 34.3125C131.898 34.3125 130.861 34.2188 129.986 34.0312C129.111 33.8438 128.346 33.5781 127.689 33.2344V30.8438C128.387 31.1875 129.221 31.5 130.189 31.7812C131.158 32.0625 132.148 32.2031 133.158 32.2031C134.637 32.2031 135.71 31.9635 136.377 31.4844C137.044 31.0052 137.377 30.3542 137.377 29.5312C137.377 29.0625 137.242 28.651 136.971 28.2969C136.71 27.9323 136.268 27.5833 135.643 27.25C135.018 26.9062 134.153 26.5312 133.049 26.125C131.955 25.7083 131.007 25.2969 130.205 24.8906C129.413 24.474 128.799 23.9688 128.361 23.375C127.934 22.7812 127.721 22.0104 127.721 21.0625C127.721 19.6146 128.304 18.5052 129.471 17.7344C130.648 16.9531 132.189 16.5625 134.096 16.5625C135.127 16.5625 136.09 16.6667 136.986 16.875C137.893 17.0729 138.736 17.3438 139.518 17.6875L138.643 19.7656C137.934 19.4635 137.179 19.2083 136.377 19C135.575 18.7917 134.757 18.6875 133.924 18.6875C132.726 18.6875 131.804 18.8854 131.158 19.2812C130.523 19.6771 130.205 20.2188 130.205 20.9062C130.205 21.4375 130.351 21.875 130.643 22.2188C130.945 22.5625 131.424 22.8854 132.08 23.1875C132.736 23.4896 133.601 23.8438 134.674 24.25C135.747 24.6458 136.674 25.0573 137.455 25.4844C138.236 25.901 138.835 26.4115 139.252 27.0156C139.679 27.6094 139.893 28.375 139.893 29.3125ZM146.658 9.6875V16.9531C146.658 17.3698 146.648 17.7917 146.627 18.2188C146.606 18.6354 146.57 19.0208 146.518 19.375H146.689C147.044 18.7708 147.492 18.2656 148.033 17.8594C148.585 17.4427 149.21 17.1302 149.908 16.9219C150.606 16.7031 151.346 16.5938 152.127 16.5938C153.502 16.5938 154.648 16.8125 155.564 17.25C156.492 17.6875 157.184 18.3646 157.643 19.2812C158.111 20.1979 158.346 21.3854 158.346 22.8438V34H155.783V23.0156C155.783 21.5885 155.455 20.5208 154.799 19.8125C154.153 19.1042 153.158 18.75 151.814 18.75C150.544 18.75 149.528 18.9948 148.768 19.4844C148.018 19.9635 147.476 20.6719 147.143 21.6094C146.82 22.5469 146.658 23.6927 146.658 25.0469V34H144.064V9.6875H146.658Z" fill="#111811"/>
<g clip-path="url(#clip0_1055_435)">
<path d="M24.0527 2C24.971 2.10984 25.7948 2.20614 26.6178 2.30695C29.4118 2.6485 32.2049 2.99005 34.9981 3.33386C37.5721 3.65059 40.1446 3.97559 42.72 4.27877C43.0418 4.31639 43.0581 4.41193 42.9806 4.69631C41.7929 9.04847 40.617 13.4036 39.4381 17.7581C39.1606 18.782 38.8831 19.8059 38.5789 20.9291C33.7241 14.6028 28.9187 8.34129 24.0527 2Z" fill="#CF2052"/>
<path d="M39.042 21.1549C39.2022 20.2814 39.4775 19.4389 39.7078 18.5842C40.9546 13.965 42.2124 9.34801 43.4672 4.73103C43.4835 4.67235 43.5071 4.61518 43.5285 4.55273C43.6725 4.56778 43.7027 4.69041 43.7603 4.77166C48.221 11.0821 52.6802 17.3948 57.1379 23.7068C57.1881 23.7775 57.2294 23.8535 57.2752 23.9272C57.1401 24.0212 56.9984 23.9896 56.85 23.9656C54.8762 23.6496 52.9009 23.3389 50.9263 23.0236C48.1523 22.5805 45.3798 22.1322 42.6058 21.692C41.4189 21.5055 40.2297 21.3339 39.042 21.1549Z" fill="#E1136D"/>
<path d="M39.042 21.1543C40.2304 21.3333 41.4196 21.5041 42.6058 21.6922C45.3798 22.1316 48.1531 22.5807 50.9263 23.0238C52.9009 23.339 54.8755 23.6497 56.85 23.9657C56.9984 23.9898 57.1409 24.0214 57.2752 23.9273C57.4767 24.1801 57.2007 24.1876 57.0995 24.2403C55.6461 25.0001 54.1875 25.7495 52.7304 26.5018C49.1038 28.3735 45.4772 30.2453 41.8514 32.1171C41.4462 32.3262 41.4447 32.327 41.3495 31.8936C40.5855 28.4006 39.8215 24.9076 39.0597 21.4138C39.042 21.3303 39.0472 21.2408 39.042 21.1543Z" fill="#CF2052"/>
<path d="M32.9092 42.0003C34.7981 35.2437 36.6841 28.4992 38.5694 21.7539C38.5967 21.7562 38.6233 21.7577 38.6506 21.7599C38.872 22.7673 39.0949 23.7746 39.3149 24.782C40.0243 28.032 40.73 31.2828 41.4474 34.5305C41.5117 34.8224 41.4622 35.0037 41.2253 35.1993C38.5494 37.4051 35.8847 39.6245 33.2148 41.837C33.1351 41.9047 33.0686 42.0048 32.9092 42.0003Z" fill="#9C1637"/>
<path d="M57.9202 23.9756C56.731 22.2994 55.5935 20.6962 54.4567 19.0938C53.8448 18.2309 53.2321 17.3687 52.6209 16.5058C52.3899 16.1793 52.3899 16.1763 52.7944 16.1026C55.5625 15.5955 58.3298 15.0892 61.0979 14.5837C61.1555 14.5731 61.2138 14.5664 61.3312 14.5498C60.1915 17.6975 59.0687 20.8001 57.9202 23.9756Z" fill="#CF2052"/>
<path d="M44.5782 31.2469C48.8736 29.0275 53.1689 26.8074 57.5514 24.543C57.358 25.1448 57.1963 25.6504 57.0324 26.1559C56.9719 26.3425 56.7888 26.353 56.6471 26.411C52.9157 27.9434 49.1829 29.4722 45.45 31.0016C45.154 31.1227 44.8587 31.2454 44.5635 31.3672C44.5686 31.3274 44.5731 31.2875 44.5782 31.2469Z" fill="#DB126B"/>
<path d="M61.811 14.7783C63.0408 15.9587 64.2727 17.1414 65.4804 18.3007C65.4228 18.4572 65.3534 18.4361 65.2973 18.4376C63.7974 18.4654 62.2982 18.494 60.7982 18.5158C60.6728 18.5173 60.4247 18.6159 60.5391 18.2984C60.9761 17.0909 61.4124 15.8827 61.811 14.7783Z" fill="#DE136C"/>
<path d="M24.045 5.27375C24.6459 5.27375 25.2467 5.27676 25.8476 5.27149C25.9879 5.27074 26.075 5.33995 26.1539 5.44302C27.9167 7.74436 29.6801 10.0442 31.4428 12.3455C31.4628 12.3711 31.4672 12.4095 31.4222 12.4968C28.9486 10.1217 26.4743 7.74662 24 5.37155C24.0148 5.33845 24.0303 5.3061 24.045 5.27375Z" fill="#9A1537"/>
<path d="M44.5787 31.2461C44.5735 31.286 44.5691 31.3266 44.5647 31.3665C44.4414 31.4402 44.3181 31.5162 44.1299 31.5087C44.2709 31.3604 44.4244 31.3033 44.5787 31.2461Z" fill="#7D0A3D"/>
<path d="M43.9067 31.6073C43.923 31.5937 43.9385 31.5809 43.9547 31.5674C43.9592 31.5764 43.9636 31.5854 43.9673 31.5952C43.9466 31.599 43.9259 31.602 43.9053 31.6058C43.906 31.605 43.9067 31.6073 43.9067 31.6073Z" fill="#7D0A3D"/>
<path d="M43.9062 31.6055L43.8975 31.6151L43.9069 31.6077L43.9062 31.6055Z" fill="#7D0A3D"/>
</g>
<defs>
<clipPath id="clip0_1055_435">
<rect width="41.4815" height="40" fill="white" transform="translate(24 2)"/>
</clipPath>
</defs>
</svg>
