<svg width="348" height="46" viewBox="0 0 348 46" fill="none" xmlns="http://www.w3.org/2000/svg">
<circle cx="8" cy="24" r="8" fill="#3BB77E"/>
<path d="M81.6963 13.8701C80.3571 13.8701 79.1507 14.1025 78.0771 14.5674C77.0146 15.0212 76.1071 15.6852 75.3545 16.5596C74.613 17.4229 74.043 18.4688 73.6445 19.6973C73.2461 20.9258 73.0469 22.3092 73.0469 23.8477C73.0469 25.8841 73.3623 27.6549 73.9932 29.1602C74.6351 30.6543 75.5869 31.8109 76.8486 32.6299C78.1214 33.4489 79.7096 33.8584 81.6133 33.8584C82.6979 33.8584 83.7161 33.7699 84.668 33.5928C85.6309 33.4046 86.5661 33.1722 87.4736 32.8955V35.3525C86.5882 35.6846 85.6585 35.9281 84.6846 36.083C83.7106 36.249 82.554 36.332 81.2148 36.332C78.7467 36.332 76.6826 35.8229 75.0225 34.8047C73.3734 33.7754 72.1338 32.3255 71.3037 30.4551C70.4847 28.5846 70.0752 26.3766 70.0752 23.8311C70.0752 21.9938 70.3298 20.3171 70.8389 18.8008C71.359 17.2734 72.1117 15.9564 73.0967 14.8496C74.0928 13.7428 75.3102 12.8906 76.749 12.293C78.1989 11.6842 79.859 11.3799 81.7295 11.3799C82.958 11.3799 84.1423 11.5016 85.2822 11.7451C86.4222 11.9886 87.4515 12.3372 88.3701 12.791L87.2412 15.1816C86.4665 14.8275 85.6143 14.5231 84.6846 14.2686C83.766 14.0029 82.7699 13.8701 81.6963 13.8701ZM99.1279 17.5059C101.297 17.5059 102.908 17.9928 103.959 18.9668C105.01 19.9408 105.536 21.4958 105.536 23.6318V36H103.527L102.996 33.3105H102.863C102.354 33.9746 101.823 34.5335 101.27 34.9873C100.716 35.43 100.074 35.7676 99.3438 36C98.6243 36.2214 97.7389 36.332 96.6875 36.332C95.5807 36.332 94.5957 36.1383 93.7324 35.751C92.8802 35.3636 92.2051 34.777 91.707 33.9912C91.2201 33.2054 90.9766 32.2093 90.9766 31.0029C90.9766 29.1878 91.696 27.7933 93.1348 26.8193C94.5736 25.8454 96.765 25.3141 99.709 25.2256L102.847 25.0928V23.9805C102.847 22.4089 102.509 21.3076 101.834 20.6768C101.159 20.0459 100.207 19.7305 98.9785 19.7305C98.0267 19.7305 97.1191 19.8688 96.2559 20.1455C95.3926 20.4222 94.5736 20.7487 93.7988 21.125L92.9521 19.0332C93.7712 18.6126 94.7119 18.2529 95.7744 17.9541C96.8369 17.6553 97.9548 17.5059 99.1279 17.5059ZM102.813 27.0352L100.041 27.1514C97.7721 27.2399 96.1729 27.6107 95.2432 28.2637C94.3135 28.9167 93.8486 29.8408 93.8486 31.0361C93.8486 32.0765 94.1641 32.8457 94.7949 33.3438C95.4258 33.8418 96.2614 34.0908 97.3018 34.0908C98.9176 34.0908 100.24 33.6426 101.27 32.7461C102.299 31.8496 102.813 30.5049 102.813 28.7119V27.0352ZM122.984 31.0195C122.984 32.1816 122.691 33.1611 122.104 33.958C121.529 34.7438 120.699 35.3359 119.614 35.7344C118.541 36.1328 117.257 36.332 115.763 36.332C114.49 36.332 113.389 36.2324 112.459 36.0332C111.529 35.834 110.716 35.5518 110.019 35.1865V32.6465C110.76 33.0117 111.646 33.3438 112.675 33.6426C113.704 33.9414 114.756 34.0908 115.829 34.0908C117.401 34.0908 118.541 33.8363 119.249 33.3271C119.957 32.818 120.312 32.1263 120.312 31.252C120.312 30.7539 120.168 30.3167 119.88 29.9404C119.603 29.5531 119.133 29.1823 118.469 28.8281C117.805 28.4629 116.886 28.0645 115.713 27.6328C114.551 27.1901 113.544 26.7529 112.691 26.3213C111.85 25.8786 111.197 25.3418 110.732 24.7109C110.279 24.0801 110.052 23.2611 110.052 22.2539C110.052 20.7155 110.672 19.5368 111.911 18.7178C113.162 17.8877 114.8 17.4727 116.825 17.4727C117.921 17.4727 118.945 17.5833 119.896 17.8047C120.859 18.015 121.756 18.3027 122.586 18.668L121.656 20.876C120.904 20.555 120.101 20.2839 119.249 20.0625C118.397 19.8411 117.528 19.7305 116.643 19.7305C115.37 19.7305 114.39 19.9408 113.704 20.3613C113.029 20.7819 112.691 21.3574 112.691 22.0879C112.691 22.6523 112.846 23.1172 113.156 23.4824C113.477 23.8477 113.986 24.1908 114.684 24.5117C115.381 24.8327 116.299 25.209 117.439 25.6406C118.579 26.0612 119.564 26.4984 120.395 26.9521C121.225 27.3949 121.861 27.9372 122.304 28.5791C122.757 29.21 122.984 30.0234 122.984 31.0195ZM130.173 10.168V17.8877C130.173 18.3304 130.162 18.7786 130.14 19.2324C130.118 19.6751 130.079 20.0846 130.023 20.4609H130.206C130.582 19.819 131.058 19.2822 131.634 18.8506C132.22 18.4079 132.884 18.0758 133.626 17.8545C134.368 17.6221 135.153 17.5059 135.983 17.5059C137.444 17.5059 138.662 17.7383 139.636 18.2031C140.621 18.668 141.357 19.3874 141.844 20.3613C142.342 21.3353 142.591 22.597 142.591 24.1465V36H139.868V24.3291C139.868 22.8128 139.52 21.6784 138.822 20.9258C138.136 20.1732 137.079 19.7969 135.651 19.7969C134.301 19.7969 133.222 20.057 132.414 20.5771C131.617 21.0863 131.042 21.8389 130.688 22.835C130.344 23.8311 130.173 25.0485 130.173 26.4873V36H127.417V10.168H130.173ZM178.566 23.8311C178.566 25.7015 178.328 27.4059 177.853 28.9443C177.377 30.4717 176.668 31.7887 175.728 32.8955C174.798 33.9912 173.641 34.8379 172.258 35.4355C170.874 36.0332 169.27 36.332 167.443 36.332C165.562 36.332 163.918 36.0332 162.513 35.4355C161.118 34.8379 159.956 33.9857 159.026 32.8789C158.108 31.7721 157.416 30.4495 156.951 28.9111C156.497 27.3727 156.271 25.6683 156.271 23.7979C156.271 21.3187 156.68 19.1439 157.499 17.2734C158.318 15.403 159.558 13.9476 161.218 12.9072C162.889 11.8669 164.981 11.3467 167.493 11.3467C169.895 11.3467 171.915 11.8613 173.553 12.8906C175.202 13.9199 176.447 15.3698 177.288 17.2402C178.14 19.0996 178.566 21.2965 178.566 23.8311ZM159.242 23.8311C159.242 25.8896 159.535 27.6715 160.122 29.1768C160.709 30.682 161.605 31.8441 162.812 32.6631C164.029 33.4821 165.573 33.8916 167.443 33.8916C169.325 33.8916 170.863 33.4821 172.059 32.6631C173.265 31.8441 174.156 30.682 174.731 29.1768C175.307 27.6715 175.595 25.8896 175.595 23.8311C175.595 20.6989 174.936 18.2529 173.619 16.4932C172.313 14.7223 170.271 13.8369 167.493 13.8369C165.612 13.8369 164.062 14.2409 162.845 15.0488C161.627 15.8568 160.72 17.0078 160.122 18.502C159.535 19.985 159.242 21.7614 159.242 23.8311ZM192.18 17.4727C194.338 17.4727 195.97 18.0039 197.077 19.0664C198.184 20.1178 198.737 21.8112 198.737 24.1465V36H196.015V24.3291C196.015 22.8128 195.666 21.6784 194.969 20.9258C194.283 20.1732 193.226 19.7969 191.798 19.7969C189.784 19.7969 188.367 20.3669 187.548 21.5068C186.729 22.6468 186.319 24.3014 186.319 26.4707V36H183.563V17.8047H185.788L186.203 20.4277H186.353C186.74 19.7858 187.232 19.249 187.83 18.8174C188.428 18.3747 189.097 18.0426 189.839 17.8213C190.58 17.5889 191.361 17.4727 192.18 17.4727ZM241.769 23.6318C241.769 26.3656 241.271 28.651 240.274 30.4883C239.278 32.3145 237.834 33.6924 235.941 34.6221C234.06 35.5407 231.774 36 229.085 36H222.494V11.7285H229.815C232.284 11.7285 234.409 12.1823 236.19 13.0898C237.972 13.9863 239.345 15.32 240.308 17.0908C241.282 18.8506 241.769 21.0309 241.769 23.6318ZM238.797 23.7314C238.797 21.5511 238.432 19.7526 237.701 18.3359C236.982 16.9193 235.919 15.8678 234.514 15.1816C233.119 14.4844 231.409 14.1357 229.384 14.1357H225.316V33.5762H228.753C232.095 33.5762 234.602 32.7516 236.273 31.1025C237.956 29.4535 238.797 26.9964 238.797 23.7314ZM253.755 17.4727C255.304 17.4727 256.632 17.8158 257.739 18.502C258.846 19.1882 259.693 20.151 260.279 21.3906C260.866 22.6191 261.159 24.0579 261.159 25.707V27.417H248.592C248.625 29.5531 249.156 31.18 250.186 32.2979C251.215 33.4157 252.665 33.9746 254.535 33.9746C255.686 33.9746 256.704 33.8695 257.59 33.6592C258.475 33.4489 259.394 33.139 260.346 32.7295V35.1533C259.427 35.5628 258.514 35.8617 257.606 36.0498C256.71 36.238 255.647 36.332 254.419 36.332C252.67 36.332 251.143 35.9779 249.837 35.2695C248.542 34.5501 247.535 33.4987 246.815 32.1152C246.096 30.7318 245.736 29.0384 245.736 27.0352C245.736 25.0762 246.063 23.3828 246.716 21.9551C247.38 20.5163 248.31 19.4095 249.505 18.6348C250.711 17.86 252.128 17.4727 253.755 17.4727ZM253.722 19.7305C252.25 19.7305 251.076 20.2119 250.202 21.1748C249.328 22.1377 248.808 23.4824 248.642 25.209H258.271C258.259 24.1243 258.088 23.1725 257.756 22.3535C257.435 21.5234 256.942 20.8815 256.278 20.4277C255.614 19.9629 254.762 19.7305 253.722 19.7305ZM268.613 36H265.841V10.168H268.613V36ZM277.196 17.8047V36H274.44V17.8047H277.196ZM275.852 10.998C276.305 10.998 276.693 11.1475 277.014 11.4463C277.346 11.734 277.512 12.1878 277.512 12.8076C277.512 13.4163 277.346 13.8701 277.014 14.1689C276.693 14.4678 276.305 14.6172 275.852 14.6172C275.376 14.6172 274.977 14.4678 274.656 14.1689C274.346 13.8701 274.191 13.4163 274.191 12.8076C274.191 12.1878 274.346 11.734 274.656 11.4463C274.977 11.1475 275.376 10.998 275.852 10.998ZM287.041 36L280.135 17.8047H283.09L287.091 28.8115C287.368 29.5641 287.65 30.3942 287.938 31.3018C288.225 32.2093 288.424 32.9398 288.535 33.4932H288.651C288.784 32.9398 289.006 32.2093 289.315 31.3018C289.625 30.3831 289.908 29.5531 290.162 28.8115L294.163 17.8047H297.118L290.195 36H287.041ZM307.046 17.4727C308.595 17.4727 309.924 17.8158 311.03 18.502C312.137 19.1882 312.984 20.151 313.57 21.3906C314.157 22.6191 314.45 24.0579 314.45 25.707V27.417H301.883C301.916 29.5531 302.447 31.18 303.477 32.2979C304.506 33.4157 305.956 33.9746 307.826 33.9746C308.977 33.9746 309.995 33.8695 310.881 33.6592C311.766 33.4489 312.685 33.139 313.637 32.7295V35.1533C312.718 35.5628 311.805 35.8617 310.897 36.0498C310.001 36.238 308.938 36.332 307.71 36.332C305.961 36.332 304.434 35.9779 303.128 35.2695C301.833 34.5501 300.826 33.4987 300.106 32.1152C299.387 30.7318 299.027 29.0384 299.027 27.0352C299.027 25.0762 299.354 23.3828 300.007 21.9551C300.671 20.5163 301.601 19.4095 302.796 18.6348C304.002 17.86 305.419 17.4727 307.046 17.4727ZM307.013 19.7305C305.541 19.7305 304.368 20.2119 303.493 21.1748C302.619 22.1377 302.099 23.4824 301.933 25.209H311.562C311.55 24.1243 311.379 23.1725 311.047 22.3535C310.726 21.5234 310.233 20.8815 309.569 20.4277C308.905 19.9629 308.053 19.7305 307.013 19.7305ZM327.399 17.4727C327.765 17.4727 328.146 17.4948 328.545 17.5391C328.943 17.5723 329.298 17.6221 329.607 17.6885L329.259 20.2451C328.96 20.1676 328.628 20.1068 328.263 20.0625C327.897 20.0182 327.554 19.9961 327.233 19.9961C326.503 19.9961 325.811 20.1455 325.158 20.4443C324.516 20.7321 323.952 21.1527 323.465 21.7061C322.978 22.2484 322.596 22.9069 322.319 23.6816C322.043 24.4453 321.904 25.2975 321.904 26.2383V36H319.132V17.8047H321.423L321.722 21.1582H321.838C322.214 20.4831 322.668 19.8688 323.199 19.3154C323.73 18.751 324.345 18.3027 325.042 17.9707C325.75 17.6387 326.536 17.4727 327.399 17.4727ZM330.172 17.8047H333.127L337.145 28.3633C337.377 28.9831 337.593 29.5807 337.792 30.1562C337.991 30.7207 338.168 31.263 338.323 31.7832C338.478 32.3034 338.6 32.807 338.688 33.2939H338.805C338.96 32.7406 339.181 32.0156 339.469 31.1191C339.757 30.2116 340.066 29.2874 340.398 28.3467L344.2 17.8047H347.172L339.253 38.6729C338.832 39.7907 338.34 40.7646 337.775 41.5947C337.222 42.4248 336.547 43.0612 335.75 43.5039C334.953 43.9577 333.99 44.1846 332.861 44.1846C332.341 44.1846 331.882 44.1514 331.483 44.085C331.085 44.0296 330.742 43.9632 330.454 43.8857V41.6777C330.698 41.7331 330.991 41.7829 331.334 41.8271C331.688 41.8714 332.053 41.8936 332.43 41.8936C333.116 41.8936 333.708 41.7607 334.206 41.4951C334.715 41.2406 335.152 40.8643 335.518 40.3662C335.883 39.8682 336.198 39.276 336.464 38.5898L337.46 36.0332L330.172 17.8047Z" fill="#111811"/>
<g clip-path="url(#clip0_1055_436)">
<path d="M51.4299 31.0481C51.7322 30.8649 52.0218 30.6561 52.338 30.5016C53.1908 30.084 54.1383 30.4068 54.6749 31.274C54.1862 31.8141 53.622 32.2722 53.0811 32.7559C51.6832 34.0088 50.296 35.2744 48.9024 36.5326C47.8526 37.4808 46.8189 38.4481 45.7436 39.3665C43.8485 40.9858 41.6606 41.543 39.2396 40.9368C37.6096 40.5288 36.0797 39.8075 34.4966 39.2482C32.9465 38.7006 31.457 37.9016 29.7259 38.1349C29.7248 35.8657 29.7248 33.5965 29.7227 31.3283C29.7227 31.1398 29.7152 30.9714 29.926 30.8574C30.8885 30.3354 31.8009 29.726 32.9358 29.5779C33.9057 29.4522 34.7968 29.661 35.6826 29.9988C35.8551 30.0648 36.0329 30.1128 36.2085 30.1682C36.6227 30.4111 37.0848 30.5378 37.5276 30.7104C39.5505 31.4977 41.5712 32.2882 43.6036 33.0489C44.5639 33.409 45.0739 34.2996 44.8823 35.1562C44.8652 35.2329 44.8578 35.317 44.9515 35.3607C44.8407 35.4534 44.7194 35.5354 44.6214 35.6398C44.2243 36.0681 43.7484 36.1555 43.2076 35.9893C41.3497 35.4193 39.4909 34.8493 37.633 34.2794C37.089 34.1132 36.5482 33.9395 35.9999 33.7893C35.7433 33.719 35.4494 33.6636 35.343 34.0216C35.2397 34.3699 35.491 34.4861 35.755 34.5787C35.805 34.5958 35.854 34.615 35.9051 34.6309C38.1036 35.3117 40.2989 35.9989 42.5017 36.6647C42.9148 36.7894 43.3247 36.9897 43.7729 36.9343C44.9706 36.7862 45.7414 35.9978 45.8979 34.7801C46.4015 34.4381 46.9051 34.0951 47.4097 33.7542C48.7491 32.8529 50.0895 31.9505 51.4299 31.0481Z" fill="#FEC6AD"/>
<path d="M38.4863 6.79806C39.6766 5.73376 40.7221 4.49155 42.1242 3.68401C43.4135 2.94252 44.8157 2.80083 46.2136 3.27385C48.2918 3.97805 50.3497 4.74617 52.3971 5.53774C53.0987 5.8094 53.796 5.76253 54.5061 5.77105C54.6179 5.87972 54.5775 6.01928 54.5775 6.14712C54.5785 7.98913 54.5775 9.83007 54.5764 11.6721C54.4603 11.7903 54.5327 11.9427 54.5019 12.0759C54.01 12.3358 53.5245 12.6085 53.0252 12.8514C51.9318 13.3852 50.8139 13.398 49.6833 12.9654C48.2886 12.4306 46.8747 11.9395 45.5024 11.3514C44.1801 10.7857 42.6896 10.5684 41.5866 9.52751C41.9081 8.73701 42.6779 8.39823 43.5807 8.66776C44.9402 9.07473 46.2966 9.49448 47.654 9.90891C47.9287 9.99733 48.2023 10.089 48.4781 10.1731C48.8166 10.2775 48.9944 10.138 48.922 9.79918C48.7719 9.09284 48.6016 8.39077 48.4387 7.68763C48.2651 6.86624 48.0959 6.04378 47.9138 5.22452C47.8499 4.93794 47.6519 4.79625 47.357 4.86123C46.4712 5.05619 45.5886 5.26287 44.705 5.46529C43.6754 5.68902 42.6459 5.91594 41.6153 6.13647C40.5752 6.36126 39.5308 6.57859 38.4863 6.79806Z" fill="#FDC6AE"/>
<path d="M29.7271 38.1344C31.4582 37.901 32.9477 38.7001 34.4978 39.2477C36.0809 39.807 37.6108 40.5282 39.2408 40.9362C41.6618 41.5424 43.8497 40.9842 45.7448 39.3659C46.8201 38.4476 47.8528 37.4802 48.9036 36.5321C50.2972 35.2739 51.6844 34.0082 53.0823 32.7553C53.6232 32.2706 54.1874 31.8136 54.6761 31.2734C55.1116 32.0171 54.9316 32.945 54.2417 33.5672C52.0486 35.5477 49.8682 37.542 47.6611 39.5065C46.7423 40.3237 45.9055 41.2452 44.843 41.8897C42.6488 43.2214 40.3651 43.3099 37.993 42.3915C35.9819 41.6128 33.9516 40.884 31.9288 40.1362C31.6041 40.0158 31.2687 39.9551 30.9184 39.9646C30.5213 39.9764 30.1231 39.9604 29.726 39.9572C29.7239 39.9316 29.7186 39.9071 29.709 39.8837C29.71 39.2967 29.71 38.7086 29.7111 38.1216L29.7271 38.1344Z" fill="#FEA990"/>
<path d="M54.5756 11.6721C54.5766 9.83014 54.5788 7.9892 54.5766 6.14719C54.5766 6.01935 54.6171 5.87872 54.5053 5.77112C54.5053 5.35989 54.5127 4.9476 54.5032 4.53637C54.4978 4.32862 54.582 4.25618 54.7853 4.25831C55.5018 4.26577 56.2183 4.27109 56.9348 4.25618C57.2596 4.24979 57.2138 4.4586 57.2138 4.65569C57.2138 6.35494 57.2244 8.05419 57.2053 9.75343C57.201 10.1252 57.284 10.2797 57.6812 10.2467C58.09 10.2126 58.5041 10.2211 58.914 10.2446C59.2206 10.2627 59.293 10.1466 59.2909 9.85571C59.2792 8.14368 59.2952 6.43058 59.2771 4.71854C59.2728 4.35526 59.3676 4.23274 59.7402 4.25192C60.3619 4.28281 60.9869 4.27322 61.6097 4.25405C61.9004 4.24552 62.0004 4.32543 61.9994 4.63118C61.9855 6.9803 61.9887 9.33049 61.9877 11.6796C59.5166 11.6785 57.0466 11.6753 54.5756 11.6721Z" fill="#E7EEFE"/>
<path d="M44.9507 35.3616C44.857 35.3169 44.8644 35.2338 44.8815 35.1571C45.0731 34.2995 44.5632 33.4088 43.6028 33.0498C41.5704 32.2891 39.5497 31.4986 37.5269 30.7113C37.084 30.5388 36.6219 30.412 36.2078 30.1691C36.2344 29.3445 36.1418 28.5178 36.2557 27.6953C37.3746 28.1247 38.4914 28.5583 39.6115 28.9833C40.3237 29.2539 41.0147 29.581 41.7567 29.7706C41.777 29.9762 41.893 29.8931 41.9963 29.8505C42.3998 30.1105 42.8555 30.2522 43.3037 30.4013C44.1714 30.689 44.7974 31.1705 44.9124 32.1549C44.939 32.3818 44.7697 32.5917 44.8996 32.8144C45.0156 32.8367 45.0902 32.7526 45.1764 32.695C45.8035 32.2764 46.4306 31.8577 47.0598 31.4411C48.5056 30.4844 49.9514 29.5299 51.3971 28.5753C51.4067 29.3999 51.4163 30.2245 51.427 31.0491C50.0866 31.9514 48.7462 32.8538 47.4058 33.7572C46.9011 34.0981 46.3975 34.4412 45.894 34.7831C45.5448 34.9163 45.2733 35.1795 44.9507 35.3616Z" fill="#4EAAFE"/>
<path d="M51.4009 28.5746C49.9551 29.5303 48.5082 30.4848 47.0635 31.4405C46.4343 31.857 45.8072 32.2746 45.1801 32.6944C45.0928 32.753 45.0193 32.8361 44.9033 32.8137C44.7723 32.5921 44.9416 32.3822 44.9161 32.1543C44.8011 31.1699 44.1761 30.6883 43.3074 30.4007C42.8592 30.2515 42.4035 30.1098 42 29.8499C42.5504 29.509 43.103 29.1712 43.6491 28.8239C43.8174 28.7174 43.9419 28.7824 44.0835 28.8708C44.5328 29.1499 44.9832 29.4291 45.4431 29.6911C45.5719 29.7646 45.706 29.949 45.8508 29.8616C45.968 29.7913 45.8956 29.5899 45.8966 29.4482C45.8998 27.8555 45.8998 26.2628 45.8998 24.6701C47.0007 24.669 48.1004 24.668 49.2013 24.668C50.118 24.668 50.1286 24.668 50.1212 25.5703C50.118 25.9645 50.2628 26.2564 50.6279 26.38C50.9665 26.4951 51.1922 26.2554 51.3977 26.0242C51.3977 26.8743 51.3998 27.7245 51.4009 28.5746Z" fill="#4DC7FE"/>
<path d="M54.5758 11.6719C57.0458 11.6751 59.5168 11.6772 61.9868 11.6804C61.9879 12.8352 61.9815 13.989 61.9964 15.1439C61.9996 15.4209 61.9155 15.5072 61.6365 15.5061C59.3827 15.4965 57.1277 15.4944 54.8739 15.5072C54.5641 15.5093 54.4917 15.4017 54.5012 15.1151C54.5183 14.5718 54.5012 14.0274 54.498 13.4841C54.4991 13.0153 54.5002 12.5455 54.5012 12.0756C54.5321 11.9425 54.4597 11.7901 54.5758 11.6719Z" fill="#CAD0FE"/>
<path d="M22.0117 38.0678C22.0096 35.6792 22.0107 33.2907 22 30.9022C21.9989 30.6401 22.0841 30.5431 22.3428 30.5634C22.7367 30.5943 23.2382 30.4057 23.5001 30.6348C23.7727 30.8734 23.5885 31.3858 23.5917 31.7758C23.6044 33.2481 23.6087 34.7215 23.5874 36.1938C23.5821 36.556 23.696 36.653 24.0388 36.6306C24.4743 36.6029 24.915 36.605 25.3505 36.6306C25.6688 36.6498 25.755 36.539 25.7529 36.2258C25.7391 34.567 25.7423 32.9082 25.7476 31.2495C25.7508 30.4526 25.6379 30.5762 26.4513 30.5644C26.7473 30.5602 27.0433 30.5623 27.3392 30.5612C27.3371 33.0584 27.336 35.5556 27.3339 38.0529C25.5613 38.0603 23.7865 38.0635 22.0117 38.0678Z" fill="#E7EEFE"/>
<path d="M47.0274 15.9307C45.192 16.3366 43.3565 16.7425 41.521 17.1484C41.5189 16.7308 41.5168 16.3142 41.5146 15.8966C41.5178 14.1973 41.52 12.4981 41.5232 10.7988C41.5413 10.7999 41.5583 10.7999 41.5764 10.801C41.8149 11.2388 42.1779 11.5073 42.6442 11.6831C44.2391 12.285 45.8254 12.9093 47.4149 13.5261C47.333 13.7019 47.2499 13.8767 47.1701 14.0524C46.8954 14.6608 46.9295 15.2936 47.0274 15.9307Z" fill="#017372"/>
<path d="M41.7589 29.7696C41.0168 29.581 40.3258 29.2529 39.6136 28.9823C38.4936 28.5572 37.3757 28.1236 36.2578 27.6943C36.2599 27.1371 36.2621 26.5799 36.2642 26.0227C36.4633 26.2891 36.7039 26.5053 37.0584 26.3711C37.4215 26.2347 37.5673 25.9375 37.5397 25.5497C37.5269 25.3792 37.5535 25.2045 37.5343 25.0351C37.4981 24.7272 37.6355 24.659 37.9208 24.6612C39.2016 24.675 40.4823 24.6676 41.7631 24.6686C41.761 26.37 41.7599 28.0703 41.7589 29.7696Z" fill="#4DC7FE"/>
<path d="M22.0127 38.0674C23.7875 38.0631 25.5623 38.0599 27.3371 38.0557L27.3509 38.0663C27.3488 39.3384 27.3477 40.6115 27.3456 41.8835C25.6858 41.8846 24.0271 41.8814 22.3673 41.8931C22.0936 41.8952 21.9978 41.8175 22.0021 41.5341C22.017 40.3782 22.0106 39.2233 22.0127 38.0674Z" fill="#CAD0FE"/>
<path d="M47.4156 13.5245C45.8261 12.9087 44.2398 12.2833 42.6449 11.6814C42.1776 11.5046 41.8145 11.2361 41.5771 10.7993C41.5601 10.7727 41.542 10.746 41.5249 10.7183L41.5217 10.713C41.5196 10.6288 41.5271 10.5404 41.4419 10.485C41.4611 10.1611 41.3631 9.82023 41.5867 9.52832C42.6897 10.5681 44.1802 10.7854 45.5025 11.3522C46.8748 11.9392 48.2876 12.4314 49.6834 12.9662C50.814 13.3998 51.9308 13.386 53.0253 12.8522C53.5246 12.6083 54.0101 12.3355 54.502 12.0767C54.5009 12.5465 54.4998 13.0152 54.4988 13.4851C54.2411 13.6204 53.975 13.7418 53.729 13.8952C52.5696 14.6154 51.3261 14.82 49.9974 14.5217C49.1372 14.1882 48.277 13.8569 47.4156 13.5245Z" fill="#FEA990"/>
<path d="M38.4865 6.79841C39.531 6.57894 40.5754 6.36161 41.6187 6.13895C42.6493 5.91842 43.6788 5.6915 44.7084 5.46777C44.7169 5.92375 44.9841 6.27532 45.1853 6.65352C44.3496 6.83676 43.5149 7.02213 42.6791 7.20431C39.8631 7.81689 37.0461 8.42947 34.2301 9.03992C33.3177 9.23808 32.4159 9.48951 31.4865 9.60457C31.495 9.18694 31.4865 8.77145 31.4023 8.36023C33.7637 7.83926 36.1251 7.3183 38.4865 6.79841Z" fill="#028C72"/>
<path d="M27.3369 38.0556C27.339 35.5584 27.3401 33.0612 27.3422 30.564C27.9108 30.5629 28.4803 30.5597 29.0489 30.5629C29.5141 30.565 29.6568 30.7099 29.6568 31.1861C29.6589 33.3573 29.6568 35.5286 29.66 37.6987C29.66 37.8404 29.6142 37.9906 29.71 38.1216C29.709 38.7087 29.709 39.2957 29.7079 39.8837C29.5961 39.4832 29.6781 39.073 29.6579 38.6682C29.6366 38.2452 29.4737 38.0673 29.051 38.062C28.4835 38.0556 27.9171 38.063 27.3497 38.0652L27.3369 38.0556Z" fill="#C4CBFE"/>
<path d="M40.8821 23.3585C41.111 23.2552 41.3548 23.3479 41.6135 23.2946C41.4506 23.1561 41.3037 23.0219 41.1461 22.8994C40.4062 22.323 40.353 21.0254 41.0695 20.2211C41.5975 19.6287 43.0157 19.4892 43.6449 20.1412C43.7982 20.2999 43.8919 20.252 44.0367 20.1262C44.5637 19.6671 45.5772 19.5669 46.1649 19.8983C46.8228 20.2679 47.0847 20.9295 47.0422 21.7435C47.0038 22.469 46.5982 22.893 46.0403 23.2797C46.3246 23.3649 46.6067 23.2467 46.8622 23.3585C46.5428 23.3692 46.2245 23.3799 45.9051 23.3916C45.8306 23.3713 45.7561 23.333 45.6815 23.333C44.4487 23.3298 43.2169 23.3298 41.984 23.333C41.9095 23.333 41.835 23.3713 41.7604 23.3905C41.4666 23.3799 41.1738 23.3692 40.8821 23.3585ZM43.3542 21.7317C43.3276 21.5208 43.417 21.2598 43.3084 21.0222C43.1626 20.7047 42.5749 20.4618 42.2065 20.546C41.7157 20.6579 41.4751 20.9199 41.4421 21.378C41.3889 22.1302 41.7498 22.5137 42.5121 22.5158C43.3542 22.518 43.3542 22.518 43.3542 21.7317ZM45.0065 22.5158C45.2621 22.4935 45.5602 22.5798 45.8242 22.388C46.2352 22.0876 46.3736 21.3951 46.0925 20.9998C45.7986 20.5875 45.0406 20.4395 44.6424 20.725C44.4412 20.8699 44.3039 21.0595 44.3103 21.3258C44.3135 21.4846 44.3177 21.6444 44.3092 21.8031C44.2677 22.5158 44.2666 22.5158 45.0065 22.5158Z" fill="#E7EEFE"/>
<path d="M41.5162 15.8965C41.5183 16.3141 41.5205 16.7307 41.5226 17.1483C38.9983 17.7044 36.474 18.2616 33.9497 18.8166C33.8731 18.8337 33.7932 18.839 33.7155 18.8507C33.7081 18.3905 33.4419 18.0347 33.2354 17.6543C35.1602 17.2378 37.083 16.817 39.009 16.4057C39.8436 16.2267 40.6602 15.9636 41.5162 15.8965Z" fill="#028C72"/>
<path d="M40.8819 23.3584C41.1747 23.3691 41.4664 23.3797 41.7592 23.3904C41.7602 23.8165 41.7613 24.2437 41.7624 24.6699L41.7634 24.6688C40.4827 24.6677 39.2019 24.6752 37.9211 24.6613C37.6358 24.6581 37.4984 24.7274 37.5346 25.0353C37.5549 25.2047 37.5282 25.3794 37.54 25.5498C37.5687 25.9376 37.4218 26.2349 37.0587 26.3712C36.7042 26.5044 36.4636 26.2892 36.2645 26.0229C36.158 25.406 36.1548 24.7849 36.2581 24.1702C36.3444 23.6546 36.668 23.3904 37.1929 23.384C38.4215 23.368 39.6512 23.3659 40.8819 23.3584Z" fill="#61E5FE"/>
<path d="M45.9038 23.3914C46.2232 23.3808 46.5415 23.3701 46.8609 23.3584C47.9958 23.3648 49.1307 23.3712 50.2656 23.3786C51.1131 23.384 51.4123 23.678 51.4144 24.5196C51.4155 25.0214 51.4027 25.5232 51.3963 26.025C51.1908 26.2572 50.9651 26.4959 50.6266 26.3808C50.2614 26.2572 50.1166 25.9653 50.1198 25.5712C50.1283 24.6688 50.1176 24.6677 49.1999 24.6688C48.0991 24.6688 46.9993 24.6709 45.8984 24.6709L45.8995 24.672C45.9016 24.2448 45.9027 23.8186 45.9038 23.3914Z" fill="#61E5FE"/>
<path d="M27.3501 38.0663C27.9176 38.0641 28.484 38.0567 29.0515 38.0631C29.4741 38.0684 29.6359 38.2463 29.6583 38.6693C29.6785 39.0741 29.5966 39.4832 29.7083 39.8848C29.7179 39.9083 29.7232 39.9328 29.7254 39.9584C29.637 40.4037 29.6753 40.8543 29.6636 41.3028C29.653 41.7183 29.4954 41.8856 29.0887 41.8899C28.5074 41.8962 27.9261 41.8867 27.3438 41.8845C27.3459 40.6104 27.348 39.3383 27.3501 38.0663Z" fill="#A2A8D1"/>
<path d="M31.4018 8.35938C31.487 8.7706 31.4945 9.18716 31.4859 9.60372C31.3891 10.423 30.9132 11.027 30.3659 11.5927C29.9848 11.7845 29.6058 11.9805 29.1842 12.0732C28.9201 11.2039 28.7732 10.3058 28.5773 9.42047C28.5166 9.14881 28.6742 8.94426 28.9734 8.8814C29.7836 8.71094 30.5927 8.53409 31.4018 8.35938Z" fill="#016E72"/>
<path d="M33.2349 17.6546C33.4414 18.035 33.7076 18.3908 33.715 18.851C32.9251 19.0939 32.1095 19.226 31.3047 19.4018C30.9736 19.4743 30.7521 19.339 30.6808 18.9746C30.5253 18.1894 30.3507 17.4075 30.1836 16.6244C30.5828 16.4859 30.997 16.5552 31.4058 16.536C32.1596 16.6713 32.7153 17.1337 33.2349 17.6546Z" fill="#016E72"/>
<path d="M31.4055 16.536C30.9978 16.5552 30.5825 16.486 30.1833 16.6245C29.8501 15.1074 29.5168 13.5903 29.1836 12.0733C29.6052 11.9806 29.9842 11.7856 30.3654 11.5928C30.6049 12.6592 30.8583 13.7224 31.0765 14.792C31.1958 15.3716 31.4076 15.9341 31.4055 16.536Z" fill="#028C72"/>
<path d="M47.4154 13.5244C48.2756 13.8568 49.1369 14.1881 49.9972 14.5205C50.1239 15.1533 50.028 15.295 49.4105 15.4229C48.6153 15.588 47.8221 15.7606 47.0279 15.93C46.9299 15.2929 46.8948 14.6601 47.1705 14.0518C47.2504 13.8749 47.3345 13.7002 47.4154 13.5244Z" fill="#016E72"/>
<path d="M44.9516 35.3614C45.2742 35.1803 45.5457 34.9161 45.8971 34.7819C45.7406 36.0007 44.9708 36.789 43.772 36.936C43.3227 36.9914 42.9128 36.7912 42.5008 36.6665C40.2981 36.0007 38.1027 35.3135 35.9042 34.6327C35.8542 34.6168 35.8042 34.5976 35.7541 34.5805C35.4901 34.4878 35.2388 34.3707 35.3421 34.0234C35.4486 33.6654 35.7424 33.7208 35.999 33.7911C36.5473 33.9413 37.0892 34.115 37.6322 34.2812C39.4911 34.8501 41.3489 35.42 43.2067 35.9911C43.7475 36.1573 44.2234 36.0699 44.6205 35.6416C44.7196 35.5351 44.8409 35.4531 44.9516 35.3614Z" fill="#FEA990"/>
<path d="M31.4043 16.5356C31.4065 15.9337 31.1946 15.3712 31.0764 14.7927C30.8582 13.722 30.6037 12.6588 30.3652 11.5934C30.9125 11.0288 31.3894 10.4236 31.4852 9.60437C32.4147 9.48931 33.3164 9.23682 34.2289 9.03973C37.0459 8.42927 39.8619 7.81669 42.6779 7.20411C43.5137 7.02193 44.3484 6.83656 45.1841 6.65332C45.6909 7.36924 46.4287 7.68565 47.2538 7.85185C47.2708 8.56031 47.5444 9.21977 47.6541 9.91119C46.2967 9.49677 44.9403 9.07701 43.5807 8.67005C42.6769 8.39945 41.9082 8.73929 41.5867 9.52979C41.3631 9.82277 41.461 10.1637 41.4419 10.4865C41.4451 10.5706 41.4248 10.6633 41.5217 10.7145L41.5249 10.7198C41.5217 10.7464 41.5217 10.772 41.5238 10.7986C41.5217 12.4979 41.5185 14.1971 41.5153 15.8964C40.6593 15.9635 39.8417 16.2266 39.0081 16.4046C37.0821 16.8158 35.1594 17.2366 33.2345 17.6532C32.7149 17.1333 32.1592 16.6709 31.4043 16.5356ZM37.4579 12.1218C37.4516 13.1414 38.2948 13.9883 39.3243 13.9841C40.406 13.9798 41.164 13.0742 41.1906 12.141C41.2183 11.1587 40.3069 10.2276 39.3701 10.2457C38.299 10.267 37.4377 11.1257 37.4579 12.1218Z" fill="#009F72"/>
<path d="M47.2556 7.85059C46.4305 7.68546 45.6927 7.36798 45.1859 6.65206C44.9847 6.27386 44.7164 5.92229 44.709 5.46631C45.5926 5.26389 46.4763 5.05722 47.361 4.86225C47.6559 4.79727 47.854 4.93896 47.9178 5.22554C48.0999 6.0448 48.2681 6.86726 48.4427 7.68865C48.0594 7.83994 47.6591 7.85911 47.2556 7.85059Z" fill="#016E72"/>
<path d="M47.2559 7.85041C47.6594 7.85893 48.0597 7.83976 48.4419 7.68848C48.6037 8.39268 48.7741 9.09369 48.9252 9.80002C48.9976 10.1377 48.8188 10.2773 48.4813 10.174C48.2055 10.0887 47.9319 9.99818 47.6572 9.90975C47.5454 9.21833 47.2729 8.55994 47.2559 7.85041Z" fill="#028C72"/>
<path d="M41.7598 29.7698C41.7608 28.0695 41.7619 26.3692 41.763 24.6699L41.7619 24.671C43.1417 24.671 44.5215 24.671 45.9013 24.6721L45.9002 24.671C45.9002 26.2637 45.9002 27.8564 45.897 29.4491C45.897 29.5908 45.9683 29.7922 45.8512 29.8625C45.7064 29.9498 45.5723 29.7655 45.4435 29.692C44.9835 29.4299 44.5332 29.1508 44.0839 28.8717C43.9423 28.7833 43.8177 28.7183 43.6495 28.8248C43.1034 29.1721 42.5497 29.5099 42.0004 29.8508C41.8971 29.8923 41.78 29.9765 41.7598 29.7698Z" fill="#4D7ED2"/>
<path d="M41.5236 10.7976C41.5215 10.771 41.5226 10.7443 41.5247 10.7188C41.5417 10.7454 41.5598 10.7731 41.5769 10.7997C41.5598 10.7997 41.5417 10.7987 41.5236 10.7976Z" fill="#028C72"/>
<path d="M41.5222 10.7133C41.4253 10.6622 41.4456 10.5695 41.4424 10.4854C41.5276 10.5408 41.519 10.6292 41.5222 10.7133Z" fill="#028C72"/>
<path d="M45.9004 24.6706C44.5206 24.6706 43.1408 24.6695 41.761 24.6695C41.7599 24.2434 41.7589 23.8161 41.7578 23.39C41.8323 23.3698 41.9069 23.3325 41.9814 23.3325C43.2143 23.3293 44.4461 23.3293 45.6789 23.3325C45.7534 23.3325 45.828 23.3708 45.9025 23.3911C45.9025 23.8183 45.9014 24.2444 45.9004 24.6706Z" fill="#4DC7FE"/>
<path d="M37.4584 12.1215C37.4381 11.1243 38.2994 10.2656 39.3705 10.2454C40.3074 10.2273 41.2187 11.1584 41.191 12.1407C41.1644 13.0728 40.4064 13.9795 39.3247 13.9837C38.2941 13.9891 37.452 13.1421 37.4584 12.1215Z" fill="#016E72"/>
</g>
<defs>
<clipPath id="clip0_1055_436">
<rect width="40" height="40" fill="white" transform="translate(22 3)"/>
</clipPath>
</defs>
</svg>
