<svg width="159" height="32" viewBox="0 0 159 32" fill="none" xmlns="http://www.w3.org/2000/svg">
<path d="M46.0078 17.9609C46.0078 18.638 45.8385 19.2161 45.5 19.6953C45.1667 20.1693 44.6979 20.5312 44.0938 20.7812C43.4896 21.0312 42.7786 21.1562 41.9609 21.1562C41.5286 21.1562 41.1198 21.1354 40.7344 21.0938C40.349 21.0521 39.9948 20.9922 39.6719 20.9141C39.349 20.8359 39.0651 20.7396 38.8203 20.625V19.3516C39.2109 19.513 39.6875 19.6641 40.25 19.8047C40.8125 19.9401 41.401 20.0078 42.0156 20.0078C42.5885 20.0078 43.0729 19.9323 43.4688 19.7812C43.8646 19.625 44.1641 19.4036 44.3672 19.1172C44.5755 18.8255 44.6797 18.4766 44.6797 18.0703C44.6797 17.6797 44.5938 17.3542 44.4219 17.0938C44.25 16.8281 43.9635 16.5885 43.5625 16.375C43.1667 16.1562 42.625 15.9245 41.9375 15.6797C41.4531 15.5078 41.026 15.3203 40.6562 15.1172C40.2865 14.9089 39.9766 14.6745 39.7266 14.4141C39.4766 14.1536 39.2865 13.8516 39.1562 13.5078C39.0312 13.1641 38.9688 12.7708 38.9688 12.3281C38.9688 11.7188 39.1224 11.1979 39.4297 10.7656C39.7422 10.3281 40.1719 9.99479 40.7188 9.76562C41.2708 9.53125 41.9036 9.41406 42.6172 9.41406C43.2266 9.41406 43.7891 9.47135 44.3047 9.58594C44.8255 9.70052 45.3021 9.85417 45.7344 10.0469L45.3203 11.1875C44.9089 11.0156 44.4714 10.8724 44.0078 10.7578C43.5495 10.6432 43.0755 10.5859 42.5859 10.5859C42.0964 10.5859 41.6823 10.6589 41.3438 10.8047C41.0104 10.9453 40.7552 11.1458 40.5781 11.4062C40.401 11.6667 40.3125 11.9766 40.3125 12.3359C40.3125 12.737 40.3958 13.0703 40.5625 13.3359C40.7344 13.6016 41.0052 13.8385 41.375 14.0469C41.75 14.25 42.2448 14.4635 42.8594 14.6875C43.5312 14.9323 44.1016 15.1927 44.5703 15.4688C45.0391 15.7396 45.3958 16.0729 45.6406 16.4688C45.8854 16.8594 46.0078 17.3568 46.0078 17.9609ZM51.4453 12.2812C52.1745 12.2812 52.7995 12.4427 53.3203 12.7656C53.8411 13.0885 54.2396 13.5417 54.5156 14.125C54.7917 14.7031 54.9297 15.3802 54.9297 16.1562V16.9609H49.0156C49.0312 17.9661 49.2812 18.7318 49.7656 19.2578C50.25 19.7839 50.9323 20.0469 51.8125 20.0469C52.3542 20.0469 52.8333 19.9974 53.25 19.8984C53.6667 19.7995 54.099 19.6536 54.5469 19.4609V20.6016C54.1146 20.7943 53.6849 20.9349 53.2578 21.0234C52.8359 21.112 52.3359 21.1562 51.7578 21.1562C50.9349 21.1562 50.2161 20.9896 49.6016 20.6562C48.9922 20.3177 48.5182 19.8229 48.1797 19.1719C47.8411 18.5208 47.6719 17.724 47.6719 16.7812C47.6719 15.8594 47.8255 15.0625 48.1328 14.3906C48.4453 13.7135 48.8828 13.1927 49.4453 12.8281C50.013 12.4635 50.6797 12.2812 51.4453 12.2812ZM51.4297 13.3438C50.737 13.3438 50.1849 13.5703 49.7734 14.0234C49.362 14.4766 49.1172 15.1094 49.0391 15.9219H53.5703C53.5651 15.4115 53.4844 14.9635 53.3281 14.5781C53.1771 14.1875 52.9453 13.8854 52.6328 13.6719C52.3203 13.4531 51.9193 13.3438 51.4297 13.3438ZM60.5625 21.1562C59.7917 21.1562 59.112 20.9974 58.5234 20.6797C57.9349 20.362 57.4766 19.8776 57.1484 19.2266C56.8203 18.5755 56.6562 17.7552 56.6562 16.7656C56.6562 15.7292 56.8281 14.8828 57.1719 14.2266C57.5208 13.5651 58 13.0755 58.6094 12.7578C59.2188 12.4401 59.9115 12.2812 60.6875 12.2812C61.1146 12.2812 61.526 12.3255 61.9219 12.4141C62.3229 12.4974 62.651 12.6042 62.9062 12.7344L62.5156 13.8203C62.2552 13.7161 61.9531 13.6224 61.6094 13.5391C61.2708 13.4557 60.9531 13.4141 60.6562 13.4141C60.0625 13.4141 59.5677 13.5417 59.1719 13.7969C58.7812 14.0521 58.487 14.4271 58.2891 14.9219C58.0964 15.4167 58 16.026 58 16.75C58 17.4427 58.0938 18.0339 58.2812 18.5234C58.474 19.013 58.7578 19.388 59.1328 19.6484C59.513 19.9036 59.987 20.0312 60.5547 20.0312C61.0078 20.0312 61.4167 19.9844 61.7812 19.8906C62.1458 19.7917 62.4766 19.6771 62.7734 19.5469V20.7031C62.487 20.849 62.1667 20.9609 61.8125 21.0391C61.4635 21.1172 61.0469 21.1562 60.5625 21.1562ZM71.875 12.4375V21H70.8125L70.625 19.7969H70.5547C70.3776 20.0938 70.1484 20.3438 69.8672 20.5469C69.5859 20.75 69.2682 20.901 68.9141 21C68.5651 21.1042 68.1927 21.1562 67.7969 21.1562C67.1198 21.1562 66.5521 21.0469 66.0938 20.8281C65.6354 20.6094 65.2891 20.2708 65.0547 19.8125C64.8255 19.3542 64.7109 18.7656 64.7109 18.0469V12.4375H66.0234V17.9531C66.0234 18.6667 66.1849 19.2005 66.5078 19.5547C66.8307 19.9036 67.3229 20.0781 67.9844 20.0781C68.6198 20.0781 69.125 19.9583 69.5 19.7188C69.8802 19.4792 70.1536 19.1276 70.3203 18.6641C70.487 18.1953 70.5703 17.6224 70.5703 16.9453V12.4375H71.875ZM78.5078 12.2812C78.6797 12.2812 78.8594 12.2917 79.0469 12.3125C79.2344 12.3281 79.401 12.3516 79.5469 12.3828L79.3828 13.5859C79.2422 13.5495 79.0859 13.5208 78.9141 13.5C78.7422 13.4792 78.5807 13.4688 78.4297 13.4688C78.0859 13.4688 77.7604 13.5391 77.4531 13.6797C77.151 13.8151 76.8854 14.013 76.6562 14.2734C76.4271 14.5286 76.2474 14.8385 76.1172 15.2031C75.987 15.5625 75.9219 15.9635 75.9219 16.4062V21H74.6172V12.4375H75.6953L75.8359 14.0156H75.8906C76.0677 13.6979 76.2812 13.4089 76.5312 13.1484C76.7812 12.8828 77.0703 12.6719 77.3984 12.5156C77.7318 12.3594 78.1016 12.2812 78.5078 12.2812ZM84.4609 12.2812C85.1901 12.2812 85.8151 12.4427 86.3359 12.7656C86.8568 13.0885 87.2552 13.5417 87.5312 14.125C87.8073 14.7031 87.9453 15.3802 87.9453 16.1562V16.9609H82.0312C82.0469 17.9661 82.2969 18.7318 82.7812 19.2578C83.2656 19.7839 83.9479 20.0469 84.8281 20.0469C85.3698 20.0469 85.849 19.9974 86.2656 19.8984C86.6823 19.7995 87.1146 19.6536 87.5625 19.4609V20.6016C87.1302 20.7943 86.7005 20.9349 86.2734 21.0234C85.8516 21.112 85.3516 21.1562 84.7734 21.1562C83.9505 21.1562 83.2318 20.9896 82.6172 20.6562C82.0078 20.3177 81.5339 19.8229 81.1953 19.1719C80.8568 18.5208 80.6875 17.724 80.6875 16.7812C80.6875 15.8594 80.8411 15.0625 81.1484 14.3906C81.4609 13.7135 81.8984 13.1927 82.4609 12.8281C83.0286 12.4635 83.6953 12.2812 84.4609 12.2812ZM84.4453 13.3438C83.7526 13.3438 83.2005 13.5703 82.7891 14.0234C82.3776 14.4766 82.1328 15.1094 82.0547 15.9219H86.5859C86.5807 15.4115 86.5 14.9635 86.3438 14.5781C86.1927 14.1875 85.9609 13.8854 85.6484 13.6719C85.3359 13.4531 84.9349 13.3438 84.4453 13.3438ZM98.3281 12.2812C99.3958 12.2812 100.247 12.6484 100.883 13.3828C101.518 14.1172 101.836 15.2214 101.836 16.6953C101.836 17.6693 101.69 18.487 101.398 19.1484C101.107 19.8099 100.695 20.3099 100.164 20.6484C99.638 20.987 99.0156 21.1562 98.2969 21.1562C97.8438 21.1562 97.4453 21.0964 97.1016 20.9766C96.7578 20.8568 96.4635 20.6953 96.2188 20.4922C95.974 20.2891 95.7708 20.0677 95.6094 19.8281H95.5156C95.5312 20.0312 95.5495 20.276 95.5703 20.5625C95.5964 20.849 95.6094 21.099 95.6094 21.3125V24.8281H94.3047V12.4375H95.375L95.5469 13.7031H95.6094C95.776 13.4427 95.9792 13.2057 96.2188 12.9922C96.4583 12.7734 96.75 12.6016 97.0938 12.4766C97.4427 12.3464 97.8542 12.2812 98.3281 12.2812ZM98.1016 13.375C97.5078 13.375 97.0286 13.4896 96.6641 13.7188C96.3047 13.9479 96.0417 14.2917 95.875 14.75C95.7083 15.2031 95.6198 15.7734 95.6094 16.4609V16.7109C95.6094 17.4349 95.6875 18.0469 95.8438 18.5469C96.0052 19.0469 96.2682 19.4271 96.6328 19.6875C97.0026 19.9479 97.4974 20.0781 98.1172 20.0781C98.6484 20.0781 99.0911 19.9349 99.4453 19.6484C99.7995 19.362 100.062 18.9635 100.234 18.4531C100.411 17.9375 100.5 17.3464 100.5 16.6797C100.5 15.6693 100.302 14.8672 99.9062 14.2734C99.5156 13.6745 98.9141 13.375 98.1016 13.375ZM107.305 12.2969C108.326 12.2969 109.083 12.526 109.578 12.9844C110.073 13.4427 110.32 14.1745 110.32 15.1797V21H109.375L109.125 19.7344H109.062C108.823 20.0469 108.573 20.3099 108.312 20.5234C108.052 20.7318 107.75 20.8906 107.406 21C107.068 21.1042 106.651 21.1562 106.156 21.1562C105.635 21.1562 105.172 21.0651 104.766 20.8828C104.365 20.7005 104.047 20.4245 103.812 20.0547C103.583 19.6849 103.469 19.2161 103.469 18.6484C103.469 17.7943 103.807 17.138 104.484 16.6797C105.161 16.2214 106.193 15.9714 107.578 15.9297L109.055 15.8672V15.3438C109.055 14.6042 108.896 14.0859 108.578 13.7891C108.26 13.4922 107.812 13.3438 107.234 13.3438C106.786 13.3438 106.359 13.4089 105.953 13.5391C105.547 13.6693 105.161 13.8229 104.797 14L104.398 13.0156C104.784 12.8177 105.227 12.6484 105.727 12.5078C106.227 12.3672 106.753 12.2969 107.305 12.2969ZM109.039 16.7812L107.734 16.8359C106.667 16.8776 105.914 17.0521 105.477 17.3594C105.039 17.6667 104.82 18.1016 104.82 18.6641C104.82 19.1536 104.969 19.5156 105.266 19.75C105.562 19.9844 105.956 20.1016 106.445 20.1016C107.206 20.1016 107.828 19.8906 108.312 19.4688C108.797 19.0469 109.039 18.4141 109.039 17.5703V16.7812ZM111.641 12.4375H113.031L114.922 17.4062C115.031 17.6979 115.133 17.9792 115.227 18.25C115.32 18.5156 115.404 18.7708 115.477 19.0156C115.549 19.2604 115.607 19.4974 115.648 19.7266H115.703C115.776 19.4661 115.88 19.125 116.016 18.7031C116.151 18.276 116.297 17.8411 116.453 17.3984L118.242 12.4375H119.641L115.914 22.2578C115.716 22.7839 115.484 23.2422 115.219 23.6328C114.958 24.0234 114.641 24.3229 114.266 24.5312C113.891 24.7448 113.438 24.8516 112.906 24.8516C112.661 24.8516 112.445 24.8359 112.258 24.8047C112.07 24.7786 111.909 24.7474 111.773 24.7109V23.6719C111.888 23.6979 112.026 23.7214 112.188 23.7422C112.354 23.763 112.526 23.7734 112.703 23.7734C113.026 23.7734 113.305 23.7109 113.539 23.5859C113.779 23.4661 113.984 23.2891 114.156 23.0547C114.328 22.8203 114.477 22.5417 114.602 22.2188L115.07 21.0156L111.641 12.4375ZM130.305 12.2812C131.247 12.2812 131.958 12.5286 132.438 13.0234C132.917 13.513 133.156 14.3021 133.156 15.3906V21H131.875V15.4531C131.875 14.7604 131.724 14.2422 131.422 13.8984C131.125 13.5495 130.682 13.375 130.094 13.375C129.266 13.375 128.664 13.6146 128.289 14.0938C127.914 14.5729 127.727 15.2786 127.727 16.2109V21H126.438V15.4531C126.438 14.9896 126.37 14.6042 126.234 14.2969C126.104 13.9896 125.906 13.7604 125.641 13.6094C125.38 13.4531 125.049 13.375 124.648 13.375C124.081 13.375 123.625 13.4922 123.281 13.7266C122.938 13.9609 122.688 14.3099 122.531 14.7734C122.38 15.2318 122.305 15.7969 122.305 16.4688V21H121.008V12.4375H122.055L122.25 13.6484H122.32C122.492 13.3516 122.708 13.1016 122.969 12.8984C123.229 12.6953 123.521 12.5417 123.844 12.4375C124.167 12.3333 124.51 12.2812 124.875 12.2812C125.526 12.2812 126.07 12.4036 126.508 12.6484C126.951 12.888 127.271 13.2552 127.469 13.75H127.539C127.82 13.2552 128.206 12.888 128.695 12.6484C129.185 12.4036 129.721 12.2812 130.305 12.2812ZM139.117 12.2812C139.846 12.2812 140.471 12.4427 140.992 12.7656C141.513 13.0885 141.911 13.5417 142.188 14.125C142.464 14.7031 142.602 15.3802 142.602 16.1562V16.9609H136.688C136.703 17.9661 136.953 18.7318 137.438 19.2578C137.922 19.7839 138.604 20.0469 139.484 20.0469C140.026 20.0469 140.505 19.9974 140.922 19.8984C141.339 19.7995 141.771 19.6536 142.219 19.4609V20.6016C141.786 20.7943 141.357 20.9349 140.93 21.0234C140.508 21.112 140.008 21.1562 139.43 21.1562C138.607 21.1562 137.888 20.9896 137.273 20.6562C136.664 20.3177 136.19 19.8229 135.852 19.1719C135.513 18.5208 135.344 17.724 135.344 16.7812C135.344 15.8594 135.497 15.0625 135.805 14.3906C136.117 13.7135 136.555 13.1927 137.117 12.8281C137.685 12.4635 138.352 12.2812 139.117 12.2812ZM139.102 13.3438C138.409 13.3438 137.857 13.5703 137.445 14.0234C137.034 14.4766 136.789 15.1094 136.711 15.9219H141.242C141.237 15.4115 141.156 14.9635 141 14.5781C140.849 14.1875 140.617 13.8854 140.305 13.6719C139.992 13.4531 139.591 13.3438 139.102 13.3438ZM148.859 12.2812C149.875 12.2812 150.643 12.5312 151.164 13.0312C151.685 13.526 151.945 14.3229 151.945 15.4219V21H150.664V15.5078C150.664 14.7943 150.5 14.2604 150.172 13.9062C149.849 13.5521 149.352 13.375 148.68 13.375C147.732 13.375 147.065 13.6432 146.68 14.1797C146.294 14.7161 146.102 15.4948 146.102 16.5156V21H144.805V12.4375H145.852L146.047 13.6719H146.117C146.299 13.3698 146.531 13.1172 146.812 12.9141C147.094 12.7057 147.409 12.5495 147.758 12.4453C148.107 12.3359 148.474 12.2812 148.859 12.2812ZM157.383 20.0938C157.596 20.0938 157.815 20.0755 158.039 20.0391C158.263 20.0026 158.445 19.9583 158.586 19.9062V20.9141C158.435 20.9818 158.224 21.0391 157.953 21.0859C157.688 21.1328 157.427 21.1562 157.172 21.1562C156.719 21.1562 156.307 21.0781 155.938 20.9219C155.568 20.7604 155.271 20.4896 155.047 20.1094C154.828 19.7292 154.719 19.2031 154.719 18.5312V13.4531H153.5V12.8203L154.727 12.3125L155.242 10.4531H156.023V12.4375H158.531V13.4531H156.023V18.4922C156.023 19.0286 156.146 19.4297 156.391 19.6953C156.641 19.9609 156.971 20.0938 157.383 20.0938Z" fill="#1F1E23"/>
<g clip-path="url(#clip0_738_931)">
<path d="M19.4338 27.3961C18.5171 28.2289 17.501 28.9138 16.4216 29.5213C15.1317 30.2472 13.8023 30.8778 12.4212 31.4064C12.362 31.4294 12.2691 31.404 12.2444 31.4977C12.0603 31.4977 11.8753 31.4977 11.6911 31.4977C11.6163 31.3678 11.4716 31.3612 11.3532 31.3143C9.49937 30.5851 7.70634 29.7383 6.06868 28.5907C6.02758 28.5619 5.99305 28.5241 5.95605 28.4896C6.07526 28.4164 6.20762 28.4205 6.34163 28.4205C7.14812 28.4221 7.95379 28.4221 8.76029 28.4205C8.88854 28.4205 9.03405 28.4567 9.10804 28.2988C9.26507 28.381 9.41716 28.4731 9.57829 28.543C10.3396 28.8751 11.1041 29.2007 11.8662 29.532C11.9575 29.5715 12.0356 29.5739 12.1277 29.5345C12.3776 29.4268 12.6341 29.333 12.8848 29.227C14.1764 28.6786 15.4235 28.0456 16.6033 27.2852C16.6263 27.3353 16.6649 27.3764 16.72 27.3649C17.2264 27.2588 17.7386 27.3263 18.2475 27.3205C18.6438 27.3156 19.0466 27.2547 19.4338 27.3961Z" fill="#0BB99D"/>
<path d="M19.1367 4.24414C20.0648 4.59436 21.021 4.83277 22.0058 4.94952C22.37 4.99227 22.7375 5.01528 23.1042 5.03666C23.6049 5.06626 23.9814 5.41565 23.9913 5.91386C24.0036 6.58881 23.9888 7.26377 23.9863 7.93872C23.3771 7.93872 22.7688 7.93872 22.1596 7.93872C22.1563 7.65263 22.1423 7.36653 22.153 7.08126C22.1596 6.90779 22.1152 6.82229 21.9277 6.80421C21.6343 6.77543 21.3416 6.72857 21.0505 6.6776C19.8281 6.46138 18.6607 6.0643 17.5303 5.56363C16.7591 5.22246 15.9871 4.87552 15.2949 4.38226C15.4232 4.30498 15.5654 4.30744 15.7084 4.30827C16.746 4.30991 17.7843 4.30991 18.8218 4.30744C18.9278 4.3058 19.0479 4.3469 19.1367 4.24414Z" fill="#80F0A9"/>
<path d="M0.0144421 7.26261C0.0111536 6.81292 -0.00282231 6.36404 0.00786518 5.91434C0.0185527 5.47122 0.353153 5.07661 0.770788 5.04948C1.72773 4.98618 2.67809 4.89163 3.61119 4.66309C3.73862 4.74859 3.88167 4.73954 4.02472 4.73872C5.20856 4.7379 6.39159 4.73625 7.57543 4.74119C7.68231 4.74201 7.83358 4.67131 7.87797 4.85628C7.52857 5.06428 7.14629 5.20322 6.7862 5.38655C5.36477 6.11165 3.86441 6.5745 2.28348 6.7677C1.95299 6.80798 1.78117 6.91157 1.83954 7.26261C1.23117 7.26261 0.622807 7.26261 0.0144421 7.26261Z" fill="#80F0A9"/>
<path d="M9.10846 28.2991C9.03365 28.4578 8.88896 28.4208 8.76071 28.4208C7.95421 28.4224 7.14854 28.4224 6.34205 28.4208C6.20886 28.4208 6.0765 28.4166 5.95647 28.4898C5.02748 27.8864 4.20948 27.1514 3.46382 26.3367C2.97631 25.804 2.49866 25.2605 2.14844 24.6218C2.23065 24.5091 2.35232 24.5486 2.4592 24.5478C2.95822 24.5445 3.45642 24.5478 3.95545 24.5445C4.0615 24.5437 4.18482 24.5823 4.25881 24.459C5.00118 25.3567 5.84384 26.146 6.77941 26.839C7.51849 27.3865 8.31594 27.8379 9.10846 28.2991Z" fill="#1AC09F"/>
<path d="M8.1123 2.63945C8.77657 2.16509 9.48524 1.75568 10.1265 1.24761C10.526 0.930275 10.928 0.614583 11.3194 0.288203C11.7502 -0.071061 12.2147 -0.104768 12.6249 0.245453C13.5596 1.0429 14.5454 1.76719 15.5878 2.41748C15.6297 2.44379 15.6634 2.48407 15.7012 2.51778C15.582 2.59588 15.448 2.58684 15.3149 2.58684C14.5873 2.58601 13.8597 2.58601 13.1321 2.58684C13.0006 2.58684 12.8576 2.56135 12.7926 2.72495C12.6052 2.64027 12.4481 2.50956 12.3076 2.36815C12.0963 2.15687 11.9162 2.15194 11.7 2.36158C11.5265 2.52847 11.3375 2.68467 11.1147 2.78908C10.9864 2.71262 10.8458 2.70769 10.7011 2.70851C9.96617 2.71098 9.2312 2.70933 8.49705 2.71015C8.36387 2.70933 8.23069 2.71673 8.1123 2.63945Z" fill="#93FAAB"/>
<path d="M23.4394 21.1018C23.173 22.1574 22.7554 23.1481 22.1856 24.0779C21.9201 24.5112 21.6907 24.9658 21.3446 25.3448C21.2336 25.2749 21.1103 25.2848 20.9878 25.2848C20.4765 25.2856 19.9651 25.2856 19.4537 25.2848C19.3329 25.2848 19.2022 25.307 19.1348 25.1631C20.2183 23.9447 21.0536 22.5817 21.56 21.0254C21.9357 21.0303 22.3122 21.0279 22.6879 21.0427C22.9387 21.0533 23.1968 20.9843 23.4394 21.1018Z" fill="#27C7A0"/>
<path d="M8.11225 2.63965C8.23064 2.71693 8.36382 2.70953 8.497 2.70953C9.23197 2.70871 9.96694 2.71035 10.7011 2.70788C10.8458 2.70706 10.9864 2.71199 11.1146 2.78845C10.1116 3.59741 9.02398 4.27319 7.87713 4.85689C7.83356 4.67192 7.68229 4.74262 7.57459 4.7418C6.39074 4.73686 5.20772 4.73851 4.02388 4.73933C3.88083 4.73933 3.73696 4.74837 3.61035 4.6637C4.13733 4.4483 4.68897 4.30443 5.21594 4.08575C6.12273 3.71086 6.99089 3.26446 7.84013 2.77694C7.92892 2.72597 8.02182 2.68486 8.11225 2.63965Z" fill="#89F5AA"/>
<path d="M12.793 2.7246C12.8579 2.56017 13.001 2.58648 13.1325 2.58566C13.8601 2.58484 14.5876 2.58484 15.3152 2.58566C15.4484 2.58566 15.5824 2.5947 15.7016 2.5166C16.8123 3.16032 17.9468 3.75717 19.1364 4.24304C19.0484 4.34663 18.9276 4.30552 18.8215 4.30552C17.784 4.30881 16.7457 4.30799 15.7082 4.30635C15.5651 4.30635 15.4229 4.30306 15.2947 4.38034C14.406 3.91255 13.5748 3.35516 12.793 2.7246Z" fill="#89F5AA"/>
<path d="M19.1358 25.1631C19.2024 25.307 19.3339 25.2839 19.4548 25.2848C19.9661 25.2856 20.4775 25.2856 20.9888 25.2848C21.1113 25.2848 21.2355 25.2749 21.3456 25.3448C20.7981 26.1118 20.1626 26.7975 19.4342 27.3968C19.047 27.2554 18.6442 27.3162 18.2487 27.3211C17.7398 27.3269 17.2277 27.2587 16.7212 27.3655C16.6662 27.377 16.6275 27.3359 16.6045 27.2858C17.5146 26.6569 18.3638 25.9564 19.1358 25.1631Z" fill="#1AC09F"/>
<path d="M23.4389 21.1014C23.1964 20.9838 22.9383 21.0529 22.6875 21.043C22.3118 21.0282 21.9353 21.0307 21.5596 21.0257C21.83 20.1263 22.0043 19.2072 22.1013 18.2733C22.7105 18.2733 23.3189 18.2733 23.9281 18.2725C23.8845 19.236 23.7365 20.1814 23.4389 21.1014Z" fill="#3AD0A2"/>
<path d="M0.0136719 7.26172C0.622037 7.26172 1.2304 7.26172 1.83877 7.26172C1.83877 8.20468 1.83877 9.14765 1.83877 10.0906C1.2304 10.0906 0.622037 10.0906 0.0136719 10.0906C0.0136719 9.14765 0.0136719 8.20468 0.0136719 7.26172Z" fill="#6EE8A7"/>
<path d="M22.1582 7.93848C22.7674 7.93848 23.3758 7.93848 23.9849 7.93848C23.9849 8.84034 23.9849 9.74302 23.9841 10.6449C23.3758 10.6449 22.7666 10.6449 22.1582 10.6449C22.159 9.7422 22.1582 8.84034 22.1582 7.93848Z" fill="#6EE8A7"/>
<path d="M0.0136719 10.0908C0.622037 10.0908 1.2304 10.0908 1.83877 10.0908C1.83877 10.9935 1.83877 11.8954 1.83877 12.798C1.2304 12.798 0.622037 12.798 0.0136719 12.798C0.0136719 11.8954 0.0136719 10.9935 0.0136719 10.0908Z" fill="#63E3A6"/>
<path d="M23.9283 18.2727C23.3191 18.2727 22.7107 18.2727 22.1016 18.2735C22.1756 17.393 22.1328 16.5101 22.1583 15.6279C22.7667 15.6279 23.375 15.6279 23.9834 15.6279C23.9817 16.5092 24.0475 17.393 23.9283 18.2727Z" fill="#48D6A3"/>
<path d="M22.1592 10.6445C22.7675 10.6445 23.3767 10.6445 23.9851 10.6445C23.9851 11.5267 23.9851 12.408 23.9851 13.2901C23.3767 13.2901 22.7675 13.2901 22.1592 13.2901C22.1592 12.4088 22.1592 11.5267 22.1592 10.6445Z" fill="#63E3A6"/>
<path d="M0.361122 20.3059C0.131752 19.4592 0.0585841 18.5927 0.0273438 17.7204C0.633242 17.7196 1.23996 17.7196 1.84586 17.7188C1.93136 18.5647 2.02673 19.409 2.20841 20.241C1.59676 20.352 0.977709 20.2796 0.361122 20.3059Z" fill="#3DD1A2"/>
<path d="M0.0136719 12.7988C0.622037 12.7988 1.2304 12.7988 1.83877 12.7988C1.83877 13.6193 1.83877 14.4389 1.83877 15.2594C1.2304 15.2594 0.622859 15.2594 0.014494 15.2594C0.0136719 14.4389 0.0136719 13.6185 0.0136719 12.7988Z" fill="#55DCA5"/>
<path d="M0.0139877 15.2588C0.622353 15.2588 1.2299 15.2588 1.83826 15.2588C1.84073 16.0784 1.84319 16.8989 1.84566 17.7186C1.23976 17.7194 0.63304 17.7194 0.0271416 17.7202C-0.0188969 16.8997 0.00576659 16.0793 0.0139877 15.2588Z" fill="#48D6A3"/>
<path d="M4.25888 24.4599C4.18489 24.5832 4.06157 24.5446 3.95552 24.5454C3.45649 24.5487 2.95829 24.5446 2.45927 24.5487C2.35239 24.5495 2.23154 24.5101 2.14851 24.6227C1.68566 23.9724 1.31653 23.2728 1.04688 22.5214C1.13402 22.4178 1.25405 22.4581 1.36092 22.4572C1.90927 22.4539 2.45762 22.4564 3.00598 22.4564C3.36688 23.1593 3.79603 23.8203 4.25888 24.4599Z" fill="#27C7A0"/>
<path d="M22.1592 13.29C22.7675 13.29 23.3767 13.29 23.9851 13.29C23.9851 14.0694 23.9851 14.8488 23.9843 15.6273C23.3759 15.6273 22.7675 15.6273 22.1592 15.6273C22.1592 14.8488 22.1592 14.0694 22.1592 13.29Z" fill="#55DCA5"/>
<path d="M3.00607 22.456C2.45772 22.456 1.90937 22.4535 1.36102 22.4568C1.25414 22.4576 1.13412 22.4173 1.04697 22.5209C0.723881 21.8123 0.487112 21.0765 0.361328 20.3062C0.977092 20.2807 1.59614 20.3522 2.20944 20.2412C2.40511 21.005 2.69449 21.7342 3.00607 22.456Z" fill="#34CDA1"/>
<path d="M16.5512 20.3023C15.5334 21.3177 14.3208 21.9523 12.8912 22.1455C11.1491 22.3807 9.56817 21.9614 8.14838 20.9329C7.89352 20.7479 7.64689 20.5498 7.44629 20.3023C7.48493 20.1149 7.6362 20.1823 7.74472 20.1815C8.49037 20.1766 9.23686 20.1807 9.98251 20.1766C10.091 20.1757 10.2431 20.2399 10.2777 20.0508C11.4253 20.4676 12.5722 20.4684 13.7198 20.0508C13.7544 20.2399 13.9056 20.1766 14.0142 20.1774C14.7606 20.1823 15.5063 20.1774 16.2528 20.1823C16.3605 20.1823 16.5126 20.1149 16.5512 20.3023Z" fill="#34CDA1"/>
<path d="M6.17285 12.9832C6.59295 12.0731 7.1931 11.306 7.99877 10.7051C8.29966 10.7807 8.60631 10.7676 8.91214 10.7676C10.9699 10.7667 13.0285 10.7667 15.0862 10.7676C15.392 10.7676 15.6987 10.7799 15.9996 10.7051C16.6499 11.1951 17.1875 11.7804 17.5509 12.5162C17.4827 12.6477 17.3585 12.6116 17.2517 12.6124C16.7609 12.6157 16.2692 12.6107 15.7784 12.6157C15.6773 12.6165 15.54 12.5622 15.5071 12.7324C15.4184 12.6486 15.3296 12.5655 15.2416 12.4808C14.0199 11.3069 12.5763 10.9057 10.928 11.2649C9.83373 11.5034 8.98777 12.143 8.28486 12.9922C8.12784 12.9577 7.97411 12.9116 7.80804 12.9182C7.26215 12.9388 6.7138 12.8755 6.17285 12.9832Z" fill="#63E3A6"/>
<path d="M15.9998 10.7047C15.699 10.7803 15.3931 10.768 15.0865 10.7672C13.0287 10.7663 10.9701 10.7663 8.91239 10.7672C8.60657 10.7672 8.29992 10.7811 7.99902 10.7047C8.87047 9.96314 9.88907 9.53317 11.008 9.36628C12.8002 9.0991 14.4337 9.51837 15.8938 10.597C15.9341 10.6266 15.9645 10.6685 15.9998 10.7047Z" fill="#6EE8A7"/>
<path d="M16.5521 20.3031C16.5134 20.1156 16.3613 20.1831 16.2536 20.1822C15.5072 20.1773 14.7615 20.1814 14.015 20.1773C13.9065 20.1765 13.7544 20.2406 13.7207 20.0507C14.7927 19.5689 15.6124 18.8159 16.1624 17.7734C16.8119 17.7775 17.4613 17.7808 18.11 17.7849C17.777 18.7394 17.3092 19.6109 16.5521 20.3031Z" fill="#3DD1A2"/>
<path d="M6.17313 12.9834C6.7149 12.8757 7.26243 12.939 7.80749 12.9176C7.97438 12.911 8.1273 12.9571 8.28432 12.9916C7.71953 13.8022 7.41041 14.6991 7.37588 15.689C6.92783 15.689 6.47978 15.6947 6.03255 15.6849C5.85497 15.6808 5.69548 15.7079 5.55079 15.8115C5.51955 14.8167 5.73823 13.8762 6.17313 12.9834Z" fill="#55DCA5"/>
<path d="M15.5068 12.7318C15.5397 12.5608 15.677 12.6159 15.7781 12.6151C16.2689 12.6102 16.7606 12.6143 17.2514 12.6118C17.3582 12.611 17.4832 12.6472 17.5506 12.5156C18.0439 13.2235 18.2642 14.0291 18.3957 14.8669C18.413 14.9754 18.4105 15.0872 18.4171 15.1974C17.8112 15.1982 17.2053 15.1982 16.5994 15.199C16.4498 14.2815 16.0922 13.4561 15.5068 12.7318Z" fill="#55DCA5"/>
<path d="M10.2782 20.0499C10.2437 20.239 10.0924 20.1749 9.98305 20.1757C9.23739 20.1806 8.49091 20.1757 7.74525 20.1806C7.63756 20.1814 7.48547 20.114 7.44683 20.3015C6.80722 19.6931 6.31806 18.9861 6.02539 18.1492C6.19228 18.099 6.36164 18.0817 6.53592 18.0842C7.02508 18.09 7.51424 18.0859 8.0034 18.0859C8.56408 18.9705 9.327 19.6191 10.2782 20.0499Z" fill="#3DD1A2"/>
<path d="M16.5995 15.1989C17.2054 15.1981 17.8113 15.1981 18.4172 15.1973C18.5232 16.0843 18.4188 16.9467 18.1097 17.7845C17.4602 17.7804 16.8108 17.7771 16.1621 17.773C16.5222 16.9508 16.6776 16.095 16.5995 15.1989Z" fill="#48D6A3"/>
<path d="M8.003 18.0872C7.51384 18.0872 7.02468 18.0913 6.53552 18.0855C6.36041 18.0839 6.19105 18.1003 6.02499 18.1505C5.6797 17.4089 5.55145 16.623 5.5498 15.8116C5.6945 15.708 5.85399 15.6809 6.03156 15.685C6.47962 15.6948 6.92685 15.6883 7.3749 15.6891C7.37654 16.5433 7.60838 17.3366 8.003 18.0872Z" fill="#48D6A3"/>
<path d="M10.6502 15.9188C10.6774 15.9311 10.7094 15.9385 10.7325 15.9566C11.0934 16.2419 11.0934 16.2427 11.4263 15.9607C11.5052 16.0997 11.6401 16.0553 11.756 16.0561C12.3167 16.0602 12.8773 16.0594 13.438 16.0561C13.5729 16.0553 13.7019 16.0676 13.8203 16.1367C13.1191 16.8461 12.4268 17.5647 11.7116 18.2602C11.3318 18.6301 10.8056 18.6088 10.4159 18.2404C10.1044 17.9461 9.80511 17.6378 9.50503 17.3312C9.04301 16.8576 9.19592 16.1671 9.65713 15.918C9.66863 15.9796 9.6859 16.047 9.75907 16.0479C10.0221 16.0528 10.2852 16.0528 10.5475 16.0479C10.6215 16.0479 10.6387 15.9805 10.6502 15.9188Z" fill="#48D6A3"/>
<path d="M13.8208 16.1372C13.7024 16.0681 13.5733 16.0558 13.4385 16.0566C12.8778 16.0599 12.3171 16.0599 11.7564 16.0566C11.6405 16.0558 11.5057 16.1002 11.4268 15.9612C12.0236 15.3578 12.6098 14.7429 13.2214 14.155C13.5922 13.7982 14.1488 13.827 14.4974 14.1748C14.8451 14.5217 14.8657 15.0676 14.5212 15.4523C14.3033 15.6949 14.0551 15.9094 13.8208 16.1372Z" fill="#52DAA5"/>
<path d="M10.6503 15.9183C10.6388 15.9799 10.6216 16.0473 10.5476 16.0482C10.2845 16.0531 10.0214 16.0531 9.75917 16.0482C9.68518 16.0465 9.66791 15.9799 9.65723 15.9183C9.98772 15.6848 10.319 15.6848 10.6503 15.9183Z" fill="#52DAA5"/>
</g>
<defs>
<clipPath id="clip0_738_931">
<rect width="24" height="31.4985" fill="white"/>
</clipPath>
</defs>
</svg>
