<svg width="70" height="130" viewBox="0 0 70 130" fill="none" xmlns="http://www.w3.org/2000/svg">
<g clip-path="url(#clip0_1_22258)">
<path fill-rule="evenodd" clip-rule="evenodd" d="M8.22266 72.1373C8.14898 70.8877 6.82268 69.9763 6.05638 68.8002C5.23113 67.5506 4.86271 65.9776 3.89009 64.8751C3.84588 64.728 3.72799 64.6398 3.4922 64.6839C2.51959 68.0798 4.9806 72.3137 8.22266 72.1373Z" fill="#492727"/>
<path fill-rule="evenodd" clip-rule="evenodd" d="M3.90525 74.4895C5.01049 74.4895 6.11574 74.4748 6.45468 73.7103C2.29895 73.2693 2.00422 68.9913 0.162144 66.257C-0.677844 69.5794 1.90107 72.6959 3.90525 74.4895Z" fill="#492727"/>
<path fill-rule="evenodd" clip-rule="evenodd" d="M68.791 129.809C71.9741 130.706 75.0246 128.398 76.6604 126.472C74.7446 126.251 73.0352 127.942 71.1489 128.633C70.3236 128.927 69.0268 128.618 68.791 129.809Z" fill="#492727"/>
<path fill-rule="evenodd" clip-rule="evenodd" d="M17.2715 69.7852C26.9977 70.5643 37.4607 69.1236 46.3763 69.3882C40.5996 71.5493 34.2334 73.0782 27.4987 75.6655C22.0609 77.7531 14 80.2522 11.5684 84.883C11.0674 85.8385 10.5516 87.7056 10.7874 88.9992C12.0842 96.1145 24.0651 91.5425 28.2798 89.5873C37.2838 85.3975 44.9321 79.6201 51.8731 73.9014C52.3447 73.5192 53.0373 72.2843 53.8331 72.9165C46.509 79.8259 37.1807 86.6471 29.4587 93.9093C25.9072 97.2464 21.0588 100.731 21.5893 107.052C21.9135 110.845 25.6272 115.887 31.625 114.696C33.0102 114.417 35.1912 112.947 36.3407 111.947C38.3743 110.183 40.688 107.331 42.4417 104.685C47.6879 96.7613 51.9468 86.162 57.3846 79.7671C53.7889 89.3668 45.1532 100.407 44.21 112.741C43.8416 117.519 45.6248 121.959 50.1047 121.371C51.8878 121.135 53.4794 118.871 54.6288 117.254C58.4604 111.83 60.2877 105.141 61.7024 98.0256C61.9087 101.657 61.4372 105.552 61.7024 109.213C62.115 114.829 64.8413 125.163 70.1612 125.296C75.2159 125.428 76.9696 120.048 77.2348 115.49C77.898 104.465 73.138 93.4095 72.7107 84.5008C74.317 90.1606 76.1148 96.7613 78.2222 103.524C80.1821 109.845 81.8769 116.931 85.6936 120.591C86.681 121.547 88.5525 122.503 90.0262 122.547C95.5819 122.752 96.525 117.695 95.9208 112.153C94.8598 102.245 87.8747 93.8652 84.3231 87.4409C89.6283 94.218 95.3167 102.583 102.803 108.228C105.146 109.992 108.963 112.315 112.441 111.756C113.737 111.55 116.906 109.889 117.363 108.816C118.158 106.964 117.215 103.333 116.582 101.76C112.676 91.9982 100.386 86.897 93.7693 80.3845C101.447 83.31 108.992 90.9692 118.748 91.5719C122.992 91.8365 127.192 90.7339 126.411 86.0738C125.114 78.3117 113.06 76.2683 107.342 72.9312C107.401 72.9459 107.474 72.9165 107.533 72.9312C115.904 75.3568 128.695 73.8132 130.139 67.0508C130.832 63.8019 129.388 60.9352 128.371 59.5975C124.009 53.8347 112.632 56.819 103.79 57.8333C97.1735 58.5978 90.8662 60.1708 85.6936 59.9944C96.083 57.5393 112.161 57.5393 121.872 53.3202C125.247 51.8648 129.52 48.6159 129.933 44.8819C130.596 38.9133 124.657 37.4432 119.308 37.8254C111.999 38.3547 104.571 41.4124 100.032 43.5147C102.714 41.4859 105.603 39.1191 108.285 36.6494C110.982 34.1796 114.135 31.8275 116.154 29.196C117.245 27.7553 119.131 24.6534 118.512 22.1396C118.188 20.8312 115.771 18.5967 114.18 18.2144C111.556 17.5823 109.036 19.023 106.9 20.1697C101.02 23.3597 96.4808 26.7998 92.5462 31.1512C88.3757 35.782 84.5589 40.1923 81.14 44.8819C79.9611 46.5137 79.3274 48.6159 77.6032 49.395C82.3779 41.5595 89.5104 34.0326 93.9314 25.2709C95.464 22.2131 97.2471 18.3908 97.4682 15.2743C97.7629 10.9816 96.5545 6.92415 91.7651 7.8209C90.4388 8.07082 88.2431 9.86433 87.0494 10.9522C80.919 16.5532 77.2348 25.4326 74.2728 33.1211C74.877 25.0209 78.5611 12.2312 74.4643 4.88072C72.3128 1.02909 64.8561 -2.014 61.0982 1.73473C57.8267 4.99833 55.8372 12.3635 55.9993 19.17C53.1994 14.0247 50.4731 4.96893 42.8248 5.04243C37.5491 5.10124 36.5175 10.2318 37.1217 15.6418C37.7259 21.0664 41.469 26.9762 43.2227 30.7396C38.2859 26.4616 33.246 17.8763 25.9219 16.2298C21.9578 15.3478 18.5831 18.0233 18.642 22.1102C18.7157 26.4028 22.4441 29.8134 24.9345 32.1215C32.1555 38.7663 42.0585 45.2053 49.7068 51.3502C50.7973 52.2323 52.5657 52.9232 52.6541 54.4962C49.2794 53.8788 46.2142 51.8942 43.2227 49.9831C37.4902 46.3225 32.0376 41.9564 25.3324 39.1926C22.0314 37.8401 16.6378 36.1936 13.1453 36.8405C7.56007 37.8548 8.82742 44.6466 11.3769 47.6309C16.3431 53.4525 26.2756 56.1868 34.587 58.4214C26.9535 57.2747 14.8989 56.4221 9.60846 60.3766C8.63585 61.0969 6.77903 63.3315 6.85272 64.684C7.04429 68.1387 13.9705 69.5206 17.2715 69.7852Z" fill="#492727"/>
<path fill-rule="evenodd" clip-rule="evenodd" d="M69.9694 46.6312C68.3337 46.6312 66.6979 46.6312 65.0474 46.6312C63.618 42.9707 62.4096 38.531 61.3191 33.6797C60.3317 29.343 58.6812 24.3888 58.5633 19.758C58.4749 16.5679 59.1675 12.6869 59.9338 9.74669C60.7885 6.52719 62.218 2.45505 65.4453 2.10223C68.6432 1.7494 71.7231 4.07215 72.7252 6.21848C75.2746 11.746 73.6683 20.4489 72.7252 26.6233C71.561 34.1649 70.9126 40.1481 69.9694 46.6312ZM66.6242 38.5898C67.6558 34.1502 67.5526 26.1235 66.4327 21.919C65.6221 26.9026 67.0516 32.7095 66.6242 38.5898Z" fill="#FFC440"/>
<path fill-rule="evenodd" clip-rule="evenodd" d="M61.9089 47.4104C60.5973 48.8511 59.4626 45.9109 58.5637 44.4702C53.3175 35.8996 49.4417 24.0801 44.7997 15.6418C46.1702 21.4045 49.368 26.9468 51.6817 32.7095C53.4206 37.0463 55.2627 41.1772 57.5763 45.073C58.2247 46.1461 59.5216 47.3957 59.1532 48.807C58.2837 49.0569 57.9448 47.8955 57.5763 47.4398C50.7091 38.7663 42.6481 28.3728 39.4945 16.2298C38.4187 12.0989 39.5829 5.70399 44.6081 7.99733C45.3891 8.35015 46.7007 9.29101 47.3639 9.95255C54.2753 16.9796 56.7953 32.048 60.73 42.9119C61.2752 44.4114 62.3363 45.9109 61.9089 47.4104Z" fill="white"/>
<path fill-rule="evenodd" clip-rule="evenodd" d="M56.2051 50.9533C54.3778 52.8644 52.8009 50.5711 51.4894 49.5861C44.1506 44.0733 36.2812 38.6046 29.2666 32.3273C26.7466 30.0633 23.2688 27.0644 21.9867 23.889C20.8814 21.1399 21.1025 17.2001 25.5235 18.5966C28.2792 19.464 32.4644 23.3597 34.5717 25.462C37.2833 28.1816 39.6854 30.9454 42.0432 33.6945C47.3484 39.8688 52.6094 44.97 56.2051 50.9533ZM38.3149 35.0616C34.8812 31.0336 30.7992 26.6086 26.5108 24.0801C30.2834 27.9023 33.7907 31.9745 38.3149 35.0616Z" fill="white"/>
<path fill-rule="evenodd" clip-rule="evenodd" d="M47.9383 55.6576C37.1806 53.4966 27.3954 48.6894 18.0524 44.4702C21.9576 47.7926 27.6607 49.8948 33.1869 52.1147C38.7426 54.3492 44.7847 56.1133 50.2962 58.2008C49.8098 59.1123 48.3951 58.4802 47.7467 58.392C36.93 56.9807 26.4523 55.3195 18.6419 50.7475C16.1072 49.2627 12.6441 47.0723 11.5683 44.4702C10.2273 41.2654 11.7599 39.075 15.6946 39.369C28.4565 40.3393 38.2563 51.2914 47.9383 55.6576Z" fill="white"/>
<path fill-rule="evenodd" clip-rule="evenodd" d="M64.0749 49.5714C70.4116 48.5277 75.7315 50.968 77.8389 54.4815C80.2704 58.5243 79.9462 65.3749 78.2367 68.0211C76.601 70.5496 72.3126 73.4604 69.5864 74.1072C65.6959 75.0334 60.9802 74.313 57.7823 72.3431C54.0834 70.0498 50.974 64.0518 52.8603 58.6125C54.0245 55.2754 59.8012 50.2771 64.0749 49.5714ZM67.9948 51.7325C63.1907 52.6733 70.0579 55.981 67.9948 51.7325V51.7325ZM58.1655 54.8785C58.6223 55.1431 58.8139 55.6723 59.7423 55.4665C60.1402 55.1578 60.1991 54.4815 60.1402 53.7024C59.4033 52.8497 57.7234 53.3496 58.1655 54.8785ZM70.9569 57.2306C72.1358 57.3776 72.6663 55.7752 71.9442 54.6874C69.439 53.4966 69.3506 57.0395 70.9569 57.2306ZM63.0875 59.1858C64.2959 59.0094 64.8117 58.1568 64.6643 56.6426C63.0433 54.4374 61.0686 58.3626 63.0875 59.1858ZM55.0266 59.5828C55.4097 60.2296 56.7655 60.3472 57.576 59.9797C57.9149 59.3916 58.077 58.6419 57.9739 57.6275C56.736 56.0692 54.6287 57.2894 55.0266 59.5828ZM75.4663 66.6392C77.4999 65.9188 79.3273 61.9349 77.4262 59.7739C76.9399 62.0231 75.1568 64.8751 75.4663 66.6392ZM63.2791 62.126C63.7506 62.5817 65.2096 62.7434 65.6369 62.126C66.3738 59.8621 62.4833 59.6416 63.2791 62.126ZM69.7779 68.6091C69.6895 69.4765 69.8369 70.1233 70.1758 70.5643C71.6053 71.0347 72.8431 70.2556 72.5337 68.4033C71.8116 67.4771 70.4411 67.9329 69.7779 68.6091Z" fill="#FFA31D"/>
<path fill-rule="evenodd" clip-rule="evenodd" d="M49.5147 62.5229C49.3821 64.0224 49.9126 64.8751 49.9126 66.257C41.1885 66.7421 31.7424 67.5948 22.3846 67.6242C19.2752 67.6389 10.448 67.536 10.5806 63.8901C10.7132 60.553 17.3742 59.7298 20.9994 59.5681C30.6961 59.1858 40.2601 62.0231 49.5147 62.5229ZM16.8731 63.699C19.4815 63.6843 22.9446 64.8016 25.1256 63.8901C23.1804 63.1698 18.892 62.5083 16.8731 63.699Z" fill="white"/>
<path fill-rule="evenodd" clip-rule="evenodd" d="M57.782 75.8566C50.1779 82.7219 45.5211 96.2321 39.0959 105.273C38.0202 106.802 36.1633 108.757 34.7634 109.786C31.0939 112.477 24.6835 113.432 24.1383 107.243C23.873 104.126 25.553 101.083 26.894 99.2017C28.4561 96.9818 31.536 95.0707 33.9676 93.1155C40.8348 87.632 49.6916 80.3698 55.2031 74.2836C55.9694 74.9158 56.8241 75.445 57.782 75.8566ZM29.6645 105.876C33.3486 102.745 35.9718 98.5695 39.4938 95.2765C39.4643 95.0413 39.5233 94.7179 39.3022 94.6885C35.7654 98.0991 32.1402 101.407 29.6645 105.876Z" fill="#FFC440"/>
<path fill-rule="evenodd" clip-rule="evenodd" d="M63.6774 77.6207C64.5469 77.9147 63.6774 78.7821 63.869 79.5759C63.4269 79.3113 63.7953 78.2235 63.6774 77.6207Z" fill="white"/>
<path fill-rule="evenodd" clip-rule="evenodd" d="M66.4331 77.8266C67.7594 78.1794 67.5089 80.0023 67.612 80.9579C68.7173 91.2485 67.0962 102.98 69.3804 112.344C69.0709 107.17 68.8646 101.186 68.9825 95.0854C69.1004 89.0434 68.4373 82.9425 68.7909 77.8266C69.8962 77.6355 69.7046 79.1643 69.7783 79.5907C70.7214 85.1329 71.193 90.4399 72.3277 96.0704C73.993 104.347 76.9698 115.373 72.5193 121.768C68.113 123.987 66.6983 119.489 65.6373 116.078C62.3805 105.597 65.1363 88.8963 66.0352 78.4146C66.0205 78.1353 66.0057 77.856 66.2268 77.8266C66.3004 77.8266 66.3594 77.8266 66.4331 77.8266Z" fill="#FFC440"/>
<path fill-rule="evenodd" clip-rule="evenodd" d="M20.027 86.2502C30.0479 82.5455 39.7299 77.6943 48.734 72.5195C49.8245 71.9021 50.915 70.5937 52.2707 70.9465C51.9465 72.593 49.9866 73.1811 48.734 74.0925C41.9404 79.0026 35.5447 83.7804 26.909 87.6321C24.1385 88.8669 19.8207 91.1309 15.9008 90.5722C14.1176 90.3223 12.6145 89.1756 13.5429 86.8382C14.2945 84.9565 19.5112 82.7808 21.2059 81.9281C29.5321 77.7531 39.2583 74.3719 47.7466 71.3288C47.8645 71.8286 47.1129 72.0932 46.7592 72.3137C38.7278 77.3414 27.9995 81.0608 20.027 86.2502Z" fill="#FFC440"/>
<path fill-rule="evenodd" clip-rule="evenodd" d="M51.0919 110.771C55.0413 100.789 58.976 90.7781 61.9086 79.7818C62.056 86.7647 60.8328 94.0858 59.3592 100.966C57.9739 107.434 55.5866 114.299 51.6961 117.445C48.513 120.003 46.5825 118.225 46.9804 113.123C47.9088 100.878 56.3382 90.6899 60.1549 80.7521C60.1402 80.6933 60.1697 80.6197 60.1549 80.5609C60.5234 81.9575 58.9465 85.9268 58.3865 88.0143C56.2939 95.8205 52.6687 103.45 51.0919 110.771Z" fill="white"/>
</g>
<defs>
<clipPath id="clip0_1_22258">
<rect width="141" height="130" fill="white"/>
</clipPath>
</defs>
</svg>
