<svg width="53" height="66" viewBox="0 0 53 66" fill="none" xmlns="http://www.w3.org/2000/svg">
<g clip-path="url(#clip0_1_22324)">
<path d="M40.0134 26.7526C41.4134 29.4355 42.4001 37.5354 41.7201 42.5563C40.8401 49.1231 27.3068 58.6411 24.7601 59.6887C22.2134 60.7236 16.8801 60.2509 16.0934 55.6899C15.2934 51.1289 16.8134 39.6179 18.3734 36.7561C21.0668 31.7863 26.6268 24.4402 28.5068 23.6736C30.4001 22.9199 39.2668 25.3089 40.0134 26.7526Z" fill="#FFC727"/>
<path d="M20.9463 32.5656C22.013 30.9559 23.1863 29.3461 24.293 27.9408C31.093 32.1696 37.733 32.6678 41.493 32.5145C41.7463 34.2904 41.9063 36.2323 41.9463 38.1103C37.2796 38.3275 29.173 37.7271 20.9463 32.5656Z" fill="#263238"/>
<path d="M38.3465 48.7398C33.1865 48.6504 25.0265 47.5389 16.8398 42.3775V42.3647C17.2798 39.8734 17.8265 37.7654 18.3865 36.7433C18.4132 36.6922 18.4398 36.6539 18.4665 36.6028C28.1732 43.4762 38.4265 43.2718 41.6532 43.0035C41.2665 44.8049 40.0132 46.7851 38.3465 48.7398Z" fill="#263238"/>
<path d="M27.267 58.2323C23.6937 57.4913 19.707 56.2265 15.9337 54.0674C15.827 52.2149 15.9203 49.8386 16.147 47.4111C21.827 51.7294 28.9203 53.0708 33.5603 53.4669C31.307 55.4088 29.0003 57.108 27.267 58.2323Z" fill="#263238"/>
<path opacity="0.1" d="M16.107 55.6899C15.3203 51.1289 16.827 39.6179 18.387 36.7433C21.0803 31.7863 26.627 24.4274 28.5203 23.6609C28.907 23.5076 29.587 23.482 30.4537 23.5587C27.6003 28.6307 22.307 39.5668 21.5603 42.3264C20.667 45.6736 20.267 54.9106 22.2137 56.0476C24.1603 57.1974 25.2003 58.2067 30.7737 55.7154C30.787 55.7027 30.8003 55.7027 30.8003 55.7027C28.0937 57.7851 25.707 59.2927 24.7737 59.676C22.227 60.7364 16.907 60.2509 16.107 55.6899Z" fill="black"/>
<path opacity="0.3" d="M38.9069 31.0964C39.6135 34.6736 39.8802 38.302 39.4269 41.9303C38.8402 44.7921 36.6935 47.1429 34.5469 49.0848C35.6669 46.9768 37.0002 44.9837 37.7735 42.7735C38.5602 38.9791 38.1869 34.9419 38.9069 31.0964Z" fill="white"/>
<path d="M45.0265 20.5563C42.5465 16.2253 37.8532 14.9605 33.1865 15.7526C28.5065 16.5447 26.5065 21.1823 27.3065 24.7596C28.1065 28.3368 33.1332 32.9233 38.0532 32.8467C42.9732 32.77 48.0532 25.8455 45.0265 20.5563Z" fill="#263238"/>
<path opacity="0.1" d="M39.6132 32.604C39.0932 32.7573 38.5732 32.8467 38.0532 32.8595C33.1332 32.9361 28.1065 28.3496 27.3065 24.7724C26.6132 21.6934 28.0132 17.8095 31.3998 16.302C28.6932 20.007 29.3998 23.7758 30.6398 26.1266C31.2798 27.3275 33.8532 31.9652 39.6132 32.604Z" fill="black"/>
<path d="M46.4403 10.4506C44.2936 7.86992 41.907 7.74216 39.467 8.15099C37.027 8.54704 34.9603 10.1185 35.027 11.9965C35.0936 13.8746 36.1336 16.4297 38.8936 17.8734C41.6536 19.3171 45.747 18.3717 46.8403 16.9535C47.9336 15.5354 47.9336 12.252 46.4403 10.4506Z" fill="#263238"/>
<path d="M41.147 0C42.627 0.396051 43.147 1.80139 43.0404 3.07898C43.1337 3.89663 43.6537 4.68873 43.587 5.53194C43.6537 6.8223 43.0137 8.07433 41.9204 8.86644L41.8004 8.81533C41.7604 7.97213 41.9204 7.25668 42.0537 6.47735C42.227 5.44251 42.9337 4.27991 42.6137 3.18119C41.9604 2.15912 41.3337 1.40534 41.0537 0.0894309L41.147 0Z" fill="#263238"/>
<path d="M52.987 5.86411C51.7336 6.46458 50.7336 6.4518 49.4936 6.57956C49.107 6.69454 48.8003 6.97561 48.547 7.26946C47.547 8.55982 46.707 9.69687 45.3736 10.6678L45.2536 10.6167C45.227 9.73519 45.5203 8.90476 46.0136 8.20209C46.7603 7.07782 48.147 6.74565 49.3203 6.20906C50.3203 5.3403 51.787 4.8676 53.027 5.73635C53.0003 5.73635 52.987 5.86411 52.987 5.86411Z" fill="#263238"/>
<path opacity="0.7" d="M40.1733 19.2021C40.1733 19.2021 51.2666 31.5563 52.5466 43.5656C53.8266 55.5749 50.9733 64.5308 45.1466 65.9106C39.3333 67.2904 38.4933 50.9245 38.4266 44.4472C38.3599 37.9698 40.1733 19.2021 40.1733 19.2021Z" fill="#EBEBEB"/>
<path opacity="0.7" d="M38.9602 18.0139C38.9602 18.0139 21.9868 19.2149 12.2268 26.8293C2.46682 34.4437 -2.13318 42.7096 0.946822 47.6283C4.04015 52.547 16.7202 41.547 21.5468 37.0116C26.3868 32.489 38.9602 18.0139 38.9602 18.0139Z" fill="#EBEBEB"/>
</g>
<defs>
<clipPath id="clip0_1_22324">
<rect width="53" height="66" fill="white"/>
</clipPath>
</defs>
</svg>
