<svg width="138" height="133" viewBox="0 0 138 133" fill="none" xmlns="http://www.w3.org/2000/svg">
<g clip-path="url(#clip0_1_22284)">
<path fill-rule="evenodd" clip-rule="evenodd" d="M69.3804 23.5778C71.7173 22.0008 73.9245 19.8007 76.2237 18.0077C73.8317 18.2094 70.5693 20.6147 69.3804 23.5778Z" fill="#492727"/>
<path fill-rule="evenodd" clip-rule="evenodd" d="M79.0225 20.7982C78.3776 20.6146 78.8068 20.5253 78.3159 20.1797C75.5745 20.7503 72.1574 22.516 70.5814 25.632C73.2885 23.5084 76.0474 21.6341 79.0225 20.7982Z" fill="#492727"/>
<path fill-rule="evenodd" clip-rule="evenodd" d="M75.4631 25.0058C76.4721 24.5791 77.5771 24.3708 78.4907 23.7978C78.354 23.6963 78.4334 23.557 78.2274 23.4698C76.2095 23.9765 74.1336 24.1703 72.4355 26.2138C73.577 26.424 74.4818 25.4267 75.4631 25.0058Z" fill="#492727"/>
<path fill-rule="evenodd" clip-rule="evenodd" d="M31.9795 34.6345C31.7253 36.8831 32.9421 38.9121 33.5821 40.9457C33.8637 41.8477 34.055 42.9057 34.4555 43.7541C38.0792 51.3781 50.0407 55.1648 57.3645 57.4901C57.1477 58.4958 57.5193 59.8991 57.4191 60.5628C51.8417 58.4735 46.3418 56.722 41.1391 56.4326C40.7945 55.9915 40.1926 55.6329 39.5751 55.4075C37.4861 54.6361 31.9683 55.1924 30.7348 55.998C30.1607 56.3631 29.8165 57.0342 29.4126 57.5228C28.3248 58.1609 27.0727 58.0098 25.9417 58.4402C26.4115 60.3503 28.5931 59.4845 29.689 58.8159C32.817 60.8661 36.031 59.3737 39.0944 59.5522C42.5276 61.6111 46.3075 61.5538 49.8118 62.4279C46.0269 62.9123 41.0209 64.0193 37.0668 65.5646C35.0952 66.3288 32.4779 67.8776 32.6973 70.042C30.7081 70.6872 27.8001 70.8735 26.2035 73.1271C25.1034 74.6778 23.571 79.1136 23.8901 80.5423C24.1287 81.6194 25.2486 82.2458 24.9115 83.1249C24.5961 83.9344 22.6695 84.776 22.7835 85.879C24.6392 86.6051 26.5216 84.3715 26.9722 82.407C29.7344 80.2359 31.5326 74.683 34.5089 71.8751C35.0174 72.3398 35.4304 72.3116 35.8864 72.4551C40.753 70.1926 45.8102 66.417 50.6696 65.7162C48.1656 67.913 45.1224 72.1 43.3082 75.2511C40.5908 79.9624 38.6675 85.1225 39.4627 89.6372C39.5933 90.3684 40.0229 91.0446 40.1122 91.8205C40.5502 95.6945 39.6997 101.151 44.9038 103.737C47.07 104.81 48.867 103.346 50.7765 102.804C52.971 102.174 55.4879 101.982 57.6096 100.898C65.1955 97.0218 69.9811 86.528 72.2724 78.7634C73.6468 83.9088 73.7066 89.7828 72.5521 95.375C72.2822 96.6807 72.0391 97.5258 72.3554 98.5939C71.2886 102.283 68.6297 106.303 69.9943 109.493C69.4847 110.654 68.3277 110.96 68.1314 112.098C69.3604 113.561 71.0929 111.301 71.6997 109.81C72.8809 109.759 74.0368 108.962 74.6833 107.939C74.96 107.499 74.9414 106.889 75.2259 106.382C75.412 106.061 75.8479 105.761 75.9924 105.45C76.9934 103.284 75.9206 100.871 75.8375 99.1186C79.5523 92.849 76.5609 86.6318 76.255 81.2063C77.5639 84.3718 79.399 87.4279 80.251 90.6885C80.4926 91.086 80.717 91.0537 81.1459 91.275C81.4693 93.974 81.7982 96.6646 84.647 98.8306C84.9338 99.6882 85.3359 101.446 86.7761 101.183C87.752 100.077 86.2717 99.1064 86.3019 98.0023C86.3173 97.4863 86.7073 97.0006 86.7732 96.5535C86.9147 95.4985 86.7736 94.1267 86.5266 93.0441C86.1332 91.3276 85.2106 88.9772 83.4546 87.5154C83.2418 84.4107 81.5636 81.2064 79.7932 78.2525C78.2981 75.7541 76.1956 73.2521 73.7085 71.2275C74.7495 70.9891 75.7127 70.3769 76.7736 70.1995C80.8479 74.0894 85.6816 79.6848 91.9303 82.8478C97.5162 85.672 103.052 85.5816 107.134 81.3227C109.975 81.4392 116.411 78.0772 115.332 74.4162C109.119 70.5235 103.454 69.6442 97.5157 67.5217C92.2896 65.6626 87.2458 63.7078 81.9329 62.0908C82.1813 61.584 81.9674 61.1808 82.2187 60.6879C83.8633 60.6778 85.2848 60.4975 86.8412 60.2024C89.0458 59.7941 91.447 59.706 93.0005 56.8981C94.0069 55.0707 95.698 53.202 96.6961 51.0224C97.0479 50.2486 96.849 49.2933 97.1168 48.4286C97.393 47.5694 98.2405 47.0608 97.9892 46.1308C97.1413 45.5273 96.2336 46.8574 96.0045 47.6996C93.4673 48.141 90.2458 52.5817 90.3699 55.3294C87.3602 54.923 84.624 55.7959 82.0554 57.5439C81.7622 56.9332 81.3083 56.3488 81.1951 55.7006C85.893 52.8016 85.1754 46.5084 83.3191 43.2112C85.5943 42.6221 88.1324 41.9421 90.7885 42.5232C92.7639 42.9571 94.853 44.8046 95.7859 42.4509C94.7667 40.5035 93.3647 41.402 92.2972 41.4436C90.8138 41.4996 87.8242 41.1901 85.9289 41.4185C84.7318 41.5665 83.0244 42.4203 82.2321 42.1879C81.0228 41.8257 80.3737 40.7547 79.2587 40.3945C80.8366 36.1081 80.5499 31.7114 76.5783 28.9051C75.867 29.0965 75.1804 29.9616 75.4107 30.6865C75.6898 31.6107 76.5303 31.2769 77.1547 31.6741C80.3211 33.6658 78.9262 36.8885 78.2213 40.0254C75.171 40.4653 70.2527 39.6689 68.2246 43.8396C67.5967 45.1259 67.5878 46.4711 67.7064 47.8043C67.2023 47.5337 66.3493 48.0507 66.1555 47.7443C66.6425 44.0461 66.6503 40.4404 65.8497 37.0101C67.5219 35.9181 71.0582 35.5577 72.2282 33.3713C72.4634 32.9395 72.5036 32.0572 72.693 31.44C72.8852 30.8366 73.3762 30.1422 72.9722 29.5545C72.1877 29.6023 71.4474 30.3486 71.0962 31.1945C70.6348 31.0595 70.2788 31.2924 69.8086 31.4625C68.351 31.9898 63.7533 34.2252 62.8893 36.1818C62.6957 36.6049 62.9292 37.3797 62.8613 37.9211C62.7163 39.2369 62.3273 40.5601 62.4839 42.1454C62.7424 44.7062 63.2261 46.6134 64.0555 48.7592C63.4105 48.9223 62.8803 49.5672 62.1748 49.4396C54.1215 42.4992 44.5672 32.65 35.097 26.4669C34.4111 26.0174 32.5102 26.9475 32.1086 27.3778C29.6109 30.0211 31.2799 32.4183 31.9795 34.6345Z" fill="#492727"/>
<path fill-rule="evenodd" clip-rule="evenodd" d="M119.351 76.5842C119.242 76.5129 119.125 76.4362 119.016 76.3649C117.255 78.212 115.203 80.7409 113.73 82.4776C115.9 82.2499 118.294 79.1442 119.351 76.5842Z" fill="#492727"/>
<path fill-rule="evenodd" clip-rule="evenodd" d="M121.106 79.014C120.997 78.9428 120.88 78.866 120.772 78.7948C119.329 80.2289 117.434 81.8801 116.293 83.2009C118.085 83.1675 120.402 81.219 121.106 79.014Z" fill="#492727"/>
<path fill-rule="evenodd" clip-rule="evenodd" d="M121.794 81.3773C120.537 82.455 119.209 83.1504 117.935 84.1089C119.153 84.5848 121.596 83.3758 121.794 81.3773Z" fill="#492727"/>
<path fill-rule="evenodd" clip-rule="evenodd" d="M28.7493 32.9956C28.6114 33.0965 28.4677 33.1698 28.3042 33.1821C27.8571 34.5391 27.7088 36.4985 28.042 37.9603C28.2717 38.9598 28.8482 40.6888 30.2798 40.3836C29.0552 38.0744 28.8108 35.5468 28.7493 32.9956Z" fill="#492727"/>
<path fill-rule="evenodd" clip-rule="evenodd" d="M27.7315 40.1483C28.0301 38.2516 27.0356 36.6313 26.9133 34.8294C26.838 34.7801 26.7628 34.7307 26.6875 34.6814C25.7912 36.7603 26.6894 38.4729 27.7315 40.1483Z" fill="#492727"/>
<path fill-rule="evenodd" clip-rule="evenodd" d="M26.6731 42.001C26.0403 40.1754 25.593 38.3039 24.8494 36.5014C23.2991 38.283 24.8339 41.2499 26.6731 42.001Z" fill="#492727"/>
<path fill-rule="evenodd" clip-rule="evenodd" d="M71.0768 32.6647C69.5671 34.6762 67.619 34.5472 65.9165 35.6672C67.1786 34.2706 69.1723 32.4327 71.0768 32.6647Z" fill="white"/>
<path fill-rule="evenodd" clip-rule="evenodd" d="M95.8244 49.1959C95.8711 50.9124 93.532 53.6239 92.3171 55.0396C92.9567 53.1152 93.8142 49.9827 95.8244 49.1959Z" fill="white"/>
<path fill-rule="evenodd" clip-rule="evenodd" d="M64.9033 46.481C63.7313 43.7998 63.9577 40.8275 63.9847 37.904C64.2893 37.8406 64.5735 37.6442 64.9444 37.8992C65.2989 40.6784 65.1357 43.5725 64.9033 46.481Z" fill="white"/>
<path fill-rule="evenodd" clip-rule="evenodd" d="M113.795 75.8123C112.44 77.0405 111.075 78.3214 109.641 78.9955C103.787 81.7234 95.2606 80.5585 87.7006 74.9817C84.579 72.6846 81.7407 69.7363 78.6875 67.3166C78.2131 66.9459 77.5916 66.5625 77.0861 66.1116C76.7844 65.8421 75.9876 65.3796 76.2239 64.7454C76.6962 64.1343 77.1116 65.124 77.2988 65.2945C80.4036 67.9273 85.5939 71.5922 89.5035 73.9275C89.0616 72.3944 86.9752 71.6008 85.5217 70.5166C83.0582 68.6748 79.6592 66.3633 77.5883 64.3603C83.4095 67.4822 89.1471 70.2026 94.6311 71.7046C89.858 69.2457 85.0195 67.306 79.5468 64.0537C78.9365 63.6896 77.5963 63.2536 77.4224 62.6614C77.9414 62.3439 78.7264 62.715 79.1992 62.8694C83.8542 64.4139 88.6846 66.0375 93.5271 67.7886C100.036 70.1535 106.222 72.08 112.792 75.1544C113.104 75.299 113.472 75.3017 113.795 75.8123Z" fill="white"/>
<path fill-rule="evenodd" clip-rule="evenodd" d="M80.2639 61.4991C79.0614 61.3088 77.7979 60.7557 76.6326 60.7093C75.9416 63.4966 71.6957 66.0344 74.9901 68.086C72.0651 69.6482 68.5298 70.8463 64.5145 67.7602C61.1186 65.1519 58.4792 61.736 59.4447 58.2199C60.3784 58.0906 61.4674 58.6728 62.4443 58.7512C63.8306 56.9098 65.2139 55.0545 66.6985 53.7199C66.26 52.6194 64.5699 51.7867 63.8628 50.7494C66.6491 49.1799 69.9311 49.9919 73.3854 51.5625C74.0502 51.8069 72.9926 52.417 73.4359 52.7076C73.9487 53.0197 74.2799 52.4597 74.6916 52.2512C78.9387 54.1262 81.2896 57.891 80.2639 61.4991ZM75.3581 54.1348C74.5206 53.4424 73.8629 55.1755 74.2243 55.6275C74.8375 55.6588 75.3764 54.7088 75.3581 54.1348ZM77.0159 57.9355C77.5478 57.507 77.9769 56.3415 77.0693 55.9021C76.3461 56.3487 76.313 57.7857 77.0159 57.9355ZM67.1643 52.2795C67.7028 52.3336 68.3008 51.494 68.4526 51.0435C67.9013 50.4072 66.85 51.8105 67.1643 52.2795ZM70.5472 54.6522C71.2898 55.2705 72.1011 54.0327 72.0155 53.3788C71.2703 52.7827 70.7867 54.0679 70.5472 54.6522ZM68.5014 52.6657C68.5232 52.979 68.4289 53.3236 68.8799 53.5475C69.2638 53.6915 69.5468 53.3509 69.801 52.8719C69.6687 52.2711 68.8817 51.9943 68.5014 52.6657ZM77.1359 59.449C77.7496 59.899 78.2342 59.7982 78.6173 59.1406C78.2812 58.3583 77.1865 58.8245 77.1359 59.449ZM72.2312 57.1908C73.9086 56.4011 72.2547 54.8746 71.4908 56.861C71.7789 57.1693 71.9719 57.0208 72.2312 57.1908ZM74.453 57.2122C73.6586 57.4209 73.5998 58.7693 74.3995 59.2457C75.1669 58.7682 74.9868 57.7295 74.453 57.2122ZM67.8999 56.265C68.6746 56.7249 69.2391 56.2101 69.7806 55.5846C69.2547 54.654 67.7798 55.4449 67.8999 56.265ZM70.3748 60.2784C71.0941 60.7499 72.0007 58.9288 71.9163 58.4192C71.8075 58.3479 71.6904 58.2712 71.5817 58.1999C70.9786 58.3904 70.0819 59.7038 70.3748 60.2784ZM71.6475 62.7148C72.6163 63.1704 73.863 62.6364 74.2301 61.6933C73.1944 61.1939 72.4296 61.9958 71.6475 62.7148ZM69.2101 58.8813C68.0745 58.7349 67.0857 61.028 68.5955 61.5155C69.5368 60.9368 69.6991 59.704 69.2101 58.8813ZM64.9483 58.3239C64.6975 58.8889 65.4437 60.3225 66.441 59.4577C66.9226 58.2668 65.5508 56.9851 64.9483 58.3239ZM69.9712 65.765C70.8098 66.2549 72.0805 65.9398 71.9999 64.8588C71.1497 64.3135 70.53 64.8758 69.9712 65.765ZM63.7592 62.3271C64.4483 62.1331 64.4289 61.0682 64.8948 60.3573C63.9881 59.6793 62.5793 61.8288 63.7592 62.3271ZM66.8544 65.1569C67.3445 65.0477 67.7162 64.3348 68.1054 63.741C67.9214 61.8508 65.4672 64.3912 66.8544 65.1569ZM61.2487 62.2719C61.8217 61.4159 61.4033 60.759 61.8239 59.9348C61.7152 59.8635 61.5981 59.7868 61.4894 59.7155C60.2444 60.1191 60.5614 61.9888 61.2487 62.2719ZM69.0341 68.654C70.1364 69.1613 71.1234 69.1148 71.9203 68.1544C71.148 67.2895 69.4493 67.8381 69.0341 68.654ZM65.8734 67.3835C66.6027 67.73 67.5824 67.0928 67.7475 66.2206C66.9579 65.6193 65.7726 66.5522 65.8734 67.3835Z" fill="#7A4141"/>
<path fill-rule="evenodd" clip-rule="evenodd" d="M62.9082 51.7137C57.0847 48.3034 52.4564 43.7992 46.7911 40.0381C51.0914 44.8056 57.9656 49.9329 63.9943 53.705C63.4505 54.7355 62.3993 53.6759 61.8118 53.3864C57.0037 51.072 50.7682 47.1046 45.7566 44.2981C50.2692 48.5591 57.223 52.1603 62.6402 55.0413C58.3775 54.3757 53.7295 51.963 48.7188 49.2646C42.9114 46.1398 37.7723 43.3454 35.0137 38.5243C34.4765 37.5744 33.9671 36.272 33.5425 35.1686C33.1037 34.0321 32.4581 32.7003 32.3737 31.8439C32.142 29.5159 33.7709 27.1401 36.3112 28.5181C37.5312 29.1743 38.6039 30.5111 39.8177 31.4501C48.0364 37.901 54.699 45.4125 62.9082 51.7137ZM40.4544 34.1272C40.096 33.689 39.6599 33.2597 39.0384 32.8763C38.704 33.3865 39.8904 34.7141 40.4544 34.1272ZM38.4464 38.3948C39.2389 39.3566 40.1544 40.8056 41.6504 41.2959C40.958 40.3638 39.6018 38.6021 38.4464 38.3948Z" fill="white"/>
<path fill-rule="evenodd" clip-rule="evenodd" d="M105.362 81.6195C96.6689 88.6436 82.5926 75.1132 76.0544 67.193C77.7657 68.2668 79.3195 69.7635 80.9311 71.1904C83.9586 73.8682 87.3863 77.0116 91.9129 79.5002C96.5899 82.0875 101.315 81.9562 105.362 81.6195Z" fill="white"/>
<path fill-rule="evenodd" clip-rule="evenodd" d="M72.3848 71.8064C76.532 75.804 79.9846 80.3506 81.5909 85.0144C82.0081 86.2204 83.0144 87.9321 81.6266 88.8638C80.6548 87.6649 80.1356 86.1768 79.5255 84.7726C78.3451 82.0859 77.0789 79.0559 75.4575 76.3671C74.6172 74.9675 73.3936 73.8426 72.5055 72.3519C72.3792 72.1615 72.1081 72.2468 72.3848 71.8064Z" fill="white"/>
<path fill-rule="evenodd" clip-rule="evenodd" d="M56.6595 61.9777C51.2965 61.0572 46.1238 61.0505 40.5014 58.8839C42.5942 57.661 45.4752 58.6287 48.0927 59.2322C50.9379 59.8895 53.836 60.5575 56.6595 61.9777Z" fill="white"/>
<path fill-rule="evenodd" clip-rule="evenodd" d="M70.2913 73.3038C66.0831 72.8652 60.2293 69.4828 56.5066 65.8591C59.47 63.8917 62.0108 68.8809 65.2713 70.4918C67.2287 71.4639 69.8988 71.0021 70.2913 73.3038Z" fill="#7A4141"/>
<path fill-rule="evenodd" clip-rule="evenodd" d="M70.428 77.71C64.9217 78.3216 56.6153 72.3513 52.6205 67.6286C53.4634 66.8897 54.3697 66.4555 55.2677 66.0158C58.3809 70.077 65.4827 73.7991 69.7655 74.5616C71.1321 74.8117 70.4885 76.5779 70.428 77.71Z" fill="#FFA31D"/>
<path fill-rule="evenodd" clip-rule="evenodd" d="M73.8475 97.814C73.2901 97.1139 73.829 96.1638 73.9402 95.4834C74.7753 90.196 75.2243 84.4761 73.8846 79.4969C73.7758 79.4257 73.8886 79.3083 73.9239 79.1999C74.0323 79.2351 74.1038 79.1624 74.2209 79.2391C74.2965 79.3245 74.2584 79.4191 74.3755 79.4959C75.775 83.9643 76.5408 88.9618 76.2678 94.1395C76.1993 95.3021 76.0216 98.4737 73.8475 97.814Z" fill="white"/>
<path fill-rule="evenodd" clip-rule="evenodd" d="M39.156 57.5242C36.5709 58.2212 33.4641 58.8751 30.8375 57.8112C33.3133 56.6241 36.3712 55.7349 39.156 57.5242Z" fill="white"/>
<path fill-rule="evenodd" clip-rule="evenodd" d="M68.8068 82.8649C62.1954 81.9153 53.2239 75.6645 49.869 70.1296C50.4051 69.1658 51.0478 68.7142 51.6672 68.1158C55.1696 73.3527 64.3476 79.4161 70.142 79.1129C69.9933 80.3067 69.5316 81.5584 68.8068 82.8649Z" fill="#7A4141"/>
<path fill-rule="evenodd" clip-rule="evenodd" d="M83.1074 89.5234C83.1827 89.5728 83.258 89.6221 83.3332 89.6714C84.7583 91.7294 85.851 94.2032 84.8318 96.8711C83.0811 94.6714 81.8343 92.3597 83.1074 89.5234Z" fill="white"/>
<path fill-rule="evenodd" clip-rule="evenodd" d="M49.1745 70.9533C52.4965 76.5383 61.6479 83.0984 68.3755 84.0166C67.9914 85.2594 67.189 86.5748 66.6664 87.8464C59.431 85.1127 52.1413 78.9957 46.9068 73.9388C47.6616 72.915 48.3907 71.8026 49.1745 70.9533Z" fill="#FFA31D"/>
<path fill-rule="evenodd" clip-rule="evenodd" d="M46.2489 74.9424C50.9583 80.2531 59.1923 86.5347 66.1172 88.9213C65.4438 90.0582 65.0909 90.6878 64.2862 91.7148C57.6417 89.3565 48.7901 83.5429 44.1594 78.3675C44.8937 77.2107 45.3732 76.1142 46.2489 74.9424Z" fill="#7A4141"/>
<path fill-rule="evenodd" clip-rule="evenodd" d="M32.6061 71.8955C29.8004 74.5163 28.6706 80.4356 25.5287 80.5046C25.6061 76.5738 28.6789 71.5573 32.6061 71.8955Z" fill="white"/>
<path fill-rule="evenodd" clip-rule="evenodd" d="M71.9703 108.23C69.5706 106.382 72.9102 102.509 73.3823 99.7453C73.7982 99.7309 74.2116 99.7388 74.6765 99.9598C75.1098 102.528 75.0296 105.751 71.9703 108.23Z" fill="white"/>
<path fill-rule="evenodd" clip-rule="evenodd" d="M63.0421 92.6453C63.2975 93.3866 61.9178 93.941 61.541 94.6984C55.2448 93.9793 45.9169 88.9655 41.7974 83.1926C41.9585 82.1623 42.9227 80.9649 43.3276 79.8911C48.2479 84.8618 56.5694 90.2801 63.0421 92.6453Z" fill="#FFA31D"/>
<path fill-rule="evenodd" clip-rule="evenodd" d="M59.8443 95.8099C59.562 96.9521 57.5342 97.6197 56.5392 98.4263C54.6708 98.1941 51.8451 97.2149 49.1174 95.6303C46.1391 93.9173 42.2742 91.2766 41.2945 89.0682C40.6225 87.5396 41.377 86.133 41.3375 84.6245C45.2068 89.265 53.8986 95.213 59.8443 95.8099Z" fill="#7A4141"/>
<path fill-rule="evenodd" clip-rule="evenodd" d="M69.6471 47.9999C72.2292 47.9825 75.809 44.6734 75.5122 41.4778C77.4748 40.9826 82.002 42.8499 82.2762 45.2774C79.7152 46.576 78.3286 50.1509 78.8111 52.2606C78.92 52.7146 79.5536 53.2256 79.1504 53.4395C76.8327 50.7368 72.5619 49.0256 69.6471 47.9999Z" fill="#FFA31D"/>
<path fill-rule="evenodd" clip-rule="evenodd" d="M69.3841 46.7039C69.1304 46.1789 69.292 45.5675 69.5921 44.9272C69.8848 45.1191 70.2003 45.3856 70.4412 45.3283C71.0321 45.7036 73.28 43.7335 72.9863 44.1268C72.0084 46.0566 70.6819 46.311 69.3841 46.7039Z" fill="white"/>
<path fill-rule="evenodd" clip-rule="evenodd" d="M90.9949 56.5643C90.658 58.1728 88.724 58.4237 87.4894 58.7384C86.111 59.0904 84.5658 59.0581 83.3495 59.2173C84.6448 57.8066 86.9872 57.644 88.8829 57.105C89.5968 56.8914 90.3238 56.22 90.9949 56.5643Z" fill="white"/>
<path fill-rule="evenodd" clip-rule="evenodd" d="M80.249 50.3217C80.6787 50.6512 80.8356 52.2725 82.2236 52.417C81.9985 52.7238 81.8052 53.183 81.5283 53.2406C80.1659 52.4553 80.3847 51.3552 80.249 50.3217Z" fill="white"/>
<path fill-rule="evenodd" clip-rule="evenodd" d="M35.3275 41.4563C40.2336 47.4339 52.5344 52.7462 59.9806 56.1799C60.0558 56.2293 60.1311 56.2786 60.2064 56.328C55.6444 54.9879 48.6727 53.3478 43.3548 50.3883C39.1568 48.0553 36.5516 44.7695 35.3275 41.4563Z" fill="white"/>
<path fill-rule="evenodd" clip-rule="evenodd" d="M51.0088 64.0133C48.6458 64.7363 45.899 65.3153 43.3689 66.658C40.8001 68.0233 38.5243 69.9632 35.8892 71.01C35.3921 70.5646 34.7233 70.1621 34.3645 69.6879C36.5805 66.8359 40.2701 65.8585 43.1776 65.2533C45.8858 64.6969 48.5444 64.1796 51.0088 64.0133Z" fill="white"/>
<path fill-rule="evenodd" clip-rule="evenodd" d="M54.3623 99.5583C52.6031 99.8162 49.8649 101.86 47.7213 101.901C46.9087 101.919 46.227 101.281 45.4995 101.88C43.1342 100.545 42.1744 98.3972 42.2402 96.874C43.7767 98.2876 46.136 100.288 48.1533 100.75C46.524 98.4741 42.9851 97.434 41.8944 95.2125C41.2462 93.9029 42.1446 92.8059 41.602 91.5176C44.4025 94.2499 50.3256 98.694 54.3623 99.5583Z" fill="#FFA31D"/>
</g>
<defs>
<clipPath id="clip0_1_22284">
<rect width="106" height="88.93" fill="white" transform="translate(48.75) rotate(33.2422)"/>
</clipPath>
</defs>
</svg>
