<svg width="109" height="85" viewBox="0 0 109 85" fill="none" xmlns="http://www.w3.org/2000/svg">
<g clip-path="url(#clip0_1_22159)">
<path fill-rule="evenodd" clip-rule="evenodd" d="M10.896 21.4113C12.8325 21.2111 14.4907 21.5781 15.9486 21.4113C15.9041 21.4113 15.8485 21.4113 15.804 21.4113C11.9199 20.2434 4.73035 17.0957 6.29958 11.7679C6.97846 9.45436 8.20268 8.44219 10.1614 7.7637C20.5005 4.17105 30.4389 13.7366 33.0321 19.932C33.5217 21.111 33.5329 22.5236 34.0671 23.647C35.9368 22.7238 37.6618 21.0999 40.4553 21.567C42.7368 19.4203 46.5096 18.0522 51.2952 18.8976C50.7053 17.2514 50.7387 15.2827 50.85 13.2583C49.0248 14.5152 48.5574 17.0957 45.9531 17.2625C41.2121 17.574 42.2805 9.53222 43.1263 5.68375C40.6667 5.03863 38.4854 8.0084 38.3741 9.98825C38.2851 11.6122 39.1198 15.2827 36.7381 15.038C35.6808 14.9267 35.3915 12.7133 35.8478 11.1784C36.0704 10.4332 36.5934 10.1885 37.0386 9.39874C38.7636 6.31774 40.0101 3.35909 43.7162 4.64933C40.9227 1.51272 35.8033 4.81617 34.9574 8.06401C34.5568 9.61007 35.1132 10.6222 34.0671 11.4787C33.2546 12.1461 31.3404 12.3574 30.5057 11.6233C30.2386 10.4109 31.0622 8.41994 31.9859 7.46339C32.4088 7.0296 33.2769 6.885 33.7666 6.42897C34.6124 5.62813 34.9129 4.46025 35.692 3.75951C38.1181 1.57946 41.7797 0.823109 44.6065 3.3146C46.1201 -2.3135 56.8709 -0.333657 56.0363 6.13978C58.2398 5.68375 60.2431 5.42792 62.2686 5.69487C64.7059 6.01743 66.1639 7.84156 67.7665 8.21973C68.3786 8.36433 68.9573 8.14187 69.6919 8.21973C71.7508 8.45331 74.01 9.07618 76.5252 9.25415C83.9373 9.78804 92.1618 10.7668 98.205 11.6122C101.277 12.046 104.237 13.1471 106.073 14.5819C107.465 15.672 109.468 18.0189 108.9 20.6661C108.511 22.4902 106.229 23.3355 104.003 23.3355C99.9523 23.3355 96.7471 22.4235 93.3082 21.4113C86.497 19.3981 79.3075 17.6407 72.9639 15.4718C73.2421 17.574 73.0751 19.7429 72.6634 21.5559C80.209 23.647 85.8404 26.2275 89.2905 32.979C92.3956 39.0297 92.3065 54.0121 89.7357 60.2853C89.2682 61.4198 87.8548 63.4664 86.4637 63.7C83.0915 64.2784 82.0676 61.253 79.6303 60.4299C78.662 60.1073 77.883 60.4855 76.8146 59.8404C78.1835 61.7646 80.1422 63.9892 80.5318 67.1147C81.066 71.4636 77.3488 76.4133 74.7445 76.9138C70.738 77.6813 68.7125 73.7104 67.0208 71.8641C67.9112 80.4063 63.2146 87.4248 55.1459 84.1769C53.2094 82.0191 52.9201 77.3476 53.5099 73.9329C52.0854 78.8825 47.7895 86.8019 41.034 83.8766C39.309 82.553 38.8193 79.105 39.6985 76.4578C36.9607 78.7379 32.0082 84.2993 27.0779 82.5419C25.7758 82.0747 23.7503 80.284 23.216 78.9826C21.4242 74.6225 26.3322 71.3858 27.8236 69.1835C24.8854 70.6628 19.9774 73.7438 15.7928 72.1533C14.9025 71.8085 14.1012 70.8741 13.2665 70.229C11.4858 68.8276 10.4285 67.7042 10.295 64.8901C10.0947 60.53 13.0996 56.8372 15.4923 54.9464C9.37125 57.4156 1.79222 55.3913 2.1261 48.8622C2.29304 45.5699 4.34082 42.4889 6.28844 40.5535C8.82591 38.0176 12.2649 36.9831 15.7928 35.9487C12.6878 35.7374 9.48254 36.2268 6.73361 35.9487C4.07372 35.6707 1.05769 33.8354 0.345421 32.0891C-0.422501 30.1983 0.178482 27.9737 1.09108 26.7502C2.66031 24.6258 7.6796 21.7339 10.896 21.4113Z" fill="#492727"/>
<path fill-rule="evenodd" clip-rule="evenodd" d="M48.4575 2.26909C51.3177 6.47349 47.2778 10.8892 44.1504 12.3574C44.3619 13.3807 44.5956 14.3818 44.8961 15.3272C46.4765 15.3049 47.1442 13.9368 48.1681 12.958C50.2048 11.0004 53.5101 9.96603 53.8106 7.46341C54.0777 5.18325 51.2398 0.411595 48.4575 2.26909Z" fill="#FFA31D"/>
<path fill-rule="evenodd" clip-rule="evenodd" d="M64.3497 25.4156C63.348 21.0777 61.879 17.1958 60.6325 13.0916C60.3765 12.7579 59.5863 12.9581 59.4417 12.502C60.2986 9.48778 65.496 11.4899 66.1192 13.2473C66.1303 13.7033 65.674 13.6922 65.2289 13.6922C66.7981 16.1837 68.9572 18.0745 70.4262 20.6661C73.075 12.68 65.3402 6.99629 58.4066 7.60804C55.3683 7.87499 54.6338 9.81034 52.9088 11.7679C51.8738 20.5994 55.9359 25.549 64.3497 25.4156ZM62.1238 9.83259C61.278 10.0773 59.8089 9.94382 59.4528 9.24309C59.9425 8.45337 62.2462 8.64246 62.1238 9.83259ZM57.9615 10.7224C57.3827 11.0895 55.335 11.0672 55.4351 9.83259C56.3032 9.55452 58.1395 9.48779 57.9615 10.7224ZM68.6567 15.6275C67.3879 15.6053 67.132 14.126 67.1765 13.2584C68.5009 12.591 69.0685 14.5375 68.6567 15.6275ZM58.7071 14.4374C57.7834 14.8267 56.5147 14.3818 56.4813 13.403C57.405 13.0026 58.6626 13.4586 58.7071 14.4374ZM54.8453 16.217C53.8993 16.1392 53.7657 14.5598 54.0996 13.6922C55.4685 13.6032 55.424 15.583 54.8453 16.217ZM58.4066 18.5862C57.3271 18.2859 57.3605 16.8622 56.9264 15.9167C58.0839 15.4941 58.8184 17.4517 58.4066 18.5862ZM56.7818 20.3769C55.4129 20.833 54.9343 19.298 54.8564 18.0078C56.2698 17.4405 56.715 19.0756 56.7818 20.3769ZM61.6786 21.4114C60.4989 21.2334 59.7199 19.932 59.898 18.8865C61.0443 19.1757 61.5562 20.0989 61.6786 21.4114ZM59.7421 22.7461C58.8073 23.3912 57.6276 22.3568 57.5163 21.2668C58.4066 21.0443 59.7199 21.6116 59.7421 22.7461ZM62.8695 24.3811C62.057 24.8372 61.2891 24.1142 61.3893 23.191C62.2128 22.7127 62.9808 23.4357 62.8695 24.3811Z" fill="#7A4141"/>
<path fill-rule="evenodd" clip-rule="evenodd" d="M30.1944 27.9404C30.2056 27.0061 31.3519 26.6612 31.3853 25.7158C31.4298 24.2587 28.8033 21.9118 27.6681 20.8218C25.42 18.6529 21.9254 17.3626 20.2449 15.7721C25.4979 16.1391 29.2818 19.7651 31.6746 23.6359C31.9306 24.0474 32.0864 24.648 32.565 24.826C33.255 24.1586 32.3535 23.0908 32.1198 22.4569C30.072 16.8955 24.0622 10.9782 18.1637 9.54335C15.9267 8.99833 12.6213 9.00945 10.7405 9.98825C9.34933 10.7112 7.7801 12.5354 8.65931 14.5931C10.3621 18.5639 16.6167 19.2646 21.1352 21.1221C25.3643 22.8461 27.3565 25.827 30.1944 27.9404ZM17.7185 14.5819C16.3942 14.5152 15.2812 14.2483 14.747 13.3918C15.7709 12.7022 18.186 13.3473 17.7185 14.5819Z" fill="white"/>
<path fill-rule="evenodd" clip-rule="evenodd" d="M70.2925 10.4331C71.6837 11.8568 74.0431 11.7011 75.9351 12.0681C81.7891 13.2027 87.3314 15.2493 92.718 16.8176C84.8941 16.7619 78.8287 13.6809 71.7839 12.3685C72.2847 13.5252 73.8316 13.6809 74.9 14.0035C78.4837 15.0602 82.0116 16.1836 85.7399 17.2736C90.648 18.7084 95.7229 20.6549 100.586 21.2778C102.79 21.567 105.773 21.9785 107.119 20.5326C107.72 16.4839 102.946 14.9156 99.5402 14.0035C95.8119 13.0025 90.6925 12.6243 85.8735 12.0793C80.064 11.3897 75.0781 10.7445 70.2925 10.4331Z" fill="white"/>
<path fill-rule="evenodd" clip-rule="evenodd" d="M42.5254 22.6015C44.8403 22.5347 47.133 22.2789 49.203 21.8562C50.2046 21.656 51.6626 21.5226 51.874 20.5215C48.3349 19.6095 44.0835 20.5326 42.5254 22.6015Z" fill="white"/>
<path fill-rule="evenodd" clip-rule="evenodd" d="M52.764 22.3011C51.7401 23.3022 50.1041 23.7026 48.4569 24.0808C49.9371 24.8816 51.3394 25.7492 52.3188 27.0506C53.8658 26.8615 55.0121 26.2831 56.7705 26.3053C55.3348 25.0818 53.6988 24.0474 52.764 22.3011Z" fill="white"/>
<path fill-rule="evenodd" clip-rule="evenodd" d="M35.9929 24.0808C37.462 25.0596 39.443 24.1253 40.1553 23.0464C38.408 22.5347 37.5288 23.925 35.9929 24.0808Z" fill="white"/>
<path fill-rule="evenodd" clip-rule="evenodd" d="M28.7141 36.4048C29.1704 35.4482 28.525 34.3248 28.7141 33.1347C25.5312 29.8312 19.8219 29.0637 14.7581 27.64C18.6199 26.639 23.4945 27.7513 26.3436 29.5643C27.3564 30.2205 27.924 31.3217 29.0146 31.4885C30.506 29.3529 28.614 28.5632 26.7888 27.3286C25.6981 26.5945 24.7299 26.094 23.5168 25.549C20.6343 24.2476 17.6183 23.6803 14.9027 23.469C10.8962 23.1576 8.78164 24.3477 6.43336 25.6936C4.64155 26.7168 1.5031 27.996 2.27102 31.0325C2.67167 32.623 5.75448 34.0134 7.91356 34.1468C15.1142 34.6029 23.3944 33.8465 28.7141 36.4048ZM12.2317 27.9404C11.1299 28.3296 9.13778 28.6077 7.92469 28.3853C8.52567 27.5622 11.3636 26.639 12.2317 27.9404Z" fill="white"/>
<path fill-rule="evenodd" clip-rule="evenodd" d="M73.1083 23.9362C73.8873 25.2486 75.1672 27.3953 75.7793 24.5257C75.0336 24.1809 74.0876 24.0474 73.1083 23.9362Z" fill="#7A4141"/>
<path fill-rule="evenodd" clip-rule="evenodd" d="M60.1874 47.0826C59.8981 49.3738 57.8726 51.2758 56.1809 52.8664C54.7341 54.2234 53.5767 55.8362 51.8739 56.2811C51.2173 56.459 50.4605 56.3033 49.7927 56.4257C49.1472 56.548 46.1312 57.3489 46.0755 55.8362C46.0422 54.8574 46.9548 54.9241 48.1567 54.9463C50.8834 51.4316 53.1204 47.4385 56.7708 44.858C55.6244 42.8893 57.4719 41.2765 57.5164 39.5191C57.5609 37.2389 55.3796 34.7474 54.6896 32.8455C50.0821 33.9132 44.5397 32.8232 41.1787 30.9212C41.034 31.9668 39.3201 32.4228 38.9528 31.3661C38.6189 30.4096 39.7096 29.9758 39.6985 29.2862C39.3089 27.729 37.2166 29.7978 36.727 28.6967C36.6379 26.8503 38.2851 27.2841 39.8432 27.2173C40.7335 27.184 41.468 26.8169 42.3695 26.917C44.5063 27.1617 45.9976 28.4965 47.2664 29.2862C48.1456 28.3852 49.3253 27.7735 50.8277 27.5065C48.9914 25.0373 44.8402 24.8816 41.1787 24.2365C39.4314 27.8069 34.4788 24.8927 32.1194 27.5065C31.0622 28.6744 30.6949 32.8121 31.0844 35.2257C31.2514 36.2379 31.7411 37.8841 32.1194 39.3856C33.6219 45.2473 37.0386 49.4406 41.4792 53.4893C44.4395 56.1921 48.179 59.262 52.1744 59.718C53.7992 59.9071 55.758 59.7625 56.9266 59.1285C57.65 58.7281 59.1969 57.2376 59.7534 56.3033C61.0778 54.0232 60.9999 50.4861 60.1874 47.0826ZM34.0559 29.4196C37.5394 28.5966 37.5283 32.6786 35.8366 33.8687C32.8429 34.6251 32.2641 30.4207 34.0559 29.4196ZM42.9705 36.8496C42.158 34.2247 45.9865 32.6786 46.3872 35.6595C46.4651 36.2713 46.1868 37.1055 45.942 37.7395C44.3171 38.1955 43.2264 37.6727 42.9705 36.8496ZM41.4792 36.4047C41.4792 37.4948 41.3122 38.4179 40.1436 38.329C38.7191 37.4725 40.2216 34.9365 41.4792 36.4047ZM49.5034 40.4089C47.2775 40.776 46.7322 39.2744 47.1328 37.4391C49.1695 34.8253 51.9184 38.8184 49.5034 40.4089ZM37.7731 36.8496C38.1515 37.6282 37.6729 38.4179 36.8828 38.4847C36.3263 38.3846 36.0703 37.3947 36.4376 36.8496C36.7381 36.5493 37.417 36.7273 37.7731 36.8496ZM52.4749 40.5535C51.9963 40.0419 51.796 38.5181 52.3302 37.8841C55.7914 35.7819 55.669 42.3888 52.4749 40.5535ZM41.9243 44.4131C41.2121 43.6234 41.3679 41.6324 42.2248 41.143C45.2854 40.6203 44.8958 45.6811 41.9243 44.4131ZM53.6546 43.9682C53.8994 45.4809 51.3842 46.126 51.7292 43.6679C52.397 42.8559 53.5099 43.0228 53.6546 43.9682ZM50.3937 48.8622C50.1934 49.0068 49.9485 49.1069 49.8038 49.3071C48.9803 49.2404 48.4906 48.84 48.613 47.8278C49.1917 46.9936 50.6942 47.5163 50.3937 48.8622ZM40.7335 50.0523C39.3646 50.1079 38.7302 47.1493 40.7335 47.5275C42.2693 47.8167 42.2137 49.9967 40.7335 50.0523ZM45.1963 54.5014C42.3472 50.1747 49.9263 50.019 47.4222 54.2011C46.9436 54.5904 45.942 54.8462 45.1963 54.5014ZM58.7073 56.2922C58.5848 58.1831 55.5911 57.1709 56.4814 55.1021C57.7724 54.6015 58.7629 55.4135 58.7073 56.2922Z" fill="#FFC440"/>
<path fill-rule="evenodd" clip-rule="evenodd" d="M75.7792 27.3508C76.1909 28.274 76.8587 28.9414 77.2593 29.8757C78.2721 28.908 79.4296 28.096 79.6299 26.3164C78.606 26.1051 78.0161 25.4488 76.9589 25.282C76.7474 26.1384 76.2466 26.7168 75.7792 27.3508Z" fill="#FFA31D"/>
<path fill-rule="evenodd" clip-rule="evenodd" d="M80.9771 27.1952C80.276 28.719 79.3968 30.0649 78.3061 31.1994C78.9961 32.0892 79.675 33.0013 80.2315 34.0246C81.567 32.7899 82.5797 31.2216 83.3477 29.4197C82.9136 28.3297 81.7005 28.0072 80.9771 27.1952Z" fill="#7A4141"/>
<path fill-rule="evenodd" clip-rule="evenodd" d="M65.0957 27.7958C63.916 27.9849 62.1798 27.5066 61.0892 27.7958C59.4643 28.2296 57.7504 31.0102 56.337 31.8C57.1272 33.435 58.062 34.9254 58.4181 36.9943C60.3658 33.6575 62.5694 30.5653 65.0957 27.7958Z" fill="white"/>
<path fill-rule="evenodd" clip-rule="evenodd" d="M58.2617 27.64C54.4555 28.0516 51.0166 28.8079 48.7573 30.7544C52.6971 32.167 56.3364 29.7088 58.2617 27.64Z" fill="white"/>
<path fill-rule="evenodd" clip-rule="evenodd" d="M42.0799 28.8302C43.3042 29.9758 44.8289 30.8323 46.5316 31.4997C46.8655 31.4329 46.5873 30.7656 46.6763 30.4652C45.0848 29.987 44.0387 28.9526 42.0799 28.8302Z" fill="white"/>
<path fill-rule="evenodd" clip-rule="evenodd" d="M65.6855 28.9748C65.4407 28.9303 65.4296 29.1194 65.2404 29.1194C63.1592 33.7242 57.0381 38.1399 59.4532 45.1473C60.3991 43.8348 60.1543 42.3221 60.4882 40.9874C61.1114 38.5515 62.3356 36.0822 63.4597 33.8688C64.2165 32.3561 65.296 31.3662 65.6855 29.4197C65.6855 29.2751 65.6855 29.1305 65.6855 28.9748Z" fill="white"/>
<path fill-rule="evenodd" clip-rule="evenodd" d="M84.5489 30.1649C83.5918 32.0335 82.6124 33.8688 80.9876 35.0589C81.5663 36.3158 82.2786 37.4281 82.7683 38.7739C84.8049 37.239 86.7191 32.9234 84.5489 30.1649Z" fill="#FFA31D"/>
<path fill-rule="evenodd" clip-rule="evenodd" d="M34.6461 31.0547C34.2566 31.622 34.6238 32.5007 35.0912 32.6897C35.4029 32.6008 35.5698 32.3783 35.8369 32.2448C35.6143 31.7221 35.3806 30.5875 34.6461 31.0547Z" fill="white"/>
<path fill-rule="evenodd" clip-rule="evenodd" d="M66.8765 32.5452C66.4314 34.1802 66.4759 36.3047 66.2867 38.1844C67.0769 38.1844 67.867 38.1844 68.6572 38.1844C68.1008 36.2602 67.3217 34.5695 66.8765 32.5452Z" fill="#FFA31D"/>
<path fill-rule="evenodd" clip-rule="evenodd" d="M87.2207 34.0245C86.0967 36.2602 85.4178 38.9519 83.2142 40.1087C83.5036 41.3099 83.9599 42.3332 83.9599 43.8237C85.9075 42.7003 87.154 40.8761 88.5674 39.2189C88.4672 37.1389 87.9219 35.5039 87.2207 34.0245Z" fill="#7A4141"/>
<path fill-rule="evenodd" clip-rule="evenodd" d="M44.7514 35.2146C44.2172 35.3258 44.0837 35.8375 44.1616 36.5493C44.4509 36.7607 45.1187 37.0387 45.4971 36.6939C45.4192 36.0266 45.0296 35.6818 44.7514 35.2146Z" fill="white"/>
<path fill-rule="evenodd" clip-rule="evenodd" d="M32.2754 46.6377C31.6967 44.8469 30.7729 43.3898 29.9049 41.8883C21.736 41.688 17.3399 45.2584 11.9311 47.8278C14.9026 43.0784 21.4021 40.5647 29.4486 40.4089C29.1703 39.6971 29.2037 38.6738 28.8587 38.0287C24.8522 36.9053 19.8885 36.6272 15.4925 38.6182C14.3684 39.1298 13.3111 39.8528 12.2205 40.3978C10.9183 41.0541 9.61622 41.4545 8.80378 42.0329C6.2997 43.8236 2.76059 49.8299 6.27743 52.7218C8.08037 54.19 11.23 54.1455 13.7007 53.467C20.0221 51.743 24.7743 46.9491 32.2754 46.6377ZM9.99461 49.1625C9.98348 50.1636 8.97071 50.8754 8.06924 50.4973C7.99134 49.4072 9.09314 48.7955 9.99461 49.1625Z" fill="white"/>
<path fill-rule="evenodd" clip-rule="evenodd" d="M48.9026 37.7395C48.1904 37.8619 47.9789 38.874 48.4575 39.3745C48.7023 39.3745 48.9472 39.3745 49.2031 39.3745C49.5927 38.8407 49.2254 38.0398 48.9026 37.7395Z" fill="white"/>
<path fill-rule="evenodd" clip-rule="evenodd" d="M53.8105 38.7739C53.6102 38.7739 53.4099 38.7739 53.2207 38.7739C53.1762 39.3078 53.1873 39.7972 53.8105 39.6637C53.8105 39.3634 53.8105 39.0742 53.8105 38.7739Z" fill="white"/>
<path fill-rule="evenodd" clip-rule="evenodd" d="M69.2465 39.3634C68.2783 39.5859 67.5771 40.0641 66.275 39.9529C66.3307 40.6425 66.3752 41.3321 66.5755 41.8771C67.8888 42.133 68.7346 41.7437 69.9922 41.5768C69.9588 40.6425 69.5693 40.0419 69.2465 39.3634Z" fill="#7A4141"/>
<path fill-rule="evenodd" clip-rule="evenodd" d="M70.4374 42.4889C69.3801 42.9672 68.3006 43.4232 66.876 43.5233C66.8538 46.0704 69.3022 47.2161 71.9287 46.1928C71.606 44.7802 70.8937 43.7569 70.4374 42.4889Z" fill="#FFA31D"/>
<path fill-rule="evenodd" clip-rule="evenodd" d="M42.9709 42.6335C42.3699 42.589 42.637 43.8459 43.2713 43.5233C43.3047 43.0895 42.9263 43.0673 42.9709 42.6335Z" fill="white"/>
<path fill-rule="evenodd" clip-rule="evenodd" d="M50.8389 54.5015C54.4671 53.0333 57.1492 50.6085 58.418 46.7823C58.2176 46.6377 57.8615 46.6377 57.8281 46.3374C54.9345 48.4062 53.0871 52.3103 50.8389 54.5015Z" fill="white"/>
<path fill-rule="evenodd" clip-rule="evenodd" d="M72.5187 47.0826C71.4503 47.5498 70.4709 48.1059 68.8015 47.9725C69.0464 48.9179 69.7698 49.385 70.137 50.197C71.7062 50.2749 73.0084 50.0969 74.1436 49.7521C73.6761 48.8067 72.9527 48.0837 72.5187 47.0826Z" fill="#7A4141"/>
<path fill-rule="evenodd" clip-rule="evenodd" d="M89.3018 47.3829C86.2635 51.5651 82.7132 55.2467 75.1899 54.9575C76.6589 55.7695 77.8831 57.4824 79.6416 57.627C83.4589 57.9495 87.6769 52.555 89.2906 50.3527C89.3018 49.3628 89.3018 48.3729 89.3018 47.3829Z" fill="#7A4141"/>
<path fill-rule="evenodd" clip-rule="evenodd" d="M37.473 52.4326C33.1882 57.3044 27.9686 62.0316 20.4007 63.1216C23.0161 60.8748 26.4662 59.9071 29.3153 58.0719C32.1977 56.2032 34.4013 53.823 36.8943 51.6874C36.3267 51.2425 34.9467 48.3728 33.6223 48.7176C27.9018 50.2303 18.8315 54.0009 14.7582 58.806C13.2669 60.5745 11.987 64.0448 12.9775 66.2248C13.4561 67.2815 14.7693 67.8265 15.348 68.8943C24.1735 70.4404 32.9657 65.1459 37.473 60.5856C38.6972 59.351 40.4779 57.538 39.9993 55.2467C39.7322 53.9676 38.4746 53.278 37.473 52.4326ZM18.6089 63.8557C18.3863 64.8123 17.1064 64.7344 15.9379 64.7455C15.9601 63.5999 17.9857 63.4775 18.6089 63.8557Z" fill="#FFC440"/>
<path fill-rule="evenodd" clip-rule="evenodd" d="M75.0453 50.653C73.9658 50.9644 73.1311 51.5094 71.7733 51.5428C71.9069 52.5438 72.8863 52.7107 73.2535 53.467C74.589 53.1 75.8578 53.2112 77.5605 53.0221C76.6368 52.3102 75.5684 51.7541 75.0453 50.653Z" fill="#FFA31D"/>
<path fill-rule="evenodd" clip-rule="evenodd" d="M45.9417 52.7218C45.9417 52.9665 45.9417 53.2112 45.9417 53.467C46.3757 53.6005 46.398 53.6005 46.832 53.467C46.6874 53.0555 46.3646 52.8442 45.9417 52.7218Z" fill="white"/>
<path fill-rule="evenodd" clip-rule="evenodd" d="M89.001 53.467C86.8753 55.547 85.1057 57.994 81.8782 58.9617C83.4252 60.986 86.0629 62.4097 87.5208 59.7069C88.3889 58.083 88.5781 55.1688 89.001 53.467Z" fill="#FFA31D"/>
<path fill-rule="evenodd" clip-rule="evenodd" d="M62.1244 55.1021C62.603 55.8139 63.5156 55.7695 64.2056 56.1365C66.1643 57.182 67.9116 59.0618 69.4029 60.8859C71.6622 63.6555 74.2108 66.425 75.0455 70.3847C71.8403 64.5342 67.8448 59.4733 61.5346 56.726C61.3676 57.2488 61.2118 57.7827 60.7889 58.0607C63.5712 60.619 65.8861 63.6777 67.7669 68.1491C68.8354 70.6851 70.7162 75.6235 73.8546 75.4233C75.8023 75.301 78.7849 70.5182 78.4622 67.5596C77.8612 62.0983 70.1152 55.3802 64.5061 54.6461C63.8383 54.5682 62.436 53.9453 62.1244 55.1021Z" fill="white"/>
<path fill-rule="evenodd" clip-rule="evenodd" d="M45.1959 58.806C43.6156 62.521 41.668 65.8689 38.6631 68.1602C40.0431 65.0347 43.2817 62.4876 44.1609 58.3611C43.738 57.5936 42.9144 57.2265 42.2356 56.726C42.1131 56.7038 42.0909 56.7816 42.0909 56.8706C40.5996 60.7302 37.4166 63.4219 33.922 66.2248C30.7502 68.7719 26.7325 71.7306 25.4526 75.2787C24.5957 77.6479 26.2873 80.2395 28.2683 80.6177C30.995 81.1404 34.6009 78.7268 36.1367 77.5033C39.9095 74.5002 43.5266 69.6729 45.4964 64.1449C46.0529 62.5766 47.4218 59.8515 45.1959 58.806ZM29.6038 76.1797C30.7724 73.2433 33.5993 71.9642 35.992 70.2401C36.0922 70.2401 36.1924 70.2401 36.2925 70.2401C34.6677 72.8206 32.1413 74.5113 29.6038 76.1797Z" fill="white"/>
<path fill-rule="evenodd" clip-rule="evenodd" d="M59.152 60.1519C58.6734 61.0528 59.6083 62.0427 60.0423 63.1216C61.2777 66.1915 61.389 71.9197 59.4525 74.845C59.7864 70.1846 60.2983 64.3451 57.8165 61.1863C57.2266 61.431 56.5032 61.5533 55.8911 61.7758C57.7163 68.7386 51.6731 79.5166 57.9723 82.6977C63.8486 83.2316 65.1284 77.559 65.1062 72.0087C65.0728 66.4807 61.823 62.6322 59.6083 60.1407C59.4525 60.1519 59.2967 60.1519 59.152 60.1519Z" fill="#FFC440"/>
<path fill-rule="evenodd" clip-rule="evenodd" d="M47.8678 60.2964C47.7454 60.2742 47.7231 60.3521 47.7231 60.441C48.2017 65.5575 44.7739 69.3726 42.9709 73.2099C41.8691 75.5568 40.2888 81.8078 43.8613 82.2639C45.6642 82.4974 47.7231 80.5287 48.4688 79.739C52.1637 75.8572 53.8665 69.1946 54.1113 61.9315C53.2321 62.1095 52.4419 61.5978 51.8855 61.9315C52.0635 66.0247 50.984 68.8498 49.2145 70.9854C49.437 68.138 51.1176 65.4685 50.8505 61.6312C49.6485 61.3865 48.6357 60.9638 47.8678 60.2964Z" fill="white"/>
<path fill-rule="evenodd" clip-rule="evenodd" d="M46.8325 3.15894C47.2109 4.87184 46.8548 7.76375 45.7975 8.94276C47.0774 8.74255 49.5258 4.13774 46.8325 3.15894Z" fill="white"/>
<path fill-rule="evenodd" clip-rule="evenodd" d="M80.3872 49.7521C81.578 48.7176 81.9453 47.1827 81.7227 45.0026C81.0549 38.4625 76.7145 33.1013 73.4091 28.0849C71.7063 25.5045 69.9924 22.9907 68.3564 20.5104C66.6536 17.9188 64.8396 15.4384 63.0144 13.2361C62.8029 13.9146 63.5486 14.3039 63.9047 14.8711C65.0622 16.7175 66.0972 18.9309 67.1767 20.9553C68.6235 23.7026 70.382 26.372 71.0386 29.5643C70.0815 28.997 69.525 27.6734 68.9574 26.5945C67.2212 23.2688 65.4962 19.3313 63.4596 16.2059C63.4818 15.8388 63.2815 15.95 63.3149 16.2059C65.8969 23.4579 69.1577 33.6352 72.2294 41.588C73.1977 44.1017 74.4219 47.3718 76.3918 48.8622C77.4268 49.6631 79.0294 50.1191 80.3872 49.7521ZM73.4091 36.5494C72.8193 35.3481 71.5617 33.2681 72.0736 31.9445C72.541 33.2793 74.0769 35.0589 73.4091 36.5494ZM78.6065 47.0826C78.0166 45.492 77.1374 43.401 77.1263 41.7437C78.2281 42.7002 79.5079 45.5699 78.6065 47.0826Z" fill="white"/>
<path fill-rule="evenodd" clip-rule="evenodd" d="M61.5343 45.4587C61.935 45.8369 63.9716 44.8803 65.0957 45.4587C64.3389 43.0117 63.6155 39.419 64.35 36.4048C63.9605 36.0933 63.7268 37.517 63.4597 38.1844C62.6584 40.1531 61.6122 43.1896 61.5343 45.4587Z" fill="white"/>
<path fill-rule="evenodd" clip-rule="evenodd" d="M89.0011 41.2988C87.532 42.8449 86.2967 44.6245 84.2489 45.6033C84.3936 48.4174 84.0597 50.7532 82.3235 51.6875C84.4826 51.3204 86.1965 48.7733 87.8214 46.7935C88.3111 46.1928 89.1903 45.4031 89.3016 44.8692C89.5242 43.7792 88.823 42.5112 89.0011 41.2988Z" fill="#FFA31D"/>
<path fill-rule="evenodd" clip-rule="evenodd" d="M65.6853 46.7934C64.2274 46.671 63.159 46.938 61.9682 47.0937C61.957 47.85 62.2798 48.2727 62.2687 49.0179C63.6598 49.207 65.5073 48.9512 66.5757 49.4628C65.5184 49.9967 63.7377 49.5518 62.4133 49.4628C62.4133 50.4527 62.4133 51.4427 62.4133 52.4326C67.0654 52.288 69.6362 54.2122 72.5076 55.8473C72.6856 56.0586 72.5632 55.8584 72.5076 55.7027C69.792 53.1667 67.0654 50.6641 65.6853 46.7934Z" fill="white"/>
</g>
<defs>
<clipPath id="clip0_1_22159">
<rect width="109" height="85" fill="white" transform="matrix(-1 0 0 1 109 0)"/>
</clipPath>
</defs>
</svg>
