<svg width="168" height="140" viewBox="0 0 168 140" fill="none" xmlns="http://www.w3.org/2000/svg">
<path d="M81.8117 48.3647C75.7341 48.4818 60.4535 54.5102 52.2046 60.5092C41.4071 68.3389 37.3649 101.157 37.921 106.621C38.4998 112.072 44.3876 120.961 53.2108 117.971C62.0466 115.005 80.9951 101.32 84.5865 95.8467C90.8383 86.3702 98.5843 69.5972 98.1617 65.5703C97.7038 61.5323 85.0758 48.2901 81.8117 48.3647Z" fill="#FFC727"/>
<path d="M89.5713 87.327C91.4124 83.9172 93.1524 80.3206 94.5935 77.0365C80.6641 69.1758 73.4937 58.0229 70.2046 51.2904C66.8194 52.5473 63.2284 54.1266 59.8642 55.855C63.8987 64.2367 72.6391 77.8605 89.5713 87.327Z" fill="#263238"/>
<path d="M44.4475 72.3392C49.4923 81.2913 59.1883 94.5192 76.0826 103.916L76.1053 103.903C80.1011 100.747 83.317 97.7709 84.597 95.8113C84.6622 95.7157 84.7049 95.6323 84.7701 95.5366C63.4042 85.1173 54.0566 66.9628 51.4762 61.0544C48.6518 63.4566 46.3313 67.5482 44.4475 72.3392Z" fill="#263238"/>
<path d="M38.1273 100.836C42.8236 106.385 48.839 112.157 56.2364 116.698C59.6185 115.111 63.739 112.672 67.8237 109.95C54.7965 104.137 45.7034 92.9975 40.6079 85.2498C39.3023 91.0561 38.4771 96.7234 38.1273 100.836Z" fill="#263238"/>
<path opacity="0.1" d="M53.1979 117.948C62.0211 114.958 80.9823 101.296 84.5963 95.8114C90.8255 86.3472 98.6067 69.5852 98.1715 65.535C98.0768 64.7109 97.4781 63.4955 96.5217 62.0509C90.2403 71.9055 75.8833 91.6493 71.7027 95.5997C66.6201 100.37 50.6388 109.916 46.7815 107.595C42.9015 105.286 40.129 104.431 39.2637 92.2839C39.2737 92.2483 39.261 92.225 39.261 92.225C38.1358 98.9599 37.7258 104.584 37.9308 106.586C38.4643 112.062 44.3621 120.915 53.1979 117.948Z" fill="black"/>
<path opacity="0.3" d="M75.1661 54.4628C68.161 56.6506 61.4821 59.6581 55.485 63.9266C50.9719 67.6946 48.8412 73.7056 47.4345 79.3251C50.1076 75.3448 52.3749 71.1009 55.5572 67.6299C61.5328 62.6185 69.0369 59.4064 75.1661 54.4628Z" fill="white"/>
<path d="M88.0392 33.6507C98.0587 33.847 104.743 40.8562 107.76 49.7884C110.789 58.744 104.468 66.688 97.375 68.7124C90.2816 70.7368 77.3979 66.3246 72.8746 57.6338C68.3512 48.943 75.805 33.4144 88.0392 33.6507Z" fill="#263238"/>
<path opacity="0.1" d="M71.8274 54.6689C72.0483 55.7265 72.3823 56.7229 72.8521 57.6459C77.3755 66.3368 90.2591 70.7489 97.3526 68.7245C103.463 66.9905 109.016 60.8192 108.479 53.4438C104.48 61.7324 97.1352 64.1038 91.7974 64.183C89.0643 64.2121 78.4134 64.1459 71.8274 54.6689Z" fill="black"/>
<path d="M104.6 21.4979C111.204 22.7865 113.69 26.8444 115.276 31.5096C116.886 36.1625 116.059 41.2871 112.67 42.9688C109.281 44.6504 103.77 45.2757 98.5994 41.824C93.4288 38.3723 91.2269 30.2975 92.7033 27.0245C94.1797 23.7515 99.9951 20.6073 104.6 21.4979Z" fill="#263238"/>
<path d="M128.122 20.7616C126.019 18.5486 123.037 18.9836 120.875 20.3938C119.339 21.0134 117.443 20.8611 116.013 21.7853C113.664 22.9042 112.053 25.2241 111.685 27.8976L111.889 28.0589C113.421 27.3215 114.536 26.3561 115.791 25.3763C117.459 24.0817 118.849 21.7307 121.098 21.239C123.527 21.4046 125.456 21.7804 128.052 21.0107L128.122 20.7616Z" fill="#263238"/>
<path d="M106.523 5.6392C106.647 8.40943 107.616 10.1487 108.564 12.4429C108.727 13.2303 108.519 14.0366 108.239 14.7617C106.9 17.7488 105.682 20.3089 105.225 23.5741L105.429 23.7353C107.016 22.9379 108.209 21.6289 108.986 20.0919C110.27 17.7075 109.545 14.9607 109.385 12.3917C109.976 9.80828 109.425 6.78674 106.712 5.4468C106.737 5.49351 106.523 5.6392 106.523 5.6392Z" fill="#263238"/>
<path opacity="0.7" d="M95.0337 40.8543C95.0337 40.8543 62.6472 33.2548 40.1646 42.513C17.6821 51.7712 4.52179 65.3451 7.59568 76.8718C10.6569 88.3752 40.439 74.1744 51.9746 68.0884C63.5102 62.0024 95.0337 40.8543 95.0337 40.8543Z" fill="#EBEBEB"/>
<path opacity="0.7" d="M98.2873 41.8418C98.2873 41.8418 112.234 72.7208 107.99 97.1071C103.746 121.493 93.4616 137.466 81.8331 136.781C70.192 136.074 77.6671 103.331 81.1293 90.5337C84.5563 77.7255 98.2873 41.8418 98.2873 41.8418Z" fill="#EBEBEB"/>
</svg>
