<svg width="126" height="144" viewBox="0 0 126 144" fill="none" xmlns="http://www.w3.org/2000/svg">
<g clip-path="url(#clip0_1_22205)">
<path fill-rule="evenodd" clip-rule="evenodd" d="M124.615 66.141C124.092 63.6497 125.215 60.9586 124.83 57.8676C125.107 57.8522 125.138 57.5908 125.477 57.6523C126.215 59.959 126.369 64.9107 124.615 66.141Z" fill="#492727"/>
<path fill-rule="evenodd" clip-rule="evenodd" d="M113.289 83.3336C111.258 88.7467 108.75 94.5596 108.934 100.957C109.073 105.878 110.827 109.953 110.458 116.181C112.628 120.395 117.521 122.64 116.552 129.452C116.259 131.528 114.12 136.142 112.412 137.726C107.611 142.17 98.3784 137.926 89.7765 138.818C85.591 139.248 82.1903 142.093 78.0202 142.524C71.5726 143.185 69.0644 139.387 63.217 138.818C58.8006 138.387 56.9079 139.387 54.0765 139.694C53.1533 139.802 52.0607 139.571 51.0297 139.694C47.2905 140.171 43.4589 142.585 39.0579 143.17C33.9799 143.846 28.0402 144.415 22.5159 143.6C14.2526 142.401 6.48169 134.988 10.5441 124.885C13.5755 117.334 21.8388 111.291 32.5334 110.522C50.2603 109.246 65.4328 114.305 82.3903 113.567C88.7302 113.29 93.1926 111.66 99.1478 112.69C98.4399 106.924 101.194 102.387 99.5786 97.466C98.7939 95.0825 94.3621 91.7915 92.177 90.2845C84.6524 85.1175 76.6968 80.3657 73.6654 71.7847C73.0806 70.1085 73.096 68.1555 72.3574 65.695C72.065 64.7108 70.9417 64.0188 70.834 62.4349C70.6186 59.4054 73.173 57.2986 73.8808 54.6074C72.4805 54.1922 72.2343 52.6237 71.6957 51.3473C43.7512 36.4152 15.4221 21.8522 -13.8611 8.27339C-15.2153 4.52115 -12.9533 1.41478 -10.5989 0C-4.70533 0.230671 -0.642921 2.93721 3.77341 5.21316C17.5918 12.3486 32.4411 18.5921 45.367 26.0965C55.3999 31.9402 66.3869 36.5536 75.8505 42.6279C77.0353 40.921 80.3283 41.9667 81.2978 43.0585C82.7443 41.6591 85.6218 37.1534 87.8377 36.7535C90.4844 36.2614 91.9616 37.7223 93.285 39.5831C93.5466 40.7518 92.2386 41.1516 92.8541 41.9821C94.316 41.7668 95.0392 42.5357 96.3318 42.4126C97.5628 42.2896 97.9937 41.4438 99.1632 41.5361C101.548 41.736 102.41 44.5502 103.964 46.3187C105.672 47.0876 107.488 47.7181 108.75 48.9329C109.396 48.5639 109.919 48.0718 110.704 47.8411C111.735 49.1329 113.551 49.6403 114.413 51.1012C114.105 51.9624 113.812 52.8236 113.535 53.7155C115.382 54.2691 115.967 56.0684 117.675 56.7604C118.06 56.053 118.29 55.1918 118.983 54.8074C123.692 56.745 122.168 65.2952 120.722 68.7399C118.767 73.3379 115.305 77.9513 113.289 83.3336Z" fill="#492727"/>
<path fill-rule="evenodd" clip-rule="evenodd" d="M49.291 33.9393C58.4776 37.0149 65.9254 42.997 73.8963 46.5647C74.2195 46.088 74.3272 45.396 74.7734 45.0423C73.7271 43.3046 71.6343 42.6741 69.9878 41.7821C61.5552 37.1841 52.4302 33.2319 43.8591 28.2956C28.902 19.6839 12.4216 12.3178 -3.62804 4.35198C-5.53615 3.39854 -7.49042 1.73771 -9.07538 1.96838C-10.9065 2.22981 -12.0452 4.8287 -11.0296 6.53566C-10.4295 7.56599 -7.39809 8.33489 -5.58232 9.14993C-0.30426 11.5335 5.14307 14.8244 10.098 17.208C30.8255 27.1269 54.1382 39.5216 72.5884 49.3943C72.8192 48.9175 72.9423 48.3024 73.2346 47.8718C72.9577 46.9184 71.6035 46.5493 70.8341 46.1341C64.2635 42.5664 56.1848 38.7065 49.7219 34.8159C49.7527 34.5698 49.6757 34.4314 49.5065 34.3853C49.5372 34.2008 49.4141 34.1854 49.291 34.17C49.291 34.0931 49.291 34.0162 49.291 33.9393ZM-5.36689 6.75095C-2.58167 7.61212 0.418976 9.39598 3.55811 10.6724C9.51324 13.1021 15.4684 16.1162 20.9772 18.9457C23.8702 20.422 27.2401 21.7599 29.0405 23.9436C23.0546 21.6061 16.8994 18.346 10.7443 15.4549C6.22022 13.3328 1.0191 11.5797 -3.41262 9.36522C-4.85909 8.64245 -6.89029 7.82742 -6.67487 6.75095C-5.96702 6.52028 -5.93624 6.56642 -5.36689 6.75095ZM46.2442 32.6322C44.3977 32.0017 42.6281 31.3097 41.4586 30.0179C43.4744 30.4639 45.5364 30.8791 46.2442 32.6322Z" fill="#7A4141"/>
<path fill-rule="evenodd" clip-rule="evenodd" d="M74.3272 63.0961C79.9899 55.4071 84.9294 47.0107 91.3154 40.0291C90.6384 39.3371 89.7305 38.8603 88.6995 38.5066C88.5148 38.4605 88.4994 38.5989 88.4841 38.7219C88.3456 38.7219 88.1917 38.7219 88.0532 38.7219C84.0369 44.0581 78.8666 49.3174 75.6351 55.9146C74.6349 57.9445 73.1423 60.5588 74.3272 63.0961ZM83.8984 46.78C82.2827 49.9479 80.2361 52.7006 78.0203 55.2687C78.9128 51.5011 81.5595 48.364 83.8984 46.78Z" fill="#7A4141"/>
<path fill-rule="evenodd" clip-rule="evenodd" d="M79.3283 59.6207C80.0669 60.4819 80.8055 61.3431 81.498 62.235C87.1915 57.4217 91.1001 50.8091 95.4395 44.6117C93.7006 44.135 92.208 44.2273 90.2229 44.3965C86.2221 49.0868 82.9598 54.546 79.3283 59.6207Z" fill="#FFA31D"/>
<path fill-rule="evenodd" clip-rule="evenodd" d="M79.5443 68.3246C80.0213 69.5087 81.0984 70.1085 82.1602 70.7236C89.3464 63.8342 95.3323 55.73 100.672 47.0106C100.395 45.9034 99.5793 45.3498 99.1485 44.3964C92.4701 52.2238 87.269 61.5275 79.5443 68.3246ZM91.7469 57.4369C93.1318 54.2537 94.7167 51.2703 97.4096 49.3788C95.917 52.4698 94.3628 55.4839 91.7469 57.4369Z" fill="#7A4141"/>
<path fill-rule="evenodd" clip-rule="evenodd" d="M78.4514 44.3811C77.0357 46.5032 74.3736 49.5173 74.9737 52.2085C76.4971 49.748 78.1898 47.4413 79.5439 44.8116C78.8823 44.9808 79.1285 44.2273 78.4514 44.3811Z" fill="white"/>
<path fill-rule="evenodd" clip-rule="evenodd" d="M87.3913 68.9705C88.2222 70.0931 88.9147 71.3695 90.2227 72.0154C95.7623 64.7262 101.21 57.314 107.211 50.4708C105.811 49.625 104.472 48.7023 102.856 48.0718C98.3783 55.73 92.8848 62.358 87.3913 68.9705Z" fill="#FFA31D"/>
<path fill-rule="evenodd" clip-rule="evenodd" d="M110.027 50.9167C105.734 61.7121 97.3781 69.6011 91.9616 78.5511C93.5465 79.5353 94.2082 77.1671 94.7929 76.3674C100.302 68.9244 106.842 60.5742 111.335 51.9932C110.843 51.701 110.489 51.2551 110.027 50.9167Z" fill="#7A4141"/>
<path fill-rule="evenodd" clip-rule="evenodd" d="M112.428 55.484C108.581 63.2499 103.519 69.801 98.933 76.8134C100.487 77.5823 101.657 78.7356 103.288 79.4276C107.673 72.7997 111.505 65.6028 116.137 59.1901C115.106 57.7292 113.767 56.622 112.428 55.484Z" fill="#FFA31D"/>
<path fill-rule="evenodd" clip-rule="evenodd" d="M119.614 59.4054C115.552 67.9556 111.566 76.598 106.334 83.9949C110.674 81.7804 112.043 77.2439 114.613 72.4614C116.706 68.5092 119.568 65.3259 119.614 59.4054Z" fill="#7A4141"/>
<path fill-rule="evenodd" clip-rule="evenodd" d="M78.8975 60.6971C78.2204 61.0355 78.1281 61.9581 77.5895 62.4349C78.0973 63.0961 78.559 63.7881 79.1129 64.3879C79.8362 64.311 80.0516 63.742 80.4209 63.296C80.1131 62.2349 78.9898 61.9889 78.8975 60.6971Z" fill="white"/>
<path fill-rule="evenodd" clip-rule="evenodd" d="M76.7129 64.6185C75.4972 65.003 75.728 66.833 73.6661 66.3563C75.6511 72.246 77.9747 77.2747 82.8065 81.3652C84.93 83.1644 87.7152 84.5331 90.2081 86.1478C94.6552 89.0542 101.18 92.0068 102.18 98.1119C102.765 101.649 101.888 105.478 101.534 109.645C101.149 113.982 104.196 120.979 101.318 123.132C98.1175 125.531 91.1467 122.947 87.3767 125.085C92.0239 128.053 103.934 126.515 105.227 120.948C105.904 118.011 104.565 113.859 104.35 110.722C103.565 99.3114 107.75 89.6232 111.32 82.8723C109.812 84.1025 108.904 86.8706 106.535 87.2243C104.196 87.5626 102.072 85.9479 100.01 85.0406C99.9486 82.7185 96.9018 82.0572 95.44 80.4733C91.9469 82.8108 88.6231 79.1815 86.2995 77.6437C87.3152 75.4139 84.2683 74.7834 83.4682 73.0765C80.6983 73.8915 77.1899 71.308 76.7129 68.9398C76.3897 67.3404 78.4055 65.7719 76.7129 64.6185ZM79.9905 75.2755C79.2057 75.8291 78.2209 74.8142 78.898 73.9684C79.7597 73.9069 80.0828 74.399 79.9905 75.2755ZM83.0373 78.1051C82.7449 78.4126 81.8063 78.4126 81.5139 78.1051C81.5139 77.8129 81.5139 77.5207 81.5139 77.2285C82.2064 76.6595 83.0989 77.2593 83.0373 78.1051ZM85.4224 80.504C90.5158 87.0243 104.565 85.748 104.15 97.0354C102.38 94.6211 101.734 91.9146 99.3639 90.0692C94.7321 86.4554 86.8227 86.1785 84.9916 80.4887C85.1454 80.504 85.2839 80.504 85.4224 80.504Z" fill="#FFC440"/>
<path fill-rule="evenodd" clip-rule="evenodd" d="M86.9452 70.0624C84.0984 71.0773 87.7915 72.446 88.2532 73.9838C88.9456 74.0914 88.8379 73.3994 89.3457 73.3379C88.7763 72.0154 87.4684 71.431 86.9452 70.0624Z" fill="white"/>
<path fill-rule="evenodd" clip-rule="evenodd" d="M101.533 81.8112C102.087 81.4268 102.349 80.7348 102.626 80.0735C100.979 80.5964 99.1637 77.7822 98.2712 77.6745C97.8711 77.6284 97.194 78.2589 97.1787 78.3204C96.9478 79.7659 100.379 80.5656 101.533 81.8112Z" fill="white"/>
<path fill-rule="evenodd" clip-rule="evenodd" d="M106.549 105.309C104.518 110.645 107.95 116.873 106.765 121.41C104.995 128.161 93.1155 129.898 85.8678 126.192C84.6368 126.869 83.3134 129.345 84.7753 130.759C86.2218 131.498 87.4682 130.298 88.6992 130.114C88.3453 131.113 86.6218 132.497 84.7753 132.297C81.4977 131.928 81.7593 127.207 83.4673 125.116C84.4368 123.947 86.8988 122.809 88.9146 122.501C92.8847 121.886 97.5165 122.609 100.025 120.548C97.0856 119.856 92.854 121.025 88.2684 120.764C83.0518 120.472 79.1895 118.657 73.4652 119.672C70.1106 120.272 67.3254 121.932 68.2333 126.638C71.9264 130.852 77.7122 133.374 84.3444 133.158C88.4068 133.035 91.469 130.36 94.7928 129.898C98.0705 129.452 101.025 130.175 103.287 129.022C110.535 125.377 107.934 114.243 106.549 105.309ZM74.5423 126.408C76.1734 127.499 78.3277 126.946 79.5588 128.591C74.9886 129.083 71.2339 126.9 69.7567 123.593C71.8187 122.102 72.8343 125.285 74.5423 126.408Z" fill="#FFC440"/>
<path fill-rule="evenodd" clip-rule="evenodd" d="M110.243 119.672C110.812 121.302 109.396 122.378 109.366 124.024C109.335 126.085 110.489 127.899 110.012 130.114C108.442 137.618 98.5941 134.988 89.1151 135.988C83.2062 136.618 81.2981 139.648 74.9582 139.033C71.1574 138.664 68.3261 136.326 64.5098 135.557C57.97 134.235 50.83 136.403 44.6902 136.865C41.074 137.141 37.2271 137.341 33.3647 137.08C27.4711 136.68 19.9618 134.02 18.7769 130.329C16.7919 124.193 20.962 118.78 24.6551 116.842C29.2715 114.428 38.1042 113.813 45.1211 113.797C48.6295 113.797 52.1533 114.582 55.354 115.32C60.2012 116.427 64.2175 118.288 69.2955 119.026C78.0974 115.228 89.7307 120.994 99.9944 118.38C99.8098 116.904 99.6713 115.366 99.1173 114.243C94.2701 112.982 89.7768 114.982 86.0529 115.32C74.1581 116.442 62.8633 113.936 52.0918 112.706C48.0602 112.244 43.4745 112.752 39.4583 112.275C28.7021 110.983 17.6228 115.735 13.7605 122.932C10.5905 128.868 11.9139 136.403 16.5918 139.248C21.3313 142.124 29.8716 141.893 36.6269 140.986C45.5365 139.786 52.5534 135.357 63.1865 137.064C67.5259 137.756 70.7573 139.879 74.0657 140.325C80.1286 141.155 83.2062 137.649 88.8689 137.064C96.8707 136.234 106.011 139.725 110.858 135.757C115.167 132.282 114.982 122.025 110.243 119.672ZM20.1157 136.865C16.5457 137.234 14.5145 134.204 14.2375 130.56C14.2837 130.39 14.4221 130.298 14.6684 130.344C16.0225 132.959 17.7767 135.204 20.1157 136.865Z" fill="#FFC440"/>
<path fill-rule="evenodd" clip-rule="evenodd" d="M108.719 126.638C107.934 126.438 107.519 127.884 106.765 128.591C106.026 129.283 104.749 130.191 103.933 130.544C101.01 131.821 97.7935 130.621 93.7003 131.421C91.7922 131.79 90.3611 133.481 88.6839 134.035C79.8512 136.926 69.9106 132.313 66.4791 127.069C66.3098 124.301 66.5099 121.886 67.5716 120.333C60.9394 119.272 55.6922 116.135 47.1057 115.551C36.3957 114.812 22.5466 116.304 20.3307 124.255C19.8691 125.931 19.9152 128.745 20.5461 130.129C21.8541 132.959 29.1326 135.204 34.0413 135.573C37.7344 135.834 41.5353 135.65 45.1514 135.358C50.7526 134.912 57.9696 132.774 64.5248 134.05C69.0796 134.927 72.1726 138.003 78.2355 137.311C82.5441 136.818 86.8065 134.312 92.1615 133.835C97.9474 133.312 105.549 135.619 108.273 131.006C108.627 129.729 108.765 128.268 108.719 126.638ZM34.703 118.58C36.1803 118.103 37.7806 117.442 39.2732 117.273C46.1516 116.504 52.5222 118.472 58.2158 120.103C60.2008 120.672 62.4782 120.195 63.6631 121.84C55.9999 121.825 48.6445 118.334 39.9349 119.011C36.765 119.257 34.1644 120.687 31.0099 120.533C31.3792 119.011 33.3797 118.995 34.703 118.58ZM29.0403 124.67C28.7325 124.654 28.5632 124.777 28.394 124.885C27.5938 124.439 27.3938 123.501 27.9631 122.701C29.3019 122.44 29.3634 123.901 29.0403 124.67ZM30.3482 128.591C33.7797 130.913 39.5656 131.498 44.936 130.759C46.6441 130.529 48.2444 129.237 50.1679 129.022C50.8757 128.945 51.799 129.268 52.5684 129.237C57.0309 129.099 63.0168 127.899 64.7556 131.19C56.8155 128.453 46.9672 133.435 37.5344 132.713C34.6415 132.497 30.8253 132.051 29.7019 129.006C29.9943 128.976 30.0559 128.668 30.3482 128.591ZM73.2344 134.681C70.2799 134.512 68.1102 133.574 66.9253 131.636C69.3566 132.328 71.3878 133.42 73.2344 134.681Z" fill="#FFC440"/>
<path fill-rule="evenodd" clip-rule="evenodd" d="M106.104 55.9146C100.902 62.5425 94.2548 70.7544 89.3461 77.6745C91.7004 76.9671 92.8391 74.5066 94.1317 72.6612C97.9325 67.2943 102.734 62.0811 106.104 55.9146Z" fill="#7A4141"/>
<path fill-rule="evenodd" clip-rule="evenodd" d="M103.933 83.7642C109.827 77.3362 113.951 69.1089 117.859 60.6971C113.012 68.1709 108.965 76.475 103.933 83.7642Z" fill="white"/>
</g>
<defs>
<clipPath id="clip0_1_22205">
<rect width="143" height="144" fill="white" transform="matrix(-1 0 0 1 126 0)"/>
</clipPath>
</defs>
</svg>
