<svg width="240" height="78" viewBox="0 0 240 78" fill="none" xmlns="http://www.w3.org/2000/svg">
<g clip-path="url(#clip0_1_21957)">
<path d="M172.039 26.4881C171.508 26.573 170.914 26.5943 170.384 26.4881C168.241 26.0849 167.71 26.9975 167.816 29.0351C167.986 32.2824 167.859 35.5298 167.859 38.7983C164.527 35.6996 161.684 32.5583 159.181 29.1837C157.632 27.1037 155.955 26.3396 153.367 26.4245C151.309 26.4881 150.969 27.1249 150.99 28.9714C151.096 34.893 151.033 40.8359 151.033 46.7575C151.033 51.533 151.033 51.4694 155.849 51.5118C157.525 51.533 158.12 51.1298 158.056 49.3681C157.907 45.951 158.014 42.5126 158.014 38.289C161.196 42.1306 164.039 45.293 166.543 48.689C168.135 50.8539 169.896 51.6604 172.548 51.5543C174.458 51.4694 174.818 50.9175 174.797 49.1771C174.712 42.5126 174.67 35.8269 174.818 29.1624C174.882 26.8914 174.203 26.1273 172.039 26.4881Z" fill="#FEC827"/>
<path d="M126.759 26C118.951 25.8302 112.84 31.2424 112.607 38.5649C112.352 46.0359 118.251 51.8514 126.229 51.9788C134.164 52.1061 140.169 46.7363 140.318 39.3926C140.466 31.7518 134.843 26.191 126.759 26ZM126.526 46.0147C122.685 46.0359 119.842 43.1069 119.779 39.0955C119.715 34.9779 122.643 31.9004 126.568 31.9428C130.43 31.9853 133.125 34.893 133.146 39.0106C133.146 43.1494 130.43 46.0147 126.526 46.0147Z" fill="#FEC827"/>
<path d="M206.836 48.3706C207.048 47.0971 207.197 45.8024 205.033 45.9298C201.999 46.1208 198.922 45.8661 195.867 46.0147C194.063 46.0996 193.724 45.4204 193.724 43.7861C193.724 42.0881 194.021 41.2816 195.973 41.4302C198.37 41.6212 200.789 41.3665 203.187 41.5151C205.521 41.6637 204.863 40.0294 204.821 38.9257C204.778 37.7796 205.669 35.9543 203.102 36.1241C200.619 36.2726 198.094 36.0604 195.612 36.1877C193.787 36.2726 193.787 35.2751 193.766 33.9592C193.724 32.6008 194.021 31.9641 195.591 32.0277C198.54 32.1551 201.532 31.9216 204.481 32.1126C206.858 32.2824 206.476 30.7967 206.391 29.4596C206.306 28.2073 207.239 26.4032 204.545 26.4669C199.283 26.6155 193.999 26.573 188.716 26.4881C187.273 26.4669 186.785 26.8277 186.849 28.3134C186.955 31.8367 186.891 35.36 186.891 38.862C186.891 42.4702 186.934 46.0783 186.87 49.6865C186.849 50.9175 187.04 51.5118 188.504 51.4906C194.063 51.4057 199.622 51.4057 205.16 51.4906C207.897 51.533 206.645 49.5592 206.836 48.3706Z" fill="#FEC827"/>
<path d="M236.881 26.4881C234.462 26.1273 232.956 26.9339 231.895 29.2473C230.813 31.6245 229.243 33.7681 227.715 36.2939C225.89 33.28 224.214 30.6269 222.686 27.9102C222.113 26.8914 221.498 26.4457 220.31 26.5094C218.506 26.6155 216.681 26.5306 214.348 26.5306C216.915 30.8179 219.143 34.8294 221.625 38.671C223.238 41.1755 224.002 43.7012 223.874 46.7151C223.662 51.533 223.811 51.4269 228.585 51.533C230.643 51.5755 231.195 50.8539 230.919 49.0073C230.24 44.4653 231.661 40.5388 234.271 36.8457C235.884 34.5959 237.199 32.1339 238.579 29.7355C239.13 28.7379 240.106 27.9102 240 26.5094C238.918 26.5094 237.878 26.6367 236.881 26.4881Z" fill="#FEC827"/>
<path d="M101.913 31.5396C101.913 26.0424 101.913 26.0849 96.3326 26.4669C95.1444 26.5518 94.6988 26.9126 94.7412 28.1012C94.8049 30.1388 94.6776 32.1763 94.7836 34.2139C94.8473 35.551 94.3805 35.9543 93.065 35.9118C90.4764 35.8269 87.8878 35.8906 85.2992 35.9118C85.2992 33.3224 85.2992 30.7543 85.2992 28.1649C85.2992 27.3371 85.4689 26.3608 84.1534 26.4881C82.1589 26.6792 80.122 26.0424 78.1911 26.8914C77.9577 27.1249 77.9365 27.3796 78.1487 27.6343C78.1487 27.7616 78.1699 27.889 78.2123 28.0163C78.1062 29.3747 77.8941 30.733 78.3821 32.049C78.1487 32.7069 77.8728 33.3649 78.4882 33.9804C77.7031 36.3151 78.2548 38.6922 78.1699 41.0694C78.1487 43.5739 78.3609 46.0996 78.085 48.5616C77.8092 51.151 78.764 51.6604 81.1404 51.533C85.278 51.3208 85.278 51.4694 85.278 47.2245C85.278 46.8637 85.278 46.4816 85.278 46.1208C85.278 41.7698 85.278 41.7698 89.6489 41.7698C94.7624 41.7273 94.7624 41.7273 94.7624 46.7363C94.7624 51.5118 94.7624 51.4057 99.5577 51.5118C101.573 51.5543 101.998 50.9175 101.955 49.0286C101.828 43.213 101.913 37.3763 101.913 31.5396Z" fill="#FEC827"/>
</g>
<g clip-path="url(#clip1_1_21957)">
<path d="M33.8042 17.3818C39.7074 25.7606 44.5388 34.7636 48.5002 44.2035C50.1469 48.1355 50.8149 52.3952 50.6285 56.7016C50.5042 59.635 49.8673 62.4124 47.7235 64.7528C45.1913 61.8195 42.7057 58.8549 38.62 58.2307C38.62 58.0747 38.5889 57.9655 38.62 57.8875C38.9152 57.3726 40.2356 57.2789 39.5055 56.4052C38.9307 55.7186 38.2472 56.5612 37.7345 56.9201C33.3847 59.9783 31.6603 64.5344 30.7438 69.5274C30.3088 71.9147 30.2311 74.3332 30.3709 76.7516C30.402 77.2821 30.4331 77.9063 31.0545 77.9843C31.7691 78.0623 31.738 77.3914 31.8001 76.8921C32.0176 75.3161 33.074 74.3644 34.2857 73.553C37.2063 71.587 40.3444 70.0423 43.5912 68.7628C49.7275 66.3444 52.3063 62.2095 51.8868 54.1583C51.5917 48.3696 49.6809 43.0489 47.1021 37.8999C42.193 28.0543 36.9578 18.4272 29.8272 9.98588C26.9999 6.63121 23.8929 3.573 19.947 1.5446C16.7468 -0.109334 13.4534 -0.624237 10.0512 0.982884C5.56161 3.10491 3.49547 7.41137 4.36543 12.9349C5.29752 18.8173 8.06274 23.8883 11.3717 28.7096C12.2727 30.0359 13.267 31.3153 14.2612 32.5792C14.6962 33.1409 14.6496 33.3438 13.9971 33.687C5.99659 37.8999 2.14392 45.1397 0.295265 53.5498C-1.13395 60.0719 2.79639 64.8621 10.2376 65.5486C19.279 66.36 27.295 63.5826 34.0061 57.3102C34.1304 57.1853 34.2702 57.0761 34.3634 56.9357C34.643 56.452 35.6217 56.0619 34.9537 55.4066C34.2547 54.72 33.8974 55.6874 33.4935 56.0775C26.3318 62.8805 17.9274 65.7358 8.14042 63.9571C6.16748 63.5982 4.33435 62.6932 3.12262 60.9145C0.963264 58.574 1.02541 55.7342 1.64681 52.9569C2.87407 47.4646 5.51501 42.6588 9.33661 38.5396C10.7969 36.9637 12.5523 35.7934 14.4787 34.8417C15.3331 34.4204 15.9079 34.4672 16.5448 35.2473C17.5235 36.4332 18.642 37.5098 19.6984 38.6488C24.856 43.439 30.402 47.6518 36.9888 50.3356C39.0705 51.1781 41.1677 51.9115 43.4048 52.1611C44.8029 52.3172 46.2321 52.3016 47.1331 50.9909C48.0031 49.727 47.4749 48.4476 46.9157 47.2305C46.6982 46.7624 46.4807 46.2787 46.17 45.8731C40.0647 37.8375 32.2041 32.9069 22.0131 32.1735C20.7703 32.0799 19.4343 32.0955 18.2692 32.4544C16.5293 32.9849 15.5351 32.5012 14.4631 31.0501C10.6726 25.8699 7.23939 20.5336 5.82571 14.1519C5.31306 11.8114 5.20431 9.47098 5.96552 7.16172C7.05297 3.82265 10.2376 1.48218 13.7485 1.45098C16.8711 1.0609 19.4188 2.44958 21.8112 4.18152C26.7358 7.67662 30.4797 12.342 33.8042 17.3818ZM17.275 33.8743C19.1236 33.375 21.0344 33.1721 22.9763 33.3594C30.8059 34.1395 37.1442 37.8687 42.6125 43.3298C44.0417 44.7496 45.3156 46.3256 46.0457 48.2291C46.7448 50.0391 46.17 50.8661 44.2592 50.8661C43.5756 50.8661 42.861 50.8505 42.2086 50.6632C32.0642 47.9483 24.1259 41.8787 17.275 34.1395C17.2594 34.1395 17.275 34.0615 17.275 33.8743ZM34.5654 62.5372C35.8548 59.6506 37.6258 58.8393 40.3133 59.9627C42.8144 61.0081 44.601 62.9585 46.2787 65.0181C46.4651 65.2521 46.6205 65.4706 46.4807 65.7982C45.968 66.9373 42.9698 67.4522 42.1464 66.5316C40.1114 64.2691 37.9054 62.3344 34.5654 62.5372ZM32.7944 66.594C33.4469 63.9415 34.9071 63.1925 37.2374 64.1599C38.5889 64.7216 39.6142 65.7046 40.6706 66.6876C41.7581 67.7018 41.96 68.2323 40.2978 68.9657C38.9152 69.5742 38.2161 69.621 37.3151 68.2947C36.3364 66.8281 34.7518 66.2663 32.7944 66.594ZM31.3807 74.3644C31.6759 72.2111 31.9089 70.4636 32.1575 68.7316C32.2351 68.1231 32.6546 67.8891 33.2138 67.7798C34.5809 67.499 36.4917 68.56 37.0665 69.8395C37.3306 70.4324 36.9888 70.5728 36.6471 70.7444C34.845 71.6338 33.1672 72.6792 31.3807 74.3644Z" fill="#1C2835"/>
<path d="M19.6826 38.602C18.6262 37.4786 17.5232 36.3864 16.529 35.2006C15.892 34.436 15.3172 34.3892 14.4628 34.7949C12.5365 35.7467 10.781 36.9169 9.32075 38.4928C5.49915 42.612 2.85821 47.4178 1.63095 52.9101C1.00955 55.6875 0.947411 58.5272 3.10677 60.8677C5.51469 59.323 8.37312 59.4322 11.0141 58.8081C13.6395 58.184 16.2183 57.4974 18.7505 56.5768C22.6497 55.1726 24.1256 52.4732 23.3488 48.3384C22.8362 45.6703 21.8264 43.1738 20.5991 40.7553C20.2729 40.0843 19.7136 39.4602 19.6826 38.602Z" fill="#FAAF40"/>
<path d="M33.8044 17.3818C30.48 12.342 26.736 7.67668 21.8115 4.10356C19.4346 2.38722 16.8713 0.998541 13.7488 1.37302C18.1297 3.97874 19.2793 6.86531 17.819 12.1392C16.9956 15.135 16.4985 18.084 17.384 21.1266C18.3161 24.294 20.1492 26.7437 23.0543 28.3976C27.0933 30.7069 33.4316 28.5536 33.8821 22.8585C34.0375 21.0173 33.9598 19.2074 33.8044 17.3818Z" fill="#F9AF41"/>
<path d="M57.5411 36.6673C55.5682 35.7935 54.9312 34.0615 55.6458 31.6431C55.7857 31.175 56.2983 30.6289 55.5682 30.348C54.8069 30.0671 54.6361 30.8161 54.4652 31.331C54.0613 32.5012 54.1234 33.7027 54.3875 34.9041C54.5584 35.6375 54.4341 36.0743 53.6574 36.5268C51.9019 37.5254 51.3737 39.429 52.1505 41.1142C52.8961 42.7213 54.7914 43.5482 56.4692 42.9865C58.2868 42.378 59.2033 40.7709 58.8771 38.7737C58.4732 36.3084 59.2966 34.5608 61.518 33.2814C61.8598 33.0942 62.1084 32.9225 61.9841 32.5168C61.8598 32.0956 61.487 32.0956 61.1452 32.1268C60.1044 32.2516 59.3742 32.8601 58.7839 33.6871C58.147 34.5452 57.9295 35.5594 57.5411 36.6673ZM55.2885 37.2602C56.5779 37.229 57.6032 38.1808 57.6654 39.4602C57.7275 40.7553 56.7954 41.8007 55.5216 41.8787C54.1545 41.9567 53.067 40.9581 53.0515 39.6007C53.036 38.3368 54.0147 37.307 55.2885 37.2602Z" fill="#1E2B38"/>
<path d="M17.2753 33.8745C17.2753 34.0461 17.2442 34.1241 17.2753 34.1553C24.1262 41.8945 32.0645 47.9641 42.2089 50.679C42.8613 50.8507 43.5759 50.8663 44.2595 50.8819C46.1547 50.8819 46.7295 50.0393 46.046 48.245C45.3159 46.3414 44.042 44.7655 42.6128 43.3456C37.1445 37.8845 30.8062 34.1553 22.9766 33.3752C21.0347 33.1879 19.1395 33.3752 17.2753 33.8745Z" fill="#FAFAFA"/>
<path d="M34.5654 62.5374C37.921 62.3346 40.1114 64.2694 42.1465 66.5162C42.9698 67.4368 45.9681 66.9375 46.4807 65.7829C46.6205 65.4708 46.4496 65.2368 46.2788 65.0183C44.601 62.9587 42.8145 61.0083 40.3133 59.9629C37.6258 58.8395 35.8548 59.6508 34.5654 62.5374Z" fill="#F3AC3F"/>
<path d="M32.7944 66.594C34.7518 66.2819 36.3364 66.8281 37.3151 68.2947C38.2161 69.621 38.9152 69.5898 40.2978 68.9657C41.9445 68.2323 41.7581 67.6862 40.6707 66.6876C39.6143 65.7046 38.589 64.706 37.2374 64.1599C34.9072 63.1769 33.4624 63.9415 32.7944 66.594Z" fill="#F2F3F3"/>
<path d="M31.3804 74.3646C33.1669 72.695 34.8603 71.634 36.6468 70.7291C36.9885 70.5574 37.3303 70.417 37.0662 69.8241C36.4914 68.5446 34.5806 67.4836 33.2135 67.7645C32.6543 67.8737 32.2348 68.1233 32.1572 68.7163C31.8931 70.4638 31.6756 72.1957 31.3804 74.3646Z" fill="#F3AC3F"/>
<path d="M55.2891 37.2603C54.0153 37.2915 53.0366 38.3213 53.0521 39.6007C53.0676 40.9582 54.1706 41.9568 55.5221 41.8788C56.8115 41.8008 57.7281 40.7554 57.666 39.4603C57.6194 38.1809 56.5785 37.2291 55.2891 37.2603Z" fill="#FAFAFA"/>
</g>
<defs>
<clipPath id="clip0_1_21957">
<rect width="162" height="26" fill="white" transform="translate(78 26)"/>
</clipPath>
<clipPath id="clip1_1_21957">
<rect width="62" height="78" fill="white" transform="matrix(-1 0 0 1 62 0)"/>
</clipPath>
</defs>
</svg>
