<svg width="454" height="719" viewBox="0 0 454 719" fill="none" xmlns="http://www.w3.org/2000/svg">
<g opacity="0.71" clip-path="url(#clip0_1_24361)">
<g opacity="0.3">
<path d="M511.541 -370.409C463.976 -377.897 401.845 -363.292 341.06 -330.349C284.608 -299.749 237.202 -258.067 214.257 -218.84C146.508 -103.032 190.164 -35.8784 273.155 72.842C279.663 81.3683 286.187 89.7547 292.5 97.8371C330.287 146.349 362.924 188.223 374.659 238.413C387.531 293.422 372.972 352.914 328.838 425.592C301.478 470.666 295.393 512.597 310.783 550.242C343.527 630.387 463.949 664.571 466.229 665.203C553.043 693.247 616.036 694.644 653.42 669.346C671.086 657.402 682.986 639.707 689.413 615.721C692.346 604.776 694.139 592.537 694.809 578.945C695.783 559.291 684.161 536.18 671.851 511.73C647.241 462.791 619.331 407.34 674.876 354.5C707.355 323.6 723.156 286.273 720.553 246.611C717.353 197.926 686.566 147.352 638.211 111.326C622.052 99.2862 610.964 87.3062 603.619 75.0302C603.307 72.3695 602.979 69.6842 602.677 66.9849C602.369 63.6038 602.071 60.1842 601.803 56.7314C601.439 50.9027 601.169 44.9551 600.931 38.8919C600.865 34.2152 600.82 29.4615 600.834 24.6413C600.928 20.1515 601.067 15.5708 601.246 10.9183C601.497 6.69775 601.75 2.39494 602.043 -1.97957C602.406 -6.06737 602.789 -10.2321 603.188 -14.4547C603.375 -16.0125 603.557 -17.5512 603.73 -19.1335C604.016 -21.5306 604.293 -23.9715 604.581 -26.4508C605.116 -30.245 605.672 -34.1161 606.204 -38.0554C606.801 -41.6889 607.388 -45.366 607.977 -49.1253C608.641 -52.6993 609.282 -56.3414 609.939 -60.0412C610.631 -63.4842 611.319 -66.99 611.979 -70.5447C612.719 -73.9334 613.431 -77.3711 614.134 -80.8524C625.346 -129.573 633.057 -188.509 615.883 -264.338C602.097 -325.158 566.016 -361.833 511.541 -370.409ZM559.33 -99.0623C543.814 -111.549 519.169 -111.37 496.597 -98.6162C484.684 -91.8921 468.187 -78.6859 457.332 -54.0315C447.223 -31.0733 444.608 -4.04605 449.539 26.3022C457.703 76.3802 469.111 106.856 480.207 132.321C481.116 134.399 482.01 136.453 482.895 138.463C498.513 174.004 509.802 199.686 497.984 263.479C495.157 278.719 493.929 294.553 492.644 311.299C491.752 322.832 490.843 334.587 489.379 347.079C489.284 347.59 489.165 348.114 489.065 348.644C489.093 342.756 489.013 336.962 488.932 331.25C488.628 310.429 488.343 290.789 493.32 270.105C509.483 203.064 496.181 175.441 477.766 137.212C476.516 134.61 475.238 131.958 473.956 129.244C459.466 98.7877 448.543 67.9884 442.336 16.6207C437.128 -26.5217 448.224 -81.6848 495.009 -107.144C517.895 -119.586 542.61 -119.788 557.968 -107.653C567.246 -100.322 572.348 -89.2863 573.194 -75.4119C570.68 -87.6716 564.358 -95.0143 559.33 -99.0623ZM572.366 -66.46C570.562 -75.7461 566.278 -83.4292 559.496 -88.978C544.594 -101.176 520.246 -100.938 498.907 -88.4108C485.089 -80.2798 441.298 -47.3189 458.593 35.7169C468.772 84.6031 479.957 113.411 488.952 136.561C506.828 182.582 516.472 207.452 493.224 327.886C493.709 322.326 494.129 316.851 494.554 311.44C495.847 294.737 497.065 278.942 499.867 263.798C511.79 199.456 500.396 173.54 484.649 137.696C483.764 135.686 482.87 133.632 481.962 131.554C469.172 102.254 459.09 73.0821 451.405 25.9777C444.401 -16.9451 452.857 -71.7849 497.537 -97.045C519.442 -109.42 543.226 -109.665 558.141 -97.6699C567.052 -90.458 571.811 -79.782 572.366 -66.46ZM559.168 -109.084C543.203 -121.69 517.672 -121.563 494.124 -108.762C481.646 -101.962 464.203 -88.6596 451.996 -63.7281C440.7 -40.6347 436.804 -13.5174 440.481 16.8246C446.729 68.43 457.689 99.4042 472.26 130.026C473.542 132.741 474.82 135.392 476.09 138C494.328 175.872 507.506 203.256 491.513 269.662C486.479 290.557 486.772 310.324 487.064 331.265C487.187 340.183 487.307 349.266 487.017 358.63C486.923 359.059 486.829 359.487 486.755 359.921C486.499 361.11 486.273 362.265 486.042 363.44C485.595 357.92 485.025 352.469 484.445 347.056C482.064 324.771 479.58 301.697 486.843 276.389C487.321 274.682 487.794 272.995 488.242 271.321C506.106 204.653 490.41 174.245 470.648 135.965C469.119 132.999 467.556 130.003 465.994 126.925C449.597 94.6796 437.773 62.0102 433.311 7.25492C427.925 -58.8186 460.3 -100.343 492.402 -117.181C516.299 -129.724 541.983 -129.872 557.839 -117.562C567.802 -109.821 573.353 -97.8817 574.252 -82.7976C572.217 -93.7951 567.165 -102.756 559.168 -109.084ZM558.981 -119.009C542.552 -131.76 516.051 -131.687 491.498 -118.805C472.767 -108.98 457.227 -93.2501 446.502 -73.3022C434.018 -50.0735 428.961 -22.9171 431.427 7.40987C435.915 62.4606 447.81 95.3346 464.302 127.771C465.864 130.848 467.422 133.863 468.951 136.829C488.999 175.681 504.898 206.35 485.007 275.897C477.671 301.556 480.147 324.814 482.546 347.269C483.366 354.91 484.19 362.697 484.615 370.562C484.188 372.86 483.766 375.138 483.369 377.403C482.505 372.265 481.481 367.104 480.448 361.818C475.651 337.608 470.694 312.592 480.321 282.681C504.058 209.094 486.087 176.159 463.366 134.467C461.61 131.255 459.831 127.974 458.027 124.625C439.079 89.3255 426.829 55.8205 424.266 -2.11612C421.324 -68.4008 456.107 -110.166 489.633 -127.159C514.994 -140.01 541.06 -140.097 557.675 -127.419C568.329 -119.287 574.27 -106.46 575.266 -90.1744C573.178 -102.382 567.711 -112.216 558.981 -119.009ZM558.822 -128.885C541.614 -142.01 514.771 -141.987 488.758 -128.816C454.724 -111.568 419.403 -69.2039 422.364 -2.04858C424.942 56.222 437.277 89.9559 456.336 125.471C458.139 128.82 459.918 132.1 461.674 135.313C484.19 176.599 501.974 209.216 478.496 282.069C468.712 312.412 473.725 337.689 478.587 362.123C480.011 369.308 481.398 376.318 482.37 383.237C482.323 383.493 482.295 383.753 482.248 384.008C480.974 379.152 479.446 374.228 477.9 369.217C470.795 346.202 462.774 320.118 473.795 288.911C501.053 211.793 481.172 176.924 455.989 132.779C454.04 129.35 452.043 125.867 450.032 122.277C428.382 83.6969 415.751 49.4299 415.207 -11.5116C414.594 -77.9759 451.768 -119.988 486.756 -137.125C513.216 -150.094 540.339 -150.144 557.506 -137.257C568.923 -128.694 575.337 -114.894 576.413 -97.2681C574.259 -110.792 568.345 -121.612 558.822 -128.885ZM558.628 -138.709C540.869 -152.044 512.987 -152.051 485.876 -138.762C450.38 -121.37 412.674 -78.779 413.291 -11.4685C413.848 49.8891 426.57 84.3658 448.358 123.21C450.374 126.78 452.347 130.278 454.316 133.712C479.249 177.46 498.948 211.992 471.985 288.323C460.731 320.086 468.894 346.497 476.075 369.779C478.081 376.274 480.021 382.629 481.473 388.852C480.996 391.961 480.579 395.003 480.191 398.012C478.563 393.226 476.6 388.288 474.551 383.121C464.811 358.535 453.771 330.673 467.268 295.223C497.954 214.529 476.163 177.726 448.588 131.105C446.44 127.479 444.25 123.779 442.055 120.016C418.145 78.9335 404.613 42.7141 406.152 -20.844C407.776 -87.4514 447.314 -129.695 483.775 -147.015C511.384 -160.13 539.579 -160.12 557.356 -147.008C566.848 -140.011 576.925 -126.838 577.833 -102.412C575.861 -118.176 569.38 -130.633 558.628 -138.709ZM558.468 -148.503C540.134 -162.033 511.185 -162.121 482.949 -148.7C445.986 -131.144 405.901 -88.3455 404.262 -20.8972C402.712 43.0911 416.343 79.5639 440.426 120.94C442.635 124.727 444.806 128.422 446.953 132.048C460.902 155.618 472.933 175.953 477.922 200.771C483.408 228.032 479.443 257.831 465.478 294.558C451.722 330.66 462.914 358.893 472.778 383.801C475.377 390.352 477.804 396.527 479.628 402.458C479.225 405.835 478.883 409.144 478.605 412.369C476.563 407.41 474.088 402.273 471.479 396.853C459.526 372.086 444.659 341.24 460.717 301.466C494.759 217.157 471.102 178.411 441.143 129.358C438.816 125.539 436.442 121.666 434.054 117.686C407.184 72.9658 393.337 36.126 397.054 -30.25C400.792 -97.0124 442.715 -139.483 480.706 -156.97C509.912 -170.419 538.494 -170.368 557.171 -156.788C570.504 -147.092 577.872 -131.388 579.006 -110.695C576.378 -130.654 567.189 -142.064 558.468 -148.503ZM481.87 400.029C481.775 400.849 481.701 401.674 481.612 402.475C481.603 402.431 481.588 402.407 481.579 402.363C481.682 401.587 481.786 400.81 481.87 400.029ZM481.028 407.39C481.055 407.521 481.083 407.652 481.111 407.783C480.843 410.969 480.596 414.077 480.425 417.062C480.354 416.857 480.288 416.634 480.198 416.424C480.439 413.416 480.704 410.395 481.028 407.39ZM558.298 -158.259C539.078 -172.232 509.766 -172.376 479.914 -158.625C441.445 -140.916 398.981 -97.91 395.193 -30.3363C391.45 36.5275 405.396 73.6208 432.454 118.659C434.842 122.639 437.211 126.531 439.557 130.355C469.238 178.962 492.698 217.347 458.991 300.798C442.629 341.315 457.702 372.566 469.797 397.66C473.026 404.359 476.05 410.653 478.265 416.607C477.987 420.222 477.793 423.758 477.65 427.183C475.172 421.901 472.03 416.359 468.721 410.504C453.9 384.411 435.472 351.931 454.22 307.745C491.588 219.771 466.055 179.12 433.751 127.645C431.227 123.629 428.674 119.564 426.107 115.392C396.155 66.8567 382.035 29.552 388.029 -39.6158C393.838 -106.607 439.933 -150.042 477.647 -166.881C508.06 -180.461 537.754 -180.339 557.035 -166.514C571.35 -156.266 579.25 -139.265 580.395 -116.817C577.748 -139.049 567.695 -151.453 558.298 -158.259ZM523.493 522.898C522.454 521.775 521.411 520.588 520.354 519.377C520.393 519.388 520.413 519.393 520.447 519.423C521.479 520.648 522.488 521.804 523.493 522.898ZM532.034 524.774C536.763 526.186 541.893 526.262 547.741 524.984C565.098 521.223 581.076 499.797 592.766 465.779C581.587 501.562 568.964 520.857 553.901 525.665C545.22 528.452 538.472 528.169 532.034 524.774ZM548.174 542.273C557.832 544.51 565.75 540.9 574.665 534.816C589.302 524.802 594.531 499.114 601.159 466.565C602.055 462.125 603.014 457.455 604.017 452.693C602.504 460.843 601.214 468.703 600.024 476.115C595.49 504.051 591.906 526.098 580.169 535.837C572.742 541.991 564.589 547.887 553.918 546.306C542.239 544.579 528.295 534.039 511.172 513.721C512.651 514.922 514.2 516.017 515.784 516.978C527.97 531.891 538.496 540.03 548.174 542.273ZM599.292 466.188C592.753 498.328 587.586 523.703 573.568 533.285C565.063 539.088 557.564 542.542 548.575 540.463C541.697 538.867 534.172 533.903 525.808 525.353C531.645 531.226 537.196 534.961 542.613 536.701C552.322 539.838 560.857 536.27 567.93 532.372C585.369 522.759 592.718 493.144 601.493 455.398C600.753 459.096 600.019 462.693 599.292 466.188ZM567.006 530.744C559.952 534.647 552.168 537.838 543.189 534.938C540.203 533.973 537.153 532.31 533.989 529.978C534.971 530.53 535.95 531.019 536.91 531.42C546.217 535.357 554.784 532.684 561.195 529.929C579.346 522.114 589.574 494.096 598.86 458.424C590.525 494.062 583.24 521.796 567.006 530.744ZM560.444 528.202C551.307 532.145 544.49 532.586 537.662 529.705C536.347 529.146 535.028 528.442 533.706 527.593C539.853 530.044 546.543 530.002 554.49 527.452C573.903 521.253 586.702 493.408 595.851 462.545C586.998 495.508 577.101 521.038 560.444 528.202ZM547.304 523.176C541.038 524.528 535.676 524.307 530.761 522.413C534.107 522.897 537.526 522.948 540.992 522.515C562.788 519.842 580.493 493.847 591.454 463.799C579.973 497.976 564.288 519.481 547.304 523.176ZM540.756 520.659C535.411 521.309 530.106 520.795 525.076 519.179C528.457 519.92 531.585 520.119 534.272 520.014C554.073 519.321 574.187 499.332 587.03 470.386C575.173 499.246 558.116 518.528 540.756 520.659ZM525.12 517.294C525.913 517.383 526.72 517.496 527.528 517.527C547.195 518.426 568.114 501.374 581.899 476.412C569.321 500.853 551.362 517.563 534.184 518.156C531.561 518.257 528.471 518.068 525.12 517.294ZM527.606 515.672C526.304 515.611 525.022 515.474 523.741 515.254C545.081 516.004 568.496 497.292 582.391 471.452C569.074 498.024 547.665 516.593 527.606 515.672ZM521.029 513.188C520.99 513.177 520.931 513.161 520.887 513.17C526.404 513.205 532.22 512.125 538.189 509.849C552.683 504.352 566.069 492.91 575.904 478.785C561.472 500.77 540.123 515.521 521.029 513.188ZM513.04 510.346C506.609 501.923 499.708 491.662 492.297 479.554C491.281 476.314 490.332 472.823 489.486 469.029C498.201 486.27 506.169 499.97 513.611 510.479C513.43 510.451 513.235 510.398 513.04 510.346ZM481.273 464.602C481.771 465.478 482.269 466.353 482.777 467.19C483.716 472.122 484.864 476.511 486.14 480.42C485.477 479.459 484.833 478.503 484.169 477.542C482.959 473.465 482.007 469.128 481.273 464.602ZM481.122 473.055C481.016 472.903 480.91 472.751 480.824 472.604C480.856 472.407 480.868 472.204 480.895 472.026C480.969 472.375 481.043 472.725 481.122 473.055ZM482.943 455.711C483.067 455.95 483.172 456.184 483.296 456.424C483.779 460.326 484.392 463.974 485.073 467.373C484.9 467.079 484.728 466.785 484.555 466.492C483.898 463.162 483.372 459.578 482.943 455.711ZM481.848 461.829C481.762 461.682 481.676 461.535 481.594 461.369C481.637 461.133 481.66 460.892 481.682 460.651C481.741 461.058 481.799 461.465 481.848 461.829ZM485.786 472.367C486.002 472.734 486.203 473.077 486.424 473.425C487.765 478.732 489.326 483.376 491.027 487.419C490.829 487.139 490.647 486.884 490.449 486.605C488.709 482.551 487.12 477.858 485.786 472.367ZM488.815 487.548C490.983 492.582 493.394 496.63 495.817 499.856C491.881 495.482 488.766 490.153 486.371 484.09C487.194 485.238 488.012 486.405 488.815 487.548ZM495.446 488.191C500.554 496.239 505.38 503.305 509.983 509.486C509.905 509.465 509.832 509.425 509.735 509.399C508.644 508.467 507.555 507.454 506.453 506.334C505.781 505.639 505.124 504.885 504.454 504.108C501.308 499.987 498.201 494.784 495.446 488.191ZM488.113 462.044C487.653 459.385 487.229 456.591 486.861 453.668C492.416 467.547 497.683 479.452 502.765 489.472C502.87 489.706 502.969 489.959 503.054 490.188C498.302 481.988 493.319 472.613 488.113 462.044ZM486.068 446.549C485.88 444.438 485.699 442.224 485.566 439.983C488.538 449.83 491.473 458.8 494.37 466.895C491.66 460.603 488.892 453.821 486.068 446.549ZM482.403 450.227C482.404 450.144 482.4 450.081 482.382 449.994C482.434 449.72 482.467 449.44 482.5 449.16C482.542 449.707 482.614 450.221 482.656 450.768C482.58 450.583 482.498 450.417 482.403 450.227ZM480.492 449.859C480.219 449.002 479.902 448.155 479.551 447.277C479.387 443.749 479.316 440.184 479.344 436.563C479.574 437.346 479.809 438.11 479.98 438.878C480.067 442.694 480.244 446.329 480.498 449.757C480.507 449.801 480.497 449.84 480.492 449.859ZM485.19 432.089C485.15 430.677 485.096 429.24 485.071 427.769C486.224 433.232 487.4 438.454 488.593 443.453C487.46 439.79 486.32 436 485.19 432.089ZM479.912 432.489C479.751 432.075 479.59 431.661 479.415 431.222C479.497 427.946 479.643 424.666 479.853 421.382C479.952 421.718 480.05 422.054 480.149 422.389C480.004 425.896 479.94 429.26 479.912 432.489ZM558.147 -168.009C538.278 -182.218 507.895 -182.422 476.86 -168.555C438.693 -151.508 392.037 -107.543 386.159 -39.7458C380.109 29.943 394.329 67.5011 424.501 116.384C427.068 120.556 429.636 124.646 432.165 128.643C464.177 179.647 489.474 219.926 452.504 307.038C433.388 352.053 452.074 384.974 467.092 411.428C471.177 418.604 474.97 425.31 477.543 431.566C477.448 435.437 477.447 439.189 477.542 442.822C474.677 437.106 470.657 430.937 466.204 424.116C449.302 398.209 426.152 362.731 447.723 314.024C454.076 299.687 458.768 286.554 462.025 274.398C479.605 208.788 455.568 171.383 426.355 125.952C423.652 121.743 420.92 117.486 418.155 113.117C385.663 61.7157 370.686 22.532 378.999 -48.9623C383.654 -89.0701 403.942 -125.958 436.085 -152.866C464.878 -176.961 499.232 -189.547 527.972 -186.567C561.311 -183.097 580.448 -159.828 581.981 -121.876C579.456 -147.064 568.337 -160.723 558.147 -168.009ZM570.41 -165.569C560.787 -178.64 546.156 -186.54 528.153 -188.415C498.905 -191.449 464.023 -178.695 434.854 -154.289C402.34 -127.088 381.831 -89.7649 377.116 -49.199C368.741 22.8357 383.828 62.3165 416.554 114.09C419.319 118.459 422.065 122.741 424.774 126.93C459.096 180.327 486.225 222.519 446.003 313.254C424.023 362.862 447.501 398.839 464.643 425.099C470.176 433.591 475.027 441.035 477.751 447.743C477.99 452.322 478.373 456.672 478.922 460.797C475.998 453.974 470.4 446.351 463.944 437.632C444.013 410.604 416.698 373.557 441.211 320.278C485.037 224.922 455.869 180.493 418.944 124.234C416.062 119.833 413.132 115.379 410.188 110.817C374.36 55.306 359.205 15.8479 369.954 -58.3333C382.207 -142.811 465.834 -203.031 526.923 -196.558C561.954 -192.841 582.131 -167.829 583.566 -127.244C582.23 -142.651 577.843 -155.496 570.41 -165.569ZM527.084 -198.412C496.936 -201.604 460.593 -188.706 429.845 -163.877C395.868 -136.45 373.917 -99.0596 368.062 -58.6137C357.241 16.1464 372.505 55.9015 408.582 111.81C411.545 116.376 414.471 120.85 417.353 125.251C453.966 181.034 482.898 225.091 439.492 319.508C414.539 373.803 442.21 411.317 462.415 438.727C472.688 452.654 480.795 463.649 478.918 472.609L478.815 472.994L479.041 473.322C480.252 475.131 481.434 476.891 482.621 478.632C486.129 490.23 491.401 499.147 498.463 505.059C500.615 506.872 502.937 508.361 505.357 509.566C524.873 533.762 540.561 546.232 553.653 548.153C565.093 549.837 573.627 543.691 581.38 537.255C587.975 531.785 592.077 522.804 595.174 511.243C597.834 501.318 599.744 489.502 601.872 476.404C603.259 467.869 604.731 458.781 606.556 449.312C604.532 461.243 603.185 472.674 601.967 483.315C599.067 508.514 596.766 528.43 586.761 538.346C578.812 546.215 570.718 553.22 559.227 552.429C540.501 551.143 515.342 529.332 480.039 483.815C481.542 475.003 472.861 464.43 461.889 451.08C438.774 422.971 407.131 384.497 434.666 326.502C481.701 227.45 450.716 181.133 411.513 122.511C408.453 117.918 405.329 113.247 402.187 108.488C363.68 49.9292 347.682 8.61662 360.856 -67.7393C375.553 -152.902 463.138 -213.361 525.82 -206.584C562.886 -202.569 584.225 -175.329 585.232 -131.354C582.599 -170.59 561.998 -194.726 527.084 -198.412ZM526.001 -208.433C462.527 -215.298 373.875 -154.218 358.994 -68.0528C345.698 8.90974 361.825 50.5247 400.596 109.505C403.733 114.283 406.856 118.954 409.937 123.552C448.827 181.698 479.543 227.614 432.966 325.737C404.942 384.776 438.33 425.409 460.438 452.278C471.25 465.442 479.811 475.838 478.117 483.878L478.029 484.287L478.294 484.626C514.083 530.829 539.756 552.984 559.119 554.318C571.412 555.158 579.853 547.875 588.115 539.698C592.842 535.028 595.909 528.345 598.125 520.074C600.821 510.015 602.244 497.594 603.87 483.557C605.138 472.496 606.55 460.587 608.708 448.157C606.539 462.502 605.644 476.157 604.82 488.842C603.295 512.265 602.072 530.739 593.377 540.923C584.99 550.736 577.038 558.851 564.552 558.886C544.896 558.959 517.801 538.67 479.268 495.051C480.535 487.041 471.498 477.094 460.105 464.538C435.162 437.074 397.489 395.561 428.169 332.781C437.163 314.369 443.483 297.735 447.581 282.443C466.362 212.352 438.174 170.907 404.131 120.842C400.872 116.052 397.55 111.183 394.22 106.188C352.14 43.2293 336.021 1.82246 351.817 -77.1295C359.775 -116.909 384.285 -154.006 420.828 -181.632C454.4 -207.002 493.26 -220.071 524.756 -216.6C564.547 -212.205 586.54 -183.346 586.978 -135.215C584.828 -177.971 563.067 -204.417 526.001 -208.433ZM524.938 -218.448C459.87 -225.616 367.335 -164.34 349.945 -77.4868C334.127 1.62428 351.096 45.0937 392.624 107.224C395.954 112.219 399.276 117.088 402.535 121.878C443.687 182.362 476.182 230.157 426.44 331.967C395.201 395.896 433.421 437.947 458.682 465.785C469.931 478.179 478.823 487.963 477.303 495.122L477.204 495.569L477.542 495.948C516.61 540.227 544.269 560.832 564.571 560.767C577.832 560.733 586.45 551.931 594.811 542.132C598.201 538.154 600.507 533.061 602.136 526.983C604.867 516.789 605.714 503.863 606.685 488.991C607.6 474.949 608.61 459.696 611.33 443.685C608.712 461.579 608.44 478.535 608.222 493.175C607.889 515.434 607.618 533.008 599.978 543.475C591.574 554.994 583.509 564.625 569.918 565.581C549.519 567.021 519.609 547.627 478.473 506.3C479.509 499.073 470.674 490.171 458.536 477.971C430.337 449.614 387.712 406.733 421.632 339.049C475.004 232.521 440.447 182.504 396.724 119.188C393.272 114.181 389.772 109.119 386.229 103.903C341.31 37.7093 324.377 -5.50321 342.728 -86.4917C351.589 -125.576 378.152 -163.772 415.613 -191.234C450.814 -217.055 491.199 -230.272 523.673 -226.621C547.737 -223.925 588.213 -209.121 588.767 -140.405C588.776 -139.578 588.775 -138.795 588.789 -137.987C587.457 -184.894 564.444 -214.088 524.938 -218.448ZM589.78 439.107C586.085 468.525 563.623 498.212 537.501 508.118C530.582 510.738 523.915 511.714 517.748 511.134C516.445 509.279 515.128 507.318 513.794 505.188C508.796 496.963 503.825 486.375 498.799 473.257C493.971 458.46 489.439 440.217 485.078 418.288C485.093 416.828 485.132 415.354 485.176 413.861C485.714 410.212 485.802 406.525 485.587 402.798C485.791 399.925 486.006 397.014 486.286 394.017C486.555 391.059 486.692 388.127 486.759 385.217C486.873 384.403 486.957 383.621 487.056 382.782C487.753 377.526 488.208 372.391 488.519 367.32C489.629 360.443 490.55 353.804 491.292 347.365C519.406 209.784 509.634 184.612 490.739 135.906C481.768 112.824 470.626 84.0898 460.469 35.3539C443.438 -46.4775 486.354 -78.8277 499.92 -86.7994C520.568 -98.9345 544.054 -99.2386 558.316 -87.5419C567.192 -80.2775 571.602 -69.4685 571.562 -56.0377C571.368 -55.0795 571.188 -54.0968 571.014 -53.1333C570.936 -52.8448 570.884 -52.5703 570.807 -52.2818C569.825 -48.4628 568.996 -44.665 568.299 -40.8934C568.232 -40.6434 568.16 -40.374 568.093 -40.124C567.14 -36.5656 566.333 -33.009 565.659 -29.4787C564.58 -25.6859 563.673 -21.909 562.942 -18.1671C546.72 36.6737 573.135 89.1888 596.614 135.784C606.89 156.184 616.55 175.368 622.334 193.473C622.844 199.773 623.032 205.947 622.81 212.01C622.627 215.424 622.342 218.832 621.842 222.182C621.579 223.947 621.355 225.721 621.135 227.477C621.12 227.534 621.11 227.573 621.094 227.631C620.396 230.783 619.791 233.899 619.25 237.011C618.406 240.084 617.626 243.153 616.953 246.209C615.938 249.297 615.049 252.378 614.215 255.412C613.113 258.353 612.08 261.272 611.16 264.159C609.85 267.251 608.653 270.311 607.575 273.321C606.233 276.219 604.985 279.08 603.85 281.909C583.985 320.889 586.63 353.285 589.228 384.76C590.655 402.171 592.147 420.197 589.78 439.107ZM599.202 130.581C579.795 89.489 558.278 43.8526 562.841 -4.50556C561.357 42.9872 580.806 87.1212 598.41 127.05C602.34 135.978 606.17 144.653 609.68 153.118C606.371 145.779 602.834 138.275 599.202 130.581ZM611.627 162.257C607.458 153.285 602.864 144.179 598.232 134.98C578.129 95.0829 555.834 50.7845 560.359 4.60125C559.08 49.9224 579.214 92.6731 597.481 131.378C602.511 141.982 607.354 152.268 611.627 162.257ZM600.154 126.321C581.451 83.9335 560.694 36.7897 565.322 -13.9218C563.629 35.9889 582.373 81.6654 599.341 122.949C602.318 130.2 605.248 137.314 607.988 144.274C605.464 138.382 602.838 132.401 600.154 126.321ZM601.1 122.246C583.158 78.5774 563.2 29.9365 567.782 -23.2611C565.998 29.1813 584.005 76.4334 600.275 119.076C602.321 124.407 604.305 129.66 606.246 134.839C604.556 130.676 602.833 126.483 601.1 122.246ZM602.042 118.416C584.826 73.293 565.673 22.9714 570.264 -33.069C568.362 22.3107 585.635 71.3658 601.218 115.556C602.299 118.629 603.372 121.659 604.41 124.658C603.624 122.592 602.823 120.501 602.042 118.416ZM572.736 -43.6217C570.649 15.337 587.242 66.5394 602.183 112.578C602.296 112.938 602.414 113.279 602.527 113.639C586.142 67.1311 568.078 15.2458 572.736 -43.6217ZM575.172 -53.7303C573.242 5.27027 587.108 55.9481 600.617 101.624C585.86 55.7583 570.97 4.76457 575.172 -53.7303ZM577.617 -64.8878C575.83 -6.2615 586.927 43.6539 598.785 88.6194C585.749 43.4414 573.758 -6.73408 577.617 -64.8878ZM624.042 246.006C624.406 245.114 624.737 244.192 625.063 243.29C625.077 243.314 625.067 243.353 625.081 243.377C624.774 244.367 624.428 245.346 624.077 246.345C624.044 246.233 624.055 246.112 624.042 246.006ZM621.483 247.196C621.474 247.152 621.489 247.095 621.48 247.051C621.717 246.558 621.92 246.035 622.137 245.536C622.132 245.556 622.141 245.599 622.131 245.638C621.933 246.141 621.705 246.678 621.483 247.196ZM621.323 251.854C621.66 251.222 621.977 250.586 622.275 249.944C622.282 250.152 622.289 250.36 622.296 250.568C621.988 251.248 621.636 251.937 621.309 252.612C621.331 252.371 621.315 252.119 621.323 251.854ZM619.096 252.04C619.108 251.92 619.114 251.818 619.125 251.698C619.246 251.482 619.342 251.281 619.462 251.066C619.456 251.168 619.464 251.293 619.458 251.395C619.337 251.61 619.217 251.825 619.096 252.04ZM619.381 255.353C619.387 255.643 619.373 255.928 619.379 256.219C619.119 256.644 618.873 257.093 618.612 257.518C618.636 257.195 618.655 256.89 618.679 256.567C618.824 256.338 618.95 256.103 619.095 255.874C619.185 255.692 619.276 255.511 619.381 255.353ZM616.484 260.226C616.477 260.409 616.47 260.593 616.457 260.796C616.322 260.986 616.207 261.182 616.072 261.373C616.099 261.195 616.126 261.016 616.153 260.838C616.268 260.642 616.364 260.441 616.484 260.226ZM591.092 384.6C588.964 358.714 586.795 332.198 597.324 301.889C590.797 327.889 592.034 351.475 593.278 374.568C593.956 387.037 594.644 399.941 594.027 412.867C593.715 419.422 593.209 428.109 591.927 437.188C591.879 437.525 591.806 437.877 591.757 438.214C593.959 419.528 592.522 401.764 591.092 384.6ZM595.947 412.969C596.545 399.956 595.868 387.013 595.185 374.482C593.798 348.876 592.415 322.633 601.785 293.21C596.198 318.122 596.949 341.103 597.7 363.611C598.244 379.63 598.749 394.774 597.096 410.556L596.855 412.862C596.097 420.142 595.336 427.669 594.114 435.279C594.093 435.356 594.097 435.419 594.076 435.496C595.168 427.047 595.65 419.074 595.947 412.969ZM598.753 413.041L598.995 410.735C600.64 394.827 600.11 378.914 599.603 363.543C598.754 338.35 597.898 312.557 606.065 284.111C601.445 307.838 601.891 330.079 602.344 351.826C602.766 371.112 603.158 389.338 600.155 408.201C599.643 411.362 599.189 414.539 598.726 417.754C598.052 422.377 597.342 427.135 596.52 431.924C597.442 425.512 598.109 419.197 598.753 413.041ZM600.594 418.049C601.052 414.853 601.53 411.662 602.018 408.514C605.028 389.468 604.632 371.179 604.236 351.797C603.705 327.452 603.216 302.479 609.898 275.51C606.396 297.641 606.741 318.699 607.106 339.289C607.52 362.119 607.897 383.681 603.209 405.865C602.17 410.761 601.275 415.819 600.407 420.699C599.968 423.118 599.519 425.574 599.07 428.031C599.609 424.691 600.114 421.322 600.594 418.049ZM602.274 421.076C603.179 415.979 604.031 411.156 605.061 406.299C609.781 383.918 609.41 362.254 608.988 339.299C608.592 316.948 608.203 294.022 612.8 269.835C612.91 269.658 613.02 269.482 613.13 269.305C611.026 288.8 611.424 307.626 611.837 326.085C612.422 352.733 612.982 377.91 606.248 403.587C604.597 409.906 603.308 416.199 601.966 422.849C601.84 423.475 601.709 424.12 601.578 424.765C601.825 423.533 602.052 422.295 602.274 421.076ZM608.089 404.059C614.89 378.133 614.322 352.829 613.729 326.056C613.292 306.436 612.866 286.387 615.477 265.625C615.722 265.258 615.967 264.891 616.212 264.523C615.366 280.727 615.887 296.597 616.421 312.181C617.461 342.909 618.456 371.935 609.317 401.275C607.438 407.348 605.919 413.642 604.529 419.845C605.639 414.453 606.737 409.263 608.089 404.059ZM611.137 401.825C620.358 372.176 619.381 343.011 618.323 312.114C617.758 295.552 617.202 278.642 618.307 261.394C618.681 260.856 618.992 260.32 619.347 259.776C619.36 272.541 620.031 285.193 620.681 297.613C622.531 332.661 624.28 365.744 612.371 398.939C610.814 403.264 609.496 407.714 608.301 412.177C608.058 413.081 607.841 413.971 607.618 414.88C608.671 410.482 609.791 406.144 611.137 401.825ZM614.166 399.585C615.58 395.635 616.798 391.714 617.855 387.771C625.781 358.188 624.221 328.62 622.583 297.546C621.863 284.138 621.151 270.465 621.265 256.683C621.696 255.932 622.122 255.201 622.509 254.46C622.997 263.888 623.707 273.273 624.432 282.518C627.403 320.339 630.488 359.45 615.434 396.647C614.001 400.201 612.768 403.787 611.637 407.381C612.416 404.786 613.24 402.182 614.166 399.585ZM617.031 397.797C617.092 397.648 617.153 397.5 617.214 397.351C619.458 391.788 621.315 386.184 622.82 380.567C631.51 348.137 628.887 314.8 626.35 282.392C625.531 272.009 624.71 261.481 624.242 250.883C624.707 249.853 625.112 248.808 625.493 247.776C626.124 254.171 626.819 260.562 627.52 266.852C632.215 309.177 637.092 352.931 618.503 394.336C617.983 395.495 617.488 396.641 617.031 397.797ZM621.239 392.719C623.949 386.353 626.171 379.939 627.902 373.476C637.339 338.257 633.315 301.947 629.395 266.654C628.546 258.963 627.683 251.166 626.953 243.343C627.369 241.949 627.711 240.515 628.029 239.096C628.576 242.912 629.157 246.758 629.743 250.667C636.787 297.661 644.055 346.242 621.572 392.025C621.441 392.278 621.34 392.499 621.239 392.719ZM631.608 250.424C630.712 244.474 629.857 238.678 629.051 232.937C629.299 230.839 629.425 228.729 629.467 226.617C629.945 229.054 630.403 231.485 630.889 233.966C640.873 285.067 651.167 337.901 625.632 387.732C645.461 342.949 638.422 295.935 631.608 250.424ZM632.766 233.603C630.499 221.987 628.355 211.001 626.647 200.112C626.575 199.598 626.484 199.079 626.387 198.579C627.77 204.433 629.241 210.352 630.781 216.558C643.916 269.493 658.753 329.358 629.623 383.853C652.474 334.664 642.038 281.112 632.766 233.603ZM632.609 216.141C630.743 208.652 628.994 201.586 627.362 194.552L626.406 190.461C626.23 189.713 626.059 188.946 625.882 188.197C626.019 188.626 626.131 189.068 626.267 189.496C627.16 192.415 628.067 195.359 629.002 198.352C645.885 252.848 666.766 320.311 633.686 380.015C659.892 326.2 645.456 267.886 632.609 216.141ZM647.973 349.745C661.847 297.965 644.946 243.381 630.823 197.809C629.906 194.821 628.98 191.872 628.082 188.972C627.002 185.426 625.946 181.865 624.916 178.29C625.615 180.209 626.315 182.129 627.04 184.034C646.374 234.693 675.267 310.384 637.984 375.93C642.321 367.321 645.607 358.574 647.973 349.745ZM652.897 344.57C668.338 286.943 645.177 226.27 628.817 183.418C626.97 178.593 625.235 173.737 623.6 168.825C624.943 172.092 626.331 175.35 627.822 178.615C655.654 239.591 678.622 309.737 642.38 371.789C646.977 362.837 650.439 353.745 652.897 344.57ZM629.537 177.838C626.794 171.825 624.306 165.799 622.044 159.709C624.063 164.208 626.213 168.681 628.58 173.129C671.111 253.237 677.069 317.175 646.629 368.042C679.543 306.458 656.884 237.736 629.537 177.838ZM630.253 172.278C626.624 165.43 623.427 158.533 620.608 151.552C623.203 156.948 626.096 162.32 629.353 167.666C661.988 221.58 690.921 297.901 651.303 363.646C678.622 313.097 671.66 250.25 630.253 172.278ZM630.988 166.723C626.326 159.042 622.41 151.313 619.039 143.503C622.239 149.762 625.911 155.983 630.126 162.204C646.162 185.797 666.651 222.458 673.272 263.217C679.078 298.974 673.173 331.325 655.8 359.676C691.591 294.307 663.09 219.731 630.988 166.723ZM675.134 262.912C668.472 221.833 647.825 184.903 631.683 161.158C625.872 152.612 621.114 144.039 617.201 135.363C621.022 142.509 625.524 149.612 630.884 156.717C648.303 179.836 670.623 216.307 677.902 258.829C684.035 294.612 678.099 327.079 660.332 355.654C675.699 328.147 680.681 297.053 675.134 262.912ZM664.545 352.351C680.54 324.455 685.678 293.012 679.778 258.548C672.43 215.657 649.957 178.898 632.413 155.622C625.464 146.4 619.921 137.164 615.507 127.776C619.887 135.649 625.209 143.446 631.682 151.241C676.963 205.925 706.978 285.319 664.545 352.351ZM633.128 150.062C624.919 140.152 618.577 130.227 613.697 120.158C618.616 128.753 624.756 137.243 632.44 145.754C679.132 197.518 713.68 279.136 668.96 348.689C707.739 281.853 677.826 204.033 633.128 150.062ZM633.858 144.526C624.416 134.059 617.292 123.615 611.998 112.982C617.414 122.143 624.366 131.201 633.218 140.273C663.818 171.624 684.649 209.118 691.892 245.838C698.91 281.446 692.654 315.105 673.784 344.436C714.118 275.234 679.835 195.521 633.858 144.526ZM693.744 245.489C686.427 208.42 665.414 170.588 634.568 138.985C623.796 127.935 615.886 116.91 610.169 105.668C616.047 115.448 623.824 125.098 633.977 134.786C666.11 165.414 688.912 204.303 696.54 241.538C703.915 277.53 697.479 311.553 677.936 341.281C695.079 312.539 700.532 279.922 693.744 245.489ZM698.417 241.175C690.715 203.59 667.702 164.315 635.298 133.45C623.223 121.948 614.574 110.477 608.481 98.7628C614.794 109.031 623.344 119.155 634.755 129.305C676.436 166.408 702.423 215.675 704.279 261.094C705.425 289.005 697.944 314.894 682.067 338.367C699.902 309.151 705.562 276.074 698.417 241.175ZM706.162 261.021C704.288 215.123 678.057 165.358 636.003 127.928C622.567 115.958 613.14 104.031 606.715 91.8369C613.438 102.606 622.785 113.192 635.513 123.818C679.332 160.443 706.855 209.997 709.119 256.391C710.518 284.845 702.883 311.228 686.417 335.101C700.588 312.448 707.256 287.64 706.162 261.021ZM711.007 256.299C708.71 209.401 680.949 159.33 636.718 122.368C621.94 110.018 611.783 97.6891 605.075 85.0683C612.17 96.2465 622.261 107.259 636.282 118.293C682.141 154.413 711.15 204.2 713.868 251.479C715.471 279.327 708.328 305.203 692.694 328.784C706.125 306.551 712.291 282.289 711.007 256.299ZM637.04 112.806C684.963 148.489 715.468 198.554 718.621 246.712C720.452 274.642 712.97 301.396 696.897 325.519C710.787 302.667 717.263 277.561 715.751 251.406C712.986 203.6 683.714 153.308 637.442 116.851C621.87 104.577 611.202 92.3588 604.178 79.8186C604.16 79.7312 604.161 79.649 604.148 79.5424C611.59 90.7518 622.206 101.76 637.04 112.806ZM590.155 41.5296C590.683 46.0417 591.526 50.4733 592.738 54.8591C592.898 55.665 593.103 56.4621 593.303 57.2785C594.521 63.0473 595.779 68.7443 597.043 74.34C585.924 30.1293 576.65 -19.0091 580.023 -76.3653C578.866 -32.5164 583.476 6.2188 590.155 41.5296ZM589.613 23.1601C589.542 24.4399 589.491 25.725 589.484 27.0013C583.648 -7.93931 580.174 -46.2259 582.43 -89.4094C581.548 -47.8369 584.696 -10.524 589.613 23.1601ZM590.567 12.0978C590.464 12.8741 590.38 13.6556 590.302 14.418C585.653 -20.2663 582.98 -58.7299 584.673 -101.611C584.165 -59.4019 586.615 -21.8229 590.567 12.0978ZM591.621 4.64925C587.747 -31.1265 585.626 -70.9471 586.845 -115.81C586.731 -71.1662 588.64 -31.9591 591.861 3.20847C591.776 3.68061 591.711 4.15788 591.621 4.64925ZM593.134 -3.81008C589.929 -41.303 588.229 -83.3198 588.846 -131.56C588.851 -131.58 588.851 -131.58 588.837 -131.604C589.345 -83.9691 590.78 -42.2914 593.33 -4.93264C593.291 -4.55148 593.213 -4.18077 593.134 -3.81008ZM594.937 -12.336C594.881 -12.1244 594.843 -11.9076 594.792 -11.7153C592.372 -49.637 591.034 -91.9897 590.659 -140.434C590.247 -192.414 566.516 -223.697 523.884 -228.502C490.965 -232.21 450.078 -218.839 414.492 -192.751C376.688 -165.03 349.845 -126.414 340.901 -86.94C322.389 -5.27298 339.431 38.2366 384.662 104.905C388.185 110.117 391.7 115.203 395.158 120.19C438.548 183.026 472.812 232.655 419.939 338.183C385.424 407.068 428.615 450.493 457.191 479.239C468.735 490.847 477.87 500.036 476.527 506.376L476.418 506.862L476.78 507.227C519.09 549.797 548.72 568.91 570.055 567.411C584.436 566.399 592.814 556.46 601.493 544.54C603.933 541.215 605.646 537.242 606.868 532.683C609.651 522.297 609.852 508.889 610.084 493.18C610.308 478.046 610.589 460.433 613.485 441.892C610.837 461.695 611.457 480.477 612.013 496.603C612.748 518.158 613.337 535.18 606.565 546.002C598.25 559.298 590.15 570.466 575.325 572.431C553.854 575.295 521.906 557.334 477.669 517.505C478.47 510.999 469.495 502.698 457.193 491.341C427.512 463.906 377.827 418 415.107 345.279C471.61 235.034 435.307 183.168 389.328 117.494C385.677 112.29 381.969 106.988 378.248 101.579C330.447 32.0772 312.675 -12.9268 333.674 -95.9064C343.543 -134.926 371.523 -173.175 410.414 -200.894C447.262 -227.16 489.218 -240.533 522.625 -236.694C564.992 -231.836 589.117 -200.777 590.574 -149.26C590.863 -139.163 591.12 -129.343 591.386 -119.788C592.486 -79.8291 593.454 -44.3787 594.937 -12.336ZM596.537 -19.1642C595.201 -49.4149 594.306 -82.6398 593.287 -119.774C593.021 -129.328 592.764 -139.149 592.475 -149.245C590.486 -220.181 547.999 -235.606 522.855 -238.488C488.977 -242.37 446.545 -228.857 409.316 -202.343C370.064 -174.37 341.869 -135.787 331.857 -96.311C310.672 -12.6388 328.587 32.692 376.719 102.674C380.455 108.107 384.168 113.39 387.794 118.609C433.408 183.772 469.441 235.236 413.436 344.481C375.513 418.431 425.852 464.946 455.935 492.756C467.665 503.589 476.926 512.152 475.75 517.713L475.63 518.237L476.037 518.594C520.923 559.05 553.49 577.28 575.614 574.323C592.505 572.066 601.205 558.193 608.192 547.037C609.914 544.282 611.185 541.18 612.108 537.737C614.973 527.042 614.49 513.141 613.92 496.599C613.354 480.037 612.684 460.664 615.628 440.301C613.033 461.706 614.7 482.047 616.146 499.463C617.833 519.809 619.287 537.351 613.214 548.609C605.092 563.688 597.029 576.433 580.896 579.531C558.298 583.867 524.289 567.271 476.922 528.809C477.513 523.009 468.926 515.678 456.149 504.771C423.145 476.611 367.885 429.478 408.619 351.601C468.258 237.62 430.186 183.919 381.984 115.918C378.14 110.497 374.234 104.997 370.305 99.3472C318.573 25.0612 300.765 -19.8082 324.634 -105.215C335.506 -144.151 364.855 -182.508 405.195 -210.477C443.709 -237.183 487.24 -250.732 521.62 -246.694C564.788 -241.621 589.927 -210.126 592.395 -158.008C594.366 -116.145 595.193 -78.9181 595.936 -46.0638C596.123 -36.8397 596.313 -27.8621 596.537 -19.1642ZM598.12 -32.1816C598.009 -36.7674 597.913 -41.4109 597.799 -46.1418C597.076 -78.9908 596.254 -116.237 594.268 -158.124C591.76 -211.263 566.017 -243.395 521.812 -248.581C486.986 -252.676 442.964 -239.011 404.088 -212.051C363.412 -183.843 333.794 -145.105 322.813 -105.764C310.788 -62.6833 309.259 -28.8503 317.913 3.77382C326.297 35.3771 344.294 65.2472 368.738 100.35C372.667 106 376.573 111.5 380.417 116.921C428.259 184.392 466.037 237.705 406.916 350.691C365.479 429.864 421.456 477.601 454.886 506.123C466.661 516.164 475.965 524.099 474.94 528.938L474.816 529.481L475.262 529.848C523.302 568.923 557.96 585.755 581.216 581.308C599.554 577.79 608.385 561.396 614.835 549.435C616 547.273 616.904 544.918 617.584 542.379C620.614 531.069 619.371 516.098 617.996 499.278C616.513 481.296 614.788 460.156 617.834 438.006C615.217 461.054 618.005 482.994 620.418 501.721C623.018 521.941 625.273 539.388 619.811 551.098C612.251 567.359 604.018 582.305 586.467 586.632C562.707 592.49 526.603 577.229 476.103 539.99C476.441 534.823 467.93 528.069 455.282 518.083C421.199 491.139 357.752 440.967 402.093 357.831C414.513 334.523 422.903 313.682 428.005 294.639C448.662 217.546 415.029 170.643 374.602 114.249C370.565 108.612 366.446 102.89 362.324 97.0232C307.551 19.2422 288.962 -27.3208 315.56 -114.634C341.978 -201.275 450.386 -265.225 520.583 -256.806C564.576 -251.533 590.703 -219.587 594.183 -166.868C597.586 -115.035 597.957 -71.1064 598.12 -32.1816ZM599.929 -45.6536C599.708 -81.2338 599.075 -120.985 596.056 -166.984C592.531 -220.705 565.794 -253.268 520.789 -258.668C442.764 -268.03 338.268 -195.631 313.745 -115.203C286.897 -27.1937 305.614 19.7539 360.771 98.0503C364.913 103.922 369.027 109.663 373.064 115.301C423.11 185.095 462.642 240.218 400.429 356.931C355.378 441.465 419.607 492.238 454.121 519.525C465.813 528.78 475.057 536.081 474.184 540.197L474.069 540.785L474.559 541.143C525.776 578.987 562.539 594.445 586.968 588.436C605.325 583.912 613.813 568.56 621.57 551.879C622.346 550.231 622.962 548.479 623.462 546.613C626.621 534.822 624.613 519.193 622.323 501.489C619.821 481.997 616.881 458.985 620.152 434.979C617.341 459.768 621.409 483.494 624.867 503.635C628.358 523.887 631.371 541.393 626.481 553.627C619.555 570.882 611.212 588.191 592.188 593.875C567.231 601.31 528.998 587.354 475.332 551.225C475.486 546.669 467.507 540.82 454.69 531.387C417.243 503.871 347.553 452.624 395.586 364.066C408.865 339.586 417.758 317.725 423.093 297.817C444.245 218.878 409.262 170.602 367.253 112.61C363.023 106.756 358.692 100.812 354.362 94.7043C326.261 55.1997 307.08 24.1256 298.278 -8.80619C289.046 -43.3374 291.597 -78.8755 306.506 -124.049C319.338 -162.873 351.473 -201.473 394.646 -229.94C436.545 -257.554 483.249 -271.386 519.609 -266.921C551.306 -263.025 590.306 -244.04 595.99 -175.722C600.138 -125.731 600.417 -83.4144 599.929 -45.6536ZM601.957 -58.2218C602.203 -92.811 601.583 -131.281 597.864 -175.839C593.342 -230.136 565.611 -263.13 519.804 -268.745C440.095 -278.537 331.527 -205.786 304.691 -124.618C289.645 -79.0894 287.094 -43.2418 296.434 -8.33126C305.297 24.8435 324.573 56.1081 352.799 95.77C357.129 101.878 361.461 107.821 365.71 113.681C417.946 185.773 459.228 242.725 393.917 363.185C345.125 453.17 415.674 505.038 453.572 532.901C465.065 541.341 474.14 548.019 473.398 551.49L473.278 552.097L473.812 552.446C528.219 589.166 567.136 603.305 592.752 595.676C612.568 589.77 621.152 572.032 628.236 554.345C628.717 553.175 629.11 551.941 629.45 550.671C632.759 538.322 629.937 521.981 626.723 503.349C623.168 482.708 618.953 458.283 622.287 432.871C619.464 458.956 624.822 484.038 629.368 505.274C633.749 525.723 637.529 543.414 633.121 556.19C626.6 575.058 618.509 594.083 597.966 601.217C571.797 610.285 531.421 597.61 474.557 562.48C474.472 558.499 466.726 553.187 454.362 544.72C434.922 531.409 405.561 511.296 387.601 482.775C366.229 448.784 366.713 410.961 389.089 370.344C458.04 245.128 414.739 185.944 359.914 111.015C355.472 104.938 350.952 98.759 346.41 92.4291C287.633 10.6066 263.641 -38.3728 297.476 -133.396C311.287 -172.205 344.791 -210.912 389.374 -239.64C433.646 -268.143 480.755 -281.764 518.644 -276.993C550.927 -272.94 590.878 -253.597 597.802 -184.514C602.65 -136.046 602.922 -94.9479 601.957 -58.2218ZM604.14 -71.7586C604.687 -105.051 603.959 -142.024 599.666 -184.674C592.611 -254.988 551.837 -274.696 518.845 -278.836C480.511 -283.665 432.935 -269.942 388.307 -241.204C343.378 -212.28 309.61 -173.211 295.657 -134.027C261.537 -38.1741 285.671 11.1323 344.847 93.4948C349.389 99.8246 353.929 106.009 358.371 112.086C412.816 186.48 455.814 245.232 387.406 369.439C334.751 465.089 414.787 519.911 453.264 546.24C463.968 553.561 473.219 559.895 472.617 562.764L472.486 563.409L473.04 563.764C530.681 599.433 571.747 612.271 598.58 602.989C619.925 595.597 628.508 575.281 634.897 556.831C635.151 556.115 635.372 555.371 635.573 554.62C639.062 541.598 635.406 524.539 631.196 504.939C626.575 483.353 621.082 457.761 624.352 431.259C621.647 458.386 628.265 484.548 633.892 506.672C639.151 527.439 643.696 545.397 639.742 558.748C633.932 578.322 625.9 599.94 603.779 608.588C576.368 619.323 533.828 607.924 473.737 573.743C473.501 570.484 467.278 566.364 454.245 558.047C412.844 531.616 326.705 476.601 382.567 376.637C454.621 247.654 409.584 186.666 352.57 109.439C347.915 103.14 343.182 96.739 338.433 90.168C276.601 4.82617 251.481 -45.9605 288.402 -142.733C303.193 -181.527 338.08 -220.399 384.083 -249.346C430.091 -278.311 478.803 -292.059 517.718 -287.054C550.582 -282.825 591.478 -263.105 599.622 -193.262C604.96 -147.322 605.37 -107.053 604.14 -71.7586ZM606.298 -81.2202C607.131 -114.25 606.367 -151.481 601.454 -193.534C593.174 -264.588 551.449 -284.654 517.915 -288.96C478.574 -294.017 429.419 -280.182 383.036 -250.987C336.702 -221.82 301.561 -182.624 286.608 -143.461C249.383 -45.863 274.629 5.30815 336.861 91.19C341.63 97.7662 346.363 104.168 351.013 110.485C407.627 187.172 452.356 247.748 380.88 375.669C356.488 419.353 356.361 459.829 380.547 495.976C400.605 525.966 432.263 546.179 453.211 559.564C463.454 566.102 472.303 571.751 471.822 574.013L471.686 574.678L472.284 575.024C533.196 609.734 576.43 621.277 604.477 610.28C627.371 601.323 635.616 579.226 641.539 559.229C641.616 558.94 641.708 558.676 641.785 558.388C645.47 544.635 640.938 526.784 635.717 506.191C630.015 483.718 623.276 457.07 626.432 429.59C623.852 457.658 631.75 484.822 638.449 507.79C644.609 528.942 649.93 547.211 646.383 561.228C640.631 583.869 632.237 606.132 609.685 615.922C581.445 628.187 535.423 617.752 472.923 584.905C472.533 582.141 466.87 578.665 454.414 571.245C413.005 546.564 316.042 488.814 376.032 382.823C451.163 250.088 404.416 187.281 345.207 107.775C340.359 101.26 335.399 94.6123 330.437 87.8194C265.496 -1.07667 239.294 -53.7613 279.314 -152.178C295.095 -190.995 331.356 -229.994 378.754 -259.226C426.542 -288.663 476.834 -302.524 516.77 -297.265C550.214 -292.86 592.057 -272.763 601.381 -202.171C607.441 -156.347 607.884 -116.357 606.298 -81.2202ZM603.261 -202.389C593.77 -274.159 551.119 -294.597 517.01 -299.098C476.654 -304.427 425.895 -290.465 377.751 -260.794C330.007 -231.365 293.492 -192.043 277.554 -152.876C237.17 -53.5678 263.534 -0.551027 328.889 88.9096C333.866 95.7269 338.806 102.369 343.674 108.89C402.463 187.85 448.927 250.231 374.368 381.923C313.5 489.473 411.556 547.908 453.437 572.86C462.262 578.131 471.397 583.568 471.041 585.287L470.9 585.971L471.523 586.303C535.71 620.118 581.157 630.357 610.436 617.649C632.516 608.062 641.416 587.11 647.256 565.317C647.575 564.124 647.9 562.912 648.2 561.715C651.875 547.217 646.489 528.725 640.254 507.304C633.157 482.931 625.362 456.083 628.385 428.237C625.953 456.613 634.893 483.953 642.993 508.801C650.053 530.422 656.148 549.084 652.99 563.761C644.167 604.814 629.14 616.909 615.609 623.344C586.131 637.339 537.838 628.192 472.064 596.158C471.521 593.889 466.643 591.077 454.856 584.517C426.759 568.907 368.312 536.403 353.098 483.179C344.807 454.198 350.336 422.55 369.491 389.11C386.128 360.067 397.033 334.292 403.3 310.903C426.487 224.366 386.172 170.6 337.839 106.213C332.783 99.4568 327.61 92.5871 322.421 85.5479C287.058 37.5209 264.678 2.68274 254.837 -33.2485C244.084 -72.4958 248.825 -112.065 270.206 -161.545C286.739 -199.81 325.329 -239.999 373.425 -269.024C422.973 -298.937 474.889 -312.92 515.835 -307.37C564.642 -300.766 594.814 -267.427 603.129 -210.959C609.73 -166.062 610.335 -126.833 608.546 -92.2658C609.631 -124.754 608.706 -161.224 603.261 -202.389ZM605.068 -211.243C594.392 -283.744 550.82 -304.572 516.154 -309.264C474.782 -314.866 422.424 -300.796 372.501 -270.653C324.079 -241.427 285.22 -200.939 268.53 -162.324C246.978 -112.437 242.197 -72.486 253.067 -32.8157C262.983 3.3831 285.469 38.3733 320.947 86.596C326.136 93.6352 331.303 100.524 336.359 107.28C397.319 188.533 445.479 252.709 367.867 388.139C348.441 422.042 342.867 454.173 351.299 483.645C366.728 537.628 425.652 570.383 453.963 586.133C461.887 590.544 470.089 595.092 470.241 596.556L470.1 597.239L470.767 597.562C537.358 630.063 586.36 639.297 616.465 624.995C629.295 618.909 643.396 607.926 652.565 573.707C653.369 570.707 654.141 567.512 654.857 564.137C658.105 548.969 651.944 530.083 644.804 508.214C636.482 482.709 627.298 454.561 630.568 425.482C627.938 455.062 638.214 483.668 647.564 509.634C655.534 531.767 662.406 550.884 659.645 566.266C655.235 590.771 647.272 617.603 621.622 630.748C590.92 646.497 540.337 638.633 471.235 607.377C470.612 605.561 466.476 603.34 455.647 597.737C425.536 582.144 362.859 549.723 346.019 493.507C336.993 463.36 342.701 430.338 362.989 395.326C380.469 365.169 391.862 338.432 398.356 314.196C422.064 225.716 380.42 170.584 330.529 104.584C325.261 97.6062 319.881 90.4954 314.484 83.215C282.501 40.0727 255.109 1.04671 243.942 -39.4662C232.784 -79.9354 238.107 -120.503 261.196 -170.969C278.73 -209.296 318.728 -249.664 368.19 -278.941C419.538 -309.321 473.052 -323.41 515.034 -317.584C564.665 -310.696 595.757 -276.884 604.981 -219.822C612.138 -175.518 612.887 -136.828 610.947 -102.631C612.11 -134.707 611.04 -170.638 605.068 -211.243ZM606.876 -220.098C595.033 -293.324 550.559 -314.538 515.318 -319.425C472.93 -325.299 418.954 -311.126 367.236 -280.537C317.453 -251.078 277.186 -210.41 259.501 -171.753C236.215 -120.866 230.873 -79.9115 242.162 -38.9948C253.414 1.82918 280.916 40.9879 313 84.3016C318.416 91.5872 323.771 98.712 329.059 105.695C392.194 189.222 442.07 255.197 361.394 394.404C340.841 429.86 335.082 463.384 344.267 494.027C361.328 550.983 424.477 583.675 454.827 599.393C462.054 603.124 468.873 606.662 469.479 607.917L469.353 608.543L470.044 608.852C539.949 640.55 591.252 648.462 622.58 632.406C643.232 621.818 652.696 602.749 657.989 582.995C659.453 577.532 660.599 572.005 661.562 566.614C664.407 550.761 657.469 531.419 649.4 509.033C639.917 482.702 629.486 453.663 632.703 423.766C630.156 454.131 641.679 483.627 652.175 510.395C661.058 533.103 668.743 552.706 666.34 568.781C662.706 593.206 655.033 623.166 627.738 638.159C595.802 655.701 542.889 649.11 470.45 618.588C469.739 617.181 466.282 615.471 456.845 610.923C427.172 596.663 357.677 563.281 339.046 503.905C329.227 472.577 335.101 438.155 356.527 401.552C374.85 370.281 386.731 342.582 393.452 317.5C417.685 227.058 374.706 170.579 323.259 102.966C317.807 95.8151 312.191 88.4142 306.567 80.8874C236.531 -12.8993 199.481 -71.2737 252.132 -180.345C270.671 -218.753 312.098 -259.295 362.925 -288.825C416.078 -319.69 471.211 -333.882 514.222 -327.758C564.673 -320.569 596.67 -286.308 606.802 -228.653C614.505 -184.821 615.421 -146.519 613.333 -112.63C614.599 -144.389 613.343 -179.937 606.876 -220.098ZM608.658 -228.939C598.386 -287.477 565.823 -322.281 514.482 -329.586C471.064 -335.756 415.47 -321.481 361.971 -290.42C310.828 -260.728 269.152 -219.881 250.442 -181.148C225.409 -129.287 219.451 -87.3632 231.174 -45.1757C242.739 -3.56684 271.462 37.0528 305.022 82.0404C310.641 89.5864 316.282 96.9734 321.73 104.144C387.02 189.938 438.592 257.708 354.883 400.658C333.171 437.7 327.242 472.643 337.235 504.491C356.115 564.656 426.112 598.276 456.009 612.636C462.057 615.535 467.769 618.282 468.662 619.325L468.542 619.85L469.258 620.145C542.491 651.065 596.109 657.68 628.652 639.826C649.146 628.578 658.834 609.218 664.008 589.906C665.905 582.828 667.194 575.751 668.184 569.09C670.656 552.517 662.887 532.685 653.898 509.744C643.493 483.186 632.069 453.943 634.582 423.94C632.744 454.392 645.265 484.073 656.664 511.062C666.087 533.399 675.006 554.487 672.966 571.319C669.853 597.08 662.608 628.804 633.824 645.603C600.649 664.958 545.401 659.658 469.591 629.841C468.913 628.855 466.283 627.656 458.352 624.129C429.463 611.316 352.685 577.302 332.026 514.476C321.337 481.945 327.372 446.062 349.986 407.839C369.122 375.487 381.5 346.87 388.437 320.98C413.135 228.807 369.03 171.058 316.28 101.982C310.499 94.4137 304.531 86.6091 298.565 78.6402C225.378 -18.4647 186.703 -78.8207 243.087 -189.716C262.657 -228.219 305.503 -268.979 357.685 -298.722C412.638 -330.054 469.408 -344.343 513.45 -337.923C564.7 -330.437 597.617 -295.703 608.614 -237.444C616.826 -193.95 617.947 -155.944 615.729 -122.275C617.091 -153.844 615.655 -189.11 608.658 -228.939ZM610.466 -237.793C599.299 -296.901 565.835 -332.174 513.7 -339.794C469.238 -346.285 412.025 -331.908 356.702 -300.367C304.219 -270.436 261.109 -229.396 241.374 -190.587C214.515 -137.772 207.97 -94.8305 220.089 -51.3828C231.993 -8.77584 261.967 33.1893 297.022 79.7111C302.988 87.68 308.951 95.5038 314.732 103.072C381.9 190.999 434.949 260.443 348.318 406.877C325.428 445.583 319.323 481.962 330.206 515.019C351.114 578.634 428.447 612.92 457.546 625.809C462.466 627.993 466.768 629.909 467.791 630.699L467.703 631.108L468.439 631.408C545.032 661.579 600.986 666.903 634.733 647.208C655.128 635.314 664.95 616.237 670.119 596.945C672.433 588.308 673.812 579.648 674.786 571.56C676.871 554.245 667.867 532.927 658.335 510.376C646.436 482.201 633.308 451.038 636.823 419.325C634.037 451.522 648.233 483.075 661.111 511.656C671.442 534.586 681.206 556.272 679.548 573.866C677.195 598.82 670.5 634.196 639.885 653.061C605.485 674.252 547.883 670.239 468.644 641.111C467.967 640.435 465.89 639.59 460.28 637.324C432.517 626.091 348.057 591.916 325.044 525.222C313.377 491.419 319.559 454.05 343.405 414.116C363.384 380.65 376.245 351.09 383.414 324.335C408.658 230.123 363.176 170.953 308.771 100.238C302.826 92.5021 296.66 84.5 290.534 76.3441C214.279 -24.3868 174.054 -86.8486 233.965 -199.108C254.594 -237.739 298.854 -278.697 352.377 -308.68C409.154 -340.491 467.558 -354.858 512.644 -348.117C564.708 -340.31 598.501 -305.094 610.372 -246.271C619.111 -202.945 620.405 -165.119 618.096 -131.577C619.569 -163.013 617.964 -198.119 610.466 -237.793ZM612.273 -246.648C600.232 -306.32 565.887 -342.055 512.957 -349.991C467.471 -356.799 408.625 -342.344 351.483 -310.342C297.663 -280.191 253.116 -238.939 232.345 -200.016C171.897 -86.7669 212.357 -23.9328 289.075 77.4168C295.22 85.5779 301.386 93.5799 307.331 101.316C342.807 147.436 373.437 187.268 384.529 235.017C396.686 287.381 383.111 343.983 341.856 413.103C317.733 453.52 311.495 491.41 323.351 525.758C346.648 593.27 431.717 627.671 459.665 638.994C463.048 640.354 467.727 642.659 467.727 642.659C547.716 672.111 605.99 676.119 640.967 654.568C661.406 641.964 671.412 622.277 676.555 603.081C679.292 592.867 680.655 582.781 681.482 573.993C683.185 555.916 673.326 534.039 662.895 510.856C649.869 481.967 635.507 450.019 638.963 417.589C636.266 450.47 651.696 482.807 665.662 512.092C676.93 535.665 687.559 557.954 686.258 576.324C684.404 602.463 678.229 639.648 646.124 660.403C610.489 683.468 550.474 680.726 467.777 652.238C467.164 651.868 465.828 651.386 462.999 650.381C364.811 614.938 330.062 568.684 318.231 536.116C305.449 501.005 311.745 462.037 336.973 420.309C357.696 385.785 370.99 355.31 378.371 327.766C404.223 231.285 357.338 170.708 301.314 98.3022C295.219 90.4226 288.922 82.2825 282.622 73.9973C203.259 -30.3701 161.45 -94.9675 224.95 -208.512C246.645 -247.291 292.324 -288.467 347.188 -318.687C405.784 -350.96 465.845 -365.419 511.95 -358.342C564.809 -350.219 599.478 -314.521 612.218 -255.115C621.478 -211.938 622.956 -174.249 620.569 -140.81C622.031 -172.126 620.243 -207.095 612.273 -246.648ZM614.02 -263.95C623.8 -220.758 625.444 -183.065 622.994 -149.623C624.524 -180.961 622.545 -215.92 614.061 -255.508C601.15 -315.764 565.925 -351.961 512.22 -360.208C465.694 -367.356 405.196 -352.828 346.249 -320.341C291.113 -289.966 245.147 -248.496 223.291 -209.431C159.224 -94.863 201.263 -29.8741 281.103 75.1364C287.398 83.4407 293.695 91.5808 299.79 99.4605C336.412 146.773 368.042 187.636 379.456 236.606C391.954 290.277 377.937 348.369 335.319 419.371C309.816 461.582 303.458 501.09 316.429 536.746C338.139 596.432 407.765 632.447 462.339 652.142C463.963 652.721 466.136 653.674 466.136 653.674L466.921 653.947C550.32 682.705 610.954 685.407 647.147 661.975C667.613 648.72 677.761 629.05 682.957 609.662C686.08 598.005 687.418 586.448 688.123 576.473C689.469 557.62 678.726 535.136 667.353 511.329C653.887 483.146 639.091 452.113 640.633 420.655C639.842 452.356 655.527 483.586 670.101 512.56C682.301 536.795 693.813 559.691 692.864 578.857C690.746 621.686 677.484 650.787 652.273 667.843C615.374 692.817 552.945 691.345 466.712 663.477L466.673 663.466C465.462 663.142 345.021 629.262 312.462 549.599C302.992 526.425 301.796 501.592 308.831 475.337C313.052 459.584 320.239 443.306 330.388 426.605C352.047 390.93 365.893 359.49 373.51 331.061C399.857 232.733 351.585 170.774 293.921 96.754C287.613 88.6525 281.103 80.2905 274.596 71.7641C233.801 18.3031 201.576 -26.1206 188.792 -70.7569C175.386 -117.601 183.712 -162.972 215.841 -217.88C238.626 -256.82 285.754 -298.246 341.915 -328.697C402.335 -361.449 464.049 -375.981 511.188 -368.545C564.891 -360.134 600.435 -323.954 614.02 -263.95Z" fill="#F8CD53"/>
</g>
</g>
<defs>
<clipPath id="clip0_1_24361">
<rect width="1013.7" height="685.219" fill="white" transform="translate(0 541.164) rotate(-75)"/>
</clipPath>
</defs>
</svg>
