<svg width="118" height="118" viewBox="0 0 118 118" fill="none" xmlns="http://www.w3.org/2000/svg">
<path d="M21.9791 21.98C17.6591 26.3 14.2591 31.21 11.7891 36.44L36.4391 11.79C31.1991 14.26 26.2991 17.65 21.9791 21.98Z" fill="url(#paint0_linear_1_24723)"/>
<path d="M49.1491 7.70004L7.69906 49.15C7.39906 50.78 7.17906 52.43 7.03906 54.08L54.0791 7.04004C52.4291 7.18004 50.7791 7.40004 49.1491 7.70004Z" fill="url(#paint1_linear_1_24723)"/>
<path d="M62.7195 7.02002L7.01953 62.72C7.11953 64 7.26953 65.27 7.46953 66.53L66.5395 7.47002C65.2695 7.27002 63.9995 7.12002 62.7195 7.02002Z" fill="url(#paint2_linear_1_24723)"/>
<path d="M73.5601 9.08008L9.08008 73.5601C9.41008 74.6301 9.76008 75.6901 10.1601 76.7501L76.7501 10.1601C75.6901 9.76008 74.6301 9.40008 73.5601 9.08008Z" fill="url(#paint3_linear_1_24723)"/>
<path d="M82.6898 12.8401L12.8398 82.6901C13.3298 83.6101 13.8398 84.5101 14.3898 85.4101L85.3998 14.4001C84.5098 13.8501 83.6098 13.3301 82.6898 12.8401Z" fill="url(#paint4_linear_1_24723)"/>
<path d="M90.4894 17.9399L17.9395 90.4899C18.5595 91.2799 19.2095 92.0499 19.8895 92.8099L92.8195 19.8799C92.0495 19.2099 91.2794 18.5599 90.4894 17.9399Z" fill="url(#paint5_linear_1_24723)"/>
<path d="M97.1292 24.2L24.1992 97.1299C24.9592 97.8099 25.7292 98.45 26.5192 99.08L99.0692 26.53C98.4492 25.73 97.7992 24.96 97.1292 24.2Z" fill="url(#paint6_linear_1_24723)"/>
<path d="M102.62 31.6001L31.5996 102.62C32.4896 103.17 33.3996 103.68 34.3196 104.17L104.17 34.3201C103.68 33.4001 103.16 32.5001 102.62 31.6001Z" fill="url(#paint7_linear_1_24723)"/>
<path d="M106.85 40.26L40.2598 106.85C41.3098 107.25 42.3798 107.6 43.4498 107.93L107.93 43.45C107.6 42.38 107.25 41.32 106.85 40.26Z" fill="url(#paint8_linear_1_24723)"/>
<path d="M109.54 50.47L50.4805 109.53C51.7505 109.73 53.0205 109.88 54.2905 109.98L109.99 54.28C109.89 53.01 109.73 51.74 109.54 50.47Z" fill="url(#paint9_linear_1_24723)"/>
<path d="M109.97 62.9299L62.9297 109.97C64.5797 109.83 66.2197 109.61 67.8597 109.31L109.31 67.8599C109.61 66.2299 109.83 64.5799 109.97 62.9299Z" fill="url(#paint10_linear_1_24723)"/>
<path d="M80.5801 105.22C85.8101 102.75 90.7101 99.3501 95.0401 95.0301C99.3601 90.7101 102.76 85.8001 105.23 80.5701L80.5801 105.22Z" fill="url(#paint11_linear_1_24723)"/>
<path d="M58.5 0C26.19 0 0 26.19 0 58.5C0 90.81 26.19 117 58.5 117C90.81 117 117 90.81 117 58.5C117 26.19 90.82 0 58.5 0ZM58.5 115.14C27.22 115.14 1.86 89.78 1.86 58.5C1.86 27.22 27.22 1.87 58.5 1.87C89.78 1.87 115.14 27.23 115.14 58.51C115.14 89.79 89.78 115.14 58.5 115.14Z" fill="#6F67D0"/>
<defs>
<linearGradient id="paint0_linear_1_24723" x1="11.7843" y1="24.1082" x2="36.4303" y2="24.1082" gradientUnits="userSpaceOnUse">
<stop stop-color="#ED1E79"/>
<stop offset="1" stop-color="#6B00AA"/>
</linearGradient>
<linearGradient id="paint1_linear_1_24723" x1="7.03586" y1="30.556" x2="54.0742" y2="30.556" gradientUnits="userSpaceOnUse">
<stop stop-color="#ED1E79"/>
<stop offset="1" stop-color="#6B00AA"/>
</linearGradient>
<linearGradient id="paint2_linear_1_24723" x1="7.01863" y1="36.7771" x2="66.5347" y2="36.7771" gradientUnits="userSpaceOnUse">
<stop stop-color="#ED1E79"/>
<stop offset="1" stop-color="#6B00AA"/>
</linearGradient>
<linearGradient id="paint3_linear_1_24723" x1="9.07878" y1="42.9119" x2="76.7449" y2="42.9119" gradientUnits="userSpaceOnUse">
<stop stop-color="#ED1E79"/>
<stop offset="1" stop-color="#6B00AA"/>
</linearGradient>
<linearGradient id="paint4_linear_1_24723" x1="12.8419" y1="49.1244" x2="85.4063" y2="49.1244" gradientUnits="userSpaceOnUse">
<stop stop-color="#ED1E79"/>
<stop offset="1" stop-color="#6B00AA"/>
</linearGradient>
<linearGradient id="paint5_linear_1_24723" x1="17.9363" y1="55.374" x2="92.8108" y2="55.374" gradientUnits="userSpaceOnUse">
<stop stop-color="#ED1E79"/>
<stop offset="1" stop-color="#6B00AA"/>
</linearGradient>
<linearGradient id="paint6_linear_1_24723" x1="24.1967" y1="61.6348" x2="99.0713" y2="61.6348" gradientUnits="userSpaceOnUse">
<stop stop-color="#ED1E79"/>
<stop offset="1" stop-color="#6B00AA"/>
</linearGradient>
<linearGradient id="paint7_linear_1_24723" x1="31.6019" y1="67.8847" x2="104.166" y2="67.8847" gradientUnits="userSpaceOnUse">
<stop stop-color="#ED1E79"/>
<stop offset="1" stop-color="#6B00AA"/>
</linearGradient>
<linearGradient id="paint8_linear_1_24723" x1="40.2639" y1="74.0971" x2="107.93" y2="74.0971" gradientUnits="userSpaceOnUse">
<stop stop-color="#ED1E79"/>
<stop offset="1" stop-color="#6B00AA"/>
</linearGradient>
<linearGradient id="paint9_linear_1_24723" x1="50.4741" y1="80.2317" x2="109.99" y2="80.2317" gradientUnits="userSpaceOnUse">
<stop stop-color="#ED1E79"/>
<stop offset="1" stop-color="#6B00AA"/>
</linearGradient>
<linearGradient id="paint10_linear_1_24723" x1="62.9334" y1="86.4528" x2="109.972" y2="86.4528" gradientUnits="userSpaceOnUse">
<stop stop-color="#ED1E79"/>
<stop offset="1" stop-color="#6B00AA"/>
</linearGradient>
<linearGradient id="paint11_linear_1_24723" x1="80.5778" y1="92.9008" x2="105.224" y2="92.9008" gradientUnits="userSpaceOnUse">
<stop stop-color="#ED1E79"/>
<stop offset="1" stop-color="#6B00AA"/>
</linearGradient>
</defs>
</svg>
