<svg width="154" height="392" viewBox="0 0 154 392" fill="none" xmlns="http://www.w3.org/2000/svg">
<g opacity="0.4">
<circle cx="150.5" cy="199.5" r="3.5" transform="rotate(90 150.5 199.5)" fill="#756BEE"/>
<circle cx="129.5" cy="199.5" r="3.5" transform="rotate(90 129.5 199.5)" fill="#756BEE"/>
<circle cx="108.5" cy="199.5" r="3.5" transform="rotate(90 108.5 199.5)" fill="#756BEE"/>
<circle cx="87.5" cy="199.5" r="3.5" transform="rotate(90 87.5 199.5)" fill="#756BEE"/>
<circle cx="66.5" cy="199.5" r="3.5" transform="rotate(90 66.5 199.5)" fill="#756BEE"/>
<circle cx="45.5" cy="199.5" r="3.5" transform="rotate(90 45.5 199.5)" fill="#756BEE"/>
<circle cx="24.5" cy="199.5" r="3.5" transform="rotate(90 24.5 199.5)" fill="#756BEE"/>
<circle cx="3.5" cy="199.5" r="3.5" transform="rotate(90 3.5 199.5)" fill="#756BEE"/>
<circle cx="150.5" cy="220.5" r="3.5" transform="rotate(90 150.5 220.5)" fill="#756BEE"/>
<circle cx="129.5" cy="220.5" r="3.5" transform="rotate(90 129.5 220.5)" fill="#756BEE"/>
<circle cx="108.5" cy="220.5" r="3.5" transform="rotate(90 108.5 220.5)" fill="#756BEE"/>
<circle cx="87.5" cy="220.5" r="3.5" transform="rotate(90 87.5 220.5)" fill="#756BEE"/>
<circle cx="66.5" cy="220.5" r="3.5" transform="rotate(90 66.5 220.5)" fill="#756BEE"/>
<circle cx="45.5" cy="220.5" r="3.5" transform="rotate(90 45.5 220.5)" fill="#756BEE"/>
<circle cx="24.5" cy="220.5" r="3.5" transform="rotate(90 24.5 220.5)" fill="#756BEE"/>
<circle cx="3.5" cy="220.5" r="3.5" transform="rotate(90 3.5 220.5)" fill="#756BEE"/>
<circle cx="150.5" cy="241.5" r="3.5" transform="rotate(90 150.5 241.5)" fill="#756BEE"/>
<circle cx="129.5" cy="241.5" r="3.5" transform="rotate(90 129.5 241.5)" fill="#756BEE"/>
<circle cx="108.5" cy="241.5" r="3.5" transform="rotate(90 108.5 241.5)" fill="#756BEE"/>
<circle cx="87.5" cy="241.5" r="3.5" transform="rotate(90 87.5 241.5)" fill="#756BEE"/>
<circle cx="66.5" cy="241.5" r="3.5" transform="rotate(90 66.5 241.5)" fill="#756BEE"/>
<circle cx="45.5" cy="241.5" r="3.5" transform="rotate(90 45.5 241.5)" fill="#756BEE"/>
<circle cx="24.5" cy="241.5" r="3.5" transform="rotate(90 24.5 241.5)" fill="#756BEE"/>
<circle cx="3.5" cy="241.5" r="3.5" transform="rotate(90 3.5 241.5)" fill="#756BEE"/>
<circle cx="150.5" cy="262.5" r="3.5" transform="rotate(90 150.5 262.5)" fill="#756BEE"/>
<circle cx="129.5" cy="262.5" r="3.5" transform="rotate(90 129.5 262.5)" fill="#756BEE"/>
<circle cx="108.5" cy="262.5" r="3.5" transform="rotate(90 108.5 262.5)" fill="#756BEE"/>
<circle cx="87.5" cy="262.5" r="3.5" transform="rotate(90 87.5 262.5)" fill="#756BEE"/>
<circle cx="66.5" cy="262.5" r="3.5" transform="rotate(90 66.5 262.5)" fill="#756BEE"/>
<circle cx="45.5" cy="262.5" r="3.5" transform="rotate(90 45.5 262.5)" fill="#756BEE"/>
<circle cx="24.5" cy="262.5" r="3.5" transform="rotate(90 24.5 262.5)" fill="#756BEE"/>
<circle cx="3.5" cy="262.5" r="3.5" transform="rotate(90 3.5 262.5)" fill="#756BEE"/>
<circle cx="150.5" cy="283.5" r="3.5" transform="rotate(90 150.5 283.5)" fill="#756BEE"/>
<circle cx="129.5" cy="283.5" r="3.5" transform="rotate(90 129.5 283.5)" fill="#756BEE"/>
<circle cx="108.5" cy="283.5" r="3.5" transform="rotate(90 108.5 283.5)" fill="#756BEE"/>
<circle cx="87.5" cy="283.5" r="3.5" transform="rotate(90 87.5 283.5)" fill="#756BEE"/>
<circle cx="66.5" cy="283.5" r="3.5" transform="rotate(90 66.5 283.5)" fill="#756BEE"/>
<circle cx="45.5" cy="283.5" r="3.5" transform="rotate(90 45.5 283.5)" fill="#756BEE"/>
<circle cx="24.5" cy="283.5" r="3.5" transform="rotate(90 24.5 283.5)" fill="#756BEE"/>
<circle cx="3.5" cy="283.5" r="3.5" transform="rotate(90 3.5 283.5)" fill="#756BEE"/>
<circle cx="150.5" cy="304.5" r="3.5" transform="rotate(90 150.5 304.5)" fill="#756BEE"/>
<circle cx="129.5" cy="304.5" r="3.5" transform="rotate(90 129.5 304.5)" fill="#756BEE"/>
<circle cx="108.5" cy="304.5" r="3.5" transform="rotate(90 108.5 304.5)" fill="#756BEE"/>
<circle cx="87.5" cy="304.5" r="3.5" transform="rotate(90 87.5 304.5)" fill="#756BEE"/>
<circle cx="66.5" cy="304.5" r="3.5" transform="rotate(90 66.5 304.5)" fill="#756BEE"/>
<circle cx="45.5" cy="304.5" r="3.5" transform="rotate(90 45.5 304.5)" fill="#756BEE"/>
<circle cx="24.5" cy="304.5" r="3.5" transform="rotate(90 24.5 304.5)" fill="#756BEE"/>
<circle cx="3.5" cy="304.5" r="3.5" transform="rotate(90 3.5 304.5)" fill="#756BEE"/>
<circle cx="150.5" cy="325.5" r="3.5" transform="rotate(90 150.5 325.5)" fill="#756BEE"/>
<circle cx="129.5" cy="325.5" r="3.5" transform="rotate(90 129.5 325.5)" fill="#756BEE"/>
<circle cx="108.5" cy="325.5" r="3.5" transform="rotate(90 108.5 325.5)" fill="#756BEE"/>
<circle cx="87.5" cy="325.5" r="3.5" transform="rotate(90 87.5 325.5)" fill="#756BEE"/>
<circle cx="66.5" cy="325.5" r="3.5" transform="rotate(90 66.5 325.5)" fill="#756BEE"/>
<circle cx="45.5" cy="325.5" r="3.5" transform="rotate(90 45.5 325.5)" fill="#756BEE"/>
<circle cx="24.5" cy="325.5" r="3.5" transform="rotate(90 24.5 325.5)" fill="#756BEE"/>
<circle cx="3.5" cy="325.5" r="3.5" transform="rotate(90 3.5 325.5)" fill="#756BEE"/>
<circle cx="150.5" cy="346.5" r="3.5" transform="rotate(90 150.5 346.5)" fill="#756BEE"/>
<circle cx="129.5" cy="346.5" r="3.5" transform="rotate(90 129.5 346.5)" fill="#756BEE"/>
<circle cx="108.5" cy="346.5" r="3.5" transform="rotate(90 108.5 346.5)" fill="#756BEE"/>
<circle cx="87.5" cy="346.5" r="3.5" transform="rotate(90 87.5 346.5)" fill="#756BEE"/>
<circle cx="66.5" cy="346.5" r="3.5" transform="rotate(90 66.5 346.5)" fill="#756BEE"/>
<circle cx="45.5" cy="346.5" r="3.5" transform="rotate(90 45.5 346.5)" fill="#756BEE"/>
<circle cx="24.5" cy="346.5" r="3.5" transform="rotate(90 24.5 346.5)" fill="#756BEE"/>
<circle cx="3.5" cy="346.5" r="3.5" transform="rotate(90 3.5 346.5)" fill="#756BEE"/>
<circle cx="150.5" cy="367.5" r="3.5" transform="rotate(90 150.5 367.5)" fill="#756BEE"/>
<circle cx="129.5" cy="367.5" r="3.5" transform="rotate(90 129.5 367.5)" fill="#756BEE"/>
<circle cx="108.5" cy="367.5" r="3.5" transform="rotate(90 108.5 367.5)" fill="#756BEE"/>
<circle cx="87.5" cy="367.5" r="3.5" transform="rotate(90 87.5 367.5)" fill="#756BEE"/>
<circle cx="66.5" cy="367.5" r="3.5" transform="rotate(90 66.5 367.5)" fill="#756BEE"/>
<circle cx="45.5" cy="367.5" r="3.5" transform="rotate(90 45.5 367.5)" fill="#756BEE"/>
<circle cx="24.5" cy="367.5" r="3.5" transform="rotate(90 24.5 367.5)" fill="#756BEE"/>
<circle cx="3.5" cy="367.5" r="3.5" transform="rotate(90 3.5 367.5)" fill="#756BEE"/>
<circle cx="150.5" cy="388.5" r="3.5" transform="rotate(90 150.5 388.5)" fill="#756BEE"/>
<circle cx="129.5" cy="388.5" r="3.5" transform="rotate(90 129.5 388.5)" fill="#756BEE"/>
<circle cx="108.5" cy="388.5" r="3.5" transform="rotate(90 108.5 388.5)" fill="#756BEE"/>
<circle cx="87.5" cy="388.5" r="3.5" transform="rotate(90 87.5 388.5)" fill="#756BEE"/>
<circle cx="66.5" cy="388.5" r="3.5" transform="rotate(90 66.5 388.5)" fill="#756BEE"/>
<circle cx="45.5" cy="388.5" r="3.5" transform="rotate(90 45.5 388.5)" fill="#756BEE"/>
<circle cx="24.5" cy="388.5" r="3.5" transform="rotate(90 24.5 388.5)" fill="#756BEE"/>
<circle cx="3.5" cy="388.5" r="3.5" transform="rotate(90 3.5 388.5)" fill="#756BEE"/>
<circle cx="150.5" cy="3.5" r="3.5" transform="rotate(90 150.5 3.5)" fill="#756BEE"/>
<circle cx="129.5" cy="3.5" r="3.5" transform="rotate(90 129.5 3.5)" fill="#756BEE"/>
<circle cx="108.5" cy="3.5" r="3.5" transform="rotate(90 108.5 3.5)" fill="#756BEE"/>
<circle cx="87.5" cy="3.5" r="3.5" transform="rotate(90 87.5 3.5)" fill="#756BEE"/>
<circle cx="66.5" cy="3.5" r="3.5" transform="rotate(90 66.5 3.5)" fill="#756BEE"/>
<circle cx="45.5" cy="3.5" r="3.5" transform="rotate(90 45.5 3.5)" fill="#756BEE"/>
<circle cx="24.5" cy="3.5" r="3.5" transform="rotate(90 24.5 3.5)" fill="#756BEE"/>
<circle cx="3.5" cy="3.5" r="3.5" transform="rotate(90 3.5 3.5)" fill="#756BEE"/>
<circle cx="150.5" cy="24.5" r="3.5" transform="rotate(90 150.5 24.5)" fill="#756BEE"/>
<circle cx="129.5" cy="24.5" r="3.5" transform="rotate(90 129.5 24.5)" fill="#756BEE"/>
<circle cx="108.5" cy="24.5" r="3.5" transform="rotate(90 108.5 24.5)" fill="#756BEE"/>
<circle cx="87.5" cy="24.5" r="3.5" transform="rotate(90 87.5 24.5)" fill="#756BEE"/>
<circle cx="66.5" cy="24.5" r="3.5" transform="rotate(90 66.5 24.5)" fill="#756BEE"/>
<circle cx="45.5" cy="24.5" r="3.5" transform="rotate(90 45.5 24.5)" fill="#756BEE"/>
<circle cx="24.5" cy="24.5" r="3.5" transform="rotate(90 24.5 24.5)" fill="#756BEE"/>
<circle cx="3.5" cy="24.5" r="3.5" transform="rotate(90 3.5 24.5)" fill="#756BEE"/>
<circle cx="150.5" cy="45.5" r="3.5" transform="rotate(90 150.5 45.5)" fill="#756BEE"/>
<circle cx="129.5" cy="45.5" r="3.5" transform="rotate(90 129.5 45.5)" fill="#756BEE"/>
<circle cx="108.5" cy="45.5" r="3.5" transform="rotate(90 108.5 45.5)" fill="#756BEE"/>
<circle cx="87.5" cy="45.5" r="3.5" transform="rotate(90 87.5 45.5)" fill="#756BEE"/>
<circle cx="66.5" cy="45.5" r="3.5" transform="rotate(90 66.5 45.5)" fill="#756BEE"/>
<circle cx="45.5" cy="45.5" r="3.5" transform="rotate(90 45.5 45.5)" fill="#756BEE"/>
<circle cx="24.5" cy="45.5" r="3.5" transform="rotate(90 24.5 45.5)" fill="#756BEE"/>
<circle cx="3.5" cy="45.5" r="3.5" transform="rotate(90 3.5 45.5)" fill="#756BEE"/>
<circle cx="150.5" cy="66.5" r="3.5" transform="rotate(90 150.5 66.5)" fill="#756BEE"/>
<circle cx="129.5" cy="66.5" r="3.5" transform="rotate(90 129.5 66.5)" fill="#756BEE"/>
<circle cx="108.5" cy="66.5" r="3.5" transform="rotate(90 108.5 66.5)" fill="#756BEE"/>
<circle cx="87.5" cy="66.5" r="3.5" transform="rotate(90 87.5 66.5)" fill="#756BEE"/>
<circle cx="66.5" cy="66.5" r="3.5" transform="rotate(90 66.5 66.5)" fill="#756BEE"/>
<circle cx="45.5" cy="66.5" r="3.5" transform="rotate(90 45.5 66.5)" fill="#756BEE"/>
<circle cx="24.5" cy="66.5" r="3.5" transform="rotate(90 24.5 66.5)" fill="#756BEE"/>
<circle cx="3.5" cy="66.5" r="3.5" transform="rotate(90 3.5 66.5)" fill="#756BEE"/>
<circle cx="150.5" cy="87.5" r="3.5" transform="rotate(90 150.5 87.5)" fill="#756BEE"/>
<circle cx="129.5" cy="87.5" r="3.5" transform="rotate(90 129.5 87.5)" fill="#756BEE"/>
<circle cx="108.5" cy="87.5" r="3.5" transform="rotate(90 108.5 87.5)" fill="#756BEE"/>
<circle cx="87.5" cy="87.5" r="3.5" transform="rotate(90 87.5 87.5)" fill="#756BEE"/>
<circle cx="66.5" cy="87.5" r="3.5" transform="rotate(90 66.5 87.5)" fill="#756BEE"/>
<circle cx="45.5" cy="87.5" r="3.5" transform="rotate(90 45.5 87.5)" fill="#756BEE"/>
<circle cx="24.5" cy="87.5" r="3.5" transform="rotate(90 24.5 87.5)" fill="#756BEE"/>
<circle cx="3.5" cy="87.5" r="3.5" transform="rotate(90 3.5 87.5)" fill="#756BEE"/>
<circle cx="150.5" cy="108.5" r="3.5" transform="rotate(90 150.5 108.5)" fill="#756BEE"/>
<circle cx="129.5" cy="108.5" r="3.5" transform="rotate(90 129.5 108.5)" fill="#756BEE"/>
<circle cx="108.5" cy="108.5" r="3.5" transform="rotate(90 108.5 108.5)" fill="#756BEE"/>
<circle cx="87.5" cy="108.5" r="3.5" transform="rotate(90 87.5 108.5)" fill="#756BEE"/>
<circle cx="66.5" cy="108.5" r="3.5" transform="rotate(90 66.5 108.5)" fill="#756BEE"/>
<circle cx="45.5" cy="108.5" r="3.5" transform="rotate(90 45.5 108.5)" fill="#756BEE"/>
<circle cx="24.5" cy="108.5" r="3.5" transform="rotate(90 24.5 108.5)" fill="#756BEE"/>
<circle cx="3.5" cy="108.5" r="3.5" transform="rotate(90 3.5 108.5)" fill="#756BEE"/>
<circle cx="150.5" cy="129.5" r="3.5" transform="rotate(90 150.5 129.5)" fill="#756BEE"/>
<circle cx="129.5" cy="129.5" r="3.5" transform="rotate(90 129.5 129.5)" fill="#756BEE"/>
<circle cx="108.5" cy="129.5" r="3.5" transform="rotate(90 108.5 129.5)" fill="#756BEE"/>
<circle cx="87.5" cy="129.5" r="3.5" transform="rotate(90 87.5 129.5)" fill="#756BEE"/>
<circle cx="66.5" cy="129.5" r="3.5" transform="rotate(90 66.5 129.5)" fill="#756BEE"/>
<circle cx="45.5" cy="129.5" r="3.5" transform="rotate(90 45.5 129.5)" fill="#756BEE"/>
<circle cx="24.5" cy="129.5" r="3.5" transform="rotate(90 24.5 129.5)" fill="#756BEE"/>
<circle cx="3.5" cy="129.5" r="3.5" transform="rotate(90 3.5 129.5)" fill="#756BEE"/>
<circle cx="150.5" cy="150.5" r="3.5" transform="rotate(90 150.5 150.5)" fill="#756BEE"/>
<circle cx="129.5" cy="150.5" r="3.5" transform="rotate(90 129.5 150.5)" fill="#756BEE"/>
<circle cx="108.5" cy="150.5" r="3.5" transform="rotate(90 108.5 150.5)" fill="#756BEE"/>
<circle cx="87.5" cy="150.5" r="3.5" transform="rotate(90 87.5 150.5)" fill="#756BEE"/>
<circle cx="66.5" cy="150.5" r="3.5" transform="rotate(90 66.5 150.5)" fill="#756BEE"/>
<circle cx="45.5" cy="150.5" r="3.5" transform="rotate(90 45.5 150.5)" fill="#756BEE"/>
<circle cx="24.5" cy="150.5" r="3.5" transform="rotate(90 24.5 150.5)" fill="#756BEE"/>
<circle cx="3.5" cy="150.5" r="3.5" transform="rotate(90 3.5 150.5)" fill="#756BEE"/>
<circle cx="150.5" cy="171.5" r="3.5" transform="rotate(90 150.5 171.5)" fill="#756BEE"/>
<circle cx="129.5" cy="171.5" r="3.5" transform="rotate(90 129.5 171.5)" fill="#756BEE"/>
<circle cx="108.5" cy="171.5" r="3.5" transform="rotate(90 108.5 171.5)" fill="#756BEE"/>
<circle cx="87.5" cy="171.5" r="3.5" transform="rotate(90 87.5 171.5)" fill="#756BEE"/>
<circle cx="66.5" cy="171.5" r="3.5" transform="rotate(90 66.5 171.5)" fill="#756BEE"/>
<circle cx="45.5" cy="171.5" r="3.5" transform="rotate(90 45.5 171.5)" fill="#756BEE"/>
<circle cx="24.5" cy="171.5" r="3.5" transform="rotate(90 24.5 171.5)" fill="#756BEE"/>
<circle cx="3.5" cy="171.5" r="3.5" transform="rotate(90 3.5 171.5)" fill="#756BEE"/>
<circle cx="150.5" cy="192.5" r="3.5" transform="rotate(90 150.5 192.5)" fill="#756BEE"/>
<circle cx="129.5" cy="192.5" r="3.5" transform="rotate(90 129.5 192.5)" fill="#756BEE"/>
<circle cx="108.5" cy="192.5" r="3.5" transform="rotate(90 108.5 192.5)" fill="#756BEE"/>
<circle cx="87.5" cy="192.5" r="3.5" transform="rotate(90 87.5 192.5)" fill="#756BEE"/>
<circle cx="66.5" cy="192.5" r="3.5" transform="rotate(90 66.5 192.5)" fill="#756BEE"/>
<circle cx="45.5" cy="192.5" r="3.5" transform="rotate(90 45.5 192.5)" fill="#756BEE"/>
<circle cx="24.5" cy="192.5" r="3.5" transform="rotate(90 24.5 192.5)" fill="#756BEE"/>
<circle cx="3.5" cy="192.5" r="3.5" transform="rotate(90 3.5 192.5)" fill="#756BEE"/>
</g>
</svg>
