<svg width="204" height="210" viewBox="0 0 204 210" fill="none" xmlns="http://www.w3.org/2000/svg">
<g clip-path="url(#clip0_1_24373)">
<path d="M87.9382 2.48168C89.199 2.48168 90.2496 1.71271 90.7049 0.62915C88.9889 0.803917 87.2728 1.04859 85.5918 1.29326C86.1521 1.99233 86.9576 2.48168 87.9382 2.48168Z" fill="#F8CD53"/>
<path d="M102.088 2.48169C103.524 2.48169 104.68 1.43309 104.96 0.10486C103.98 0.0349534 102.999 0 101.983 0C101.038 0 100.127 0.0349534 99.1816 0.0699068C99.4968 1.43309 100.653 2.48169 102.088 2.48169Z" fill="#F8CD53"/>
<path d="M48.47 14.6106C47.0341 15.4495 45.6333 16.3583 44.2324 17.2671C44.6177 17.4418 45.0379 17.5467 45.4582 17.5467C47.1042 17.5467 48.435 16.2185 48.47 14.6106Z" fill="#F8CD53"/>
<path d="M59.6408 11.5347C57.9597 11.5347 56.6289 12.8978 56.6289 14.5407C56.6289 16.2184 57.9947 17.5467 59.6408 17.5467C61.3218 17.5467 62.6526 16.1835 62.6526 14.5407C62.6526 12.8629 61.2868 11.5347 59.6408 11.5347Z" fill="#F8CD53"/>
<path d="M73.7911 17.5467C75.4545 17.5467 76.803 16.2008 76.803 14.5407C76.803 12.8805 75.4545 11.5347 73.7911 11.5347C72.1277 11.5347 70.7793 12.8805 70.7793 14.5407C70.7793 16.2008 72.1277 17.5467 73.7911 17.5467Z" fill="#F8CD53"/>
<path d="M87.9396 11.5347C86.2586 11.5347 84.9277 12.8978 84.9277 14.5407C84.9277 16.2184 86.2936 17.5467 87.9396 17.5467C89.6206 17.5467 90.9514 16.1835 90.9514 14.5407C90.9514 12.8629 89.5856 11.5347 87.9396 11.5347Z" fill="#F8CD53"/>
<path d="M102.088 17.5467C103.751 17.5467 105.1 16.2008 105.1 14.5407C105.1 12.8805 103.751 11.5347 102.088 11.5347C100.425 11.5347 99.0762 12.8805 99.0762 14.5407C99.0762 16.2008 100.425 17.5467 102.088 17.5467Z" fill="#F8CD53"/>
<path d="M31.3091 32.6115C32.9902 32.6115 34.321 31.2483 34.321 29.6055C34.321 28.1374 33.2703 26.984 31.9045 26.7043C30.7138 27.7879 29.523 28.8715 28.4023 30.0249C28.5775 31.458 29.8032 32.6115 31.3091 32.6115Z" fill="#F8CD53"/>
<path d="M45.4572 26.5996C43.7761 26.5996 42.4453 27.9628 42.4453 29.6056C42.4453 31.2834 43.8111 32.6116 45.4572 32.6116C47.1382 32.6116 48.469 31.2484 48.469 29.6056C48.469 27.9278 47.1382 26.5996 45.4572 26.5996Z" fill="#F8CD53"/>
<path d="M59.6408 26.5996C57.9597 26.5996 56.6289 27.9628 56.6289 29.6056C56.6289 31.2834 57.9947 32.6116 59.6408 32.6116C61.3218 32.6116 62.6526 31.2484 62.6526 29.6056C62.6526 27.9278 61.2868 26.5996 59.6408 26.5996Z" fill="#F8CD53"/>
<path d="M73.7911 26.5996C72.1101 26.5996 70.7793 27.9628 70.7793 29.6056C70.7793 31.2834 72.1451 32.6116 73.7911 32.6116C75.4722 32.6116 76.803 31.2484 76.803 29.6056C76.803 27.9278 75.4372 26.5996 73.7911 26.5996Z" fill="#F8CD53"/>
<path d="M87.9396 26.5996C86.2586 26.5996 84.9277 27.9628 84.9277 29.6056C84.9277 31.2834 86.2936 32.6116 87.9396 32.6116C89.6206 32.6116 90.9514 31.2484 90.9514 29.6056C90.9514 27.9278 89.5856 26.5996 87.9396 26.5996Z" fill="#F8CD53"/>
<path d="M102.088 26.5996C100.407 26.5996 99.0762 27.9628 99.0762 29.6056C99.0762 31.2834 100.442 32.6116 102.088 32.6116C103.769 32.6116 105.1 31.2484 105.1 29.6056C105.1 27.9278 103.734 26.5996 102.088 26.5996Z" fill="#F8CD53"/>
<path d="M17.1606 47.6763C18.8417 47.6763 20.1725 46.3131 20.1725 44.6703C20.1725 43.3072 19.2269 42.1886 17.9661 41.8391C16.8454 43.3072 15.7598 44.8101 14.7441 46.3481C15.2695 47.152 16.145 47.6763 17.1606 47.6763Z" fill="#F8CD53"/>
<path d="M31.3087 41.6646C29.6277 41.6646 28.2969 43.0277 28.2969 44.6705C28.2969 46.3483 29.6627 47.6765 31.3087 47.6765C32.9897 47.6765 34.3206 46.3134 34.3206 44.6705C34.3206 43.0277 32.9897 41.6646 31.3087 41.6646Z" fill="#F8CD53"/>
<path d="M45.4572 41.6646C43.7761 41.6646 42.4453 43.0277 42.4453 44.6705C42.4453 46.3483 43.8111 47.6765 45.4572 47.6765C47.1382 47.6765 48.469 46.3134 48.469 44.6705C48.469 43.0277 47.1382 41.6646 45.4572 41.6646Z" fill="#F8CD53"/>
<path d="M59.6408 41.6646C57.9597 41.6646 56.6289 43.0277 56.6289 44.6705C56.6289 46.3483 57.9947 47.6765 59.6408 47.6765C61.3218 47.6765 62.6526 46.3134 62.6526 44.6705C62.6526 43.0277 61.2868 41.6646 59.6408 41.6646Z" fill="#F8CD53"/>
<path d="M73.7911 41.6646C72.1101 41.6646 70.7793 43.0277 70.7793 44.6705C70.7793 46.3483 72.1451 47.6765 73.7911 47.6765C75.4722 47.6765 76.803 46.3134 76.803 44.6705C76.803 43.0277 75.4372 41.6646 73.7911 41.6646Z" fill="#F8CD53"/>
<path d="M87.9396 41.6646C86.2586 41.6646 84.9277 43.0277 84.9277 44.6705C84.9277 46.3483 86.2936 47.6765 87.9396 47.6765C89.6206 47.6765 90.9514 46.3134 90.9514 44.6705C90.9514 43.0277 89.5856 41.6646 87.9396 41.6646Z" fill="#F8CD53"/>
<path d="M102.088 41.6646C100.407 41.6646 99.0762 43.0277 99.0762 44.6705C99.0762 46.3483 100.442 47.6765 102.088 47.6765C103.769 47.6765 105.1 46.3134 105.1 44.6705C105.1 43.0277 103.734 41.6646 102.088 41.6646Z" fill="#F8CD53"/>
<path d="M17.1603 56.7292C15.4793 56.7292 14.1484 58.0924 14.1484 59.7352C14.1484 61.413 15.5143 62.7412 17.1603 62.7412C18.8413 62.7412 20.1721 61.3781 20.1721 59.7352C20.1721 58.0924 18.8413 56.7292 17.1603 56.7292Z" fill="#F8CD53"/>
<path d="M31.3087 62.7412C32.9721 62.7412 34.3206 61.3954 34.3206 59.7352C34.3206 58.0751 32.9721 56.7292 31.3087 56.7292C29.6453 56.7292 28.2969 58.0751 28.2969 59.7352C28.2969 61.3954 29.6453 62.7412 31.3087 62.7412Z" fill="#F8CD53"/>
<path d="M45.4572 62.7412C47.1206 62.7412 48.469 61.3954 48.469 59.7352C48.469 58.0751 47.1206 56.7292 45.4572 56.7292C43.7938 56.7292 42.4453 58.0751 42.4453 59.7352C42.4453 61.3954 43.7938 62.7412 45.4572 62.7412Z" fill="#F8CD53"/>
<path d="M59.6408 56.7292C57.9597 56.7292 56.6289 58.0924 56.6289 59.7352C56.6289 61.413 57.9947 62.7412 59.6408 62.7412C61.3218 62.7412 62.6526 61.3781 62.6526 59.7352C62.6526 58.0924 61.2868 56.7292 59.6408 56.7292Z" fill="#F8CD53"/>
<path d="M73.7911 62.7412C75.4545 62.7412 76.803 61.3954 76.803 59.7352C76.803 58.0751 75.4545 56.7292 73.7911 56.7292C72.1277 56.7292 70.7793 58.0751 70.7793 59.7352C70.7793 61.3954 72.1277 62.7412 73.7911 62.7412Z" fill="#F8CD53"/>
<path d="M87.9396 56.7292C86.2586 56.7292 84.9277 58.0924 84.9277 59.7352C84.9277 61.413 86.2936 62.7412 87.9396 62.7412C89.6206 62.7412 90.9514 61.3781 90.9514 59.7352C90.9514 58.0924 89.5856 56.7292 87.9396 56.7292Z" fill="#F8CD53"/>
<path d="M102.088 62.7412C103.751 62.7412 105.1 61.3954 105.1 59.7352C105.1 58.0751 103.751 56.7292 102.088 56.7292C100.425 56.7292 99.0762 58.0751 99.0762 59.7352C99.0762 61.3954 100.425 62.7412 102.088 62.7412Z" fill="#F8CD53"/>
<path d="M3.01259 77.8411C4.69362 77.8411 6.02443 76.4779 6.02443 74.8351C6.02443 73.1573 4.6586 71.8291 3.01259 71.8291C2.6974 71.8291 2.41722 71.934 2.13705 72.0039C1.61173 73.5418 1.15645 75.1147 0.701172 76.6876C1.26152 77.3517 2.06701 77.8411 3.01259 77.8411Z" fill="#F8CD53"/>
<path d="M17.1603 71.8291C15.4793 71.8291 14.1484 73.1923 14.1484 74.8351C14.1484 76.5129 15.5143 77.8411 17.1603 77.8411C18.8413 77.8411 20.1721 76.4779 20.1721 74.8351C20.1721 73.1573 18.8413 71.8291 17.1603 71.8291Z" fill="#F8CD53"/>
<path d="M31.3087 71.8291C29.6277 71.8291 28.2969 73.1923 28.2969 74.8351C28.2969 76.5129 29.6627 77.8411 31.3087 77.8411C32.9897 77.8411 34.3206 76.4779 34.3206 74.8351C34.3206 73.1573 32.9897 71.8291 31.3087 71.8291Z" fill="#F8CD53"/>
<path d="M45.4572 71.8291C43.7761 71.8291 42.4453 73.1923 42.4453 74.8351C42.4453 76.5129 43.8111 77.8411 45.4572 77.8411C47.1382 77.8411 48.469 76.4779 48.469 74.8351C48.469 73.1573 47.1382 71.8291 45.4572 71.8291Z" fill="#F8CD53"/>
<path d="M59.6408 71.8291C57.9597 71.8291 56.6289 73.1923 56.6289 74.8351C56.6289 76.5129 57.9947 77.8411 59.6408 77.8411C61.3218 77.8411 62.6526 76.4779 62.6526 74.8351C62.6526 73.1573 61.2868 71.8291 59.6408 71.8291Z" fill="#F8CD53"/>
<path d="M73.7911 71.8291C72.1101 71.8291 70.7793 73.1923 70.7793 74.8351C70.7793 76.5129 72.1451 77.8411 73.7911 77.8411C75.4722 77.8411 76.803 76.4779 76.803 74.8351C76.803 73.1573 75.4372 71.8291 73.7911 71.8291Z" fill="#F8CD53"/>
<path d="M87.9396 71.8291C86.2586 71.8291 84.9277 73.1923 84.9277 74.8351C84.9277 76.5129 86.2936 77.8411 87.9396 77.8411C89.6206 77.8411 90.9514 76.4779 90.9514 74.8351C90.9514 73.1573 89.5856 71.8291 87.9396 71.8291Z" fill="#F8CD53"/>
<path d="M102.088 71.8291C100.407 71.8291 99.0762 73.1923 99.0762 74.8351C99.0762 76.5129 100.442 77.8411 102.088 77.8411C103.769 77.8411 105.1 76.4779 105.1 74.8351C105.1 73.1573 103.734 71.8291 102.088 71.8291Z" fill="#F8CD53"/>
<path d="M3.01185 92.906C4.67524 92.906 6.02369 91.5602 6.02369 89.9C6.02369 88.2399 4.67524 86.894 3.01185 86.894C1.34845 86.894 0 88.2399 0 89.9C0 91.5602 1.34845 92.906 3.01185 92.906Z" fill="#F8CD53"/>
<path d="M17.1603 86.894C15.4793 86.894 14.1484 88.2572 14.1484 89.9C14.1484 91.5778 15.5143 92.906 17.1603 92.906C18.8413 92.906 20.1721 91.5428 20.1721 89.9C20.1721 88.2223 18.8413 86.894 17.1603 86.894Z" fill="#F8CD53"/>
<path d="M31.3087 92.906C32.9721 92.906 34.3206 91.5602 34.3206 89.9C34.3206 88.2399 32.9721 86.894 31.3087 86.894C29.6453 86.894 28.2969 88.2399 28.2969 89.9C28.2969 91.5602 29.6453 92.906 31.3087 92.906Z" fill="#F8CD53"/>
<path d="M45.4572 92.906C47.1206 92.906 48.469 91.5602 48.469 89.9C48.469 88.2399 47.1206 86.894 45.4572 86.894C43.7938 86.894 42.4453 88.2399 42.4453 89.9C42.4453 91.5602 43.7938 92.906 45.4572 92.906Z" fill="#F8CD53"/>
<path d="M59.6408 86.894C57.9597 86.894 56.6289 88.2572 56.6289 89.9C56.6289 91.5778 57.9947 92.906 59.6408 92.906C61.3218 92.906 62.6526 91.5428 62.6526 89.9C62.6526 88.2223 61.2868 86.894 59.6408 86.894Z" fill="#F8CD53"/>
<path d="M73.7911 92.906C75.4545 92.906 76.803 91.5602 76.803 89.9C76.803 88.2399 75.4545 86.894 73.7911 86.894C72.1277 86.894 70.7793 88.2399 70.7793 89.9C70.7793 91.5602 72.1277 92.906 73.7911 92.906Z" fill="#F8CD53"/>
<path d="M87.9396 86.894C86.2586 86.894 84.9277 88.2572 84.9277 89.9C84.9277 91.5778 86.2936 92.906 87.9396 92.906C89.6206 92.906 90.9514 91.5428 90.9514 89.9C90.9514 88.2223 89.5856 86.894 87.9396 86.894Z" fill="#F8CD53"/>
<path d="M102.088 92.906C103.751 92.906 105.1 91.5602 105.1 89.9C105.1 88.2399 103.751 86.894 102.088 86.894C100.425 86.894 99.0762 88.2399 99.0762 89.9C99.0762 91.5602 100.425 92.906 102.088 92.906Z" fill="#F8CD53"/>
<path d="M3.01185 107.971C4.67524 107.971 6.02369 106.625 6.02369 104.965C6.02369 103.305 4.67524 101.959 3.01185 101.959C1.34845 101.959 0 103.305 0 104.965C0 106.625 1.34845 107.971 3.01185 107.971Z" fill="#F8CD53"/>
<path d="M17.1603 101.959C15.4793 101.959 14.1484 103.322 14.1484 104.965C14.1484 106.643 15.5143 107.971 17.1603 107.971C18.8413 107.971 20.1721 106.608 20.1721 104.965C20.1721 103.322 18.8413 101.959 17.1603 101.959Z" fill="#F8CD53"/>
<path d="M31.3087 107.971C32.9721 107.971 34.3206 106.625 34.3206 104.965C34.3206 103.305 32.9721 101.959 31.3087 101.959C29.6453 101.959 28.2969 103.305 28.2969 104.965C28.2969 106.625 29.6453 107.971 31.3087 107.971Z" fill="#F8CD53"/>
<path d="M45.4572 107.971C47.1206 107.971 48.469 106.625 48.469 104.965C48.469 103.305 47.1206 101.959 45.4572 101.959C43.7938 101.959 42.4453 103.305 42.4453 104.965C42.4453 106.625 43.7938 107.971 45.4572 107.971Z" fill="#F8CD53"/>
<path d="M59.6408 101.959C57.9597 101.959 56.6289 103.322 56.6289 104.965C56.6289 106.643 57.9947 107.971 59.6408 107.971C61.3218 107.971 62.6526 106.608 62.6526 104.965C62.6526 103.322 61.2868 101.959 59.6408 101.959Z" fill="#F8CD53"/>
<path d="M73.7911 107.971C75.4545 107.971 76.803 106.625 76.803 104.965C76.803 103.305 75.4545 101.959 73.7911 101.959C72.1277 101.959 70.7793 103.305 70.7793 104.965C70.7793 106.625 72.1277 107.971 73.7911 107.971Z" fill="#F8CD53"/>
<path d="M87.9396 101.959C86.2586 101.959 84.9277 103.322 84.9277 104.965C84.9277 106.643 86.2936 107.971 87.9396 107.971C89.6206 107.971 90.9514 106.608 90.9514 104.965C90.9514 103.322 89.5856 101.959 87.9396 101.959Z" fill="#F8CD53"/>
<path d="M102.088 107.971C103.751 107.971 105.1 106.625 105.1 104.965C105.1 103.305 103.751 101.959 102.088 101.959C100.425 101.959 99.0762 103.305 99.0762 104.965C99.0762 106.625 100.425 107.971 102.088 107.971Z" fill="#F8CD53"/>
<path d="M116.062 2.48168C117.042 2.48168 117.848 1.99233 118.408 1.29326C116.727 1.01364 115.011 0.803917 113.295 0.62915C113.715 1.71271 114.801 2.48168 116.062 2.48168Z" fill="#F8CD53"/>
<path d="M116.061 11.5347C114.38 11.5347 113.049 12.8978 113.049 14.5407C113.049 16.2184 114.415 17.5467 116.061 17.5467C117.742 17.5467 119.073 16.1835 119.073 14.5407C119.073 12.8629 117.707 11.5347 116.061 11.5347Z" fill="#F8CD53"/>
<path d="M130.209 11.5347C128.528 11.5347 127.197 12.8978 127.197 14.5407C127.197 16.2184 128.563 17.5467 130.209 17.5467C131.89 17.5467 133.221 16.1835 133.221 14.5407C133.221 12.8629 131.89 11.5347 130.209 11.5347Z" fill="#F8CD53"/>
<path d="M144.358 17.5467C146.021 17.5467 147.369 16.2008 147.369 14.5407C147.369 12.8805 146.021 11.5347 144.358 11.5347C142.694 11.5347 141.346 12.8805 141.346 14.5407C141.346 16.2008 142.694 17.5467 144.358 17.5467Z" fill="#F8CD53"/>
<path d="M158.508 17.5467C158.963 17.5467 159.383 17.4418 159.734 17.2671C158.333 16.3583 156.932 15.4844 155.496 14.6106C155.566 16.2185 156.897 17.5467 158.508 17.5467Z" fill="#F8CD53"/>
<path d="M116.061 26.5996C114.38 26.5996 113.049 27.9628 113.049 29.6056C113.049 31.2834 114.415 32.6116 116.061 32.6116C117.742 32.6116 119.073 31.2484 119.073 29.6056C119.073 27.9278 117.707 26.5996 116.061 26.5996Z" fill="#F8CD53"/>
<path d="M130.209 26.5996C128.528 26.5996 127.197 27.9628 127.197 29.6056C127.197 31.2834 128.563 32.6116 130.209 32.6116C131.89 32.6116 133.221 31.2484 133.221 29.6056C133.221 27.9278 131.89 26.5996 130.209 26.5996Z" fill="#F8CD53"/>
<path d="M144.358 26.5996C142.677 26.5996 141.346 27.9628 141.346 29.6056C141.346 31.2834 142.712 32.6116 144.358 32.6116C146.039 32.6116 147.369 31.2484 147.369 29.6056C147.369 27.9278 146.039 26.5996 144.358 26.5996Z" fill="#F8CD53"/>
<path d="M158.508 26.5996C156.827 26.5996 155.496 27.9628 155.496 29.6056C155.496 31.2834 156.862 32.6116 158.508 32.6116C160.189 32.6116 161.52 31.2484 161.52 29.6056C161.52 27.9278 160.189 26.5996 158.508 26.5996Z" fill="#F8CD53"/>
<path d="M169.645 29.6054C169.645 31.2832 171.01 32.6114 172.656 32.6114C174.162 32.6114 175.388 31.458 175.598 30.0249C174.442 28.9064 173.287 27.7879 172.061 26.7393C170.695 26.9839 169.645 28.1374 169.645 29.6054Z" fill="#F8CD53"/>
<path d="M116.061 41.6646C114.38 41.6646 113.049 43.0277 113.049 44.6705C113.049 46.3483 114.415 47.6765 116.061 47.6765C117.742 47.6765 119.073 46.3134 119.073 44.6705C119.073 43.0277 117.707 41.6646 116.061 41.6646Z" fill="#F8CD53"/>
<path d="M130.209 41.6646C128.528 41.6646 127.197 43.0277 127.197 44.6705C127.197 46.3483 128.563 47.6765 130.209 47.6765C131.89 47.6765 133.221 46.3134 133.221 44.6705C133.221 43.0277 131.89 41.6646 130.209 41.6646Z" fill="#F8CD53"/>
<path d="M144.358 41.6646C142.677 41.6646 141.346 43.0277 141.346 44.6705C141.346 46.3483 142.712 47.6765 144.358 47.6765C146.039 47.6765 147.369 46.3134 147.369 44.6705C147.369 43.0277 146.039 41.6646 144.358 41.6646Z" fill="#F8CD53"/>
<path d="M158.508 41.6646C156.827 41.6646 155.496 43.0277 155.496 44.6705C155.496 46.3483 156.862 47.6765 158.508 47.6765C160.189 47.6765 161.52 46.3134 161.52 44.6705C161.52 43.0277 160.189 41.6646 158.508 41.6646Z" fill="#F8CD53"/>
<path d="M172.656 41.6646C170.975 41.6646 169.645 43.0277 169.645 44.6705C169.645 46.3483 171.01 47.6765 172.656 47.6765C174.302 47.6765 175.668 46.3134 175.668 44.6705C175.703 43.0277 174.337 41.6646 172.656 41.6646Z" fill="#F8CD53"/>
<path d="M183.828 44.6703C183.828 46.3481 185.194 47.6763 186.84 47.6763C187.856 47.6763 188.731 47.1171 189.291 46.3481C188.241 44.8101 187.155 43.3072 186.069 41.8391C184.774 42.1886 183.828 43.3072 183.828 44.6703Z" fill="#F8CD53"/>
<path d="M116.061 56.7292C114.38 56.7292 113.049 58.0924 113.049 59.7352C113.049 61.413 114.415 62.7412 116.061 62.7412C117.742 62.7412 119.073 61.3781 119.073 59.7352C119.073 58.0924 117.707 56.7292 116.061 56.7292Z" fill="#F8CD53"/>
<path d="M130.209 56.7292C128.528 56.7292 127.197 58.0924 127.197 59.7352C127.197 61.413 128.563 62.7412 130.209 62.7412C131.89 62.7412 133.221 61.3781 133.221 59.7352C133.221 58.0924 131.89 56.7292 130.209 56.7292Z" fill="#F8CD53"/>
<path d="M144.358 62.7412C146.021 62.7412 147.369 61.3954 147.369 59.7352C147.369 58.0751 146.021 56.7292 144.358 56.7292C142.694 56.7292 141.346 58.0751 141.346 59.7352C141.346 61.3954 142.694 62.7412 144.358 62.7412Z" fill="#F8CD53"/>
<path d="M158.508 56.7292C156.827 56.7292 155.496 58.0924 155.496 59.7352C155.496 61.413 156.862 62.7412 158.508 62.7412C160.189 62.7412 161.52 61.3781 161.52 59.7352C161.52 58.0924 160.189 56.7292 158.508 56.7292Z" fill="#F8CD53"/>
<path d="M172.656 56.7292C170.975 56.7292 169.645 58.0924 169.645 59.7352C169.645 61.413 171.01 62.7412 172.656 62.7412C174.302 62.7412 175.668 61.3781 175.668 59.7352C175.703 58.0924 174.337 56.7292 172.656 56.7292Z" fill="#F8CD53"/>
<path d="M186.84 56.7292C185.159 56.7292 183.828 58.0924 183.828 59.7352C183.828 61.413 185.194 62.7412 186.84 62.7412C188.521 62.7412 189.852 61.3781 189.852 59.7352C189.852 58.0924 188.486 56.7292 186.84 56.7292Z" fill="#F8CD53"/>
<path d="M116.061 71.8291C114.38 71.8291 113.049 73.1923 113.049 74.8351C113.049 76.5129 114.415 77.8411 116.061 77.8411C117.742 77.8411 119.073 76.4779 119.073 74.8351C119.073 73.1573 117.707 71.8291 116.061 71.8291Z" fill="#F8CD53"/>
<path d="M130.209 71.8291C128.528 71.8291 127.197 73.1923 127.197 74.8351C127.197 76.5129 128.563 77.8411 130.209 77.8411C131.89 77.8411 133.221 76.4779 133.221 74.8351C133.221 73.1573 131.89 71.8291 130.209 71.8291Z" fill="#F8CD53"/>
<path d="M144.358 71.8291C142.677 71.8291 141.346 73.1923 141.346 74.8351C141.346 76.5129 142.712 77.8411 144.358 77.8411C146.039 77.8411 147.369 76.4779 147.369 74.8351C147.369 73.1573 146.039 71.8291 144.358 71.8291Z" fill="#F8CD53"/>
<path d="M158.508 71.8291C156.827 71.8291 155.496 73.1923 155.496 74.8351C155.496 76.5129 156.862 77.8411 158.508 77.8411C160.189 77.8411 161.52 76.4779 161.52 74.8351C161.52 73.1573 160.189 71.8291 158.508 71.8291Z" fill="#F8CD53"/>
<path d="M172.656 71.8291C170.975 71.8291 169.645 73.1923 169.645 74.8351C169.645 76.5129 171.01 77.8411 172.656 77.8411C174.302 77.8411 175.668 76.4779 175.668 74.8351C175.703 73.1573 174.337 71.8291 172.656 71.8291Z" fill="#F8CD53"/>
<path d="M186.84 71.8291C185.159 71.8291 183.828 73.1923 183.828 74.8351C183.828 76.5129 185.194 77.8411 186.84 77.8411C188.521 77.8411 189.852 76.4779 189.852 74.8351C189.852 73.1573 188.486 71.8291 186.84 71.8291Z" fill="#F8CD53"/>
<path d="M197.977 74.8351C197.977 76.5129 199.342 77.8411 200.988 77.8411C201.934 77.8411 202.739 77.3867 203.3 76.6876C202.845 75.1147 202.389 73.5418 201.864 72.0039C201.584 71.899 201.304 71.8291 200.988 71.8291C199.307 71.8291 197.977 73.1573 197.977 74.8351Z" fill="#F8CD53"/>
<path d="M116.061 86.894C114.38 86.894 113.049 88.2572 113.049 89.9C113.049 91.5778 114.415 92.906 116.061 92.906C117.742 92.906 119.073 91.5428 119.073 89.9C119.073 88.2223 117.707 86.894 116.061 86.894Z" fill="#F8CD53"/>
<path d="M130.209 86.894C128.528 86.894 127.197 88.2572 127.197 89.9C127.197 91.5778 128.563 92.906 130.209 92.906C131.89 92.906 133.221 91.5428 133.221 89.9C133.221 88.2223 131.89 86.894 130.209 86.894Z" fill="#F8CD53"/>
<path d="M144.358 92.906C146.021 92.906 147.369 91.5602 147.369 89.9C147.369 88.2399 146.021 86.894 144.358 86.894C142.694 86.894 141.346 88.2399 141.346 89.9C141.346 91.5602 142.694 92.906 144.358 92.906Z" fill="#F8CD53"/>
<path d="M158.508 86.894C156.827 86.894 155.496 88.2572 155.496 89.9C155.496 91.5778 156.862 92.906 158.508 92.906C160.189 92.906 161.52 91.5428 161.52 89.9C161.52 88.2223 160.189 86.894 158.508 86.894Z" fill="#F8CD53"/>
<path d="M172.656 86.894C170.975 86.894 169.645 88.2572 169.645 89.9C169.645 91.5778 171.01 92.906 172.656 92.906C174.302 92.906 175.668 91.5428 175.668 89.9C175.703 88.2223 174.337 86.894 172.656 86.894Z" fill="#F8CD53"/>
<path d="M186.84 86.894C185.159 86.894 183.828 88.2572 183.828 89.9C183.828 91.5778 185.194 92.906 186.84 92.906C188.521 92.906 189.852 91.5428 189.852 89.9C189.852 88.2223 188.486 86.894 186.84 86.894Z" fill="#F8CD53"/>
<path d="M200.988 86.894C199.307 86.894 197.977 88.2572 197.977 89.9C197.977 91.5778 199.342 92.906 200.988 92.906C202.669 92.906 204 91.5428 204 89.9C204 88.2223 202.634 86.894 200.988 86.894Z" fill="#F8CD53"/>
<path d="M116.061 101.959C114.38 101.959 113.049 103.322 113.049 104.965C113.049 106.643 114.415 107.971 116.061 107.971C117.742 107.971 119.073 106.608 119.073 104.965C119.073 103.322 117.707 101.959 116.061 101.959Z" fill="#F8CD53"/>
<path d="M130.209 101.959C128.528 101.959 127.197 103.322 127.197 104.965C127.197 106.643 128.563 107.971 130.209 107.971C131.89 107.971 133.221 106.608 133.221 104.965C133.221 103.322 131.89 101.959 130.209 101.959Z" fill="#F8CD53"/>
<path d="M144.358 107.971C146.021 107.971 147.369 106.625 147.369 104.965C147.369 103.305 146.021 101.959 144.358 101.959C142.694 101.959 141.346 103.305 141.346 104.965C141.346 106.625 142.694 107.971 144.358 107.971Z" fill="#F8CD53"/>
<path d="M158.508 101.959C156.827 101.959 155.496 103.322 155.496 104.965C155.496 106.643 156.862 107.971 158.508 107.971C160.189 107.971 161.52 106.608 161.52 104.965C161.52 103.322 160.189 101.959 158.508 101.959Z" fill="#F8CD53"/>
<path d="M172.656 101.959C170.975 101.959 169.645 103.322 169.645 104.965C169.645 106.643 171.01 107.971 172.656 107.971C174.302 107.971 175.668 106.608 175.668 104.965C175.703 103.322 174.337 101.959 172.656 101.959Z" fill="#F8CD53"/>
<path d="M186.84 101.959C185.159 101.959 183.828 103.322 183.828 104.965C183.828 106.643 185.194 107.971 186.84 107.971C188.521 107.971 189.852 106.608 189.852 104.965C189.852 103.322 188.486 101.959 186.84 101.959Z" fill="#F8CD53"/>
<path d="M200.988 101.959C199.307 101.959 197.977 103.322 197.977 104.965C197.977 106.643 199.342 107.971 200.988 107.971C202.669 107.971 204 106.608 204 104.965C204 103.322 202.634 101.959 200.988 101.959Z" fill="#F8CD53"/>
<path d="M3.01185 123.106C4.67524 123.106 6.02369 121.76 6.02369 120.1C6.02369 118.44 4.67524 117.094 3.01185 117.094C1.34845 117.094 0 118.44 0 120.1C0 121.76 1.34845 123.106 3.01185 123.106Z" fill="#F8CD53"/>
<path d="M17.1603 117.094C15.4793 117.094 14.1484 118.457 14.1484 120.1C14.1484 121.778 15.5143 123.106 17.1603 123.106C18.8413 123.106 20.1721 121.743 20.1721 120.1C20.1721 118.422 18.8413 117.094 17.1603 117.094Z" fill="#F8CD53"/>
<path d="M31.3087 123.106C32.9721 123.106 34.3206 121.76 34.3206 120.1C34.3206 118.44 32.9721 117.094 31.3087 117.094C29.6453 117.094 28.2969 118.44 28.2969 120.1C28.2969 121.76 29.6453 123.106 31.3087 123.106Z" fill="#F8CD53"/>
<path d="M45.4572 123.106C47.1206 123.106 48.469 121.76 48.469 120.1C48.469 118.44 47.1206 117.094 45.4572 117.094C43.7938 117.094 42.4453 118.44 42.4453 120.1C42.4453 121.76 43.7938 123.106 45.4572 123.106Z" fill="#F8CD53"/>
<path d="M59.6408 117.094C57.9597 117.094 56.6289 118.457 56.6289 120.1C56.6289 121.778 57.9947 123.106 59.6408 123.106C61.3218 123.106 62.6526 121.743 62.6526 120.1C62.6526 118.422 61.2868 117.094 59.6408 117.094Z" fill="#F8CD53"/>
<path d="M73.7911 123.106C75.4545 123.106 76.803 121.76 76.803 120.1C76.803 118.44 75.4545 117.094 73.7911 117.094C72.1277 117.094 70.7793 118.44 70.7793 120.1C70.7793 121.76 72.1277 123.106 73.7911 123.106Z" fill="#F8CD53"/>
<path d="M87.9396 117.094C86.2586 117.094 84.9277 118.457 84.9277 120.1C84.9277 121.778 86.2936 123.106 87.9396 123.106C89.6206 123.106 90.9514 121.743 90.9514 120.1C90.9514 118.422 89.5856 117.094 87.9396 117.094Z" fill="#F8CD53"/>
<path d="M102.088 123.106C103.751 123.106 105.1 121.76 105.1 120.1C105.1 118.44 103.751 117.094 102.088 117.094C100.425 117.094 99.0762 118.44 99.0762 120.1C99.0762 121.76 100.425 123.106 102.088 123.106Z" fill="#F8CD53"/>
<path d="M6.02443 135.165C6.02443 133.487 4.6586 132.159 3.01259 132.159C2.06701 132.159 1.26152 132.613 0.701172 133.312C1.15645 134.885 1.61173 136.458 2.13705 137.996C2.41722 138.101 2.6974 138.171 3.01259 138.171C4.69362 138.171 6.02443 136.843 6.02443 135.165Z" fill="#F8CD53"/>
<path d="M17.1603 132.159C15.4793 132.159 14.1484 133.522 14.1484 135.165C14.1484 136.843 15.5143 138.171 17.1603 138.171C18.8413 138.171 20.1721 136.808 20.1721 135.165C20.1721 133.522 18.8413 132.159 17.1603 132.159Z" fill="#F8CD53"/>
<path d="M31.3087 138.171C32.9721 138.171 34.3206 136.825 34.3206 135.165C34.3206 133.505 32.9721 132.159 31.3087 132.159C29.6453 132.159 28.2969 133.505 28.2969 135.165C28.2969 136.825 29.6453 138.171 31.3087 138.171Z" fill="#F8CD53"/>
<path d="M45.4572 138.171C47.1206 138.171 48.469 136.825 48.469 135.165C48.469 133.505 47.1206 132.159 45.4572 132.159C43.7938 132.159 42.4453 133.505 42.4453 135.165C42.4453 136.825 43.7938 138.171 45.4572 138.171Z" fill="#F8CD53"/>
<path d="M59.6408 132.159C57.9597 132.159 56.6289 133.522 56.6289 135.165C56.6289 136.843 57.9947 138.171 59.6408 138.171C61.3218 138.171 62.6526 136.808 62.6526 135.165C62.6526 133.522 61.2868 132.159 59.6408 132.159Z" fill="#F8CD53"/>
<path d="M73.7911 138.171C75.4545 138.171 76.803 136.825 76.803 135.165C76.803 133.505 75.4545 132.159 73.7911 132.159C72.1277 132.159 70.7793 133.505 70.7793 135.165C70.7793 136.825 72.1277 138.171 73.7911 138.171Z" fill="#F8CD53"/>
<path d="M87.9396 132.159C86.2586 132.159 84.9277 133.522 84.9277 135.165C84.9277 136.843 86.2936 138.171 87.9396 138.171C89.6206 138.171 90.9514 136.808 90.9514 135.165C90.9514 133.522 89.5856 132.159 87.9396 132.159Z" fill="#F8CD53"/>
<path d="M102.088 138.171C103.751 138.171 105.1 136.825 105.1 135.165C105.1 133.505 103.751 132.159 102.088 132.159C100.425 132.159 99.0762 133.505 99.0762 135.165C99.0762 136.825 100.425 138.171 102.088 138.171Z" fill="#F8CD53"/>
<path d="M17.1603 147.224C15.4793 147.224 14.1484 148.587 14.1484 150.23C14.1484 151.907 15.5143 153.236 17.1603 153.236C18.8413 153.236 20.1721 151.872 20.1721 150.23C20.1721 148.587 18.8413 147.224 17.1603 147.224Z" fill="#F8CD53"/>
<path d="M31.3087 153.236C32.9721 153.236 34.3206 151.89 34.3206 150.23C34.3206 148.569 32.9721 147.224 31.3087 147.224C29.6453 147.224 28.2969 148.569 28.2969 150.23C28.2969 151.89 29.6453 153.236 31.3087 153.236Z" fill="#F8CD53"/>
<path d="M45.4572 153.236C47.1206 153.236 48.469 151.89 48.469 150.23C48.469 148.569 47.1206 147.224 45.4572 147.224C43.7938 147.224 42.4453 148.569 42.4453 150.23C42.4453 151.89 43.7938 153.236 45.4572 153.236Z" fill="#F8CD53"/>
<path d="M59.6408 147.224C57.9597 147.224 56.6289 148.587 56.6289 150.23C56.6289 151.907 57.9947 153.236 59.6408 153.236C61.3218 153.236 62.6526 151.872 62.6526 150.23C62.6526 148.587 61.2868 147.224 59.6408 147.224Z" fill="#F8CD53"/>
<path d="M73.7911 153.236C75.4545 153.236 76.803 151.89 76.803 150.23C76.803 148.569 75.4545 147.224 73.7911 147.224C72.1277 147.224 70.7793 148.569 70.7793 150.23C70.7793 151.89 72.1277 153.236 73.7911 153.236Z" fill="#F8CD53"/>
<path d="M87.9396 147.224C86.2586 147.224 84.9277 148.587 84.9277 150.23C84.9277 151.907 86.2936 153.236 87.9396 153.236C89.6206 153.236 90.9514 151.872 90.9514 150.23C90.9514 148.587 89.5856 147.224 87.9396 147.224Z" fill="#F8CD53"/>
<path d="M102.088 153.236C103.751 153.236 105.1 151.89 105.1 150.23C105.1 148.569 103.751 147.224 102.088 147.224C100.425 147.224 99.0762 148.569 99.0762 150.23C99.0762 151.89 100.425 153.236 102.088 153.236Z" fill="#F8CD53"/>
<path d="M20.1723 165.329C20.1723 163.652 18.8065 162.323 17.1605 162.323C16.1449 162.323 15.2693 162.883 14.709 163.652C15.7596 165.19 16.8453 166.693 17.931 168.161C19.2268 167.811 20.1723 166.693 20.1723 165.329Z" fill="#F8CD53"/>
<path d="M31.3087 168.335C32.9721 168.335 34.3206 166.99 34.3206 165.329C34.3206 163.669 32.9721 162.323 31.3087 162.323C29.6453 162.323 28.2969 163.669 28.2969 165.329C28.2969 166.99 29.6453 168.335 31.3087 168.335Z" fill="#F8CD53"/>
<path d="M45.4572 168.335C47.1206 168.335 48.469 166.99 48.469 165.329C48.469 163.669 47.1206 162.323 45.4572 162.323C43.7938 162.323 42.4453 163.669 42.4453 165.329C42.4453 166.99 43.7938 168.335 45.4572 168.335Z" fill="#F8CD53"/>
<path d="M59.6408 162.323C57.9597 162.323 56.6289 163.687 56.6289 165.329C56.6289 166.972 57.9947 168.335 59.6408 168.335C61.3218 168.335 62.6526 166.972 62.6526 165.329C62.6526 163.687 61.2868 162.323 59.6408 162.323Z" fill="#F8CD53"/>
<path d="M73.7911 168.335C75.4545 168.335 76.803 166.99 76.803 165.329C76.803 163.669 75.4545 162.323 73.7911 162.323C72.1277 162.323 70.7793 163.669 70.7793 165.329C70.7793 166.99 72.1277 168.335 73.7911 168.335Z" fill="#F8CD53"/>
<path d="M87.9396 162.323C86.2586 162.323 84.9277 163.687 84.9277 165.329C84.9277 166.972 86.2936 168.335 87.9396 168.335C89.6206 168.335 90.9514 166.972 90.9514 165.329C90.9514 163.687 89.5856 162.323 87.9396 162.323Z" fill="#F8CD53"/>
<path d="M102.088 168.335C103.751 168.335 105.1 166.99 105.1 165.329C105.1 163.669 103.751 162.323 102.088 162.323C100.425 162.323 99.0762 163.669 99.0762 165.329C99.0762 166.99 100.425 168.335 102.088 168.335Z" fill="#F8CD53"/>
<path d="M34.3208 180.394C34.3208 178.717 32.955 177.388 31.309 177.388C29.8031 177.388 28.5773 178.542 28.3672 179.975C29.5229 181.093 30.6786 182.212 31.9044 183.261C33.2702 183.016 34.3208 181.862 34.3208 180.394Z" fill="#F8CD53"/>
<path d="M45.4572 183.4C47.1206 183.4 48.469 182.055 48.469 180.394C48.469 178.734 47.1206 177.388 45.4572 177.388C43.7938 177.388 42.4453 178.734 42.4453 180.394C42.4453 182.055 43.7938 183.4 45.4572 183.4Z" fill="#F8CD53"/>
<path d="M59.6408 177.388C57.9597 177.388 56.6289 178.752 56.6289 180.394C56.6289 182.072 57.9947 183.4 59.6408 183.4C61.3218 183.4 62.6526 182.037 62.6526 180.394C62.6526 178.717 61.2868 177.388 59.6408 177.388Z" fill="#F8CD53"/>
<path d="M73.7911 183.4C75.4545 183.4 76.803 182.055 76.803 180.394C76.803 178.734 75.4545 177.388 73.7911 177.388C72.1277 177.388 70.7793 178.734 70.7793 180.394C70.7793 182.055 72.1277 183.4 73.7911 183.4Z" fill="#F8CD53"/>
<path d="M87.9396 177.388C86.2586 177.388 84.9277 178.752 84.9277 180.394C84.9277 182.072 86.2936 183.4 87.9396 183.4C89.6206 183.4 90.9514 182.037 90.9514 180.394C90.9514 178.717 89.5856 177.388 87.9396 177.388Z" fill="#F8CD53"/>
<path d="M102.088 183.4C103.751 183.4 105.1 182.055 105.1 180.394C105.1 178.734 103.751 177.388 102.088 177.388C100.425 177.388 99.0762 178.734 99.0762 180.394C99.0762 182.055 100.425 183.4 102.088 183.4Z" fill="#F8CD53"/>
<path d="M45.4582 192.453C45.0029 192.453 44.5826 192.558 44.2324 192.733C45.6333 193.642 47.0341 194.516 48.47 195.389C48.435 193.747 47.1042 192.453 45.4582 192.453Z" fill="#F8CD53"/>
<path d="M59.6408 192.453C57.9597 192.453 56.6289 193.817 56.6289 195.459C56.6289 197.137 57.9947 198.465 59.6408 198.465C61.3218 198.465 62.6526 197.102 62.6526 195.459C62.6526 193.817 61.2868 192.453 59.6408 192.453Z" fill="#F8CD53"/>
<path d="M73.7911 192.453C72.1101 192.453 70.7793 193.817 70.7793 195.459C70.7793 197.137 72.1451 198.465 73.7911 198.465C75.4722 198.465 76.803 197.102 76.803 195.459C76.803 193.817 75.4372 192.453 73.7911 192.453Z" fill="#F8CD53"/>
<path d="M87.9396 192.453C86.2586 192.453 84.9277 193.817 84.9277 195.459C84.9277 197.137 86.2936 198.465 87.9396 198.465C89.6206 198.465 90.9514 197.102 90.9514 195.459C90.9514 193.817 89.5856 192.453 87.9396 192.453Z" fill="#F8CD53"/>
<path d="M102.088 192.453C100.407 192.453 99.0762 193.817 99.0762 195.459C99.0762 197.137 100.442 198.465 102.088 198.465C103.769 198.465 105.1 197.102 105.1 195.459C105.1 193.817 103.734 192.453 102.088 192.453Z" fill="#F8CD53"/>
<path d="M87.9382 207.518C86.9576 207.518 86.1521 208.008 85.5918 208.707C87.2728 208.986 88.9889 209.196 90.7049 209.371C90.2496 208.287 89.199 207.518 87.9382 207.518Z" fill="#F8CD53"/>
<path d="M102.088 207.518C100.653 207.518 99.4968 208.567 99.1816 209.93C100.127 209.965 101.038 210 101.983 210C102.999 210 103.98 209.965 104.96 209.93C104.68 208.567 103.524 207.518 102.088 207.518Z" fill="#F8CD53"/>
<path d="M116.061 117.094C114.38 117.094 113.049 118.457 113.049 120.1C113.049 121.778 114.415 123.106 116.061 123.106C117.742 123.106 119.073 121.743 119.073 120.1C119.073 118.422 117.707 117.094 116.061 117.094Z" fill="#F8CD53"/>
<path d="M130.209 117.094C128.528 117.094 127.197 118.457 127.197 120.1C127.197 121.778 128.563 123.106 130.209 123.106C131.89 123.106 133.221 121.743 133.221 120.1C133.221 118.422 131.89 117.094 130.209 117.094Z" fill="#F8CD53"/>
<path d="M144.358 123.106C146.021 123.106 147.369 121.76 147.369 120.1C147.369 118.44 146.021 117.094 144.358 117.094C142.694 117.094 141.346 118.44 141.346 120.1C141.346 121.76 142.694 123.106 144.358 123.106Z" fill="#F8CD53"/>
<path d="M158.508 117.094C156.827 117.094 155.496 118.457 155.496 120.1C155.496 121.778 156.862 123.106 158.508 123.106C160.189 123.106 161.52 121.743 161.52 120.1C161.52 118.422 160.189 117.094 158.508 117.094Z" fill="#F8CD53"/>
<path d="M172.656 117.094C170.975 117.094 169.645 118.457 169.645 120.1C169.645 121.778 171.01 123.106 172.656 123.106C174.302 123.106 175.668 121.743 175.668 120.1C175.703 118.422 174.337 117.094 172.656 117.094Z" fill="#F8CD53"/>
<path d="M186.84 117.094C185.159 117.094 183.828 118.457 183.828 120.1C183.828 121.778 185.194 123.106 186.84 123.106C188.521 123.106 189.852 121.743 189.852 120.1C189.852 118.422 188.486 117.094 186.84 117.094Z" fill="#F8CD53"/>
<path d="M200.988 117.094C199.307 117.094 197.977 118.457 197.977 120.1C197.977 121.778 199.342 123.106 200.988 123.106C202.669 123.106 204 121.743 204 120.1C204 118.422 202.634 117.094 200.988 117.094Z" fill="#F8CD53"/>
<path d="M116.061 132.159C114.38 132.159 113.049 133.522 113.049 135.165C113.049 136.843 114.415 138.171 116.061 138.171C117.742 138.171 119.073 136.808 119.073 135.165C119.073 133.522 117.707 132.159 116.061 132.159Z" fill="#F8CD53"/>
<path d="M130.209 132.159C128.528 132.159 127.197 133.522 127.197 135.165C127.197 136.843 128.563 138.171 130.209 138.171C131.89 138.171 133.221 136.808 133.221 135.165C133.221 133.522 131.89 132.159 130.209 132.159Z" fill="#F8CD53"/>
<path d="M144.358 138.171C146.021 138.171 147.369 136.825 147.369 135.165C147.369 133.505 146.021 132.159 144.358 132.159C142.694 132.159 141.346 133.505 141.346 135.165C141.346 136.825 142.694 138.171 144.358 138.171Z" fill="#F8CD53"/>
<path d="M158.508 132.159C156.827 132.159 155.496 133.522 155.496 135.165C155.496 136.843 156.862 138.171 158.508 138.171C160.189 138.171 161.52 136.808 161.52 135.165C161.52 133.522 160.189 132.159 158.508 132.159Z" fill="#F8CD53"/>
<path d="M172.656 132.159C170.975 132.159 169.645 133.522 169.645 135.165C169.645 136.843 171.01 138.171 172.656 138.171C174.302 138.171 175.668 136.808 175.668 135.165C175.703 133.522 174.337 132.159 172.656 132.159Z" fill="#F8CD53"/>
<path d="M186.84 132.159C185.159 132.159 183.828 133.522 183.828 135.165C183.828 136.843 185.194 138.171 186.84 138.171C188.521 138.171 189.852 136.808 189.852 135.165C189.852 133.522 188.486 132.159 186.84 132.159Z" fill="#F8CD53"/>
<path d="M200.988 132.159C199.307 132.159 197.977 133.522 197.977 135.165C197.977 136.843 199.342 138.171 200.988 138.171C201.304 138.171 201.584 138.066 201.864 137.996C202.389 136.458 202.845 134.885 203.3 133.312C202.739 132.648 201.934 132.159 200.988 132.159Z" fill="#F8CD53"/>
<path d="M116.061 147.224C114.38 147.224 113.049 148.587 113.049 150.23C113.049 151.907 114.415 153.236 116.061 153.236C117.742 153.236 119.073 151.872 119.073 150.23C119.073 148.587 117.707 147.224 116.061 147.224Z" fill="#F8CD53"/>
<path d="M130.209 147.224C128.528 147.224 127.197 148.587 127.197 150.23C127.197 151.907 128.563 153.236 130.209 153.236C131.89 153.236 133.221 151.872 133.221 150.23C133.221 148.587 131.89 147.224 130.209 147.224Z" fill="#F8CD53"/>
<path d="M144.358 153.236C146.021 153.236 147.369 151.89 147.369 150.23C147.369 148.569 146.021 147.224 144.358 147.224C142.694 147.224 141.346 148.569 141.346 150.23C141.346 151.89 142.694 153.236 144.358 153.236Z" fill="#F8CD53"/>
<path d="M158.508 147.224C156.827 147.224 155.496 148.587 155.496 150.23C155.496 151.907 156.862 153.236 158.508 153.236C160.189 153.236 161.52 151.872 161.52 150.23C161.52 148.587 160.189 147.224 158.508 147.224Z" fill="#F8CD53"/>
<path d="M172.656 147.224C170.975 147.224 169.645 148.587 169.645 150.23C169.645 151.907 171.01 153.236 172.656 153.236C174.302 153.236 175.668 151.872 175.668 150.23C175.703 148.587 174.337 147.224 172.656 147.224Z" fill="#F8CD53"/>
<path d="M186.84 147.224C185.159 147.224 183.828 148.587 183.828 150.23C183.828 151.907 185.194 153.236 186.84 153.236C188.521 153.236 189.852 151.872 189.852 150.23C189.852 148.587 188.486 147.224 186.84 147.224Z" fill="#F8CD53"/>
<path d="M116.061 162.323C114.38 162.323 113.049 163.687 113.049 165.329C113.049 166.972 114.415 168.335 116.061 168.335C117.742 168.335 119.073 166.972 119.073 165.329C119.073 163.687 117.707 162.323 116.061 162.323Z" fill="#F8CD53"/>
<path d="M130.209 162.323C128.528 162.323 127.197 163.687 127.197 165.329C127.197 166.972 128.563 168.335 130.209 168.335C131.89 168.335 133.221 166.972 133.221 165.329C133.221 163.687 131.89 162.323 130.209 162.323Z" fill="#F8CD53"/>
<path d="M144.358 168.335C146.021 168.335 147.369 166.99 147.369 165.329C147.369 163.669 146.021 162.323 144.358 162.323C142.694 162.323 141.346 163.669 141.346 165.329C141.346 166.99 142.694 168.335 144.358 168.335Z" fill="#F8CD53"/>
<path d="M158.508 162.323C156.827 162.323 155.496 163.687 155.496 165.329C155.496 166.972 156.862 168.335 158.508 168.335C160.189 168.335 161.52 166.972 161.52 165.329C161.52 163.687 160.189 162.323 158.508 162.323Z" fill="#F8CD53"/>
<path d="M172.656 162.323C170.975 162.323 169.645 163.687 169.645 165.329C169.645 166.972 171.01 168.335 172.656 168.335C174.302 168.335 175.668 166.972 175.668 165.329C175.668 163.687 174.337 162.323 172.656 162.323Z" fill="#F8CD53"/>
<path d="M186.84 162.323C185.159 162.323 183.828 163.687 183.828 165.329C183.828 166.693 184.774 167.811 186.034 168.161C187.155 166.693 188.241 165.19 189.256 163.652C188.731 162.848 187.856 162.323 186.84 162.323Z" fill="#F8CD53"/>
<path d="M116.061 177.388C114.38 177.388 113.049 178.752 113.049 180.394C113.049 182.072 114.415 183.4 116.061 183.4C117.742 183.4 119.073 182.037 119.073 180.394C119.073 178.717 117.707 177.388 116.061 177.388Z" fill="#F8CD53"/>
<path d="M130.209 177.388C128.528 177.388 127.197 178.752 127.197 180.394C127.197 182.072 128.563 183.4 130.209 183.4C131.89 183.4 133.221 182.037 133.221 180.394C133.221 178.717 131.89 177.388 130.209 177.388Z" fill="#F8CD53"/>
<path d="M144.358 183.4C146.021 183.4 147.369 182.055 147.369 180.394C147.369 178.734 146.021 177.388 144.358 177.388C142.694 177.388 141.346 178.734 141.346 180.394C141.346 182.055 142.694 183.4 144.358 183.4Z" fill="#F8CD53"/>
<path d="M158.508 177.388C156.827 177.388 155.496 178.752 155.496 180.394C155.496 182.072 156.862 183.4 158.508 183.4C160.189 183.4 161.52 182.037 161.52 180.394C161.52 178.717 160.189 177.388 158.508 177.388Z" fill="#F8CD53"/>
<path d="M172.656 177.388C170.975 177.388 169.645 178.752 169.645 180.394C169.645 181.862 170.695 183.016 172.061 183.296C173.252 182.212 174.442 181.128 175.598 180.01C175.388 178.542 174.197 177.388 172.656 177.388Z" fill="#F8CD53"/>
<path d="M116.061 192.453C114.38 192.453 113.049 193.817 113.049 195.459C113.049 197.137 114.415 198.465 116.061 198.465C117.742 198.465 119.073 197.102 119.073 195.459C119.073 193.817 117.707 192.453 116.061 192.453Z" fill="#F8CD53"/>
<path d="M130.209 192.453C128.528 192.453 127.197 193.817 127.197 195.459C127.197 197.137 128.563 198.465 130.209 198.465C131.89 198.465 133.221 197.102 133.221 195.459C133.221 193.817 131.89 192.453 130.209 192.453Z" fill="#F8CD53"/>
<path d="M144.358 192.453C142.677 192.453 141.346 193.817 141.346 195.459C141.346 197.137 142.712 198.465 144.358 198.465C146.039 198.465 147.369 197.102 147.369 195.459C147.369 193.817 146.039 192.453 144.358 192.453Z" fill="#F8CD53"/>
<path d="M155.531 195.389C156.967 194.551 158.368 193.642 159.769 192.733C159.384 192.558 158.963 192.453 158.543 192.453C156.897 192.453 155.566 193.747 155.531 195.389Z" fill="#F8CD53"/>
<path d="M116.062 207.518C114.801 207.518 113.75 208.287 113.295 209.371C115.011 209.196 116.727 208.951 118.408 208.707C117.848 208.008 117.042 207.518 116.062 207.518Z" fill="#F8CD53"/>
</g>
<defs>
<clipPath id="clip0_1_24373">
<rect width="204" height="210" fill="white"/>
</clipPath>
</defs>
</svg>
