<svg width="152" height="80" viewBox="0 0 152 80" fill="none" xmlns="http://www.w3.org/2000/svg">
<g clip-path="url(#clip0_1_23848)">
<path d="M71.8831 0.222965C69.5512 0.367893 67.199 0.557414 64.8873 0.813824C60.2844 1.3155 55.7422 2.04013 51.3825 2.99888C47.0837 3.93534 42.9674 5.13935 39.0741 6.51059C37.0666 7.21293 35.12 7.97101 33.2139 8.75139C31.3484 9.52062 29.5437 10.3122 27.7593 11.1483C24.1904 12.8205 20.8041 14.6154 17.6611 16.5329C11.3751 20.3567 6.2246 24.7603 3.06131 29.621C1.43911 32.0847 0.425236 34.6823 0.100797 37.3021C-0.223643 39.9554 0.263016 42.6087 1.37828 45.1839C2.45298 47.7034 4.19685 50.1226 6.44765 52.408C8.65789 54.6488 11.4156 56.7335 14.4573 58.6511C16.6675 60.0446 19.0805 61.3378 21.6355 62.5306C23.6024 63.8907 25.7518 65.1728 28.0026 66.3879C29.7059 67.3021 31.4903 68.1605 33.295 69.0078C35.0997 69.8439 36.945 70.6466 38.8511 71.4158C42.6227 72.9431 46.5768 74.3478 50.7337 75.5407C54.9311 76.7447 59.3516 77.7369 63.8735 78.495C66.1648 78.8852 68.4967 79.1973 70.8489 79.4537C73.2011 79.7101 75.5939 79.8662 77.9866 79.9554C80.3591 80.0446 82.7518 80.0334 85.1243 79.9108C87.4562 79.7882 89.7678 79.5652 92.0389 79.2642C94.31 78.952 96.5405 78.5284 98.6899 78.0267C100.86 77.5251 102.968 76.9565 105.016 76.3099C109.072 75.039 112.844 73.5005 116.392 71.8506C118.197 71.0145 119.941 70.1561 121.624 69.2419C123.327 68.3278 125.01 67.3801 126.632 66.4102C127.606 65.8305 128.559 65.2397 129.512 64.66C129.775 64.5039 129.796 64.2586 129.512 64.1026C129.228 63.9465 128.761 63.9465 128.498 64.1026C125.882 65.563 123.246 67.0234 120.549 68.4392C119.251 69.1193 117.893 69.777 116.534 70.4236C115.135 71.0925 113.695 71.7503 112.215 72.3746C112.276 72.3523 112.337 72.3188 112.397 72.2965C110.167 73.233 107.855 74.1137 105.463 74.9275C103.05 75.7413 100.515 76.4437 97.9194 77.0457C96.1755 77.447 94.3708 77.7926 92.5458 78.0713C90.6397 78.3612 88.7134 78.573 86.7465 78.7179C86.8276 78.7068 86.929 78.7068 87.0101 78.6956C84.9418 78.8517 82.8735 78.9186 80.7849 78.9186C78.6558 78.9075 76.5063 78.8183 74.3975 78.6622C71.4572 78.4392 68.5576 78.0713 65.6984 77.6254C62.819 77.1795 59.9802 76.6109 57.2225 75.9755C53.8969 75.1839 50.6526 74.2809 47.5704 73.2441C44.3868 72.1739 41.3046 70.9922 38.3644 69.7436C35.7892 68.6399 33.3153 67.4805 30.9226 66.2542C32.707 66.845 34.5117 67.3913 36.3569 67.9041C38.4455 68.4838 40.6152 69.0078 42.7849 69.4872C45.0154 69.9888 47.2662 70.4348 49.5576 70.8361C51.8692 71.2374 54.2011 71.6165 56.533 71.9621C58.8852 72.3077 61.2577 72.5975 63.6504 72.8316C68.4156 73.2887 73.2822 73.4671 78.1285 73.4671C80.5618 73.4671 82.9951 73.4225 85.4284 73.3222C87.8617 73.2218 90.2748 73.0323 92.6675 72.8316C95.04 72.631 97.4124 72.408 99.7443 72.1182C102.117 71.8172 104.428 71.4493 106.7 70.981C111.059 70.0892 115.277 68.952 119.251 67.6254C123.205 66.3099 126.936 64.7603 130.303 63.0212C133.669 61.282 136.71 59.3422 139.407 57.2798C142.104 55.2062 144.456 52.9989 146.342 50.6689C148.248 48.3166 149.647 45.8528 150.58 43.3222C152.506 38.1271 152.446 32.709 149.85 27.5808C148.573 25.0725 146.707 22.6644 144.476 20.379C143.381 19.2531 142.165 18.1494 140.847 17.1014C139.529 16.0647 138.049 15.0725 136.467 14.136C134.906 13.2107 133.222 12.3634 131.458 11.5608C129.633 10.7358 127.707 9.96655 125.74 9.25306C121.786 7.80379 117.507 6.63322 113.107 5.61873C106.375 4.08027 99.278 3.02118 92.0592 2.39688C92.0186 2.27425 91.8361 2.17391 91.6131 2.11817C91.6536 2.12932 91.7145 2.14047 91.755 2.15162C91.2886 2.02899 90.8831 1.86176 90.437 1.71683C90.0111 1.56076 89.5853 1.40468 89.1392 1.25975C88.6728 1.11483 88.1862 0.992196 87.6995 0.869565C87.152 0.735786 86.6045 0.613155 86.0368 0.51282C85.0026 0.334448 83.9076 0.222965 82.8329 0.144928C81.6163 0.0557413 80.3793 0.0111483 79.1424 0C78.9194 0 78.7166 0 78.4935 0C76.2833 0 74.0731 0.0891862 71.8831 0.222965ZM76.2833 0.735786C78.3313 0.691193 80.3793 0.691193 82.4274 0.824972C83.9482 0.936455 85.4284 1.11483 86.8479 1.42698C87.7401 1.6388 88.5714 1.88406 89.3825 2.17391C89.4231 2.18506 89.4637 2.19621 89.4839 2.20736C87.9834 2.09587 86.4626 2.00669 84.9621 1.9398C80.1766 1.71683 75.3505 1.70569 70.565 1.9621C68.152 2.09587 65.7593 2.29654 63.3868 2.55295C61.0549 2.80936 58.7635 3.12152 56.4925 3.534C54.2214 3.93534 51.9909 4.44816 49.8212 4.99443C47.6718 5.52954 45.5629 6.13155 43.4946 6.767C39.3783 8.02675 35.4444 9.48718 31.7945 11.1371C28.2054 12.7648 24.9813 14.6154 22.1019 16.6221C19.2225 18.6399 16.6675 20.8027 14.5384 23.0881C12.3687 25.4181 10.6451 27.8707 9.40816 30.3902C8.15096 32.932 7.44124 35.5741 7.23847 38.2051C7.0357 40.8584 7.42097 43.534 8.21179 46.1538C9.00261 48.7402 10.3612 51.282 12.1659 53.7012C13.4637 55.4292 15.0047 57.1014 16.7486 58.6956C15.4711 57.9264 14.2748 57.1349 13.1189 56.3211C13.1392 56.3322 13.1595 56.3545 13.1798 56.3657C10.1381 54.1806 7.54263 51.8172 5.57572 49.2865C3.87241 47.0234 2.67604 44.6488 2.04743 42.2185C1.52022 40 1.52022 37.7592 2.02716 35.5407C2.00688 35.5853 2.00688 35.6187 1.9866 35.6633C2.63548 33.01 3.99407 30.4236 5.87988 27.9599C5.8596 27.9933 5.81905 28.0268 5.79877 28.0602C8.15096 25.0167 11.2737 22.1851 14.9439 19.5764L14.9236 19.5875C14.9236 19.5764 14.9439 19.5764 14.9439 19.5652L14.9642 19.5541L14.9439 19.5652C17.5192 17.748 20.3377 16.0535 23.3388 14.437C26.3601 12.8094 29.5437 11.2821 32.8692 9.85507C32.8286 9.87737 32.7678 9.89966 32.7273 9.92196C35.5864 8.7068 38.5469 7.55853 41.6291 6.53289C44.6099 5.54069 47.7123 4.64883 50.9162 3.90189C57.0805 2.47492 63.6099 1.53846 70.2203 1.04794C70.1595 1.04794 70.0987 1.05909 70.0581 1.05909C72.1872 0.891862 74.215 0.780379 76.2833 0.735786ZM91.5928 2.12932C91.5928 2.12932 91.6131 2.12932 91.5928 2.12932C91.6131 2.12932 91.5928 2.12932 91.5928 2.12932ZM88.9364 3.89075C93.0122 4.2029 97.0474 4.63768 101.002 5.21739C105.098 5.8194 109.133 6.57748 113.046 7.48049C112.925 7.44704 112.803 7.42475 112.681 7.3913C118.44 8.7291 123.935 10.4013 128.903 12.4972C130.586 13.2218 132.209 14.0022 133.729 14.8272C135.21 15.6299 136.589 16.4883 137.866 17.3913C139.387 18.4838 140.725 19.6433 141.962 20.8361C143.26 22.0624 144.416 23.3333 145.43 24.6377C146.383 25.9086 147.234 27.1906 147.903 28.5173C148.593 29.8662 149.1 31.2486 149.444 32.6421C150.134 35.563 150.073 38.5284 149.384 41.4493C149.404 41.4047 149.404 41.3601 149.424 41.3155C149.059 42.8317 148.532 44.3255 147.822 45.7971C147.113 47.2798 146.2 48.7402 145.125 50.1561C142.895 53.0323 139.955 55.7079 136.507 58.1828C133.081 60.602 129.167 62.7982 124.767 64.6823C124.787 64.6711 124.828 64.66 124.848 64.6377C119.9 66.7335 114.466 68.4504 108.748 69.7993C107.288 70.1338 105.787 70.4459 104.286 70.7246C102.725 71.0033 101.123 71.2374 99.5213 71.4493C96.3174 71.8617 93.0528 72.1405 89.7881 72.3857C89.8489 72.3857 89.8895 72.3746 89.9503 72.3746C88.0848 72.5083 86.2193 72.6198 84.3537 72.6867C82.4071 72.7536 80.4605 72.7871 78.5138 72.7871C74.6205 72.7871 70.707 72.6533 66.8543 72.3746C64.786 72.2185 62.7177 72.0067 60.6696 71.7503C58.5811 71.4939 56.533 71.1706 54.485 70.8361C52.437 70.5017 50.4092 70.1561 48.4018 69.777C46.4146 69.398 44.4476 68.9743 42.501 68.5173C42.5618 68.5284 42.6227 68.5396 42.6835 68.5619C36.6408 67.1572 30.9023 65.3846 25.691 63.1884C25.7315 63.1995 25.7518 63.2218 25.7924 63.233C25.7518 63.2107 25.7113 63.1995 25.6707 63.1772C25.6504 63.1661 25.6504 63.1661 25.6301 63.155C25.6504 63.155 25.6504 63.1661 25.6707 63.1661C25.6504 63.155 25.6301 63.1549 25.6099 63.1438C24.6771 62.5641 23.7849 61.9621 22.9332 61.3489C22.9332 61.3601 22.9535 61.3601 22.9738 61.3712C19.6686 58.9966 16.9108 56.3991 14.7614 53.6455C12.612 50.8027 11.1317 47.8261 10.3612 44.7826C9.61094 41.6276 9.52983 38.4281 10.2598 35.2731C10.2598 35.3066 10.2395 35.3512 10.2395 35.3846C10.2395 35.3512 10.2598 35.3066 10.2598 35.2731C10.2598 35.2508 10.2598 35.2285 10.2801 35.2062C10.2801 35.2285 10.2801 35.2397 10.2598 35.262C11.0506 32.1516 12.5714 29.1081 14.802 26.2096C15.9578 24.738 17.2758 23.2999 18.7561 21.9175C20.2566 20.524 21.9194 19.1862 23.7241 17.893C25.3868 16.7224 27.151 15.6076 29.057 14.5596C30.9428 13.5229 32.9706 12.5418 35.0794 11.6388C37.7561 10.5128 40.5746 9.48718 43.5149 8.56187C46.4348 7.62542 49.4765 6.7893 52.5789 6.05351C55.0122 5.48495 57.5063 5.00557 60.0816 4.63768C62.6365 4.26979 65.2523 3.99108 67.8681 3.79041C74.803 3.28874 81.9204 3.38907 88.9364 3.89075ZM52.8425 5.98662C52.7817 5.99777 52.7209 6.00892 52.66 6.02007C52.7209 6.00892 52.7817 5.99777 52.8425 5.98662ZM23.6632 17.9041C23.6024 17.9487 23.5618 17.9822 23.501 18.0268C23.5416 17.9822 23.6024 17.9487 23.6632 17.9041ZM14.6803 26.2988C14.66 26.3211 14.6398 26.3434 14.6398 26.3545C14.6398 26.3322 14.66 26.3099 14.6803 26.2988ZM10.2801 44.6823C10.2801 44.6934 10.2801 44.7157 10.3004 44.7269C10.2801 44.7157 10.2801 44.7046 10.2801 44.6823ZM5.63655 49.2865C5.65683 49.3199 5.6771 49.3422 5.69738 49.3757C5.6771 49.3534 5.65683 49.3199 5.63655 49.2865ZM38.5469 69.7547C38.5672 69.7659 38.6077 69.777 38.628 69.7882C38.5875 69.777 38.5672 69.7659 38.5469 69.7547ZM57.4252 75.9643C57.4455 75.9755 57.4861 75.9755 57.5063 75.9866C57.4861 75.9755 57.4455 75.9755 57.4252 75.9643ZM124.848 64.6265C124.868 64.6154 124.868 64.6154 124.888 64.6042C124.868 64.6154 124.868 64.6265 124.848 64.6265ZM25.6301 63.1661C25.6099 63.1661 25.6301 63.1661 25.6301 63.1661V63.1661ZM10.199 35.2731C10.199 35.2731 10.199 35.262 10.199 35.2731C10.199 35.262 10.199 35.262 10.199 35.2731ZM15.025 19.5541C15.025 19.5541 15.0047 19.5652 15.025 19.5541C15.0047 19.5652 15.025 19.5541 15.025 19.5541Z" fill="#F8CD53"/>
</g>
<defs>
<clipPath id="clip0_1_23848">
<rect width="152" height="80" fill="white"/>
</clipPath>
</defs>
</svg>
