<svg width="95" height="28" viewBox="0 0 95 28" fill="none" xmlns="http://www.w3.org/2000/svg">
<g clip-path="url(#clip0_1_24739)">
<path d="M81.63 27.73C78.19 27.73 76.51 24.81 75.03 22.23C73.63 19.8 72.43 17.7 70.11 17.7C67.79 17.7 66.58 19.8 65.19 22.23C63.71 24.81 62.03 27.73 58.59 27.73C55.15 27.73 53.47 24.81 51.99 22.23C50.59 19.8 49.39 17.7 47.07 17.7C44.75 17.7 43.54 19.8 42.15 22.23C40.67 24.81 38.99 27.73 35.55 27.73C32.11 27.73 30.43 24.81 28.95 22.23C27.55 19.8 26.35 17.7 24.03 17.7C21.71 17.7 20.5 19.8 19.11 22.23C17.63 24.81 15.95 27.73 12.51 27.73C9.07 27.73 7.39 24.81 5.91 22.23C4.51 19.8 3.31 17.7 0.99 17.7C0.43 17.7 0 17.27 0 16.74C0 16.21 0.43 15.77 0.97 15.77C4.41 15.77 6.09 18.69 7.57 21.27C8.97 23.7 10.17 25.8 12.49 25.8C14.81 25.8 16.02 23.7 17.41 21.27C18.89 18.69 20.57 15.77 24.01 15.77C27.45 15.77 29.13 18.69 30.61 21.27C32.01 23.7 33.21 25.8 35.53 25.8C37.85 25.8 39.06 23.7 40.45 21.27C41.93 18.69 43.61 15.77 47.05 15.77C50.49 15.77 52.17 18.69 53.65 21.27C55.05 23.7 56.25 25.8 58.57 25.8C60.89 25.8 62.1 23.7 63.49 21.27C64.97 18.69 66.65 15.77 70.09 15.77C73.53 15.77 75.21 18.69 76.69 21.27C78.09 23.7 79.29 25.8 81.61 25.8C83.93 25.8 85.14 23.7 86.53 21.27C88.01 18.69 89.69 15.77 93.13 15.77C93.66 15.77 94.1 16.2 94.1 16.74C94.1 17.27 93.67 17.71 93.13 17.71C90.81 17.71 89.6 19.81 88.21 22.24C86.75 24.81 85.07 27.73 81.63 27.73Z" fill="#F8CD53"/>
<path d="M81.63 11.96C78.19 11.96 76.51 9.04 75.03 6.46C73.63 4.03 72.43 1.93 70.11 1.93C67.79 1.93 66.58 4.03 65.19 6.46C63.71 9.04 62.03 11.96 58.59 11.96C55.15 11.96 53.47 9.04 51.99 6.46C50.59 4.03 49.39 1.93 47.07 1.93C44.75 1.93 43.54 4.03 42.15 6.46C40.67 9.04 38.99 11.96 35.55 11.96C32.11 11.96 30.43 9.04 28.95 6.46C27.55 4.03 26.35 1.93 24.03 1.93C21.71 1.93 20.5 4.03 19.11 6.46C17.63 9.04 15.95 11.96 12.51 11.96C9.07 11.96 7.39 9.04 5.91 6.46C4.51 4.03 3.31 1.93 0.99 1.93C0.43 1.93 0 1.5 0 0.97C0 0.44 0.43 0 0.97 0C4.41 0 6.09 2.92 7.57 5.5C8.97 7.93 10.17 10.03 12.49 10.03C14.81 10.03 16.02 7.93 17.41 5.5C18.9 2.92 20.57 0 24.01 0C27.45 0 29.13 2.92 30.61 5.5C32.01 7.93 33.21 10.03 35.53 10.03C37.85 10.03 39.06 7.93 40.45 5.5C41.93 2.92 43.61 0 47.05 0C50.49 0 52.17 2.92 53.65 5.5C55.05 7.93 56.25 10.03 58.57 10.03C60.89 10.03 62.1 7.93 63.49 5.5C64.97 2.92 66.65 0 70.09 0C73.53 0 75.21 2.92 76.69 5.5C78.09 7.93 79.29 10.03 81.61 10.03C83.93 10.03 85.14 7.93 86.53 5.5C88.01 2.92 89.69 0 93.13 0C93.66 0 94.1 0.43 94.1 0.97C94.1 1.51 93.67 1.94 93.13 1.94C90.81 1.94 89.6 4.04 88.21 6.47C86.75 9.04 85.07 11.96 81.63 11.96Z" fill="#F8CD53"/>
</g>
<defs>
<clipPath id="clip0_1_24739">
<rect width="94.12" height="27.73" fill="white"/>
</clipPath>
</defs>
</svg>
