<svg width="93" height="99" viewBox="0 0 93 99" fill="none" xmlns="http://www.w3.org/2000/svg">
<path fill-rule="evenodd" clip-rule="evenodd" d="M3.86185 1.1972C2.60505 1.549 1.68013 2.53214 1.3787 3.83668C1.30896 4.13853 1.30567 4.22564 1.34286 4.78047C1.38861 5.46299 1.45783 5.71615 1.73742 6.22341C2.49656 7.60063 4.09651 8.29808 5.62605 7.91859C6.05829 7.81135 6.19035 7.66749 6.08388 7.42002C6.01024 7.24892 5.87001 7.21537 5.56737 7.29643C5.24378 7.38313 4.71625 7.4191 4.4041 7.37573C3.8305 7.29608 3.38031 7.08661 2.90798 6.67961C2.61884 6.43045 2.53606 6.33183 2.34763 6.01208C2.08994 5.57477 1.98858 5.25269 1.95371 4.76022C1.89614 3.94703 2.10911 3.30802 2.64235 2.69397C3.17883 2.07623 3.77981 1.77827 4.60422 1.72139C5.09662 1.68742 5.41632 1.74001 5.88806 1.93247C6.24017 2.07612 6.33646 2.13671 6.65391 2.41427C6.95663 2.679 7.04954 2.78751 7.21265 3.06685C7.32023 3.25114 7.45077 3.53137 7.50276 3.68964C7.61635 4.0355 7.66247 4.57127 7.6107 4.94331C7.57108 5.22811 7.60105 5.33676 7.74268 5.42164C7.87038 5.49817 8.02725 5.47579 8.12117 5.36764C8.18189 5.29772 8.21115 5.18543 8.24117 4.90754C8.33447 4.04365 8.06394 3.09289 7.53335 2.4202C6.95141 1.68236 6.12149 1.21209 5.20188 1.09909C4.86408 1.05757 4.18232 1.10748 3.86185 1.1972ZM16.0215 0.321662C15.7259 0.392504 15.2029 0.619878 14.9413 0.791338C13.7096 1.59885 13.1091 3.12176 13.4655 4.53432C13.5744 4.96618 13.7562 5.12799 13.9858 4.99736C14.155 4.90111 14.1805 4.78299 14.0959 4.48819C14.0042 4.16871 13.9662 3.64293 14.0114 3.31832C14.0911 2.74513 14.3008 2.29524 14.7081 1.82321C14.9575 1.53425 15.0562 1.45151 15.3762 1.26319C15.8181 1.0031 16.1372 0.903987 16.6451 0.86892C17.4503 0.813364 18.1492 1.05209 18.7377 1.58367C19.3159 2.10596 19.6112 2.71127 19.6678 3.48999C19.7046 3.99743 19.6513 4.32699 19.4559 4.80085C19.3144 5.14396 19.2464 5.25326 18.9952 5.54067C18.5849 6.01015 18.1688 6.28096 17.6121 6.44063C17.3039 6.52904 16.7736 6.56756 16.4578 6.52447C16.2876 6.50124 16.1843 6.50442 16.1129 6.53508C15.99 6.58793 15.9046 6.76672 15.9444 6.88807C15.9979 7.05126 16.126 7.11418 16.4782 7.15017C18.2856 7.33487 19.9056 6.11936 20.2553 4.31621C20.3226 3.96886 20.3104 3.31072 20.2301 2.95942C20.1397 2.5642 19.9005 2.02437 19.6667 1.68774C19.4001 1.30395 18.8532 0.830436 18.429 0.616179C18.0801 0.439926 17.5038 0.273369 17.129 0.240462C16.8417 0.215238 16.2999 0.254976 16.0215 0.321662ZM4.26031 3.22871C3.98391 3.34218 3.83335 3.45624 3.65087 3.69037C3.42947 3.97448 3.35473 4.24248 3.3819 4.65472C3.40165 4.95425 3.41766 5.01253 3.53911 5.228C3.73697 5.57891 3.93499 5.72945 4.51575 5.97028C5.15692 6.23621 5.79534 6.59802 6.34417 7.00645C7.17173 7.62231 7.62411 8.15631 7.9561 8.90909C8.16167 9.37521 8.24398 9.73393 8.28801 10.3558C8.34392 11.1455 8.26089 11.69 7.9839 12.3501C7.56856 13.3399 6.47957 14.4537 5.16667 15.2316C4.63169 15.5486 4.45394 15.7284 4.31262 16.0957C3.84079 17.322 5.1709 18.4754 6.31938 17.8358C6.66709 17.6422 6.82332 17.4377 7.05409 16.874C7.61736 15.4981 8.58751 14.231 9.49472 13.6864C10.6297 13.005 12.0869 12.8765 13.3162 13.3494C13.7639 13.5217 14.1787 13.7764 14.5935 14.134C15.2743 14.7208 15.8681 15.4345 16.3267 16.2175C16.6353 16.7441 16.817 16.9225 17.1955 17.0699C17.4261 17.1597 17.4861 17.1673 17.7856 17.1447C18.2439 17.11 18.479 16.9958 18.7611 16.6711C19.0431 16.3463 19.1231 16.0976 19.0929 15.6393C19.0731 15.3396 19.0572 15.2816 18.9352 15.0652C18.7412 14.721 18.533 14.5631 17.9585 14.3239C16.8168 13.8486 15.66 13.0419 15.0854 12.3205C13.9931 10.9492 13.8526 8.9646 14.7408 7.45311C15.208 6.65788 16.2397 5.6963 17.303 5.0649C17.8381 4.74715 18.0219 4.56142 18.1655 4.19338C18.2558 3.96194 18.2634 3.9023 18.2407 3.60275C18.2061 3.14481 18.0919 2.90988 17.7669 2.62804C17.4419 2.34625 17.193 2.26635 16.7344 2.29658C16.4347 2.31635 16.3764 2.33235 16.1607 2.45374C15.8105 2.65098 15.6588 2.84972 15.4196 3.42486C14.8339 4.83332 13.8838 6.06758 12.9617 6.61793C12.3468 6.98496 11.819 7.14382 11.0287 7.19976C10.2385 7.25571 9.69361 7.1728 9.03309 6.89607C8.04198 6.48087 6.90646 5.37115 6.14806 4.07654C5.83962 3.55004 5.65672 3.37052 5.28229 3.2267C4.95553 3.10117 4.56917 3.10195 4.26031 3.22871ZM5.07082 3.80524C5.26494 3.87863 5.37541 3.98322 5.49286 4.20478C5.74005 4.67112 5.4359 5.2433 4.89219 5.33487C4.72799 5.36254 4.66391 5.35346 4.48618 5.27738C3.99104 5.0654 3.83242 4.49113 4.15266 4.07001C4.36009 3.79731 4.75136 3.68448 5.07082 3.80524ZM17.0886 2.94186C17.7983 3.18079 17.8102 4.19541 17.1064 4.44713C16.5349 4.65155 15.9357 4.13194 16.0577 3.53773C16.1525 3.07592 16.6436 2.79206 17.0886 2.94186ZM6.30991 5.42448C6.80864 6.06872 7.68044 6.86581 8.23431 7.18395C9.13184 7.69954 10.0175 7.89943 11.073 7.8247C12.1285 7.74998 12.9771 7.4273 13.7931 6.79041C14.2966 6.3974 15.0474 5.48543 15.4504 4.77735C15.5445 4.61202 15.633 4.47596 15.6472 4.47496C15.6614 4.47395 15.6851 4.50383 15.7 4.54134C15.7316 4.62077 16.1363 4.96143 16.1942 4.95732C16.272 4.95182 16.2364 5.02803 16.1313 5.09217C15.6446 5.389 14.5307 6.57516 14.2027 7.14579C13.6844 8.04765 13.4864 8.92338 13.5614 9.98249C13.6364 11.0418 13.9561 11.8817 14.5962 12.7005C14.9894 13.2036 15.9019 13.9538 16.6105 14.3564C16.7759 14.4504 16.9121 14.5389 16.9131 14.5531C16.9141 14.5673 16.8829 14.5915 16.8438 14.607C16.8047 14.6226 16.6828 14.7484 16.5729 14.8868L16.373 15.1383L16.1631 14.8672C15.6661 14.2253 14.7934 13.4277 14.2405 13.1101C13.3395 12.5925 12.4588 12.3934 11.4017 12.4682C10.3447 12.543 9.50084 12.8643 8.68173 13.5036C8.18022 13.8951 7.42751 14.8085 7.02786 15.5106L6.8602 15.8051L6.57753 15.556C6.42204 15.4189 6.28591 15.299 6.27499 15.2896C6.26408 15.2801 6.37428 15.1794 6.51989 15.0658C7.16619 14.5614 7.95652 13.6965 8.2719 13.1483C8.79017 12.2474 8.9884 11.3708 8.9134 10.3116C8.83841 9.25226 8.51865 8.41234 7.87864 7.59352C7.48606 7.09124 6.57294 6.3403 5.86692 5.93905L5.56874 5.76962L5.78977 5.53642C5.91135 5.40818 6.01889 5.26981 6.02877 5.22895C6.03865 5.18809 6.05828 5.15383 6.07248 5.15283C6.08663 5.15182 6.19347 5.27405 6.30991 5.42448ZM4.82836 13.211C4.71987 13.237 4.48458 13.3191 4.30554 13.3935C3.20146 13.8522 2.43851 14.8061 2.20796 16.0159C2.13603 16.3935 2.19606 17.2494 2.32102 17.627C2.52905 18.2557 2.88605 18.7967 3.36614 19.2108C4.71132 20.3709 6.69431 20.3373 8.00047 19.1323C8.73032 18.4589 9.12309 17.5285 9.10578 16.5139C9.09797 16.0574 8.98147 15.522 8.85899 15.3797C8.75022 15.2534 8.6174 15.2236 8.48901 15.2967C8.31982 15.3929 8.29429 15.5111 8.37889 15.8058C8.47064 16.1253 8.50861 16.6511 8.46343 16.9757C8.38376 17.5482 8.17454 17.9975 7.76642 18.4727C7.5147 18.7658 7.42086 18.8445 7.09839 19.0332C6.88554 19.1577 6.61258 19.284 6.46758 19.3251C6.16449 19.4108 5.59199 19.4587 5.28021 19.4243C4.20619 19.3059 3.20393 18.4538 2.90185 17.4021C2.81139 17.0871 2.77198 16.5138 2.81727 16.1706C2.83881 16.0071 2.91995 15.7328 3.01738 15.4937C3.15853 15.1473 3.22225 15.0449 3.47776 14.7539C3.89108 14.2832 4.30674 14.0129 4.8627 13.8534C5.16563 13.7665 5.69297 13.7278 6.02554 13.768C6.22425 13.7921 6.29883 13.7874 6.38078 13.746C6.5777 13.6463 6.58981 13.3812 6.40403 13.2373C6.23402 13.1056 5.33132 13.0905 4.82836 13.211ZM16.8171 12.3803C16.4186 12.4817 16.2875 12.6336 16.3909 12.874C16.4646 13.0451 16.6048 13.0787 16.9074 12.9976C17.231 12.9109 17.7585 12.8749 18.0707 12.9183C18.6452 12.9981 19.0958 13.208 19.5653 13.6145C20.1453 14.1168 20.4652 14.7559 20.52 15.5221C20.5505 15.9494 20.5222 16.2397 20.418 16.5672C20.1242 17.4903 19.3902 18.2195 18.4968 18.4759C18.1822 18.5662 17.6084 18.6057 17.2644 18.5609C16.8859 18.5115 16.2764 18.2539 15.9697 18.0136C15.1429 17.3659 14.724 16.3572 14.8641 15.3507C14.9037 15.0659 14.8737 14.9573 14.7321 14.8724C14.4934 14.7293 14.297 14.8835 14.2415 15.2577C14.1887 15.6127 14.2592 16.4704 14.366 16.7742C14.7386 17.8339 15.4226 18.5748 16.3811 18.957C16.8871 19.1587 17.2164 19.2179 17.7549 19.2039C18.2634 19.1907 18.6278 19.1198 19.0064 18.9603C20.0892 18.5044 20.8274 17.6202 21.0961 16.4574C21.1658 16.1555 21.1691 16.0684 21.1319 15.5136C21.0862 14.831 21.017 14.5779 20.7374 14.0706C19.9746 12.6868 18.3558 11.9889 16.8171 12.3803ZM6.002 15.8946C6.30589 16.0448 6.48632 16.4194 6.41713 16.7563C6.26948 17.4755 5.29369 17.6208 4.93787 16.9765C4.71766 16.5777 4.89513 16.0582 5.3187 15.8617C5.49303 15.7808 5.80191 15.7957 6.002 15.8946ZM17.8765 14.9677C18.47 15.1005 18.6876 15.8638 18.2564 16.2998C17.8842 16.6759 17.2929 16.5999 17.0132 16.1399C16.9121 15.9738 16.8947 15.9133 16.8991 15.7429C16.9065 15.4541 17.0397 15.2196 17.2805 15.0714C17.486 14.9449 17.6485 14.9166 17.8765 14.9677Z" fill="white"/>
<path fill-rule="evenodd" clip-rule="evenodd" d="M36.6822 60.0371C35.1608 60.463 34.0412 61.6531 33.6763 63.2323C33.5919 63.5977 33.5879 63.7031 33.6329 64.3748C33.6883 65.201 33.7721 65.5074 34.1105 66.1215C35.0295 67.7886 36.9663 68.6329 38.8178 68.1735C39.341 68.0437 39.5009 67.8696 39.372 67.57C39.2829 67.3629 39.1131 67.3223 38.7468 67.4204C38.3551 67.5254 37.7165 67.5689 37.3386 67.5164C36.6442 67.42 36.0993 67.1664 35.5275 66.6737C35.1775 66.3721 35.0773 66.2527 34.8492 65.8657C34.5373 65.3363 34.4146 64.9464 34.3723 64.3503C34.3027 63.3659 34.5605 62.5923 35.206 61.849C35.8554 61.1012 36.5829 60.7405 37.5809 60.6717C38.1769 60.6305 38.5639 60.6942 39.135 60.9272C39.5612 61.1011 39.6778 61.1744 40.0621 61.5104C40.4285 61.8309 40.541 61.9622 40.7384 62.3004C40.8687 62.5235 41.0267 62.8627 41.0896 63.0543C41.2271 63.473 41.283 64.1215 41.2203 64.5719C41.1723 64.9166 41.2086 65.0482 41.38 65.1509C41.5346 65.2436 41.7245 65.2165 41.8382 65.0855C41.9117 65.0009 41.9471 64.865 41.9835 64.5286C42.0964 63.4828 41.7689 62.3319 41.1266 61.5176C40.4222 60.6244 39.4175 60.0551 38.3043 59.9184C37.8954 59.8681 37.0701 59.9285 36.6822 60.0371ZM51.4017 58.9773C51.0439 59.063 50.4108 59.3383 50.0942 59.5458C48.6032 60.5233 47.8763 62.3669 48.3076 64.0768C48.4396 64.5996 48.6596 64.7954 48.9375 64.6373C49.1423 64.5208 49.1732 64.3778 49.0708 64.021C48.9597 63.6342 48.9138 62.9977 48.9685 62.6048C49.065 61.9109 49.3188 61.3663 49.8119 60.7949C50.1138 60.4451 50.2333 60.345 50.6206 60.117C51.1556 59.8022 51.5418 59.6822 52.1566 59.6397C53.1314 59.5725 53.9774 59.8615 54.6898 60.5049C55.3897 61.1372 55.7472 61.8699 55.8157 62.8126C55.8603 63.4269 55.7958 63.8258 55.5592 64.3994C55.3879 64.8148 55.3056 64.9471 55.0015 65.295C54.5049 65.8633 54.0011 66.1911 53.3272 66.3844C52.9542 66.4915 52.3122 66.5381 51.93 66.4859C51.7239 66.4578 51.5988 66.4617 51.5124 66.4988C51.3637 66.5627 51.2603 66.7792 51.3084 66.9261C51.3732 67.1236 51.5283 67.1998 51.9546 67.2433C54.1425 67.4669 56.1036 65.9955 56.5269 63.8128C56.6084 63.3923 56.5936 62.5956 56.4964 62.1703C56.387 61.6919 56.0975 61.0384 55.8144 60.6309C55.4917 60.1663 54.8296 59.5931 54.3162 59.3338C53.8938 59.1204 53.1961 58.9188 52.7424 58.879C52.3947 58.8484 51.7388 58.8965 51.4017 58.9773ZM37.1645 62.4963C36.83 62.6337 36.6477 62.7718 36.4268 63.0552C36.1588 63.3991 36.0683 63.7235 36.1012 64.2225C36.1251 64.5851 36.1445 64.6557 36.2915 64.9165C36.531 65.3413 36.7707 65.5235 37.4738 65.8151C38.2499 66.137 39.0227 66.575 39.6871 67.0694C40.6889 67.8149 41.2365 68.4613 41.6384 69.3726C41.8872 69.9368 41.9869 70.3711 42.0402 71.1239C42.1079 72.0798 42.0073 72.7389 41.672 73.538C41.1693 74.7362 39.851 76.0845 38.2617 77.0261C37.6141 77.4098 37.3989 77.6275 37.2279 78.0722C36.6567 79.5566 38.2668 80.9528 39.6571 80.1786C40.078 79.9443 40.2671 79.6967 40.5465 79.0143C41.2283 77.3488 42.4027 75.8149 43.5009 75.1556C44.8749 74.3308 46.6389 74.1752 48.1269 74.7477C48.6689 74.9562 49.171 75.2646 49.6732 75.6975C50.4973 76.4078 51.216 77.2718 51.7713 78.2196C52.1447 78.8571 52.3647 79.0729 52.823 79.2515C53.1021 79.3602 53.1747 79.3694 53.5373 79.342C54.0921 79.3 54.3767 79.1618 54.7181 78.7686C55.0595 78.3755 55.1563 78.0744 55.1198 77.5197C55.0958 77.1568 55.0765 77.0866 54.9289 76.8247C54.694 76.4081 54.442 76.2169 53.7466 75.9273C52.3645 75.352 50.9642 74.3755 50.2686 73.5021C48.9463 71.8422 48.7762 69.4398 49.8514 67.6101C50.417 66.6474 51.6659 65.4834 52.953 64.7191C53.6008 64.3344 53.8233 64.1096 53.9971 63.6641C54.1064 63.3839 54.1156 63.3117 54.0882 62.9491C54.0463 62.3948 53.908 62.1104 53.5146 61.7692C53.1212 61.4281 52.8199 61.3314 52.2648 61.3679C51.9019 61.3919 51.8313 61.4113 51.5703 61.5582C51.1463 61.797 50.9627 62.0375 50.6732 62.7338C49.9642 64.4387 48.814 65.9328 47.6978 66.5991C46.9534 67.0434 46.3145 67.2357 45.3579 67.3034C44.4013 67.3711 43.7417 67.2707 42.9421 66.9358C41.7424 66.4331 40.3678 65.0898 39.4497 63.5226C39.0763 62.8853 38.8549 62.668 38.4017 62.4939C38.0061 62.3419 37.5384 62.3429 37.1645 62.4963ZM38.1457 63.1942C38.3807 63.2831 38.5144 63.4097 38.6566 63.6779C38.9558 64.2424 38.5876 64.935 37.9295 65.0459C37.7307 65.0794 37.6531 65.0684 37.438 64.9763C36.8386 64.7197 36.6466 64.0245 37.0342 63.5147C37.2853 63.1846 37.759 63.048 38.1457 63.1942ZM52.6935 62.1491C53.5526 62.4383 53.5671 63.6665 52.7151 63.9712C52.0233 64.2187 51.2979 63.5897 51.4456 62.8704C51.5603 62.3114 52.1549 61.9677 52.6935 62.1491ZM39.6456 65.1544C40.2494 65.9342 41.3047 66.8991 41.9752 67.2842C43.0617 67.9084 44.1338 68.1503 45.4115 68.0599C46.6892 67.9694 47.7165 67.5788 48.7042 66.8078C49.3137 66.3321 50.2226 65.2281 50.7104 64.371C50.8243 64.1708 50.9315 64.0061 50.9486 64.0049C50.9658 64.0037 50.9946 64.0399 51.0126 64.0853C51.0508 64.1814 51.5407 64.5938 51.6109 64.5888C51.705 64.5822 51.662 64.6744 51.5346 64.7521C50.9455 65.1114 49.5971 66.5473 49.2001 67.238C48.5727 68.3298 48.333 69.3899 48.4238 70.6719C48.5145 71.9542 48.9016 72.971 49.6764 73.9622C50.1524 74.5712 51.257 75.4793 52.1147 75.9667C52.315 76.0805 52.4798 76.1876 52.481 76.2047C52.4823 76.2219 52.4445 76.2513 52.3972 76.2701C52.3499 76.2889 52.2023 76.4413 52.0692 76.6087L51.8272 76.9132L51.5732 76.585C50.9715 75.8079 49.9152 74.8425 49.2458 74.458C48.1551 73.8315 47.089 73.5904 45.8094 73.681C44.5299 73.7715 43.5083 74.1604 42.5168 74.9344C41.9097 75.4083 40.9985 76.5139 40.5147 77.3639L40.3118 77.7204L39.9696 77.4188C39.7814 77.2529 39.6166 77.1078 39.6034 77.0963C39.5902 77.0848 39.7236 76.9629 39.8998 76.8254C40.6822 76.2149 41.6389 75.1678 42.0207 74.5042C42.6481 73.4137 42.888 72.3526 42.7972 71.0703C42.7064 69.788 42.3194 68.7712 41.5446 67.78C41.0694 67.172 39.964 66.263 39.1094 65.7773L38.7484 65.5722L39.016 65.2899C39.1632 65.1346 39.2933 64.9671 39.3053 64.9177C39.3173 64.8682 39.341 64.8267 39.3582 64.8255C39.3754 64.8243 39.5047 64.9723 39.6456 65.1544ZM37.8522 74.5802C37.7209 74.6116 37.436 74.7111 37.2193 74.8011C35.8828 75.3563 34.9592 76.511 34.6801 77.9755C34.593 78.4327 34.6657 79.4687 34.817 79.9258C35.0688 80.6869 35.501 81.3418 36.0821 81.843C37.7105 83.2473 40.111 83.2067 41.6921 81.748C42.5756 80.9329 43.0511 79.8066 43.0301 78.5784C43.0207 78.0257 42.8796 77.3776 42.7314 77.2054C42.5997 77.0526 42.4389 77.0165 42.2835 77.1049C42.0787 77.2214 42.0478 77.3644 42.1502 77.7213C42.2613 78.108 42.3072 78.7445 42.2525 79.1374C42.1561 79.8304 41.9028 80.3743 41.4088 80.9496C41.1041 81.3044 40.9905 81.3997 40.6001 81.6281C40.3424 81.7788 40.012 81.9317 39.8365 81.9814C39.4696 82.0852 38.7766 82.1432 38.3992 82.1016C37.099 81.9582 35.8858 80.9267 35.5201 79.6536C35.4106 79.2723 35.3629 78.5782 35.4177 78.1628C35.4438 77.9649 35.542 77.6328 35.6599 77.3434C35.8308 76.9241 35.9079 76.8001 36.2172 76.4478C36.7176 75.878 37.2207 75.5508 37.8938 75.3578C38.2605 75.2526 38.8988 75.2057 39.3014 75.2544C39.5419 75.2836 39.6322 75.2779 39.7314 75.2277C39.9698 75.1071 39.9845 74.7862 39.7596 74.612C39.5538 74.4525 38.461 74.4343 37.8522 74.5802ZM52.3648 73.5746C51.8824 73.6973 51.7237 73.8812 51.849 74.1722C51.9381 74.3793 52.1079 74.42 52.4742 74.3218C52.8659 74.2169 53.5045 74.1733 53.8824 74.2258C54.5778 74.3224 55.1232 74.5765 55.6916 75.0686C56.3938 75.6766 56.781 76.4503 56.8473 77.3778C56.8843 77.895 56.85 78.2464 56.7238 78.643C56.3682 79.7603 55.4797 80.6431 54.3982 80.9534C54.0174 81.0627 53.3227 81.1106 52.9064 81.0563C52.4481 80.9965 51.7103 80.6847 51.3391 80.3938C50.3382 79.6098 49.8312 78.3887 50.0007 77.1703C50.0487 76.8256 50.0124 76.6941 49.8409 76.5913C49.552 76.4181 49.3143 76.6048 49.247 77.0577C49.1831 77.4874 49.2684 78.5257 49.3977 78.8935C49.8488 80.1762 50.6768 81.0732 51.837 81.5358C52.4496 81.78 52.8482 81.8517 53.5001 81.8347C54.1156 81.8187 54.5568 81.7329 55.0151 81.5398C56.3258 80.9879 57.2194 79.9175 57.5447 78.5099C57.6291 78.1445 57.6331 78.0391 57.5881 77.3675C57.5327 76.5413 57.4489 76.2348 57.1105 75.6208C56.1871 73.9456 54.2275 73.1007 52.3648 73.5746ZM39.2729 77.8287C39.6408 78.0106 39.8592 78.4639 39.7754 78.8718C39.5967 79.7425 38.4155 79.9183 37.9847 79.1383C37.7182 78.6556 37.933 78.0268 38.4458 77.7889C38.6568 77.691 39.0307 77.709 39.2729 77.8287ZM53.6473 76.7066C54.3658 76.8675 54.6292 77.7914 54.1071 78.3192C53.6567 78.7745 52.9409 78.6825 52.6022 78.1257C52.4799 77.9245 52.4588 77.8513 52.4641 77.6451C52.4731 77.2955 52.6343 77.0116 52.9259 76.8322C53.1746 76.679 53.3713 76.6448 53.6473 76.7066Z" fill="white"/>
<path fill-rule="evenodd" clip-rule="evenodd" d="M2.62149 42.385C1.43083 42.7183 0.554591 43.6497 0.269028 44.8855C0.202959 45.1715 0.199839 45.254 0.235076 45.7797C0.278419 46.4263 0.34399 46.6661 0.608865 47.1467C1.32805 48.4514 2.84379 49.1121 4.29284 48.7526C4.70232 48.651 4.82743 48.5147 4.72657 48.2803C4.6568 48.1182 4.52395 48.0864 4.23724 48.1632C3.93069 48.2453 3.43092 48.2794 3.13519 48.2383C2.59178 48.1629 2.16529 47.9644 1.71782 47.5788C1.4439 47.3428 1.36547 47.2494 1.18696 46.9464C0.942833 46.5322 0.846808 46.227 0.813778 45.7605C0.759236 44.9901 0.96099 44.3847 1.46617 43.803C1.97441 43.2177 2.54376 42.9355 3.32478 42.8816C3.79127 42.8494 4.09414 42.8992 4.54105 43.0816C4.87463 43.2176 4.96585 43.275 5.2666 43.538C5.55339 43.7888 5.6414 43.8916 5.79592 44.1562C5.89785 44.3308 6.02152 44.5963 6.07077 44.7462C6.17838 45.0739 6.22208 45.5815 6.17303 45.9339C6.1355 46.2037 6.16389 46.3067 6.29806 46.3871C6.41904 46.4596 6.56766 46.4384 6.65663 46.3359C6.71416 46.2697 6.74188 46.1633 6.77031 45.9C6.85871 45.0816 6.60241 44.1809 6.09975 43.5436C5.54843 42.8446 4.76219 42.3991 3.89098 42.292C3.57096 42.2527 2.92509 42.3 2.62149 42.385ZM14.1411 41.5555C13.8611 41.6226 13.3656 41.838 13.1178 42.0005C11.9509 42.7655 11.3821 44.2083 11.7196 45.5465C11.8229 45.9556 11.9951 46.1089 12.2126 45.9851C12.3729 45.894 12.3971 45.7821 12.3169 45.5028C12.23 45.2001 12.194 44.702 12.2368 44.3945C12.3124 43.8514 12.511 43.4252 12.8969 42.978C13.1332 42.7043 13.2267 42.6259 13.5298 42.4475C13.9485 42.2011 14.2507 42.1072 14.7319 42.074C15.4947 42.0214 16.1569 42.2475 16.7144 42.7511C17.2622 43.2459 17.5419 43.8194 17.5955 44.5571C17.6304 45.0378 17.58 45.3501 17.3948 45.799C17.2608 46.124 17.1963 46.2276 16.9584 46.4999C16.5697 46.9446 16.1754 47.2012 15.648 47.3524C15.3561 47.4362 14.8536 47.4727 14.5545 47.4319C14.3933 47.4099 14.2954 47.4129 14.2278 47.4419C14.1113 47.492 14.0304 47.6614 14.0681 47.7763C14.1188 47.9309 14.2402 47.9905 14.5738 48.0246C16.2861 48.1996 17.8209 47.0481 18.1521 45.3398C18.2159 45.0108 18.2043 44.3873 18.1282 44.0545C18.0426 43.68 17.816 43.1686 17.5945 42.8497C17.3419 42.4861 16.8238 42.0375 16.422 41.8345C16.0914 41.6676 15.5454 41.5098 15.1903 41.4786C14.9182 41.4547 14.4049 41.4924 14.1411 41.5555ZM2.99897 44.3096C2.73713 44.4171 2.59449 44.5251 2.42161 44.7469C2.21186 45.0161 2.14105 45.27 2.1668 45.6605C2.18551 45.9443 2.20068 45.9995 2.31573 46.2036C2.50318 46.5361 2.69077 46.6787 3.24097 46.9069C3.8484 47.1588 4.45322 47.5016 4.97316 47.8885C5.75717 48.4719 6.18573 48.9778 6.50025 49.691C6.695 50.1326 6.77298 50.4724 6.81469 51.0616C6.86766 51.8097 6.789 52.3255 6.52658 52.9509C6.1331 53.8886 5.10143 54.9438 3.85763 55.6807C3.35081 55.981 3.18241 56.1514 3.04853 56.4994C2.60154 57.6611 3.86163 58.7538 4.94967 58.1479C5.27909 57.9645 5.42709 57.7707 5.64572 57.2367C6.17933 55.9332 7.09842 54.7328 7.95789 54.2168C9.03314 53.5713 10.4137 53.4496 11.5782 53.8976C12.0024 54.0608 12.3953 54.3022 12.7883 54.6409C13.4333 55.1968 13.9958 55.873 14.4303 56.6147C14.7226 57.1137 14.8948 57.2826 15.2534 57.4223C15.4718 57.5074 15.5287 57.5146 15.8124 57.4931C16.2466 57.4603 16.4693 57.3521 16.7366 57.0444C17.0037 56.7367 17.0795 56.5011 17.0509 56.067C17.0322 55.783 17.0171 55.7281 16.9015 55.5231C16.7177 55.197 16.5205 55.0474 15.9762 54.8208C14.8946 54.3705 13.7987 53.6063 13.2543 52.9228C12.2195 51.6237 12.0864 49.7436 12.9278 48.3116C13.3705 47.5583 14.3478 46.6473 15.3552 46.0491C15.8621 45.7481 16.0363 45.5721 16.1723 45.2235C16.2578 45.0042 16.2651 44.9477 16.2436 44.6639C16.2108 44.2301 16.1025 44.0075 15.7947 43.7405C15.4868 43.4736 15.251 43.3979 14.8166 43.4265C14.5326 43.4452 14.4773 43.4604 14.273 43.5754C13.9412 43.7623 13.7975 43.9505 13.571 44.4954C13.0161 45.8297 12.116 46.999 11.2424 47.5204C10.6598 47.8681 10.1598 48.0186 9.41117 48.0716C8.66252 48.1246 8.14631 48.0461 7.52055 47.7839C6.58161 47.3906 5.50585 46.3393 4.78737 45.1128C4.49516 44.614 4.32189 44.4439 3.96717 44.3077C3.6576 44.1887 3.29158 44.1895 2.99897 44.3096ZM3.76683 44.8558C3.95073 44.9253 4.05538 45.0244 4.16665 45.2343C4.40083 45.6761 4.11269 46.2181 3.5976 46.3049C3.44204 46.3311 3.38133 46.3225 3.21295 46.2504C2.74388 46.0496 2.5936 45.5056 2.89699 45.1066C3.0935 44.8482 3.46418 44.7414 3.76683 44.8558ZM15.1521 44.0378C15.8244 44.2642 15.8357 45.2254 15.169 45.4639C14.6275 45.6575 14.0598 45.1653 14.1754 44.6023C14.2652 44.1648 14.7305 43.8959 15.1521 44.0378ZM4.9407 46.3898C5.41318 47.0001 6.23909 47.7552 6.76381 48.0566C7.6141 48.5451 8.45314 48.7345 9.45308 48.6637C10.453 48.5929 11.257 48.2872 12.03 47.6838C12.507 47.3115 13.2183 46.4475 13.6001 45.7767C13.6892 45.6201 13.7731 45.4912 13.7865 45.4902C13.8 45.4893 13.8225 45.5176 13.8366 45.5531C13.8665 45.6284 14.2499 45.9511 14.3048 45.9472C14.3785 45.942 14.3448 46.0142 14.2451 46.075C13.7841 46.3562 12.7288 47.4799 12.4181 48.0205C11.9271 48.8749 11.7395 49.7045 11.8105 50.7079C11.8816 51.7114 12.1845 52.5072 12.7908 53.2829C13.1634 53.7595 14.0279 54.4702 14.6991 54.8516C14.8558 54.9407 14.9849 55.0245 14.9858 55.0379C14.9868 55.0514 14.9572 55.0743 14.9202 55.089C14.8832 55.1037 14.7676 55.223 14.6635 55.3541L14.4741 55.5924L14.2753 55.3355C13.8044 54.7274 12.9777 53.9718 12.4539 53.6709C11.6003 53.1806 10.7659 52.9919 9.76453 53.0628C8.76315 53.1337 7.96369 53.438 7.18768 54.0437C6.71257 54.4146 5.99948 55.2799 5.62086 55.9451L5.46202 56.2241L5.19424 55.988C5.04693 55.8582 4.91796 55.7446 4.90762 55.7357C4.89728 55.7267 5.00168 55.6313 5.13963 55.5236C5.75192 55.0458 6.50065 54.2264 6.79943 53.7071C7.29042 52.8536 7.47821 52.0232 7.40717 51.0196C7.33612 50.0161 7.03319 49.2204 6.42687 48.4447C6.05494 47.9688 5.18989 47.2574 4.52102 46.8773L4.23854 46.7168L4.44793 46.4958C4.56312 46.3743 4.665 46.2432 4.67436 46.2045C4.68372 46.1658 4.70231 46.1334 4.71576 46.1324C4.72917 46.1315 4.83039 46.2473 4.9407 46.3898ZM3.53713 53.7665C3.43435 53.7911 3.21144 53.8689 3.04182 53.9394C1.99585 54.3739 1.27305 55.2776 1.05464 56.4237C0.986494 56.7815 1.04337 57.5923 1.16175 57.9501C1.35883 58.5457 1.69704 59.0582 2.15186 59.4505C3.42624 60.5495 5.30486 60.5177 6.54229 59.3761C7.23372 58.7382 7.60581 57.8568 7.58942 56.8955C7.58202 56.463 7.47165 55.9558 7.35562 55.8211C7.25257 55.7014 7.12675 55.6732 7.00511 55.7424C6.84483 55.8336 6.82064 55.9455 6.90079 56.2248C6.98771 56.5274 7.02368 57.0255 6.98088 57.3331C6.9054 57.8754 6.70719 58.3011 6.32055 58.7513C6.08208 59.0289 5.99318 59.1035 5.68768 59.2823C5.48603 59.4002 5.22744 59.5199 5.09007 59.5587C4.80293 59.64 4.26056 59.6854 3.96519 59.6528C2.9477 59.5406 1.99819 58.7333 1.71201 57.737C1.62631 57.4386 1.58898 56.8954 1.63188 56.5703C1.65229 56.4154 1.72916 56.1555 1.82146 55.929C1.95519 55.6008 2.01554 55.5039 2.25761 55.2282C2.64918 54.7822 3.04296 54.5262 3.56966 54.3751C3.85665 54.2927 4.35623 54.2561 4.6713 54.2942C4.85955 54.317 4.9302 54.3126 5.00784 54.2733C5.19439 54.1789 5.20586 53.9277 5.02987 53.7914C4.8688 53.6666 4.01362 53.6524 3.53713 53.7665ZM14.8948 52.9795C14.5173 53.0756 14.3931 53.2195 14.4911 53.4472C14.5609 53.6093 14.6937 53.6411 14.9805 53.5643C15.287 53.4822 15.7868 53.4481 16.0825 53.4892C16.6267 53.5648 17.0536 53.7637 17.4984 54.1488C18.0479 54.6246 18.351 55.2301 18.4029 55.956C18.4318 56.3607 18.405 56.6358 18.3062 56.9461C18.0279 57.8205 17.3326 58.5114 16.4862 58.7543C16.1881 58.8398 15.6445 58.8773 15.3187 58.8348C14.96 58.788 14.3826 58.5439 14.0921 58.3163C13.3088 57.7027 12.912 56.7471 13.0447 55.7936C13.0822 55.5238 13.0538 55.4209 12.9196 55.3404C12.6935 55.2049 12.5074 55.351 12.4548 55.7054C12.4048 56.0418 12.4716 56.8543 12.5728 57.1422C12.9258 58.146 13.5738 58.848 14.4818 59.21C14.9612 59.4012 15.2731 59.4573 15.7833 59.444C16.265 59.4314 16.6103 59.3643 16.969 59.2132C17.9948 58.7812 18.6941 57.9436 18.9487 56.842C19.0147 56.556 19.0179 56.4735 18.9826 55.9479C18.9393 55.3013 18.8737 55.0614 18.6088 54.5809C17.8862 53.2699 16.3526 52.6087 14.8948 52.9795ZM4.649 56.3089C4.93689 56.4512 5.10782 56.806 5.04227 57.1252C4.90239 57.8066 3.97796 57.9442 3.64087 57.3338C3.43225 56.956 3.60039 56.4639 4.00166 56.2777C4.16682 56.2011 4.45943 56.2152 4.649 56.3089ZM15.8986 55.4307C16.4608 55.5566 16.667 56.2796 16.2584 56.6927C15.9059 57.0491 15.3457 56.977 15.0806 56.5413C14.9849 56.3838 14.9684 56.3265 14.9726 56.1652C14.9796 55.8915 15.1058 55.6694 15.3339 55.5289C15.5286 55.4091 15.6825 55.3823 15.8986 55.4307Z" fill="white"/>
<path fill-rule="evenodd" clip-rule="evenodd" d="M74.2607 83.42C73.2685 83.6978 72.5383 84.4739 72.3004 85.5038C72.2453 85.7421 72.2427 85.8109 72.2721 86.2489C72.3082 86.7878 72.3628 86.9876 72.5836 87.3881C73.1829 88.4754 74.446 89.026 75.6535 88.7264C75.9948 88.6417 76.099 88.5281 76.015 88.3328C75.9568 88.1977 75.8461 88.1712 75.6072 88.2352C75.3517 88.3037 74.9353 88.3321 74.6888 88.2978C74.236 88.2349 73.8806 88.0696 73.5077 87.7482C73.2794 87.5515 73.2141 87.4737 73.0653 87.2212C72.8619 86.876 72.7818 86.6217 72.7543 86.2329C72.7089 85.5909 72.877 85.0865 73.298 84.6017C73.7215 84.114 74.196 83.8788 74.8468 83.8339C75.2356 83.807 75.488 83.8486 75.8604 84.0005C76.1384 84.1139 76.2144 84.1617 76.465 84.3809C76.704 84.5899 76.7773 84.6755 76.9061 84.8961C76.991 85.0416 77.0941 85.2628 77.1351 85.3877C77.2248 85.6608 77.2612 86.0838 77.2204 86.3775C77.1891 86.6023 77.2127 86.6881 77.3246 86.7551C77.4254 86.8155 77.5492 86.7979 77.6234 86.7125C77.6713 86.6573 77.6944 86.5686 77.7181 86.3492C77.7918 85.6672 77.5782 84.9166 77.1593 84.3856C76.6999 83.803 76.0447 83.4318 75.3187 83.3426C75.052 83.3098 74.5137 83.3492 74.2607 83.42ZM83.8604 82.7288C83.6271 82.7847 83.2142 82.9642 83.0077 83.0996C82.0353 83.7371 81.5612 84.9394 81.8425 86.0546C81.9286 86.3955 82.0721 86.5233 82.2533 86.4202C82.3869 86.3442 82.4071 86.2509 82.3403 86.0182C82.2678 85.766 82.2378 85.3509 82.2735 85.0946C82.3365 84.6421 82.502 84.2869 82.8236 83.9142C83.0205 83.6861 83.0984 83.6208 83.351 83.4721C83.6999 83.2668 83.9518 83.1885 84.3528 83.1609C84.9885 83.117 85.5402 83.3055 86.0048 83.7251C86.4613 84.1375 86.6945 84.6153 86.7391 85.2301C86.7682 85.6307 86.7261 85.8909 86.5719 86.265C86.4601 86.5359 86.4064 86.6222 86.2081 86.8491C85.8842 87.2197 85.5557 87.4335 85.1162 87.5596C84.8729 87.6294 84.4542 87.6598 84.2049 87.6258C84.0706 87.6074 83.989 87.6099 83.9326 87.6341C83.8356 87.6759 83.7682 87.817 83.7996 87.9128C83.8419 88.0416 83.943 88.0913 84.221 88.1197C85.6479 88.2656 86.9269 87.3059 87.2029 85.8824C87.2561 85.6082 87.2465 85.0886 87.183 84.8112C87.1117 84.4992 86.9229 84.0731 86.7383 83.8073C86.5278 83.5043 86.096 83.1305 85.7612 82.9613C85.4857 82.8222 85.0307 82.6907 84.7348 82.6647C84.508 82.6448 84.0803 82.6762 83.8604 82.7288ZM74.5753 85.0238C74.3571 85.1134 74.2382 85.2035 74.0942 85.3883C73.9194 85.6126 73.8604 85.8242 73.8818 86.1496C73.8974 86.3861 73.9101 86.4321 74.0059 86.6022C74.1622 86.8793 74.3185 86.9981 74.777 87.1882C75.2832 87.3982 75.7872 87.6838 76.2205 88.0063C76.8738 88.4925 77.231 88.9141 77.493 89.5084C77.6553 89.8764 77.7203 90.1595 77.7551 90.6505C77.7992 91.274 77.7337 91.7038 77.515 92.2249C77.1871 93.0063 76.3274 93.8857 75.2909 94.4998C74.8685 94.75 74.7282 94.892 74.6166 95.182C74.2441 96.1501 75.2942 97.0607 76.2009 96.5558C76.4754 96.4029 76.5987 96.2415 76.7809 95.7964C77.2256 94.7102 77.9915 93.7099 78.7077 93.2799C79.6038 92.742 80.7542 92.6405 81.7247 93.0139C82.0781 93.1499 82.4056 93.351 82.7331 93.6333C83.2706 94.0965 83.7393 94.66 84.1014 95.2782C84.345 95.6939 84.4885 95.8347 84.7873 95.9511C84.9694 96.022 85.0167 96.028 85.2532 96.0101C85.615 95.9828 85.8006 95.8926 86.0233 95.6362C86.246 95.3798 86.3091 95.1835 86.2853 94.8217C86.2696 94.5851 86.2571 94.5393 86.1607 94.3684C86.0076 94.0967 85.8432 93.972 85.3897 93.7832C84.4884 93.408 83.5751 92.7711 83.1214 92.2016C82.2591 91.119 82.1482 89.5522 82.8494 88.3589C83.2182 87.7311 84.0327 86.9719 84.8722 86.4735C85.2946 86.2226 85.4397 86.076 85.5531 85.7854C85.6244 85.6027 85.6304 85.5556 85.6125 85.3191C85.5851 84.9576 85.495 84.7721 85.2384 84.5496C84.9818 84.3272 84.7853 84.2641 84.4233 84.288C84.1867 84.3036 84.1406 84.3162 83.9704 84.412C83.6939 84.5677 83.5741 84.7246 83.3853 85.1787C82.9229 86.2906 82.1728 87.2651 81.4448 87.6996C80.9594 87.9893 80.5427 88.1147 79.9188 88.1589C79.2949 88.2031 78.8648 88.1376 78.3433 87.9191C77.5608 87.5913 76.6644 86.7153 76.0656 85.6932C75.8221 85.2775 75.6777 85.1358 75.3821 85.0223C75.1242 84.9232 74.8192 84.9238 74.5753 85.0238ZM75.2152 85.479C75.3684 85.5369 75.4557 85.6195 75.5484 85.7944C75.7435 86.1626 75.5034 86.6143 75.0742 86.6866C74.9445 86.7085 74.8939 86.7013 74.7536 86.6412C74.3627 86.4739 74.2375 86.0205 74.4903 85.688C74.6541 85.4727 74.963 85.3837 75.2152 85.479ZM84.7029 84.7974C85.2632 84.986 85.2726 85.787 84.717 85.9858C84.2658 86.1471 83.7927 85.7369 83.889 85.2678C83.9639 84.9032 84.3516 84.6791 84.7029 84.7974ZM76.1934 86.7574C76.5872 87.266 77.2754 87.8952 77.7127 88.1464C78.4213 88.5534 79.1205 88.7113 79.9537 88.6523C80.787 88.5933 81.457 88.3385 82.1012 87.8357C82.4987 87.5254 83.0914 86.8055 83.4096 86.2465C83.4839 86.1159 83.5538 86.0085 83.5649 86.0077C83.5762 86.0069 83.5949 86.0305 83.6067 86.0601C83.6316 86.1228 83.9511 86.3918 83.9968 86.3885C84.0582 86.3842 84.0302 86.4444 83.9471 86.495C83.5629 86.7293 82.6835 87.6658 82.4246 88.1163C82.0154 88.8283 81.8591 89.5196 81.9183 90.3558C81.9775 91.1921 82.2299 91.8552 82.7352 92.5016C83.0456 92.8988 83.7661 93.491 84.3255 93.8089C84.456 93.8831 84.5635 93.953 84.5643 93.9641C84.5651 93.9753 84.5405 93.9945 84.5097 94.0067C84.4788 94.019 84.3825 94.1184 84.2958 94.2276L84.1379 94.4262L83.9722 94.2121C83.5799 93.7053 82.8909 93.0757 82.4544 92.8249C81.7431 92.4163 81.0478 92.2591 80.2133 92.3182C79.3788 92.3773 78.7126 92.6309 78.0659 93.1356C77.67 93.4447 77.0757 94.1658 76.7602 94.7201L76.6279 94.9526L76.4047 94.7559C76.2819 94.6477 76.1745 94.5531 76.1659 94.5456C76.1572 94.5381 76.2442 94.4586 76.3592 94.3689C76.8694 93.9707 77.4934 93.2879 77.7424 92.8551C78.1515 92.1439 78.308 91.4519 78.2488 90.6156C78.1896 89.7793 77.9372 89.1162 77.4319 88.4697C77.122 88.0732 76.4011 87.4804 75.8437 87.1636L75.6083 87.0298L75.7828 86.8457C75.8788 86.7445 75.9637 86.6352 75.9715 86.603C75.9793 86.5707 75.9948 86.5437 76.006 86.5429C76.0172 86.5421 76.1015 86.6386 76.1934 86.7574ZM75.0238 92.9046C74.9381 92.9251 74.7524 92.99 74.611 93.0487C73.7394 93.4108 73.1371 94.1639 72.955 95.119C72.8983 95.4171 72.9456 96.0928 73.0443 96.3909C73.2085 96.8873 73.4904 97.3144 73.8694 97.6413C74.9314 98.5571 76.4969 98.5306 77.5281 97.5793C78.1043 97.0477 78.4144 96.3132 78.4007 95.5121C78.3945 95.1517 78.3025 94.729 78.2059 94.6168C78.12 94.5171 78.0151 94.4935 77.9138 94.5512C77.7802 94.6272 77.76 94.7204 77.8268 94.9532C77.8993 95.2054 77.9292 95.6205 77.8936 95.8768C77.8307 96.3287 77.6655 96.6834 77.3433 97.0586C77.1446 97.29 77.0705 97.3521 76.8159 97.5011C76.6479 97.5994 76.4324 97.6991 76.3179 97.7315C76.0786 97.7992 75.6266 97.837 75.3805 97.8099C74.5326 97.7164 73.7413 97.0436 73.5028 96.2134C73.4314 95.9647 73.4003 95.512 73.4361 95.2411C73.4531 95.1121 73.5171 94.8955 73.5941 94.7067C73.7055 94.4332 73.7558 94.3524 73.9575 94.1227C74.2838 93.7511 74.612 93.5377 75.0509 93.4118C75.29 93.3431 75.7064 93.3126 75.9689 93.3444C76.1258 93.3633 76.1847 93.3597 76.2494 93.3269C76.4048 93.2483 76.4144 93.039 76.2677 92.9254C76.1335 92.8214 75.4209 92.8095 75.0238 92.9046ZM84.4885 92.2488C84.1739 92.3289 84.0704 92.4488 84.1521 92.6386C84.2103 92.7736 84.321 92.8001 84.5599 92.7361C84.8153 92.6677 85.2318 92.6393 85.4783 92.6735C85.9318 92.7365 86.2875 92.9022 86.6582 93.2232C87.1161 93.6197 87.3686 94.1243 87.4119 94.7292C87.436 95.0665 87.4137 95.2957 87.3314 95.5543C87.0995 96.283 86.52 96.8587 85.8147 97.0611C85.5663 97.1324 85.1133 97.1636 84.8417 97.1282C84.5429 97.0892 84.0617 96.8858 83.8196 96.6961C83.1668 96.1848 82.8362 95.3884 82.9467 94.5939C82.978 94.369 82.9543 94.2833 82.8425 94.2162C82.6541 94.1033 82.499 94.225 82.4552 94.5204C82.4135 94.8007 82.4691 95.4778 82.5535 95.7177C82.8476 96.5542 83.3877 97.1392 84.1443 97.4409C84.5438 97.6002 84.8038 97.6469 85.229 97.6359C85.6304 97.6254 85.9181 97.5694 86.217 97.4435C87.0718 97.0836 87.6546 96.3855 87.8667 95.4675C87.9218 95.2292 87.9244 95.1604 87.895 94.7224C87.8589 94.1836 87.8043 93.9837 87.5835 93.5833C86.9813 92.4908 85.7033 91.9397 84.4885 92.2488ZM75.9503 95.0233C76.1903 95.1419 76.3327 95.4375 76.2781 95.7035C76.1615 96.2713 75.3911 96.386 75.1102 95.8773C74.9364 95.5625 75.0765 95.1524 75.4109 94.9973C75.5485 94.9334 75.7924 94.9452 75.9503 95.0233ZM85.325 94.2914C85.7935 94.3963 85.9653 94.9989 85.6248 95.3431C85.3311 95.6401 84.8642 95.5801 84.6434 95.2169C84.5636 95.0857 84.5499 95.038 84.5533 94.9035C84.5592 94.6755 84.6643 94.4904 84.8544 94.3733C85.0167 94.2734 85.1449 94.2511 85.325 94.2914Z" fill="white"/>
<path fill-rule="evenodd" clip-rule="evenodd" d="M69.9819 2.6273C68.9897 2.90504 68.2595 3.6812 68.0216 4.7111C67.9665 4.9494 67.9639 5.01817 67.9933 5.4562C68.0294 5.99503 68.084 6.19489 68.3048 6.59536C68.9041 7.68264 70.1672 8.23326 71.3747 7.93366C71.716 7.849 71.8202 7.73542 71.7362 7.54005C71.678 7.40497 71.5673 7.37849 71.3284 7.44248C71.0729 7.51093 70.6565 7.53933 70.41 7.50509C69.9572 7.4422 69.6018 7.27683 69.2289 6.95552C69.0006 6.75881 68.9353 6.68096 68.7865 6.42852C68.5831 6.08328 68.503 5.829 68.4755 5.44021C68.4301 4.79822 68.5982 4.29373 69.0192 3.80896C69.4427 3.32127 69.9172 3.08604 70.568 3.04113C70.9568 3.01432 71.2091 3.05583 71.5816 3.20778C71.8596 3.32118 71.9356 3.36902 72.1862 3.58815C72.4252 3.79714 72.4985 3.88281 72.6273 4.10334C72.7122 4.24883 72.8153 4.47007 72.8563 4.59501C72.946 4.86806 72.9824 5.29104 72.9416 5.58476C72.9103 5.80959 72.9339 5.89537 73.0457 5.96239C73.1466 6.0228 73.2704 6.00513 73.3446 5.91975C73.3925 5.86455 73.4156 5.77591 73.4393 5.55651C73.513 4.8745 73.2994 4.1239 72.8805 3.59283C72.4211 3.01032 71.7659 2.63906 71.0398 2.54985C70.7732 2.51707 70.2349 2.55647 69.9819 2.6273ZM79.5816 1.93609C79.3483 1.99201 78.9354 2.17152 78.7289 2.30688C77.7565 2.94439 77.2824 4.14669 77.5637 5.26187C77.6498 5.60281 77.7933 5.73056 77.9745 5.62743C78.1081 5.55144 78.1282 5.45819 78.0615 5.22545C77.989 4.97323 77.959 4.55814 77.9947 4.30187C78.0577 3.84935 78.2232 3.49417 78.5448 3.12152C78.7417 2.89339 78.8196 2.82807 79.0722 2.67939C79.4211 2.47406 79.673 2.39582 80.074 2.36813C80.7097 2.32427 81.2614 2.51274 81.726 2.93241C82.1825 3.34475 82.4157 3.82262 82.4603 4.4374C82.4894 4.838 82.4473 5.09819 82.293 5.47228C82.1813 5.74316 82.1276 5.82945 81.9293 6.05635C81.6054 6.427 81.2769 6.6408 80.8374 6.76685C80.5941 6.83665 80.1754 6.86705 79.9261 6.83304C79.7918 6.8147 79.7102 6.81721 79.6538 6.84142C79.5568 6.88314 79.4894 7.02429 79.5208 7.12009C79.5631 7.24892 79.6642 7.2986 79.9422 7.32701C81.3691 7.47283 82.6481 6.51321 82.9241 5.08967C82.9773 4.81545 82.9677 4.29587 82.9042 4.01852C82.8329 3.70651 82.6441 3.28033 82.4595 3.01457C82.249 2.71158 81.8172 2.33775 81.4823 2.1686C81.2069 2.02945 80.7519 1.89796 80.456 1.87198C80.2292 1.85207 79.8015 1.88344 79.5816 1.93609ZM70.2965 4.23112C70.0783 4.32071 69.9594 4.41075 69.8154 4.59559C69.6406 4.81989 69.5816 5.03147 69.603 5.35692C69.6186 5.5934 69.6313 5.6394 69.7271 5.80951C69.8833 6.08654 70.0397 6.20539 70.4982 6.39552C71.0044 6.60546 71.5084 6.89111 71.9417 7.21355C72.595 7.69976 72.9521 8.12133 73.2142 8.71563C73.3765 9.08363 73.4415 9.36682 73.4763 9.8578C73.5204 10.4812 73.4549 10.9111 73.2362 11.4322C72.9083 12.2136 72.0486 13.093 71.0121 13.7071C70.5897 13.9573 70.4494 14.0993 70.3378 14.3893C69.9653 15.3574 71.0154 16.268 71.9221 15.7631C72.1966 15.6102 72.3199 15.4487 72.5021 15.0037C72.9468 13.9175 73.7127 12.9172 74.4289 12.4872C75.325 11.9493 76.4754 11.8478 77.4459 12.2212C77.7993 12.3571 78.1268 12.5583 78.4543 12.8406C78.9918 13.3038 79.4605 13.8673 79.8226 14.4854C80.0662 14.9012 80.2097 15.042 80.5085 15.1584C80.6906 15.2293 80.7379 15.2353 80.9744 15.2174C81.3362 15.19 81.5218 15.0999 81.7445 14.8435C81.9671 14.5871 82.0303 14.3908 82.0064 14.029C81.9908 13.7923 81.9782 13.7466 81.8819 13.5757C81.7288 13.304 81.5644 13.1793 81.1109 12.9905C80.2095 12.6152 79.2963 11.9784 78.8426 11.4088C77.9803 10.3262 77.8693 8.75946 78.5705 7.56617C78.9394 6.93837 79.7539 6.17922 80.5934 5.68074C81.0158 5.42989 81.1609 5.28327 81.2743 4.9927C81.3456 4.80999 81.3516 4.7629 81.3337 4.52641C81.3063 4.16489 81.2161 3.97941 80.9596 3.75691C80.703 3.53444 80.5065 3.47136 80.1445 3.49523C79.9079 3.51084 79.8618 3.52347 79.6916 3.6193C79.4151 3.77502 79.2953 3.93192 79.1065 4.38598C78.6441 5.49792 77.894 6.47234 77.166 6.90683C76.6805 7.19658 76.2639 7.322 75.64 7.36617C75.0161 7.41034 74.586 7.34488 74.0645 7.12641C73.282 6.79862 72.3856 5.92253 71.7868 4.90047C71.5433 4.4848 71.3989 4.34307 71.1033 4.22954C70.8454 4.13044 70.5403 4.13105 70.2965 4.23112ZM70.9364 4.68628C71.0896 4.74422 71.1769 4.82679 71.2696 5.00171C71.4647 5.36987 71.2246 5.82159 70.7954 5.89389C70.6657 5.91573 70.6151 5.90855 70.4748 5.84849C70.0839 5.68114 69.9587 5.22777 70.2115 4.89531C70.3753 4.68001 70.6842 4.59094 70.9364 4.68628ZM80.4241 4.00466C80.9844 4.19329 80.9938 4.99431 80.4382 5.19303C79.987 5.35442 79.5139 4.9442 79.6102 4.47509C79.6851 4.1105 80.0728 3.8864 80.4241 4.00466ZM71.9146 5.96463C72.3083 6.47324 72.9966 7.10251 73.4339 7.35368C74.1424 7.76072 74.8416 7.91853 75.6749 7.85954C76.5082 7.80054 77.1782 7.5458 77.8224 7.04299C78.2199 6.73272 78.8126 6.01275 79.1308 5.45374C79.205 5.32321 79.275 5.21579 79.2861 5.215C79.2973 5.21421 79.3161 5.2378 79.3279 5.26741C79.3528 5.33012 79.6723 5.59906 79.718 5.59582C79.7794 5.59147 79.7514 5.65164 79.6683 5.70228C79.2841 5.93661 78.4047 6.87305 78.1458 7.32355C77.7366 8.03555 77.5803 8.72692 77.6395 9.56305C77.6987 10.3993 77.9511 11.0624 78.4564 11.7089C78.7668 12.1061 79.4873 12.6983 80.0466 13.0162C80.1772 13.0904 80.2847 13.1602 80.2855 13.1714C80.2863 13.1826 80.2617 13.2017 80.2309 13.214C80.2 13.2263 80.1037 13.3256 80.0169 13.4349L79.8591 13.6334L79.6934 13.4194C79.3011 12.9126 78.6121 12.283 78.1756 12.0322C77.4643 11.6236 76.769 11.4664 75.9345 11.5255C75.1 11.5845 74.4338 11.8382 73.7871 12.3429C73.3912 12.652 72.7969 13.3731 72.4814 13.9274L72.3491 14.1599L72.1259 13.9632C72.0031 13.855 71.8957 13.7603 71.887 13.7529C71.8784 13.7454 71.9654 13.6659 72.0804 13.5762C72.5906 13.178 73.2146 12.4951 73.4636 12.0624C73.8727 11.3512 74.0292 10.6591 73.97 9.82284C73.9108 8.98656 73.6584 8.32346 73.1531 7.67702C72.8432 7.28049 72.1223 6.68764 71.5649 6.37087L71.3295 6.23711L71.504 6.053C71.6 5.95176 71.6849 5.84252 71.6927 5.81026C71.7005 5.778 71.716 5.75096 71.7272 5.75016C71.7383 5.74937 71.8227 5.84587 71.9146 5.96463ZM70.745 12.1119C70.6593 12.1324 70.4736 12.1973 70.3322 12.256C69.4606 12.6181 68.8582 13.3711 68.6762 14.3263C68.6194 14.6244 68.6668 15.3001 68.7655 15.5982C68.9297 16.0946 69.2116 16.5217 69.5906 16.8485C70.6526 17.7644 72.2181 17.7379 73.2493 16.7866C73.8255 16.255 74.1355 15.5205 74.1219 14.7194C74.1157 14.359 74.0237 13.9363 73.927 13.824C73.8412 13.7243 73.7363 13.7008 73.635 13.7585C73.5014 13.8345 73.4812 13.9277 73.548 14.1604C73.6205 14.4127 73.6504 14.8278 73.6148 15.084C73.5519 15.536 73.3867 15.8907 73.0645 16.2659C72.8658 16.4972 72.7917 16.5594 72.5371 16.7084C72.3691 16.8067 72.1536 16.9064 72.0391 16.9388C71.7998 17.0065 71.3478 17.0443 71.1017 17.0172C70.2538 16.9237 69.4625 16.2509 69.224 15.4207C69.1526 15.172 69.1215 14.7193 69.1573 14.4484C69.1743 14.3193 69.2383 14.1027 69.3152 13.914C69.4267 13.6405 69.477 13.5597 69.6787 13.3299C70.005 12.9583 70.3332 12.7449 70.7721 12.619C71.0112 12.5504 71.4276 12.5199 71.6901 12.5516C71.847 12.5706 71.9059 12.567 71.9706 12.5342C72.126 12.4556 72.1356 12.2463 71.9889 12.1326C71.8547 12.0287 71.142 12.0168 70.745 12.1119ZM80.2097 11.4561C79.8951 11.5361 79.7916 11.656 79.8733 11.8458C79.9314 11.9809 80.0422 12.0074 80.2811 11.9434C80.5365 11.875 80.953 11.8466 81.1994 11.8808C81.653 11.9438 82.0087 12.1095 82.3794 12.4305C82.8373 12.827 83.0898 13.3315 83.1331 13.9365C83.1572 14.2738 83.1349 14.5029 83.0526 14.7615C82.8207 15.4903 82.2412 16.066 81.5359 16.2684C81.2875 16.3396 80.8345 16.3709 80.5629 16.3354C80.2641 16.2965 79.7829 16.0931 79.5408 15.9034C78.888 15.3921 78.5573 14.5957 78.6679 13.8011C78.6992 13.5763 78.6755 13.4905 78.5637 13.4235C78.3753 13.3106 78.2202 13.4323 78.1764 13.7277C78.1347 14.0079 78.1903 14.6851 78.2747 14.925C78.5688 15.7615 79.1089 16.3465 79.8655 16.6482C80.265 16.8075 80.525 16.8542 80.9501 16.8431C81.3516 16.8327 81.6393 16.7767 81.9382 16.6508C82.793 16.2908 83.3758 15.5928 83.5879 14.6748C83.643 14.4365 83.6456 14.3677 83.6162 13.9297C83.5801 13.3909 83.5255 13.191 83.3047 12.7905C82.7025 11.6981 81.4245 11.147 80.2097 11.4561ZM71.6715 14.2305C71.9114 14.3491 72.0539 14.6448 71.9993 14.9108C71.8827 15.4786 71.1123 15.5933 70.8314 15.0846C70.6576 14.7698 70.7977 14.3597 71.1321 14.2045C71.2697 14.1407 71.5136 14.1524 71.6715 14.2305ZM81.0462 13.4987C81.5147 13.6036 81.6865 14.2062 81.346 14.5504C81.0522 14.8474 80.5854 14.7873 80.3646 14.4242C80.2848 14.293 80.271 14.2453 80.2745 14.1108C80.2804 13.8827 80.3855 13.6976 80.5756 13.5806C80.7379 13.4807 80.8661 13.4584 81.0462 13.4987Z" fill="white"/>
<path fill-rule="evenodd" clip-rule="evenodd" d="M72.2436 40.4742C70.7883 40.8815 69.7174 42.0199 69.3684 43.5304C69.2876 43.8799 69.2838 43.9808 69.3269 44.6232C69.3798 45.4135 69.46 45.7066 69.7837 46.294C70.6627 47.8887 72.5153 48.6962 74.2864 48.2568C74.7868 48.1327 74.9397 47.9661 74.8165 47.6795C74.7312 47.4814 74.5688 47.4426 74.2184 47.5364C73.8437 47.6368 73.2329 47.6785 72.8715 47.6283C72.2073 47.536 71.686 47.2935 71.1391 46.8222C70.8043 46.5337 70.7085 46.4195 70.4903 46.0493C70.1919 45.5429 70.0745 45.17 70.0342 44.5998C69.9675 43.6582 70.2141 42.9183 70.8315 42.2073C71.4527 41.492 72.1486 41.147 73.1032 41.0811C73.6733 41.0418 74.0435 41.1027 74.5897 41.3255C74.9974 41.4919 75.1089 41.562 75.4765 41.8834C75.827 42.1899 75.9346 42.3156 76.1235 42.639C76.248 42.8524 76.3992 43.1769 76.4594 43.3602C76.5909 43.7606 76.6443 44.381 76.5844 44.8118C76.5385 45.1415 76.5732 45.2673 76.7372 45.3656C76.885 45.4542 77.0667 45.4283 77.1754 45.3031C77.2457 45.2221 77.2796 45.0921 77.3144 44.7704C77.4224 43.7701 77.1092 42.6692 76.4948 41.8903C75.821 41.0359 74.86 40.4914 73.7952 40.3606C73.4041 40.3125 72.6147 40.3703 72.2436 40.4742ZM86.3232 39.4604C85.9809 39.5424 85.3753 39.8057 85.0725 40.0042C83.6463 40.9392 82.951 42.7026 83.3636 44.3382C83.4898 44.8383 83.7003 45.0256 83.966 44.8744C84.1619 44.7629 84.1915 44.6261 84.0935 44.2848C83.9873 43.9149 83.9433 43.3061 83.9957 42.9302C84.088 42.2665 84.3308 41.7456 84.8025 41.199C85.0912 40.8644 85.2055 40.7686 85.576 40.5506C86.0877 40.2494 86.4571 40.1347 87.0452 40.0941C87.9776 40.0297 88.7868 40.3061 89.4683 40.9217C90.1378 41.5264 90.4797 42.2273 90.5452 43.129C90.5878 43.7165 90.5262 44.0981 90.2999 44.6468C90.136 45.0441 90.0572 45.1707 89.7664 45.5035C89.2914 46.0471 88.8095 46.3606 88.1649 46.5455C87.8081 46.6479 87.194 46.6925 86.8284 46.6426C86.6313 46.6157 86.5117 46.6194 86.429 46.6549C86.2867 46.7161 86.1879 46.9231 86.2339 47.0636C86.2959 47.2526 86.4442 47.3254 86.852 47.3671C88.9447 47.581 90.8206 46.1735 91.2255 44.0857C91.3035 43.6835 91.2893 42.9214 91.1963 42.5146C91.0916 42.057 90.8147 41.432 90.544 41.0422C90.2353 40.5978 89.6019 40.0495 89.1109 39.8014C88.7068 39.5973 88.0395 39.4045 87.6055 39.3664C87.2729 39.3372 86.6456 39.3832 86.3232 39.4604ZM72.705 42.8264C72.3849 42.9578 72.2106 43.0899 71.9993 43.361C71.7429 43.69 71.6564 44.0003 71.6879 44.4776C71.7107 44.8244 71.7293 44.8919 71.8699 45.1414C72.099 45.5477 72.3283 45.722 73.0007 46.0009C73.7431 46.3088 74.4824 46.7278 75.1179 47.2007C76.0761 47.9138 76.5999 48.5321 76.9843 49.4037C77.2223 49.9435 77.3176 50.3588 77.3686 51.0789C77.4334 51.9933 77.3372 52.6237 77.0165 53.388C76.5356 54.5341 75.2746 55.8238 73.7544 56.7245C73.135 57.0915 72.9292 57.2998 72.7655 57.7251C72.2192 59.145 73.7593 60.4805 75.0892 59.74C75.4918 59.5158 75.6727 59.279 75.9399 58.6262C76.5921 57.0331 77.7154 55.566 78.7659 54.9353C80.0801 54.1464 81.7673 53.9976 83.1907 54.5452C83.7091 54.7446 84.1894 55.0396 84.6698 55.4537C85.458 56.1331 86.1455 56.9595 86.6766 57.8661C87.0339 58.4759 87.2443 58.6824 87.6826 58.8531C87.9496 58.9571 88.019 58.9659 88.3659 58.9397C88.8965 58.8995 89.1687 58.7673 89.4953 58.3913C89.8219 58.0152 89.9145 57.7272 89.8795 57.1966C89.8566 56.8495 89.8382 56.7824 89.6969 56.5318C89.4723 56.1334 89.2312 55.9504 88.566 55.6735C87.2441 55.1231 85.9046 54.1891 85.2392 53.3538C83.9745 51.766 83.8118 49.468 84.8402 47.7179C85.3813 46.7971 86.5758 45.6837 87.807 44.9526C88.4266 44.5846 88.6394 44.3696 88.8057 43.9434C88.9102 43.6755 88.9191 43.6064 88.8928 43.2595C88.8527 42.7293 88.7204 42.4573 88.3441 42.1309C87.9678 41.8047 87.6797 41.7121 87.1487 41.7471C86.8016 41.77 86.7341 41.7886 86.4844 41.9291C86.0788 42.1575 85.9032 42.3876 85.6263 43.0536C84.9481 44.6844 83.848 46.1136 82.7803 46.7508C82.0682 47.1758 81.4571 47.3597 80.5421 47.4245C79.6271 47.4893 78.9961 47.3933 78.2313 47.0729C77.0837 46.5921 75.7689 45.3072 74.8908 43.8082C74.5336 43.1985 74.3219 42.9906 73.8883 42.8241C73.51 42.6788 73.0626 42.6797 72.705 42.8264ZM73.6434 43.494C73.8682 43.579 73.9961 43.7001 74.1321 43.9566C74.4183 44.4966 74.0662 45.1591 73.4366 45.2652C73.2465 45.2972 73.1723 45.2867 72.9665 45.1986C72.3932 44.9531 72.2095 44.2882 72.5803 43.8006C72.8205 43.4848 73.2735 43.3542 73.6434 43.494ZM87.5588 42.4943C88.3805 42.771 88.3944 43.9458 87.5794 44.2373C86.9176 44.474 86.2238 43.8723 86.3651 43.1843C86.4748 42.6495 87.0435 42.3209 87.5588 42.4943ZM75.0782 45.3689C75.6557 46.1149 76.6651 47.0378 77.3064 47.4062C78.3457 48.0032 79.3712 48.2347 80.5933 48.1481C81.8155 48.0616 82.7981 47.688 83.7429 46.9505C84.3259 46.4955 85.1953 45.4395 85.6619 44.6196C85.7708 44.4282 85.8734 44.2706 85.8898 44.2695C85.9062 44.2683 85.9337 44.3029 85.951 44.3463C85.9875 44.4383 86.4561 44.8328 86.5232 44.828C86.6133 44.8216 86.5721 44.9099 86.4503 44.9841C85.8868 45.3278 84.5969 46.7013 84.2172 47.362C83.6171 48.4063 83.3878 49.4203 83.4746 50.6466C83.5615 51.8732 83.9317 52.8457 84.6728 53.7938C85.1281 54.3764 86.1847 55.245 87.0052 55.7112C87.1967 55.82 87.3544 55.9225 87.3555 55.9389C87.3567 55.9553 87.3206 55.9834 87.2753 56.0013C87.2301 56.0193 87.0889 56.1651 86.9616 56.3253L86.7301 56.6165L86.4871 56.3026C85.9116 55.5593 84.9012 54.6358 84.261 54.268C83.2177 53.6688 82.1979 53.4381 80.974 53.5248C79.7501 53.6114 78.7729 53.9834 77.8245 54.7237C77.2438 55.177 76.3722 56.2346 75.9095 57.0476L75.7154 57.3886L75.3881 57.1001C75.208 56.9414 75.0504 56.8026 75.0378 56.7917C75.0251 56.7807 75.1527 56.6641 75.3213 56.5325C76.0697 55.9485 76.9848 54.947 77.35 54.3123C77.9501 53.2692 78.1796 52.2542 78.0928 51.0276C78.0059 49.8011 77.6357 48.8285 76.8946 47.8804C76.44 47.2989 75.3827 46.4293 74.5652 45.9647L74.22 45.7686L74.4759 45.4985C74.6167 45.35 74.7412 45.1898 74.7527 45.1425C74.7641 45.0952 74.7868 45.0555 74.8033 45.0544C74.8197 45.0532 74.9434 45.1947 75.0782 45.3689ZM73.3627 54.3849C73.2371 54.415 72.9646 54.5101 72.7573 54.5962C71.4789 55.1273 70.5955 56.2318 70.3286 57.6326C70.2453 58.0699 70.3148 59.0609 70.4595 59.4981C70.7003 60.2262 71.1137 60.8526 71.6696 61.332C73.2272 62.6752 75.5233 62.6364 77.0357 61.2411C77.8808 60.4614 78.3355 59.3841 78.3155 58.2093C78.3065 57.6807 78.1716 57.0607 78.0297 56.8961C77.9038 56.7498 77.75 56.7153 77.6013 56.7999C77.4055 56.9113 77.3759 57.0481 77.4738 57.3894C77.5801 57.7594 77.6241 58.3682 77.5717 58.744C77.4795 59.4069 77.2372 59.9272 76.7647 60.4774C76.4732 60.8167 76.3645 60.9079 75.9912 61.1264C75.7447 61.2706 75.4286 61.4168 75.2607 61.4643C74.9098 61.5637 74.2469 61.6191 73.8859 61.5793C72.6423 61.4422 71.4818 60.4555 71.132 59.2378C71.0273 58.8731 70.9816 58.2091 71.0341 57.8118C71.059 57.6225 71.153 57.3048 71.2658 57.028C71.4292 56.6269 71.503 56.5084 71.7989 56.1714C72.2774 55.6264 72.7587 55.3134 73.4025 55.1287C73.7532 55.0281 74.3638 54.9833 74.7489 55.0299C74.979 55.0577 75.0654 55.0523 75.1602 55.0043C75.3883 54.889 75.4023 54.582 75.1872 54.4153C74.9903 54.2628 73.9451 54.2454 73.3627 54.3849ZM87.2444 53.4231C86.7829 53.5405 86.6312 53.7163 86.7509 53.9947C86.8362 54.1928 86.9986 54.2317 87.349 54.1378C87.7237 54.0374 88.3345 53.9958 88.6959 54.046C89.3611 54.1384 89.8829 54.3814 90.4265 54.8521C91.0981 55.4337 91.4685 56.1737 91.532 57.0609C91.5673 57.5557 91.5345 57.8918 91.4139 58.2711C91.0737 59.3398 90.2238 60.1842 89.1894 60.4811C88.8251 60.5856 88.1606 60.6314 87.7624 60.5795C87.324 60.5223 86.6183 60.224 86.2632 59.9458C85.3058 59.1958 84.8209 58.0278 84.983 56.8625C85.0289 56.5327 84.9942 56.4069 84.8302 56.3086C84.5538 56.143 84.3264 56.3215 84.2621 56.7547C84.201 57.1658 84.2826 58.1589 84.4063 58.5107C84.8377 59.7377 85.6298 60.5956 86.7395 61.0381C87.3254 61.2717 87.7067 61.3403 88.3303 61.3241C88.919 61.3087 89.341 61.2266 89.7794 61.042C91.0331 60.514 91.8879 59.4902 92.199 58.1438C92.2798 57.7943 92.2836 57.6935 92.2405 57.051C92.1876 56.2607 92.1074 55.9676 91.7837 55.3803C90.9005 53.7779 89.026 52.9698 87.2444 53.4231ZM74.7217 57.4922C75.0735 57.6662 75.2824 58.0998 75.2023 58.49C75.0314 59.3228 73.9015 59.4909 73.4895 58.7449C73.2345 58.2832 73.44 57.6817 73.9305 57.4541C74.1323 57.3605 74.49 57.3777 74.7217 57.4922ZM88.4711 56.4189C89.1583 56.5728 89.4103 57.4565 88.9109 57.9614C88.48 58.3969 87.7954 58.3089 87.4714 57.7763C87.3544 57.5839 87.3343 57.5138 87.3393 57.3166C87.348 56.9822 87.5022 56.7107 87.781 56.539C88.0189 56.3925 88.207 56.3598 88.4711 56.4189Z" fill="white"/>
<path fill-rule="evenodd" clip-rule="evenodd" d="M38.2582 21.8169C37.0676 22.1502 36.1913 23.0815 35.9057 24.3174C35.8397 24.6034 35.8366 24.6859 35.8718 25.2115C35.9151 25.8581 35.9807 26.098 36.2456 26.5785C36.9648 27.8833 38.4805 28.544 39.9296 28.1845C40.339 28.0829 40.4642 27.9466 40.3633 27.7122C40.2935 27.5501 40.1607 27.5183 39.874 27.5951C39.5674 27.6772 39.0676 27.7113 38.7719 27.6702C38.2285 27.5948 37.802 27.3963 37.3545 27.0107C37.0806 26.7747 37.0022 26.6813 36.8237 26.3783C36.5796 25.964 36.4835 25.6589 36.4505 25.1924C36.396 24.422 36.5977 23.8166 37.1029 23.2349C37.6111 22.6496 38.1805 22.3674 38.9615 22.3135C39.428 22.2813 39.7309 22.3311 40.1778 22.5134C40.5113 22.6495 40.6026 22.7069 40.9033 22.9699C41.1901 23.2207 41.2781 23.3235 41.4326 23.5881C41.5346 23.7627 41.6582 24.0282 41.7075 24.1781C41.8151 24.5058 41.8588 25.0134 41.8098 25.3658C41.7722 25.6356 41.8006 25.7386 41.9348 25.819C42.0558 25.8915 42.2044 25.8703 42.2934 25.7678C42.3509 25.7016 42.3786 25.5952 42.407 25.3319C42.4954 24.5135 42.2391 23.6128 41.7365 22.9755C41.1852 22.2765 40.3989 21.831 39.5277 21.7239C39.2077 21.6846 38.5618 21.7319 38.2582 21.8169ZM49.7778 20.9874C49.4978 21.0545 49.0024 21.2699 48.7546 21.4324C47.5877 22.1974 47.0188 23.6401 47.3564 24.9784C47.4596 25.3875 47.6318 25.5408 47.8493 25.417C48.0096 25.3258 48.0338 25.2139 47.9536 24.9347C47.8667 24.632 47.8307 24.1339 47.8735 23.8264C47.9491 23.2833 48.1477 22.8571 48.5336 22.4099C48.7699 22.1362 48.8634 22.0578 49.1665 21.8794C49.5852 21.633 49.8874 21.5391 50.3686 21.5059C51.1315 21.4532 51.7936 21.6794 52.3511 22.183C52.8989 22.6778 53.1787 23.2512 53.2322 23.989C53.2671 24.4697 53.2167 24.7819 53.0315 25.2309C52.8975 25.5559 52.833 25.6595 52.5951 25.9317C52.2064 26.3765 51.8121 26.6331 51.2848 26.7843C50.9928 26.8681 50.4904 26.9046 50.1912 26.8638C50.03 26.8417 49.9321 26.8448 49.8645 26.8738C49.748 26.9239 49.6672 27.0933 49.7048 27.2082C49.7555 27.3628 49.8769 27.4224 50.2105 27.4565C51.9228 27.6315 53.4576 26.48 53.7888 24.7717C53.8526 24.4426 53.8411 23.8192 53.765 23.4863C53.6793 23.1119 53.4528 22.6005 53.2312 22.2816C52.9787 21.918 52.4605 21.4694 52.0587 21.2664C51.7281 21.0995 51.1821 20.9417 50.827 20.9105C50.5549 20.8866 50.0416 20.9242 49.7778 20.9874ZM38.6357 23.7415C38.3738 23.849 38.2312 23.957 38.0583 24.1788C37.8486 24.448 37.7778 24.7019 37.8035 25.0924C37.8222 25.3762 37.8374 25.4314 37.9525 25.6355C38.1399 25.968 38.3275 26.1106 38.8777 26.3387C39.4851 26.5907 40.0899 26.9334 40.6099 27.3204C41.3939 27.9038 41.8225 28.4097 42.137 29.1229C42.3317 29.5645 42.4097 29.9043 42.4514 30.4935C42.5044 31.2416 42.4257 31.7574 42.1633 32.3828C41.7698 33.3205 40.7382 34.3757 39.4943 35.1126C38.9875 35.4129 38.8191 35.5833 38.6852 35.9312C38.2383 37.093 39.4984 38.1857 40.5864 37.5798C40.9158 37.3964 41.0638 37.2026 41.2824 36.6686C41.8161 35.3651 42.7351 34.1647 43.5946 33.6487C44.6699 33.0032 46.0504 32.8815 47.2149 33.3295C47.6391 33.4927 48.032 33.7341 48.4251 34.0728C49.07 34.6287 49.6325 35.3049 50.067 36.0466C50.3593 36.5456 50.5315 36.7145 50.8901 36.8542C51.1086 36.9393 51.1654 36.9465 51.4492 36.925C51.8833 36.8922 52.1061 36.784 52.3733 36.4763C52.6405 36.1686 52.7162 35.933 52.6876 35.4989C52.6689 35.2149 52.6538 35.16 52.5382 34.955C52.3544 34.6289 52.1572 34.4793 51.6129 34.2527C50.5313 33.8024 49.4354 33.0382 48.891 32.3547C47.8562 31.0556 47.7231 29.1755 48.5645 27.7435C49.0072 26.9902 49.9845 26.0792 50.9919 25.481C51.4988 25.18 51.673 25.004 51.809 24.6554C51.8945 24.4361 51.9018 24.3796 51.8803 24.0958C51.8475 23.662 51.7393 23.4394 51.4314 23.1724C51.1235 22.9054 50.8877 22.8297 50.4533 22.8584C50.1693 22.8771 50.1141 22.8923 49.9098 23.0073C49.578 23.1941 49.4343 23.3824 49.2077 23.9273C48.6528 25.2616 47.7527 26.4309 46.8791 26.9523C46.2965 27.3 45.7965 27.4505 45.0479 27.5035C44.2992 27.5565 43.783 27.478 43.1573 27.2158C42.2183 26.8225 41.1426 25.7711 40.4241 24.5447C40.1319 24.0459 39.9586 23.8758 39.6039 23.7396C39.2943 23.6206 38.9283 23.6214 38.6357 23.7415ZM39.4035 24.2876C39.5874 24.3572 39.6921 24.4563 39.8034 24.6662C40.0376 25.108 39.7494 25.65 39.2343 25.7368C39.0788 25.763 39.0181 25.7544 38.8497 25.6823C38.3806 25.4815 38.2303 24.9374 38.5337 24.5385C38.7302 24.2801 39.1009 24.1732 39.4035 24.2876ZM50.7888 23.4697C51.4611 23.6961 51.4725 24.6573 50.8057 24.8958C50.2642 25.0894 49.6966 24.5971 49.8121 24.0342C49.902 23.5967 50.3672 23.3278 50.7888 23.4697ZM40.5774 25.8217C41.0499 26.432 41.8758 27.1871 42.4005 27.4885C43.2508 27.977 44.0899 28.1664 45.0898 28.0956C46.0898 28.0248 46.8937 27.7191 47.6667 27.1157C48.1437 26.7434 48.855 25.8794 49.2368 25.2086C49.3259 25.052 49.4098 24.9231 49.4232 24.9221C49.4367 24.9212 49.4592 24.9495 49.4733 24.985C49.5032 25.0603 49.8866 25.383 49.9415 25.3791C50.0152 25.3739 49.9815 25.4461 49.8819 25.5068C49.4208 25.788 48.3655 26.9118 48.0548 27.4524C47.5638 28.3068 47.3762 29.1364 47.4472 30.1398C47.5183 31.1433 47.8212 31.939 48.4275 32.7148C48.8001 33.1914 49.6646 33.9021 50.3359 34.2835C50.4926 34.3726 50.6216 34.4564 50.6225 34.4698C50.6235 34.4832 50.5939 34.5062 50.5569 34.5209C50.5199 34.5356 50.4043 34.6549 50.3002 34.786L50.1108 35.0242L49.912 34.7674C49.4412 34.1592 48.6144 33.4037 48.0906 33.1028C47.237 32.6124 46.4026 32.4238 45.4013 32.4947C44.3999 32.5655 43.6004 32.8699 42.8244 33.4756C42.3493 33.8465 41.6362 34.7118 41.2576 35.3769L41.0987 35.656L40.831 35.4199C40.6836 35.2901 40.5547 35.1765 40.5443 35.1675C40.534 35.1585 40.6384 35.0631 40.7763 34.9555C41.3886 34.4777 42.1374 33.6583 42.4362 33.1389C42.9271 32.2855 43.1149 31.4551 43.0439 30.4515C42.9728 29.448 42.6699 28.6523 42.0636 27.8765C41.6917 27.4007 40.8266 26.6893 40.1577 26.3091L39.8753 26.1486L40.0847 25.9277C40.1998 25.8062 40.3017 25.6751 40.3111 25.6364C40.3204 25.5977 40.339 25.5653 40.3525 25.5643C40.3659 25.5634 40.4671 25.6791 40.5774 25.8217ZM39.1738 33.1984C39.0711 33.223 38.8482 33.3008 38.6785 33.3713C37.6326 33.8058 36.9098 34.7095 36.6914 35.8556C36.6232 36.2134 36.6801 37.0242 36.7985 37.3819C36.9956 37.9776 37.3338 38.4901 37.7886 38.8824C39.063 39.9814 40.9416 39.9496 42.179 38.808C42.8704 38.1701 43.2425 37.2887 43.2261 36.3274C43.2187 35.8949 43.1084 35.3877 42.9923 35.253C42.8893 35.1333 42.7635 35.105 42.6418 35.1743C42.4815 35.2655 42.4574 35.3774 42.5375 35.6566C42.6244 35.9593 42.6604 36.4574 42.6176 36.7649C42.5421 37.3073 42.3439 37.7329 41.9573 38.1831C41.7188 38.4608 41.6299 38.5354 41.3244 38.7141C41.1227 38.8321 40.8642 38.9517 40.7268 38.9906C40.4397 39.0719 39.8973 39.1172 39.6019 39.0847C38.5844 38.9725 37.6349 38.1652 37.3487 37.1689C37.263 36.8705 37.2257 36.3273 37.2686 36.0022C37.289 35.8473 37.3659 35.5874 37.4582 35.3609C37.5919 35.0327 37.6523 34.9358 37.8943 34.66C38.2859 34.2141 38.6797 33.958 39.2064 33.807C39.4934 33.7246 39.993 33.6879 40.308 33.7261C40.4963 33.7489 40.5669 33.7445 40.6446 33.7052C40.8311 33.6108 40.8426 33.3596 40.6666 33.2233C40.5055 33.0985 39.6503 33.0843 39.1738 33.1984ZM50.5316 32.4114C50.154 32.5075 50.0299 32.6514 50.1278 32.8791C50.1976 33.0412 50.3305 33.073 50.6172 32.9962C50.9237 32.9141 51.4235 32.88 51.7192 32.9211C52.2635 32.9967 52.6903 33.1955 53.1352 33.5807C53.6846 34.0565 53.9877 34.662 54.0396 35.3879C54.0685 35.7926 54.0417 36.0676 53.943 36.378C53.6647 37.2524 52.9693 37.9433 52.1229 38.1861C51.8249 38.2717 51.2812 38.3092 50.9554 38.2666C50.5968 38.2199 50.0194 37.9758 49.7288 37.7482C48.9455 37.1346 48.5487 36.1789 48.6814 35.2255C48.7189 34.9557 48.6905 34.8527 48.5564 34.7723C48.3302 34.6368 48.1442 34.7829 48.0915 35.1373C48.0415 35.4736 48.1083 36.2862 48.2095 36.5741C48.5625 37.5779 49.2105 38.2799 50.1185 38.6419C50.5979 38.8331 50.9099 38.8891 51.4201 38.8759C51.9018 38.8633 52.247 38.7961 52.6057 38.6451C53.6315 38.2131 54.3308 37.3755 54.5854 36.2739C54.6515 35.9879 54.6546 35.9054 54.6193 35.3798C54.576 34.7331 54.5104 34.4933 54.2455 34.0128C53.5229 32.7018 51.9893 32.0405 50.5316 32.4114ZM40.2857 35.7407C40.5736 35.8831 40.7445 36.2379 40.679 36.5571C40.5391 37.2384 39.6147 37.376 39.2776 36.7656C39.069 36.3879 39.2371 35.8957 39.6384 35.7096C39.8035 35.633 40.0962 35.647 40.2857 35.7407ZM51.5353 34.8626C52.0975 34.9885 52.3037 35.7115 51.8951 36.1246C51.5426 36.4809 50.9824 36.4089 50.7173 35.9732C50.6216 35.8157 50.6051 35.7584 50.6093 35.597C50.6163 35.3234 50.7425 35.1013 50.9706 34.9608C51.1653 34.841 51.3192 34.8142 51.5353 34.8626Z" fill="white"/>
</svg>
