<svg width="83" height="83" viewBox="0 0 83 83" fill="none" xmlns="http://www.w3.org/2000/svg">
<path fill-rule="evenodd" clip-rule="evenodd" d="M11.975 1.0186C6.44871 2.15178 2.16068 6.10836 0.462815 11.6411C0.0699866 12.9212 0.0291941 13.2958 0.0202005 15.6994C0.0091191 18.6562 0.230266 19.7688 1.28091 22.0412C4.13366 28.2111 10.8191 31.7066 17.5298 30.5373C19.4262 30.2069 20.0395 29.6269 19.656 28.5274C19.3907 27.7672 18.7963 27.5797 17.4667 27.8368C16.0451 28.1119 13.7596 28.1059 12.4269 27.8237C9.97806 27.3051 8.10096 26.2646 6.1887 24.3655C5.01808 23.203 4.69126 22.7525 3.97643 21.3163C2.99885 19.3522 2.66015 17.9325 2.66015 15.7986C2.66015 12.2748 3.77343 9.58461 6.26 7.09984C8.76167 4.60013 11.4439 3.49889 15.0158 3.50531C17.1492 3.50916 18.5116 3.8335 20.4868 4.80732C21.9611 5.53415 22.3578 5.82479 23.6418 7.11845C24.8662 8.35225 25.2336 8.84847 25.8516 10.1027C26.2592 10.9301 26.7365 12.1782 26.9124 12.8765C27.2966 14.4024 27.3319 16.7265 26.9951 18.3148C26.7373 19.5306 26.8334 20.0082 27.4181 20.4175C27.9454 20.7864 28.6286 20.7378 29.0665 20.3002C29.3497 20.0172 29.5101 19.542 29.7243 18.353C30.3904 14.6567 29.5141 10.4748 27.4318 7.41246C25.1479 4.05352 21.7131 1.77256 17.7826 1.00464C16.3388 0.72251 13.3841 0.729571 11.975 1.0186ZM64.67 0.955372C63.3738 1.17058 61.0496 1.9913 59.8695 2.65073C54.3123 5.75642 51.2583 12.1394 52.3635 18.3386C52.7016 20.2339 53.436 20.987 54.4656 20.4939C55.2245 20.1305 55.3706 19.629 55.0958 18.3321C54.7977 16.9266 54.7945 14.6481 55.0884 13.2623C55.6073 10.8152 56.6487 8.93947 58.549 7.02858C59.7124 5.85881 60.1632 5.53222 61.6005 4.81791C63.5853 3.83141 64.9911 3.50146 67.1918 3.50531C70.6805 3.51157 73.6211 4.7542 75.9962 7.22582C78.3297 9.65426 79.4183 12.3543 79.4244 15.7291C79.4282 17.9282 79.098 19.3329 78.1108 21.3163C77.396 22.7525 77.0692 23.203 75.8985 24.3655C73.9863 26.2646 72.1092 27.3051 69.6603 27.8237C68.3047 28.1108 66.0062 28.1149 64.658 27.8328C63.9312 27.6807 63.4846 27.6629 63.1676 27.7733C62.6216 27.9636 62.1988 28.7084 62.3333 29.2438C62.5143 29.9637 63.0473 30.2741 64.5549 30.5368C72.2911 31.8849 79.6473 27.1385 81.7054 19.4708C82.1017 17.9937 82.25 15.1523 82.0108 13.6131C81.7418 11.8815 80.8754 9.48094 79.9699 7.95811C78.9376 6.22199 76.7239 4.0134 74.9606 2.96014C73.5099 2.09369 71.0759 1.19963 69.4699 0.943336C68.2392 0.746903 65.8909 0.752841 64.67 0.955372ZM13.0728 9.89932C11.8465 10.3042 11.1625 10.7501 10.3042 11.7038C9.26291 12.8612 8.85884 13.9939 8.85017 15.7796C8.8439 17.0771 8.89513 17.3333 9.353 18.2994C10.099 19.8728 10.9068 20.5823 13.3373 21.798C16.0206 23.1402 18.6628 24.8951 20.9045 26.8237C24.2847 29.7317 26.0721 32.1721 27.2737 35.5192C28.0178 37.5917 28.2632 39.1635 28.2632 41.8583C28.2632 45.2802 27.739 47.6025 26.3432 50.364C24.2503 54.5048 19.215 58.9749 13.3168 61.928C10.9134 63.1313 10.0921 63.8525 9.37067 65.393C6.96199 70.5364 12.3448 75.9153 17.4919 73.5084C19.0502 72.7798 19.7862 71.9456 20.9533 69.5855C23.8019 63.8253 28.3716 58.6581 32.4494 56.5868C37.551 53.9954 43.8732 53.8861 49.029 56.3005C50.9067 57.1798 52.6174 58.4049 54.297 60.0733C57.0531 62.811 59.3953 66.0696 61.1339 69.5855C62.3034 71.9504 63.0325 72.7747 64.6196 73.5261C65.5864 73.9836 65.8427 74.0348 67.1412 74.0285C69.1276 74.0189 70.1762 73.5984 71.4915 72.2842C72.8067 70.9699 73.2274 69.9221 73.2371 67.937C73.2433 66.6385 73.1923 66.3837 72.7323 65.4134C72.0009 63.8704 71.1515 63.1257 68.7475 61.919C63.9701 59.5212 59.2285 55.6902 56.9711 52.4041C52.6802 46.1582 52.6802 37.5585 56.9711 31.3126C59.2285 28.0265 63.9701 24.1954 68.7475 21.7976C71.1515 20.5909 72.0009 19.8463 72.7323 18.3032C73.1923 17.333 73.2433 17.0781 73.2371 15.7796C73.2274 13.7946 72.8067 12.7468 71.4915 11.4324C70.1762 10.1182 69.1276 9.69776 67.1412 9.68813C65.8427 9.68187 65.5864 9.73306 64.6196 10.1906C63.0492 10.9341 62.3346 11.7447 61.1278 14.1515C58.1726 20.0455 53.6992 25.0771 49.5554 27.1686C46.792 28.5633 44.4679 29.0872 41.0436 29.0872C37.6193 29.0872 35.2952 28.5633 32.5318 27.1686C28.3853 25.0758 23.8281 19.9445 20.9533 14.1311C19.7842 11.7669 19.0504 10.937 17.4799 10.2026C16.1093 9.56167 14.4432 9.44708 13.0728 9.89932ZM16.3915 12.6325C17.206 13.0082 17.6504 13.4929 18.0892 14.484C19.0126 16.5702 17.5266 18.9444 15.1544 19.1732C14.4379 19.2424 14.1644 19.1837 13.4213 18.8014C11.3512 17.7363 10.8426 15.2118 12.3519 13.4939C13.3295 12.3814 15.0509 12.0143 16.3915 12.6325ZM68.4713 12.5784C71.4581 13.8253 71.2 18.2036 68.0885 19.0741C65.562 19.781 63.1369 17.3577 63.8444 14.8329C64.3941 12.8707 66.5983 11.7967 68.4713 12.5784ZM21.2397 19.9923C23.1934 22.9223 26.7089 26.6252 28.9999 28.166C32.7123 30.6629 36.4699 31.7952 41.0436 31.7952C45.6174 31.7952 49.3749 30.6629 53.0874 28.166C55.3783 26.6252 58.8939 22.9223 60.8476 19.9923C61.3037 19.3082 61.727 18.7486 61.7884 18.7486C61.8499 18.7486 61.9432 18.8847 61.996 19.0509C62.1078 19.403 63.7488 20.9954 63.9998 20.9954C64.3369 20.9954 64.1603 21.3131 63.6871 21.5575C61.4983 22.6888 56.3332 27.463 54.7451 29.8233C52.235 33.5536 51.1141 37.269 51.1141 41.8583C51.1141 46.4485 52.2363 50.1676 54.7459 53.8934C56.2878 56.1827 59.9933 59.6957 62.9254 61.648C63.6099 62.1037 64.1701 62.5268 64.1701 62.5881C64.1701 62.6496 64.0283 62.7446 63.855 62.7996C63.6817 62.8547 63.1175 63.3602 62.6013 63.9232L61.6626 64.9466L60.8405 63.7136C58.8935 60.794 55.3745 57.0889 53.0874 55.5507C49.3605 53.0441 45.6239 51.9165 41.0436 51.9165C36.4633 51.9165 32.7268 53.0441 28.9999 55.5507C26.7181 57.0854 23.1939 60.7939 21.2564 63.6991L20.4436 64.9178L19.3009 63.7572C18.6723 63.1188 18.1219 62.5605 18.0778 62.5163C18.0336 62.4721 18.5395 62.0715 19.202 61.6261C22.1426 59.6488 25.8142 56.1607 27.3414 53.8934C29.8509 50.1676 30.9732 46.4485 30.9732 41.8583C30.9732 37.2682 29.8509 33.5491 27.3414 29.8233C25.802 27.5378 22.0942 24.0213 19.1726 22.0758L17.9387 21.2542L18.9628 20.3162C19.5262 19.8004 20.0321 19.2366 20.0872 19.0635C20.1423 18.8903 20.2374 18.7486 20.2989 18.7486C20.3602 18.7486 20.7836 19.3082 21.2397 19.9923ZM12.4749 53.1128C11.9992 53.1917 10.9597 53.474 10.165 53.7401C5.2646 55.3807 1.68386 59.2604 0.320523 64.4064C-0.104907 66.0127 -0.107316 69.7211 0.316187 71.3874C1.02122 74.1619 2.39532 76.6033 4.3389 78.5351C9.7847 83.9476 18.3449 84.4082 24.3444 79.6113C27.6968 76.9309 29.6742 73.0393 29.9094 68.6592C30.015 66.6885 29.6762 64.3444 29.1915 63.6938C28.7611 63.1161 28.1975 62.9469 27.6216 63.2228C26.8628 63.5861 26.7166 64.0877 26.9914 65.3845C27.2895 66.79 27.2927 69.0686 26.9988 70.4544C26.4805 72.8984 25.4413 74.7717 23.5366 76.6961C22.3618 77.8829 21.9331 78.1937 20.4852 78.9089C19.5294 79.3807 18.314 79.8419 17.6763 79.9746C16.3433 80.252 13.8603 80.2836 12.5265 80.0403C7.93185 79.2019 3.87059 75.2217 2.88916 70.5951C2.59527 69.2095 2.6004 66.7252 2.90041 65.2593C3.04318 64.5612 3.4768 63.403 3.96984 62.4019C4.68419 60.9515 4.99014 60.5296 6.18067 59.3527C8.10643 57.4494 9.98111 56.4109 12.4269 55.893C13.7596 55.6107 16.0451 55.6048 17.4667 55.8798C18.3161 56.0442 18.6391 56.0469 19.0051 55.8932C19.8845 55.5237 20.0177 54.3843 19.2606 53.707C18.5678 53.0873 14.6803 52.7469 12.4749 53.1128ZM64.4193 53.1908C62.6702 53.5063 62.0586 54.1211 62.4312 55.1893C62.6966 55.9495 63.2909 56.1369 64.6205 55.8798C66.0422 55.6048 68.3277 55.6107 69.6603 55.893C72.1129 56.4123 73.9916 57.455 75.892 59.3511C78.2394 61.6935 79.4236 64.547 79.426 67.8674C79.4272 69.7189 79.2165 70.9618 78.6671 72.3423C77.1188 76.2325 73.7314 79.1526 69.8012 79.9852C68.4171 80.2784 65.9309 80.2739 64.4615 79.9754C62.8445 79.6471 60.2953 78.3502 59.0463 77.2207C55.679 74.1757 54.181 69.6985 55.0921 65.4019C55.3499 64.186 55.2539 63.7084 54.6691 63.2992C53.6835 62.6094 52.7898 63.2143 52.436 64.8106C52.1001 66.3251 52.1421 70.0448 52.51 71.3874C53.793 76.0699 56.5162 79.4734 60.532 81.4137C62.6521 82.4381 64.0538 82.7939 66.3801 82.8979C68.5764 82.9959 70.1693 82.8014 71.8504 82.2294C76.6582 80.5941 80.1109 77.0071 81.6244 72.0756C82.0173 70.7954 82.058 70.4208 82.067 68.0173C82.0781 65.0605 81.857 63.9479 80.8063 61.6754C77.9399 55.4761 71.1732 51.9725 64.4193 53.1908ZM16.716 65.0417C17.9805 65.7822 18.6441 67.452 18.2429 68.8837C17.3867 71.9397 13.1351 72.268 11.7977 69.3814C10.9699 67.5949 11.8937 65.4092 13.78 64.6912C14.5563 64.3958 15.8835 64.5542 16.716 65.0417ZM68.1976 64.6697C70.716 65.4238 71.4212 68.781 69.4286 70.5293C67.7094 72.0376 65.1831 71.5293 64.1172 69.4607C63.7323 68.7133 63.6757 68.4472 63.7466 67.7141C63.8668 66.471 64.5126 65.5007 65.5962 64.935C66.5208 64.4523 67.2298 64.3801 68.1976 64.6697Z" fill="white"/>
</svg>
