<svg width="117" height="68" viewBox="0 0 117 68" fill="none" xmlns="http://www.w3.org/2000/svg">
<path d="M56.7857 25.141C56.4325 25.141 56.0873 25.2457 55.7936 25.4419C55.5 25.6381 55.2711 25.917 55.1359 26.2433C55.0008 26.5696 54.9654 26.9287 55.0343 27.2751C55.1032 27.6215 55.2733 27.9396 55.523 28.1894C55.7728 28.4391 56.0909 28.6092 56.4373 28.6781C56.7837 28.747 57.1428 28.7116 57.4691 28.5765C57.7954 28.4413 58.0743 28.2124 58.2705 27.9188C58.4667 27.6251 58.5714 27.2799 58.5714 26.9267H57.8571C57.8571 27.1386 57.7943 27.3457 57.6766 27.5219C57.5588 27.6981 57.3915 27.8355 57.1957 27.9166C57 27.9977 56.7845 28.0189 56.5767 27.9775C56.3689 27.9362 56.1779 27.8341 56.0281 27.6843C55.8783 27.5345 55.7762 27.3435 55.7349 27.1357C55.6935 26.9279 55.7148 26.7124 55.7958 26.5167C55.8769 26.3209 56.0143 26.1536 56.1905 26.0358C56.3667 25.9181 56.5738 25.8553 56.7857 25.8553V25.141ZM63.2143 25.141V25.8553C63.4262 25.8553 63.6333 25.9181 63.8095 26.0358C63.9857 26.1536 64.1231 26.3209 64.2042 26.5167C64.2852 26.7124 64.3065 26.9279 64.2651 27.1357C64.2238 27.3435 64.1217 27.5345 63.9719 27.6843C63.8221 27.8341 63.6311 27.9362 63.4233 27.9775C63.2155 28.0189 63 27.9977 62.8043 27.9166C62.6085 27.8355 62.4412 27.6981 62.3234 27.5219C62.2057 27.3457 62.1429 27.1386 62.1429 26.9267H61.4286C61.4286 27.2799 61.5333 27.6251 61.7295 27.9188C61.9257 28.2124 62.2046 28.4413 62.5309 28.5765C62.8572 28.7116 63.2163 28.747 63.5627 28.6781C63.9091 28.6092 64.2272 28.4391 64.477 28.1894C64.7267 27.9396 64.8968 27.6215 64.9657 27.2751C65.0346 26.9287 64.9992 26.5696 64.8641 26.2433C64.7289 25.917 64.5 25.6381 64.2064 25.4419C63.9127 25.2457 63.5675 25.141 63.2143 25.141ZM56.7857 18.7124C56.3121 18.7124 55.8579 18.9005 55.523 19.2354C55.1881 19.5703 55 20.0245 55 20.4981C55 20.9717 55.1881 21.4259 55.523 21.7608C55.8579 22.0957 56.3121 22.2838 56.7857 22.2838V21.5695C56.5738 21.5695 56.3667 21.5067 56.1905 21.389C56.0143 21.2712 55.8769 21.1039 55.7958 20.9081C55.7148 20.7124 55.6935 20.4969 55.7349 20.2891C55.7762 20.0813 55.8783 19.8903 56.0281 19.7405C56.1779 19.5907 56.3689 19.4886 56.5767 19.4473C56.7845 19.4059 57 19.4272 57.1957 19.5082C57.3915 19.5893 57.5588 19.7267 57.6766 19.9029C57.7943 20.0791 57.8571 20.2862 57.8571 20.4981H58.5714C58.571 20.0247 58.3827 19.5707 58.0479 19.2359C57.7131 18.9012 57.2592 18.7129 56.7857 18.7124ZM63.2143 18.7124C62.7408 18.7129 62.2869 18.9012 61.9521 19.2359C61.6173 19.5707 61.429 20.0247 61.4286 20.4981H62.1429C62.1429 20.2862 62.2057 20.0791 62.3234 19.9029C62.4412 19.7267 62.6085 19.5893 62.8043 19.5082C63 19.4272 63.2155 19.4059 63.4233 19.4473C63.6311 19.4886 63.8221 19.5907 63.9719 19.7405C64.1217 19.8903 64.2238 20.0813 64.2651 20.2891C64.3065 20.4969 64.2852 20.7124 64.2042 20.9081C64.1231 21.1039 63.9857 21.2712 63.8095 21.389C63.6333 21.5067 63.4262 21.5695 63.2143 21.5695V22.2838C63.6879 22.2838 64.1421 22.0957 64.477 21.7608C64.8119 21.4259 65 20.9717 65 20.4981C65 20.0245 64.8119 19.5703 64.477 19.2354C64.1421 18.9005 63.6879 18.7124 63.2143 18.7124Z" fill="white"/>
<path d="M61.4286 22.7889V24.6361L63.4668 26.6743C63.501 26.7072 63.5282 26.7467 63.5469 26.7902C63.5656 26.8338 63.5755 26.8807 63.5759 26.9281C63.5763 26.9755 63.5672 27.0225 63.5493 27.0664C63.5313 27.1103 63.5048 27.1502 63.4713 27.1837C63.4377 27.2173 63.3979 27.2438 63.354 27.2617C63.3101 27.2797 63.2631 27.2887 63.2156 27.2883C63.1682 27.2879 63.1213 27.2781 63.0778 27.2593C63.0342 27.2406 62.9948 27.2134 62.9618 27.1793L61.3547 25.5722C61.2648 25.8611 61.0848 26.1138 60.841 26.2932C60.5973 26.4726 60.3025 26.5694 59.9999 26.5694C59.6972 26.5694 59.4025 26.4726 59.1587 26.2932C58.915 26.1138 58.735 25.8611 58.6451 25.5722L57.0383 27.1793C56.9713 27.2463 56.8805 27.2839 56.7858 27.2839C56.6911 27.2839 56.6003 27.2463 56.5333 27.1793C56.4663 27.1123 56.4287 27.0215 56.4287 26.9268C56.4287 26.8321 56.4663 26.7413 56.5333 26.6743L58.5715 24.6361V22.7889L56.5333 20.7507C56.4663 20.6838 56.4287 20.5929 56.4287 20.4982C56.4287 20.4035 56.4663 20.3127 56.5333 20.2457C56.6003 20.1788 56.6911 20.1412 56.7858 20.1412C56.8805 20.1412 56.9713 20.1788 57.0383 20.2457L58.6454 21.8529C58.7354 21.5639 58.9154 21.3112 59.1591 21.1318C59.4029 20.9524 59.6976 20.8556 60.0002 20.8556C60.3029 20.8556 60.5976 20.9524 60.8414 21.1318C61.0851 21.3112 61.2651 21.5639 61.3551 21.8529L62.9622 20.2457C63.0296 20.1807 63.1198 20.1447 63.2134 20.1455C63.3071 20.1463 63.3966 20.1839 63.4629 20.2501C63.5291 20.3163 63.5666 20.4059 63.5674 20.4995C63.5683 20.5932 63.5323 20.6834 63.4672 20.7507L61.4286 22.7889ZM60.7143 22.2839C60.7143 22.0945 60.6391 21.9128 60.5051 21.7789C60.3712 21.6449 60.1895 21.5697 60.0001 21.5697C59.8106 21.5697 59.6289 21.6449 59.495 21.7789C59.361 21.9128 59.2858 22.0945 59.2858 22.2839V25.1411C59.2858 25.3305 59.361 25.5122 59.495 25.6462C59.6289 25.7801 59.8106 25.8554 60.0001 25.8554C60.1895 25.8554 60.3712 25.7801 60.5051 25.6462C60.6391 25.5122 60.7143 25.3305 60.7143 25.1411V22.2839Z" fill="white"/>
<path d="M21.0802 14.3616H14.9662V33H21.0802C26.7364 33 30.6418 29.1754 30.6418 23.6539C30.6418 18.1863 26.7364 14.3616 21.0802 14.3616ZM21.0533 30.3874H17.902V16.9742H21.0533C24.9587 16.9742 27.6521 19.6676 27.6521 23.627C27.6521 27.6401 24.9587 30.3874 21.0533 30.3874ZM44.738 24.435C46.758 23.6808 47.9701 21.957 47.9701 19.6407C47.9701 16.4086 45.6537 14.3616 42.0177 14.3616H33.6412V33H36.577V25.7547H41.9638C43.8492 25.7547 45.0073 27.0745 45.0073 28.9868V33H47.9431V29.0138C47.9431 26.5358 46.7311 24.9737 44.738 24.435ZM41.7214 23.3845H36.577V16.9742H41.7214C43.7145 16.9742 44.9535 18.1863 44.9535 20.1525C44.9535 22.1186 43.7145 23.3845 41.7214 23.3845ZM60.017 14.1192C54.4147 14.1192 50.3476 18.1324 50.3476 23.6539C50.3476 29.2292 54.4147 33.2424 60.017 33.2424C65.6462 33.2424 69.7132 29.2292 69.7132 23.6539C69.7132 18.1324 65.6462 14.1192 60.017 14.1192ZM60.017 16.8126C63.9224 16.8126 66.7235 19.6676 66.7235 23.6539C66.7235 27.6401 63.9224 30.549 60.017 30.549C56.1385 30.549 53.3373 27.6401 53.3373 23.6539C53.3373 19.6676 56.1385 16.8126 60.017 16.8126ZM72.5123 33H75.4481V21.3645C75.4481 18.6172 77.1718 16.8126 79.8114 16.8126C82.4509 16.8126 84.1747 18.6172 84.1747 21.3645V33H87.1105V21.2029C87.1105 16.9742 84.1478 14.1192 79.8114 14.1192C75.475 14.1192 72.5123 16.9742 72.5123 21.2029V33ZM103.67 16.9742V14.3616H90.8497V33H103.67V30.3874H93.7855V24.839H102.862V22.3341H93.7855V16.9742H103.67ZM26.3324 37.3616V45.4419H17.902V37.3616H14.9662V56H17.902V48.0545H26.3324V56H29.2682V37.3616H26.3324ZM41.9206 37.1192C36.3184 37.1192 32.2513 41.1324 32.2513 46.6539C32.2513 52.2292 36.3184 56.2424 41.9206 56.2424C47.5499 56.2424 51.6169 52.2292 51.6169 46.6539C51.6169 41.1324 47.5499 37.1192 41.9206 37.1192ZM41.9206 39.8126C45.8261 39.8126 48.6272 42.6676 48.6272 46.6539C48.6272 50.6401 45.8261 53.549 41.9206 53.549C38.0421 53.549 35.241 50.6401 35.241 46.6539C35.241 42.6676 38.0421 39.8126 41.9206 39.8126ZM68.8257 37.3616H65.8898V49.0241C65.8898 51.7444 64.1391 53.549 61.5265 53.549C58.887 53.549 57.1632 51.7444 57.1632 49.0241V37.3616H54.2274V49.1588C54.2274 53.3874 57.1901 56.2424 61.5265 56.2424C65.8629 56.2424 68.8257 53.3874 68.8257 49.1588V37.3616ZM78.6339 37.1192C74.6207 37.1192 71.8465 39.2201 71.8465 42.5868C71.8465 49.5358 82.8356 46.1421 82.8356 50.7748C82.8356 52.6332 81.1387 53.8453 78.6877 53.8453C75.8866 53.8453 74.2705 52.2831 74.2436 50.1553H71.3078C71.4155 53.7914 74.1628 56.2424 78.5531 56.2424C82.8356 56.2424 85.8253 54.1146 85.8253 50.6671C85.8253 43.5295 74.8362 47.0579 74.8362 42.4252C74.8362 40.6207 76.3714 39.5164 78.5531 39.5164C80.8963 39.5164 82.4046 40.8092 82.4854 42.9639H85.3404C85.2596 39.3817 82.5124 37.1192 78.6339 37.1192ZM101.619 39.9742V37.3616H88.7981V56H101.619V53.3874H91.7339V47.839H100.811V45.3341H91.7339V39.9742H101.619Z" fill="white"/>
<rect x="1.5" y="1.5" width="114" height="65" rx="8.5" stroke="white" stroke-width="3"/>
</svg>
