<svg width="228" height="47" viewBox="0 0 228 47" fill="none" xmlns="http://www.w3.org/2000/svg">
<g clip-path="url(#clip0_1_26251)">
<path d="M37.9949 8.29653C37.9723 8.06891 37.9655 7.86406 37.9044 7.61141C37.8796 7.49533 37.8502 7.36103 37.8208 7.26771C37.7914 7.18805 37.762 7.10611 37.7326 7.02644L37.6715 6.85346L37.6014 6.71006C37.5539 6.61674 37.5064 6.52341 37.4612 6.43009C37.0383 5.71083 36.4594 5.20325 35.8941 4.85956C34.7476 4.17672 33.6734 3.98552 32.8164 3.86944C32.242 3.7966 31.7535 3.78067 31.3533 3.78067V2.87704C31.3533 2.69495 31.3397 2.51513 31.3126 2.34215C31.1158 1.01288 30.2 0 29.11 0H6.53251C5.2978 0 4.28923 1.29512 4.28923 2.87704V12.6257C4.05857 12.7874 3.8053 12.9717 3.53394 13.1857C2.85553 13.7206 2.05953 14.4284 1.29519 15.4391C0.92206 15.9512 0.55798 16.543 0.2934 17.2691C0.164502 17.6333 0.0650017 18.0293 0.0220358 18.4618C0.010729 18.6826 -0.0186688 18.8851 0.010729 19.1514C0.0197744 19.2789 0.0333426 19.4064 0.0469108 19.5361C0.0627404 19.6271 0.0808313 19.7182 0.0966609 19.8092C0.284354 20.7698 0.876832 21.6324 1.59595 22.2811C2.32637 22.9184 3.17664 23.3623 4.04953 23.6992C5.80661 24.3501 7.68581 24.5914 9.5944 24.6369C10.551 24.662 11.5143 24.6187 12.4844 24.5391C13.4546 24.4617 14.4292 24.341 15.3993 24.168C16.3695 23.9973 17.3441 23.8016 18.3074 23.5535C19.2708 23.3054 20.2228 23.03 21.1907 22.7159L21.8714 22.4792L22.2332 22.3517L22.5837 22.2219C23.0518 22.0535 23.5131 21.8669 23.9744 21.6848C24.8948 21.3115 25.7926 20.8927 26.6768 20.4625C27.5587 20.0277 28.4158 19.5543 29.2479 19.0558C30.0801 18.5619 30.8829 18.0339 31.6472 17.4716C33.1782 16.3563 34.5735 15.1227 35.72 13.7319C36.2876 13.0332 36.8032 12.3048 37.2057 11.5104C37.6014 10.7183 37.9022 9.86251 37.9813 8.96799C38.0017 8.74493 38.0017 8.51959 37.9949 8.29653ZM14.4382 3.21391C14.4382 3.05685 14.5671 2.92711 14.7232 2.92711H20.9171C21.0754 2.92711 21.202 3.05685 21.202 3.21391V3.35731C21.202 3.51436 21.0731 3.6441 20.9171 3.6441H14.7232C14.5649 3.6441 14.4382 3.51436 14.4382 3.35731V3.21391ZM36.0976 8.28059C36.0795 8.41261 36.0569 8.54463 36.023 8.6812C35.7539 9.77147 34.9081 10.9323 33.8227 11.9839C32.7372 13.0468 31.4008 14.0301 29.9512 14.9406C29.2208 15.3913 28.4655 15.8351 27.6785 16.2494C26.8916 16.6636 26.082 17.0574 25.2566 17.4398C24.429 17.8176 23.5764 18.1613 22.7216 18.505C22.2897 18.6689 21.86 18.8373 21.4236 18.9898L21.098 19.1059L20.7791 19.2152L20.0962 19.4428C19.2369 19.725 18.3459 19.9959 17.4572 20.2349C16.5662 20.4648 15.6797 20.6878 14.791 20.8699C14.3478 20.961 13.9046 21.0429 13.4636 21.118C13.0226 21.1931 12.5839 21.2682 12.1475 21.3251C11.2746 21.4458 10.4085 21.5232 9.56274 21.571C7.87576 21.6484 6.24305 21.5755 4.84553 21.2204C4.14903 21.0452 3.52715 20.7857 3.02965 20.4648C2.54798 20.137 2.18842 19.7341 2.01882 19.2789L1.93063 19.0285C1.92158 18.983 1.91254 18.9329 1.89897 18.8851C1.86279 18.8009 1.86279 18.653 1.84696 18.5255C1.82661 18.2615 1.85374 17.9883 1.89445 17.7152C1.9849 17.1666 2.19747 16.6318 2.42587 16.1378C2.90754 15.15 3.50454 14.3306 4.02013 13.6796C4.11285 13.5635 4.20104 13.4565 4.28923 13.3496V19.5156C4.5606 19.6385 4.86362 19.7455 5.19152 19.8274C5.77721 19.9754 6.45336 20.0755 7.2064 20.1256V7.32006C7.2064 6.07957 7.99787 5.06213 8.96574 5.06213H26.679C27.6469 5.06213 28.4384 6.07729 28.4384 7.32006V14.1758C28.6849 14.0301 28.9359 13.8799 29.2072 13.7115C30.01 13.2062 30.7223 12.7145 31.3533 12.2229V4.12436C31.7219 4.22679 32.1606 4.36108 32.6558 4.5409C33.4179 4.82997 34.3496 5.2374 35.1162 5.93162C35.4916 6.27987 35.8104 6.69413 35.9778 7.16073L36.0275 7.34055L36.0524 7.42249C36.0479 7.40428 36.0411 7.3838 36.0433 7.3929L36.0456 7.40883L36.0524 7.4407L36.0637 7.50215C36.0795 7.58637 36.0976 7.66831 36.1134 7.75253C36.1225 7.82537 36.1112 7.86406 36.1157 7.91869C36.1248 8.00746 36.1044 8.15541 36.0976 8.28059Z" fill="#E9F9DB"/>
<path d="M28.4361 33.8325V39.6777C28.4361 40.9182 27.6446 41.9356 26.6768 41.9356H8.96348C7.99561 41.9356 7.20414 40.9204 7.20414 39.6777V38.5646C6.15486 38.4349 5.187 38.2323 4.28923 37.9546V44.1207C4.28923 45.7026 5.2978 46.9977 6.53251 46.9977H29.11C30.3447 46.9977 31.3533 45.7026 31.3533 44.1207V32.089C30.9078 32.3849 30.4487 32.674 29.9784 32.9562C29.4628 33.2658 28.9472 33.5571 28.4361 33.8325ZM17.8212 46.0395C16.98 46.0395 16.2971 45.3521 16.2971 44.5053C16.2971 43.6586 16.98 42.9712 17.8212 42.9712C18.6625 42.9712 19.3454 43.6586 19.3454 44.5053C19.3454 45.3521 18.6625 46.0395 17.8212 46.0395Z" fill="#E9F9DB"/>
<path d="M31.3533 24.8873V19.4291C30.9078 19.725 30.4487 20.0164 29.9784 20.2963C29.465 20.6036 28.9494 20.895 28.4384 21.1704V26.838C28.6849 26.6923 28.9359 26.5421 29.2072 26.3736C30.01 25.8706 30.7201 25.3767 31.3533 24.8873Z" fill="#E9F9DB"/>
<path d="M37.9949 20.9587C37.9723 20.7311 37.9655 20.5239 37.9044 20.2736C37.8796 20.1575 37.8502 20.0232 37.8208 19.9299C37.7914 19.8502 37.762 19.7683 37.7326 19.6886L37.6715 19.5156L37.6014 19.3722C37.5539 19.2789 37.5064 19.1856 37.4612 19.0923C37.0383 18.373 36.4594 17.8654 35.8941 17.5217C35.4531 17.26 35.0235 17.071 34.6119 16.9299C34.3315 17.1803 34.0443 17.4284 33.7413 17.6742C34.2116 17.9109 34.6888 18.2068 35.1162 18.5938C35.4916 18.942 35.8104 19.3563 35.9778 19.8229L36.0275 20.0027L36.0524 20.0847C36.0479 20.0664 36.0411 20.046 36.0433 20.0528L36.0456 20.0687L36.0524 20.1006L36.0637 20.162C36.0795 20.2463 36.0976 20.3282 36.1134 20.4147C36.1225 20.4875 36.1112 20.5262 36.1157 20.5808C36.1247 20.6696 36.1067 20.8176 36.0999 20.9428C36.0818 21.0748 36.0592 21.2068 36.0252 21.3434C35.7561 22.4336 34.9104 23.5945 33.8249 24.646C32.7395 25.709 31.403 26.6923 29.9535 27.6027C29.2231 28.0534 28.4678 28.4973 27.6808 28.9115C26.8939 29.3235 26.0843 29.7195 25.2589 30.1019C24.4312 30.4798 23.5787 30.8235 22.7239 31.1672C22.292 31.3311 21.8623 31.4995 21.4259 31.652L21.1002 31.7681L20.7814 31.8773L20.0984 32.1049C19.2391 32.3872 18.3481 32.658 17.4594 32.8993C16.5685 33.1292 15.682 33.3523 14.7933 33.5344C14.3501 33.6254 13.9068 33.7073 13.4659 33.7825C13.0249 33.8576 12.5862 33.9327 12.1497 33.9896C11.2769 34.1102 10.4108 34.1876 9.565 34.2354C7.87802 34.3128 6.24532 34.24 4.84779 33.8849C4.15129 33.7096 3.52941 33.4501 3.03191 33.1292C2.55024 32.8014 2.19069 32.3986 2.02108 31.9433L1.93289 31.693C1.92384 31.6429 1.9148 31.5951 1.90123 31.5473C1.86505 31.4631 1.86505 31.3151 1.84922 31.1877C1.82887 30.9236 1.856 30.6505 1.89671 30.3774C1.98716 29.8288 2.19973 29.2939 2.42813 28.8C2.9098 27.8121 3.5068 26.9927 4.02239 26.3418C4.11511 26.2257 4.20556 26.1164 4.2915 26.0117V32.1778C4.56286 32.3007 4.86588 32.4077 5.19378 32.4896C5.77947 32.6376 6.45562 32.7377 7.20866 32.7878V25.907C6.93277 25.8729 6.66367 25.8319 6.39683 25.7887C5.6551 25.6635 4.95408 25.5019 4.2915 25.297V25.2902C4.06084 25.4518 3.80756 25.6362 3.5362 25.8501C2.85779 26.385 2.06179 27.0906 1.29745 28.1035C0.924321 28.6156 0.560241 29.2074 0.295661 29.9335C0.166763 30.2977 0.0672631 30.6937 0.0242972 31.1262C0.0129903 31.347 -0.0164074 31.5496 0.0129903 31.8159C0.0220358 31.9433 0.035604 32.0708 0.0491722 32.2005C0.0650017 32.2916 0.0830927 32.3826 0.0989222 32.4737C0.286616 33.4342 0.879094 34.2969 1.59821 34.9456C2.32863 35.5829 3.1789 36.0267 4.05179 36.3636C5.80887 37.0146 7.68807 37.2558 9.59666 37.3014C10.5532 37.3264 11.5166 37.2832 12.4867 37.2035C13.4568 37.1261 14.4315 37.0055 15.4016 36.8325C16.3717 36.6618 17.3464 36.466 18.3097 36.2179C19.273 35.9675 20.2251 35.6944 21.1929 35.3803L21.8736 35.1436L22.2354 35.0161L22.5859 34.8864C23.0541 34.718 23.5154 34.5313 23.9767 34.3492C24.8971 33.9759 25.7948 33.5571 26.679 33.1269C27.561 32.6922 28.418 32.2188 29.2502 31.7203C30.0824 31.2264 30.8852 30.6983 31.6495 30.1361C33.1805 29.0208 34.5757 27.7871 35.7222 26.3964C36.2898 25.6976 36.8054 24.9692 37.2079 24.1749C37.6037 23.3828 37.9044 22.5269 37.9836 21.6324C38.0017 21.4071 38.0017 21.1795 37.9949 20.9587Z" fill="#E9F9DB"/>
</g>
<g clip-path="url(#clip1_1_26251)">
<path d="M66.5898 30.883V35.5173H51V11.5552H56.2534V30.883H66.5898Z" fill="#FFBF0B"/>
<path d="M91.5044 23.5151C91.5044 25.5667 91.2047 27.371 90.6112 28.9278C90.0177 30.4847 89.2009 31.782 88.1667 32.838C87.1325 33.888 85.9043 34.6785 84.4822 35.2035C83.0543 35.7345 81.5265 36 79.887 36C78.2945 36 76.7902 35.7345 75.374 35.2035C73.9578 34.6725 72.7238 33.882 71.6719 32.838C70.6201 31.7881 69.7856 30.4847 69.1804 28.9278C68.5751 27.371 68.2695 25.5667 68.2695 23.5151C68.2695 21.4634 68.581 19.6592 69.2156 18.1023C69.8444 16.5455 70.6906 15.2361 71.7542 14.1801C72.8178 13.118 74.0577 12.3275 75.4562 11.7965C76.8607 11.2655 78.3415 11 79.887 11C81.4795 11 82.9838 11.2655 84.4 11.7965C85.8162 12.3275 87.0502 13.1241 88.102 14.1801C89.1598 15.2421 89.9883 16.5455 90.5936 18.1023C91.1988 19.6592 91.5044 21.4634 91.5044 23.5151ZM73.6934 23.5151C73.6934 24.6918 73.8344 25.7538 74.1106 26.6951C74.3926 27.6425 74.7981 28.4511 75.3211 29.133C75.85 29.8149 76.4963 30.3398 77.2544 30.7079C78.0183 31.076 78.8939 31.2571 79.8811 31.2571C80.8448 31.2571 81.7145 31.076 82.4902 30.7079C83.2658 30.3398 83.9181 29.8149 84.4411 29.133C84.97 28.4511 85.3754 27.6425 85.6516 26.6951C85.9337 25.7478 86.0747 24.6918 86.0747 23.5151C86.0747 22.3384 85.9337 21.2764 85.6516 20.3169C85.3696 19.3635 84.97 18.5428 84.4411 17.861C83.9122 17.1791 83.2658 16.6541 82.4902 16.286C81.7145 15.9179 80.8448 15.7309 79.8811 15.7309C78.8939 15.7309 78.0183 15.9179 77.2544 16.3041C76.4905 16.6843 75.8441 17.2153 75.3211 17.8972C74.7922 18.573 74.3868 19.3937 74.1106 20.3531C73.8344 21.3065 73.6934 22.3625 73.6934 23.5151Z" fill="#FFBF0B"/>
<path d="M107.266 15.7007C104.822 15.7007 103.053 16.4007 101.966 17.7946C100.879 19.1885 100.332 21.0953 100.332 23.5151C100.332 24.6918 100.467 25.7538 100.738 26.7133C101.008 27.6667 101.413 28.4934 101.948 29.1873C102.489 29.8812 103.159 30.4123 103.97 30.7924C104.78 31.1726 105.721 31.3596 106.796 31.3596C107.378 31.3596 107.877 31.3476 108.295 31.3234C108.712 31.2993 109.076 31.251 109.388 31.1846V22.8573H114.641V34.7147C114.012 34.9681 113.001 35.2397 111.609 35.5293C110.216 35.819 108.5 35.9638 106.455 35.9638C104.704 35.9638 103.117 35.6862 101.69 35.1311C100.267 34.5759 99.0452 33.7734 98.0345 32.7113C97.0238 31.6493 96.2422 30.3459 95.6957 28.8011C95.1434 27.2563 94.873 25.4943 94.873 23.5091C94.873 21.4996 95.1727 19.7256 95.7839 18.1808C96.3891 16.636 97.2177 15.3326 98.2754 14.2585C99.3273 13.1844 100.573 12.3698 101.995 11.8207C103.417 11.2776 104.939 11 106.555 11C107.654 11 108.647 11.0784 109.534 11.2233C110.422 11.3741 111.186 11.5491 111.826 11.7422C112.467 11.9353 112.996 12.1405 113.407 12.3456C113.824 12.5508 114.118 12.7137 114.3 12.8284L112.784 17.1489C112.067 16.7567 111.239 16.4188 110.31 16.1291C109.376 15.8455 108.365 15.7007 107.266 15.7007Z" fill="#FFBF0B"/>
<path d="M141.743 23.5151C141.743 25.5667 141.443 27.371 140.849 28.9278C140.256 30.4847 139.439 31.782 138.411 32.838C137.377 33.888 136.148 34.6785 134.726 35.2035C133.298 35.7345 131.771 36 130.131 36C128.539 36 127.034 35.7345 125.618 35.2035C124.202 34.6725 122.968 33.882 121.916 32.838C120.858 31.7881 120.03 30.4847 119.425 28.9278C118.819 27.371 118.514 25.5667 118.514 23.5151C118.514 21.4634 118.831 19.6592 119.46 18.1023C120.089 16.5455 120.935 15.2361 122.004 14.1801C123.068 13.118 124.302 12.3275 125.706 11.7965C127.111 11.2655 128.586 11 130.131 11C131.724 11 133.228 11.2655 134.644 11.7965C136.06 12.3275 137.294 13.1241 138.346 14.1801C139.404 15.2421 140.232 16.5455 140.838 18.1023C141.437 19.6592 141.743 21.4634 141.743 23.5151ZM123.932 23.5151C123.932 24.6918 124.073 25.7538 124.349 26.6951C124.631 27.6425 125.036 28.4511 125.559 29.133C126.088 29.8149 126.729 30.3398 127.499 30.7079C128.262 31.076 129.138 31.2571 130.125 31.2571C131.089 31.2571 131.959 31.076 132.734 30.7079C133.51 30.3398 134.162 29.8149 134.685 29.133C135.214 28.4511 135.62 27.6425 135.896 26.6951C136.178 25.7478 136.319 24.6918 136.319 23.5151C136.319 22.3384 136.178 21.2764 135.896 20.3169C135.614 19.3635 135.214 18.5428 134.685 17.861C134.156 17.1791 133.51 16.6541 132.734 16.286C131.959 15.9179 131.089 15.7309 130.125 15.7309C129.138 15.7309 128.262 15.9179 127.499 16.3041C126.735 16.6843 126.088 17.2153 125.559 17.8972C125.03 18.573 124.625 19.3937 124.349 20.3531C124.073 21.3065 123.932 22.3625 123.932 23.5151Z" fill="#FFBF0B"/>
<path d="M162.649 11.5552V16.1533H155.615V35.5173H150.362V16.1533H143.322V11.5552H162.649Z" fill="#FFBF0B"/>
<path d="M166.018 35.5112V11.5552H181.778V16.0869H171.271V20.7876H180.597V25.2107H171.271V30.9855H182.553V35.5112H166.018Z" fill="#FFBF0B"/>
<path d="M200.504 35.5112C199.846 34.1777 199.129 32.826 198.348 31.4562C197.566 30.0864 196.667 28.9279 195.656 27.9805C195.345 28.3365 194.945 28.8313 194.464 29.4649C193.982 30.0985 193.5 30.7743 193.018 31.4864C192.536 32.1984 192.084 32.9406 191.666 33.701C191.249 34.4673 190.932 35.0707 190.732 35.5052H184.738C185.72 33.6346 186.877 31.7036 188.217 29.7123C189.557 27.721 191.044 25.603 192.689 23.3643L185.073 11.5552H191.437L195.886 18.4946L200.428 11.5552H206.422L198.847 23.1168C200.833 25.6693 202.467 28.0167 203.748 30.1407C205.035 32.2708 206.046 34.057 206.786 35.5112H200.504Z" fill="#FFBF0B"/>
<path d="M228.001 11.5552V16.1533H220.967V35.5173H215.714V16.1533H208.68V11.5552H228.001Z" fill="#FFBF0B"/>
</g>
<defs>
<clipPath id="clip0_1_26251">
<rect width="38" height="47" fill="white"/>
</clipPath>
<clipPath id="clip1_1_26251">
<rect width="177" height="25" fill="white" transform="translate(51 11)"/>
</clipPath>
</defs>
</svg>
