<svg width="83" height="83" viewBox="0 0 83 83" fill="none" xmlns="http://www.w3.org/2000/svg">
<path d="M48.0918 82.1815C52.6761 82.1815 57.2156 81.2786 61.4509 79.5243C65.6863 77.7699 69.5346 75.1985 72.7763 71.9569C76.0179 68.7153 78.5892 64.867 80.3436 60.6316C82.0979 56.3962 83.0009 51.8568 83.0009 47.2725L48.0918 47.2725L48.0918 82.1815Z" fill="#FF0D51"/>
<path opacity="0.1" d="M27 54.0005C30.5457 54.0005 34.0567 53.3021 37.3325 51.9452C40.6082 50.5884 43.5847 48.5996 46.0919 46.0924C48.5991 43.5852 50.5879 40.6087 51.9448 37.3329C53.3016 34.0572 54 30.5462 54 27.0005L27 27.0005L27 54.0005Z" fill="#E8F2FF"/>
</svg>
