<svg width="161" height="161" viewBox="0 0 161 161" fill="none" xmlns="http://www.w3.org/2000/svg">
<path opacity="0.67" d="M93.2852 160.344C102.178 160.344 110.983 158.593 119.199 155.19C127.414 151.787 134.879 146.799 141.167 140.511C147.455 134.223 152.443 126.758 155.846 118.542C159.249 110.327 161 101.521 161 92.6289L93.2852 92.6289L93.2852 160.344Z" fill="#FFBF0B"/>
<path opacity="0.3" d="M52.3734 105.678C59.2512 105.678 66.0617 104.323 72.4159 101.691C78.7701 99.0593 84.5437 95.2015 89.4071 90.3382C94.2704 85.4749 98.1282 79.7013 100.76 73.347C103.392 66.9928 104.747 60.1824 104.747 53.3046L52.3734 53.3046L52.3734 105.678Z" fill="#E8F2FF"/>
</svg>
