<svg width="119" height="107" viewBox="0 0 119 107" fill="none" xmlns="http://www.w3.org/2000/svg">
<g clip-path="url(#clip0_1_27665)">
<path d="M23.5364 39.6917C22.8277 40.5715 22.1433 41.4758 21.459 42.3557L170.669 191.566C171.573 190.881 172.453 190.197 173.333 189.488L23.5364 39.6917Z" fill="#FFBF0B"/>
<path d="M4.37416 76.1326C4.00755 77.379 3.66538 78.6255 3.34766 79.872L133.152 209.676C134.398 209.358 135.645 209.016 136.891 208.65L4.37416 76.1326Z" fill="#FFBF0B"/>
<path d="M15.8369 50.5432C15.2259 51.5208 14.6393 52.5229 14.0527 53.525L159.474 198.947C160.476 198.36 161.479 197.773 162.456 197.162L15.8369 50.5432Z" fill="#FFBF0B"/>
<path d="M9.40879 62.6414C8.91998 63.7412 8.43117 64.841 7.9668 65.9653L147.058 205.057C148.183 204.592 149.282 204.128 150.382 203.615L9.40879 62.6414Z" fill="#FFBF0B"/>
<path d="M1.05036 91.3591C0.854837 92.7767 0.683753 94.1698 0.537109 95.5874L117.412 212.462C118.83 212.316 120.247 212.145 121.64 211.949L1.05036 91.3591Z" fill="#FFBF0B"/>
<path d="M31.1868 31.1863C30.7958 31.5774 30.4047 31.9929 30.0137 32.3839L180.641 183.011C181.032 182.62 181.448 182.229 181.839 181.838C182.23 181.447 182.621 181.032 183.012 180.641L32.3844 30.0132C31.9689 30.3798 31.5779 30.7708 31.1868 31.1863Z" fill="#FFBF0B"/>
<path d="M113.82 0.219966C112.158 0.122203 110.496 0.0244406 108.834 0L213 104.166C212.975 102.504 212.878 100.842 212.78 99.18L113.82 0.219966Z" fill="#FFBF0B"/>
<path d="M95.5876 0.537598C94.17 0.684241 92.7525 0.855326 91.3594 1.05085L211.974 121.665C212.169 120.248 212.34 118.855 212.487 117.437L95.5876 0.537598Z" fill="#FFBF0B"/>
<path d="M53.5013 14.0535C52.4992 14.64 51.4972 15.2266 50.5195 15.8376L197.163 162.481C197.774 161.504 198.361 160.502 198.947 159.5L53.5013 14.0535Z" fill="#FFBF0B"/>
<path d="M42.3554 21.4343C41.4511 22.1187 40.5713 22.803 39.6914 23.5118L189.488 173.308C190.197 172.428 190.881 171.524 191.565 170.644L42.3554 21.4343Z" fill="#FFBF0B"/>
<path d="M79.8722 3.34839C78.6258 3.66612 77.3793 4.00829 76.1328 4.37489L208.625 136.867C208.992 135.621 209.334 134.375 209.652 133.128L79.8722 3.34839Z" fill="#FFBF0B"/>
<path d="M65.9411 7.96753C64.8168 8.4319 63.717 8.89627 62.6172 9.40953L203.591 150.383C204.079 149.283 204.568 148.183 205.033 147.059L65.9411 7.96753Z" fill="#FFBF0B"/>
</g>
<defs>
<clipPath id="clip0_1_27665">
<rect width="213" height="213" fill="white"/>
</clipPath>
</defs>
</svg>
