<svg width="139" height="107" viewBox="0 0 139 107" fill="none" xmlns="http://www.w3.org/2000/svg">
<g clip-path="url(#clip0_1_27646)">
<path d="M-50.4636 39.6917C-51.1723 40.5715 -51.8567 41.4758 -52.541 42.3557L96.669 191.566C97.5733 190.881 98.4531 190.197 99.333 189.488L-50.4636 39.6917Z" fill="#FF0D51"/>
<path d="M-69.6258 76.1326C-69.9924 77.379 -70.3346 78.6255 -70.6523 79.872L59.1518 209.676C60.3983 209.358 61.6447 209.016 62.8912 208.65L-69.6258 76.1326Z" fill="#FF0D51"/>
<path d="M-58.1631 50.5432C-58.7741 51.5208 -59.3607 52.5229 -59.9473 53.525L85.4744 198.947C86.4765 198.36 87.4786 197.773 88.4562 197.162L-58.1631 50.5432Z" fill="#FF0D51"/>
<path d="M-64.5912 62.6414C-65.08 63.7412 -65.5688 64.841 -66.0332 65.9653L73.0583 205.057C74.1826 204.592 75.2825 204.128 76.3823 203.615L-64.5912 62.6414Z" fill="#FF0D51"/>
<path d="M-72.9496 91.3591C-73.1452 92.7767 -73.3162 94.1698 -73.4629 95.5874L43.4121 212.462C44.8297 212.316 46.2473 212.145 47.6404 211.949L-72.9496 91.3591Z" fill="#FF0D51"/>
<path d="M-42.8132 31.1863C-43.2042 31.5774 -43.5953 31.9929 -43.9863 32.3839L106.641 183.011C107.032 182.62 107.448 182.229 107.839 181.838C108.23 181.447 108.621 181.032 109.012 180.641L-41.6156 30.0132C-42.0311 30.3798 -42.4221 30.7708 -42.8132 31.1863Z" fill="#FF0D51"/>
<path d="M39.8199 0.219966C38.1579 0.122203 36.4959 0.0244406 34.834 0L139 104.166C138.975 102.504 138.878 100.842 138.78 99.18L39.8199 0.219966Z" fill="#FF0D51"/>
<path d="M21.5876 0.537598C20.17 0.684241 18.7525 0.855326 17.3594 1.05085L137.974 121.665C138.169 120.248 138.34 118.855 138.487 117.437L21.5876 0.537598Z" fill="#FF0D51"/>
<path d="M62.3546 4.22834C60.2283 3.61733 58.1019 3.05519 55.9512 2.59082L136.434 83.0738C135.945 80.923 135.408 78.7967 134.797 76.6703L62.3546 4.22834Z" fill="#FF0D51"/>
<path d="M124.31 52.4006C119.838 44.824 114.339 37.6873 107.838 31.1861C101.336 24.6849 94.1996 19.1858 86.623 14.7131L124.31 52.4006Z" fill="#FF0D51"/>
<path d="M-20.4987 14.0535C-21.5008 14.64 -22.5028 15.2266 -23.4805 15.8376L123.163 162.481C123.774 161.504 124.361 160.502 124.947 159.5L-20.4987 14.0535Z" fill="#FF0D51"/>
<path d="M-31.6446 21.4343C-32.5489 22.1187 -33.4287 22.803 -34.3086 23.5118L115.488 173.308C116.197 172.428 116.881 171.524 117.565 170.644L-31.6446 21.4343Z" fill="#FF0D51"/>
<path d="M5.87223 3.34839C4.62576 3.66612 3.37928 4.00829 2.13281 4.37489L134.625 136.867C134.992 135.621 135.334 134.375 135.652 133.128L5.87223 3.34839Z" fill="#FF0D51"/>
<path d="M-8.05889 7.96753C-9.18316 8.4319 -10.283 8.89627 -11.3828 9.40953L129.591 150.383C130.079 149.283 130.568 148.183 131.033 147.059L-8.05889 7.96753Z" fill="#FF0D51"/>
</g>
<defs>
<clipPath id="clip0_1_27646">
<rect width="213" height="213" fill="white" transform="translate(-74)"/>
</clipPath>
</defs>
</svg>
