<svg width="305" height="59" viewBox="0 0 305 59" fill="none" xmlns="http://www.w3.org/2000/svg">
<path d="M296.33 58.4539L304.452 50.3546L283.554 29.4999L304.452 8.64513L296.33 0.545898L267.295 29.4999L296.33 58.4539Z" stroke="#FFBF0B" stroke-width="0.5098" stroke-miterlimit="10"/>
<path opacity="0.9375" d="M266.884 29.4999L287.782 8.64513L279.66 0.545898L250.625 29.4999L279.66 58.4539L287.782 50.3546L266.884 29.4999Z" stroke="#FFBF0B" stroke-width="0.5098" stroke-miterlimit="10"/>
<path opacity="0.875" d="M250.199 29.4999L271.112 8.64513L262.99 0.545898L233.955 29.4999L262.99 58.4539L271.112 50.3546L250.199 29.4999Z" stroke="#FFBF0B" stroke-width="0.5098" stroke-miterlimit="10"/>
<path opacity="0.8125" d="M233.529 29.4999L254.442 8.64513L246.32 0.545898L217.285 29.4999L246.32 58.4539L254.442 50.3546L233.529 29.4999Z" stroke="#FFBF0B" stroke-width="0.5098" stroke-miterlimit="10"/>
<path opacity="0.75" d="M216.859 29.4999L237.773 8.64513L229.635 0.545898L200.615 29.4999L229.635 58.4539L237.773 50.3546L216.859 29.4999Z" stroke="#FFBF0B" stroke-width="0.5098" stroke-miterlimit="10"/>
<path opacity="0.6875" d="M200.189 29.4999L221.102 8.64513L212.965 0.545898L183.93 29.4999L212.965 58.4539L221.102 50.3546L200.189 29.4999Z" stroke="#FFBF0B" stroke-width="0.5098" stroke-miterlimit="10"/>
<path opacity="0.625" d="M183.519 29.4999L204.432 8.64513L196.295 0.545898L167.26 29.4999L196.295 58.4539L204.432 50.3546L183.519 29.4999Z" stroke="#FFBF0B" stroke-width="0.5098" stroke-miterlimit="10"/>
<path opacity="0.5625" d="M166.849 29.4999L187.747 8.64513L179.625 0.545898L150.59 29.4999L179.625 58.4539L187.747 50.3546L166.849 29.4999Z" stroke="#FFBF0B" stroke-width="0.5098" stroke-miterlimit="10"/>
<path opacity="0.5" d="M150.179 29.4999L171.077 8.64513L162.955 0.545898L133.92 29.4999L162.955 58.4539L171.077 50.3546L150.179 29.4999Z" stroke="#FFBF0B" stroke-width="0.5098" stroke-miterlimit="10"/>
<path opacity="0.4375" d="M133.509 29.4999L154.407 8.64513L146.285 0.545898L117.25 29.4999L146.285 58.4539L154.407 50.3546L133.509 29.4999Z" stroke="#FFBF0B" stroke-width="0.5098" stroke-miterlimit="10"/>
<path opacity="0.375" d="M116.824 29.4999L137.737 8.64513L129.615 0.545898L100.58 29.4999L129.615 58.4539L137.737 50.3546L116.824 29.4999Z" stroke="#FFBF0B" stroke-width="0.5098" stroke-miterlimit="10"/>
<path opacity="0.3125" d="M100.156 29.4999L121.069 8.64513L112.947 0.545898L83.9121 29.4999L112.947 58.4539L121.069 50.3546L100.156 29.4999Z" stroke="#FFBF0B" stroke-width="0.5098" stroke-miterlimit="10"/>
<path opacity="0.25" d="M83.4861 29.4999L104.399 8.64513L96.2623 0.545898L67.2422 29.4999L96.2623 58.4539L104.399 50.3546L83.4861 29.4999Z" stroke="#FFBF0B" stroke-width="0.5098" stroke-miterlimit="10"/>
<path opacity="0.1875" d="M66.8158 29.4999L87.7291 8.64513L79.5919 0.545898L50.5566 29.4999L79.5919 58.4539L87.7291 50.3546L66.8158 29.4999Z" stroke="#FFBF0B" stroke-width="0.5098" stroke-miterlimit="10"/>
<path opacity="0.125" d="M50.1459 29.4999L71.0592 8.64513L62.922 0.545898L33.8867 29.4999L62.922 58.4539L71.0592 50.3546L50.1459 29.4999Z" stroke="#FFBF0B" stroke-width="0.5098" stroke-miterlimit="10"/>
<path opacity="0.0625" d="M33.476 29.4999L54.3741 8.64513L46.2521 0.545898L17.2168 29.4999L46.2521 58.4539L54.3741 50.3546L33.476 29.4999Z" stroke="#FFBF0B" stroke-width="0.5098" stroke-miterlimit="10"/>
</svg>
