<svg width="475" height="542" viewBox="0 0 475 542" fill="none" xmlns="http://www.w3.org/2000/svg">
<g clip-path="url(#clip0_1_27576)">
<path d="M183.925 -158.782C215.542 -124.817 230.47 -82.5846 242.195 -38.5075C253.477 3.91039 263.689 47.6306 289.168 84.1837C341.695 159.55 436.206 191.264 523.453 203.048C620.965 216.202 723.13 210.275 816.572 245.287C862.403 262.463 905.194 291.626 928.096 336.049C947.064 372.857 945.686 412.989 932.575 451.444C925.12 473.292 914.952 493.968 904.486 514.521L913.607 519.787C916.576 513.965 919.544 508.144 922.38 502.295C938.966 468.333 954.113 431.841 953.49 393.386C952.767 349.702 930.19 309.185 898.024 280.641C858.783 245.795 807.573 227.852 756.883 217.474C708.041 207.473 658.141 204.323 608.522 200.646C513.802 193.635 410.75 182.502 335.186 118.78C317.506 103.869 302.103 86.3329 290.347 66.3955C278.719 46.7045 270.933 25.1682 264.503 3.28238C251.921 -39.5657 244.079 -84.4541 222.316 -123.91C199.793 -164.691 163.485 -197.892 120.933 -216.747C120.878 -216.779 120.812 -216.792 120.738 -216.835L115.332 -207.471C141.139 -196.167 164.553 -179.57 183.925 -158.782Z" fill="#FFBF0B"/>
<path d="M152.38 8.92695C221.478 92.8268 336.55 117.696 420.921 123.78C464.345 126.91 508.645 126.482 551.494 126.054C606.97 125.504 664.326 124.93 720.168 132.127C774.668 139.139 907.173 167.006 960.203 273.715C990.701 335.108 990.111 415.538 958.443 512.773C955.473 521.918 952.254 531.067 948.999 540.195L950.878 541.28C954.19 532.012 957.446 522.712 960.473 513.428C992.326 415.66 992.882 334.692 962.12 272.778C908.622 165.134 775.289 137.084 720.449 130.023C664.464 122.818 607.024 123.368 551.472 123.923C508.651 124.343 464.399 124.774 421.069 121.65C337.097 115.598 222.616 90.8982 154.008 7.55256C129.569 -22.1206 112.261 -57.847 95.52 -92.3844C88.5293 -106.788 81.4522 -121.34 73.8216 -135.571L72.574 -133.41C79.9612 -119.565 86.8161 -105.437 93.6031 -91.4472C110.394 -56.7827 127.773 -20.9662 152.38 8.92695Z" fill="white"/>
</g>
<defs>
<clipPath id="clip0_1_27576">
<rect width="1098" height="274" fill="white" transform="translate(137 -245) rotate(30)"/>
</clipPath>
</defs>
</svg>
