<svg width="185" height="197" viewBox="0 0 185 197" fill="none" xmlns="http://www.w3.org/2000/svg">
<g opacity="0.25">
<path d="M36.5397 0.379278C36.8594 1.01648 37.3162 1.57782 37.7121 2.18467C34.4688 4.21763 33.54 6.44782 34.8647 8.78421C35.9001 10.6351 38.4278 11.4392 40.3768 10.3469C41.1686 9.90689 42.2344 8.99661 42.2497 8.26838C42.3106 6.38713 41.8538 4.49072 41.5797 2.33638C42.5085 1.7447 43.2242 1.07716 43.7114 0.348936L36.5397 0.379278Z" fill="#8D9F7E"/>
<path d="M-39 0.606845L-38.9848 5.74993C-38.9696 5.74993 -38.9543 5.73476 -38.9391 5.74993C-38.2539 5.90165 -37.6905 6.55402 -36.6855 7.28224C-37.66 7.85875 -38.2996 8.52629 -38.7107 8.42009C-38.802 8.38975 -38.8934 8.32906 -38.9848 8.28355L-38.9543 16.3699C-38.9239 16.4457 -38.8782 16.5064 -38.863 16.5671C-38.8477 16.6581 -38.8782 16.7643 -38.9543 16.8857L-38.8477 50.9757C-38.2996 50.6268 -37.6601 50.2172 -36.9596 49.7772C-36.4115 50.5054 -36.0003 51.1578 -35.4979 51.704C-34.9649 52.2805 -34.3254 52.766 -33.6554 53.3576C-37.4164 54.4348 -38.8173 56.4526 -37.8885 59.229C-37.1576 61.4288 -34.6299 62.6273 -32.3764 61.5957C-31.4932 61.2012 -30.6101 60.3516 -30.1838 59.4869C-29.0874 57.2415 -30.3512 55.3603 -31.8282 53.5852C-30.5187 52.8266 -29.4529 52.2198 -28.4327 51.6281C-25.9355 54.7534 -23.7124 55.5727 -21.5959 54.101C-20.8498 53.5852 -19.921 52.5839 -19.9514 51.8405C-20.0123 50.0048 -20.5909 48.1994 -21.0173 46.1057C-20.865 46.0147 -20.2559 45.6809 -19.7078 45.2713C-19.0987 44.8162 -18.5505 44.3003 -17.8653 43.7087C-17.5456 44.2397 -17.302 44.6493 -17.0431 45.0437C-15.7488 47.0464 -13.4039 47.7442 -11.3483 46.7278C-9.50588 45.8175 -8.69887 43.648 -9.3993 41.4936C-10.3129 38.7173 -10.0693 38.2015 -7.28279 37.0029C-4.77038 40.022 -2.56251 40.7502 -0.369862 39.2938C1.85324 37.807 1.85324 35.5465 -0.430767 31.6626C0.635101 30.722 1.71619 29.7662 2.81252 28.7952C4.38087 32.406 6.55829 33.6197 9.20773 32.406C11.8724 31.1923 12.0551 28.7345 9.77111 24.5472C10.9893 23.5763 12.2074 22.6205 13.4408 21.6343C14.7046 25.0782 16.8363 26.4133 19.4401 25.2906C20.3232 24.9114 21.2216 24.0618 21.6327 23.197C22.7138 20.9516 21.5566 19.0552 19.9578 17.2953C21.2825 16.5216 22.3484 15.8996 23.3686 15.2927C25.9419 18.4635 28.2259 19.2069 30.4185 17.705C32.0935 16.5519 32.6416 14.1094 31.6367 12.2433C30.4185 9.93723 28.3934 9.74 23.9776 11.5302C23.262 10.5593 22.5311 9.57312 21.7545 8.52629C22.927 7.5705 23.9929 6.7209 25.074 5.84096C26.9164 9.33037 29.109 10.4682 31.5757 9.11798C32.3675 8.67801 33.4334 7.73738 33.4334 7.02433C33.4334 5.0824 32.9157 3.12529 32.5655 0.910276C32.7482 0.758562 32.9462 0.576506 33.1593 0.39445L29.2461 0.409621C29.3983 0.576506 29.5506 0.728219 29.7029 0.895104C28.4391 1.5323 27.0686 2.21501 25.4851 3.00392C24.9674 2.24535 24.3887 1.38059 23.7492 0.424792L17.9174 0.439963C17.5824 0.667533 17.2322 0.910275 16.9124 1.13785C16.6688 0.895104 16.4709 0.667533 16.2881 0.455134L-18.2308 0.561332C-18.0176 0.834417 -17.8501 1.1075 -17.8958 1.19853C-18.3221 2.03295 -19.0226 2.71566 -19.6316 3.45906C-19.9209 3.3832 -20.2255 3.29218 -20.5148 3.21632C-20.6823 2.42741 -21.1543 1.54747 -20.9259 0.910273C-20.8802 0.788902 -20.7889 0.682703 -20.6671 0.576503L-27.0775 0.591675C-27.382 1.01647 -27.9911 1.50196 -28.524 2.13915C-28.9351 1.50196 -29.392 1.01647 -29.6356 0.591674L-39 0.606845ZM-30.9451 7.52498C-30.0924 6.94847 -29.4224 6.87261 -28.9199 7.88909C-28.1129 9.54277 -29.4986 9.83103 -30.5644 10.5289C-31.4476 9.43657 -32.5896 8.63249 -30.9451 7.52498ZM-22.1897 11.4999C-23.0577 10.5896 -22.7988 9.58829 -21.6873 8.92075C-19.9666 7.87392 -19.8296 9.5276 -18.7028 10.5744C-20.2407 10.9082 -20.7127 13.0625 -22.1897 11.4999ZM-12.6121 13.639C-13.3582 13.4266 -14.4393 12.1522 -14.3023 11.6212C-14.0739 10.7565 -12.9623 10.1345 -11.729 8.90557C-11.1199 10.4986 -10.4042 11.4695 -10.5108 12.3798C-10.5565 12.9108 -12.0335 13.8059 -12.6121 13.639ZM-33.9143 17.4622C-32.9398 16.7643 -32.2393 15.8692 -31.5694 15.8996C-30.9146 15.9299 -30.3056 16.9009 -29.6813 17.4622C-30.3208 18.0994 -30.8994 19.1159 -31.6303 19.2373C-32.1937 19.3131 -32.9398 18.2511 -33.9143 17.4622ZM-22.7836 20.8151C-23.5601 20.4206 -24.5042 19.4345 -24.489 18.6911C-24.4737 17.9629 -23.3774 17.265 -22.342 16.0968C-21.6568 17.6594 -21.0325 18.6304 -20.9107 19.6621C-20.865 20.011 -22.4181 21.0123 -22.7836 20.8151ZM-13.7237 22.226C-14.5459 21.9378 -15.3834 21.0275 -15.6727 20.1779C-15.7945 19.8138 -14.3327 18.3725 -14.013 18.509C-13.0994 18.858 -12.4142 19.7683 -11.2874 20.7696C-12.3533 21.4371 -13.2364 22.3929 -13.7237 22.226ZM-34.9802 26.3071C-34.6908 25.4879 -33.6554 24.5928 -32.818 24.441C-32.285 24.35 -30.8537 25.8065 -30.9755 26.1251C-31.3105 27.0202 -32.2698 27.6877 -33.29 28.78C-34.0513 27.7181 -35.1476 26.7774 -34.9802 26.3071ZM-35.2695 33.5135C-33.1834 32.1329 -33.1529 34.4086 -31.8739 35.2127C-33.0311 36.0319 -34.0056 36.7147 -35.102 37.4884C-36.2897 35.9864 -37.2337 34.8031 -35.2695 33.5135ZM-24.0017 46.0754C-25.2351 46.6671 -26.4532 47.2588 -27.7779 47.8959C-28.5393 46.8795 -29.2701 45.9085 -30.1076 44.801C-29.0113 44.0728 -28.052 43.4356 -26.9861 42.7377C-25.8898 43.9514 -24.9762 44.983 -24.0017 46.0754ZM-33.3661 44.4217C-34.295 45.1348 -35.2086 45.8326 -36.1069 46.5305C-39.2132 43.7087 -39.1827 43.0866 -35.7263 41.1599C-34.9193 42.2674 -34.1884 43.2687 -33.3661 44.4217ZM-14.2414 38.3835C-15.3682 39.2483 -16.3579 40.0068 -17.5303 40.902C-18.3069 39.7944 -18.9312 38.8842 -19.6773 37.807C-18.5962 37.0333 -17.6065 36.3202 -16.4036 35.4554C-15.6575 36.4567 -14.9875 37.367 -14.2414 38.3835ZM-23.0729 37.1243C-24.1387 37.8829 -25.0828 38.5352 -26.2248 39.3393C-26.9861 38.1863 -27.6561 37.1698 -28.4022 36.032C-27.3211 35.2886 -26.3618 34.6362 -25.2503 33.8776C-24.5194 34.97 -23.8342 35.9864 -23.0729 37.1243ZM-3.65883 31.1164C-4.77038 31.9812 -5.77534 32.7549 -6.76508 33.5287C-9.73429 30.6765 -9.6886 30.2517 -6.04942 28.3552C-5.33377 29.1897 -4.57243 30.0696 -3.65883 31.1164ZM-12.9776 29.9786C-13.7694 30.6461 -14.5764 31.3288 -15.627 32.2088C-16.4949 30.9192 -17.1345 29.9482 -17.7588 29.0076C-15.1702 26.8685 -15.018 26.8988 -12.9776 29.9786ZM-24.4585 30.3579C-26.6968 27.4601 -26.6511 27.3691 -24.961 26.0644C-23.4688 24.9114 -22.9967 26.0492 -22.4333 26.9747C-21.0325 29.3717 -23.7885 29.0683 -24.4585 30.3579ZM5.85785 22.7267C6.29943 23.1515 6.80191 23.5156 7.35007 23.9556C5.87309 24.7748 4.60926 25.4727 3.34545 26.1706C0.833042 23.5004 0.863495 23.3487 4.38086 21.1185C4.9138 21.7102 5.35537 22.2412 5.85785 22.7267ZM-3.65883 20.9516C-2.41024 22.5446 -3.53701 23.2425 -4.60288 23.8645C-6.90211 25.2299 -6.50622 22.4233 -7.60254 21.7254C-6.23214 21.4219 -5.50126 18.5849 -3.65883 20.9516ZM17.9326 16.9009C16.5775 17.5684 15.1766 18.2663 13.6235 19.04C12.9839 18.0539 12.2683 16.9767 11.4765 15.763C12.6185 14.9893 13.6387 14.2914 14.735 13.548C15.8313 14.7162 16.9124 15.8389 17.9326 16.9009ZM8.03527 14.9741C4.89857 17.8112 4.89857 17.8112 2.81252 14.4431C3.86316 13.6997 4.82244 13.0322 5.9949 12.2129C6.71056 13.1839 7.38053 14.079 8.03527 14.9741ZM-0.202366 13.4873C-1.93821 14.61 -2.85181 15.2017 -4.06995 15.9754C-4.60289 14.8679 -5.42513 13.8514 -5.4099 12.8501C-5.39468 12.2736 -3.88723 11.1661 -3.26294 11.3026C-2.25797 11.4999 -1.43573 12.5467 -0.202366 13.4873ZM18.5874 8.02564C17.4758 8.84489 16.5318 9.54277 15.4659 10.3317C14.7198 9.14832 14.0346 8.05598 13.2124 6.75124C14.0955 6.0837 14.9482 5.43134 15.9379 4.67277C16.8211 5.81062 17.6281 6.81193 18.5874 8.02564ZM9.54271 6.25059C8.37026 7.06984 7.45667 7.72221 6.43648 8.43526C5.24879 6.85744 3.87839 5.68925 6.05581 4.35417C8.32459 2.94324 8.18754 5.49202 9.54271 6.25059ZM-1.96867 2.85221C-1.16166 3.20115 -0.643944 4.2328 -0.00442123 4.99137C-0.674397 5.52237 -1.42051 6.55402 -2.01435 6.47816C-2.92795 6.35679 -3.73497 5.47685 -4.57243 4.91551C-4.42017 4.61208 -4.26789 4.29349 -4.11563 3.99006C-3.36952 3.58043 -2.42547 2.65498 -1.96867 2.85221ZM-12.2162 2.29087C-12.1706 1.82055 -10.8458 1.07716 -10.2368 1.18336C-9.61247 1.30473 -8.57705 2.56395 -8.7141 2.86738C-9.14044 3.76249 -10.0541 4.43003 -11.1961 5.65891C-11.7138 4.11143 -12.3228 3.1708 -12.2162 2.29087Z" fill="#8D9F7E"/>
<path d="M9.99952 39.8703C6.77146 42.1005 4.16769 42.0853 2.64502 39.9006C1.36598 38.0649 1.80756 35.3341 3.58908 34.0748C5.88831 32.4515 8.24846 33.3011 10.6238 36.654C14.4762 34.621 16.5775 34.6969 17.9631 36.9422C19.1355 38.8387 18.6026 41.3419 16.7906 42.5101C14.5523 43.9817 12.5881 43.2383 9.99952 39.8703Z" fill="#8D9F7E"/>
<path d="M24.2822 26.9747C22.1047 23.288 22.1352 21.2247 24.4192 19.6772C26.2464 18.4484 28.7131 18.8732 30.0379 20.6482C31.6976 22.8632 30.9667 24.9569 27.5255 27.6574C29.5963 31.4199 29.5202 33.559 27.2666 34.9548C25.4394 36.0775 23.0488 35.6527 21.8002 33.9838C20.1557 31.7991 20.8257 29.9331 24.2822 26.9747Z" fill="#8D9F7E"/>
<path d="M-27.4429 63.3404C-29.7574 59.8055 -29.6965 57.4691 -27.2907 55.9519C-25.3569 54.7231 -22.7988 55.2996 -21.5654 57.2567C-20.058 59.6537 -21.0629 61.8839 -24.5346 63.9017C-22.1897 67.2394 -22.144 69.6365 -24.3824 71.1688C-26.2096 72.428 -28.7677 72.0184 -30.0315 70.2585C-31.676 68.0132 -30.9146 65.8892 -27.4429 63.3404Z" fill="#8D9F7E"/>
<path d="M59.5167 4.56657C61.1155 3.53492 61.8007 1.88124 61.4201 0.303423L45.0514 0.348936C45.158 0.879933 45.3864 1.39576 45.7213 1.86607C47.2897 4.09626 49.6955 4.0204 53.0149 1.6385C55.3598 5.15825 57.2632 6.02302 59.5167 4.56657Z" fill="#8D9F7E"/>
<path d="M39.5546 26.3526C36.6006 28.8711 33.9816 29.0076 32.3371 26.8078C30.921 24.8962 31.393 22.1653 33.3725 20.9213C35.7935 19.4042 38.0319 20.3751 39.7677 23.4094C41.7167 22.9846 43.4983 22.3626 45.295 22.3322C46.0564 22.3171 47.0461 23.4246 47.5638 24.259C48.6753 26.0492 47.8683 28.3704 45.965 29.4628C43.6962 30.7372 41.8842 29.8724 39.5546 26.3526Z" fill="#8D9F7E"/>
<path d="M-38.7716 78.9365C-38.4823 79.1186 -38.2082 79.24 -37.9494 79.2248C-36.1526 79.1489 -34.3863 78.3904 -32.4525 77.8745C-30.3512 80.7419 -28.3565 81.4853 -26.1639 79.953C-24.291 78.6331 -23.8494 76.2209 -25.1742 74.4155C-26.8186 72.1549 -28.9352 72.2308 -32.3612 74.7189C-34.9649 71.4419 -36.716 70.6985 -38.7716 71.9729L-38.7716 78.9365Z" fill="#8D9F7E"/>
<path d="M-3.38475 64.4024C-7.28279 66.8905 -9.24702 66.8601 -10.8458 64.281C-12.0031 62.4149 -11.3635 60.1089 -9.33838 58.8497C-7.08483 57.4539 -5.19672 58.3338 -3.09544 61.5047C-1.29869 61.0192 0.345787 60.3061 2.03595 60.2151C2.82774 60.1696 3.87839 61.1709 4.457 61.9598C5.72082 63.6742 5.11175 66.0409 3.28455 67.2698C1.01577 68.8021 -0.796211 68.0132 -3.38475 64.4024Z" fill="#8D9F7E"/>
<path d="M13.7453 52.4625C16.1206 56.2099 16.0902 58.3035 13.6387 59.7751C11.7506 60.9281 9.34477 60.2909 8.17231 58.3187C6.83236 56.043 7.76119 54.0555 10.7761 52.2501C10.2888 50.3537 9.55794 48.5938 9.51226 46.8188C9.49703 46.0147 10.6847 44.9527 11.5679 44.3762C13.3189 43.2383 15.5877 44.0424 16.7906 45.9995C18.1458 48.2145 17.3083 50.0048 13.7453 52.4625Z" fill="#8D9F7E"/>
<path d="M16.4709 26.1706C18.8462 26.2919 20.4298 28.067 20.3232 30.5096C20.2166 32.9673 18.3437 34.5755 15.8009 34.3934C13.4407 34.2266 11.9028 32.3908 12.0551 29.9482C12.2074 27.5967 14.0194 26.034 16.4709 26.1706Z" fill="#8D9F7E"/>
<path d="M-19.1292 51.7798C-19.1139 49.3827 -17.4238 47.7139 -14.9875 47.6987C-12.5664 47.6836 -10.8763 49.3524 -10.8458 51.7646C-10.8154 54.2679 -12.5512 55.9823 -15.0788 55.9519C-17.4847 55.9216 -19.1444 54.2072 -19.1292 51.7798Z" fill="#8D9F7E"/>
<path d="M-4.52675 48.7759C-6.9478 48.7455 -8.59228 47.0615 -8.59228 44.6189C-8.59228 42.146 -6.79553 40.4316 -4.2679 40.5227C-1.89253 40.5985 -0.263268 42.3432 -0.308949 44.7858C-0.369854 47.1829 -2.07525 48.8062 -4.52675 48.7759Z" fill="#8D9F7E"/>
<path d="M-6.20169 57.5601C-8.50092 57.5146 -10.2977 55.603 -10.1911 53.297C-10.0845 51.0819 -8.24207 49.3827 -6.01897 49.4283C-3.71973 49.4738 -1.92299 51.3854 -2.02958 53.6914C-2.13617 55.9064 -3.97859 57.6056 -6.20169 57.5601Z" fill="#8D9F7E"/>
<path d="M-12.1401 60.7309C-12.1706 62.9611 -13.9521 64.7058 -16.1752 64.721C-18.4896 64.7361 -20.3321 62.8852 -20.2864 60.5944C-20.256 58.3035 -18.3222 56.4981 -16.0229 56.5891C-13.8303 56.6953 -12.1097 58.5159 -12.1401 60.7309Z" fill="#8D9F7E"/>
<path d="M51.4314 8.29872C51.4466 10.6048 49.5737 12.4253 47.2745 12.3798C45.0514 12.3343 43.3003 10.5593 43.2851 8.34424C43.2699 6.05336 45.1427 4.21763 47.442 4.26314C49.6803 4.30866 51.4161 6.08371 51.4314 8.29872Z" fill="#8D9F7E"/>
<path d="M-38.8173 64.0838L-38.802 69.151C-38.0712 70.0613 -36.9748 70.653 -35.711 70.6833C-33.4879 70.7288 -31.6455 69.0145 -31.5541 66.7994C-31.4476 64.5086 -33.2443 62.5818 -35.5588 62.5515C-36.8683 62.5211 -38.056 63.128 -38.8173 64.0838Z" fill="#8D9F7E"/>
<path d="M32.7482 15.4141C32.7939 13.1232 34.7277 11.333 37.0269 11.4392C39.25 11.5454 40.9554 13.3811 40.9097 15.5961C40.864 17.9022 38.9455 19.6772 36.631 19.571C34.4079 19.4648 32.6873 17.6291 32.7482 15.4141Z" fill="#8D9F7E"/>
<path d="M0.33057 46.3333C0.315342 44.0424 2.18822 42.2067 4.48745 42.2522C6.71055 42.2977 8.46162 44.0728 8.47685 46.2878C8.49208 48.518 6.75624 50.3082 4.53314 50.3689C2.24914 50.4447 0.361023 48.6242 0.33057 46.3333Z" fill="#8D9F7E"/>
<path d="M2.81251 59.1986C0.74168 59.2289 -1.25302 57.3022 -1.31392 55.2389C-1.37483 53.0997 0.665546 51.0516 2.81251 51.0819C4.88334 51.1123 6.83236 53.0845 6.83236 55.1479C6.83236 57.2112 4.88334 59.1683 2.81251 59.1986Z" fill="#8D9F7E"/>
<path d="M41.6254 17.2498C41.5645 15.2017 43.4678 13.1839 45.5539 13.108C47.6095 13.0322 49.6498 14.8983 49.7717 16.9616C49.8935 19.1007 47.914 21.1944 45.7518 21.2095C43.681 21.2399 41.6863 19.3131 41.6254 17.2498Z" fill="#8D9F7E"/>
<path d="M23.3838 44.4217C21.313 44.4217 19.3487 42.4798 19.3183 40.4013C19.2878 38.2621 21.3586 36.2444 23.5056 36.305C25.5764 36.3657 27.495 38.3683 27.4645 40.4165C27.4341 42.4798 25.4546 44.4217 23.3838 44.4217Z" fill="#8D9F7E"/>
<path d="M-13.8151 69.4393C-13.7846 71.5177 -15.7184 73.5204 -17.8197 73.5507C-19.9057 73.581 -21.9157 71.6543 -21.9613 69.5606C-22.007 67.4822 -20.058 65.4795 -17.9567 65.4492C-15.8554 65.4189 -13.8455 67.3456 -13.8151 69.4393Z" fill="#8D9F7E"/>
<path d="M33.8902 37.2305C31.8042 37.2001 29.8399 35.2127 29.8704 33.1342C29.8856 31.0558 31.8955 29.0986 33.9816 29.129C36.0676 29.1442 38.0319 31.1468 38.0014 33.2253C37.971 35.3037 35.9763 37.2608 33.8902 37.2305Z" fill="#8D9F7E"/>
<path d="M-38.7411 88.2669C-38.6955 88.2669 -38.6498 88.2821 -38.6041 88.2821C-36.4876 88.3276 -34.5386 86.4464 -34.5233 84.3224C-34.5081 82.1984 -36.4267 80.2868 -38.5432 80.302C-38.6193 80.302 -38.6802 80.3171 -38.7564 80.3323L-38.7411 88.2669Z" fill="#8D9F7E"/>
<path d="M-19.5251 82.3349C-21.6568 82.3501 -23.5601 80.4385 -23.5449 78.3145C-23.5297 76.1905 -21.5807 74.3093 -19.4489 74.3548C-17.3933 74.4003 -15.5661 76.236 -15.5356 78.269C-15.5052 80.393 -17.3933 82.3197 -19.5251 82.3349Z" fill="#8D9F7E"/>
<path d="M56.1669 13.9728C54.0351 13.9425 52.147 11.9854 52.2232 9.86137C52.2841 7.73738 54.2788 5.88648 56.3953 5.97751C58.4509 6.06854 60.2476 7.93461 60.2324 9.98275C60.2324 12.1067 58.2986 14.0032 56.1669 13.9728Z" fill="#8D9F7E"/>
<path d="M54.5528 22.8025C52.4211 22.7874 50.533 20.8606 50.5634 18.7366C50.6091 16.6126 52.5734 14.7465 54.6899 14.8224C56.7455 14.8983 58.5422 16.7492 58.5727 18.7821C58.5879 20.9061 56.6693 22.8177 54.5528 22.8025Z" fill="#8D9F7E"/>
<path d="M-13.0233 71.1688C-13.0385 69.0448 -11.1199 67.1484 -8.98818 67.1636C-6.85644 67.1939 -4.96833 69.1207 -5.01401 71.2447C-5.05969 73.2928 -6.90211 75.1133 -8.95772 75.1437C-11.0742 75.1892 -13.008 73.308 -13.0233 71.1688Z" fill="#8D9F7E"/>
<path d="M32.3675 45.9995C30.2358 46.0602 28.2868 44.1941 28.2563 42.055C28.2259 39.931 30.1292 38.0194 32.2609 38.0194C34.3013 38.0194 36.1742 39.8096 36.2656 41.8578C36.3569 43.9666 34.4993 45.9388 32.3675 45.9995Z" fill="#8D9F7E"/>
<path d="M46.8024 34.712C46.8633 36.8209 44.9905 38.778 42.8587 38.8083C40.727 38.8387 38.7932 36.9574 38.7932 34.8334C38.7932 32.8005 40.5747 30.9344 42.6303 30.8434C44.7468 30.7523 46.7263 32.5881 46.8024 34.712Z" fill="#8D9F7E"/>
<path d="M26.1703 49.1855C26.1703 51.3095 24.2517 53.2059 22.12 53.1908C19.9882 53.1604 18.1001 51.2185 18.161 49.0945C18.2219 47.0464 20.0491 45.241 22.1047 45.2106C24.2365 45.1651 26.1551 47.0615 26.1703 49.1855Z" fill="#8D9F7E"/>
<path d="M5.97968 65.1913C5.9949 63.2342 7.97437 61.2619 9.93861 61.2467C11.979 61.2316 14.0346 63.3404 13.9585 65.343C13.8671 67.3153 11.8419 69.2269 9.89293 69.1814C7.91346 69.1358 5.96445 67.1332 5.97968 65.1913Z" fill="#8D9F7E"/>
<path d="M-0.14146 76.7822C-2.10571 76.7822 -4.08518 74.8099 -4.11563 72.8528C-4.14608 70.9109 -2.19707 68.8931 -0.23283 68.8324C1.79232 68.7717 3.89361 70.835 3.84793 72.8528C3.80225 74.8251 1.80756 76.7974 -0.14146 76.7822Z" fill="#8D9F7E"/>
<path d="M20.4755 62.0053C18.5112 61.9901 16.5318 60.0179 16.5165 58.0608C16.5013 56.1188 18.4503 54.101 20.4146 54.0555C22.455 54.01 24.541 56.0733 24.4801 58.1063C24.4344 60.0634 22.4245 62.0205 20.4755 62.0053Z" fill="#8D9F7E"/>
<path d="M35.017 50.7785C35.0627 52.7204 33.1289 54.7382 31.1646 54.8293C29.2308 54.9051 27.16 53.0087 27.0534 51.0364C26.9468 49.0186 28.972 46.8946 31.0124 46.8795C32.9614 46.8643 34.9713 48.8214 35.017 50.7785Z" fill="#8D9F7E"/>
<path d="M70.3277 2.85221C70.3429 1.92676 69.9166 1.01648 69.2466 0.288252L63.3996 0.303423C62.76 1.03165 62.3337 1.9571 62.3489 2.85221C62.3794 4.80931 64.3741 6.76642 66.3383 6.76642C68.3025 6.76642 70.2972 4.80931 70.3277 2.85221Z" fill="#8D9F7E"/>
<path d="M-10.6174 83.8672C-12.7035 83.8976 -14.5307 82.1225 -14.5611 80.044C-14.5916 77.9656 -12.7948 76.145 -10.724 76.1147C-8.63796 76.0843 -6.81076 77.8745 -6.7803 79.9378C-6.74985 82.0163 -8.53138 83.852 -10.6174 83.8672Z" fill="#8D9F7E"/>
<path d="M65.1354 15.5203C63.0493 15.5355 61.2221 13.7604 61.2069 11.6819C61.1917 9.60346 62.9732 7.7829 65.0593 7.76773C67.1301 7.75256 68.9725 9.54278 68.9877 11.6061C69.0182 13.6694 67.2215 15.4899 65.1354 15.5203Z" fill="#8D9F7E"/>
<path d="M-25.7528 85.5968C-25.7985 87.6752 -27.6409 89.4503 -29.7117 89.4199C-31.7978 89.3744 -33.5793 87.5387 -33.5488 85.4754C-33.5032 83.3969 -31.6607 81.6219 -29.5899 81.6522C-27.5038 81.6825 -25.7223 83.5183 -25.7528 85.5968Z" fill="#8D9F7E"/>
<path d="M49.0103 27.6574C49.0103 25.5789 50.8223 23.7735 52.9084 23.7735C54.9944 23.7735 56.8064 25.5789 56.8064 27.6574C56.8064 29.7358 54.9944 31.5412 52.9084 31.5412C50.8223 31.5412 49.0103 29.7358 49.0103 27.6574Z" fill="#8D9F7E"/>
<path d="M41.1381 47.547C39.052 47.547 37.2401 45.7416 37.2401 43.6783C37.2401 41.5998 39.0521 39.7944 41.1229 39.7944C43.2089 39.7944 45.0209 41.5998 45.0209 43.6631C45.0361 45.7416 43.2242 47.547 41.1381 47.547Z" fill="#8D9F7E"/>
<path d="M12.451 74.112C12.4206 76.4333 10.9283 77.8442 8.5682 77.7532C6.32988 77.6773 4.98993 76.2512 5.00516 73.9755C5.03561 71.6543 6.54305 70.2434 8.90319 70.3344C11.1263 70.4102 12.4815 71.8515 12.451 74.112Z" fill="#8D9F7E"/>
<path d="M47.9445 36.3354C48.0206 34.0293 49.5585 32.6639 51.9338 32.7853C54.1569 32.9067 55.4664 34.3783 55.3903 36.654C55.3142 38.96 53.7763 40.3254 51.4009 40.2041C49.193 40.0827 47.8683 38.6111 47.9445 36.3354Z" fill="#8D9F7E"/>
<path d="M75.1546 7.73738C72.8706 7.70704 71.4849 6.31128 71.4849 4.03558C71.4849 1.68402 72.9771 0.257909 75.3677 0.333766C77.6213 0.409623 78.9765 1.86607 78.9308 4.14178C78.8699 6.38714 77.4386 7.75256 75.1546 7.73738Z" fill="#8D9F7E"/>
<path d="M33.0832 59.7751C33.0375 62.0812 31.5301 63.4921 29.1699 63.4011C26.9316 63.31 25.6069 61.8839 25.6373 59.6082C25.683 57.3022 27.1905 55.8913 29.5506 55.9823C31.7889 56.0733 33.1289 57.4994 33.0832 59.7751Z" fill="#8D9F7E"/>
<path d="M-24.5042 87.1898C-24.5194 84.9292 -23.149 83.5183 -20.8955 83.4728C-18.5353 83.4121 -17.0583 84.8382 -17.0583 87.1746C-17.0431 89.4351 -18.4135 90.846 -20.6671 90.8916C-23.0272 90.9522 -24.489 89.5261 -24.5042 87.1898Z" fill="#8D9F7E"/>
<path d="M63.4452 23.7583C61.1003 23.7583 59.669 22.3019 59.7147 19.9503C59.7604 17.705 61.1612 16.3395 63.43 16.3395C65.7749 16.3395 67.2062 17.796 67.1605 20.1476C67.1149 22.3929 65.714 23.7583 63.4452 23.7583Z" fill="#8D9F7E"/>
<path d="M65.4856 28.9621C65.4552 31.2226 64.0391 32.6032 61.7551 32.5881C59.4102 32.5881 57.9788 31.0861 58.055 28.7042C58.1311 26.474 59.6081 25.1238 61.8921 25.1693C64.1609 25.2451 65.5313 26.6712 65.4856 28.9621Z" fill="#8D9F7E"/>
<path d="M-1.83163 84.9444C-4.11563 84.9292 -5.50127 83.5335 -5.5165 81.2578C-5.53173 78.9062 -4.0395 77.4649 -1.66413 77.5256C0.589417 77.5863 1.94459 79.0276 1.91414 81.3184C1.88369 83.579 0.452377 84.9596 -1.83163 84.9444Z" fill="#8D9F7E"/>
<path d="M-38.7107 96.1864C-37.3098 95.716 -36.4876 94.5175 -36.4571 92.8031C-36.4267 90.9978 -37.2794 89.7234 -38.7412 89.2227L-38.7107 96.1864Z" fill="#8D9F7E"/>
<path d="M15.1157 66.7995C15.1461 64.4782 16.6688 63.0825 19.0289 63.1583C21.2673 63.2342 22.6072 64.6755 22.5768 66.9512C22.5463 69.2724 21.0389 70.6682 18.6787 70.5923C16.4252 70.5013 15.07 69.06 15.1157 66.7995Z" fill="#8D9F7E"/>
<path d="M39.5089 48.8062C41.7929 48.8214 43.1785 50.2172 43.1937 52.508C43.1937 54.8596 41.7015 56.3009 39.3261 56.225C37.0726 56.1643 35.7174 54.7079 35.7479 52.417C35.7935 50.1565 37.2249 48.7759 39.5089 48.8062Z" fill="#8D9F7E"/>
<path d="M-31.3257 98.0676C-33.6098 98.0676 -35.0106 96.687 -35.0258 94.4113C-35.0411 92.0597 -33.5641 90.6185 -31.1887 90.664C-28.9199 90.7095 -27.5647 92.1508 -27.5952 94.4265C-27.6256 96.687 -29.0417 98.0676 -31.3257 98.0676Z" fill="#8D9F7E"/>
<path d="M-11.8508 92.5301C-13.9978 92.5604 -15.5813 91.0281 -15.6118 88.8889C-15.6422 86.7498 -14.1044 85.172 -11.9574 85.1416C-9.82565 85.1113 -8.22684 86.6588 -8.19638 88.7827C-8.18116 90.9067 -9.71905 92.4997 -11.8508 92.5301Z" fill="#8D9F7E"/>
<path d="M17.5367 79.3917C15.405 79.3613 13.8671 77.7683 13.8975 75.6443C13.928 73.5204 15.5268 71.9881 17.6585 72.0184C19.7903 72.0487 21.3282 73.6417 21.2977 75.7657C21.2673 77.8897 19.6685 79.422 17.5367 79.3917Z" fill="#8D9F7E"/>
<path d="M46.3 44.892C46.3 42.768 47.8683 41.2054 50.0153 41.2054C52.1622 41.2054 53.7154 42.768 53.7154 44.9072C53.7154 47.0464 52.147 48.5938 50.0001 48.5938C47.8531 48.5938 46.3 47.0464 46.3 44.892Z" fill="#8D9F7E"/>
<path d="M23.9929 68.5593C23.9776 66.4202 25.5307 64.8575 27.6625 64.8424C29.8094 64.8272 31.3778 66.3747 31.393 68.4986C31.4083 70.6378 29.8551 72.2004 27.7234 72.2156C25.5917 72.2308 24.0081 70.6833 23.9929 68.5593Z" fill="#8D9F7E"/>
<path d="M73.8146 16.5519C71.6981 16.4761 70.1907 14.8376 70.2668 12.7136C70.3429 10.6048 71.9722 9.10281 74.1191 9.17866C76.2356 9.25452 77.7431 10.893 77.667 13.0322C77.5908 15.1258 75.9616 16.643 73.8146 16.5519Z" fill="#8D9F7E"/>
<path d="M-18.7485 96.0802C-18.7789 98.1283 -20.5148 99.7668 -22.5704 99.7061C-24.626 99.6454 -26.24 97.9007 -26.1487 95.8374C-26.0573 93.8803 -24.4128 92.3177 -22.4333 92.3177C-20.3625 92.3328 -18.7028 94.032 -18.7485 96.0802Z" fill="#8D9F7E"/>
<path d="M60.4456 41.4178C58.39 41.3723 56.7607 39.6427 56.8368 37.5946C56.913 35.5465 58.664 33.9535 60.7349 34.0445C62.7143 34.1355 64.2523 35.7892 64.237 37.7615C64.2218 39.8248 62.5164 41.4633 60.4456 41.4178Z" fill="#8D9F7E"/>
<path d="M41.9451 61.3985C41.9147 63.4466 40.2093 65.0851 38.1385 65.0396C36.0829 64.9941 34.4536 63.2494 34.5297 61.2012C34.6059 59.2441 36.2504 57.6663 38.2298 57.6663C40.3007 57.6511 41.9604 59.3352 41.9451 61.3985Z" fill="#8D9F7E"/>
<path d="M10.7608 82.9569C10.7304 85.0051 8.99454 86.6436 6.93894 86.5829C4.88334 86.5222 3.26931 84.7775 3.36067 82.7142C3.45203 80.7571 5.09652 79.1945 7.07599 79.1945C9.14682 79.2096 10.8065 80.8936 10.7608 82.9569Z" fill="#8D9F7E"/>
<path d="M9.05545 91.817C9.00977 93.7741 7.33484 95.3823 5.37059 95.3671C3.31499 95.3519 1.65529 93.5769 1.76188 91.5439C1.86846 89.5868 3.58907 88.0242 5.55332 88.1C7.50233 88.1607 9.10114 89.8599 9.05545 91.817Z" fill="#8D9F7E"/>
<path d="M19.5923 84.5348C19.6076 86.4919 17.9783 88.1455 16.0141 88.1911C13.9585 88.2366 12.2378 86.507 12.2987 84.4589C12.3444 82.5018 14.0194 80.8936 15.9836 80.9088C17.9326 80.924 19.5771 82.5625 19.5923 84.5348Z" fill="#8D9F7E"/>
<path d="M97.8119 0.197225L91.4167 0.212396C92.0105 1.30473 93.1525 2.07847 94.462 2.13916C95.8781 2.19984 97.1571 1.38059 97.8119 0.197225Z" fill="#8D9F7E"/>
<path d="M-13.4648 101.314C-15.4291 101.375 -17.1345 99.782 -17.2258 97.84C-17.3172 95.8071 -15.627 94.0472 -13.5714 94.032C-11.6072 94.032 -9.94744 95.6553 -9.91699 97.6125C-9.90177 99.5847 -11.5006 101.254 -13.4648 101.314Z" fill="#8D9F7E"/>
<path d="M26.0941 80.9998C24.1299 81.0302 22.4397 79.4372 22.3788 77.4649C22.3179 75.5078 23.9015 73.7934 25.8657 73.7176C27.9213 73.6266 29.6876 75.3106 29.6876 77.3435C29.7029 79.3158 28.0736 80.9695 26.0941 80.9998Z" fill="#8D9F7E"/>
<path d="M68.6375 21.695C68.6528 19.7379 70.2972 18.0842 72.2615 18.0691C74.3171 18.0539 76.0225 19.7986 75.9616 21.8316C75.9007 23.7887 74.1953 25.3968 72.231 25.3513C70.2668 25.321 68.6375 23.6521 68.6375 21.695Z" fill="#8D9F7E"/>
<path d="M-8.34866 99.0082C-8.40957 97.0663 -6.81076 95.3519 -4.86175 95.2609C-2.82137 95.1699 -1.05507 96.8539 -1.05507 98.8869C-1.05507 100.844 -2.68433 102.498 -4.64857 102.528C-6.61282 102.558 -8.30298 100.965 -8.34866 99.0082Z" fill="#8D9F7E"/>
<path d="M70.7236 34.1811C68.7593 34.2266 67.054 32.6336 66.9931 30.6765C66.9169 28.7194 68.5005 27.005 70.4647 26.8988C72.5051 26.7926 74.2866 28.4615 74.3019 30.5096C74.3171 32.4667 72.6878 34.1355 70.7236 34.1811Z" fill="#8D9F7E"/>
<path d="M-3.44567 93.7134C-5.40991 93.7286 -7.08484 92.1204 -7.13052 90.1482C-7.1762 88.1 -5.45559 86.3705 -3.39999 86.416C-1.43574 86.4615 0.193523 88.1152 0.178295 90.0875C0.178295 92.0598 -1.4662 93.6983 -3.44567 93.7134Z" fill="#8D9F7E"/>
<path d="M81.2148 26.9898C79.2505 27.005 77.5756 25.3968 77.5299 23.4397C77.4843 21.4068 79.2049 19.6772 81.2452 19.7228C83.2095 19.7683 84.8387 21.4219 84.8235 23.379C84.8083 25.3362 83.1638 26.9747 81.2148 26.9898Z" fill="#8D9F7E"/>
<path d="M72.6269 39.4607C72.5813 41.4178 70.9215 43.0411 68.9573 43.026C66.9169 43.0108 65.2268 41.2509 65.3334 39.2179C65.4247 37.276 67.1453 35.6982 69.1096 35.7589C71.0738 35.8044 72.6726 37.5036 72.6269 39.4607Z" fill="#8D9F7E"/>
<path d="M48.4317 57.3932C46.4675 57.4387 44.7621 55.8457 44.6859 53.8886C44.6098 51.9315 46.1934 50.2172 48.1576 50.111C50.198 50.0048 51.9795 51.6736 52.01 53.7217C52.0252 55.6789 50.3959 57.3477 48.4317 57.3932Z" fill="#8D9F7E"/>
<path d="M-24.0626 108.49C-26.0268 108.521 -27.7018 106.913 -27.7627 104.955C-27.8236 102.998 -26.2248 101.299 -24.2758 101.223C-22.2354 101.132 -20.4691 102.831 -20.4691 104.864C-20.4539 106.821 -22.0984 108.46 -24.0626 108.49Z" fill="#8D9F7E"/>
<path d="M86.0721 14.4735C86.1026 16.4306 84.5038 18.1146 82.5243 18.1753C80.56 18.236 78.8547 16.6581 78.7633 14.701C78.6719 12.6529 80.3621 10.9082 82.4025 10.893C84.3819 10.8779 86.0264 12.5012 86.0721 14.4735Z" fill="#8D9F7E"/>
<path d="M40.2245 69.7124C40.255 71.6695 38.6409 73.3383 36.6615 73.399C34.6059 73.4597 32.87 71.7453 32.9157 69.6972C32.9462 67.7401 34.6211 66.1167 36.5853 66.1167C38.5496 66.1319 40.194 67.7552 40.2245 69.7124Z" fill="#8D9F7E"/>
<path d="M84.0013 9.33038C82.037 9.30004 80.4078 7.63119 80.4078 5.67408C80.423 3.62595 82.1893 1.9571 84.2297 2.04813C86.1939 2.13916 87.7775 3.85352 87.7166 5.81062C87.6709 7.76773 85.9807 9.36072 84.0013 9.33038Z" fill="#8D9F7E"/>
<path d="M58.9077 50.202C56.9434 50.2172 55.2685 48.609 55.2228 46.6519C55.1771 44.6038 56.8978 42.8894 58.9381 42.9198C60.9024 42.9501 62.5316 44.6189 62.5316 46.576C62.5164 48.5331 60.8719 50.1868 58.9077 50.202Z" fill="#8D9F7E"/>
<path d="M47.1374 66.2078C45.1732 66.2229 43.4983 64.6148 43.4526 62.6577C43.4069 60.6095 45.1275 58.8952 47.1831 58.9407C49.1473 58.9862 50.7766 60.6399 50.7614 62.597C50.7462 64.5541 49.1017 66.1926 47.1374 66.2078Z" fill="#8D9F7E"/>
<path d="M57.2023 51.7646C59.1665 51.7646 60.8262 53.388 60.8567 55.3299C60.8872 57.3629 59.1665 59.0772 57.1109 59.0317C55.1467 58.9862 53.5326 57.3174 53.5631 55.3603C53.5936 53.4032 55.238 51.7646 57.2023 51.7646Z" fill="#8D9F7E"/>
<path d="M-32.9245 106.837C-34.8888 106.867 -36.579 105.259 -36.6246 103.302C-36.6855 101.345 -35.0867 99.6454 -33.1225 99.5544C-31.0821 99.4634 -29.3158 101.163 -29.3158 103.196C-29.331 105.168 -30.9603 106.806 -32.9245 106.837Z" fill="#8D9F7E"/>
<path d="M45.5082 74.992C43.4983 75.0223 41.869 73.4293 41.869 71.4267C41.869 69.4241 43.4983 67.8159 45.493 67.8463C47.4267 67.8766 48.9646 69.3938 49.0255 71.3053C49.0864 73.308 47.5181 74.9465 45.5082 74.992Z" fill="#8D9F7E"/>
<path d="M34.9865 82.168C32.9766 82.2135 31.3321 80.6206 31.3169 78.6331C31.3017 76.6305 32.9157 75.0223 34.9256 75.0375C36.8442 75.0527 38.4125 76.5546 38.4887 78.4814C38.5648 80.4688 36.9965 82.1225 34.9865 82.168Z" fill="#8D9F7E"/>
<path d="M28.3934 86.1278C28.439 88.1304 26.8402 89.7689 24.8303 89.7689C22.8204 89.784 21.2064 88.1607 21.2216 86.1733C21.2368 84.2617 22.7595 82.699 24.6781 82.6232C26.688 82.5625 28.3477 84.1251 28.3934 86.1278Z" fill="#8D9F7E"/>
<path d="M64.1609 48.1387C64.2066 46.1361 65.8815 44.5734 67.8762 44.6493C69.8709 44.7251 71.424 46.4243 71.3174 48.4118C71.2108 50.3234 69.6273 51.8102 67.7087 51.795C65.714 51.7647 64.1152 50.1261 64.1609 48.1387Z" fill="#8D9F7E"/>
<path d="M-34.1427 115.606C-36.1526 115.651 -37.7819 114.058 -37.7971 112.056C-37.8123 110.053 -36.1831 108.445 -34.1884 108.46C-32.2698 108.475 -30.7015 109.992 -30.6253 111.904C-30.5644 113.906 -32.1328 115.56 -34.1427 115.606Z" fill="#8D9F7E"/>
<path d="M79.5703 35.7589C77.5604 35.7892 75.9311 34.1962 75.9311 32.1936C75.9311 30.282 77.4233 28.7042 79.3571 28.6132C81.3518 28.5221 83.042 30.0696 83.1029 32.0722C83.1638 34.09 81.5955 35.7285 79.5703 35.7589Z" fill="#8D9F7E"/>
<path d="M93.0003 10.9082C90.9903 10.9385 89.3611 9.34555 89.3611 7.34293C89.3611 5.34031 90.9903 3.73215 92.985 3.76249C94.9188 3.79284 96.4567 5.30997 96.5176 7.22156C96.5938 9.22418 95.0102 10.8779 93.0003 10.9082Z" fill="#8D9F7E"/>
<path d="M10.6847 93.319C10.7152 91.3164 12.3901 89.7537 14.3848 89.8144C16.3795 89.8751 17.9478 91.5591 17.8413 93.5617C17.7499 95.4733 16.1663 96.9753 14.2478 96.9601C12.2531 96.9449 10.6543 95.3064 10.6847 93.319Z" fill="#8D9F7E"/>
<path d="M-11.6528 105.987C-11.5919 107.99 -13.1755 109.628 -15.1855 109.659C-17.1954 109.689 -18.8246 108.081 -18.8246 106.093C-18.8246 104.182 -17.3324 102.604 -15.3986 102.528C-13.4039 102.422 -11.7138 103.984 -11.6528 105.987Z" fill="#8D9F7E"/>
<path d="M-25.2351 117.244C-27.0927 117.305 -28.9047 115.575 -28.9047 113.694C-28.9047 111.904 -27.2602 110.205 -25.4483 110.129C-23.5906 110.068 -21.7786 111.813 -21.7786 113.679C-21.7786 115.469 -23.4383 117.168 -25.2351 117.244Z" fill="#8D9F7E"/>
<path d="M62.5164 57.0443C62.5316 55.1782 64.3436 53.4335 66.2013 53.5094C67.998 53.5852 69.6577 55.2996 69.6425 57.0746C69.6273 58.9407 67.8153 60.6854 65.9576 60.6096C64.1609 60.5337 62.5012 58.8193 62.5164 57.0443Z" fill="#8D9F7E"/>
<path d="M59.532 64.372C59.4406 66.2685 57.5829 67.9221 55.7253 67.7704C53.9133 67.6187 52.3145 65.8588 52.4059 64.0838C52.4972 62.2025 54.3549 60.5337 56.2125 60.6854C58.0397 60.8371 59.6233 62.597 59.532 64.372Z" fill="#8D9F7E"/>
<path d="M77.9258 44.5886C76.0529 44.6341 74.2714 42.8742 74.2866 41.0082C74.3019 39.2179 75.9768 37.5187 77.7736 37.4884C79.6464 37.4429 81.428 39.2028 81.4127 41.0688C81.3975 42.8591 79.7378 44.5431 77.9258 44.5886Z" fill="#8D9F7E"/>
<path d="M91.2949 19.7379C89.422 19.7379 87.6557 17.9477 87.7166 16.0816C87.7775 14.2762 89.4829 12.6226 91.2796 12.6226C93.1677 12.6226 94.9188 14.4128 94.8579 16.2789C94.797 18.0691 93.0916 19.7228 91.2949 19.7379Z" fill="#8D9F7E"/>
<path d="M4.19814 104.121C2.32526 104.136 0.558956 102.361 0.589409 100.495C0.63509 98.6896 2.32525 97.036 4.122 97.0056C5.99488 96.9904 7.76119 98.7655 7.73074 100.632C7.68505 102.437 5.99489 104.091 4.19814 104.121Z" fill="#8D9F7E"/>
<path d="M-9.93224 107.792C-9.96269 106.017 -8.3182 104.288 -6.52145 104.197C-4.66379 104.106 -2.83659 105.835 -2.80613 107.701C-2.77568 109.476 -4.42017 111.206 -6.21692 111.297C-8.08981 111.388 -9.90179 109.659 -9.93224 107.792Z" fill="#8D9F7E"/>
<path d="M93.518 25.0782C93.4723 26.9898 91.8887 28.507 89.9701 28.4766C88.0516 28.4311 86.5289 26.8533 86.5594 24.9417C86.605 23.0301 88.1886 21.513 90.1072 21.5433C92.0257 21.5888 93.5636 23.1818 93.518 25.0782Z" fill="#8D9F7E"/>
<path d="M106.948 0.303425C106.948 0.257911 106.933 0.212397 106.933 0.166883L100.005 0.182054C100.02 2.00262 101.466 3.53492 103.324 3.61078C105.243 3.70181 106.857 2.21501 106.948 0.303425Z" fill="#8D9F7E"/>
<path d="M33.677 90.8916C31.7585 90.8916 30.2053 89.3441 30.2053 87.4325C30.2053 85.5209 31.7585 83.9734 33.677 83.9734C35.5956 83.9734 37.1487 85.5209 37.1487 87.4325C37.1487 89.3441 35.5956 90.8916 33.677 90.8916Z" fill="#8D9F7E"/>
<path d="M40.3007 80.2716C40.2854 78.36 41.8233 76.7974 43.7571 76.7822C45.6757 76.767 47.244 78.2993 47.2593 80.2261C47.2745 82.1377 45.7366 83.7003 43.8028 83.7155C41.8842 83.7307 40.3159 82.1984 40.3007 80.2716Z" fill="#8D9F7E"/>
<path d="M26.6118 94.563C26.6423 96.4746 25.1044 98.0524 23.1858 98.0676C21.2673 98.098 19.6837 96.5656 19.6685 94.6541C19.638 92.7425 21.1759 91.1798 23.0945 91.1495C25.013 91.1343 26.5814 92.6514 26.6118 94.563Z" fill="#8D9F7E"/>
<path d="M16.5013 102.118C16.5622 103.878 14.8111 105.684 13.0296 105.668C11.3395 105.668 9.61885 104 9.57317 102.316C9.51226 100.556 11.2633 98.7655 13.0449 98.7655C14.7198 98.7655 16.4404 100.419 16.5013 102.118Z" fill="#8D9F7E"/>
<path d="M-38.6498 118.943L-38.6346 122.797C-37.995 123.662 -36.9901 124.299 -35.9547 124.329C-34.2797 124.375 -32.5287 122.751 -32.4221 121.052C-32.3155 119.307 -34.0209 117.472 -35.8176 117.426C-36.8683 117.396 -37.9646 118.033 -38.6498 118.943Z" fill="#8D9F7E"/>
<path d="M76.7534 46.4243C78.5501 46.5154 80.2251 48.3663 80.0728 50.111C79.9205 51.8102 78.1542 53.4032 76.4793 53.3273C74.6825 53.2363 73.0076 51.3702 73.1599 49.6255C73.2969 47.9263 75.0784 46.3333 76.7534 46.4243Z" fill="#8D9F7E"/>
<path d="M-20.3625 114.938C-20.3777 113.163 -18.581 111.403 -16.8147 111.464C-15.1093 111.509 -13.4496 113.209 -13.4344 114.908C-13.4192 116.683 -15.2159 118.443 -16.9822 118.382C-18.6876 118.337 -20.3625 116.622 -20.3625 114.938Z" fill="#8D9F7E"/>
<path d="M88.4779 36.8815C86.7116 36.9422 84.9149 35.1975 84.9149 33.4225C84.9149 31.7385 86.5746 30.0393 88.28 29.9786C90.0463 29.9179 91.843 31.6626 91.843 33.4377C91.843 35.1217 90.1833 36.8209 88.4779 36.8815Z" fill="#8D9F7E"/>
<path d="M57.7809 73.0956C57.7657 74.8706 55.9385 76.6002 54.1874 76.5243C52.482 76.4484 50.8375 74.7189 50.8528 73.0501C50.868 71.275 52.6952 69.5455 54.4463 69.6213C56.1364 69.6972 57.7961 71.4115 57.7809 73.0956Z" fill="#8D9F7E"/>
<path d="M101.817 11.864C99.8979 11.864 98.5275 10.4986 98.5275 8.58698C98.5275 6.67539 99.8979 5.30997 101.817 5.30997C103.735 5.30997 105.105 6.69056 105.105 8.60215C105.105 10.4986 103.735 11.864 101.817 11.864Z" fill="#8D9F7E"/>
<path d="M52.6952 85.1871C50.7462 85.2175 49.3605 83.8521 49.3605 81.9101C49.3605 80.0592 50.6396 78.709 52.4972 78.6483C54.4463 78.5724 55.8776 79.9075 55.9385 81.8191C55.9841 83.761 54.6442 85.1568 52.6952 85.1871Z" fill="#8D9F7E"/>
<path d="M64.4502 69.1814C62.5316 69.1965 61.146 67.8463 61.1308 65.9195C61.1155 64.0079 62.4707 62.6122 64.3893 62.6122C66.3231 62.597 67.6935 63.9624 67.7087 65.874C67.7239 67.7856 66.3688 69.1662 64.4502 69.1814Z" fill="#8D9F7E"/>
<path d="M32.0782 99.5392C30.1292 99.5696 28.7284 98.2193 28.7284 96.2774C28.7131 94.3355 30.0988 92.97 32.0478 92.9852C33.9054 93.0004 35.2302 94.2899 35.2911 96.1408C35.3672 98.098 34.012 99.5089 32.0782 99.5392Z" fill="#8D9F7E"/>
<path d="M100.065 20.6937C98.1317 20.6482 96.7917 19.2069 96.8678 17.265C96.944 15.4293 98.2839 14.1397 100.142 14.1245C102.091 14.1094 103.461 15.5051 103.446 17.4471C103.431 19.3738 102.014 20.7392 100.065 20.6937Z" fill="#8D9F7E"/>
<path d="M21.5566 106.73C19.6076 106.776 18.2067 105.426 18.1915 103.484C18.1763 101.542 19.5619 100.176 21.5109 100.192C23.3686 100.207 24.7085 101.496 24.7694 103.332C24.8303 105.259 23.4904 106.685 21.5566 106.73Z" fill="#8D9F7E"/>
<path d="M74.9414 61.5653C72.9924 61.5653 71.6372 60.1696 71.6676 58.2276C71.6981 56.3009 73.1294 54.9658 75.0784 55.0113C76.9209 55.072 78.2304 56.3919 78.2456 58.2428C78.2608 60.1847 76.8904 61.5653 74.9414 61.5653Z" fill="#8D9F7E"/>
<path d="M2.61457 112.678C0.680775 112.738 -0.735306 111.403 -0.780987 109.507C-0.841892 107.58 0.498062 106.169 2.4014 106.108C4.31996 106.048 5.73604 107.383 5.79695 109.279C5.85785 111.206 4.5179 112.632 2.61457 112.678Z" fill="#8D9F7E"/>
<path d="M39.25 89.0558C39.2652 87.1291 40.6813 85.7788 42.6303 85.8243C44.5641 85.8698 45.9041 87.3111 45.8279 89.2379C45.7518 91.0736 44.4119 92.3632 42.5542 92.3632C40.6204 92.3784 39.2348 90.9826 39.25 89.0558Z" fill="#8D9F7E"/>
<path d="M86.6964 45.5444C84.7474 45.5444 83.3922 44.1486 83.4227 42.1915C83.4531 40.3406 84.7626 39.0359 86.6203 38.9904C88.5693 38.9449 89.9701 40.2951 90.0006 42.237C90.0311 44.179 88.6606 45.5444 86.6964 45.5444Z" fill="#8D9F7E"/>
<path d="M-27.0927 125.801C-29.0113 125.755 -30.3665 124.314 -30.2903 122.387C-30.2142 120.552 -28.8895 119.262 -27.0166 119.262C-25.0676 119.247 -23.6972 120.627 -23.7124 122.569C-23.7429 124.496 -25.1437 125.846 -27.0927 125.801Z" fill="#8D9F7E"/>
<path d="M-7.99845 119.854C-9.94746 119.869 -11.3179 118.488 -11.3026 116.546C-11.2874 114.695 -9.99314 113.36 -8.15071 113.3C-6.20169 113.239 -4.77038 114.574 -4.7247 116.501C-4.70947 118.443 -6.06466 119.838 -7.99845 119.854Z" fill="#8D9F7E"/>
<path d="M72.0179 79.1641C70.2059 79.1489 68.8355 77.7835 68.8355 75.963C68.8203 74.1576 70.1754 72.777 71.9874 72.7315C73.8907 72.7011 75.3221 74.1424 75.2764 76.0388C75.2307 77.8594 73.8298 79.1793 72.0179 79.1641Z" fill="#8D9F7E"/>
<path d="M73.2208 70.3496C71.3936 70.3192 70.0536 68.9386 70.0536 67.1029C70.0689 65.2065 71.5458 63.8107 73.4644 63.9017C75.2764 63.9928 76.5859 65.4189 76.525 67.2394C76.4641 69.06 75.048 70.3799 73.2208 70.3496Z" fill="#8D9F7E"/>
<path d="M110.663 13.457C108.836 13.4418 107.466 12.0916 107.45 10.2558C107.435 8.43527 108.775 7.05468 110.602 7.00916C112.506 6.96365 113.952 8.40493 113.922 10.3013C113.876 12.1219 112.49 13.4722 110.663 13.457Z" fill="#8D9F7E"/>
<path d="M115.155 1.5323C115.17 1.03165 115.079 0.561338 114.911 0.13654L108.927 0.151711C108.775 0.515824 108.699 0.92545 108.684 1.35025C108.669 3.17081 110.008 4.56658 111.836 4.61209C113.663 4.67277 115.079 3.35287 115.155 1.5323Z" fill="#8D9F7E"/>
<path d="M20.171 115.499C18.359 115.469 17.0038 114.089 17.019 112.268C17.0343 110.372 18.5112 108.976 20.4146 109.067C22.2266 109.158 23.536 110.599 23.4751 112.405C23.399 114.225 21.9982 115.545 20.171 115.499Z" fill="#8D9F7E"/>
<path d="M95.6497 47.1374C93.8225 47.1677 92.4216 45.8478 92.3607 44.0273C92.2998 42.2067 93.6245 40.7806 95.4213 40.7047C97.3246 40.6137 98.8168 42.0246 98.8168 43.9211C98.8168 45.7416 97.4617 47.107 95.6497 47.1374Z" fill="#8D9F7E"/>
<path d="M94.0204 35.1975C93.9595 33.377 95.2843 31.9509 97.0962 31.875C98.9996 31.784 100.492 33.1949 100.492 35.0913C100.492 36.9119 99.1366 38.2925 97.3094 38.3077C95.4822 38.338 94.0661 37.0029 94.0204 35.1975Z" fill="#8D9F7E"/>
<path d="M8.12662 110.705C8.08094 108.9 9.39045 107.504 11.1872 107.413C13.0753 107.322 14.5675 108.688 14.598 110.569C14.6284 112.374 13.3342 113.77 11.5374 113.861C9.6493 113.952 8.1723 112.587 8.12662 110.705Z" fill="#8D9F7E"/>
<path d="M98.9539 29.4779C97.0658 29.5083 95.6345 28.0822 95.6649 26.1858C95.6954 24.3804 97.0505 23.0301 98.8625 23.0149C100.766 22.9998 102.182 24.4107 102.151 26.3071C102.121 28.1125 100.766 29.4476 98.9539 29.4779Z" fill="#8D9F7E"/>
<path d="M9.66453 122.676C7.83732 122.645 6.48215 121.295 6.48215 119.474C6.48215 117.578 7.95914 116.167 9.84725 116.258C11.6592 116.334 12.9687 117.76 12.923 119.565C12.8774 121.371 11.4917 122.706 9.66453 122.676Z" fill="#8D9F7E"/>
<path d="M-38.6041 132.749C-38.2996 132.856 -37.9798 132.916 -37.6296 132.931C-35.8024 132.977 -34.3711 131.657 -34.3102 129.852C-34.2341 128.031 -35.5283 126.59 -37.3403 126.484C-37.7971 126.453 -38.2235 126.529 -38.6193 126.65L-38.6041 132.749Z" fill="#8D9F7E"/>
<path d="M54.2179 90.8005C54.1874 92.6211 52.817 93.9713 50.9898 93.9713C49.1626 93.9713 47.777 92.6211 47.7617 90.8005C47.7313 88.9041 49.193 87.4628 51.0964 87.5235C52.9083 87.5842 54.2483 88.98 54.2179 90.8005Z" fill="#8D9F7E"/>
<path d="M-31.9044 131.035C-31.95 129.214 -30.6405 127.803 -28.8133 127.728C-26.91 127.652 -25.433 129.063 -25.4483 130.959C-25.4483 132.78 -26.8187 134.145 -28.6306 134.16C-30.4578 134.175 -31.8435 132.84 -31.9044 131.035Z" fill="#8D9F7E"/>
<path d="M40.8336 101.147C39.0064 101.132 37.6512 99.7668 37.6512 97.9462C37.6512 96.0498 39.1282 94.6389 41.0315 94.7147C42.8435 94.7906 44.1682 96.2167 44.1226 98.0221C44.0617 99.8427 42.676 101.163 40.8336 101.147Z" fill="#8D9F7E"/>
<path d="M85.5392 54.3286C83.712 54.3589 82.3111 53.0239 82.2502 51.2185C82.1893 49.3979 83.514 47.9718 85.326 47.8808C87.2446 47.7898 88.7215 49.2007 88.7215 51.0971C88.7215 52.9328 87.3664 54.2983 85.5392 54.3286Z" fill="#8D9F7E"/>
<path d="M0.802589 121.462C-1.02462 121.447 -2.37979 120.081 -2.39502 118.261C-2.41024 116.44 -1.05507 115.06 0.772141 115.029C2.67548 114.984 4.12201 116.44 4.07633 118.337C4.03065 120.142 2.64502 121.477 0.802589 121.462Z" fill="#8D9F7E"/>
<path d="M61.5267 86.3553C59.6995 86.3553 58.329 85.0202 58.2834 83.1997C58.2529 81.3033 59.6995 79.862 61.6028 79.9227C63.4148 79.9682 64.7547 81.364 64.7395 83.1845C64.7243 85.0051 63.3539 86.3553 61.5267 86.3553Z" fill="#8D9F7E"/>
<path d="M87.0466 60.0179C87.0009 61.8233 85.6153 63.1735 83.7881 63.1583C81.8848 63.1432 80.4839 61.6564 80.5905 59.76C80.6819 57.9546 82.1284 56.665 83.9404 56.7257C85.7676 56.7864 87.0923 58.1973 87.0466 60.0179Z" fill="#8D9F7E"/>
<path d="M63.1864 77.5408C61.3744 77.5408 60.004 76.2209 59.9431 74.4155C59.8822 72.5342 61.283 71.0778 63.1864 71.0778C65.0745 71.0778 66.4906 72.5191 66.4297 74.4155C66.3688 76.2057 64.9984 77.5256 63.1864 77.5408Z" fill="#8D9F7E"/>
<path d="M-18.0785 126.984C-19.9209 127.015 -21.3218 125.71 -21.3827 123.889C-21.4436 122.069 -20.1341 120.643 -18.3221 120.552C-16.4036 120.461 -14.9266 121.856 -14.9113 123.768C-14.8961 125.573 -16.2361 126.954 -18.0785 126.984Z" fill="#8D9F7E"/>
<path d="M30.3424 108.323C28.5152 108.323 27.1448 106.958 27.1296 105.137C27.0991 103.241 28.5761 101.815 30.4794 101.876C32.2914 101.936 33.6314 103.332 33.6009 105.153C33.54 106.988 32.1544 108.339 30.3424 108.323Z" fill="#8D9F7E"/>
<path d="M105.791 19.0552C105.791 17.2347 107.161 15.8692 108.973 15.8541C110.876 15.8237 112.308 17.2953 112.247 19.1918C112.186 20.9971 110.785 22.3322 108.958 22.2867C107.146 22.2564 105.791 20.8758 105.791 19.0552Z" fill="#8D9F7E"/>
<path d="M-12.4903 125.27C-12.4142 123.464 -10.9981 122.145 -9.1709 122.205C-7.28279 122.251 -5.9124 123.783 -6.04943 125.679C-6.18647 127.47 -7.64824 128.744 -9.47544 128.638C-11.2722 128.532 -12.5817 127.09 -12.4903 125.27Z" fill="#8D9F7E"/>
<path d="M104.146 27.9305C104.131 26.2313 105.684 24.699 107.389 24.7141C109.095 24.7293 110.618 26.3071 110.572 27.9911C110.526 29.5993 109.049 31.0709 107.435 31.1013C105.745 31.1468 104.161 29.6145 104.146 27.9305Z" fill="#8D9F7E"/>
<path d="M39.2196 109.901C37.6055 109.901 36.1285 108.49 36.0676 106.882C36.0067 105.198 37.4989 103.635 39.2043 103.635C40.9097 103.635 42.4172 105.168 42.3563 106.867C42.3106 108.46 40.8336 109.886 39.2196 109.901Z" fill="#8D9F7E"/>
<path d="M90.7771 52.6749C90.8228 50.9757 92.4216 49.5193 94.1118 49.6255C95.7411 49.7317 97.1115 51.2337 97.0658 52.8418C97.0201 54.541 95.4213 55.9975 93.7311 55.8913C92.1171 55.7851 90.7315 54.2831 90.7771 52.6749Z" fill="#8D9F7E"/>
<path d="M49.8478 102.3C48.1576 102.361 46.6045 100.844 46.6045 99.16C46.6045 97.5518 48.0358 96.0953 49.6498 96.0346C51.34 95.974 52.8931 97.4911 52.8931 99.1751C52.8931 100.783 51.4618 102.24 49.8478 102.3Z" fill="#8D9F7E"/>
<path d="M-16.6472 132.613C-16.6472 134.312 -18.2156 135.814 -19.9057 135.738C-21.535 135.677 -22.9511 134.206 -22.9358 132.598C-22.9358 130.898 -21.3675 129.396 -19.6773 129.472C-18.0633 129.533 -16.6472 130.989 -16.6472 132.613Z" fill="#8D9F7E"/>
<path d="M85.3108 68.8172C85.2955 70.5164 83.712 72.0032 82.0218 71.9274C80.3925 71.8515 78.9917 70.3647 79.0069 68.7566C79.0374 67.0574 80.6057 65.5706 82.2806 65.6464C83.9099 65.7223 85.326 67.2091 85.3108 68.8172Z" fill="#8D9F7E"/>
<path d="M123.941 3.11013C123.971 1.79022 123.043 0.57651 121.824 0.106198L119.723 0.106198C118.566 0.561338 117.683 1.69919 117.652 2.97358C117.622 4.58175 119.007 6.06854 120.621 6.17474C122.312 6.28094 123.895 4.80932 123.941 3.11013Z" fill="#8D9F7E"/>
<path d="M-0.446011 130.201C-2.16663 130.17 -3.62839 128.608 -3.53703 126.924C-3.44567 125.3 -1.95345 123.92 -0.339424 123.935C1.36597 123.965 2.84296 125.543 2.75159 127.227C2.66023 128.85 1.16802 130.231 -0.446011 130.201Z" fill="#8D9F7E"/>
<path d="M-27.1993 139.683C-27.1384 141.185 -28.6459 142.823 -30.1838 142.914C-31.7826 143.005 -33.4727 141.397 -33.4727 139.789C-33.4727 138.257 -31.9196 136.694 -30.3817 136.664C-28.859 136.633 -27.2602 138.15 -27.1993 139.683Z" fill="#8D9F7E"/>
<path d="M-38.5737 141.655C-37.0662 141.534 -35.6197 140.001 -35.6349 138.499C-35.6654 137.012 -37.0967 135.541 -38.5889 135.435L-38.5737 141.655Z" fill="#8D9F7E"/>
<path d="M89.559 61.5805C89.5742 60.0482 91.1273 58.4856 92.65 58.4704C94.2641 58.44 95.8933 60.1089 95.8324 61.7171C95.7563 63.2494 94.1423 64.7665 92.6348 64.721C91.0969 64.6906 89.5438 63.0977 89.559 61.5805Z" fill="#8D9F7E"/>
<path d="M102.974 36.7298C102.989 35.1975 104.542 33.6349 106.08 33.6197C107.709 33.5894 109.338 35.2582 109.262 36.8664C109.186 38.3987 107.572 39.9158 106.05 39.8855C104.512 39.84 102.974 38.2621 102.974 36.7298Z" fill="#8D9F7E"/>
<path d="M70.3277 87.9331C68.7898 87.8876 67.2519 86.3098 67.2519 84.7927C67.2671 83.1845 68.9725 81.5763 70.5561 81.6825C72.094 81.7887 73.6014 83.4121 73.5253 84.9292C73.4492 86.4464 71.8351 87.9635 70.3277 87.9331Z" fill="#8D9F7E"/>
<path d="M59.8365 95.1092C58.2986 95.094 56.7303 93.5465 56.715 92.0142C56.6846 90.3909 58.3595 88.7676 59.9735 88.8434C61.5114 88.9193 63.0341 90.5274 63.0037 92.0446C62.958 93.5769 61.3744 95.1244 59.8365 95.1092Z" fill="#8D9F7E"/>
<path d="M29.0633 117.077C27.5254 117.047 25.9723 115.484 25.9571 113.952C25.9571 112.329 27.6473 110.721 29.2461 110.812C30.784 110.903 32.2914 112.526 32.2457 114.043C32.2 115.575 30.6012 117.108 29.0633 117.077Z" fill="#8D9F7E"/>
<path d="M122.692 11.9702C122.631 13.5025 121.048 15.0348 119.51 15.0045C117.881 14.9741 116.297 13.2749 116.419 11.6819C116.541 10.1496 118.185 8.66284 119.693 8.7387C121.231 8.8449 122.753 10.4682 122.692 11.9702Z" fill="#8D9F7E"/>
<path d="M21.7088 121.265C21.6175 122.812 20.0035 124.314 18.4808 124.253C16.8515 124.193 15.2984 122.463 15.4507 120.885C15.6029 119.338 17.2627 117.897 18.7701 118.003C20.3232 118.124 21.8002 119.763 21.7088 121.265Z" fill="#8D9F7E"/>
<path d="M-11.0743 137.377C-12.6274 137.286 -14.1196 135.677 -14.0739 134.16C-14.013 132.537 -12.2772 130.989 -10.6936 131.141C-9.14046 131.293 -7.69392 132.947 -7.80051 134.449C-7.92232 135.996 -9.56681 137.468 -11.0743 137.377Z" fill="#8D9F7E"/>
<path d="M117.972 23.8494C116.449 23.8949 114.835 22.3777 114.759 20.8454C114.683 19.2524 116.312 17.5684 117.926 17.5988C119.464 17.6139 121.017 19.1766 121.033 20.7089C121.048 22.226 119.495 23.8039 117.972 23.8494Z" fill="#8D9F7E"/>
<path d="M80.5448 80.6509C78.9003 80.6812 77.4538 79.24 77.4538 77.6166C77.4538 75.9933 78.9156 74.552 80.5601 74.5824C82.1132 74.6127 83.4988 75.963 83.5445 77.5256C83.6054 79.1489 82.1893 80.6206 80.5448 80.6509Z" fill="#8D9F7E"/>
<path d="M58.6184 103.848C56.9891 103.848 55.5426 102.407 55.573 100.768C55.6035 99.1448 57.0805 97.7338 58.7097 97.7793C60.2628 97.84 61.618 99.2055 61.6485 100.753C61.6942 102.391 60.2629 103.848 58.6184 103.848Z" fill="#8D9F7E"/>
<path d="M116.16 32.5881C114.531 32.5577 113.115 31.0558 113.176 29.4476C113.237 27.8243 114.759 26.4285 116.388 26.5347C117.942 26.6257 119.266 28.0367 119.266 29.569C119.266 31.1923 117.789 32.6336 116.16 32.5881Z" fill="#8D9F7E"/>
<path d="M5.00516 128.395C4.94426 126.772 6.37556 125.285 8.02004 125.27C9.57317 125.255 10.9893 126.559 11.0958 128.122C11.2024 129.745 9.83202 131.263 8.18754 131.354C6.55828 131.429 5.05084 130.034 5.00516 128.395Z" fill="#8D9F7E"/>
<path d="M-21.5502 144.462C-23.1795 144.416 -24.5803 142.914 -24.5042 141.291C-24.4281 139.743 -23.0272 138.408 -21.4741 138.408C-19.8448 138.393 -18.3983 139.85 -18.4135 141.473C-18.444 143.096 -19.9209 144.522 -21.5502 144.462Z" fill="#8D9F7E"/>
<path d="M105.836 54.4652C105.806 56.0885 104.314 57.4994 102.7 57.4387C101.07 57.3781 99.6696 55.8609 99.7609 54.2528C99.8523 52.7053 101.253 51.3854 102.806 51.3854C104.436 51.3854 105.867 52.8418 105.836 54.4652Z" fill="#8D9F7E"/>
<path d="M101.405 45.5747C101.405 43.9362 102.867 42.5101 104.512 42.5405C106.156 42.5708 107.572 44.0576 107.511 45.6809C107.45 47.2284 106.065 48.5787 104.512 48.609C102.882 48.6394 101.405 47.1981 101.405 45.5747Z" fill="#8D9F7E"/>
<path d="M45.0514 108.02C45.0361 106.397 46.4827 104.94 48.1119 104.955C49.7412 104.971 51.1725 106.442 51.1268 108.066C51.0812 109.613 49.7107 110.978 48.1576 111.024C46.5436 111.085 45.0666 109.659 45.0514 108.02Z" fill="#8D9F7E"/>
<path d="M0.985313 135.404C1.03099 137.028 -0.38509 138.499 -2.01435 138.514C-3.56747 138.53 -4.98355 137.225 -5.09013 135.677C-5.19672 134.069 -3.82633 132.537 -2.19707 132.461C-0.583042 132.385 0.924408 133.781 0.985313 135.404Z" fill="#8D9F7E"/>
<path d="M37.4989 118.625C35.8697 118.594 34.4536 117.092 34.5145 115.484C34.5754 113.861 36.0981 112.48 37.7273 112.571C39.2805 112.662 40.6052 114.058 40.6052 115.606C40.59 117.229 39.113 118.67 37.4989 118.625Z" fill="#8D9F7E"/>
<path d="M91.0512 73.2928C89.2697 73.308 88.1429 72.1853 88.1582 70.4102C88.1734 68.6352 89.3154 67.5125 91.0969 67.5884C92.8632 67.6491 93.8225 68.5897 93.8834 70.3647C93.9595 72.1398 92.8327 73.2776 91.0512 73.2928Z" fill="#8D9F7E"/>
<path d="M65.8511 93.7134C65.8206 91.9384 66.9169 90.8005 68.6984 90.7854C70.48 90.7702 71.622 91.8929 71.5763 93.6831C71.5306 95.443 70.617 96.4139 68.8355 96.505C67.0692 96.5808 65.8967 95.4581 65.8511 93.7134Z" fill="#8D9F7E"/>
<path d="M129.59 7.55533C127.824 7.52499 126.712 6.35679 126.804 4.58175C126.895 2.82187 127.869 1.89642 129.636 1.8509C131.417 1.80539 132.544 2.94324 132.529 4.71829C132.514 6.49334 131.387 7.60085 129.59 7.55533Z" fill="#8D9F7E"/>
<path d="M30.3119 122.751C30.3272 124.526 29.2004 125.649 27.4189 125.634C25.6373 125.619 24.5106 124.481 24.5867 122.691C24.6476 120.931 25.6069 119.99 27.3732 119.914C29.1699 119.869 30.2967 120.976 30.3119 122.751Z" fill="#8D9F7E"/>
<path d="M79.4028 83.6548C81.0321 83.7307 82.1284 84.914 82.0675 86.5526C82.0218 88.2669 80.7275 89.3896 78.9917 89.2531C77.3777 89.1317 76.327 87.9028 76.4336 86.2491C76.5402 84.6258 77.7583 83.5638 79.4028 83.6548Z" fill="#8D9F7E"/>
<path d="M54.1417 109.643C54.1417 108.005 55.2685 106.882 56.913 106.852C58.6336 106.837 59.8213 108.05 59.7604 109.765C59.6995 111.388 58.527 112.48 56.8825 112.45C55.2533 112.42 54.1417 111.282 54.1417 109.643Z" fill="#8D9F7E"/>
<path d="M128.463 15.9299C126.819 15.9603 125.646 14.8528 125.601 13.2142C125.555 11.5757 126.636 10.3924 128.265 10.3165C130.001 10.2407 131.234 11.4089 131.234 13.1384C131.234 14.7769 130.108 15.8996 128.463 15.9299Z" fill="#8D9F7E"/>
<path d="M129.575 22.044C129.529 23.6825 128.387 24.7748 126.743 24.7748C125.022 24.7596 123.865 23.5156 123.956 21.7861C124.047 20.1779 125.25 19.1007 126.895 19.1614C128.524 19.2221 129.605 20.3903 129.575 22.044Z" fill="#8D9F7E"/>
<path d="M16.882 132.764C15.2375 132.749 14.1107 131.611 14.0955 129.973C14.0803 128.334 15.207 127.181 16.8515 127.151C18.5721 127.121 19.7903 128.319 19.7446 130.049C19.6837 131.687 18.5265 132.78 16.882 132.764Z" fill="#8D9F7E"/>
<path d="M46.3913 119.641C44.7468 119.626 43.6201 118.503 43.6048 116.865C43.5896 115.226 44.7012 114.073 46.3304 114.043C48.051 113.998 49.2692 115.196 49.2235 116.926C49.193 118.549 48.051 119.656 46.3913 119.641Z" fill="#8D9F7E"/>
<path d="M115.079 40.7958C113.434 40.8413 112.247 39.7489 112.171 38.1256C112.095 36.3961 113.282 35.1672 115.003 35.1672C116.647 35.1824 117.789 36.305 117.805 37.9435C117.835 39.5821 116.708 40.7351 115.079 40.7958Z" fill="#8D9F7E"/>
<path d="M113.252 49.6255C111.607 49.58 110.511 48.4421 110.511 46.8036C110.526 45.0893 111.775 43.9362 113.511 44.0273C115.125 44.1183 116.206 45.3168 116.145 46.9553C116.084 48.5635 114.896 49.6558 113.252 49.6255Z" fill="#8D9F7E"/>
<path d="M6.72577 139.956C5.08129 139.91 3.98497 138.772 3.98497 137.134C4.0002 135.419 5.24878 134.266 6.98462 134.357C8.59865 134.449 9.67975 135.647 9.61885 137.286C9.55794 138.894 8.38548 139.986 6.72577 139.956Z" fill="#8D9F7E"/>
<path d="M101.482 65.6313C99.837 65.5857 98.7255 64.4479 98.7407 62.8094C98.7559 61.095 100.005 59.9268 101.74 60.033C103.354 60.1241 104.436 61.3226 104.375 62.9611C104.314 64.5844 103.126 65.6768 101.482 65.6313Z" fill="#8D9F7E"/>
<path d="M-31.6607 151.425C-33.29 151.38 -34.4016 150.227 -34.3863 148.588C-34.3711 146.874 -33.1073 145.721 -31.3714 145.827C-29.7422 145.918 -28.6915 147.117 -28.7524 148.77C-28.8286 150.394 -30.0162 151.471 -31.6607 151.425Z" fill="#8D9F7E"/>
<path d="M36.3265 126.817C34.682 126.832 33.54 125.725 33.5095 124.086C33.4791 122.372 34.682 121.174 36.4026 121.219C38.0319 121.265 39.1282 122.418 39.113 124.056C39.113 125.695 37.971 126.802 36.3265 126.817Z" fill="#8D9F7E"/>
<path d="M-15.3986 143.157C-15.4291 141.503 -14.348 140.35 -12.7035 140.289C-11.059 140.229 -9.85611 141.306 -9.76475 142.929C-9.67339 144.659 -10.8458 145.903 -12.5665 145.903C-14.2262 145.903 -15.3682 144.795 -15.3986 143.157Z" fill="#8D9F7E"/>
<path d="M89.4067 82.077C87.7623 82.0922 86.605 80.9998 86.5593 79.3613C86.5137 77.647 87.7166 76.4333 89.4372 76.4636C91.0665 76.494 92.1932 77.647 92.178 79.2855C92.178 80.924 91.0512 82.0618 89.4067 82.077Z" fill="#8D9F7E"/>
<path d="M67.4042 105.259C65.9119 105.213 64.6177 103.833 64.6938 102.346C64.7699 100.859 66.186 99.5392 67.663 99.7213C69.2618 99.9185 70.2059 100.889 70.2516 102.513C70.3125 103.984 68.8964 105.304 67.4042 105.259Z" fill="#8D9F7E"/>
<path d="M122.312 30.7068C122.357 29.22 123.758 27.9305 125.235 28.0215C126.727 28.0973 128.052 29.5234 127.869 30.9951C127.671 32.5881 126.697 33.5135 125.068 33.5742C123.56 33.6045 122.266 32.1936 122.312 30.7068Z" fill="#8D9F7E"/>
<path d="M-19.9209 150.196C-19.8753 151.683 -21.1695 153.033 -22.677 153.064C-24.1844 153.079 -25.57 151.759 -25.4787 150.272C-25.3873 148.664 -24.4433 147.693 -22.8445 147.526C-21.3523 147.359 -19.9666 148.694 -19.9209 150.196Z" fill="#8D9F7E"/>
<path d="M-3.75019 147.101C-5.24241 147.086 -6.61282 145.721 -6.491 144.249C-6.35397 142.641 -5.4099 141.685 -3.79587 141.564C-2.30365 141.458 -0.948486 142.808 -0.933258 144.31C-0.91803 145.797 -2.25798 147.117 -3.75019 147.101Z" fill="#8D9F7E"/>
<path d="M77.667 98.0676C76.1747 98.1131 74.7587 96.8084 74.8196 95.3216C74.8805 93.6983 75.8093 92.7273 77.4081 92.5301C78.8699 92.348 80.3012 93.6679 80.3773 95.1547C80.4534 96.6415 79.1744 98.0221 77.667 98.0676Z" fill="#8D9F7E"/>
<path d="M111.592 58.4249C110.1 58.3794 108.806 56.9988 108.882 55.5271C108.958 54.0404 110.374 52.7204 111.851 52.9025C113.45 53.0997 114.379 54.0555 114.439 55.6789C114.5 57.1657 113.084 58.4704 111.592 58.4249Z" fill="#8D9F7E"/>
<path d="M97.1115 71.5936C97.1571 70.1068 98.5428 68.8172 100.02 68.8931C101.512 68.969 102.837 70.3799 102.654 71.8515C102.456 73.4445 101.497 74.37 99.8675 74.4306C98.3753 74.4913 97.0658 73.0804 97.1115 71.5936Z" fill="#8D9F7E"/>
<path d="M23.0031 131.551C23.0488 130.064 24.4344 128.774 25.9114 128.85C27.4189 128.926 28.7284 130.337 28.5609 131.809C28.3629 133.402 27.4036 134.327 25.7744 134.403C24.2669 134.449 22.9574 133.038 23.0031 131.551Z" fill="#8D9F7E"/>
<path d="M15.542 141.534C13.9737 141.23 12.9839 140.35 12.9687 138.712C12.9535 137.225 14.4609 135.89 15.9227 136.117C17.5215 136.36 18.4808 137.361 18.359 139C18.2372 140.608 17.1408 141.412 15.542 141.534Z" fill="#8D9F7E"/>
<path d="M124.946 48.4876C124.717 50.0655 123.865 51.1275 122.236 51.1426C120.621 51.1578 119.647 50.1565 119.495 48.5635C119.358 47.0919 120.789 45.6658 122.251 45.7871C123.895 45.9085 124.733 46.9098 124.946 48.4876Z" fill="#8D9F7E"/>
<path d="M141.254 6.1444C141.056 7.52499 140.218 8.5263 138.589 8.64767C137.097 8.75387 135.681 7.32776 135.833 5.85614C135.985 4.24798 136.96 3.32253 138.589 3.26184C140.005 3.20115 141.254 4.53623 141.254 6.1444Z" fill="#8D9F7E"/>
<path d="M55.101 121.204C53.7154 121.007 52.6343 120.172 52.619 118.534C52.5886 116.91 53.5936 115.955 55.2076 115.788C56.6846 115.651 58.055 117.047 58.0245 118.534C57.9788 119.945 56.6998 121.204 55.101 121.204Z" fill="#8D9F7E"/>
<path d="M136.899 17.5229C135.3 17.3257 134.295 16.4913 134.158 14.8679C134.036 13.3963 135.452 11.9702 136.929 12.0916C138.543 12.2281 139.548 13.1991 139.548 14.8072C139.548 16.4306 138.482 17.2802 136.899 17.5229Z" fill="#8D9F7E"/>
<path d="M110.343 67.2243C108.775 66.9512 107.785 66.0864 107.724 64.4631C107.679 62.9763 109.156 61.6109 110.618 61.8081C112.216 62.0205 113.206 63.0066 113.115 64.63C113.023 66.2381 111.942 67.0574 110.343 67.2243Z" fill="#8D9F7E"/>
<path d="M138.376 23.5459C138.193 25.1389 137.371 26.1402 135.757 26.3071C134.295 26.4588 132.833 25.0479 132.94 23.5914C133.046 21.9833 134.006 20.982 135.62 20.9516C137.249 20.9213 138.102 21.9833 138.376 23.5459Z" fill="#8D9F7E"/>
<path d="M75.8702 106.867C74.3019 106.594 73.3121 105.759 73.236 104.121C73.1751 102.649 74.6369 101.269 76.0986 101.451C77.6974 101.648 78.6872 102.634 78.611 104.258C78.5501 105.851 77.469 106.685 75.8702 106.867Z" fill="#8D9F7E"/>
<path d="M47.9292 125.664C47.716 127.242 46.8786 128.319 45.2493 128.35C43.6201 128.38 42.6456 127.394 42.4933 125.786C42.341 124.314 43.7571 122.873 45.2341 122.979C46.8633 123.085 47.7008 124.086 47.9292 125.664Z" fill="#8D9F7E"/>
<path d="M97.9794 83.2149C96.5937 82.9721 95.604 82.1377 95.5279 80.4992C95.467 79.0124 96.9287 77.647 98.4057 77.829C100.005 78.0263 100.918 79.0124 100.933 80.6357C100.949 82.0315 99.5629 83.2604 97.9794 83.2149Z" fill="#8D9F7E"/>
<path d="M34.4384 135.556C33.0527 135.344 32.0478 134.509 31.9564 132.886C31.865 131.414 33.3116 130.003 34.7886 130.17C36.3874 130.337 37.3162 131.308 37.3619 132.931C37.3923 134.327 36.0372 135.571 34.4384 135.556Z" fill="#8D9F7E"/>
<path d="M-13.9825 154.642C-15.3834 154.475 -16.3884 153.655 -16.5406 152.032C-16.6777 150.56 -15.2616 149.119 -13.7846 149.241C-12.1706 149.362 -11.2265 150.318 -11.1351 151.941C-11.059 153.337 -12.3685 154.611 -13.9825 154.642Z" fill="#8D9F7E"/>
<path d="M-35.9699 157.524C-35.8024 155.931 -34.9649 154.93 -33.3509 154.763C-31.8739 154.611 -30.4274 156.007 -30.534 157.479C-30.6405 159.087 -31.5998 160.103 -33.2139 160.118C-34.8431 160.149 -35.711 159.087 -35.9699 157.524Z" fill="#8D9F7E"/>
<path d="M68.5614 111.449C68.2569 113.011 67.3737 113.982 65.7292 114.013C64.237 114.028 62.8971 112.526 63.1255 111.069C63.3691 109.492 64.3741 108.521 66.0033 108.642C67.6326 108.763 68.4396 109.856 68.5614 111.449Z" fill="#8D9F7E"/>
<path d="M7.883 146.055C7.60892 147.617 6.77145 148.619 5.12697 148.679C3.63475 148.74 2.26435 147.283 2.44707 145.827C2.64502 144.234 3.63475 143.248 5.26401 143.324C6.87804 143.384 7.71551 144.462 7.883 146.055Z" fill="#8D9F7E"/>
<path d="M90.8685 87.6145C90.701 89.2075 89.8635 90.224 88.2343 90.3757C86.7573 90.5274 85.3108 89.1317 85.4021 87.6449C85.5087 86.0216 86.468 85.0202 88.0972 85.0051C89.7417 84.9899 90.6096 86.0519 90.8685 87.6145Z" fill="#8D9F7E"/>
<path d="M89.1783 96.7022C88.9804 98.0828 88.1429 99.16 86.5289 99.1903C84.9149 99.2206 83.9404 98.2345 83.7729 96.6415C83.6206 95.1851 85.0367 93.8045 86.5137 93.8196C87.8993 93.85 89.1783 95.1244 89.1783 96.7022Z" fill="#8D9F7E"/>
<path d="M123.21 42.3432C121.824 42.1308 120.819 41.2964 120.728 39.6579C120.637 38.1711 122.083 36.7754 123.56 36.9422C125.174 37.1091 126.103 38.0801 126.134 39.7186C126.179 41.1144 124.824 42.3584 123.21 42.3432Z" fill="#8D9F7E"/>
<path d="M24.6171 143.066C23.1402 143.111 21.9372 141.958 21.922 140.472C21.9068 139 23.0945 137.771 24.5715 137.847C26.1246 137.923 27.023 138.788 27.16 140.32C27.2818 141.791 26.1094 143.02 24.6171 143.066Z" fill="#8D9F7E"/>
<path d="M-5.40991 155.779C-6.8869 155.764 -8.05936 154.566 -8.01368 153.094C-7.96799 151.622 -6.73463 150.439 -5.27287 150.56C-3.73497 150.697 -2.86705 151.577 -2.79092 153.124C-2.71478 154.611 -3.91769 155.795 -5.40991 155.779Z" fill="#8D9F7E"/>
<path d="M-26.9709 158.965C-26.8948 157.494 -25.631 156.386 -24.1692 156.508C-22.6922 156.614 -21.5807 157.903 -21.7634 159.36C-21.9613 160.892 -22.9054 161.711 -24.4433 161.711C-25.9355 161.711 -27.0623 160.437 -26.9709 158.965Z" fill="#8D9F7E"/>
<path d="M136.594 32.4667C136.594 33.9383 135.391 35.1065 133.914 35.0762C132.437 35.0458 131.25 33.8169 131.372 32.3453C131.493 30.813 132.392 29.9331 133.945 29.8572C135.407 29.7662 136.594 30.9951 136.594 32.4667Z" fill="#8D9F7E"/>
<path d="M120.561 59.9117C119.084 59.9268 117.896 58.7435 117.911 57.2718C117.926 55.8002 119.129 54.6017 120.606 54.6927C122.159 54.7989 123.027 55.694 123.134 57.2112C123.24 58.698 122.038 59.8965 120.561 59.9117Z" fill="#8D9F7E"/>
<path d="M108.714 75.9326C107.237 75.9023 106.034 74.6886 106.156 73.2321C106.278 71.6998 107.161 70.8199 108.699 70.7288C110.176 70.6378 111.379 71.8515 111.379 73.3231C111.394 74.7948 110.191 75.963 108.714 75.9326Z" fill="#8D9F7E"/>
<path d="M99.6086 89.3441C99.365 90.8309 98.5732 91.7867 97.0506 91.8929C95.6801 91.9991 94.2793 90.573 94.4316 89.2227C94.5991 87.7208 95.5279 86.7498 97.0506 86.7953C98.5732 86.8408 99.3802 87.8573 99.6086 89.3441Z" fill="#8D9F7E"/>
<path d="M16.7602 147.056C16.3338 149.195 15.5268 150.136 13.9889 150.212C12.6185 150.272 11.2633 148.801 11.4613 147.466C11.6897 145.979 12.6794 144.871 14.1412 145.175C15.1766 145.372 16.0445 146.51 16.7602 147.056Z" fill="#8D9F7E"/>
<path d="M72.2919 112.632C72.3376 111.16 73.0533 110.25 74.5607 110.174C76.0377 110.114 76.9818 110.857 77.0579 112.359C77.1493 113.937 76.327 114.877 74.713 114.908C73.2208 114.938 72.429 114.089 72.2919 112.632Z" fill="#8D9F7E"/>
<path d="M54.1113 129.715C52.6495 129.67 51.7359 128.956 51.675 127.439C51.6141 125.968 52.3602 125.027 53.8676 124.951C55.4512 124.86 56.3953 125.679 56.4257 127.288C56.4562 128.805 55.6035 129.594 54.1113 129.715Z" fill="#8D9F7E"/>
<path d="M64.1304 122.539C62.623 122.433 61.7703 121.644 61.7855 120.157C61.8008 118.549 62.7296 117.715 64.3131 117.775C65.8206 117.836 66.5972 118.761 66.5515 120.233C66.5058 121.75 65.6074 122.478 64.1304 122.539Z" fill="#8D9F7E"/>
<path d="M43.5287 136.906C42.0517 136.815 41.1686 136.072 41.1381 134.57C41.1229 132.962 42.0213 132.097 43.6048 132.142C45.1123 132.188 45.9041 133.068 45.8888 134.555C45.8888 136.057 45.0057 136.815 43.5287 136.906Z" fill="#8D9F7E"/>
<path d="M134.721 41.2964C134.584 42.8591 133.777 43.6935 132.285 43.6631C130.671 43.6328 129.864 42.6922 129.94 41.1144C130.016 39.5972 130.976 38.869 132.453 38.9297C133.96 38.9752 134.645 39.9158 134.721 41.2964Z" fill="#8D9F7E"/>
<path d="M117.637 77.3587C116.16 77.207 115.262 76.4333 115.307 74.9313C115.353 73.4445 116.267 72.6101 117.759 72.6556C119.145 72.7011 119.967 73.5507 119.982 74.9313C119.997 76.4484 119.099 77.1918 117.637 77.3587Z" fill="#8D9F7E"/>
<path d="M5.88831 154.717C5.72082 156.295 4.94425 157.19 3.42158 157.16C1.91414 157.115 1.07666 156.204 1.12234 154.717C1.16803 153.322 2.02072 152.502 3.42158 152.487C4.9747 152.442 5.69036 153.382 5.88831 154.717Z" fill="#8D9F7E"/>
<path d="M107.176 84.5499C105.699 84.4437 104.77 83.7003 104.755 82.1984C104.725 80.8026 105.532 79.9227 106.917 79.8316C108.41 79.7406 109.369 80.5447 109.445 82.0467C109.536 83.5335 108.653 84.3527 107.176 84.5499Z" fill="#8D9F7E"/>
<path d="M133.458 50.1413C133.29 51.6129 132.514 52.508 131.006 52.4625C129.499 52.417 128.676 51.4916 128.737 50.0048C128.798 48.6242 129.651 47.8049 131.052 47.7898C132.544 47.7746 133.305 48.6697 133.458 50.1413Z" fill="#8D9F7E"/>
<path d="M87.1989 105.38C87.0314 106.852 86.2396 107.747 84.7322 107.701C83.2247 107.656 82.3873 106.73 82.4482 105.244C82.5091 103.848 83.377 103.029 84.7626 103.013C86.2853 103.013 87.0466 103.909 87.1989 105.38Z" fill="#8D9F7E"/>
<path d="M64.8765 128.881C64.7852 130.337 64.0695 131.293 62.5469 131.308C61.0546 131.338 60.1715 130.474 60.1563 128.987C60.141 127.606 60.9481 126.741 62.3337 126.65C63.8411 126.575 64.6634 127.409 64.8765 128.881Z" fill="#8D9F7E"/>
<path d="M118.931 68.5442C117.363 68.3621 116.48 67.5732 116.525 66.0712C116.571 64.6755 117.409 63.841 118.809 63.8107C120.302 63.7804 121.215 64.63 121.231 66.1319C121.246 67.649 120.302 68.3621 118.931 68.5442Z" fill="#8D9F7E"/>
<path d="M-6.62805 164.382C-8.10504 164.23 -9.00341 163.456 -8.97296 161.954C-8.92728 160.467 -8.01368 159.633 -6.52146 159.678C-5.13583 159.724 -4.31359 160.574 -4.28313 161.969C-4.26791 163.456 -5.16629 164.215 -6.62805 164.382Z" fill="#8D9F7E"/>
<path d="M146.888 25.2906C146.72 26.7623 145.928 27.6574 144.421 27.5967C142.929 27.5512 142.091 26.6257 142.152 25.1389C142.213 23.7583 143.081 22.9391 144.466 22.9391C145.989 22.9239 146.75 23.8342 146.888 25.2906Z" fill="#8D9F7E"/>
<path d="M148.136 16.3547C148.03 17.8263 147.299 18.767 145.776 18.7821C144.269 18.7973 143.401 17.9174 143.401 16.4154C143.401 15.0196 144.223 14.17 145.624 14.0942C147.101 14.0183 147.923 14.8831 148.136 16.3547Z" fill="#8D9F7E"/>
<path d="M144.664 7.14571C145.563 6.50851 146.385 5.5072 147.375 5.30997C148.791 5.03689 149.735 6.06854 149.765 7.54016C149.796 9.01178 148.913 10.0738 147.481 9.87655C146.492 9.74001 145.624 8.76904 144.695 8.16219C144.68 7.82842 144.664 7.49465 144.664 7.14571Z" fill="#8D9F7E"/>
<path d="M-15.5509 162.728C-17.0279 162.531 -17.911 161.727 -17.8349 160.225C-17.774 158.844 -16.9213 158.01 -15.5204 157.994C-14.013 157.979 -13.1298 158.859 -13.1298 160.346C-13.1451 161.878 -14.0891 162.607 -15.5509 162.728Z" fill="#8D9F7E"/>
<path d="M92.9546 98.1131C93.1525 96.6415 93.9595 95.7767 95.4518 95.8374C96.8374 95.8981 97.6749 96.7477 97.6749 98.1283C97.6901 99.6151 96.8221 100.51 95.3147 100.495C93.8073 100.51 93.0764 99.5847 92.9546 98.1131Z" fill="#8D9F7E"/>
<path d="M22.8813 151.258C21.3282 151.061 20.4755 150.257 20.5364 148.755C20.5973 147.374 21.45 146.54 22.8356 146.525C24.3431 146.51 25.2262 147.374 25.2262 148.876C25.2414 150.409 24.2669 151.107 22.8813 151.258Z" fill="#8D9F7E"/>
<path d="M35.3824 141.609C35.2758 143.081 34.545 144.022 33.0223 144.037C31.5148 144.052 30.6469 143.172 30.6317 141.685C30.6165 140.289 31.4539 139.425 32.8396 139.349C34.3622 139.273 35.1692 140.138 35.3824 141.609Z" fill="#8D9F7E"/>
<path d="M-32.4982 166.111C-32.62 167.689 -33.3509 168.614 -34.8736 168.645C-36.2744 168.675 -37.1576 167.871 -37.2489 166.49C-37.3403 165.004 -36.5333 164.063 -35.0258 163.972C-33.5032 163.866 -32.7418 164.776 -32.4982 166.111Z" fill="#8D9F7E"/>
<path d="M-28.6458 167.37C-27.7627 166.794 -26.9252 165.853 -25.9812 165.747C-24.5346 165.58 -23.6515 166.657 -23.7733 168.144C-23.8799 169.525 -24.8392 170.45 -26.1639 170.162C-27.0927 169.949 -27.8541 168.963 -28.6915 168.326C-28.6611 168.008 -28.6458 167.689 -28.6458 167.37Z" fill="#8D9F7E"/>
<path d="M80.9255 113.785C81.7782 113.163 82.5547 112.162 83.4836 111.995C84.9149 111.737 85.8589 112.753 85.8437 114.24C85.8285 115.621 84.9149 116.607 83.5902 116.395C82.6461 116.243 81.8239 115.302 80.9559 114.726C80.9407 114.422 80.9255 114.104 80.9255 113.785Z" fill="#8D9F7E"/>
<path d="M-19.7839 168.705C-18.916 168.099 -18.1242 167.158 -17.1802 166.991C-15.8554 166.748 -14.9418 167.734 -14.8961 169.1C-14.8505 170.572 -15.7793 171.618 -17.2106 171.391C-18.1394 171.239 -18.9312 170.253 -19.7839 169.646C-19.7839 169.312 -19.7839 169.009 -19.7839 168.705Z" fill="#8D9F7E"/>
<path d="M93.2896 109.659C92.65 108.824 91.6755 108.066 91.4623 107.14C91.173 105.835 92.1171 104.88 93.4875 104.773C94.9645 104.667 96.0456 105.547 95.8781 106.988C95.7715 107.914 94.8122 108.748 94.2336 109.628C93.9138 109.628 93.6093 109.643 93.2896 109.659Z" fill="#8D9F7E"/>
<path d="M105.06 93.6376C104.42 92.8032 103.431 92.0446 103.233 91.104C102.943 89.7992 103.887 88.8283 105.258 88.7372C106.735 88.6462 107.831 89.511 107.648 90.9522C107.527 91.8929 106.582 92.7273 106.004 93.6072C105.684 93.6224 105.38 93.6376 105.06 93.6376Z" fill="#8D9F7E"/>
<path d="M4.86811 164.169C4.00019 164.761 3.19318 165.701 2.24913 165.853C0.924404 166.081 0.0107994 165.095 -0.00442884 163.714C-0.0196571 162.242 0.893948 161.211 2.32526 161.454C3.25409 161.62 4.03064 162.607 4.88334 163.229C4.88334 163.547 4.86811 163.851 4.86811 164.169Z" fill="#8D9F7E"/>
<path d="M143.812 43.3446C142.974 43.9666 142.198 44.9831 141.269 45.1499C139.838 45.4079 138.894 44.3914 138.909 42.9198C138.924 41.5392 139.822 40.553 141.147 40.7654C142.091 40.9171 142.913 41.8426 143.781 42.4343C143.797 42.7225 143.812 43.026 143.812 43.3446Z" fill="#8D9F7E"/>
<path d="M41.4731 145.994C40.8336 145.159 39.8591 144.401 39.6459 143.46C39.3566 142.14 40.3007 141.185 41.6711 141.094C43.148 140.987 44.2444 141.867 44.0616 143.309C43.9398 144.249 42.9958 145.068 42.4172 145.948C42.1126 145.964 41.7929 145.979 41.4731 145.994Z" fill="#8D9F7E"/>
<path d="M142.335 36.7298C141.741 35.8651 140.766 35.061 140.629 34.1204C140.416 32.6791 141.482 31.784 142.974 31.8447C144.36 31.9054 145.319 32.846 145.06 34.1659C144.878 35.1065 143.903 35.8802 143.294 36.7298C142.959 36.7298 142.655 36.7298 142.335 36.7298Z" fill="#8D9F7E"/>
<path d="M49.7412 135.753C50.5939 135.131 51.3705 134.13 52.2993 133.963C53.7306 133.705 54.6747 134.722 54.6594 136.224C54.6442 137.604 53.7306 138.59 52.4059 138.378C51.4618 138.226 50.6396 137.286 49.7717 136.694C49.7564 136.375 49.7564 136.072 49.7412 135.753Z" fill="#8D9F7E"/>
<path d="M128.92 61.5805C128.311 60.7157 127.367 59.9268 127.199 58.9862C126.956 57.6663 127.946 56.7408 129.331 56.7105C130.823 56.665 131.859 57.5904 131.63 59.0166C131.478 59.942 130.488 60.7461 129.864 61.5957C129.544 61.5957 129.225 61.5957 128.92 61.5805Z" fill="#8D9F7E"/>
<path d="M155.81 11.864C155.201 11.0144 154.242 10.2255 154.059 9.30004C153.8 7.98013 154.775 7.05468 156.145 6.99399C157.622 6.93331 158.673 7.84359 158.46 9.2697C158.323 10.1951 157.333 10.9992 156.739 11.8488C156.435 11.864 156.13 11.864 155.81 11.864Z" fill="#8D9F7E"/>
<path d="M125.098 67.4215C125.936 66.7843 126.697 65.8133 127.626 65.6009C128.935 65.3127 129.895 66.2533 129.986 67.6187C130.092 69.0903 129.209 70.1675 127.763 69.9854C126.834 69.8792 125.996 68.9234 125.113 68.3318C125.129 68.0435 125.113 67.7249 125.098 67.4215Z" fill="#8D9F7E"/>
<path d="M158.049 2.60947C158.978 2.39707 159.739 1.42611 160.576 0.78891C160.576 0.530997 160.561 0.257913 160.546 3.17055e-08L155.689 0.0151712C155.673 0.197227 155.658 0.394455 155.673 0.606854C155.765 1.97228 156.739 2.9129 158.049 2.60947Z" fill="#8D9F7E"/>
<path d="M9.69498 156.098C10.5325 155.461 11.2938 154.475 12.2378 154.277C13.5626 153.989 14.5218 154.93 14.6132 156.295C14.7198 157.782 13.8366 158.859 12.3901 158.677C11.446 158.556 10.6086 157.615 9.74066 157.023C9.72543 156.72 9.71021 156.401 9.69498 156.098Z" fill="#8D9F7E"/>
<path d="M29.109 150.151C29.9465 149.514 30.7078 148.543 31.6367 148.33C32.9461 148.042 33.9054 148.983 34.012 150.348C34.1186 151.82 33.2355 152.897 31.7889 152.73C30.8601 152.624 30.0226 151.668 29.1395 151.091C29.1395 150.773 29.1243 150.454 29.109 150.151Z" fill="#8D9F7E"/>
<path d="M115.597 86.4464C114.957 85.6119 113.983 84.8534 113.769 83.9279C113.48 82.6232 114.424 81.6674 115.795 81.5764C117.272 81.4702 118.353 82.3501 118.17 83.7914C118.063 84.7168 117.104 85.5512 116.525 86.4312C116.221 86.4312 115.901 86.4312 115.597 86.4464Z" fill="#8D9F7E"/>
<path d="M75.6571 121.887C74.7891 122.478 73.9821 123.449 73.0381 123.586C71.5915 123.798 70.6931 122.736 70.7541 121.249C70.815 119.869 71.759 118.913 73.0837 119.171C74.0278 119.353 74.8043 120.324 75.6723 120.946C75.6723 121.265 75.6723 121.568 75.6571 121.887Z" fill="#8D9F7E"/>
<path d="M21.3891 160.877C20.2623 159.481 19.0442 158.616 19.1203 157.919C19.2269 157.039 20.4146 156.28 21.1302 155.461C21.9068 156.144 23.2467 156.781 23.3229 157.524C23.399 158.374 22.3484 159.33 21.3891 160.877Z" fill="#8D9F7E"/>
<path d="M154.47 21.2551C153.496 19.7228 152.445 18.7821 152.506 17.9325C152.567 17.1891 153.892 16.5368 154.668 15.8389C155.399 16.643 156.587 17.3864 156.709 18.2663C156.8 18.9794 155.582 19.8593 154.47 21.2551Z" fill="#8D9F7E"/>
<path d="M81.5346 125.513C80.9407 124.709 79.8292 123.874 79.8901 123.116C79.951 122.327 81.1386 121.629 81.8239 120.885C82.57 121.583 83.7881 122.19 83.9099 122.979C84.0165 123.722 82.9659 124.633 82.4329 125.467C82.1284 125.497 81.8391 125.497 81.5346 125.513Z" fill="#8D9F7E"/>
<path d="M-36.5028 177.611C-37.0967 176.807 -38.2234 175.957 -38.1625 175.214C-38.1016 174.425 -36.914 173.712 -36.2135 172.969C-35.4674 173.666 -34.234 174.273 -34.1122 175.062C-34.0056 175.806 -35.0563 176.731 -35.6045 177.565C-35.8938 177.596 -36.1983 177.596 -36.5028 177.611Z" fill="#8D9F7E"/>
<path d="M103.842 102.316C103.248 101.512 102.136 100.662 102.197 99.9185C102.258 99.1296 103.446 98.4317 104.146 97.6883C104.892 98.3862 106.126 99.0082 106.232 99.782C106.339 100.525 105.288 101.451 104.74 102.285C104.436 102.3 104.131 102.316 103.842 102.316Z" fill="#8D9F7E"/>
<path d="M68.8811 129.852C69.6882 129.26 70.5256 128.152 71.287 128.213C72.0788 128.274 73.3426 129.442 73.373 130.155C73.4035 130.868 72.2158 132.112 71.424 132.234C70.6779 132.34 69.7491 131.293 68.9116 130.747C68.8964 130.458 68.8964 130.155 68.8811 129.852Z" fill="#8D9F7E"/>
<path d="M155.826 27.0202C154.988 27.5663 154.075 28.6132 153.328 28.507C152.537 28.4008 151.912 27.1719 151.212 26.4437C151.958 25.7458 152.643 24.5624 153.435 24.5017C154.181 24.441 155.034 25.5486 155.841 26.1251C155.841 26.4285 155.826 26.7319 155.826 27.0202Z" fill="#8D9F7E"/>
<path d="M140.462 48.9124C141.01 49.7469 142.061 50.6723 141.954 51.4157C141.832 52.2046 140.614 52.8266 139.868 53.5245C139.168 52.7811 137.995 52.0833 137.919 51.2943C137.858 50.5358 138.97 49.6862 139.563 48.8821C139.868 48.8821 140.157 48.8973 140.462 48.9124Z" fill="#8D9F7E"/>
<path d="M60.9024 139.88C60.3085 139.076 59.197 138.241 59.2579 137.483C59.3188 136.694 60.5065 135.996 61.2069 135.253C61.953 135.95 63.1712 136.557 63.293 137.346C63.3996 138.09 62.3489 139 61.816 139.85C61.4962 139.865 61.1917 139.865 60.9024 139.88Z" fill="#8D9F7E"/>
<path d="M53.1824 145.524C52.345 146.07 51.4314 147.117 50.6853 147.01C49.8935 146.889 49.2692 145.675 48.584 144.932C49.3301 144.234 50.0305 143.066 50.8223 143.005C51.5684 142.944 52.4211 144.037 53.2281 144.628C53.2129 144.932 53.1977 145.22 53.1824 145.524Z" fill="#8D9F7E"/>
<path d="M90.1681 115.408C90.9294 114.908 91.706 113.998 92.4521 114.028C93.1221 114.058 94.3098 115.196 94.2488 115.697C94.1423 116.455 93.2134 117.532 92.4978 117.654C91.8278 117.775 90.9599 116.819 90.1833 116.334C90.1833 116.046 90.1833 115.727 90.1681 115.408Z" fill="#8D9F7E"/>
<path d="M-7.93754 168.569C-7.40461 169.312 -6.39964 170.101 -6.47578 170.769C-6.55191 171.497 -7.5721 172.498 -8.31821 172.65C-8.82069 172.756 -10.0541 171.649 -10.115 170.981C-10.1911 170.238 -9.3384 169.403 -8.8816 168.614C-8.56184 168.599 -8.2573 168.584 -7.93754 168.569Z" fill="#8D9F7E"/>
<path d="M104.786 109.173C104.009 109.643 103.156 110.599 102.486 110.478C101.771 110.356 100.842 109.279 100.735 108.521C100.659 108.02 101.862 106.882 102.517 106.852C103.248 106.821 104.024 107.717 104.786 108.217C104.786 108.551 104.786 108.854 104.786 109.173Z" fill="#8D9F7E"/>
<path d="M147.832 43.6025C148.623 43.1473 149.507 42.237 150.161 42.3736C150.877 42.5253 151.76 43.6176 151.836 44.3762C151.897 44.8769 150.664 45.9692 150.009 45.9692C149.278 45.9692 148.532 45.0437 147.786 44.5279C147.801 44.2397 147.816 43.9211 147.832 43.6025Z" fill="#8D9F7E"/>
<path d="M0.0869255 174.728C-0.385101 173.955 -1.32915 173.105 -1.22257 172.453C-1.10075 171.74 -0.0196495 170.814 0.72646 170.708C1.22894 170.632 2.37094 171.831 2.40139 172.483C2.43185 173.211 1.53346 173.985 1.03098 174.744C0.711224 174.728 0.39146 174.728 0.0869255 174.728Z" fill="#8D9F7E"/>
<path d="M116.571 93.1369C115.795 93.6224 114.957 94.5782 114.287 94.472C113.556 94.3506 112.627 93.2886 112.506 92.5301C112.43 92.0294 113.617 90.8764 114.272 90.846C115.018 90.8005 115.795 91.6956 116.571 92.1963C116.571 92.4997 116.571 92.8183 116.571 93.1369Z" fill="#8D9F7E"/>
<path d="M153.953 35.8499C153.176 36.3202 152.369 37.2002 151.638 37.1546C150.984 37.1091 149.811 35.9409 149.902 35.4403C150.039 34.6817 150.984 33.6349 151.714 33.5287C152.384 33.4377 153.222 34.4086 153.983 34.9093C153.968 35.2279 153.953 35.5465 153.953 35.8499Z" fill="#8D9F7E"/>
<path d="M10.6543 167.568C10.1518 166.809 9.19249 165.975 9.29908 165.307C9.40567 164.579 10.4563 163.638 11.2176 163.517C11.7201 163.441 12.8926 164.594 12.9383 165.262C12.9839 166.005 12.0856 166.794 11.6135 167.568C11.2938 167.552 10.974 167.552 10.6543 167.568Z" fill="#8D9F7E"/>
<path d="M128.753 76.7064C127.976 77.1918 127.123 78.1476 126.453 78.0263C125.722 77.9049 124.794 76.8277 124.687 76.0692C124.611 75.5685 125.814 74.4155 126.469 74.3851C127.215 74.3548 127.991 75.2499 128.753 75.7506C128.768 76.0692 128.753 76.3878 128.753 76.7064Z" fill="#8D9F7E"/>
<path d="M29.581 161.59C29.109 160.816 28.2259 160.012 28.2715 159.284C28.3172 158.632 29.4897 157.479 29.9922 157.554C30.7535 157.691 31.7889 158.632 31.8955 159.36C32.0021 160.027 31.0276 160.847 30.5251 161.605C30.2053 161.605 29.9008 161.605 29.581 161.59Z" fill="#8D9F7E"/>
<path d="M40.1179 154.429C39.6307 153.655 38.6866 152.806 38.8084 152.138C38.9302 151.41 40.0113 150.485 40.7727 150.394C41.2751 150.318 42.4171 151.516 42.4476 152.184C42.4781 152.927 41.5645 153.701 41.0772 154.46C40.7574 154.429 40.4377 154.429 40.1179 154.429Z" fill="#8D9F7E"/>
<path d="M137.873 62.4604C137.356 61.7171 136.427 60.9585 136.442 60.2151C136.457 59.5476 137.569 58.3339 138.071 58.3945C138.833 58.4856 139.929 59.3807 140.081 60.1089C140.218 60.7764 139.274 61.6564 138.817 62.4301C138.513 62.4453 138.193 62.4453 137.873 62.4604Z" fill="#8D9F7E"/>
<path d="M-27.8236 179.007C-28.2804 178.218 -29.1483 177.399 -29.0874 176.67C-29.0265 176.018 -27.8388 174.88 -27.3211 174.971C-26.5598 175.108 -25.5396 176.094 -25.4482 176.807C-25.3721 177.49 -26.3618 178.294 -26.8795 179.037C-27.1841 179.037 -27.5038 179.022 -27.8236 179.007Z" fill="#8D9F7E"/>
<path d="M-18.4744 180.691C-19.3119 179.401 -20.2255 178.612 -20.1341 177.975C-20.0275 177.292 -18.9616 176.276 -18.3374 176.291C-17.7131 176.306 -16.7081 177.399 -16.6472 178.081C-16.6015 178.734 -17.5608 179.462 -18.4744 180.691Z" fill="#8D9F7E"/>
<path d="M67.4498 139.076C68.6984 138.196 69.4598 137.24 70.0993 137.316C70.7845 137.392 71.8503 138.408 71.8656 139.03C71.8656 139.652 70.8302 140.699 70.145 140.79C69.4902 140.866 68.7289 139.941 67.4498 139.076Z" fill="#8D9F7E"/>
<path d="M77.5604 131.96C78.7937 131.05 79.5094 130.094 80.1642 130.14C80.8494 130.201 81.9457 131.187 81.9609 131.809C81.9761 132.431 80.9559 133.508 80.286 133.599C79.6464 133.705 78.8547 132.795 77.5604 131.96Z" fill="#8D9F7E"/>
<path d="M59.5167 148.907C58.6793 147.632 57.7657 146.844 57.857 146.191C57.9636 145.508 59.0295 144.492 59.6538 144.507C60.2781 144.522 61.283 145.615 61.3439 146.297C61.3896 146.95 60.4303 147.678 59.5167 148.907Z" fill="#8D9F7E"/>
<path d="M160.805 19.3586C162.053 18.4787 162.799 17.5381 163.454 17.5988C164.139 17.6746 165.205 18.6911 165.205 19.3131C165.205 19.9352 164.17 20.982 163.485 21.0578C162.845 21.1337 162.069 20.2082 160.805 19.3586Z" fill="#8D9F7E"/>
<path d="M16.882 166.703C18.0849 165.762 18.7853 164.776 19.4401 164.822C20.1253 164.852 21.252 165.838 21.2825 166.46C21.313 167.082 20.3232 168.174 19.6532 168.296C19.0137 168.387 18.1915 167.507 16.882 166.703Z" fill="#8D9F7E"/>
<path d="M167.824 10.5744C166.53 11.4089 165.738 12.3191 165.099 12.2281C164.413 12.1219 163.881 11.0751 163.271 10.4379C163.911 9.83104 164.52 8.81456 165.205 8.75387C165.86 8.69318 166.591 9.66415 167.824 10.5744Z" fill="#8D9F7E"/>
<path d="M112.993 103.742C112.155 102.452 111.242 101.663 111.333 101.026C111.44 100.343 112.506 99.3268 113.13 99.342C113.754 99.3572 114.759 100.45 114.82 101.132C114.866 101.785 113.907 102.513 112.993 103.742Z" fill="#8D9F7E"/>
<path d="M124.809 87.7359C123.941 86.4615 123.012 85.703 123.088 85.0506C123.18 84.3679 124.23 83.3211 124.839 83.3362C125.464 83.3362 126.499 84.4134 126.56 85.0809C126.651 85.7333 125.707 86.4767 124.809 87.7359Z" fill="#8D9F7E"/>
<path d="M52.1622 153.504C50.8832 154.338 50.0914 155.248 49.4519 155.157C48.7667 155.066 48.2338 154.004 47.6399 153.367C48.2794 152.775 48.8885 151.744 49.5737 151.698C50.2132 151.638 50.9441 152.593 52.1622 153.504Z" fill="#8D9F7E"/>
<path d="M136.655 71.715C135.757 70.4709 134.813 69.7275 134.874 69.0752C134.935 68.3925 135.97 67.3305 136.594 67.3153C137.219 67.3001 138.269 68.3469 138.361 69.0296C138.437 69.6668 137.508 70.4406 136.655 71.715Z" fill="#8D9F7E"/>
<path d="M148.243 55.6789C147.436 54.3893 146.537 53.57 146.644 52.9328C146.766 52.2501 147.862 51.264 148.471 51.2943C149.095 51.3247 150.07 52.4322 150.116 53.1149C150.161 53.7673 149.172 54.4803 148.243 55.6789Z" fill="#8D9F7E"/>
<path d="M-7.32847 179.553C-8.53138 180.463 -9.26226 181.434 -9.90178 181.374C-10.5718 181.313 -11.5158 180.342 -11.6528 179.644C-11.7442 179.174 -10.6783 178.021 -10.0845 177.975C-9.38407 177.93 -8.62274 178.764 -7.32847 179.553Z" fill="#8D9F7E"/>
<path d="M6.83235 173.651C8.11139 172.832 8.91841 171.922 9.54271 172.028C10.2127 172.149 11.0502 173.181 11.1567 173.909C11.2177 174.38 10.0604 175.442 9.45135 175.442C8.73569 175.411 8.05049 174.531 6.83235 173.651Z" fill="#8D9F7E"/>
<path d="M88.1429 124.815C89.3458 123.904 90.031 123.009 90.7315 122.979C91.3405 122.964 92.513 124.011 92.4673 124.481C92.3912 125.209 91.5537 126.271 90.899 126.393C90.2594 126.514 89.4372 125.604 88.1429 124.815Z" fill="#8D9F7E"/>
<path d="M100.796 119.702C99.9741 118.428 99.0605 117.623 99.1823 117.001C99.3041 116.334 100.34 115.499 101.07 115.408C101.542 115.348 102.608 116.501 102.593 117.108C102.578 117.806 101.695 118.488 100.796 119.702Z" fill="#8D9F7E"/>
<path d="M120.515 93.85C121.84 93.0004 122.601 92.1508 123.317 92.1963C123.91 92.2266 124.9 93.319 124.885 93.9258C124.885 94.5327 123.85 95.5795 123.256 95.5947C122.54 95.6099 121.809 94.7299 120.515 93.85Z" fill="#8D9F7E"/>
<path d="M41.5797 161.105C40.3006 161.924 39.5545 162.758 38.8541 162.728C38.2603 162.698 37.1639 161.56 37.2553 161.089C37.3923 160.376 38.3059 159.39 38.9759 159.33C39.6154 159.254 40.3615 160.209 41.5797 161.105Z" fill="#8D9F7E"/>
<path d="M135.391 80.4537C134.539 79.24 133.656 78.5269 133.671 77.8139C133.686 77.2222 134.737 76.6305 135.33 76.054C135.955 76.676 136.945 77.2374 137.097 77.9504C137.188 78.4966 136.244 79.2703 135.391 80.4537Z" fill="#8D9F7E"/>
<path d="M161.734 30.7675C160.911 29.4931 160.074 28.7497 160.104 28.0518C160.135 27.4601 161.277 26.3678 161.749 26.4588C162.464 26.5954 163.454 27.5057 163.515 28.1732C163.591 28.8104 162.632 29.5538 161.734 30.7675Z" fill="#8D9F7E"/>
<path d="M81.4736 140.714C80.3164 141.518 79.6007 142.383 79.0069 142.307C78.3826 142.231 77.8497 141.276 77.2711 140.699C77.8497 140.123 78.3826 139.167 79.0069 139.106C79.616 139.045 80.3164 139.91 81.4736 140.714Z" fill="#8D9F7E"/>
<path d="M144.664 61.9598C145.791 61.095 146.461 60.1999 147.055 60.2454C147.695 60.2909 148.273 61.2316 148.867 61.7777C148.319 62.3846 147.832 63.3707 147.192 63.4618C146.613 63.5528 145.867 62.7184 144.664 61.9598Z" fill="#8D9F7E"/>
<path d="M163.058 37.0333C161.886 37.8222 161.17 38.6718 160.561 38.5959C159.922 38.5201 159.419 37.5491 158.84 36.9574C159.419 36.3961 159.967 35.4403 160.607 35.3796C161.216 35.3341 161.901 36.214 163.058 37.0333Z" fill="#8D9F7E"/>
<path d="M-31.4019 185.318C-30.2751 184.453 -29.6051 183.558 -28.9961 183.589C-28.3565 183.634 -27.7779 184.575 -27.1841 185.121C-27.7323 185.728 -28.2195 186.714 -28.859 186.805C-29.4681 186.896 -30.2142 186.061 -31.4019 185.318Z" fill="#8D9F7E"/>
<path d="M70.9368 147.906C69.7795 148.71 69.0639 149.574 68.47 149.499C67.8457 149.423 67.3128 148.467 66.7342 147.89C67.3128 147.314 67.8457 146.358 68.47 146.297C69.0943 146.237 69.7947 147.101 70.9368 147.906Z" fill="#8D9F7E"/>
<path d="M30.9058 168.311C29.7181 169.07 28.972 169.919 28.3781 169.828C27.7538 169.737 27.2514 168.751 26.7032 168.144C27.297 167.598 27.8757 166.657 28.5152 166.612C29.109 166.566 29.779 167.461 30.9058 168.311Z" fill="#8D9F7E"/>
<path d="M113.891 109.886C112.734 110.705 112.034 111.57 111.44 111.509C110.8 111.449 109.811 110.493 109.811 109.916C109.811 109.34 110.785 108.369 111.409 108.293C112.018 108.232 112.734 109.097 113.891 109.886Z" fill="#8D9F7E"/>
<path d="M119.769 102.695C120.774 101.997 121.368 101.284 121.885 101.329C122.433 101.375 122.906 102.164 123.423 102.634C122.905 103.165 122.449 103.969 121.84 104.106C121.413 104.212 120.774 103.423 119.769 102.695Z" fill="#8D9F7E"/>
<path d="M156.739 45.863C157.729 45.1348 158.308 44.4065 158.825 44.4369C159.373 44.4824 159.876 45.2561 160.409 45.7113C159.906 46.2575 159.465 47.0767 158.856 47.2284C158.429 47.3346 157.759 46.5609 156.739 45.863Z" fill="#8D9F7E"/>
<path d="M47.7465 164.412C47.0765 163.395 46.3152 162.713 46.437 162.288C46.6045 161.681 47.442 161.271 47.9901 160.771C48.4317 161.302 49.2083 161.818 49.2387 162.364C49.2539 162.88 48.4926 163.441 47.7465 164.412Z" fill="#8D9F7E"/>
<path d="M175.224 5.46169C174.524 4.46038 173.808 3.8687 173.854 3.35287C173.9 2.8067 174.691 2.32122 175.164 1.82056C175.696 2.33639 176.503 2.79153 176.656 3.39838C176.747 3.82318 175.94 4.47555 175.224 5.46169Z" fill="#8D9F7E"/>
<path d="M60.1867 155.264C59.0295 155.886 58.3747 156.538 57.7809 156.462C57.2784 156.401 56.4257 155.355 56.5475 155.036C56.7607 154.444 57.522 153.777 58.1311 153.686C58.5727 153.625 59.1513 154.429 60.1867 155.264Z" fill="#8D9F7E"/>
<path d="M-3.30862 181.389C-2.24276 180.63 -1.61846 179.841 -1.17688 179.932C-0.567814 180.054 0.147835 180.767 0.330555 181.374C0.421917 181.707 -0.491688 182.693 -0.978943 182.724C-1.57278 182.754 -2.19707 182.071 -3.30862 181.389Z" fill="#8D9F7E"/>
<path d="M145.395 72.8528C144.725 71.8212 143.964 71.1385 144.086 70.7137C144.269 70.1068 145.091 69.6972 145.654 69.2117C146.096 69.7427 146.857 70.2585 146.888 70.8199C146.903 71.3205 146.141 71.8819 145.395 72.8528Z" fill="#8D9F7E"/>
<path d="M86.8791 133.478C87.9754 132.764 88.6302 132.021 89.0718 132.127C89.6656 132.279 90.1072 133.083 90.6096 133.614C90.1224 134.084 89.6199 134.919 89.1327 134.919C88.5388 134.934 87.945 134.206 86.8791 133.478Z" fill="#8D9F7E"/>
<path d="M-20.0885 189.02C-20.7889 188.019 -21.5045 187.427 -21.4589 186.911C-21.4132 186.365 -20.6214 185.879 -20.1494 185.379C-19.6164 185.895 -18.8094 186.35 -18.6571 186.957C-18.5506 187.381 -19.3576 188.019 -20.0885 189.02Z" fill="#8D9F7E"/>
<path d="M18.3285 173.211C19.0442 174.228 19.836 174.88 19.7141 175.305C19.5619 175.912 18.7396 176.352 18.2067 176.868C17.7499 176.352 16.9733 175.866 16.9277 175.305C16.882 174.804 17.6129 174.213 18.3285 173.211Z" fill="#8D9F7E"/>
<path d="M131.478 86.7953C132.529 86.0216 133.138 85.2326 133.579 85.3085C134.188 85.4299 134.919 86.1277 135.102 86.7346C135.209 87.0684 134.31 88.0697 133.808 88.1C133.229 88.1455 132.59 87.4628 131.478 86.7953Z" fill="#8D9F7E"/>
<path d="M99.6391 128.092C98.9234 127.09 98.1926 126.514 98.2382 125.998C98.2839 125.452 99.0605 124.966 99.5325 124.451C100.065 124.966 100.888 125.406 101.04 126.013C101.147 126.438 100.355 127.09 99.6391 128.092Z" fill="#8D9F7E"/>
<path d="M172.194 22.9694C171.631 21.9985 171.007 21.3916 171.037 20.8454C171.068 20.3903 172.057 19.571 172.362 19.6772C172.925 19.8745 173.565 20.5724 173.656 21.1489C173.717 21.5585 172.925 22.0895 172.194 22.9694Z" fill="#8D9F7E"/>
<path d="M120.21 113.542C119.617 112.602 118.962 112.025 118.977 111.479C118.992 111.039 119.936 110.19 120.241 110.281C120.804 110.463 121.474 111.115 121.581 111.691C121.657 112.071 120.911 112.647 120.21 113.542Z" fill="#8D9F7E"/>
<path d="M109.689 120.749C109.08 119.808 108.425 119.232 108.44 118.67C108.455 118.215 109.399 117.35 109.704 117.441C110.283 117.608 110.953 118.276 111.074 118.852C111.15 119.247 110.389 119.823 109.689 120.749Z" fill="#8D9F7E"/>
<path d="M155.262 54.8293C156.145 54.0859 156.678 53.3121 157.089 53.3728C157.668 53.4638 158.368 54.101 158.566 54.6624C158.673 54.9658 157.851 55.9519 157.409 55.9823C156.846 56.0126 156.237 55.3906 155.262 54.8293Z" fill="#8D9F7E"/>
<path d="M170.839 31.7992C170.093 30.9344 169.316 30.3882 169.377 29.9938C169.469 29.4173 170.108 28.7194 170.656 28.5221C170.961 28.4159 171.935 29.22 171.981 29.6752C172.027 30.2213 171.403 30.8282 170.839 31.7992Z" fill="#8D9F7E"/>
<path d="M173.854 14.2914C173.245 13.1384 172.636 12.5012 172.697 11.955C172.742 11.4999 173.61 10.802 174.082 10.8323C174.539 10.8627 175.316 11.6668 175.301 12.1219C175.301 12.6833 174.615 13.2294 173.854 14.2914Z" fill="#8D9F7E"/>
<path d="M37.2248 171.846C36.6158 170.89 35.9762 170.314 35.9915 169.767C36.0067 169.312 36.966 168.463 37.2553 168.554C37.8187 168.736 38.4887 169.403 38.6105 169.965C38.6866 170.374 37.9253 170.936 37.2248 171.846Z" fill="#8D9F7E"/>
<path d="M132.011 97.6883C131.341 96.5657 130.717 95.974 130.747 95.4278C130.778 94.9727 131.615 94.2444 132.087 94.2596C132.544 94.2596 133.351 95.0333 133.366 95.4885C133.366 96.0195 132.711 96.596 132.011 97.6883Z" fill="#8D9F7E"/>
<path d="M-11.2874 190.385C-11.866 189.566 -12.5969 188.974 -12.5056 188.565C-12.3685 188.003 -11.6072 187.594 -11.1199 187.123C-10.6783 187.639 -9.97791 188.125 -9.88655 188.701C-9.82565 189.111 -10.6174 189.627 -11.2874 190.385Z" fill="#8D9F7E"/>
<path d="M-30.5796 196.014C-31.2192 195.104 -31.8891 194.557 -31.9044 193.996C-31.9044 193.556 -31.006 192.661 -30.7015 192.737C-30.1228 192.889 -29.4376 193.526 -29.3006 194.072C-29.1788 194.482 -29.9097 195.088 -30.5796 196.014Z" fill="#8D9F7E"/>
<path d="M27.0382 179.158C26.4291 178.021 25.8353 177.399 25.8962 176.852C25.9419 176.412 26.8098 175.715 27.2666 175.745C27.7234 175.775 28.4847 176.579 28.4847 177.019C28.4847 177.581 27.7995 178.112 27.0382 179.158Z" fill="#8D9F7E"/>
<path d="M5.64467 182.527C6.77145 181.859 7.36529 181.237 7.91345 181.267C8.37025 181.298 9.10114 182.132 9.08591 182.602C9.08591 183.058 8.30935 183.862 7.85255 183.877C7.30439 183.877 6.74099 183.224 5.64467 182.527Z" fill="#8D9F7E"/>
<path d="M87.412 144.067C86.7421 142.96 86.1178 142.368 86.1482 141.822C86.1787 141.382 87.0009 140.654 87.4729 140.654C87.9297 140.654 88.7368 141.427 88.752 141.867C88.752 142.429 88.1125 142.99 87.412 144.067Z" fill="#8D9F7E"/>
<path d="M77.3168 151.531C76.662 150.591 75.9464 149.984 76.0377 149.59C76.1748 149.028 76.9361 148.634 77.4233 148.163C77.8649 148.619 78.6567 149.074 78.6415 149.529C78.6263 150.075 77.9563 150.621 77.3168 151.531Z" fill="#8D9F7E"/>
<path d="M145.822 79.6041C144.878 80.2109 144.299 80.8481 143.736 80.833C143.279 80.8178 142.426 79.862 142.517 79.5737C142.7 79.0124 143.37 78.3449 143.934 78.2235C144.329 78.1476 144.908 78.9062 145.822 79.6041Z" fill="#8D9F7E"/>
<path d="M171.281 38.6414C170.398 39.2483 169.849 39.9007 169.408 39.84C168.936 39.7641 168.342 39.0511 168.235 38.5352C168.174 38.2318 168.981 37.4429 169.377 37.4581C169.895 37.4581 170.413 38.0497 171.281 38.6414Z" fill="#8D9F7E"/>
<path d="M-2.24275 191.569C-2.86705 190.719 -3.49134 190.249 -3.52179 189.748C-3.55224 189.354 -2.79091 188.519 -2.48637 188.565C-1.95344 188.641 -1.20734 189.202 -1.11598 189.657C-1.03984 190.097 -1.67936 190.674 -2.24275 191.569Z" fill="#8D9F7E"/>
<path d="M64.9679 156.872C65.8054 156.204 66.2469 155.582 66.7646 155.522C67.1605 155.476 68.0285 156.204 67.998 156.508C67.9371 157.039 67.4042 157.812 66.9474 157.919C66.5058 158.025 65.8967 157.403 64.9679 156.872Z" fill="#8D9F7E"/>
<path d="M97.9337 136.603C97.3551 135.708 96.7003 135.131 96.7765 134.706C96.8678 134.236 97.5987 133.675 98.1317 133.584C98.4362 133.538 99.1975 134.357 99.1823 134.752C99.1671 135.253 98.558 135.738 97.9337 136.603Z" fill="#8D9F7E"/>
<path d="M154.166 63.4618C155.064 62.8853 155.643 62.2329 156.084 62.3087C156.556 62.3998 157.12 63.128 157.211 63.659C157.257 63.9624 156.435 64.7362 156.039 64.721C155.521 64.6906 155.034 64.0838 154.166 63.4618Z" fill="#8D9F7E"/>
<path d="M54.8574 163.987C55.7101 163.35 56.1821 162.743 56.6998 162.713C57.1109 162.682 57.9332 163.441 57.8875 163.744C57.8113 164.275 57.248 165.019 56.7912 165.11C56.3496 165.186 55.771 164.548 54.8574 163.987Z" fill="#8D9F7E"/>
<path d="M16.7449 185.91C16.1511 185.197 15.5116 184.772 15.5116 184.332C15.5116 183.877 16.1359 183.437 16.5013 182.997C16.9733 183.406 17.6585 183.725 17.826 184.226C17.9174 184.559 17.2626 185.136 16.7449 185.91Z" fill="#8D9F7E"/>
<path d="M142.67 90.0571C142.076 89.3441 141.436 88.9193 141.436 88.4793C141.436 88.0242 142.061 87.5842 142.426 87.1442C142.898 87.5539 143.583 87.8725 143.751 88.3731C143.842 88.7069 143.187 89.2834 142.67 90.0571Z" fill="#8D9F7E"/>
<path d="M47.8683 171.087C47.1222 171.649 46.574 172.316 46.2391 172.24C45.7214 172.104 45.3559 171.436 44.9296 170.996C45.3559 170.617 45.767 169.98 46.2238 169.949C46.6502 169.919 47.1222 170.541 47.8683 171.087Z" fill="#8D9F7E"/>
<path d="M130.473 106.078C129.879 105.365 129.24 104.94 129.24 104.5C129.24 104.045 129.864 103.605 130.23 103.165C130.702 103.575 131.387 103.893 131.554 104.394C131.646 104.728 130.991 105.304 130.473 106.078Z" fill="#8D9F7E"/>
<path d="M108.455 129.275C107.922 128.517 107.268 127.94 107.359 127.621C107.511 127.121 108.196 126.787 108.653 126.377C109.019 126.817 109.643 127.242 109.658 127.697C109.673 128.107 109.034 128.547 108.455 129.275Z" fill="#8D9F7E"/>
<path d="M139.594 97.127C140.233 96.7325 140.645 96.2774 140.964 96.3381C141.299 96.3988 141.802 96.9449 141.787 97.2635C141.771 97.567 141.208 98.0676 140.873 98.0828C140.538 98.0828 140.188 97.5973 139.594 97.127Z" fill="#8D9F7E"/>
<path d="M118.612 121.689C118.185 121.128 117.713 120.779 117.728 120.461C117.744 120.112 118.231 119.793 118.505 119.474C118.855 119.808 119.358 120.081 119.495 120.476C119.571 120.703 119.038 121.128 118.612 121.689Z" fill="#8D9F7E"/>
<path d="M-21.7634 197C-22.1745 196.423 -22.6922 195.968 -22.6008 195.741C-22.4638 195.346 -21.9461 195.088 -21.5807 194.755C-21.3066 195.088 -20.8345 195.437 -20.8345 195.771C-20.8345 196.105 -21.3218 196.439 -21.7634 197Z" fill="#8D9F7E"/>
<path d="M36.0524 179.568C35.626 179.007 35.154 178.658 35.1692 178.339C35.1845 177.99 35.6717 177.672 35.9458 177.353C36.296 177.687 36.7985 177.96 36.9355 178.354C37.0117 178.567 36.4787 178.992 36.0524 179.568Z" fill="#8D9F7E"/>
<path d="M86.1787 152.108C85.7523 151.486 85.2955 151.091 85.3412 150.773C85.3869 150.439 85.9198 149.923 86.2396 149.923C86.5441 149.923 87.0618 150.469 87.0923 150.803C87.1075 151.122 86.6203 151.501 86.1787 152.108Z" fill="#8D9F7E"/>
<path d="M75.8093 159.694C75.3221 159.132 74.8043 158.799 74.8196 158.465C74.8196 158.116 75.3221 157.782 75.5961 157.448C75.9311 157.721 76.4945 157.964 76.5554 158.298C76.6163 158.632 76.1747 159.056 75.8093 159.694Z" fill="#8D9F7E"/>
<path d="M6.19283 192.722C5.72081 192.13 5.23354 191.781 5.24877 191.462C5.264 191.114 5.75126 190.567 6.07101 190.537C6.37555 190.522 6.93893 191.022 6.98462 191.356C7.04552 191.675 6.60395 192.084 6.19283 192.722Z" fill="#8D9F7E"/>
<path d="M184.193 6.2506C183.736 5.7196 183.173 5.32515 183.234 5.0824C183.34 4.67278 183.828 4.36935 184.163 4.02041C184.467 4.33901 184.954 4.62726 185 4.96103C185.03 5.2948 184.589 5.67409 184.193 6.2506Z" fill="#8D9F7E"/>
<path d="M182.838 15.0955C182.427 14.519 181.924 14.079 182 13.8514C182.137 13.4418 182.655 13.1839 183.005 12.8653C183.279 13.1991 183.736 13.5328 183.751 13.8818C183.751 14.2004 183.279 14.5342 182.838 15.0955Z" fill="#8D9F7E"/>
<path d="M181.285 23.9556C180.813 23.3639 180.325 23.0149 180.341 22.6963C180.356 22.3474 180.843 21.8012 181.163 21.7709C181.467 21.7557 182.031 22.2564 182.076 22.5901C182.137 22.9087 181.681 23.3184 181.285 23.9556Z" fill="#8D9F7E"/>
<path d="M166.5 47.6077C167.017 47.1374 167.322 46.6367 167.642 46.6064C167.977 46.5912 168.342 47.0464 168.707 47.2891C168.418 47.6684 168.19 48.1994 167.809 48.3511C167.565 48.4725 167.093 47.987 166.5 47.6077Z" fill="#8D9F7E"/>
<path d="M166.104 57.6663C165.677 57.0291 165.205 56.6498 165.251 56.3161C165.297 55.9823 165.83 55.694 166.149 55.3906C166.454 55.7092 166.972 56.0126 167.002 56.3464C167.032 56.6802 166.545 57.0443 166.104 57.6663Z" fill="#8D9F7E"/>
<path d="M155.658 72.3825C155.079 72.7921 154.623 73.308 154.394 73.2169C153.998 73.0804 153.74 72.5646 153.42 72.2005C153.755 71.9274 154.105 71.4571 154.44 71.4571C154.76 71.4722 155.095 71.9425 155.658 72.3825Z" fill="#8D9F7E"/>
</g>
</svg>
