<svg width="196" height="197" viewBox="0 0 196 197" fill="none" xmlns="http://www.w3.org/2000/svg">
<g opacity="0.25">
<path d="M148.46 0.379278C148.141 1.01648 147.684 1.57782 147.288 2.18467C150.531 4.21763 151.46 6.44782 150.135 8.78421C149.1 10.6351 146.572 11.4392 144.623 10.3469C143.831 9.90689 142.766 8.99661 142.75 8.26838C142.689 6.38713 143.146 4.49072 143.42 2.33638C142.491 1.7447 141.776 1.07716 141.289 0.348936L148.46 0.379278Z" fill="#8D9F7E"/>
<path d="M224 0.606845L223.985 5.74993C223.97 5.74993 223.954 5.73476 223.939 5.74993C223.254 5.90165 222.69 6.55402 221.686 7.28224C222.66 7.85875 223.3 8.52629 223.711 8.42009C223.802 8.38975 223.893 8.32906 223.985 8.28355L223.954 16.3699C223.924 16.4457 223.878 16.5064 223.863 16.5671C223.848 16.6581 223.878 16.7643 223.954 16.8857L223.848 50.9757C223.3 50.6268 222.66 50.2172 221.96 49.7772C221.411 50.5054 221 51.1578 220.498 51.704C219.965 52.2805 219.325 52.766 218.655 53.3576C222.416 54.4348 223.817 56.4526 222.888 59.229C222.158 61.4288 219.63 62.6273 217.376 61.5957C216.493 61.2012 215.61 60.3516 215.184 59.4869C214.087 57.2415 215.351 55.3603 216.828 53.5852C215.519 52.8266 214.453 52.2198 213.433 51.6281C210.935 54.7534 208.712 55.5727 206.596 54.101C205.85 53.5852 204.921 52.5839 204.951 51.8405C205.012 50.0048 205.591 48.1994 206.017 46.1057C205.865 46.0147 205.256 45.6809 204.708 45.2713C204.099 44.8162 203.551 44.3003 202.865 43.7087C202.546 44.2397 202.302 44.6493 202.043 45.0437C200.749 47.0464 198.404 47.7442 196.348 46.7278C194.506 45.8175 193.699 43.648 194.399 41.4936C195.313 38.7173 195.069 38.2015 192.283 37.0029C189.77 40.022 187.563 40.7502 185.37 39.2938C183.147 37.807 183.147 35.5465 185.431 31.6626C184.365 30.722 183.284 29.7662 182.187 28.7952C180.619 32.406 178.442 33.6197 175.792 32.406C173.128 31.1923 172.945 28.7345 175.229 24.5472C174.011 23.5763 172.793 22.6205 171.559 21.6343C170.295 25.0782 168.164 26.4133 165.56 25.2906C164.677 24.9114 163.778 24.0618 163.367 23.197C162.286 20.9516 163.443 19.0552 165.042 17.2953C163.717 16.5216 162.652 15.8996 161.631 15.2927C159.058 18.4635 156.774 19.2069 154.581 17.705C152.907 16.5519 152.358 14.1094 153.363 12.2433C154.581 9.93723 156.607 9.74 161.022 11.5302C161.738 10.5593 162.469 9.57312 163.245 8.52629C162.073 7.5705 161.007 6.7209 159.926 5.84096C158.084 9.33037 155.891 10.4682 153.424 9.11798C152.632 8.67801 151.567 7.73738 151.567 7.02433C151.567 5.0824 152.084 3.12529 152.435 0.910276C152.252 0.758562 152.054 0.576506 151.841 0.39445L155.754 0.409621C155.602 0.576506 155.449 0.728219 155.297 0.895104C156.561 1.5323 157.931 2.21501 159.515 3.00392C160.033 2.24535 160.611 1.38059 161.251 0.424792L167.083 0.439963C167.418 0.667533 167.768 0.910275 168.088 1.13785C168.331 0.895104 168.529 0.667533 168.712 0.455134L203.231 0.561332C203.018 0.834417 202.85 1.1075 202.896 1.19853C203.322 2.03295 204.023 2.71566 204.632 3.45906C204.921 3.3832 205.225 3.29218 205.515 3.21632C205.682 2.42741 206.154 1.54747 205.926 0.910273C205.88 0.788902 205.789 0.682703 205.667 0.576503L212.077 0.591675C212.382 1.01647 212.991 1.50196 213.524 2.13915C213.935 1.50196 214.392 1.01647 214.636 0.591674L224 0.606845ZM215.945 7.52498C215.092 6.94847 214.422 6.87261 213.92 7.88909C213.113 9.54277 214.499 9.83103 215.564 10.5289C216.448 9.43657 217.59 8.63249 215.945 7.52498ZM207.19 11.4999C208.058 10.5896 207.799 9.58829 206.687 8.92075C204.967 7.87392 204.83 9.5276 203.703 10.5744C205.241 10.9082 205.713 13.0625 207.19 11.4999ZM197.612 13.639C198.358 13.4266 199.439 12.1522 199.302 11.6212C199.074 10.7565 197.962 10.1345 196.729 8.90557C196.12 10.4986 195.404 11.4695 195.511 12.3798C195.557 12.9108 197.034 13.8059 197.612 13.639ZM218.914 17.4622C217.94 16.7643 217.239 15.8692 216.569 15.8996C215.915 15.9299 215.306 16.9009 214.681 17.4622C215.321 18.0994 215.899 19.1159 216.63 19.2373C217.194 19.3131 217.94 18.2511 218.914 17.4622ZM207.784 20.8151C208.56 20.4206 209.504 19.4345 209.489 18.6911C209.474 17.9629 208.377 17.265 207.342 16.0968C206.657 17.6594 206.032 18.6304 205.911 19.6621C205.865 20.011 207.418 21.0123 207.784 20.8151ZM198.724 22.226C199.546 21.9378 200.383 21.0275 200.673 20.1779C200.795 19.8138 199.333 18.3725 199.013 18.509C198.099 18.858 197.414 19.7683 196.287 20.7696C197.353 21.4371 198.236 22.3929 198.724 22.226ZM219.98 26.3071C219.691 25.4879 218.655 24.5928 217.818 24.441C217.285 24.35 215.854 25.8065 215.976 26.1251C216.311 27.0202 217.27 27.6877 218.29 28.78C219.051 27.7181 220.148 26.7774 219.98 26.3071ZM220.269 33.5135C218.183 32.1329 218.153 34.4086 216.874 35.2127C218.031 36.0319 219.006 36.7147 220.102 37.4884C221.29 35.9864 222.234 34.8031 220.269 33.5135ZM209.002 46.0754C210.235 46.6671 211.453 47.2588 212.778 47.8959C213.539 46.8795 214.27 45.9085 215.108 44.801C214.011 44.0728 213.052 43.4356 211.986 42.7377C210.89 43.9514 209.976 44.983 209.002 46.0754ZM218.366 44.4217C219.295 45.1348 220.209 45.8326 221.107 46.5305C224.213 43.7087 224.183 43.0866 220.726 41.1599C219.919 42.2674 219.188 43.2687 218.366 44.4217ZM199.241 38.3835C200.368 39.2483 201.358 40.0068 202.53 40.902C203.307 39.7944 203.931 38.8842 204.677 37.807C203.596 37.0333 202.606 36.3202 201.404 35.4554C200.657 36.4567 199.988 37.367 199.241 38.3835ZM208.073 37.1243C209.139 37.8829 210.083 38.5352 211.225 39.3393C211.986 38.1863 212.656 37.1698 213.402 36.032C212.321 35.2886 211.362 34.6362 210.25 33.8776C209.519 34.97 208.834 35.9864 208.073 37.1243ZM188.659 31.1164C189.77 31.9812 190.775 32.7549 191.765 33.5287C194.734 30.6765 194.689 30.2517 191.049 28.3552C190.334 29.1897 189.572 30.0696 188.659 31.1164ZM197.978 29.9786C198.769 30.6461 199.576 31.3288 200.627 32.2088C201.495 30.9192 202.134 29.9482 202.759 29.0076C200.17 26.8685 200.018 26.8988 197.978 29.9786ZM209.458 30.3579C211.697 27.4601 211.651 27.3691 209.961 26.0644C208.469 24.9114 207.997 26.0492 207.433 26.9747C206.032 29.3717 208.789 29.0683 209.458 30.3579ZM179.142 22.7267C178.701 23.1515 178.198 23.5156 177.65 23.9556C179.127 24.7748 180.391 25.4727 181.655 26.1706C184.167 23.5004 184.137 23.3487 180.619 21.1185C180.086 21.7102 179.645 22.2412 179.142 22.7267ZM188.659 20.9516C187.41 22.5446 188.537 23.2425 189.603 23.8645C191.902 25.2299 191.506 22.4233 192.603 21.7254C191.232 21.4219 190.501 18.5849 188.659 20.9516ZM167.067 16.9009C168.423 17.5684 169.823 18.2663 171.377 19.04C172.016 18.0539 172.732 16.9767 173.523 15.763C172.381 14.9893 171.361 14.2914 170.265 13.548C169.169 14.7162 168.088 15.8389 167.067 16.9009ZM176.965 14.9741C180.101 17.8112 180.101 17.8112 182.187 14.4431C181.137 13.6997 180.178 13.0322 179.005 12.2129C178.289 13.1839 177.619 14.079 176.965 14.9741ZM185.202 13.4873C186.938 14.61 187.852 15.2017 189.07 15.9754C189.603 14.8679 190.425 13.8514 190.41 12.8501C190.395 12.2736 188.887 11.1661 188.263 11.3026C187.258 11.4999 186.436 12.5467 185.202 13.4873ZM166.413 8.02564C167.524 8.84489 168.468 9.54277 169.534 10.3317C170.28 9.14832 170.965 8.05598 171.788 6.75124C170.904 6.0837 170.052 5.43134 169.062 4.67277C168.179 5.81062 167.372 6.81193 166.413 8.02564ZM175.457 6.25059C176.63 7.06984 177.543 7.72221 178.564 8.43526C179.751 6.85744 181.122 5.68925 178.944 4.35417C176.675 2.94324 176.812 5.49202 175.457 6.25059ZM186.969 2.85221C186.162 3.20115 185.644 4.2328 185.004 4.99137C185.674 5.52237 186.421 6.55402 187.014 6.47816C187.928 6.35679 188.735 5.47685 189.572 4.91551C189.42 4.61208 189.268 4.29349 189.116 3.99006C188.37 3.58043 187.425 2.65498 186.969 2.85221ZM197.216 2.29087C197.171 1.82055 195.846 1.07716 195.237 1.18336C194.612 1.30473 193.577 2.56395 193.714 2.86738C194.14 3.76249 195.054 4.43003 196.196 5.65891C196.714 4.11143 197.323 3.1708 197.216 2.29087Z" fill="#8D9F7E"/>
<path d="M175 39.8703C178.229 42.1005 180.832 42.0853 182.355 39.9006C183.634 38.0649 183.192 35.3341 181.411 34.0748C179.112 32.4515 176.752 33.3011 174.376 36.654C170.524 34.621 168.423 34.6969 167.037 36.9422C165.864 38.8387 166.397 41.3419 168.209 42.5101C170.448 43.9817 172.412 43.2383 175 39.8703Z" fill="#8D9F7E"/>
<path d="M160.718 26.9747C162.895 23.288 162.865 21.2247 160.581 19.6772C158.754 18.4484 156.287 18.8732 154.962 20.6482C153.302 22.8632 154.033 24.9569 157.475 27.6574C155.404 31.4199 155.48 33.559 157.733 34.9548C159.561 36.0775 161.951 35.6527 163.2 33.9838C164.844 31.7991 164.174 29.9331 160.718 26.9747Z" fill="#8D9F7E"/>
<path d="M212.443 63.3404C214.757 59.8055 214.696 57.4691 212.291 55.9519C210.357 54.7231 207.799 55.2996 206.565 57.2567C205.058 59.6537 206.063 61.8839 209.535 63.9017C207.19 67.2394 207.144 69.6365 209.382 71.1688C211.21 72.428 213.768 72.0184 215.031 70.2585C216.676 68.0132 215.915 65.8892 212.443 63.3404Z" fill="#8D9F7E"/>
<path d="M125.483 4.56657C123.884 3.53492 123.199 1.88124 123.58 0.303423L139.949 0.348936C139.842 0.879933 139.614 1.39576 139.279 1.86607C137.71 4.09626 135.304 4.0204 131.985 1.6385C129.64 5.15825 127.737 6.02302 125.483 4.56657Z" fill="#8D9F7E"/>
<path d="M145.445 26.3526C148.399 28.8711 151.018 29.0076 152.663 26.8078C154.079 24.8962 153.607 22.1653 151.627 20.9213C149.206 19.4042 146.968 20.3751 145.232 23.4094C143.283 22.9846 141.502 22.3626 139.705 22.3322C138.944 22.3171 137.954 23.4246 137.436 24.259C136.325 26.0492 137.132 28.3704 139.035 29.4628C141.304 30.7372 143.116 29.8724 145.445 26.3526Z" fill="#8D9F7E"/>
<path d="M223.772 78.9365C223.482 79.1186 223.208 79.24 222.949 79.2248C221.153 79.1489 219.386 78.3904 217.453 77.8745C215.351 80.7419 213.357 81.4853 211.164 79.953C209.291 78.6331 208.849 76.2209 210.174 74.4155C211.819 72.1549 213.935 72.2308 217.361 74.7189C219.965 71.4419 221.716 70.6985 223.772 71.9729L223.772 78.9365Z" fill="#8D9F7E"/>
<path d="M188.385 64.4024C192.283 66.8905 194.247 66.8601 195.846 64.281C197.003 62.4149 196.364 60.1089 194.338 58.8497C192.085 57.4539 190.197 58.3338 188.095 61.5047C186.299 61.0192 184.654 60.3061 182.964 60.2151C182.172 60.1696 181.122 61.1709 180.543 61.9598C179.279 63.6742 179.888 66.0409 181.715 67.2698C183.984 68.8021 185.796 68.0132 188.385 64.4024Z" fill="#8D9F7E"/>
<path d="M171.255 52.4625C168.879 56.2099 168.91 58.3035 171.361 59.7751C173.249 60.9281 175.655 60.2909 176.828 58.3187C178.168 56.043 177.239 54.0555 174.224 52.2501C174.711 50.3537 175.442 48.5938 175.488 46.8188C175.503 46.0147 174.315 44.9527 173.432 44.3762C171.681 43.2383 169.412 44.0424 168.209 45.9995C166.854 48.2145 167.692 50.0048 171.255 52.4625Z" fill="#8D9F7E"/>
<path d="M168.529 26.1706C166.154 26.2919 164.57 28.067 164.677 30.5096C164.783 32.9673 166.656 34.5755 169.199 34.3934C171.559 34.2266 173.097 32.3908 172.945 29.9482C172.793 27.5967 170.981 26.034 168.529 26.1706Z" fill="#8D9F7E"/>
<path d="M204.129 51.7798C204.114 49.3827 202.424 47.7139 199.987 47.6987C197.566 47.6836 195.876 49.3524 195.846 51.7646C195.815 54.2679 197.551 55.9823 200.079 55.9519C202.485 55.9216 204.144 54.2072 204.129 51.7798Z" fill="#8D9F7E"/>
<path d="M189.527 48.7759C191.948 48.7455 193.592 47.0615 193.592 44.6189C193.592 42.146 191.796 40.4316 189.268 40.5227C186.893 40.5985 185.263 42.3432 185.309 44.7858C185.37 47.1829 187.075 48.8062 189.527 48.7759Z" fill="#8D9F7E"/>
<path d="M191.202 57.5601C193.501 57.5146 195.298 55.603 195.191 53.297C195.085 51.0819 193.242 49.3827 191.019 49.4283C188.72 49.4738 186.923 51.3854 187.03 53.6914C187.136 55.9064 188.979 57.6056 191.202 57.5601Z" fill="#8D9F7E"/>
<path d="M197.14 60.7309C197.171 62.9611 198.952 64.7058 201.175 64.721C203.49 64.7361 205.332 62.8852 205.286 60.5944C205.256 58.3035 203.322 56.4981 201.023 56.5891C198.83 56.6953 197.11 58.5159 197.14 60.7309Z" fill="#8D9F7E"/>
<path d="M133.569 8.29872C133.553 10.6048 135.426 12.4253 137.726 12.3798C139.949 12.3343 141.7 10.5593 141.715 8.34424C141.73 6.05336 139.857 4.21763 137.558 4.26314C135.32 4.30866 133.584 6.08371 133.569 8.29872Z" fill="#8D9F7E"/>
<path d="M223.817 64.0838L223.802 69.151C223.071 70.0613 221.975 70.653 220.711 70.6833C218.488 70.7288 216.646 69.0145 216.554 66.7994C216.448 64.5086 218.244 62.5818 220.559 62.5515C221.868 62.5211 223.056 63.128 223.817 64.0838Z" fill="#8D9F7E"/>
<path d="M152.252 15.4141C152.206 13.1232 150.272 11.333 147.973 11.4392C145.75 11.5454 144.045 13.3811 144.09 15.5961C144.136 17.9022 146.055 19.6772 148.369 19.571C150.592 19.4648 152.313 17.6291 152.252 15.4141Z" fill="#8D9F7E"/>
<path d="M184.669 46.3333C184.685 44.0424 182.812 42.2067 180.513 42.2522C178.289 42.2977 176.538 44.0728 176.523 46.2878C176.508 48.518 178.244 50.3082 180.467 50.3689C182.751 50.4447 184.639 48.6242 184.669 46.3333Z" fill="#8D9F7E"/>
<path d="M182.187 59.1986C184.258 59.2289 186.253 57.3022 186.314 55.2389C186.375 53.0997 184.334 51.0516 182.187 51.0819C180.117 51.1123 178.168 53.0845 178.168 55.1479C178.168 57.2112 180.117 59.1683 182.187 59.1986Z" fill="#8D9F7E"/>
<path d="M143.375 17.2498C143.436 15.2017 141.532 13.1839 139.446 13.108C137.391 13.0322 135.35 14.8983 135.228 16.9616C135.107 19.1007 137.086 21.1944 139.248 21.2095C141.319 21.2399 143.314 19.3131 143.375 17.2498Z" fill="#8D9F7E"/>
<path d="M161.616 44.4217C163.687 44.4217 165.651 42.4798 165.682 40.4013C165.712 38.2621 163.641 36.2444 161.494 36.305C159.424 36.3657 157.505 38.3683 157.535 40.4165C157.566 42.4798 159.545 44.4217 161.616 44.4217Z" fill="#8D9F7E"/>
<path d="M198.815 69.4393C198.785 71.5177 200.718 73.5204 202.82 73.5507C204.906 73.581 206.916 71.6543 206.961 69.5606C207.007 67.4822 205.058 65.4795 202.957 65.4492C200.855 65.4189 198.846 67.3456 198.815 69.4393Z" fill="#8D9F7E"/>
<path d="M151.11 37.2305C153.196 37.2001 155.16 35.2127 155.13 33.1342C155.114 31.0558 153.104 29.0986 151.018 29.129C148.932 29.1442 146.968 31.1468 146.999 33.2253C147.029 35.3037 149.024 37.2608 151.11 37.2305Z" fill="#8D9F7E"/>
<path d="M223.741 88.2669C223.695 88.2669 223.65 88.2821 223.604 88.2821C221.488 88.3276 219.539 86.4464 219.523 84.3224C219.508 82.1984 221.427 80.2868 223.543 80.302C223.619 80.302 223.68 80.3171 223.756 80.3323L223.741 88.2669Z" fill="#8D9F7E"/>
<path d="M204.525 82.3349C206.657 82.3501 208.56 80.4385 208.545 78.3145C208.53 76.1905 206.581 74.3093 204.449 74.3548C202.393 74.4003 200.566 76.236 200.536 78.269C200.505 80.393 202.393 82.3197 204.525 82.3349Z" fill="#8D9F7E"/>
<path d="M128.833 13.9728C130.965 13.9425 132.853 11.9854 132.777 9.86137C132.716 7.73738 130.721 5.88648 128.605 5.97751C126.549 6.06854 124.752 7.93461 124.768 9.98275C124.768 12.1067 126.701 14.0032 128.833 13.9728Z" fill="#8D9F7E"/>
<path d="M130.447 22.8025C132.579 22.7874 134.467 20.8606 134.437 18.7366C134.391 16.6126 132.427 14.7465 130.31 14.8224C128.255 14.8983 126.458 16.7492 126.427 18.7821C126.412 20.9061 128.331 22.8177 130.447 22.8025Z" fill="#8D9F7E"/>
<path d="M198.023 71.1688C198.038 69.0448 196.12 67.1484 193.988 67.1636C191.856 67.1939 189.968 69.1207 190.014 71.2447C190.06 73.2928 191.902 75.1133 193.958 75.1437C196.074 75.1892 198.008 73.308 198.023 71.1688Z" fill="#8D9F7E"/>
<path d="M152.632 45.9995C154.764 46.0602 156.713 44.1941 156.744 42.055C156.774 39.931 154.871 38.0194 152.739 38.0194C150.699 38.0194 148.826 39.8096 148.734 41.8578C148.643 43.9666 150.501 45.9388 152.632 45.9995Z" fill="#8D9F7E"/>
<path d="M138.198 34.712C138.137 36.8209 140.01 38.778 142.141 38.8083C144.273 38.8387 146.207 36.9574 146.207 34.8334C146.207 32.8005 144.425 30.9344 142.37 30.8434C140.253 30.7523 138.274 32.5881 138.198 34.712Z" fill="#8D9F7E"/>
<path d="M158.83 49.1855C158.83 51.3095 160.748 53.2059 162.88 53.1908C165.012 53.1604 166.9 51.2185 166.839 49.0945C166.778 47.0464 164.951 45.241 162.895 45.2106C160.764 45.1651 158.845 47.0615 158.83 49.1855Z" fill="#8D9F7E"/>
<path d="M179.02 65.1913C179.005 63.2342 177.026 61.2619 175.061 61.2467C173.021 61.2316 170.965 63.3404 171.042 65.343C171.133 67.3153 173.158 69.2269 175.107 69.1814C177.087 69.1358 179.036 67.1332 179.02 65.1913Z" fill="#8D9F7E"/>
<path d="M185.141 76.7822C187.106 76.7822 189.085 74.8099 189.116 72.8528C189.146 70.9109 187.197 68.8931 185.233 68.8324C183.208 68.7717 181.106 70.835 181.152 72.8528C181.198 74.8251 183.192 76.7974 185.141 76.7822Z" fill="#8D9F7E"/>
<path d="M164.525 62.0053C166.489 61.9901 168.468 60.0179 168.483 58.0608C168.499 56.1188 166.55 54.101 164.585 54.0555C162.545 54.01 160.459 56.0733 160.52 58.1063C160.566 60.0634 162.576 62.0205 164.525 62.0053Z" fill="#8D9F7E"/>
<path d="M149.983 50.7785C149.937 52.7204 151.871 54.7382 153.835 54.8293C155.769 54.9051 157.84 53.0087 157.947 51.0364C158.053 49.0186 156.028 46.8946 153.988 46.8795C152.039 46.8643 150.029 48.8214 149.983 50.7785Z" fill="#8D9F7E"/>
<path d="M114.672 2.85221C114.657 1.92676 115.083 1.01648 115.753 0.288252L121.6 0.303423C122.24 1.03165 122.666 1.9571 122.651 2.85221C122.621 4.80931 120.626 6.76642 118.662 6.76642C116.697 6.76642 114.703 4.80931 114.672 2.85221Z" fill="#8D9F7E"/>
<path d="M195.617 83.8672C197.703 83.8976 199.531 82.1225 199.561 80.044C199.592 77.9656 197.795 76.145 195.724 76.1147C193.638 76.0843 191.811 77.8745 191.78 79.9378C191.75 82.0163 193.531 83.852 195.617 83.8672Z" fill="#8D9F7E"/>
<path d="M119.865 15.5203C121.951 15.5355 123.778 13.7604 123.793 11.6819C123.808 9.60346 122.027 7.7829 119.941 7.76773C117.87 7.75256 116.027 9.54278 116.012 11.6061C115.982 13.6694 117.779 15.4899 119.865 15.5203Z" fill="#8D9F7E"/>
<path d="M210.753 85.5968C210.798 87.6752 212.641 89.4503 214.712 89.4199C216.798 89.3744 218.579 87.5387 218.549 85.4754C218.503 83.3969 216.661 81.6219 214.59 81.6522C212.504 81.6825 210.722 83.5183 210.753 85.5968Z" fill="#8D9F7E"/>
<path d="M135.99 27.6574C135.99 25.5789 134.178 23.7735 132.092 23.7735C130.006 23.7735 128.194 25.5789 128.194 27.6574C128.194 29.7358 130.006 31.5412 132.092 31.5412C134.178 31.5412 135.99 29.7358 135.99 27.6574Z" fill="#8D9F7E"/>
<path d="M143.862 47.547C145.948 47.547 147.76 45.7416 147.76 43.6783C147.76 41.5998 145.948 39.7944 143.877 39.7944C141.791 39.7944 139.979 41.5998 139.979 43.6631C139.964 45.7416 141.776 47.547 143.862 47.547Z" fill="#8D9F7E"/>
<path d="M172.549 74.112C172.579 76.4333 174.072 77.8442 176.432 77.7532C178.67 77.6773 180.01 76.2512 179.995 73.9755C179.964 71.6543 178.457 70.2434 176.097 70.3344C173.874 70.4102 172.519 71.8515 172.549 74.112Z" fill="#8D9F7E"/>
<path d="M137.056 36.3354C136.979 34.0293 135.442 32.6639 133.066 32.7853C130.843 32.9067 129.534 34.3783 129.61 36.654C129.686 38.96 131.224 40.3254 133.599 40.2041C135.807 40.0827 137.132 38.6111 137.056 36.3354Z" fill="#8D9F7E"/>
<path d="M109.845 7.73738C112.129 7.70704 113.515 6.31128 113.515 4.03558C113.515 1.68402 112.023 0.257909 109.632 0.333766C107.379 0.409623 106.024 1.86607 106.069 4.14178C106.13 6.38714 107.561 7.75256 109.845 7.73738Z" fill="#8D9F7E"/>
<path d="M151.917 59.7751C151.962 62.0812 153.47 63.4921 155.83 63.4011C158.068 63.31 159.393 61.8839 159.363 59.6082C159.317 57.3022 157.81 55.8913 155.449 55.9823C153.211 56.0733 151.871 57.4994 151.917 59.7751Z" fill="#8D9F7E"/>
<path d="M209.504 87.1898C209.519 84.9292 208.149 83.5183 205.895 83.4728C203.535 83.4121 202.058 84.8382 202.058 87.1746C202.043 89.4351 203.414 90.846 205.667 90.8916C208.027 90.9522 209.489 89.5261 209.504 87.1898Z" fill="#8D9F7E"/>
<path d="M121.555 23.7583C123.9 23.7583 125.331 22.3019 125.285 19.9503C125.24 17.705 123.839 16.3395 121.57 16.3395C119.225 16.3395 117.794 17.796 117.839 20.1476C117.885 22.3929 119.286 23.7583 121.555 23.7583Z" fill="#8D9F7E"/>
<path d="M119.514 28.9621C119.545 31.2226 120.961 32.6032 123.245 32.5881C125.59 32.5881 127.021 31.0861 126.945 28.7042C126.869 26.474 125.392 25.1238 123.108 25.1693C120.839 25.2451 119.469 26.6712 119.514 28.9621Z" fill="#8D9F7E"/>
<path d="M186.832 84.9444C189.116 84.9292 190.501 83.5335 190.516 81.2578C190.532 78.9062 189.04 77.4649 186.664 77.5256C184.411 77.5863 183.055 79.0276 183.086 81.3184C183.116 83.579 184.548 84.9596 186.832 84.9444Z" fill="#8D9F7E"/>
<path d="M223.711 96.1864C222.31 95.716 221.488 94.5175 221.457 92.8031C221.427 90.9978 222.279 89.7234 223.741 89.2227L223.711 96.1864Z" fill="#8D9F7E"/>
<path d="M169.884 66.7995C169.854 64.4782 168.331 63.0825 165.971 63.1583C163.733 63.2342 162.393 64.6755 162.423 66.9512C162.454 69.2724 163.961 70.6682 166.321 70.5923C168.575 70.5013 169.93 69.06 169.884 66.7995Z" fill="#8D9F7E"/>
<path d="M145.491 48.8062C143.207 48.8214 141.822 50.2172 141.806 52.508C141.806 54.8596 143.298 56.3009 145.674 56.225C147.927 56.1643 149.283 54.7079 149.252 52.417C149.206 50.1565 147.775 48.7759 145.491 48.8062Z" fill="#8D9F7E"/>
<path d="M216.326 98.0676C218.61 98.0676 220.011 96.687 220.026 94.4113C220.041 92.0597 218.564 90.6185 216.189 90.664C213.92 90.7095 212.565 92.1508 212.595 94.4265C212.626 96.687 214.042 98.0676 216.326 98.0676Z" fill="#8D9F7E"/>
<path d="M196.851 92.5301C198.998 92.5604 200.581 91.0281 200.612 88.8889C200.642 86.7498 199.104 85.172 196.957 85.1416C194.826 85.1113 193.227 86.6588 193.196 88.7827C193.181 90.9067 194.719 92.4997 196.851 92.5301Z" fill="#8D9F7E"/>
<path d="M167.463 79.3917C169.595 79.3613 171.133 77.7683 171.102 75.6443C171.072 73.5204 169.473 71.9881 167.341 72.0184C165.21 72.0487 163.672 73.6417 163.702 75.7657C163.733 77.8897 165.332 79.422 167.463 79.3917Z" fill="#8D9F7E"/>
<path d="M138.7 44.892C138.7 42.768 137.132 41.2054 134.985 41.2054C132.838 41.2054 131.285 42.768 131.285 44.9072C131.285 47.0464 132.853 48.5938 135 48.5938C137.147 48.5938 138.7 47.0464 138.7 44.892Z" fill="#8D9F7E"/>
<path d="M161.007 68.5593C161.022 66.4202 159.469 64.8575 157.338 64.8424C155.191 64.8272 153.622 66.3747 153.607 68.4986C153.592 70.6378 155.145 72.2004 157.277 72.2156C159.408 72.2308 160.992 70.6833 161.007 68.5593Z" fill="#8D9F7E"/>
<path d="M111.185 16.5519C113.302 16.4761 114.809 14.8376 114.733 12.7136C114.657 10.6048 113.028 9.10281 110.881 9.17866C108.764 9.25452 107.257 10.893 107.333 13.0322C107.409 15.1258 109.038 16.643 111.185 16.5519Z" fill="#8D9F7E"/>
<path d="M203.748 96.0802C203.779 98.1283 205.515 99.7668 207.57 99.7061C209.626 99.6454 211.24 97.9007 211.149 95.8374C211.057 93.8803 209.413 92.3177 207.433 92.3177C205.363 92.3328 203.703 94.032 203.748 96.0802Z" fill="#8D9F7E"/>
<path d="M124.554 41.4178C126.61 41.3723 128.239 39.6427 128.163 37.5946C128.087 35.5465 126.336 33.9535 124.265 34.0445C122.286 34.1355 120.748 35.7892 120.763 37.7615C120.778 39.8248 122.484 41.4633 124.554 41.4178Z" fill="#8D9F7E"/>
<path d="M143.055 61.3985C143.085 63.4466 144.791 65.0851 146.862 65.0396C148.917 64.9941 150.546 63.2494 150.47 61.2012C150.394 59.2441 148.75 57.6663 146.77 57.6663C144.699 57.6511 143.04 59.3352 143.055 61.3985Z" fill="#8D9F7E"/>
<path d="M174.239 82.9569C174.27 85.0051 176.005 86.6436 178.061 86.5829C180.117 86.5222 181.731 84.7775 181.639 82.7142C181.548 80.7571 179.903 79.1945 177.924 79.1945C175.853 79.2096 174.193 80.8936 174.239 82.9569Z" fill="#8D9F7E"/>
<path d="M175.945 91.817C175.99 93.7741 177.665 95.3823 179.629 95.3671C181.685 95.3519 183.345 93.5769 183.238 91.5439C183.132 89.5868 181.411 88.0242 179.447 88.1C177.498 88.1607 175.899 89.8599 175.945 91.817Z" fill="#8D9F7E"/>
<path d="M165.408 84.5348C165.392 86.4919 167.022 88.1455 168.986 88.1911C171.042 88.2366 172.762 86.507 172.701 84.4589C172.656 82.5018 170.981 80.8936 169.016 80.9088C167.067 80.924 165.423 82.5625 165.408 84.5348Z" fill="#8D9F7E"/>
<path d="M87.1881 0.197225L93.5833 0.212396C92.9895 1.30473 91.8475 2.07847 90.538 2.13916C89.1219 2.19984 87.8429 1.38059 87.1881 0.197225Z" fill="#8D9F7E"/>
<path d="M198.465 101.314C200.429 101.375 202.134 99.782 202.226 97.84C202.317 95.8071 200.627 94.0472 198.571 94.032C196.607 94.032 194.947 95.6553 194.917 97.6125C194.902 99.5847 196.501 101.254 198.465 101.314Z" fill="#8D9F7E"/>
<path d="M158.906 80.9998C160.87 81.0302 162.56 79.4372 162.621 77.4649C162.682 75.5078 161.099 73.7934 159.134 73.7176C157.079 73.6266 155.312 75.3106 155.312 77.3435C155.297 79.3158 156.926 80.9695 158.906 80.9998Z" fill="#8D9F7E"/>
<path d="M116.362 21.695C116.347 19.7379 114.703 18.0842 112.739 18.0691C110.683 18.0539 108.978 19.7986 109.038 21.8316C109.099 23.7887 110.805 25.3968 112.769 25.3513C114.733 25.321 116.362 23.6521 116.362 21.695Z" fill="#8D9F7E"/>
<path d="M193.349 99.0082C193.41 97.0663 191.811 95.3519 189.862 95.2609C187.821 95.1699 186.055 96.8539 186.055 98.8869C186.055 100.844 187.684 102.498 189.649 102.528C191.613 102.558 193.303 100.965 193.349 99.0082Z" fill="#8D9F7E"/>
<path d="M114.276 34.1811C116.241 34.2266 117.946 32.6336 118.007 30.6765C118.083 28.7194 116.5 27.005 114.535 26.8988C112.495 26.7926 110.713 28.4615 110.698 30.5096C110.683 32.4667 112.312 34.1355 114.276 34.1811Z" fill="#8D9F7E"/>
<path d="M188.446 93.7134C190.41 93.7286 192.085 92.1204 192.131 90.1482C192.176 88.1 190.456 86.3705 188.4 86.416C186.436 86.4615 184.806 88.1152 184.822 90.0875C184.822 92.0598 186.466 93.6983 188.446 93.7134Z" fill="#8D9F7E"/>
<path d="M103.785 26.9898C105.749 27.005 107.424 25.3968 107.47 23.4397C107.516 21.4068 105.795 19.6772 103.755 19.7228C101.791 19.7683 100.161 21.4219 100.176 23.379C100.192 25.3362 101.836 26.9747 103.785 26.9898Z" fill="#8D9F7E"/>
<path d="M112.373 39.4607C112.419 41.4178 114.078 43.0411 116.043 43.026C118.083 43.0108 119.773 41.2509 119.667 39.2179C119.575 37.276 117.855 35.6982 115.89 35.7589C113.926 35.8044 112.327 37.5036 112.373 39.4607Z" fill="#8D9F7E"/>
<path d="M136.568 57.3932C138.533 57.4387 140.238 55.8457 140.314 53.8886C140.39 51.9315 138.807 50.2172 136.842 50.111C134.802 50.0048 133.02 51.6736 132.99 53.7217C132.975 55.6789 134.604 57.3477 136.568 57.3932Z" fill="#8D9F7E"/>
<path d="M209.063 108.49C211.027 108.521 212.702 106.913 212.763 104.955C212.824 102.998 211.225 101.299 209.276 101.223C207.235 101.132 205.469 102.831 205.469 104.864C205.454 106.821 207.098 108.46 209.063 108.49Z" fill="#8D9F7E"/>
<path d="M98.9279 14.4735C98.8974 16.4306 100.496 18.1146 102.476 18.1753C104.44 18.236 106.145 16.6581 106.237 14.701C106.328 12.6529 104.638 10.9082 102.598 10.893C100.618 10.8779 98.9736 12.5012 98.9279 14.4735Z" fill="#8D9F7E"/>
<path d="M144.775 69.7124C144.745 71.6695 146.359 73.3383 148.339 73.399C150.394 73.4597 152.13 71.7453 152.084 69.6972C152.054 67.7401 150.379 66.1167 148.415 66.1167C146.45 66.1319 144.806 67.7552 144.775 69.7124Z" fill="#8D9F7E"/>
<path d="M100.999 9.33038C102.963 9.30004 104.592 7.63119 104.592 5.67408C104.577 3.62595 102.811 1.9571 100.77 2.04813C98.8061 2.13916 97.2225 3.85352 97.2834 5.81062C97.3291 7.76773 99.0193 9.36072 100.999 9.33038Z" fill="#8D9F7E"/>
<path d="M126.092 50.202C128.057 50.2172 129.732 48.609 129.777 46.6519C129.823 44.6038 128.102 42.8894 126.062 42.9198C124.098 42.9501 122.468 44.6189 122.468 46.576C122.484 48.5331 124.128 50.1868 126.092 50.202Z" fill="#8D9F7E"/>
<path d="M137.863 66.2078C139.827 66.2229 141.502 64.6148 141.547 62.6577C141.593 60.6095 139.872 58.8952 137.817 58.9407C135.853 58.9862 134.223 60.6399 134.239 62.597C134.254 64.5541 135.898 66.1926 137.863 66.2078Z" fill="#8D9F7E"/>
<path d="M127.798 51.7646C125.833 51.7646 124.174 53.388 124.143 55.3299C124.113 57.3629 125.833 59.0772 127.889 59.0317C129.853 58.9862 131.467 57.3174 131.437 55.3603C131.406 53.4032 129.762 51.7646 127.798 51.7646Z" fill="#8D9F7E"/>
<path d="M217.925 106.837C219.889 106.867 221.579 105.259 221.625 103.302C221.686 101.345 220.087 99.6454 218.122 99.5544C216.082 99.4634 214.316 101.163 214.316 103.196C214.331 105.168 215.96 106.806 217.925 106.837Z" fill="#8D9F7E"/>
<path d="M139.492 74.992C141.502 75.0223 143.131 73.4293 143.131 71.4267C143.131 69.4241 141.502 67.8159 139.507 67.8463C137.573 67.8766 136.035 69.3938 135.974 71.3053C135.914 73.308 137.482 74.9465 139.492 74.992Z" fill="#8D9F7E"/>
<path d="M150.013 82.168C152.023 82.2135 153.668 80.6206 153.683 78.6331C153.698 76.6305 152.084 75.0223 150.074 75.0375C148.156 75.0527 146.587 76.5546 146.511 78.4814C146.435 80.4688 148.004 82.1225 150.013 82.168Z" fill="#8D9F7E"/>
<path d="M156.607 86.1278C156.561 88.1304 158.16 89.7689 160.17 89.7689C162.18 89.784 163.794 88.1607 163.778 86.1733C163.763 84.2617 162.241 82.699 160.322 82.6232C158.312 82.5625 156.652 84.1251 156.607 86.1278Z" fill="#8D9F7E"/>
<path d="M120.839 48.1387C120.793 46.1361 119.119 44.5734 117.124 44.6493C115.129 44.7251 113.576 46.4243 113.683 48.4118C113.789 50.3234 115.373 51.8102 117.291 51.795C119.286 51.7647 120.885 50.1261 120.839 48.1387Z" fill="#8D9F7E"/>
<path d="M219.143 115.606C221.153 115.651 222.782 114.058 222.797 112.056C222.812 110.053 221.183 108.445 219.188 108.46C217.27 108.475 215.701 109.992 215.625 111.904C215.564 113.906 217.133 115.56 219.143 115.606Z" fill="#8D9F7E"/>
<path d="M105.43 35.7589C107.44 35.7892 109.069 34.1962 109.069 32.1936C109.069 30.282 107.577 28.7042 105.643 28.6132C103.648 28.5221 101.958 30.0696 101.897 32.0722C101.836 34.09 103.405 35.7285 105.43 35.7589Z" fill="#8D9F7E"/>
<path d="M91.9997 10.9082C94.0097 10.9385 95.6389 9.34555 95.6389 7.34293C95.6389 5.34031 94.0097 3.73215 92.015 3.76249C90.0812 3.79284 88.5433 5.30997 88.4824 7.22156C88.4062 9.22418 89.9898 10.8779 91.9997 10.9082Z" fill="#8D9F7E"/>
<path d="M174.315 93.319C174.285 91.3164 172.61 89.7537 170.615 89.8144C168.621 89.8751 167.052 91.5591 167.159 93.5617C167.25 95.4733 168.834 96.9753 170.752 96.9601C172.747 96.9449 174.346 95.3064 174.315 93.319Z" fill="#8D9F7E"/>
<path d="M196.653 105.987C196.592 107.99 198.176 109.628 200.185 109.659C202.195 109.689 203.825 108.081 203.825 106.093C203.825 104.182 202.332 102.604 200.399 102.528C198.404 102.422 196.714 103.984 196.653 105.987Z" fill="#8D9F7E"/>
<path d="M210.235 117.244C212.093 117.305 213.905 115.575 213.905 113.694C213.905 111.904 212.26 110.205 210.448 110.129C208.591 110.068 206.779 111.813 206.779 113.679C206.779 115.469 208.438 117.168 210.235 117.244Z" fill="#8D9F7E"/>
<path d="M122.484 57.0443C122.468 55.1782 120.656 53.4335 118.799 53.5094C117.002 53.5852 115.342 55.2996 115.358 57.0746C115.373 58.9407 117.185 60.6854 119.042 60.6096C120.839 60.5337 122.499 58.8193 122.484 57.0443Z" fill="#8D9F7E"/>
<path d="M125.468 64.372C125.559 66.2685 127.417 67.9221 129.275 67.7704C131.087 67.6187 132.685 65.8588 132.594 64.0838C132.503 62.2025 130.645 60.5337 128.787 60.6854C126.96 60.8371 125.377 62.597 125.468 64.372Z" fill="#8D9F7E"/>
<path d="M107.074 44.5886C108.947 44.6341 110.729 42.8742 110.713 41.0082C110.698 39.2179 109.023 37.5187 107.226 37.4884C105.354 37.4429 103.572 39.2028 103.587 41.0688C103.602 42.8591 105.262 44.5431 107.074 44.5886Z" fill="#8D9F7E"/>
<path d="M93.7051 19.7379C95.578 19.7379 97.3443 17.9477 97.2834 16.0816C97.2225 14.2762 95.5171 12.6226 93.7204 12.6226C91.8323 12.6226 90.0812 14.4128 90.1421 16.2789C90.203 18.0691 91.9084 19.7228 93.7051 19.7379Z" fill="#8D9F7E"/>
<path d="M180.802 104.121C182.675 104.136 184.441 102.361 184.411 100.495C184.365 98.6896 182.675 97.036 180.878 97.0056C179.005 96.9904 177.239 98.7655 177.269 100.632C177.315 102.437 179.005 104.091 180.802 104.121Z" fill="#8D9F7E"/>
<path d="M194.932 107.792C194.963 106.017 193.318 104.288 191.521 104.197C189.664 104.106 187.837 105.835 187.806 107.701C187.776 109.476 189.42 111.206 191.217 111.297C193.09 111.388 194.902 109.659 194.932 107.792Z" fill="#8D9F7E"/>
<path d="M91.482 25.0782C91.5277 26.9898 93.1113 28.507 95.0299 28.4766C96.9484 28.4311 98.4711 26.8533 98.4406 24.9417C98.395 23.0301 96.8114 21.513 94.8928 21.5433C92.9743 21.5888 91.4364 23.1818 91.482 25.0782Z" fill="#8D9F7E"/>
<path d="M78.0521 0.303425C78.0521 0.257911 78.0673 0.212397 78.0673 0.166883L84.9955 0.182054C84.9802 2.00262 83.5337 3.53492 81.6761 3.61078C79.7575 3.70181 78.1434 2.21501 78.0521 0.303425Z" fill="#8D9F7E"/>
<path d="M151.323 90.8916C153.242 90.8916 154.795 89.3441 154.795 87.4325C154.795 85.5209 153.242 83.9734 151.323 83.9734C149.404 83.9734 147.851 85.5209 147.851 87.4325C147.851 89.3441 149.404 90.8916 151.323 90.8916Z" fill="#8D9F7E"/>
<path d="M144.699 80.2716C144.715 78.36 143.177 76.7974 141.243 76.7822C139.324 76.767 137.756 78.2993 137.741 80.2261C137.726 82.1377 139.263 83.7003 141.197 83.7155C143.116 83.7307 144.684 82.1984 144.699 80.2716Z" fill="#8D9F7E"/>
<path d="M158.388 94.563C158.358 96.4746 159.896 98.0524 161.814 98.0676C163.733 98.098 165.316 96.5656 165.332 94.6541C165.362 92.7425 163.824 91.1798 161.906 91.1495C159.987 91.1343 158.419 92.6514 158.388 94.563Z" fill="#8D9F7E"/>
<path d="M168.499 102.118C168.438 103.878 170.189 105.684 171.97 105.668C173.661 105.668 175.381 104 175.427 102.316C175.488 100.556 173.737 98.7655 171.955 98.7655C170.28 98.7655 168.56 100.419 168.499 102.118Z" fill="#8D9F7E"/>
<path d="M223.65 118.943L223.635 122.797C222.995 123.662 221.99 124.299 220.955 124.329C219.28 124.375 217.529 122.751 217.422 121.052C217.315 119.307 219.021 117.472 220.818 117.426C221.868 117.396 222.965 118.033 223.65 118.943Z" fill="#8D9F7E"/>
<path d="M108.247 46.4243C106.45 46.5154 104.775 48.3663 104.927 50.111C105.079 51.8102 106.846 53.4032 108.521 53.3273C110.317 53.2363 111.992 51.3702 111.84 49.6255C111.703 47.9263 109.922 46.3333 108.247 46.4243Z" fill="#8D9F7E"/>
<path d="M205.363 114.938C205.378 113.163 203.581 111.403 201.815 111.464C200.109 111.509 198.45 113.209 198.434 114.908C198.419 116.683 200.216 118.443 201.982 118.382C203.688 118.337 205.363 116.622 205.363 114.938Z" fill="#8D9F7E"/>
<path d="M96.5221 36.8815C98.2884 36.9422 100.085 35.1975 100.085 33.4225C100.085 31.7385 98.4254 30.0393 96.72 29.9786C94.9537 29.9179 93.157 31.6626 93.157 33.4377C93.157 35.1217 94.8167 36.8209 96.5221 36.8815Z" fill="#8D9F7E"/>
<path d="M127.219 73.0956C127.234 74.8706 129.062 76.6002 130.813 76.5243C132.518 76.4484 134.162 74.7189 134.147 73.0501C134.132 71.275 132.305 69.5455 130.554 69.6213C128.864 69.6972 127.204 71.4115 127.219 73.0956Z" fill="#8D9F7E"/>
<path d="M83.1835 11.864C85.1021 11.864 86.4725 10.4986 86.4725 8.58698C86.4725 6.67539 85.1021 5.30997 83.1835 5.30997C81.2649 5.30997 79.8945 6.69056 79.8945 8.60215C79.8945 10.4986 81.2649 11.864 83.1835 11.864Z" fill="#8D9F7E"/>
<path d="M132.305 85.1871C134.254 85.2175 135.639 83.8521 135.639 81.9101C135.639 80.0592 134.36 78.709 132.503 78.6483C130.554 78.5724 129.122 79.9075 129.062 81.8191C129.016 83.761 130.356 85.1568 132.305 85.1871Z" fill="#8D9F7E"/>
<path d="M120.55 69.1814C122.468 69.1965 123.854 67.8463 123.869 65.9195C123.884 64.0079 122.529 62.6122 120.611 62.6122C118.677 62.597 117.307 63.9624 117.291 65.874C117.276 67.7856 118.631 69.1662 120.55 69.1814Z" fill="#8D9F7E"/>
<path d="M152.922 99.5392C154.871 99.5696 156.272 98.2193 156.272 96.2774C156.287 94.3355 154.901 92.97 152.952 92.9852C151.095 93.0004 149.77 94.2899 149.709 96.1408C149.633 98.098 150.988 99.5089 152.922 99.5392Z" fill="#8D9F7E"/>
<path d="M84.9346 20.6937C86.8683 20.6482 88.2083 19.2069 88.1322 17.265C88.056 15.4293 86.7161 14.1397 84.8584 14.1245C82.9094 14.1094 81.539 15.5051 81.5542 17.4471C81.5695 19.3738 82.9855 20.7392 84.9346 20.6937Z" fill="#8D9F7E"/>
<path d="M163.443 106.73C165.392 106.776 166.793 105.426 166.809 103.484C166.824 101.542 165.438 100.176 163.489 100.192C161.631 100.207 160.291 101.496 160.231 103.332C160.17 105.259 161.51 106.685 163.443 106.73Z" fill="#8D9F7E"/>
<path d="M110.059 61.5653C112.008 61.5653 113.363 60.1696 113.332 58.2276C113.302 56.3009 111.871 54.9658 109.922 55.0113C108.079 55.072 106.77 56.3919 106.754 58.2428C106.739 60.1847 108.11 61.5653 110.059 61.5653Z" fill="#8D9F7E"/>
<path d="M182.385 112.678C184.319 112.738 185.735 111.403 185.781 109.507C185.842 107.58 184.502 106.169 182.599 106.108C180.68 106.048 179.264 107.383 179.203 109.279C179.142 111.206 180.482 112.632 182.385 112.678Z" fill="#8D9F7E"/>
<path d="M145.75 89.0558C145.735 87.1291 144.319 85.7788 142.37 85.8243C140.436 85.8698 139.096 87.3111 139.172 89.2379C139.248 91.0736 140.588 92.3632 142.446 92.3632C144.38 92.3784 145.765 90.9826 145.75 89.0558Z" fill="#8D9F7E"/>
<path d="M98.3036 45.5444C100.253 45.5444 101.608 44.1486 101.577 42.1915C101.547 40.3406 100.237 39.0359 98.3797 38.9904C96.4307 38.9449 95.0299 40.2951 94.9994 42.237C94.9689 44.179 96.3394 45.5444 98.3036 45.5444Z" fill="#8D9F7E"/>
<path d="M212.093 125.801C214.011 125.755 215.366 124.314 215.29 122.387C215.214 120.552 213.889 119.262 212.017 119.262C210.068 119.247 208.697 120.627 208.712 122.569C208.743 124.496 210.144 125.846 212.093 125.801Z" fill="#8D9F7E"/>
<path d="M192.998 119.854C194.947 119.869 196.318 118.488 196.303 116.546C196.287 114.695 194.993 113.36 193.151 113.3C191.202 113.239 189.77 114.574 189.725 116.501C189.709 118.443 191.065 119.838 192.998 119.854Z" fill="#8D9F7E"/>
<path d="M112.982 79.1641C114.794 79.1489 116.165 77.7835 116.165 75.963C116.18 74.1576 114.825 72.777 113.013 72.7315C111.109 72.7011 109.678 74.1424 109.724 76.0388C109.769 77.8594 111.17 79.1793 112.982 79.1641Z" fill="#8D9F7E"/>
<path d="M111.779 70.3496C113.606 70.3192 114.946 68.9386 114.946 67.1029C114.931 65.2065 113.454 63.8107 111.536 63.9017C109.724 63.9928 108.414 65.4189 108.475 67.2394C108.536 69.06 109.952 70.3799 111.779 70.3496Z" fill="#8D9F7E"/>
<path d="M74.3368 13.457C76.164 13.4418 77.5344 12.0916 77.5496 10.2558C77.5648 8.43527 76.2249 7.05468 74.3977 7.00916C72.4944 6.96365 71.0478 8.40493 71.0783 10.3013C71.124 12.1219 72.5096 13.4722 74.3368 13.457Z" fill="#8D9F7E"/>
<path d="M69.8449 1.5323C69.8297 1.03165 69.921 0.561338 70.0885 0.13654L76.0726 0.151711C76.2249 0.515824 76.301 0.92545 76.3163 1.35025C76.3315 3.17081 74.9915 4.56658 73.1643 4.61209C71.3371 4.67277 69.921 3.35287 69.8449 1.5323Z" fill="#8D9F7E"/>
<path d="M164.829 115.499C166.641 115.469 167.996 114.089 167.981 112.268C167.966 110.372 166.489 108.976 164.585 109.067C162.773 109.158 161.464 110.599 161.525 112.405C161.601 114.225 163.002 115.545 164.829 115.499Z" fill="#8D9F7E"/>
<path d="M89.3503 47.1374C91.1775 47.1677 92.5784 45.8478 92.6393 44.0273C92.7002 42.2067 91.3755 40.7806 89.5787 40.7047C87.6754 40.6137 86.1832 42.0246 86.1832 43.9211C86.1832 45.7416 87.5383 47.107 89.3503 47.1374Z" fill="#8D9F7E"/>
<path d="M90.9796 35.1975C91.0405 33.377 89.7157 31.9509 87.9038 31.875C86.0004 31.784 84.5082 33.1949 84.5082 35.0913C84.5082 36.9119 85.8634 38.2925 87.6906 38.3077C89.5178 38.338 90.9339 37.0029 90.9796 35.1975Z" fill="#8D9F7E"/>
<path d="M176.873 110.705C176.919 108.9 175.61 107.504 173.813 107.413C171.925 107.322 170.432 108.688 170.402 110.569C170.372 112.374 171.666 113.77 173.463 113.861C175.351 113.952 176.828 112.587 176.873 110.705Z" fill="#8D9F7E"/>
<path d="M86.0461 29.4779C87.9342 29.5083 89.3655 28.0822 89.3351 26.1858C89.3046 24.3804 87.9495 23.0301 86.1375 23.0149C84.2341 22.9998 82.8181 24.4107 82.8485 26.3071C82.879 28.1125 84.2341 29.4476 86.0461 29.4779Z" fill="#8D9F7E"/>
<path d="M175.335 122.676C177.163 122.645 178.518 121.295 178.518 119.474C178.518 117.578 177.041 116.167 175.153 116.258C173.341 116.334 172.031 117.76 172.077 119.565C172.123 121.371 173.508 122.706 175.335 122.676Z" fill="#8D9F7E"/>
<path d="M223.604 132.749C223.3 132.856 222.98 132.916 222.63 132.931C220.802 132.977 219.371 131.657 219.31 129.852C219.234 128.031 220.528 126.59 222.34 126.484C222.797 126.453 223.223 126.529 223.619 126.65L223.604 132.749Z" fill="#8D9F7E"/>
<path d="M130.782 90.8005C130.813 92.6211 132.183 93.9713 134.01 93.9713C135.837 93.9713 137.223 92.6211 137.238 90.8005C137.269 88.9041 135.807 87.4628 133.904 87.5235C132.092 87.5842 130.752 88.98 130.782 90.8005Z" fill="#8D9F7E"/>
<path d="M216.904 131.035C216.95 129.214 215.641 127.803 213.813 127.728C211.91 127.652 210.433 129.063 210.448 130.959C210.448 132.78 211.819 134.145 213.631 134.16C215.458 134.175 216.843 132.84 216.904 131.035Z" fill="#8D9F7E"/>
<path d="M144.166 101.147C145.994 101.132 147.349 99.7668 147.349 97.9462C147.349 96.0498 145.872 94.6389 143.968 94.7147C142.157 94.7906 140.832 96.2167 140.877 98.0221C140.938 99.8427 142.324 101.163 144.166 101.147Z" fill="#8D9F7E"/>
<path d="M99.4608 54.3286C101.288 54.3589 102.689 53.0239 102.75 51.2185C102.811 49.3979 101.486 47.9718 99.674 47.8808C97.7554 47.7898 96.2785 49.2007 96.2785 51.0971C96.2785 52.9328 97.6336 54.2983 99.4608 54.3286Z" fill="#8D9F7E"/>
<path d="M184.197 121.462C186.025 121.447 187.38 120.081 187.395 118.261C187.41 116.44 186.055 115.06 184.228 115.029C182.325 114.984 180.878 116.44 180.924 118.337C180.969 120.142 182.355 121.477 184.197 121.462Z" fill="#8D9F7E"/>
<path d="M123.473 86.3553C125.301 86.3553 126.671 85.0202 126.717 83.1997C126.747 81.3033 125.301 79.862 123.397 79.9227C121.585 79.9682 120.245 81.364 120.261 83.1845C120.276 85.0051 121.646 86.3553 123.473 86.3553Z" fill="#8D9F7E"/>
<path d="M97.9534 60.0179C97.9991 61.8233 99.3847 63.1735 101.212 63.1583C103.115 63.1432 104.516 61.6564 104.41 59.76C104.318 57.9546 102.872 56.665 101.06 56.7257C99.2324 56.7864 97.9077 58.1973 97.9534 60.0179Z" fill="#8D9F7E"/>
<path d="M121.814 77.5408C123.626 77.5408 124.996 76.2209 125.057 74.4155C125.118 72.5342 123.717 71.0778 121.814 71.0778C119.926 71.0778 118.509 72.5191 118.57 74.4155C118.631 76.2057 120.002 77.5256 121.814 77.5408Z" fill="#8D9F7E"/>
<path d="M203.079 126.984C204.921 127.015 206.322 125.71 206.383 123.889C206.444 122.069 205.134 120.643 203.322 120.552C201.404 120.461 199.927 121.856 199.911 123.768C199.896 125.573 201.236 126.954 203.079 126.984Z" fill="#8D9F7E"/>
<path d="M154.658 108.323C156.485 108.323 157.855 106.958 157.87 105.137C157.901 103.241 156.424 101.815 154.521 101.876C152.709 101.936 151.369 103.332 151.399 105.153C151.46 106.988 152.846 108.339 154.658 108.323Z" fill="#8D9F7E"/>
<path d="M79.2093 19.0552C79.2093 17.2347 77.8389 15.8692 76.0269 15.8541C74.1236 15.8237 72.6923 17.2953 72.7532 19.1918C72.8141 20.9971 74.215 22.3322 76.0422 22.2867C77.8541 22.2564 79.2093 20.8758 79.2093 19.0552Z" fill="#8D9F7E"/>
<path d="M197.49 125.27C197.414 123.464 195.998 122.145 194.171 122.205C192.283 122.251 190.912 123.783 191.049 125.679C191.186 127.47 192.648 128.744 194.475 128.638C196.272 128.532 197.582 127.09 197.49 125.27Z" fill="#8D9F7E"/>
<path d="M80.8538 27.9305C80.869 26.2313 79.3159 24.699 77.6105 24.7141C75.9051 24.7293 74.3825 26.3071 74.4281 27.9911C74.4738 29.5993 75.9508 31.0709 77.5648 31.1013C79.255 31.1468 80.8386 29.6145 80.8538 27.9305Z" fill="#8D9F7E"/>
<path d="M145.78 109.901C147.394 109.901 148.871 108.49 148.932 106.882C148.993 105.198 147.501 103.635 145.796 103.635C144.09 103.635 142.583 105.168 142.644 106.867C142.689 108.46 144.166 109.886 145.78 109.901Z" fill="#8D9F7E"/>
<path d="M94.2229 52.6749C94.1772 50.9757 92.5784 49.5193 90.8882 49.6255C89.2589 49.7317 87.8885 51.2337 87.9342 52.8418C87.9799 54.541 89.5787 55.9975 91.2689 55.8913C92.8829 55.7851 94.2685 54.2831 94.2229 52.6749Z" fill="#8D9F7E"/>
<path d="M135.152 102.3C136.842 102.361 138.396 100.844 138.396 99.16C138.396 97.5518 136.964 96.0953 135.35 96.0346C133.66 95.974 132.107 97.4911 132.107 99.1751C132.107 100.783 133.538 102.24 135.152 102.3Z" fill="#8D9F7E"/>
<path d="M201.647 132.613C201.647 134.312 203.216 135.814 204.906 135.738C206.535 135.677 207.951 134.206 207.936 132.598C207.936 130.898 206.367 129.396 204.677 129.472C203.063 129.533 201.647 130.989 201.647 132.613Z" fill="#8D9F7E"/>
<path d="M99.6892 68.8172C99.7045 70.5164 101.288 72.0032 102.978 71.9274C104.607 71.8515 106.008 70.3647 105.993 68.7566C105.963 67.0574 104.394 65.5706 102.719 65.6464C101.09 65.7223 99.674 67.2091 99.6892 68.8172Z" fill="#8D9F7E"/>
<path d="M61.0591 3.11013C61.0286 1.79022 61.9575 0.57651 63.1756 0.106198L65.2769 0.106198C66.4341 0.561338 67.3173 1.69919 67.3477 2.97358C67.3782 4.58175 65.9926 6.06854 64.3785 6.17474C62.6884 6.28094 61.1048 4.80932 61.0591 3.11013Z" fill="#8D9F7E"/>
<path d="M185.446 130.201C187.167 130.17 188.628 128.608 188.537 126.924C188.446 125.3 186.953 123.92 185.339 123.935C183.634 123.965 182.157 125.543 182.248 127.227C182.34 128.85 183.832 130.231 185.446 130.201Z" fill="#8D9F7E"/>
<path d="M212.199 139.683C212.138 141.185 213.646 142.823 215.184 142.914C216.783 143.005 218.473 141.397 218.473 139.789C218.473 138.257 216.92 136.694 215.382 136.664C213.859 136.633 212.26 138.15 212.199 139.683Z" fill="#8D9F7E"/>
<path d="M223.574 141.655C222.066 141.534 220.62 140.001 220.635 138.499C220.665 137.012 222.097 135.541 223.589 135.435L223.574 141.655Z" fill="#8D9F7E"/>
<path d="M95.441 61.5805C95.4258 60.0482 93.8727 58.4856 92.35 58.4704C90.7359 58.44 89.1067 60.1089 89.1676 61.7171C89.2437 63.2494 90.8577 64.7665 92.3652 64.721C93.9031 64.6906 95.4562 63.0977 95.441 61.5805Z" fill="#8D9F7E"/>
<path d="M82.0263 36.7298C82.011 35.1975 80.4579 33.6349 78.92 33.6197C77.2908 33.5894 75.6615 35.2582 75.7376 36.8664C75.8138 38.3987 77.4278 39.9158 78.9505 39.8855C80.4884 39.84 82.0263 38.2621 82.0263 36.7298Z" fill="#8D9F7E"/>
<path d="M114.672 87.9331C116.21 87.8876 117.748 86.3098 117.748 84.7927C117.733 83.1845 116.027 81.5763 114.444 81.6825C112.906 81.7887 111.399 83.4121 111.475 84.9292C111.551 86.4464 113.165 87.9635 114.672 87.9331Z" fill="#8D9F7E"/>
<path d="M125.163 95.1092C126.701 95.094 128.27 93.5465 128.285 92.0142C128.315 90.3909 126.64 88.7676 125.026 88.8434C123.489 88.9193 121.966 90.5274 121.996 92.0446C122.042 93.5769 123.626 95.1244 125.163 95.1092Z" fill="#8D9F7E"/>
<path d="M155.937 117.077C157.475 117.047 159.028 115.484 159.043 113.952C159.043 112.329 157.353 110.721 155.754 110.812C154.216 110.903 152.709 112.526 152.754 114.043C152.8 115.575 154.399 117.108 155.937 117.077Z" fill="#8D9F7E"/>
<path d="M62.3077 11.9702C62.3686 13.5025 63.9522 15.0348 65.4901 15.0045C67.1193 14.9741 68.7029 13.2749 68.5811 11.6819C68.4593 10.1496 66.8148 8.66284 65.3074 8.7387C63.7695 8.8449 62.2468 10.4682 62.3077 11.9702Z" fill="#8D9F7E"/>
<path d="M163.291 121.265C163.383 122.812 164.997 124.314 166.519 124.253C168.148 124.193 169.702 122.463 169.549 120.885C169.397 119.338 167.737 117.897 166.23 118.003C164.677 118.124 163.2 119.763 163.291 121.265Z" fill="#8D9F7E"/>
<path d="M196.074 137.377C197.627 137.286 199.12 135.677 199.074 134.16C199.013 132.537 197.277 130.989 195.694 131.141C194.14 131.293 192.694 132.947 192.801 134.449C192.922 135.996 194.567 137.468 196.074 137.377Z" fill="#8D9F7E"/>
<path d="M67.028 23.8494C68.5506 23.8949 70.1647 22.3777 70.2408 20.8454C70.3169 19.2524 68.6877 17.5684 67.0736 17.5988C65.5357 17.6139 63.9826 19.1766 63.9674 20.7089C63.9522 22.226 65.5053 23.8039 67.028 23.8494Z" fill="#8D9F7E"/>
<path d="M104.455 80.6509C106.1 80.6812 107.546 79.24 107.546 77.6166C107.546 75.9933 106.084 74.552 104.44 74.5824C102.887 74.6127 101.501 75.963 101.456 77.5256C101.395 79.1489 102.811 80.6206 104.455 80.6509Z" fill="#8D9F7E"/>
<path d="M126.382 103.848C128.011 103.848 129.457 102.407 129.427 100.768C129.397 99.1448 127.92 97.7338 126.29 97.7793C124.737 97.84 123.382 99.2055 123.352 100.753C123.306 102.391 124.737 103.848 126.382 103.848Z" fill="#8D9F7E"/>
<path d="M68.84 32.5881C70.4692 32.5577 71.8853 31.0558 71.8244 29.4476C71.7635 27.8243 70.2408 26.4285 68.6115 26.5347C67.0584 26.6257 65.7337 28.0367 65.7337 29.569C65.7337 31.1923 67.2107 32.6336 68.84 32.5881Z" fill="#8D9F7E"/>
<path d="M179.995 128.395C180.056 126.772 178.624 125.285 176.98 125.27C175.427 125.255 174.011 126.559 173.904 128.122C173.798 129.745 175.168 131.263 176.812 131.354C178.442 131.429 179.949 130.034 179.995 128.395Z" fill="#8D9F7E"/>
<path d="M206.55 144.462C208.179 144.416 209.58 142.914 209.504 141.291C209.428 139.743 208.027 138.408 206.474 138.408C204.845 138.393 203.398 139.85 203.414 141.473C203.444 143.096 204.921 144.522 206.55 144.462Z" fill="#8D9F7E"/>
<path d="M79.1637 54.4652C79.1941 56.0885 80.6863 57.4994 82.3003 57.4387C83.9296 57.3781 85.3304 55.8609 85.2391 54.2528C85.1477 52.7053 83.7469 51.3854 82.1938 51.3854C80.5645 51.3854 79.1332 52.8418 79.1637 54.4652Z" fill="#8D9F7E"/>
<path d="M83.5946 45.5747C83.5946 43.9362 82.1329 42.5101 80.4884 42.5405C78.8439 42.5708 77.4278 44.0576 77.4887 45.6809C77.5496 47.2284 78.9353 48.5787 80.4884 48.609C82.1176 48.6394 83.5946 47.1981 83.5946 45.5747Z" fill="#8D9F7E"/>
<path d="M139.949 108.02C139.964 106.397 138.517 104.94 136.888 104.955C135.259 104.971 133.827 106.442 133.873 108.066C133.919 109.613 135.289 110.978 136.842 111.024C138.456 111.085 139.933 109.659 139.949 108.02Z" fill="#8D9F7E"/>
<path d="M184.015 135.404C183.969 137.028 185.385 138.499 187.014 138.514C188.567 138.53 189.984 137.225 190.09 135.677C190.197 134.069 188.826 132.537 187.197 132.461C185.583 132.385 184.076 133.781 184.015 135.404Z" fill="#8D9F7E"/>
<path d="M147.501 118.625C149.13 118.594 150.546 117.092 150.486 115.484C150.425 113.861 148.902 112.48 147.273 112.571C145.72 112.662 144.395 114.058 144.395 115.606C144.41 117.229 145.887 118.67 147.501 118.625Z" fill="#8D9F7E"/>
<path d="M93.9488 73.2928C95.7303 73.308 96.8571 72.1853 96.8418 70.4102C96.8266 68.6352 95.6846 67.5125 93.9031 67.5884C92.1368 67.6491 91.1775 68.5897 91.1166 70.3647C91.0405 72.1398 92.1673 73.2776 93.9488 73.2928Z" fill="#8D9F7E"/>
<path d="M119.149 93.7134C119.179 91.9384 118.083 90.8005 116.302 90.7854C114.52 90.7702 113.378 91.8929 113.424 93.6831C113.469 95.443 114.383 96.4139 116.165 96.505C117.931 96.5808 119.103 95.4581 119.149 93.7134Z" fill="#8D9F7E"/>
<path d="M55.41 7.55533C57.1763 7.52499 58.2878 6.35679 58.1965 4.58175C58.1051 2.82187 57.1306 1.89642 55.3643 1.8509C53.5828 1.80539 52.456 2.94324 52.4712 4.71829C52.4865 6.49334 53.6133 7.60085 55.41 7.55533Z" fill="#8D9F7E"/>
<path d="M154.688 122.751C154.673 124.526 155.8 125.649 157.581 125.634C159.363 125.619 160.489 124.481 160.413 122.691C160.352 120.931 159.393 119.99 157.627 119.914C155.83 119.869 154.703 120.976 154.688 122.751Z" fill="#8D9F7E"/>
<path d="M105.597 83.6548C103.968 83.7307 102.872 84.914 102.933 86.5526C102.978 88.2669 104.272 89.3896 106.008 89.2531C107.622 89.1317 108.673 87.9028 108.566 86.2491C108.46 84.6258 107.242 83.5638 105.597 83.6548Z" fill="#8D9F7E"/>
<path d="M130.858 109.643C130.858 108.005 129.732 106.882 128.087 106.852C126.366 106.837 125.179 108.05 125.24 109.765C125.301 111.388 126.473 112.48 128.117 112.45C129.747 112.42 130.858 111.282 130.858 109.643Z" fill="#8D9F7E"/>
<path d="M56.5368 15.9299C58.1813 15.9603 59.3537 14.8528 59.3994 13.2142C59.4451 11.5757 58.364 10.3924 56.7347 10.3165C54.9989 10.2407 53.7655 11.4089 53.7655 13.1384C53.7655 14.7769 54.8923 15.8996 56.5368 15.9299Z" fill="#8D9F7E"/>
<path d="M55.4252 22.044C55.4709 23.6825 56.6129 24.7748 58.2574 24.7748C59.978 24.7596 61.1352 23.5156 61.0439 21.7861C60.9525 20.1779 59.7496 19.1007 58.1051 19.1614C56.4759 19.2221 55.3948 20.3903 55.4252 22.044Z" fill="#8D9F7E"/>
<path d="M168.118 132.764C169.763 132.749 170.889 131.611 170.905 129.973C170.92 128.334 169.793 127.181 168.148 127.151C166.428 127.121 165.21 128.319 165.255 130.049C165.316 131.687 166.474 132.78 168.118 132.764Z" fill="#8D9F7E"/>
<path d="M138.609 119.641C140.253 119.626 141.38 118.503 141.395 116.865C141.41 115.226 140.299 114.073 138.67 114.043C136.949 113.998 135.731 115.196 135.777 116.926C135.807 118.549 136.949 119.656 138.609 119.641Z" fill="#8D9F7E"/>
<path d="M69.921 40.7958C71.5655 40.8413 72.7532 39.7489 72.8293 38.1256C72.9055 36.3961 71.7178 35.1672 69.9972 35.1672C68.3527 35.1824 67.2107 36.305 67.1955 37.9435C67.165 39.5821 68.2918 40.7351 69.921 40.7958Z" fill="#8D9F7E"/>
<path d="M71.7482 49.6255C73.3927 49.58 74.489 48.4421 74.489 46.8036C74.4738 45.0893 73.2252 43.9362 71.4894 44.0273C69.8754 44.1183 68.7943 45.3168 68.8552 46.9553C68.9161 48.5635 70.1038 49.6558 71.7482 49.6255Z" fill="#8D9F7E"/>
<path d="M178.274 139.956C179.919 139.91 181.015 138.772 181.015 137.134C181 135.419 179.751 134.266 178.015 134.357C176.401 134.449 175.32 135.647 175.381 137.286C175.442 138.894 176.615 139.986 178.274 139.956Z" fill="#8D9F7E"/>
<path d="M83.5185 65.6313C85.163 65.5857 86.2745 64.4479 86.2593 62.8094C86.2441 61.095 84.9955 59.9268 83.2596 60.033C81.6456 60.1241 80.5645 61.3226 80.6254 62.9611C80.6863 64.5844 81.874 65.6768 83.5185 65.6313Z" fill="#8D9F7E"/>
<path d="M216.661 151.425C218.29 151.38 219.402 150.227 219.386 148.588C219.371 146.874 218.107 145.721 216.371 145.827C214.742 145.918 213.692 147.117 213.752 148.77C213.829 150.394 215.016 151.471 216.661 151.425Z" fill="#8D9F7E"/>
<path d="M148.674 126.817C150.318 126.832 151.46 125.725 151.49 124.086C151.521 122.372 150.318 121.174 148.597 121.219C146.968 121.265 145.872 122.418 145.887 124.056C145.887 125.695 147.029 126.802 148.674 126.817Z" fill="#8D9F7E"/>
<path d="M200.399 143.157C200.429 141.503 199.348 140.35 197.703 140.289C196.059 140.229 194.856 141.306 194.765 142.929C194.673 144.659 195.846 145.903 197.566 145.903C199.226 145.903 200.368 144.795 200.399 143.157Z" fill="#8D9F7E"/>
<path d="M95.5933 82.077C97.2377 82.0922 98.395 80.9998 98.4407 79.3613C98.4863 77.647 97.2834 76.4333 95.5628 76.4636C93.9335 76.494 92.8068 77.647 92.822 79.2855C92.822 80.924 93.9488 82.0618 95.5933 82.077Z" fill="#8D9F7E"/>
<path d="M117.596 105.259C119.088 105.213 120.382 103.833 120.306 102.346C120.23 100.859 118.814 99.5392 117.337 99.7213C115.738 99.9185 114.794 100.889 114.748 102.513C114.688 103.984 116.104 105.304 117.596 105.259Z" fill="#8D9F7E"/>
<path d="M62.6884 30.7068C62.6427 29.22 61.2418 27.9305 59.7648 28.0215C58.2726 28.0973 56.9479 29.5234 57.1306 30.9951C57.3286 32.5881 58.3031 33.5135 59.9323 33.5742C61.4398 33.6045 62.734 32.1936 62.6884 30.7068Z" fill="#8D9F7E"/>
<path d="M204.921 150.196C204.875 151.683 206.17 153.033 207.677 153.064C209.184 153.079 210.57 151.759 210.479 150.272C210.387 148.664 209.443 147.693 207.844 147.526C206.352 147.359 204.967 148.694 204.921 150.196Z" fill="#8D9F7E"/>
<path d="M188.75 147.101C190.242 147.086 191.613 145.721 191.491 144.249C191.354 142.641 190.41 141.685 188.796 141.564C187.304 141.458 185.948 142.808 185.933 144.31C185.918 145.797 187.258 147.117 188.75 147.101Z" fill="#8D9F7E"/>
<path d="M107.333 98.0676C108.825 98.1131 110.241 96.8084 110.18 95.3216C110.12 93.6983 109.191 92.7273 107.592 92.5301C106.13 92.348 104.699 93.6679 104.623 95.1547C104.547 96.6415 105.826 98.0221 107.333 98.0676Z" fill="#8D9F7E"/>
<path d="M73.408 58.4249C74.9002 58.3794 76.1944 56.9988 76.1183 55.5271C76.0422 54.0404 74.6261 52.7204 73.1491 52.9025C71.5503 53.0997 70.6215 54.0555 70.5606 55.6789C70.4996 57.1657 71.9157 58.4704 73.408 58.4249Z" fill="#8D9F7E"/>
<path d="M87.8885 71.5936C87.8429 70.1068 86.4572 68.8172 84.9802 68.8931C83.488 68.969 82.1633 70.3799 82.346 71.8515C82.544 73.4445 83.5033 74.37 85.1325 74.4306C86.6247 74.4913 87.9342 73.0804 87.8885 71.5936Z" fill="#8D9F7E"/>
<path d="M161.997 131.551C161.951 130.064 160.566 128.774 159.089 128.85C157.581 128.926 156.272 130.337 156.439 131.809C156.637 133.402 157.596 134.327 159.226 134.403C160.733 134.449 162.043 133.038 161.997 131.551Z" fill="#8D9F7E"/>
<path d="M169.458 141.534C171.026 141.23 172.016 140.35 172.031 138.712C172.047 137.225 170.539 135.89 169.077 136.117C167.478 136.36 166.519 137.361 166.641 139C166.763 140.608 167.859 141.412 169.458 141.534Z" fill="#8D9F7E"/>
<path d="M60.0541 48.4876C60.2825 50.0655 61.1352 51.1275 62.7645 51.1426C64.3785 51.1578 65.353 50.1565 65.5053 48.5635C65.6423 47.0919 64.211 45.6658 62.7493 45.7871C61.1048 45.9085 60.2673 46.9098 60.0541 48.4876Z" fill="#8D9F7E"/>
<path d="M43.7463 6.1444C43.9443 7.52499 44.7818 8.5263 46.411 8.64767C47.9032 8.75387 49.3193 7.32776 49.1671 5.85614C49.0148 4.24798 48.0403 3.32253 46.411 3.26184C44.9949 3.20115 43.7463 4.53623 43.7463 6.1444Z" fill="#8D9F7E"/>
<path d="M129.899 121.204C131.285 121.007 132.366 120.172 132.381 118.534C132.411 116.91 131.406 115.955 129.792 115.788C128.315 115.651 126.945 117.047 126.975 118.534C127.021 119.945 128.3 121.204 129.899 121.204Z" fill="#8D9F7E"/>
<path d="M48.1012 17.5229C49.7 17.3257 50.7049 16.4913 50.842 14.8679C50.9638 13.3963 49.5477 11.9702 48.0707 12.0916C46.4567 12.2281 45.4517 13.1991 45.4517 14.8072C45.4517 16.4306 46.5176 17.2802 48.1012 17.5229Z" fill="#8D9F7E"/>
<path d="M74.6565 67.2243C76.2249 66.9512 77.2146 66.0864 77.2755 64.4631C77.3212 62.9763 75.8442 61.6109 74.3825 61.8081C72.7837 62.0205 71.7939 63.0066 71.8853 64.63C71.9766 66.2381 73.0577 67.0574 74.6565 67.2243Z" fill="#8D9F7E"/>
<path d="M46.6242 23.5459C46.8069 25.1389 47.6292 26.1402 49.2432 26.3071C50.7049 26.4588 52.1667 25.0479 52.0601 23.5914C51.9535 21.9833 50.9942 20.982 49.3802 20.9516C47.751 20.9213 46.8983 21.9833 46.6242 23.5459Z" fill="#8D9F7E"/>
<path d="M109.13 106.867C110.698 106.594 111.688 105.759 111.764 104.121C111.825 102.649 110.363 101.269 108.901 101.451C107.303 101.648 106.313 102.634 106.389 104.258C106.45 105.851 107.531 106.685 109.13 106.867Z" fill="#8D9F7E"/>
<path d="M137.071 125.664C137.284 127.242 138.121 128.319 139.751 128.35C141.38 128.38 142.354 127.394 142.507 125.786C142.659 124.314 141.243 122.873 139.766 122.979C138.137 123.085 137.299 124.086 137.071 125.664Z" fill="#8D9F7E"/>
<path d="M87.0206 83.2149C88.4063 82.9721 89.396 82.1377 89.4721 80.4992C89.533 79.0124 88.0713 77.647 86.5943 77.829C84.9955 78.0263 84.0819 79.0124 84.0667 80.6357C84.0514 82.0315 85.4371 83.2604 87.0206 83.2149Z" fill="#8D9F7E"/>
<path d="M150.562 135.556C151.947 135.344 152.952 134.509 153.044 132.886C153.135 131.414 151.688 130.003 150.211 130.17C148.613 130.337 147.684 131.308 147.638 132.931C147.608 134.327 148.963 135.571 150.562 135.556Z" fill="#8D9F7E"/>
<path d="M198.983 154.642C200.383 154.475 201.388 153.655 201.541 152.032C201.678 150.56 200.262 149.119 198.785 149.241C197.171 149.362 196.227 150.318 196.135 151.941C196.059 153.337 197.368 154.611 198.983 154.642Z" fill="#8D9F7E"/>
<path d="M220.97 157.524C220.802 155.931 219.965 154.93 218.351 154.763C216.874 154.611 215.427 156.007 215.534 157.479C215.641 159.087 216.6 160.103 218.214 160.118C219.843 160.149 220.711 159.087 220.97 157.524Z" fill="#8D9F7E"/>
<path d="M116.439 111.449C116.743 113.011 117.626 113.982 119.271 114.013C120.763 114.028 122.103 112.526 121.875 111.069C121.631 109.492 120.626 108.521 118.997 108.642C117.367 108.763 116.56 109.856 116.439 111.449Z" fill="#8D9F7E"/>
<path d="M177.117 146.055C177.391 147.617 178.229 148.619 179.873 148.679C181.365 148.74 182.736 147.283 182.553 145.827C182.355 144.234 181.365 143.248 179.736 143.324C178.122 143.384 177.284 144.462 177.117 146.055Z" fill="#8D9F7E"/>
<path d="M94.1315 87.6145C94.299 89.2075 95.1365 90.224 96.7657 90.3757C98.2427 90.5274 99.6892 89.1317 99.5979 87.6449C99.4913 86.0216 98.532 85.0202 96.9028 85.0051C95.2583 84.9899 94.3904 86.0519 94.1315 87.6145Z" fill="#8D9F7E"/>
<path d="M95.8217 96.7022C96.0196 98.0828 96.8571 99.16 98.4711 99.1903C100.085 99.2206 101.06 98.2345 101.227 96.6415C101.379 95.1851 99.9633 93.8045 98.4863 93.8196C97.1007 93.85 95.8217 95.1244 95.8217 96.7022Z" fill="#8D9F7E"/>
<path d="M61.79 42.3432C63.1756 42.1308 64.1806 41.2964 64.2719 39.6579C64.3633 38.1711 62.9168 36.7754 61.4398 36.9422C59.8257 37.1091 58.8969 38.0801 58.8665 39.7186C58.8208 41.1144 60.176 42.3584 61.79 42.3432Z" fill="#8D9F7E"/>
<path d="M160.383 143.066C161.86 143.111 163.063 141.958 163.078 140.472C163.093 139 161.906 137.771 160.429 137.847C158.875 137.923 157.977 138.788 157.84 140.32C157.718 141.791 158.891 143.02 160.383 143.066Z" fill="#8D9F7E"/>
<path d="M190.41 155.779C191.887 155.764 193.059 154.566 193.014 153.094C192.968 151.622 191.735 150.439 190.273 150.56C188.735 150.697 187.867 151.577 187.791 153.124C187.715 154.611 188.918 155.795 190.41 155.779Z" fill="#8D9F7E"/>
<path d="M211.971 158.965C211.895 157.494 210.631 156.386 209.169 156.508C207.692 156.614 206.581 157.903 206.763 159.36C206.961 160.892 207.905 161.711 209.443 161.711C210.936 161.711 212.062 160.437 211.971 158.965Z" fill="#8D9F7E"/>
<path d="M48.4057 32.4667C48.4057 33.9383 49.6086 35.1065 51.0856 35.0762C52.5626 35.0458 53.7503 33.8169 53.6285 32.3453C53.5067 30.813 52.6083 29.9331 51.0552 29.8572C49.5934 29.7662 48.4057 30.9951 48.4057 32.4667Z" fill="#8D9F7E"/>
<path d="M64.4394 59.9117C65.9164 59.9268 67.1041 58.7435 67.0889 57.2718C67.0736 55.8002 65.8707 54.6017 64.3937 54.6927C62.8406 54.7989 61.9727 55.694 61.8661 57.2112C61.7595 58.698 62.9624 59.8965 64.4394 59.9117Z" fill="#8D9F7E"/>
<path d="M76.2858 75.9326C77.7628 75.9023 78.9657 74.6886 78.8439 73.2321C78.7221 71.6998 77.8389 70.8199 76.301 70.7288C74.824 70.6378 73.6211 71.8515 73.6211 73.3231C73.6059 74.7948 74.8088 75.963 76.2858 75.9326Z" fill="#8D9F7E"/>
<path d="M85.3914 89.3441C85.635 90.8309 86.4268 91.7867 87.9494 91.8929C89.3199 91.9991 90.7207 90.573 90.5684 89.2227C90.4009 87.7208 89.4721 86.7498 87.9494 86.7953C86.4268 86.8408 85.6198 87.8573 85.3914 89.3441Z" fill="#8D9F7E"/>
<path d="M168.24 147.056C168.666 149.195 169.473 150.136 171.011 150.212C172.381 150.272 173.737 148.801 173.539 147.466C173.31 145.979 172.321 144.871 170.859 145.175C169.823 145.372 168.955 146.51 168.24 147.056Z" fill="#8D9F7E"/>
<path d="M112.708 112.632C112.662 111.16 111.947 110.25 110.439 110.174C108.962 110.114 108.018 110.857 107.942 112.359C107.851 113.937 108.673 114.877 110.287 114.908C111.779 114.938 112.571 114.089 112.708 112.632Z" fill="#8D9F7E"/>
<path d="M130.889 129.715C132.351 129.67 133.264 128.956 133.325 127.439C133.386 125.968 132.64 125.027 131.132 124.951C129.549 124.86 128.605 125.679 128.574 127.288C128.544 128.805 129.397 129.594 130.889 129.715Z" fill="#8D9F7E"/>
<path d="M120.87 122.539C122.377 122.433 123.23 121.644 123.214 120.157C123.199 118.549 122.27 117.715 120.687 117.775C119.179 117.836 118.403 118.761 118.449 120.233C118.494 121.75 119.393 122.478 120.87 122.539Z" fill="#8D9F7E"/>
<path d="M141.471 136.906C142.948 136.815 143.831 136.072 143.862 134.57C143.877 132.962 142.979 132.097 141.395 132.142C139.888 132.188 139.096 133.068 139.111 134.555C139.111 136.057 139.994 136.815 141.471 136.906Z" fill="#8D9F7E"/>
<path d="M50.2786 41.2964C50.4156 42.8591 51.2226 43.6935 52.7149 43.6631C54.3289 43.6328 55.1359 42.6922 55.0598 41.1144C54.9837 39.5972 54.0244 38.869 52.5474 38.9297C51.0399 38.9752 50.3547 39.9158 50.2786 41.2964Z" fill="#8D9F7E"/>
<path d="M67.363 77.3587C68.84 77.207 69.7383 76.4333 69.6926 74.9313C69.647 73.4445 68.7334 72.6101 67.2411 72.6556C65.8555 72.7011 65.0333 73.5507 65.018 74.9313C65.0028 76.4484 65.9012 77.1918 67.363 77.3587Z" fill="#8D9F7E"/>
<path d="M179.112 154.717C179.279 156.295 180.056 157.19 181.578 157.16C183.086 157.115 183.923 156.204 183.878 154.717C183.832 153.322 182.979 152.502 181.578 152.487C180.025 152.442 179.31 153.382 179.112 154.717Z" fill="#8D9F7E"/>
<path d="M77.8237 84.5499C79.3007 84.4437 80.2295 83.7003 80.2447 82.1984C80.2752 80.8026 79.4682 79.9227 78.0826 79.8316C76.5903 79.7406 75.631 80.5447 75.5549 82.0467C75.4636 83.5335 76.3467 84.3527 77.8237 84.5499Z" fill="#8D9F7E"/>
<path d="M51.5424 50.1413C51.7099 51.6129 52.4865 52.508 53.9939 52.4625C55.5014 52.417 56.3236 51.4916 56.2627 50.0048C56.2018 48.6242 55.3491 47.8049 53.9482 47.7898C52.456 47.7746 51.6947 48.6697 51.5424 50.1413Z" fill="#8D9F7E"/>
<path d="M97.8011 105.38C97.9686 106.852 98.7604 107.747 100.268 107.701C101.775 107.656 102.613 106.73 102.552 105.244C102.491 103.848 101.623 103.029 100.237 103.013C98.7147 103.013 97.9534 103.909 97.8011 105.38Z" fill="#8D9F7E"/>
<path d="M120.123 128.881C120.215 130.337 120.93 131.293 122.453 131.308C123.945 131.338 124.829 130.474 124.844 128.987C124.859 127.606 124.052 126.741 122.666 126.65C121.159 126.575 120.337 127.409 120.123 128.881Z" fill="#8D9F7E"/>
<path d="M66.0687 68.5442C67.637 68.3621 68.5202 67.5732 68.4745 66.0712C68.4288 64.6755 67.5914 63.841 66.1905 63.8107C64.6983 63.7804 63.7847 64.63 63.7695 66.1319C63.7542 67.649 64.6983 68.3621 66.0687 68.5442Z" fill="#8D9F7E"/>
<path d="M191.628 164.382C193.105 164.23 194.003 163.456 193.973 161.954C193.927 160.467 193.014 159.633 191.521 159.678C190.136 159.724 189.314 160.574 189.283 161.969C189.268 163.456 190.166 164.215 191.628 164.382Z" fill="#8D9F7E"/>
<path d="M38.1125 25.2906C38.28 26.7623 39.0717 27.6574 40.5792 27.5967C42.0714 27.5512 42.9089 26.6257 42.848 25.1389C42.7871 23.7583 41.9191 22.9391 40.5335 22.9391C39.0108 22.9239 38.2495 23.8342 38.1125 25.2906Z" fill="#8D9F7E"/>
<path d="M36.8639 16.3547C36.9705 17.8263 37.7013 18.767 39.224 18.7821C40.7315 18.7973 41.5994 17.9174 41.5994 16.4154C41.5994 15.0196 40.7771 14.17 39.3763 14.0942C37.8993 14.0183 37.0771 14.8831 36.8639 16.3547Z" fill="#8D9F7E"/>
<path d="M40.3356 7.14571C39.4372 6.50851 38.6149 5.5072 37.6252 5.30997C36.2091 5.03689 35.2651 6.06854 35.2346 7.54016C35.2041 9.01178 36.0873 10.0738 37.5186 9.87655C38.5083 9.74001 39.3763 8.76904 40.3051 8.16219C40.3203 7.82842 40.3356 7.49465 40.3356 7.14571Z" fill="#8D9F7E"/>
<path d="M200.551 162.728C202.028 162.531 202.911 161.727 202.835 160.225C202.774 158.844 201.921 158.01 200.52 157.994C199.013 157.979 198.13 158.859 198.13 160.346C198.145 161.878 199.089 162.607 200.551 162.728Z" fill="#8D9F7E"/>
<path d="M92.0454 98.1131C91.8475 96.6415 91.0405 95.7767 89.5482 95.8374C88.1626 95.8981 87.3251 96.7477 87.3251 98.1283C87.3099 99.6151 88.1779 100.51 89.6853 100.495C91.1927 100.51 91.9236 99.5847 92.0454 98.1131Z" fill="#8D9F7E"/>
<path d="M162.119 151.258C163.672 151.061 164.525 150.257 164.464 148.755C164.403 147.374 163.55 146.54 162.164 146.525C160.657 146.51 159.774 147.374 159.774 148.876C159.759 150.409 160.733 151.107 162.119 151.258Z" fill="#8D9F7E"/>
<path d="M149.618 141.609C149.724 143.081 150.455 144.022 151.978 144.037C153.485 144.052 154.353 143.172 154.368 141.685C154.384 140.289 153.546 139.425 152.16 139.349C150.638 139.273 149.831 140.138 149.618 141.609Z" fill="#8D9F7E"/>
<path d="M217.498 166.111C217.62 167.689 218.351 168.614 219.874 168.645C221.274 168.675 222.158 167.871 222.249 166.49C222.34 165.004 221.533 164.063 220.026 163.972C218.503 163.866 217.742 164.776 217.498 166.111Z" fill="#8D9F7E"/>
<path d="M213.646 167.37C212.763 166.794 211.925 165.853 210.981 165.747C209.535 165.58 208.651 166.657 208.773 168.144C208.88 169.525 209.839 170.45 211.164 170.162C212.093 169.949 212.854 168.963 213.692 168.326C213.661 168.008 213.646 167.689 213.646 167.37Z" fill="#8D9F7E"/>
<path d="M104.075 113.785C103.222 113.163 102.445 112.162 101.516 111.995C100.085 111.737 99.1411 112.753 99.1563 114.24C99.1715 115.621 100.085 116.607 101.41 116.395C102.354 116.243 103.176 115.302 104.044 114.726C104.059 114.422 104.075 114.104 104.075 113.785Z" fill="#8D9F7E"/>
<path d="M204.784 168.705C203.916 168.099 203.124 167.158 202.18 166.991C200.855 166.748 199.942 167.734 199.896 169.1C199.85 170.572 200.779 171.618 202.211 171.391C203.139 171.239 203.931 170.253 204.784 169.646C204.784 169.312 204.784 169.009 204.784 168.705Z" fill="#8D9F7E"/>
<path d="M91.7104 109.659C92.35 108.824 93.3245 108.066 93.5377 107.14C93.827 105.835 92.8829 104.88 91.5125 104.773C90.0355 104.667 88.9544 105.547 89.1219 106.988C89.2285 107.914 90.1878 108.748 90.7664 109.628C91.0862 109.628 91.3907 109.643 91.7104 109.659Z" fill="#8D9F7E"/>
<path d="M79.9402 93.6376C80.5797 92.8032 81.5695 92.0446 81.7674 91.104C82.0567 89.7992 81.1127 88.8283 79.7422 88.7372C78.2653 88.6462 77.1689 89.511 77.3517 90.9522C77.4735 91.8929 78.4175 92.7273 78.9962 93.6072C79.3159 93.6224 79.6205 93.6376 79.9402 93.6376Z" fill="#8D9F7E"/>
<path d="M180.132 164.169C181 164.761 181.807 165.701 182.751 165.853C184.076 166.081 184.989 165.095 185.004 163.714C185.02 162.242 184.106 161.211 182.675 161.454C181.746 161.62 180.969 162.607 180.117 163.229C180.117 163.547 180.132 163.851 180.132 164.169Z" fill="#8D9F7E"/>
<path d="M41.1882 43.3446C42.0257 43.9666 42.8023 44.9831 43.7311 45.1499C45.1624 45.4079 46.1065 44.3914 46.0912 42.9198C46.076 41.5392 45.1776 40.553 43.8529 40.7654C42.9089 40.9171 42.0866 41.8426 41.2187 42.4343C41.2035 42.7225 41.1882 43.026 41.1882 43.3446Z" fill="#8D9F7E"/>
<path d="M143.527 145.994C144.166 145.159 145.141 144.401 145.354 143.46C145.643 142.14 144.699 141.185 143.329 141.094C141.852 140.987 140.756 141.867 140.938 143.309C141.06 144.249 142.004 145.068 142.583 145.948C142.887 145.964 143.207 145.979 143.527 145.994Z" fill="#8D9F7E"/>
<path d="M42.6653 36.7298C43.2591 35.8651 44.2336 35.061 44.3706 34.1204C44.5838 32.6791 43.5179 31.784 42.0257 31.8447C40.6401 31.9054 39.6808 32.846 39.9397 34.1659C40.1224 35.1065 41.0969 35.8802 41.706 36.7298C42.041 36.7298 42.3455 36.7298 42.6653 36.7298Z" fill="#8D9F7E"/>
<path d="M135.259 135.753C134.406 135.131 133.63 134.13 132.701 133.963C131.269 133.705 130.325 134.722 130.341 136.224C130.356 137.604 131.269 138.59 132.594 138.378C133.538 138.226 134.36 137.286 135.228 136.694C135.244 136.375 135.244 136.072 135.259 135.753Z" fill="#8D9F7E"/>
<path d="M56.08 61.5805C56.689 60.7157 57.6331 59.9268 57.8006 58.9862C58.0442 57.6663 57.0545 56.7408 55.6689 56.7105C54.1766 56.665 53.1412 57.5904 53.3696 59.0166C53.5219 59.942 54.5116 60.7461 55.1359 61.5957C55.4557 61.5957 55.7754 61.5957 56.08 61.5805Z" fill="#8D9F7E"/>
<path d="M29.1896 11.864C29.7987 11.0144 30.758 10.2255 30.9407 9.30004C31.1995 7.98013 30.2251 7.05468 28.8546 6.99399C27.3777 6.93331 26.327 7.84359 26.5402 9.2697C26.6772 10.1951 27.6669 10.9992 28.2608 11.8488C28.5653 11.864 28.8699 11.864 29.1896 11.864Z" fill="#8D9F7E"/>
<path d="M59.9019 67.4215C59.0644 66.7843 58.3031 65.8133 57.3742 65.6009C56.0647 65.3127 55.1055 66.2533 55.0141 67.6187C54.9075 69.0903 55.7907 70.1675 57.2372 69.9854C58.166 69.8792 59.0035 68.9234 59.8867 68.3318C59.8714 68.0435 59.8866 67.7249 59.9019 67.4215Z" fill="#8D9F7E"/>
<path d="M26.9513 2.60947C26.0225 2.39707 25.2611 1.42611 24.4237 0.78891C24.4237 0.530997 24.4389 0.257913 24.4541 3.17055e-08L29.3114 0.0151712C29.3266 0.197227 29.3419 0.394455 29.3267 0.606854C29.2353 1.97228 28.2608 2.9129 26.9513 2.60947Z" fill="#8D9F7E"/>
<path d="M175.305 156.098C174.468 155.461 173.706 154.475 172.762 154.277C171.437 153.989 170.478 154.93 170.387 156.295C170.28 157.782 171.163 158.859 172.61 158.677C173.554 158.556 174.391 157.615 175.259 157.023C175.275 156.72 175.29 156.401 175.305 156.098Z" fill="#8D9F7E"/>
<path d="M155.891 150.151C155.054 149.514 154.292 148.543 153.363 148.33C152.054 148.042 151.095 148.983 150.988 150.348C150.881 151.82 151.765 152.897 153.211 152.73C154.14 152.624 154.977 151.668 155.861 151.091C155.861 150.773 155.876 150.454 155.891 150.151Z" fill="#8D9F7E"/>
<path d="M69.4033 86.4464C70.0429 85.6119 71.0173 84.8534 71.2305 83.9279C71.5198 82.6232 70.5758 81.6674 69.2054 81.5764C67.7284 81.4702 66.6473 82.3501 66.83 83.7914C66.9366 84.7168 67.8959 85.5512 68.4745 86.4312C68.779 86.4312 69.0988 86.4312 69.4033 86.4464Z" fill="#8D9F7E"/>
<path d="M109.343 121.887C110.211 122.478 111.018 123.449 111.962 123.586C113.408 123.798 114.307 122.736 114.246 121.249C114.185 119.869 113.241 118.913 111.916 119.171C110.972 119.353 110.196 120.324 109.328 120.946C109.328 121.265 109.328 121.568 109.343 121.887Z" fill="#8D9F7E"/>
<path d="M163.611 160.877C164.738 159.481 165.956 158.616 165.88 157.919C165.773 157.039 164.585 156.28 163.87 155.461C163.093 156.144 161.753 156.781 161.677 157.524C161.601 158.374 162.652 159.33 163.611 160.877Z" fill="#8D9F7E"/>
<path d="M30.5296 21.2551C31.5041 19.7228 32.5547 18.7821 32.4938 17.9325C32.4329 17.1891 31.1082 16.5368 30.3316 15.8389C29.6007 16.643 28.4131 17.3864 28.2912 18.2663C28.1999 18.9794 29.418 19.8593 30.5296 21.2551Z" fill="#8D9F7E"/>
<path d="M103.465 125.513C104.059 124.709 105.171 123.874 105.11 123.116C105.049 122.327 103.861 121.629 103.176 120.885C102.43 121.583 101.212 122.19 101.09 122.979C100.983 123.722 102.034 124.633 102.567 125.467C102.872 125.497 103.161 125.497 103.465 125.513Z" fill="#8D9F7E"/>
<path d="M221.503 177.611C222.097 176.807 223.223 175.957 223.163 175.214C223.102 174.425 221.914 173.712 221.214 172.969C220.467 173.666 219.234 174.273 219.112 175.062C219.006 175.806 220.056 176.731 220.604 177.565C220.894 177.596 221.198 177.596 221.503 177.611Z" fill="#8D9F7E"/>
<path d="M81.1583 102.316C81.7522 101.512 82.8637 100.662 82.8028 99.9185C82.7419 99.1296 81.5542 98.4317 80.8538 97.6883C80.1077 98.3862 78.8743 99.0082 78.7677 99.782C78.6612 100.525 79.7118 101.451 80.26 102.285C80.5645 102.3 80.869 102.316 81.1583 102.316Z" fill="#8D9F7E"/>
<path d="M116.119 129.852C115.312 129.26 114.474 128.152 113.713 128.213C112.921 128.274 111.657 129.442 111.627 130.155C111.597 130.868 112.784 132.112 113.576 132.234C114.322 132.34 115.251 131.293 116.088 130.747C116.104 130.458 116.104 130.155 116.119 129.852Z" fill="#8D9F7E"/>
<path d="M29.1744 27.0202C30.0119 27.5663 30.9255 28.6132 31.6716 28.507C32.4634 28.4008 33.0876 27.1719 33.7881 26.4437C33.042 25.7458 32.3568 24.5624 31.565 24.5017C30.8189 24.441 29.9662 25.5486 29.1592 26.1251C29.1592 26.4285 29.1744 26.7319 29.1744 27.0202Z" fill="#8D9F7E"/>
<path d="M44.5381 48.9124C43.99 49.7469 42.9393 50.6723 43.0459 51.4157C43.1677 52.2046 44.3859 52.8266 45.132 53.5245C45.8324 52.7811 47.0049 52.0833 47.081 51.2943C47.1419 50.5358 46.0303 49.6862 45.4365 48.8821C45.132 48.8821 44.8427 48.8973 44.5381 48.9124Z" fill="#8D9F7E"/>
<path d="M124.098 139.88C124.691 139.076 125.803 138.241 125.742 137.483C125.681 136.694 124.494 135.996 123.793 135.253C123.047 135.95 121.829 136.557 121.707 137.346C121.6 138.09 122.651 139 123.184 139.85C123.504 139.865 123.808 139.865 124.098 139.88Z" fill="#8D9F7E"/>
<path d="M131.818 145.524C132.655 146.07 133.569 147.117 134.315 147.01C135.107 146.889 135.731 145.675 136.416 144.932C135.67 144.234 134.969 143.066 134.178 143.005C133.432 142.944 132.579 144.037 131.772 144.628C131.787 144.932 131.802 145.22 131.818 145.524Z" fill="#8D9F7E"/>
<path d="M94.8319 115.408C94.0706 114.908 93.294 113.998 92.5479 114.028C91.8779 114.058 90.6902 115.196 90.7512 115.697C90.8577 116.455 91.7866 117.532 92.5022 117.654C93.1722 117.775 94.0401 116.819 94.8167 116.334C94.8167 116.046 94.8167 115.727 94.8319 115.408Z" fill="#8D9F7E"/>
<path d="M192.938 168.569C192.405 169.312 191.4 170.101 191.476 170.769C191.552 171.497 192.572 172.498 193.318 172.65C193.821 172.756 195.054 171.649 195.115 170.981C195.191 170.238 194.338 169.403 193.882 168.614C193.562 168.599 193.257 168.584 192.938 168.569Z" fill="#8D9F7E"/>
<path d="M80.2143 109.173C80.9909 109.643 81.8436 110.599 82.5135 110.478C83.2292 110.356 84.158 109.279 84.2646 108.521C84.3407 108.02 83.1378 106.882 82.4831 106.852C81.7522 106.821 80.9756 107.717 80.2143 108.217C80.2143 108.551 80.2143 108.854 80.2143 109.173Z" fill="#8D9F7E"/>
<path d="M37.1684 43.6025C36.3766 43.1473 35.4935 42.237 34.8387 42.3736C34.1231 42.5253 33.2399 43.6176 33.1638 44.3762C33.1029 44.8769 34.3362 45.9692 34.991 45.9692C35.7219 45.9692 36.468 45.0437 37.2141 44.5279C37.1989 44.2397 37.1836 43.9211 37.1684 43.6025Z" fill="#8D9F7E"/>
<path d="M184.913 174.728C185.385 173.955 186.329 173.105 186.223 172.453C186.101 171.74 185.02 170.814 184.274 170.708C183.771 170.632 182.629 171.831 182.599 172.483C182.568 173.211 183.467 173.985 183.969 174.744C184.289 174.728 184.609 174.728 184.913 174.728Z" fill="#8D9F7E"/>
<path d="M68.4288 93.1369C69.2054 93.6224 70.0429 94.5782 70.7128 94.472C71.4437 94.3506 72.3725 93.2886 72.4944 92.5301C72.5705 92.0294 71.3828 90.8764 70.7281 90.846C69.9819 90.8005 69.2054 91.6956 68.4288 92.1963C68.4288 92.4997 68.4288 92.8183 68.4288 93.1369Z" fill="#8D9F7E"/>
<path d="M31.0473 35.8499C31.8238 36.3202 32.6308 37.2002 33.3617 37.1546C34.0165 37.1091 35.1889 35.9409 35.0976 35.4403C34.9605 34.6817 34.0165 33.6349 33.2856 33.5287C32.6156 33.4377 31.7782 34.4086 31.0168 34.9093C31.032 35.2279 31.0473 35.5465 31.0473 35.8499Z" fill="#8D9F7E"/>
<path d="M174.346 167.568C174.848 166.809 175.808 165.975 175.701 165.307C175.594 164.579 174.544 163.638 173.782 163.517C173.28 163.441 172.107 164.594 172.062 165.262C172.016 166.005 172.914 166.794 173.386 167.568C173.706 167.552 174.026 167.552 174.346 167.568Z" fill="#8D9F7E"/>
<path d="M56.2475 76.7064C57.024 77.1918 57.8767 78.1476 58.5467 78.0263C59.2776 77.9049 60.2064 76.8277 60.313 76.0692C60.3891 75.5685 59.1862 74.4155 58.5315 74.3851C57.7854 74.3548 57.0088 75.2499 56.2475 75.7506C56.2322 76.0692 56.2475 76.3878 56.2475 76.7064Z" fill="#8D9F7E"/>
<path d="M155.419 161.59C155.891 160.816 156.774 160.012 156.728 159.284C156.683 158.632 155.51 157.479 155.008 157.554C154.247 157.691 153.211 158.632 153.105 159.36C152.998 160.027 153.972 160.847 154.475 161.605C154.795 161.605 155.099 161.605 155.419 161.59Z" fill="#8D9F7E"/>
<path d="M144.882 154.429C145.369 153.655 146.313 152.806 146.192 152.138C146.07 151.41 144.989 150.485 144.227 150.394C143.725 150.318 142.583 151.516 142.552 152.184C142.522 152.927 143.436 153.701 143.923 154.46C144.243 154.429 144.562 154.429 144.882 154.429Z" fill="#8D9F7E"/>
<path d="M47.1267 62.4604C47.6444 61.7171 48.5732 60.9585 48.558 60.2151C48.5428 59.5476 47.4312 58.3339 46.9287 58.3945C46.1674 58.4856 45.0711 59.3807 44.9188 60.1089C44.7818 60.7764 45.7258 61.6564 46.1826 62.4301C46.4872 62.4453 46.8069 62.4453 47.1267 62.4604Z" fill="#8D9F7E"/>
<path d="M212.824 179.007C213.28 178.218 214.148 177.399 214.087 176.67C214.027 176.018 212.839 174.88 212.321 174.971C211.56 175.108 210.54 176.094 210.448 176.807C210.372 177.49 211.362 178.294 211.88 179.037C212.184 179.037 212.504 179.022 212.824 179.007Z" fill="#8D9F7E"/>
<path d="M203.474 180.691C204.312 179.401 205.225 178.612 205.134 177.975C205.028 177.292 203.962 176.276 203.337 176.291C202.713 176.306 201.708 177.399 201.647 178.081C201.602 178.734 202.561 179.462 203.474 180.691Z" fill="#8D9F7E"/>
<path d="M117.55 139.076C116.302 138.196 115.54 137.24 114.901 137.316C114.216 137.392 113.15 138.408 113.134 139.03C113.134 139.652 114.17 140.699 114.855 140.79C115.51 140.866 116.271 139.941 117.55 139.076Z" fill="#8D9F7E"/>
<path d="M107.44 131.96C106.206 131.05 105.491 130.094 104.836 130.14C104.151 130.201 103.054 131.187 103.039 131.809C103.024 132.431 104.044 133.508 104.714 133.599C105.354 133.705 106.145 132.795 107.44 131.96Z" fill="#8D9F7E"/>
<path d="M125.483 148.907C126.321 147.632 127.234 146.844 127.143 146.191C127.036 145.508 125.971 144.492 125.346 144.507C124.722 144.522 123.717 145.615 123.656 146.297C123.61 146.95 124.57 147.678 125.483 148.907Z" fill="#8D9F7E"/>
<path d="M24.1953 19.3586C22.9467 18.4787 22.2006 17.5381 21.5458 17.5988C20.8606 17.6746 19.7947 18.6911 19.7947 19.3131C19.7947 19.9352 20.8302 20.982 21.5154 21.0578C22.1549 21.1337 22.9314 20.2082 24.1953 19.3586Z" fill="#8D9F7E"/>
<path d="M168.118 166.703C166.915 165.762 166.215 164.776 165.56 164.822C164.875 164.852 163.748 165.838 163.717 166.46C163.687 167.082 164.677 168.174 165.347 168.296C165.986 168.387 166.809 167.507 168.118 166.703Z" fill="#8D9F7E"/>
<path d="M17.1758 10.5744C18.47 11.4089 19.2618 12.3191 19.9013 12.2281C20.5865 12.1219 21.1195 11.0751 21.7285 10.4379C21.089 9.83104 20.4799 8.81456 19.7947 8.75387C19.14 8.69318 18.4091 9.66415 17.1758 10.5744Z" fill="#8D9F7E"/>
<path d="M72.0071 103.742C72.8446 102.452 73.7582 101.663 73.6668 101.026C73.5602 100.343 72.4944 99.3268 71.8701 99.342C71.2458 99.3572 70.2408 100.45 70.1799 101.132C70.1342 101.785 71.0935 102.513 72.0071 103.742Z" fill="#8D9F7E"/>
<path d="M60.1912 87.7359C61.0591 86.4615 61.9879 85.703 61.9118 85.0506C61.8204 84.3679 60.7698 83.3211 60.1607 83.3362C59.5364 83.3362 58.501 84.4134 58.4401 85.0809C58.3488 85.7333 59.2928 86.4767 60.1912 87.7359Z" fill="#8D9F7E"/>
<path d="M132.838 153.504C134.117 154.338 134.909 155.248 135.548 155.157C136.233 155.066 136.766 154.004 137.36 153.367C136.721 152.775 136.112 151.744 135.426 151.698C134.787 151.638 134.056 152.593 132.838 153.504Z" fill="#8D9F7E"/>
<path d="M48.3448 71.715C49.2432 70.4709 50.1872 69.7275 50.1263 69.0752C50.0654 68.3925 49.03 67.3305 48.4057 67.3153C47.7814 67.3001 46.7308 68.3469 46.6394 69.0296C46.5633 69.6668 47.4921 70.4406 48.3448 71.715Z" fill="#8D9F7E"/>
<path d="M36.7573 55.6789C37.5643 54.3893 38.4627 53.57 38.3561 52.9328C38.2343 52.2501 37.138 51.264 36.5289 51.2943C35.9046 51.3247 34.9301 52.4322 34.8844 53.1149C34.8387 53.7673 35.8285 54.4803 36.7573 55.6789Z" fill="#8D9F7E"/>
<path d="M192.328 179.553C193.531 180.463 194.262 181.434 194.902 181.374C195.572 181.313 196.516 180.342 196.653 179.644C196.744 179.174 195.678 178.021 195.084 177.975C194.384 177.93 193.623 178.764 192.328 179.553Z" fill="#8D9F7E"/>
<path d="M178.168 173.651C176.889 172.832 176.082 171.922 175.457 172.028C174.787 172.149 173.95 173.181 173.843 173.909C173.782 174.38 174.94 175.442 175.549 175.442C176.264 175.411 176.95 174.531 178.168 173.651Z" fill="#8D9F7E"/>
<path d="M96.8571 124.815C95.6542 123.904 94.969 123.009 94.2685 122.979C93.6595 122.964 92.487 124.011 92.5327 124.481C92.6088 125.209 93.4463 126.271 94.101 126.393C94.7406 126.514 95.5628 125.604 96.8571 124.815Z" fill="#8D9F7E"/>
<path d="M84.2037 119.702C85.0259 118.428 85.9395 117.623 85.8177 117.001C85.6959 116.334 84.6605 115.499 83.9296 115.408C83.4576 115.348 82.3917 116.501 82.4069 117.108C82.4221 117.806 83.3053 118.488 84.2037 119.702Z" fill="#8D9F7E"/>
<path d="M64.4851 93.85C63.1604 93.0004 62.399 92.1508 61.6834 92.1963C61.0896 92.2266 60.0998 93.319 60.115 93.9258C60.115 94.5327 61.1505 95.5795 61.7443 95.5947C62.4599 95.6099 63.1908 94.7299 64.4851 93.85Z" fill="#8D9F7E"/>
<path d="M143.42 161.105C144.699 161.924 145.445 162.758 146.146 162.728C146.74 162.698 147.836 161.56 147.745 161.089C147.608 160.376 146.694 159.39 146.024 159.33C145.385 159.254 144.638 160.209 143.42 161.105Z" fill="#8D9F7E"/>
<path d="M49.6086 80.4537C50.4613 79.24 51.3445 78.5269 51.3292 77.8139C51.314 77.2222 50.2634 76.6305 49.6695 76.054C49.0452 76.676 48.0555 77.2374 47.9032 77.9504C47.8119 78.4966 48.7559 79.2703 49.6086 80.4537Z" fill="#8D9F7E"/>
<path d="M23.2664 30.7675C24.0887 29.4931 24.9261 28.7497 24.8957 28.0518C24.8652 27.4601 23.7232 26.3678 23.2512 26.4588C22.5356 26.5954 21.5458 27.5057 21.4849 28.1732C21.4088 28.8104 22.368 29.5538 23.2664 30.7675Z" fill="#8D9F7E"/>
<path d="M103.526 140.714C104.684 141.518 105.399 142.383 105.993 142.307C106.617 142.231 107.15 141.276 107.729 140.699C107.15 140.123 106.617 139.167 105.993 139.106C105.384 139.045 104.684 139.91 103.526 140.714Z" fill="#8D9F7E"/>
<path d="M40.3356 61.9598C39.2088 61.095 38.5388 60.1999 37.945 60.2454C37.3055 60.2909 36.7268 61.2316 36.133 61.7777C36.6812 62.3846 37.1684 63.3707 37.8079 63.4618C38.3865 63.5528 39.1326 62.7184 40.3356 61.9598Z" fill="#8D9F7E"/>
<path d="M21.9417 37.0333C23.1142 37.8222 23.8298 38.6718 24.4389 38.5959C25.0784 38.5201 25.5809 37.5491 26.1595 36.9574C25.5809 36.3961 25.0327 35.4403 24.3932 35.3796C23.7841 35.3341 23.0989 36.214 21.9417 37.0333Z" fill="#8D9F7E"/>
<path d="M216.402 185.318C215.275 184.453 214.605 183.558 213.996 183.589C213.357 183.634 212.778 184.575 212.184 185.121C212.732 185.728 213.219 186.714 213.859 186.805C214.468 186.896 215.214 186.061 216.402 185.318Z" fill="#8D9F7E"/>
<path d="M114.063 147.906C115.22 148.71 115.936 149.574 116.53 149.499C117.154 149.423 117.687 148.467 118.266 147.89C117.687 147.314 117.154 146.358 116.53 146.297C115.906 146.237 115.205 147.101 114.063 147.906Z" fill="#8D9F7E"/>
<path d="M154.094 168.311C155.282 169.07 156.028 169.919 156.622 169.828C157.246 169.737 157.749 168.751 158.297 168.144C157.703 167.598 157.124 166.657 156.485 166.612C155.891 166.566 155.221 167.461 154.094 168.311Z" fill="#8D9F7E"/>
<path d="M71.1087 109.886C72.2659 110.705 72.9664 111.57 73.5602 111.509C74.1998 111.449 75.1895 110.493 75.1895 109.916C75.1895 109.34 74.215 108.369 73.5907 108.293C72.9816 108.232 72.2659 109.097 71.1087 109.886Z" fill="#8D9F7E"/>
<path d="M65.2312 102.695C64.2263 101.997 63.6324 101.284 63.1147 101.329C62.5665 101.375 62.0945 102.164 61.5768 102.634C62.0945 103.165 62.5513 103.969 63.1604 104.106C63.5867 104.212 64.2263 103.423 65.2312 102.695Z" fill="#8D9F7E"/>
<path d="M28.2608 45.863C27.271 45.1348 26.6924 44.4065 26.1747 44.4369C25.6266 44.4824 25.1241 45.2561 24.5912 45.7113C25.0936 46.2575 25.5352 47.0767 26.1443 47.2284C26.5706 47.3346 27.2406 46.5609 28.2608 45.863Z" fill="#8D9F7E"/>
<path d="M137.254 164.412C137.923 163.395 138.685 162.713 138.563 162.288C138.396 161.681 137.558 161.271 137.01 160.771C136.568 161.302 135.792 161.818 135.761 162.364C135.746 162.88 136.507 163.441 137.254 164.412Z" fill="#8D9F7E"/>
<path d="M9.77557 5.46169C10.476 4.46038 11.1917 3.8687 11.146 3.35287C11.1003 2.8067 10.3085 2.32122 9.83649 1.82056C9.30356 2.33639 8.49652 2.79153 8.34425 3.39838C8.2529 3.82318 9.05992 4.47555 9.77557 5.46169Z" fill="#8D9F7E"/>
<path d="M124.813 155.264C125.971 155.886 126.625 156.538 127.219 156.462C127.722 156.401 128.574 155.355 128.452 155.036C128.239 154.444 127.478 153.777 126.869 153.686C126.427 153.625 125.849 154.429 124.813 155.264Z" fill="#8D9F7E"/>
<path d="M188.309 181.389C187.243 180.63 186.618 179.841 186.177 179.932C185.568 180.054 184.852 180.767 184.669 181.374C184.578 181.707 185.492 182.693 185.979 182.724C186.573 182.754 187.197 182.071 188.309 181.389Z" fill="#8D9F7E"/>
<path d="M39.6047 72.8528C40.2747 71.8212 41.036 71.1385 40.9142 70.7137C40.7315 70.1068 39.9092 69.6972 39.3458 69.2117C38.9043 69.7427 38.1429 70.2585 38.1125 70.8199C38.0972 71.3205 38.8586 71.8819 39.6047 72.8528Z" fill="#8D9F7E"/>
<path d="M98.1209 133.478C97.0246 132.764 96.3698 132.021 95.9282 132.127C95.3344 132.279 94.8928 133.083 94.3904 133.614C94.8776 134.084 95.3801 134.919 95.8673 134.919C96.4612 134.934 97.055 134.206 98.1209 133.478Z" fill="#8D9F7E"/>
<path d="M205.088 189.02C205.789 188.019 206.505 187.427 206.459 186.911C206.413 186.365 205.621 185.879 205.149 185.379C204.616 185.895 203.809 186.35 203.657 186.957C203.551 187.381 204.358 188.019 205.088 189.02Z" fill="#8D9F7E"/>
<path d="M166.671 173.211C165.956 174.228 165.164 174.88 165.286 175.305C165.438 175.912 166.26 176.352 166.793 176.868C167.25 176.352 168.027 175.866 168.072 175.305C168.118 174.804 167.387 174.213 166.671 173.211Z" fill="#8D9F7E"/>
<path d="M53.5219 86.7953C52.4713 86.0216 51.8622 85.2326 51.4206 85.3085C50.8115 85.4299 50.0807 86.1277 49.8979 86.7346C49.7914 87.0684 50.6897 88.0697 51.1922 88.1C51.7708 88.1455 52.4104 87.4628 53.5219 86.7953Z" fill="#8D9F7E"/>
<path d="M85.3609 128.092C86.0766 127.09 86.8074 126.514 86.7618 125.998C86.7161 125.452 85.9395 124.966 85.4675 124.451C84.9346 124.966 84.1123 125.406 83.9601 126.013C83.8535 126.438 84.6453 127.09 85.3609 128.092Z" fill="#8D9F7E"/>
<path d="M12.8057 22.9694C13.3691 21.9985 13.9934 21.3916 13.9629 20.8454C13.9324 20.3903 12.9427 19.571 12.6382 19.6772C12.0748 19.8745 11.4353 20.5724 11.3439 21.1489C11.283 21.5585 12.0748 22.0895 12.8057 22.9694Z" fill="#8D9F7E"/>
<path d="M64.7896 113.542C65.3835 112.602 66.0382 112.025 66.023 111.479C66.0078 111.039 65.0637 110.19 64.7592 110.281C64.1958 110.463 63.5258 111.115 63.4193 111.691C63.3431 112.071 64.0892 112.647 64.7896 113.542Z" fill="#8D9F7E"/>
<path d="M75.3113 120.749C75.9204 119.808 76.5751 119.232 76.5599 118.67C76.5446 118.215 75.6006 117.35 75.2961 117.441C74.7175 117.608 74.0475 118.276 73.9257 118.852C73.8495 119.247 74.6109 119.823 75.3113 120.749Z" fill="#8D9F7E"/>
<path d="M29.7378 54.8293C28.8546 54.0859 28.3217 53.3121 27.9106 53.3728C27.332 53.4638 26.6315 54.101 26.4336 54.6624C26.327 54.9658 27.1492 55.9519 27.5908 55.9823C28.1542 56.0126 28.7633 55.3906 29.7378 54.8293Z" fill="#8D9F7E"/>
<path d="M14.1609 31.7992C14.907 30.9344 15.6835 30.3882 15.6226 29.9938C15.5313 29.4173 14.8917 28.7194 14.3436 28.5221C14.039 28.4159 13.0645 29.22 13.0189 29.6752C12.9732 30.2213 13.5975 30.8282 14.1609 31.7992Z" fill="#8D9F7E"/>
<path d="M11.146 14.2914C11.7551 13.1384 12.3641 12.5012 12.3032 11.955C12.2575 11.4999 11.3896 10.802 10.9176 10.8323C10.4608 10.8627 9.68422 11.6668 9.69945 12.1219C9.69945 12.6833 10.3846 13.2294 11.146 14.2914Z" fill="#8D9F7E"/>
<path d="M147.775 171.846C148.384 170.89 149.024 170.314 149.009 169.767C148.993 169.312 148.034 168.463 147.745 168.554C147.181 168.736 146.511 169.403 146.39 169.965C146.313 170.374 147.075 170.936 147.775 171.846Z" fill="#8D9F7E"/>
<path d="M52.989 97.6883C53.6589 96.5657 54.2832 95.974 54.2528 95.4278C54.2223 94.9727 53.3849 94.2444 52.9128 94.2596C52.456 94.2596 51.649 95.0333 51.6338 95.4885C51.6338 96.0195 52.2885 96.596 52.989 97.6883Z" fill="#8D9F7E"/>
<path d="M196.287 190.385C196.866 189.566 197.597 188.974 197.506 188.565C197.369 188.003 196.607 187.594 196.12 187.123C195.678 187.639 194.978 188.125 194.887 188.701C194.826 189.111 195.617 189.627 196.287 190.385Z" fill="#8D9F7E"/>
<path d="M215.58 196.014C216.219 195.104 216.889 194.557 216.904 193.996C216.904 193.556 216.006 192.661 215.701 192.737C215.123 192.889 214.438 193.526 214.301 194.072C214.179 194.482 214.91 195.088 215.58 196.014Z" fill="#8D9F7E"/>
<path d="M157.962 179.158C158.571 178.021 159.165 177.399 159.104 176.852C159.058 176.412 158.19 175.715 157.733 175.745C157.277 175.775 156.515 176.579 156.515 177.019C156.515 177.581 157.2 178.112 157.962 179.158Z" fill="#8D9F7E"/>
<path d="M179.355 182.527C178.229 181.859 177.635 181.237 177.087 181.267C176.63 181.298 175.899 182.132 175.914 182.602C175.914 183.058 176.691 183.862 177.147 183.877C177.696 183.877 178.259 183.224 179.355 182.527Z" fill="#8D9F7E"/>
<path d="M97.588 144.067C98.2579 142.96 98.8822 142.368 98.8518 141.822C98.8213 141.382 97.9991 140.654 97.5271 140.654C97.0703 140.654 96.2632 141.427 96.248 141.867C96.248 142.429 96.8875 142.99 97.588 144.067Z" fill="#8D9F7E"/>
<path d="M107.683 151.531C108.338 150.591 109.054 149.984 108.962 149.59C108.825 149.028 108.064 148.634 107.577 148.163C107.135 148.619 106.343 149.074 106.359 149.529C106.374 150.075 107.044 150.621 107.683 151.531Z" fill="#8D9F7E"/>
<path d="M39.1783 79.6041C40.1224 80.2109 40.701 80.8481 41.2644 80.833C41.7212 80.8178 42.5739 79.862 42.4825 79.5737C42.2998 79.0124 41.6298 78.3449 41.0665 78.2235C40.6706 78.1476 40.0919 78.9062 39.1783 79.6041Z" fill="#8D9F7E"/>
<path d="M13.7193 38.6414C14.6024 39.2483 15.1506 39.9007 15.5922 39.84C16.0642 39.7641 16.6581 39.0511 16.7646 38.5352C16.8255 38.2318 16.0185 37.4429 15.6226 37.4581C15.1049 37.4581 14.5872 38.0497 13.7193 38.6414Z" fill="#8D9F7E"/>
<path d="M187.243 191.569C187.867 190.719 188.491 190.249 188.522 189.748C188.552 189.354 187.791 188.519 187.486 188.565C186.953 188.641 186.207 189.202 186.116 189.657C186.04 190.097 186.679 190.674 187.243 191.569Z" fill="#8D9F7E"/>
<path d="M120.032 156.872C119.195 156.204 118.753 155.582 118.235 155.522C117.839 155.476 116.972 156.204 117.002 156.508C117.063 157.039 117.596 157.812 118.053 157.919C118.494 158.025 119.103 157.403 120.032 156.872Z" fill="#8D9F7E"/>
<path d="M87.0663 136.603C87.6449 135.708 88.2997 135.131 88.2235 134.706C88.1322 134.236 87.4013 133.675 86.8683 133.584C86.5638 133.538 85.8025 134.357 85.8177 134.752C85.8329 135.253 86.442 135.738 87.0663 136.603Z" fill="#8D9F7E"/>
<path d="M30.8341 63.4618C29.9357 62.8853 29.3571 62.2329 28.9155 62.3087C28.4435 62.3998 27.8801 63.128 27.7888 63.659C27.7431 63.9624 28.5653 64.7362 28.9612 64.721C29.4789 64.6906 29.9662 64.0838 30.8341 63.4618Z" fill="#8D9F7E"/>
<path d="M130.143 163.987C129.29 163.35 128.818 162.743 128.3 162.713C127.889 162.682 127.067 163.441 127.113 163.744C127.189 164.275 127.752 165.019 128.209 165.11C128.65 165.186 129.229 164.548 130.143 163.987Z" fill="#8D9F7E"/>
<path d="M168.255 185.91C168.849 185.197 169.488 184.772 169.488 184.332C169.488 183.877 168.864 183.437 168.499 182.997C168.027 183.406 167.341 183.725 167.174 184.226C167.083 184.559 167.737 185.136 168.255 185.91Z" fill="#8D9F7E"/>
<path d="M42.3303 90.0571C42.9241 89.3441 43.5636 88.9193 43.5636 88.4793C43.5636 88.0242 42.9393 87.5842 42.5739 87.1442C42.1019 87.5539 41.4167 87.8725 41.2492 88.3731C41.1578 88.7069 41.8126 89.2834 42.3303 90.0571Z" fill="#8D9F7E"/>
<path d="M137.132 171.087C137.878 171.649 138.426 172.316 138.761 172.24C139.279 172.104 139.644 171.436 140.07 170.996C139.644 170.617 139.233 169.98 138.776 169.949C138.35 169.919 137.878 170.541 137.132 171.087Z" fill="#8D9F7E"/>
<path d="M54.5269 106.078C55.1207 105.365 55.7602 104.94 55.7602 104.5C55.7602 104.045 55.1359 103.605 54.7705 103.165C54.2984 103.575 53.6133 103.893 53.4458 104.394C53.3544 104.728 54.0092 105.304 54.5269 106.078Z" fill="#8D9F7E"/>
<path d="M76.5446 129.275C77.0776 128.517 77.7323 127.94 77.641 127.621C77.4887 127.121 76.8035 126.787 76.3467 126.377C75.9813 126.817 75.357 127.242 75.3417 127.697C75.3265 128.107 75.966 128.547 76.5446 129.275Z" fill="#8D9F7E"/>
<path d="M45.4061 97.127C44.7665 96.7325 44.3554 96.2774 44.0356 96.3381C43.7007 96.3988 43.1982 96.9449 43.2134 97.2635C43.2286 97.567 43.792 98.0676 44.127 98.0828C44.462 98.0828 44.8122 97.5973 45.4061 97.127Z" fill="#8D9F7E"/>
<path d="M66.3884 121.689C66.8148 121.128 67.2868 120.779 67.2716 120.461C67.2564 120.112 66.7691 119.793 66.495 119.474C66.1448 119.808 65.6423 120.081 65.5053 120.476C65.4292 120.703 65.9621 121.128 66.3884 121.689Z" fill="#8D9F7E"/>
<path d="M206.763 197C207.174 196.423 207.692 195.968 207.601 195.741C207.464 195.346 206.946 195.088 206.581 194.755C206.307 195.088 205.835 195.437 205.835 195.771C205.835 196.105 206.322 196.439 206.763 197Z" fill="#8D9F7E"/>
<path d="M148.948 179.568C149.374 179.007 149.846 178.658 149.831 178.339C149.816 177.99 149.328 177.672 149.054 177.353C148.704 177.687 148.201 177.96 148.064 178.354C147.988 178.567 148.521 178.992 148.948 179.568Z" fill="#8D9F7E"/>
<path d="M98.8213 152.108C99.2477 151.486 99.7045 151.091 99.6588 150.773C99.6131 150.439 99.0802 149.923 98.7604 149.923C98.4559 149.923 97.9382 150.469 97.9077 150.803C97.8925 151.122 98.3797 151.501 98.8213 152.108Z" fill="#8D9F7E"/>
<path d="M109.191 159.694C109.678 159.132 110.196 158.799 110.18 158.465C110.18 158.116 109.678 157.782 109.404 157.448C109.069 157.721 108.506 157.964 108.445 158.298C108.384 158.632 108.825 159.056 109.191 159.694Z" fill="#8D9F7E"/>
<path d="M178.807 192.722C179.279 192.13 179.766 191.781 179.751 191.462C179.736 191.114 179.249 190.567 178.929 190.537C178.624 190.522 178.061 191.022 178.015 191.356C177.954 191.675 178.396 192.084 178.807 192.722Z" fill="#8D9F7E"/>
<path d="M0.807037 6.2506C1.26384 5.7196 1.82724 5.32515 1.76633 5.0824C1.65974 4.67278 1.17249 4.36935 0.837494 4.02041C0.532959 4.33901 0.0457153 4.62726 3.05168e-05 4.96103C-0.030426 5.2948 0.411148 5.67409 0.807037 6.2506Z" fill="#8D9F7E"/>
<path d="M2.16222 15.0955C2.57333 14.519 3.07582 14.079 2.99969 13.8514C2.86266 13.4418 2.34494 13.1839 1.99472 12.8653C1.72064 13.1991 1.26385 13.5328 1.24863 13.8818C1.24863 14.2004 1.72064 14.5342 2.16222 15.0955Z" fill="#8D9F7E"/>
<path d="M3.71535 23.9556C4.18738 23.3639 4.67462 23.0149 4.65939 22.6963C4.64417 22.3474 4.15692 21.8012 3.83716 21.7709C3.53262 21.7557 2.96924 22.2564 2.92355 22.5901C2.86264 22.9087 3.31946 23.3184 3.71535 23.9556Z" fill="#8D9F7E"/>
<path d="M18.5005 47.6077C17.9828 47.1374 17.6782 46.6367 17.3585 46.6064C17.0235 46.5912 16.658 47.0464 16.2926 47.2891C16.5819 47.6684 16.8103 48.1994 17.191 48.3511C17.4346 48.4725 17.9066 47.987 18.5005 47.6077Z" fill="#8D9F7E"/>
<path d="M18.8964 57.6663C19.3227 57.0291 19.7947 56.6498 19.7491 56.3161C19.7034 55.9823 19.1705 55.694 18.8507 55.3906C18.5462 55.7092 18.0285 56.0126 17.998 56.3464C17.9675 56.6802 18.4548 57.0443 18.8964 57.6663Z" fill="#8D9F7E"/>
<path d="M29.3419 72.3825C29.9205 72.7921 30.3773 73.308 30.6057 73.2169C31.0016 73.0804 31.2605 72.5646 31.5802 72.2005C31.2452 71.9274 30.895 71.4571 30.56 71.4571C30.2403 71.4722 29.9053 71.9425 29.3419 72.3825Z" fill="#8D9F7E"/>
</g>
</svg>
