<svg width="105" height="94" viewBox="0 0 105 94" fill="none" xmlns="http://www.w3.org/2000/svg">
<g clip-path="url(#clip0_1_26321)">
<path d="M28.9112 48.8065C19.9739 48.8148 11.0366 48.8148 2.0966 48.8371C1.14011 48.8399 0.512503 48.3612 0 47.6264C0 47.2089 0 46.7942 0 46.3768C0.591982 45.4499 1.42514 45.1521 2.5077 45.1577C9.67451 45.1855 16.8386 45.1605 24.0054 45.1549C25.4278 46.1346 26.8502 47.1087 28.2671 48.094C28.533 48.2749 28.9139 48.3667 28.9112 48.8065Z" fill="#E47E25"/>
<path d="M59.8422 16.2541C68.7576 16.2513 77.6729 16.243 86.5855 16.2513C91.3598 16.2569 94.3197 19.2767 94.3252 24.1083C94.3279 27.5066 94.3306 30.9077 94.3306 34.306C94.3306 42.7697 94.3306 51.2335 94.3306 59.6972C94.3279 63.1317 94.3306 66.5689 94.3252 70.0034C94.3169 74.5679 91.4447 77.7101 86.9829 77.7324C75.3653 77.7908 63.7449 77.7407 52.1273 77.7351C52.3959 77.3789 52.648 77.0087 52.933 76.6636C59.1927 69.0961 65.4633 61.5397 71.712 53.9666C73.7291 51.5229 73.3701 49.2796 70.7254 47.5012C66.0279 44.345 61.3222 41.2028 56.6247 38.0494C54.7227 36.7719 54.2129 35.3636 54.8515 33.151C55.8792 29.5968 56.9152 26.0454 57.9621 22.4968C58.5788 20.415 59.0776 18.2914 59.8422 16.2541Z" fill="#4EBFFD"/>
<path d="M59.8422 16.2541C59.0776 18.2942 58.576 20.415 57.9621 22.4996C56.9152 26.0482 55.882 29.5996 54.8515 33.1537C54.2102 35.3664 54.7199 36.7719 56.6247 38.0522C61.3222 41.2056 66.0279 44.3478 70.7254 47.504C73.3701 49.2796 73.7291 51.5257 71.712 53.9693C65.4633 61.5424 59.1927 69.1016 52.933 76.6664C52.648 77.0087 52.3959 77.3789 52.1273 77.7379C50.0718 80.1871 48.0081 82.628 45.9608 85.0828C43.8889 87.5654 41.8526 90.0787 39.7642 92.5474C38.5309 94.0058 37.5771 94.298 36.3027 93.7414C35.053 93.1958 34.2664 91.8905 34.4363 90.2457C34.6885 87.7992 35.5107 85.4669 35.9848 83.065C36.2178 81.8849 36.6864 80.7521 36.6946 79.5247C37.1743 78.3836 37.4319 77.1896 37.5388 75.9567C38.3637 73.5965 38.6981 71.1083 39.3558 68.7064C39.6299 67.5069 39.9067 66.3045 40.1808 65.1049C40.5919 63.3014 41.0057 61.4951 41.4168 59.6916C41.562 58.2193 41.3949 56.8694 40.0026 56.0066C38.1143 54.4842 36.0122 53.2847 34.0225 51.9181C32.7289 51.0303 31.4079 50.1842 30.1171 49.2963C29.7416 49.0375 29.3552 48.8649 28.9084 48.8176C28.9139 48.3779 28.5302 48.286 28.2644 48.1023C26.8475 47.1171 25.4223 46.143 24.0027 45.1633C22.6899 42.7809 22.8214 41.5785 24.5892 39.4688C25.003 38.9762 25.5676 38.606 25.7978 37.9603C26.8118 36.9751 27.867 36.026 28.5247 34.7318C29.2072 34.5314 29.4895 33.8802 29.8923 33.3987C31.1393 31.9069 32.6138 30.6099 33.6278 28.9177C34.9214 27.9269 35.8286 26.5715 36.8974 25.3663C39.0105 22.9449 41.1235 20.5236 43.2366 18.1022C44.3328 16.9638 45.3907 15.7921 46.3472 14.5257C48.2246 12.4189 50.1102 10.3231 51.9738 8.20508C53.9991 5.90616 55.9943 3.5794 58.0279 1.28882C59.2228 -0.0554712 60.3081 -0.308743 61.5469 0.370359C62.8104 1.06059 63.6024 2.70825 63.2078 4.18057C62.3061 7.51763 61.3167 10.8296 60.3739 14.1528C60.1793 14.843 60.0204 15.55 59.8422 16.2541Z" fill="#FFBF0B"/>
<path d="M94.3334 59.6972C94.3334 51.2335 94.3334 42.7697 94.3334 34.306C96.5506 34.3143 98.7677 34.3227 100.985 34.3338C103.547 34.3477 104.995 35.795 104.997 38.375C105.003 44.1251 105.003 49.8752 104.997 55.6254C104.995 58.1998 103.545 59.6554 100.985 59.6694C98.7677 59.6805 96.5506 59.6888 94.3334 59.6972Z" fill="#2980B9"/>
<path d="M40.1835 65.0938C39.9094 66.2934 39.6326 67.4957 39.3586 68.6953C27.7464 68.6869 16.1342 68.6814 4.52208 68.673C4.14661 68.673 3.7684 68.6925 3.39567 68.6535C2.42274 68.5533 1.78965 67.8074 1.81431 66.825C1.83624 65.887 2.46111 65.1996 3.40115 65.1105C3.741 65.0771 4.08358 65.0938 4.42616 65.0938C16.3425 65.0938 28.2644 65.0938 40.1835 65.0938Z" fill="#E47E25"/>
<path d="M36.8974 25.358C35.8286 26.5631 34.9214 27.9213 33.6278 28.9094C24.4001 28.9094 15.175 28.9094 5.94722 28.9066C5.4402 28.9066 4.91674 28.9762 4.45357 28.67C3.79033 28.233 3.46145 27.6235 3.60396 26.8192C3.74374 26.0204 4.24254 25.5361 5.01814 25.3608C5.21547 25.3162 5.4265 25.3329 5.63205 25.3329C15.9177 25.3329 26.2034 25.3329 36.4918 25.3329C36.6261 25.3302 36.7632 25.3469 36.8974 25.358Z" fill="#E47E25"/>
<path d="M46.3472 14.5174C45.3907 15.781 44.3328 16.9555 43.2366 18.0938C37.8156 18.0855 32.3918 18.0799 26.9708 18.066C25.7211 18.0632 24.9975 17.4342 24.9509 16.3599C24.9043 15.2299 25.6443 14.5007 26.9078 14.4923C29.8403 14.4784 32.7728 14.484 35.7053 14.4868C39.2544 14.4951 42.8008 14.509 46.3472 14.5174Z" fill="#E47E25"/>
<path d="M40.0054 55.9983C41.4003 56.8611 41.5648 58.2109 41.4195 59.6833C36.1657 59.6805 30.9119 59.6777 25.658 59.6693C25.2853 59.6693 24.8989 59.6777 24.5426 59.5858C23.6409 59.3548 23.1394 58.7453 23.1668 57.7851C23.1942 56.875 23.6902 56.3017 24.559 56.1068C24.9208 56.0261 25.3017 56.0233 25.6772 56.0233C30.4514 56.0094 35.2284 56.0039 40.0054 55.9983Z" fill="#E47E25"/>
<path d="M37.5415 75.9483C37.4346 77.1813 37.177 78.3753 36.6974 79.5164C32.2219 79.5164 27.7437 79.522 23.2682 79.508C22.2377 79.5053 21.4895 78.893 21.3799 77.9717C21.273 77.07 21.6895 76.4215 22.4953 76.0708C22.7639 75.9539 23.0928 75.9428 23.397 75.94C28.1082 75.9372 32.8248 75.9428 37.5415 75.9483Z" fill="#E47E25"/>
<path d="M14.15 59.6749C13.0565 59.6749 11.963 59.6944 10.8722 59.6693C9.69918 59.6415 8.90439 58.8956 8.88795 57.863C8.87424 56.836 9.65807 56.04 10.8338 56.0233C13.0866 55.9899 15.3422 55.9927 17.5978 56.0206C18.7872 56.0345 19.5683 56.7915 19.5765 57.8269C19.5847 58.9012 18.7735 59.6499 17.5347 59.6721C16.4056 59.6888 15.2792 59.6749 14.15 59.6749Z" fill="#E5822D"/>
<path d="M28.5247 34.7207C27.867 36.0149 26.8118 36.964 25.7978 37.9492C23.8574 37.9631 21.917 37.9882 19.9766 37.9826C18.6118 37.9798 17.8307 37.3035 17.8197 36.1763C17.8088 35.0352 18.5844 34.3394 19.9328 34.331C22.35 34.3171 24.7673 34.331 27.1846 34.3255C27.6724 34.3283 28.1356 34.3895 28.5247 34.7207Z" fill="#E58029"/>
<path d="M16.8879 18.0632C15.9999 18.0632 15.112 18.091 14.2267 18.0576C13.1716 18.0187 12.4892 17.295 12.4837 16.2819C12.4809 15.2689 13.1579 14.523 14.2158 14.5035C16.0219 14.4673 17.8334 14.4645 19.6395 14.5063C20.6782 14.5285 21.3607 15.3162 21.336 16.3237C21.3113 17.2867 20.6426 18.0075 19.6505 18.0521C18.7296 18.0966 17.8088 18.0632 16.8879 18.0632Z" fill="#E47F27"/>
<path d="M13.4265 75.9344C14.2788 75.9344 15.1339 75.9149 15.9862 75.94C17.0167 75.9734 17.7732 76.7165 17.806 77.6739C17.8389 78.6592 17.0551 79.4858 15.9835 79.5025C14.2103 79.5303 12.4344 79.5331 10.6612 79.4997C9.63889 79.4802 8.89343 78.6842 8.89343 77.7212C8.89343 76.761 9.64437 76.004 10.6666 75.9372C10.7351 75.9316 10.8037 75.9344 10.8722 75.9344C11.719 75.9344 12.5741 75.9344 13.4265 75.9344Z" fill="#E47F27"/>
<path d="M10.5981 37.9826C10.0198 37.9798 9.43882 38.0244 8.86328 37.9715C7.80265 37.8768 7.14489 37.1504 7.14763 36.1513C7.15037 35.1521 7.81909 34.3978 8.87424 34.3477C10.0609 34.2893 11.2559 34.2949 12.4453 34.345C13.495 34.3895 14.213 35.1465 14.2322 36.1095C14.2514 37.1282 13.5416 37.8935 12.4371 37.977C11.8232 38.0216 11.2093 37.9826 10.5981 37.9826Z" fill="#E5822C"/>
</g>
<defs>
<clipPath id="clip0_1_26321">
<rect width="105" height="94" fill="white"/>
</clipPath>
</defs>
</svg>
