<svg width="47" height="40" viewBox="0 0 47 40" fill="none" xmlns="http://www.w3.org/2000/svg">
<path d="M2.22229 14.4453H44.4445V35.5564H2.22229V14.4453Z" fill="#CFD8DC"/>
<path d="M2.22229 35.5547H44.4445V39.9991H2.22229V35.5547Z" fill="#B0BEC5"/>
<path d="M26.6667 20H40.0001V40H26.6667V20Z" fill="#455A64"/>
<path d="M6.66675 20H22.2223V32.2222H6.66675V20Z" fill="#E3F2FD"/>
<path d="M7.77771 21.1113H21.111V31.1113H7.77771V21.1113Z" fill="#1E88E5"/>
<path d="M37.2223 30.5547C36.889 30.5547 36.6667 30.7769 36.6667 31.1102V33.3325C36.6667 33.6658 36.889 33.888 37.2223 33.888C37.5556 33.888 37.7779 33.6658 37.7779 33.3325V31.1102C37.7779 30.7769 37.5556 30.5547 37.2223 30.5547Z" fill="#90A4AE"/>
<path d="M23.3333 17.778C25.1743 17.778 26.6667 16.2856 26.6667 14.4447C26.6667 12.6037 25.1743 11.1113 23.3333 11.1113C21.4924 11.1113 20 12.6037 20 14.4447C20 16.2856 21.4924 17.778 23.3333 17.778Z" fill="#558B2F"/>
<path d="M36.6668 17.778C38.5078 17.778 40.0002 16.2856 40.0002 14.4447C40.0002 12.6037 38.5078 11.1113 36.6668 11.1113C34.8259 11.1113 33.3335 12.6037 33.3335 14.4447C33.3335 16.2856 34.8259 17.778 36.6668 17.778Z" fill="#558B2F"/>
<path d="M9.99996 17.778C11.8409 17.778 13.3333 16.2856 13.3333 14.4447C13.3333 12.6037 11.8409 11.1113 9.99996 11.1113C8.15901 11.1113 6.66663 12.6037 6.66663 14.4447C6.66663 16.2856 8.15901 17.778 9.99996 17.778Z" fill="#558B2F"/>
<path d="M41.1112 0H5.5556C4.33337 0 3.33337 1 3.33337 2.22222V5.55556H43.3334V2.22222C43.3334 1 42.3334 0 41.1112 0ZM20 5.55556H26.6667V14.4444H20V5.55556ZM37.7778 5.55556H32.2223L33.3334 14.4444H40L37.7778 5.55556ZM8.88893 5.55556H14.4445L13.3334 14.4444H6.66671L8.88893 5.55556Z" fill="#7CB342"/>
<path d="M30.0001 17.778C31.841 17.778 33.3334 16.2856 33.3334 14.4447C33.3334 12.6037 31.841 11.1113 30.0001 11.1113C28.1591 11.1113 26.6667 12.6037 26.6667 14.4447C26.6667 16.2856 28.1591 17.778 30.0001 17.778Z" fill="#FFA000"/>
<path d="M46.6667 14.4447C46.6667 16.3336 45.2222 17.778 43.3333 17.778C41.4444 17.778 40 16.3336 40 14.4447C40 12.5558 41.4444 11.1113 43.3333 11.1113L46.6667 14.4447Z" fill="#FFA000"/>
<path d="M16.6666 17.778C18.5075 17.778 19.9999 16.2856 19.9999 14.4447C19.9999 12.6037 18.5075 11.1113 16.6666 11.1113C14.8256 11.1113 13.3333 12.6037 13.3333 14.4447C13.3333 16.2856 14.8256 17.778 16.6666 17.778Z" fill="#FFA000"/>
<path d="M0 14.4447C0 16.3336 1.44444 17.778 3.33333 17.778C5.22222 17.778 6.66667 16.3336 6.66667 14.4447C6.66667 12.5558 5.22222 11.1113 3.33333 11.1113L0 14.4447Z" fill="#FFA000"/>
<path d="M32.2222 5.55469H26.6667V14.4436H33.3333L32.2222 5.55469ZM43.3333 5.55469H37.7778L40 14.4436H46.6667L43.3333 5.55469ZM14.4444 5.55469H20V14.4436H13.3333L14.4444 5.55469ZM3.33333 5.55469H8.88889L6.66667 14.4436H0L3.33333 5.55469Z" fill="#FFC107"/>
</svg>
