<svg width="60" height="61" viewBox="0 0 60 61" fill="none" xmlns="http://www.w3.org/2000/svg">
<g clip-path="url(#clip0_154_143)">
<path d="M16.25 47.9358H11.25C10.56 47.9358 10 47.3706 10 46.6743C10 45.978 10.56 45.4128 11.25 45.4128H16.25C16.94 45.4128 17.5 45.978 17.5 46.6743C17.5 47.3706 16.94 47.9358 16.25 47.9358Z" fill="#2E514A"/>
<path d="M56.8754 47.9358H53.7504C53.0604 47.9358 52.5004 47.3707 52.5004 46.6743C52.5004 45.978 53.0604 45.4129 53.7504 45.4129H55.8379L57.5229 36.3505C57.5004 31.7133 53.5754 27.7523 48.7504 27.7523H40.5429L36.5654 45.4129H43.7504C44.4404 45.4129 45.0004 45.978 45.0004 46.6743C45.0004 47.3707 44.4404 47.9358 43.7504 47.9358H35.0004C34.6204 47.9358 34.2604 47.7617 34.0229 47.4615C33.7854 47.1638 33.6954 46.7702 33.7804 46.3968L38.3254 26.2133C38.4554 25.6356 38.9604 25.2294 39.5454 25.2294H48.7504C54.9529 25.2294 60.0004 30.3232 60.0004 36.5826L58.1029 46.9064C57.9929 47.5044 57.4779 47.9358 56.8754 47.9358Z" fill="#2E514A"/>
<path d="M48.75 52.9816C45.305 52.9816 42.5 50.1534 42.5 46.6743C42.5 43.1952 45.305 40.3669 48.75 40.3669C52.195 40.3669 55 43.1952 55 46.6743C55 50.1534 52.195 52.9816 48.75 52.9816ZM48.75 42.8899C46.6825 42.8899 45 44.5878 45 46.6743C45 48.7607 46.6825 50.4587 48.75 50.4587C50.8175 50.4587 52.5 48.7607 52.5 46.6743C52.5 44.5878 50.8175 42.8899 48.75 42.8899Z" fill="#2E514A"/>
<path d="M21.25 52.9816C17.805 52.9816 15 50.1534 15 46.6743C15 43.1952 17.805 40.3669 21.25 40.3669C24.695 40.3669 27.5 43.1952 27.5 46.6743C27.5 50.1534 24.695 52.9816 21.25 52.9816ZM21.25 42.8899C19.1825 42.8899 17.5 44.5878 17.5 46.6743C17.5 48.7607 19.1825 50.4587 21.25 50.4587C23.3175 50.4587 25 48.7607 25 46.6743C25 44.5878 23.3175 42.8899 21.25 42.8899Z" fill="#2E514A"/>
<path d="M16.25 25.229H6.25C5.56 25.229 5 24.6639 5 23.9675C5 23.2712 5.56 22.7061 6.25 22.7061H16.25C16.94 22.7061 17.5 23.2712 17.5 23.9675C17.5 24.6639 16.94 25.229 16.25 25.229Z" fill="#2E514A"/>
<path d="M16.25 32.7982H3.75C3.06 32.7982 2.5 32.2331 2.5 31.5367C2.5 30.8404 3.06 30.2753 3.75 30.2753H16.25C16.94 30.2753 17.5 30.8404 17.5 31.5367C17.5 32.2331 16.94 32.7982 16.25 32.7982Z" fill="#2E514A"/>
<path d="M16.25 40.3667H1.25C0.56 40.3667 0 39.8015 0 39.1052C0 38.4089 0.56 37.8438 1.25 37.8438H16.25C16.94 37.8438 17.5 38.4089 17.5 39.1052C17.5 39.8015 16.94 40.3667 16.25 40.3667Z" fill="#2E514A"/>
<path d="M35 47.9354H26.25C25.56 47.9354 25 47.3703 25 46.6739C25 45.9776 25.56 45.4125 26.25 45.4125H34.0025L39.6825 20.1831H11.25C10.56 20.1831 10 19.618 10 18.9216C10 18.2253 10.56 17.6602 11.25 17.6602H41.25C41.63 17.6602 41.99 17.8342 42.2275 18.1345C42.465 18.4322 42.555 18.8258 42.47 19.1991L36.22 46.9514C36.09 47.5292 35.5825 47.9354 35 47.9354Z" fill="#2E514A"/>
</g>
<defs>
<clipPath id="clip0_154_143">
<rect width="60" height="60.5505" fill="white"/>
</clipPath>
</defs>
</svg>
