<svg width="33" height="53" viewBox="0 0 33 53" fill="none" xmlns="http://www.w3.org/2000/svg">
<g clip-path="url(#clip0_154_179)">
<path d="M30.1478 0C31.0541 0.348593 31.3664 1.02503 31.3525 1.97121C31.3028 5.47236 31.5363 8.98457 31.2683 12.4719C30.7861 18.7479 27.4688 23.0473 21.6853 25.4528C20.6505 25.883 19.5549 26.121 18.4427 26.2579C18.1539 26.2939 18.0406 26.352 18.042 26.6784C18.0572 29.4547 18.0517 32.2324 18.0517 35.0073C18.2092 35.071 18.223 34.9271 18.2741 34.8607C21.1064 31.1977 24.8161 29.0425 29.3948 28.3993C30.0234 28.3107 30.6645 28.2831 31.3 28.272C32.3487 28.2526 33.0354 28.9388 32.9967 29.9804C32.7563 36.3948 29.8369 41.199 24.2814 44.3792C22.4715 45.4153 20.4916 45.9922 18.4192 46.2259C18.1 46.2619 18.0406 46.3712 18.0434 46.6672C18.0586 48.2027 18.0531 49.7368 18.0503 51.2722C18.0475 52.3056 17.3954 53.0138 16.4739 52.9972C15.5731 52.982 14.9527 52.2821 14.9499 51.2695C14.9472 49.8212 14.9223 48.3715 14.9638 46.9231C14.979 46.4058 14.8297 46.2467 14.3255 46.1775C9.96782 45.5855 6.3991 43.5534 3.63586 40.1394C1.24703 37.1888 0.0698939 33.779 -0.00056869 29.9832C-0.0199114 28.9374 0.650174 28.2443 1.69882 28.2734C6.92688 28.4145 11.1947 30.5213 14.5023 34.5785C14.628 34.7321 14.7455 34.8925 14.8698 35.0544C14.9983 34.952 14.9458 34.84 14.9458 34.7473C14.9499 32.0733 14.9444 29.4008 14.9555 26.7269C14.9569 26.4156 14.8892 26.3133 14.5534 26.2552C8.07086 25.1333 3.89422 21.4163 2.0912 15.0697C1.73613 13.8192 1.65738 12.5245 1.65738 11.2283C1.65738 8.20854 1.68224 5.19017 1.64356 2.17179C1.63112 1.21039 1.85218 0.455108 2.75024 0C3.02656 0 3.3015 0 3.57783 0C4.03238 0.204729 4.3916 0.528423 4.73839 0.879783C6.33554 2.49272 7.95066 4.08767 9.5409 5.70614C9.79374 5.96343 9.91394 5.96482 10.1654 5.7089C11.7805 4.06692 13.4205 2.44707 15.0411 0.809234C15.3796 0.467557 15.7292 0.160464 16.1893 0.00138331C16.3965 0.00138331 16.6024 0.00138331 16.8096 0.00138331C17.2697 0.160464 17.6206 0.467557 17.9591 0.809234C19.5811 2.44707 21.2197 4.06692 22.8362 5.7089C23.0877 5.96343 23.2065 5.9662 23.4607 5.70752C25.051 4.08767 26.6675 2.49272 28.2632 0.879783C28.61 0.528423 28.9679 0.204729 29.4224 0.00138331C29.6642 0 29.906 0 30.1478 0ZM4.96774 5.32711C4.89866 5.37553 4.83096 5.42256 4.76188 5.47098C4.76188 6.34799 4.75497 7.22639 4.76326 8.10341C4.77846 9.70666 4.65273 11.3182 4.84754 12.9132C5.70552 19.9307 12.3553 24.5648 19.2316 22.967C24.1902 21.8134 27.9054 17.4172 28.1928 12.3073C28.3171 10.0843 28.2204 7.85718 28.2356 5.63282C28.2356 5.57057 28.2522 5.49173 28.1154 5.43778C28.0159 5.53323 27.8943 5.64251 27.7797 5.7587C26.6592 6.88057 25.5414 8.00519 24.4168 9.12429C23.5547 9.98332 22.7216 9.97917 21.8594 9.11737C20.189 7.44772 18.5145 5.78222 16.8593 4.09735C16.5803 3.81378 16.4324 3.79994 16.145 4.0932C14.5037 5.767 12.8402 7.41867 11.1823 9.07726C10.2649 9.993 9.45662 9.99715 8.55166 9.09109C7.44222 7.98168 6.33278 6.87365 5.23025 5.75732C5.11557 5.64112 5.0534 5.47236 4.96774 5.32711ZM3.38302 31.4827C3.2269 31.4163 3.21446 31.5809 3.25591 31.7856C3.36368 32.3251 3.44381 32.8729 3.59026 33.4013C5.10037 38.8336 9.68321 42.3997 14.5037 43.0914C14.8007 43.1343 14.8532 43.0886 14.8063 42.7953C14.5631 41.2862 14.1196 39.8434 13.379 38.5071C11.2127 34.5951 7.90644 32.285 3.38302 31.4827ZM18.3556 43.1052C18.527 43.0831 18.6983 43.0679 18.8668 43.036C21.4132 42.5546 23.6569 41.4577 25.5608 39.694C27.8087 37.6121 29.1806 35.0461 29.725 32.0291C29.7968 31.6307 29.783 31.4536 29.2704 31.5504C24.7719 32.3984 21.4892 34.8662 19.4029 38.9318C18.777 40.1491 18.4012 41.4549 18.1981 42.8092C18.1816 42.9295 18.0544 43.1426 18.3556 43.1052Z" fill="#2E514A"/>
</g>
<defs>
<clipPath id="clip0_154_179">
<rect width="33" height="53" fill="white"/>
</clipPath>
</defs>
</svg>
