<svg width="110" height="115" viewBox="0 0 110 115" fill="none" xmlns="http://www.w3.org/2000/svg">
<path d="M49.9671 42.9705L54.6676 36.4963L59.3878 42.9705L67.0111 40.5032V74.4335L59.3878 71.9465H59.368L54.6676 78.4404L49.9671 71.9662L42.3438 74.4335V40.5032L49.9671 42.9705Z" fill="#8DC63F"/>
<path d="M67.0111 19.541L54.6676 36.4963L42.3438 19.541V9.23756L54.6676 0L67.0111 9.23756V19.541Z" fill="#8DC63F"/>
<path d="M42.3438 95.3957L54.6676 78.4404L67.0111 95.3957V105.778L54.6676 114.937L42.3438 105.778V95.3957Z" fill="#8DC63F"/>
<path d="M42.3444 19.5408V40.503L22.3774 34.0288L16.334 25.6992L20.8765 10.9744L36.2812 11.2112L42.3444 19.5408Z" fill="#8DC63F"/>
<path d="M74.6349 63.9524L67.0115 66.4197V74.4335L59.3882 71.9465H59.3684L54.6679 78.4404L49.9675 71.9662L47.0446 67.9396L42.3441 61.4851L39.4409 57.4585L34.7207 50.9843L42.3441 48.517V40.5032L49.9675 42.9705L54.6679 36.4963L59.3882 42.9705L62.2914 46.9774L67.0115 53.4714L69.9147 57.4585L74.6349 63.9524Z" fill="#8DC63F"/>
<path d="M93.0616 89.3161L88.4797 103.962L73.1144 103.804L67.0117 95.3955V74.4333L86.959 80.9075L93.0616 89.3161Z" fill="#8DC63F"/>
<path d="M22.3764 34.0292L34.72 50.9844L14.7728 57.4586L4.97691 54.2807L0 39.7138L12.6003 30.8315L22.3764 34.0292Z" fill="#8DC63F"/>
<path d="M109.355 75.223L96.8532 84.1251L86.9586 80.9077L74.6348 63.9524L94.6017 57.4585L104.457 60.6758L109.355 75.223Z" fill="#8DC63F"/>
<path d="M14.7728 57.4585L34.72 63.9327L22.3764 80.9077L12.6003 84.1053L0 75.223L4.97691 60.6561L14.7728 57.4585Z" fill="#8DC63F"/>
<path d="M109.355 39.7135L104.457 54.2607L94.6017 57.4583L74.6348 50.9842L86.9586 34.0289L96.8532 30.8115L109.355 39.7135Z" fill="#8DC63F"/>
<path d="M22.3774 80.9075L42.3444 74.4333V95.3955L36.2812 103.725L20.8765 103.962L16.334 89.2371L22.3774 80.9075Z" fill="#8DC63F"/>
<path d="M69.9147 57.4584L74.6349 63.9524L67.0115 66.4197V74.4334L59.3882 71.9464H59.3684L54.6877 70.4266L47.0446 67.9395L42.3441 66.4197L34.7207 63.9326L39.4409 57.4584L34.7207 50.9843L42.3441 48.517V40.5032L49.9675 42.9705L54.6877 44.5101L62.2914 46.9774L67.0115 48.517L74.6349 50.9843L69.9147 57.4584Z" fill="#2BB573"/>
<path d="M69.9147 57.4584L74.6349 63.9524L67.0115 66.4197L62.2914 67.9593L54.6877 70.4266L49.9675 71.9662L42.3441 74.4334V66.4197L34.7207 63.9326L39.4409 57.4584L34.7207 50.9843L42.3441 48.517L47.0446 46.9971L54.6877 44.5101L59.3882 42.9705L67.0115 40.5032V48.517L74.6349 50.9843L69.9147 57.4584Z" fill="#2BB573"/>
<path d="M74.6349 50.9843L69.9147 57.4585L67.0115 61.4654L62.2914 67.9593L59.3882 71.9465H59.3684L54.6679 78.4404L49.9675 71.9662L42.3441 74.4335V66.4197L34.7207 63.9327L39.4409 57.4585L42.3441 53.4516L47.0446 46.9972L49.9675 42.9705L54.6679 36.4963L59.3882 42.9705L67.0115 40.5032V48.517L74.6349 50.9843Z" fill="#2BB573"/>
<path d="M86.959 34.0288L67.0117 40.503V19.5408L73.1144 11.1323L88.4797 10.9744L93.0616 25.6203L86.959 34.0288Z" fill="#8DC63F"/>
</svg>
