<svg width="371" height="485" viewBox="0 0 371 485" fill="none" xmlns="http://www.w3.org/2000/svg">
<path d="M411.18 386.566C382.471 364.342 321.667 333.48 317.98 278.05C313.371 208.762 338.43 157.48 235.611 112.167C168.523 82.602 90.4827 39.3768 135.783 -24.6455" stroke="#C5E0A0"/>
<path d="M433.011 388.117C404.301 365.893 343.497 335.031 339.81 279.601C335.201 210.313 360.26 159.03 257.441 113.718C190.353 84.1528 112.313 40.9276 157.613 -23.0947" stroke="#C5E0A0"/>
<path d="M454.841 389.668C426.131 367.444 365.327 336.582 361.64 281.151C357.031 211.863 382.09 160.581 279.271 115.269C212.183 85.7036 134.143 42.4784 179.443 -21.5438" stroke="#C5E0A0"/>
<path d="M476.671 391.219C447.961 368.995 387.157 338.133 383.47 282.702C378.861 213.414 403.92 162.132 301.101 116.82C234.013 87.2545 155.973 44.0293 201.273 -19.993" stroke="#C5E0A0"/>
<path d="M498.501 392.769C469.791 370.545 408.987 339.683 405.3 284.253C400.691 214.965 425.75 163.683 322.931 118.37C255.843 88.8049 177.803 45.5797 223.103 -18.4426" stroke="#C5E0A0"/>
<path d="M520.333 394.32C491.623 372.096 430.819 341.234 427.132 285.804C422.523 216.516 447.582 165.233 344.763 119.921C277.675 90.3557 199.635 47.1306 244.935 -16.8917" stroke="#C5E0A0"/>
<path d="M542.163 395.871C513.453 373.647 452.65 342.785 448.962 287.354C444.354 218.066 469.412 166.784 366.593 121.472C299.505 91.9066 221.465 48.6814 266.765 -15.3408" stroke="#C5E0A0"/>
<path d="M563.993 397.422C535.283 375.198 474.48 344.336 470.793 288.905C466.184 219.617 491.242 168.335 388.423 123.023C321.335 93.4575 243.295 50.2323 288.595 -13.79" stroke="#C5E0A0"/>
<path d="M585.823 398.973C557.113 376.749 496.31 345.887 492.623 290.456C488.014 221.168 513.073 169.886 410.253 124.574C343.165 95.0083 265.125 51.7832 310.426 -12.2391" stroke="#C5E0A0"/>
<path d="M607.653 400.523C578.944 378.299 518.14 347.437 514.453 292.007C509.844 222.719 534.903 171.437 432.083 126.125C364.995 96.5592 286.955 53.334 332.256 -10.6882" stroke="#C5E0A0"/>
<path d="M634.86 405.01C606.151 382.786 545.347 351.924 541.66 296.494C537.051 227.206 562.11 175.924 459.29 130.612C392.202 101.046 314.162 57.821 359.463 -6.20127" stroke="#C5E0A0"/>
</svg>
