<svg width="180" height="189" viewBox="0 0 180 189" fill="none" xmlns="http://www.w3.org/2000/svg">
<g opacity="0.6">
<path d="M82.137 70.6364L89.8637 59.9939L97.623 70.6364L110.155 66.5806V122.356L97.623 118.268H97.5905L89.8637 128.943L82.137 118.3L69.6055 122.356V66.5806L82.137 70.6364Z" fill="#8DC63F"/>
<path d="M110.155 32.1221L89.8637 59.9937L69.6055 32.1221V15.185L89.8637 0L110.155 15.185V32.1221Z" fill="#8DC63F"/>
<path d="M69.6055 156.815L89.8637 128.943L110.155 156.815V173.882L89.8637 188.937L69.6055 173.882V156.815Z" fill="#8DC63F"/>
<path d="M69.6064 32.1219V66.5802L36.784 55.9377L26.8496 42.2452L34.3167 18.04L59.6395 18.4294L69.6064 32.1219Z" fill="#8DC63F"/>
<path d="M122.687 105.127L110.155 109.183V122.356L97.6234 118.268H97.5909L89.8641 128.943L82.1374 118.3L77.3326 111.681L69.6059 101.071L64.8335 94.4522L57.0742 83.8097L69.6059 79.7539V66.5806L82.1374 70.6364L89.8641 59.9939L97.6234 70.6364L102.396 77.2231L110.155 87.898L114.927 94.4522L122.687 105.127Z" fill="#8DC63F"/>
<path d="M152.976 146.82L145.444 170.896L120.186 170.636L110.154 156.814V122.356L142.944 132.998L152.976 146.82Z" fill="#8DC63F"/>
<path d="M36.7831 55.9382L57.0739 83.8099L24.284 94.4523L8.18121 89.2284L0 65.2829L20.7128 50.6819L36.7831 55.9382Z" fill="#8DC63F"/>
<path d="M179.759 123.654L159.209 138.288L142.944 132.999L122.686 105.127L155.508 94.4521L171.708 99.7409L179.759 123.654Z" fill="#8DC63F"/>
<path d="M24.284 94.4521L57.0739 105.095L36.7831 132.999L20.7128 138.255L0 123.654L8.18121 99.7085L24.284 94.4521Z" fill="#8DC63F"/>
<path d="M179.759 65.2823L171.708 89.1955L155.508 94.4518L122.686 83.8093L142.944 55.9377L159.209 50.6489L179.759 65.2823Z" fill="#8DC63F"/>
<path d="M36.784 132.998L69.6064 122.356V156.814L59.6395 170.506L34.3167 170.896L26.8496 146.691L36.784 132.998Z" fill="#8DC63F"/>
<path d="M114.927 94.4522L122.687 105.127L110.155 109.183V122.356L97.6234 118.268H97.5909L89.8966 115.77L77.3326 111.681L69.6059 109.183L57.0742 105.095L64.8335 94.4522L57.0742 83.8097L69.6059 79.7539V66.5806L82.1374 70.6364L89.8966 73.1672L102.396 77.223L110.155 79.7539L122.687 83.8097L114.927 94.4522Z" fill="#2BB573"/>
<path d="M114.927 94.4522L122.687 105.127L110.155 109.183L102.396 111.714L89.8966 115.77L82.1374 118.3L69.6059 122.356V109.183L57.0742 105.095L64.8335 94.4522L57.0742 83.8097L69.6059 79.7539L77.3326 77.2555L89.8966 73.1672L97.6234 70.6364L110.155 66.5806V79.7539L122.687 83.8097L114.927 94.4522Z" fill="#2BB573"/>
<path d="M122.687 83.8097L114.927 94.4522L110.155 101.039L102.396 111.714L97.6234 118.268H97.5909L89.8641 128.943L82.1374 118.3L69.6059 122.356V109.183L57.0742 105.095L64.8335 94.4522L69.6059 87.8655L77.3326 77.2555L82.1374 70.6364L89.8641 59.9939L97.6234 70.6364L110.155 66.5806V79.7539L122.687 83.8097Z" fill="#2BB573"/>
<path d="M142.944 55.9377L110.154 66.5802V32.1219L120.186 18.2996L145.444 18.04L152.976 42.1154L142.944 55.9377Z" fill="#8DC63F"/>
</g>
</svg>
