<svg width="116" height="116" viewBox="0 0 116 116" fill="none" xmlns="http://www.w3.org/2000/svg">
<circle opacity="0.2" cx="58" cy="58" r="58" fill="#8DC63F"/>
<g clip-path="url(#clip0_1_23041)">
<path d="M25.9707 43.9466C26.2638 43.6416 26.3757 43.221 26.7007 42.9291C27.5853 42.1273 28.6671 42.3902 29.6955 42.3534C29.8554 42.3481 29.8794 42.4822 29.8794 42.611C29.8767 42.774 29.8794 42.9344 29.8794 43.0974C29.8794 52.0177 29.8847 60.9407 29.8767 69.861C29.8767 71.3228 30.1964 72.6662 31.1529 73.823C32.2667 75.1717 33.7054 75.8921 35.4639 75.9604C37.5581 76.0419 39.6497 76.1523 41.7119 76.5546C45.2769 77.2513 48.61 78.4712 51.4902 80.7295C51.818 80.9871 52.1244 81.2685 52.3748 81.6444C51.4876 81.4788 50.6057 81.2947 49.7158 81.1528C45.9243 80.5455 42.1116 80.4903 38.2882 80.7689C35.1309 80.9977 32.0135 81.4814 28.9202 82.1466C27.5454 82.441 26.8899 82.0572 25.976 80.5875C25.9707 68.373 25.9707 56.1611 25.9707 43.9466Z" fill="#8DC63F"/>
<path d="M55.7613 79.8698C54.168 78.2713 52.4574 76.9884 50.5524 75.963C47.5469 74.3436 44.3204 73.3997 40.9419 72.9239C39.2927 72.6899 37.6354 72.5637 35.9675 72.54C34.2356 72.5164 33.3777 71.633 33.3777 69.9189C33.3777 59.0241 33.3777 48.1294 33.3777 37.2373C33.3777 35.4364 34.3262 34.5872 36.1487 34.6398C39.306 34.7318 42.4047 35.1288 45.4048 36.1489C49.5293 37.5501 52.9264 39.9005 55.335 43.5443C55.6494 44.0202 55.8066 44.5329 55.8066 45.0902C55.8092 56.5923 55.8092 68.097 55.8066 79.599C55.8092 79.6516 55.7906 79.7068 55.7613 79.8698Z" fill="#8DC63F"/>
<path d="M59.2996 79.8777C59.2996 79.5307 59.2996 79.3125 59.2996 79.0942C59.2996 68.118 59.3289 57.1444 59.2649 46.1681C59.2543 44.5565 59.8138 43.3288 60.7863 42.1457C63.909 38.3441 68.0574 36.3224 72.8027 35.3049C74.9396 34.8475 77.1084 34.6845 79.2878 34.6266C80.7799 34.5872 81.7311 35.5652 81.7311 37.1295C81.7338 46.644 81.7311 56.1585 81.7311 65.673C81.7311 67.1137 81.7338 68.5544 81.7311 69.9951C81.7284 71.6173 80.8465 72.5138 79.1866 72.5374C76.1332 72.5821 73.1278 72.9397 70.1783 73.7415C66.1684 74.8326 62.5928 76.6782 59.6246 79.5964C59.5527 79.6674 59.4754 79.7278 59.2996 79.8777Z" fill="#8DC63F"/>
<path d="M62.7153 81.605C63.5972 80.648 64.6523 79.9276 65.7634 79.2862C68.5637 77.6667 71.6224 76.7991 74.8117 76.3285C76.3996 76.0945 78.0036 76.0524 79.6022 75.9683C82.2933 75.829 84.2996 74.2515 85.0403 71.7171C85.2241 71.0862 85.2294 70.4342 85.2321 69.7848C85.2348 60.8802 85.2401 51.9757 85.2188 43.0711C85.2188 42.5111 85.3227 42.3586 85.9355 42.3218C88.3921 42.1772 89.1754 43.3288 89.1647 45.4925C89.1088 56.892 89.1408 68.2915 89.1381 79.6884C89.1381 81.5524 87.9151 82.5173 86.0687 82.1255C85.6664 82.0414 85.2667 81.952 84.8644 81.8731C79.152 80.7216 73.3942 80.2931 67.5832 80.8531C65.9552 81.0108 64.3379 81.2763 62.7153 81.605Z" fill="#8DC63F"/>
</g>
<defs>
<clipPath id="clip0_1_23041">
<rect width="63.194" height="47.6119" fill="white" transform="translate(25.9707 34.6268)"/>
</clipPath>
</defs>
</svg>
