<svg width="23" height="21" viewBox="0 0 23 21" fill="none" xmlns="http://www.w3.org/2000/svg">
<g clip-path="url(#clip0_1_23123)">
<path d="M9.1394 18.0309C9.04337 17.8751 8.94802 17.7193 8.8506 17.5649C7.19378 14.927 5.33175 12.4253 3.487 9.91286C3.24103 9.57832 2.99368 9.24445 2.74011 8.91598C2.6655 8.81953 2.65928 8.75882 2.75462 8.66844C3.23688 8.21182 3.71846 7.75452 4.18552 7.28306C4.32439 7.14276 4.40385 7.22573 4.50887 7.29722C5.96878 8.29343 7.43145 9.28627 8.88653 10.2892C9.05718 10.4066 9.13319 10.4005 9.26446 10.2366C11.4816 7.45572 13.9178 4.87516 16.6566 2.57382C17.7013 1.69565 18.7798 0.861313 19.9364 0.125453C20.0725 0.0391195 20.2072 -0.000674947 20.3696 0.000674017C21.1704 0.00674436 21.9718 0.00337194 22.7726 0.00337194C22.8479 0.00337194 22.9225 0.00337194 22.9875 0.00337194C23.0241 0.0795884 22.9744 0.100497 22.9467 0.124104C20.456 2.25075 18.3659 4.72744 16.3927 7.30329C13.8086 10.6771 11.4595 14.2039 9.28795 17.8434C9.25064 17.9055 9.23475 17.9857 9.1394 18.0309Z" fill="#8DC63F"/>
<path d="M1.98946 3.16062C2.22023 3.16196 2.39434 3.338 2.38812 3.56463C2.3819 3.78856 2.19259 3.9646 1.96873 3.95583C1.76491 3.94774 1.57422 3.75551 1.57422 3.55789C1.57491 3.33868 1.76215 3.15994 1.98946 3.16062Z" fill="#8DC63F"/>
<path d="M10.3333 3.568C10.3264 3.77709 10.1129 3.96864 9.90288 3.95515C9.67557 3.94032 9.50837 3.75483 9.52011 3.52956C9.53117 3.31844 9.70943 3.15859 9.93052 3.16129C10.1565 3.16399 10.3402 3.34947 10.3333 3.568Z" fill="#8DC63F"/>
<path d="M3.56308 3.95583C3.34544 3.94908 3.15474 3.75011 3.16442 3.539C3.17409 3.31844 3.36685 3.14915 3.59417 3.16061C3.80904 3.17141 3.98454 3.35149 3.98108 3.55654C3.97832 3.76967 3.77588 3.96257 3.56308 3.95583Z" fill="#8DC63F"/>
<path d="M4.75989 3.54237C4.76542 3.31777 4.9499 3.1505 5.17997 3.16129C5.39623 3.17141 5.57103 3.34812 5.56965 3.55451C5.56827 3.7663 5.36583 3.9619 5.15441 3.95583C4.92779 3.94976 4.75437 3.76765 4.75989 3.54237Z" fill="#8DC63F"/>
<path d="M8.31363 3.95583C8.09945 3.94234 7.91083 3.73325 7.92672 3.52618C7.9433 3.30832 8.14436 3.14375 8.37098 3.16196C8.58655 3.1795 8.75098 3.36026 8.74269 3.5707C8.73509 3.78451 8.52851 3.96932 8.31363 3.95583Z" fill="#8DC63F"/>
<path d="M13.5016 3.55453C13.503 3.77576 13.3172 3.95787 13.0926 3.95584C12.8895 3.95382 12.6946 3.76699 12.6877 3.56869C12.6801 3.35016 12.8639 3.16468 13.0898 3.1613C13.3199 3.15793 13.5009 3.3306 13.5016 3.55453Z" fill="#8DC63F"/>
<path d="M17.8555 14.8049C17.6413 14.8035 17.4458 14.6039 17.4513 14.3928C17.4568 14.185 17.6351 14.0157 17.8527 14.011C18.0835 14.0063 18.2617 14.1769 18.2617 14.4036C18.2617 14.6282 18.0821 14.8062 17.8555 14.8049Z" fill="#8DC63F"/>
<path d="M2.38743 20.6122C2.38259 20.8354 2.19812 21.0061 1.96942 20.9987C1.76146 20.9919 1.57422 20.8071 1.57422 20.6075C1.57422 20.3869 1.75593 20.2129 1.9867 20.2129C2.21885 20.2142 2.39227 20.3869 2.38743 20.6122Z" fill="#8DC63F"/>
<path d="M7.14823 3.5471C7.15099 3.77237 6.9755 3.95246 6.74957 3.95583C6.53745 3.9592 6.33847 3.76226 6.33985 3.55047C6.34054 3.34677 6.52087 3.16871 6.73367 3.16062C6.96306 3.15252 7.14546 3.32182 7.14823 3.5471Z" fill="#8DC63F"/>
<path d="M18.261 19.0521C18.261 19.276 18.0772 19.4588 17.8561 19.4541C17.6392 19.45 17.4471 19.2544 17.4512 19.0427C17.4554 18.841 17.6433 18.6602 17.852 18.6568C18.08 18.6535 18.261 18.8288 18.261 19.0521Z" fill="#8DC63F"/>
<path d="M17.8671 11.6955C17.6357 11.6975 17.4498 11.5229 17.4512 11.3043C17.4526 11.0905 17.6488 10.901 17.8664 10.903C18.0785 10.905 18.2547 11.0784 18.2616 11.2908C18.2692 11.5168 18.0972 11.6935 17.8671 11.6955Z" fill="#8DC63F"/>
<path d="M10.3337 20.6041C10.3364 20.8125 10.134 21.0047 9.91705 21C9.70148 20.9959 9.52668 20.8266 9.51977 20.6162C9.51217 20.3916 9.68559 20.2162 9.91705 20.2142C10.1478 20.2122 10.3309 20.3835 10.3337 20.6041Z" fill="#8DC63F"/>
<path d="M18.2611 17.5021C18.2625 17.7261 18.0835 17.9001 17.8548 17.8987C17.6455 17.8974 17.4576 17.72 17.4514 17.517C17.4444 17.3058 17.6393 17.1055 17.8528 17.1028C18.078 17.1008 18.2597 17.2775 18.2611 17.5021Z" fill="#8DC63F"/>
<path d="M8.74292 20.6007C8.74638 20.8139 8.55361 21.0014 8.33183 21C8.12317 20.9987 7.93662 20.8233 7.92626 20.6189C7.9152 20.4038 8.0983 20.2183 8.32561 20.2142C8.55637 20.2095 8.73947 20.3795 8.74292 20.6007Z" fill="#8DC63F"/>
<path d="M15.0968 20.6041C15.0961 20.8165 14.8978 21.0047 14.6795 21C14.4674 20.9953 14.2843 20.8199 14.2794 20.6155C14.2739 20.3936 14.4515 20.2169 14.6808 20.2142C14.9116 20.2115 15.0982 20.3862 15.0968 20.6041Z" fill="#8DC63F"/>
<path d="M18.2611 8.20643C18.259 8.43036 18.0732 8.61112 17.8521 8.60437C17.6351 8.5983 17.4444 8.40068 17.4514 8.18889C17.4576 7.99059 17.6517 7.80713 17.8569 7.80646C18.0835 7.80578 18.2632 7.98385 18.2611 8.20643Z" fill="#8DC63F"/>
<path d="M18.2612 12.8482C18.2654 13.0708 18.0864 13.2509 17.8605 13.2522C17.656 13.2536 17.4598 13.0715 17.4515 12.8732C17.4425 12.6614 17.6304 12.4631 17.8488 12.455C18.0705 12.4462 18.2571 12.6243 18.2612 12.8482Z" fill="#8DC63F"/>
<path d="M18.2607 9.7611C18.2573 9.98368 18.0693 10.1624 17.8475 10.153C17.6264 10.1442 17.4406 9.94928 17.4516 9.73682C17.462 9.52638 17.6389 9.36518 17.8593 9.36383C18.0914 9.36316 18.2649 9.53448 18.2607 9.7611Z" fill="#8DC63F"/>
<path d="M0.795279 3.55047C0.797352 3.77305 0.617022 3.95718 0.396619 3.95651C0.176216 3.95651 -0.00273209 3.7717 3.15868e-05 3.54845C0.00348618 3.33126 0.167234 3.16669 0.385564 3.16062C0.616331 3.15455 0.793207 3.32317 0.795279 3.55047Z" fill="#8DC63F"/>
<path d="M11.9079 3.5471C11.912 3.77102 11.7344 3.95516 11.5133 3.95718C11.2929 3.9592 11.1112 3.77642 11.1133 3.55317C11.1147 3.33463 11.2764 3.16871 11.4947 3.16129C11.7248 3.1532 11.9037 3.32047 11.9079 3.5471Z" fill="#8DC63F"/>
<path d="M0.794908 6.66051C0.791453 6.88781 0.613196 7.05575 0.383811 7.04833C0.155808 7.04159 -0.00863111 6.86352 0.000350832 6.63285C0.00864186 6.42241 0.186899 6.25177 0.39832 6.25244C0.619414 6.25312 0.797671 6.43725 0.794908 6.66051Z" fill="#8DC63F"/>
<path d="M0.80309 8.20237C0.805163 8.41618 0.611706 8.60706 0.394757 8.60571C0.182645 8.60436 0.00715156 8.43237 0.000242374 8.22058C-0.00735773 7.99463 0.164681 7.81184 0.38923 7.80712C0.608251 7.80173 0.801017 7.98519 0.80309 8.20237Z" fill="#8DC63F"/>
<path d="M3.98352 20.6014C3.98421 20.8139 3.78868 21.0027 3.56966 21C3.34926 20.9973 3.15995 20.8064 3.16616 20.5926C3.17238 20.3842 3.34788 20.2176 3.56621 20.2142C3.7949 20.2102 3.98283 20.3842 3.98352 20.6014Z" fill="#8DC63F"/>
<path d="M5.16603 20.2142C5.39542 20.2169 5.57713 20.3984 5.56884 20.6155C5.56124 20.8233 5.37953 20.9973 5.1688 20.9993C4.93872 21.0013 4.76046 20.83 4.75977 20.6054C4.75839 20.3795 4.93319 20.2108 5.16603 20.2142Z" fill="#8DC63F"/>
<path d="M0.404878 13.2522C0.182403 13.2569 0 13.0775 0 12.8543C0 12.6405 0.16513 12.4658 0.378624 12.455C0.595572 12.4435 0.79663 12.6256 0.803539 12.8408C0.810448 13.0559 0.625282 13.2475 0.404878 13.2522Z" fill="#8DC63F"/>
<path d="M0.386474 17.8981C0.159161 17.892 -0.0073501 17.7139 0.000250004 17.4846C0.00715919 17.2735 0.184034 17.1022 0.395456 17.1015C0.61655 17.1002 0.796189 17.2829 0.794116 17.5069C0.792734 17.7335 0.614477 17.9041 0.386474 17.8981Z" fill="#8DC63F"/>
<path d="M13.5019 20.596C13.5053 20.8145 13.3216 20.998 13.0984 20.9993C12.8911 21.0007 12.6984 20.824 12.688 20.6236C12.6769 20.4051 12.8545 20.2216 13.0832 20.2142C13.316 20.2068 13.4984 20.3727 13.5019 20.596Z" fill="#8DC63F"/>
<path d="M16.6817 20.6095C16.6776 20.8267 16.4827 21.0068 16.2623 20.9987C16.0309 20.9899 15.8651 20.8145 15.8733 20.5865C15.8809 20.3714 16.0502 20.2136 16.2727 20.2142C16.5021 20.2142 16.6859 20.3923 16.6817 20.6095Z" fill="#8DC63F"/>
<path d="M17.861 20.2142C18.0938 20.2136 18.2658 20.3842 18.2617 20.6115C18.2575 20.8354 18.0758 21.0054 17.8464 20.9993C17.6357 20.9939 17.4561 20.8172 17.4512 20.6102C17.4471 20.3936 17.633 20.2142 17.861 20.2142Z" fill="#8DC63F"/>
<path d="M18.2617 15.9583C18.2596 16.1835 18.0821 16.3481 17.8485 16.342C17.6288 16.3366 17.4554 16.17 17.4513 15.961C17.4464 15.7431 17.6288 15.5664 17.8582 15.5657C18.0973 15.5657 18.2645 15.7276 18.2617 15.9583Z" fill="#8DC63F"/>
<path d="M0.793963 19.0514C0.795345 19.2747 0.613633 19.4574 0.39323 19.4547C0.172136 19.4527 -0.00473956 19.2679 9.68713e-05 19.044C0.00424238 18.8302 0.172136 18.6636 0.388393 18.6568C0.61156 18.6501 0.793272 18.8261 0.793963 19.0514Z" fill="#8DC63F"/>
<path d="M0.795248 14.3935C0.800084 14.6187 0.626663 14.8008 0.402806 14.8042C0.18033 14.8076 0 14.6282 0 14.4029C0 14.185 0.160984 14.0191 0.380005 14.011C0.614918 14.0023 0.790411 14.1635 0.795248 14.3935Z" fill="#8DC63F"/>
<path d="M0.395256 10.903C0.618423 10.9016 0.795989 11.0811 0.795298 11.307C0.794607 11.5377 0.62395 11.6996 0.388347 11.6948C0.168634 11.6901 0.00350473 11.5269 5.0137e-05 11.3117C-0.00340446 11.0858 0.172089 10.9043 0.395256 10.903Z" fill="#8DC63F"/>
<path d="M6.75661 20.2142C6.98806 20.2183 7.15526 20.3916 7.14697 20.6196C7.13937 20.8388 6.9777 20.9899 6.7497 20.9912C6.51962 20.9926 6.33584 20.8186 6.33791 20.6007C6.33929 20.3822 6.52584 20.2102 6.75661 20.2142Z" fill="#8DC63F"/>
<path d="M0.794267 9.76381C0.788739 9.98976 0.605646 10.1631 0.382479 10.153C0.157239 10.1429 -0.00927211 9.96008 0.000400758 9.73346C0.0093827 9.51897 0.179349 9.36249 0.400443 9.36384C0.636046 9.36586 0.799794 9.53178 0.794267 9.76381Z" fill="#8DC63F"/>
<path d="M0.396723 4.71597C0.635781 4.71597 0.80091 4.8819 0.794692 5.11662C0.789165 5.33919 0.626799 5.49298 0.398104 5.49298C0.159047 5.49298 -0.00539212 5.32705 0.000135226 5.09233C0.00566258 4.86975 0.167338 4.71665 0.396723 4.71597Z" fill="#8DC63F"/>
<path d="M0.385523 20.9906C0.147156 20.9845 -0.0117551 20.8145 0.000681446 20.5784C0.0117361 20.3579 0.179629 20.2088 0.409014 20.2142C0.646 20.2196 0.806293 20.3916 0.793856 20.6263C0.782111 20.8482 0.61629 20.9959 0.385523 20.9906Z" fill="#8DC63F"/>
<path d="M11.9086 20.6088C11.9051 20.8422 11.7331 20.9987 11.4913 20.9892C11.264 20.9804 11.1099 20.8192 11.1133 20.5953C11.1168 20.3626 11.2902 20.2048 11.5307 20.2142C11.7566 20.223 11.912 20.3856 11.9086 20.6088Z" fill="#8DC63F"/>
<path d="M0.395999 15.565C0.626075 15.5644 0.788441 15.7168 0.794659 15.9394C0.801569 16.1748 0.637821 16.3414 0.399454 16.3427C0.161778 16.3434 -0.00473376 16.1768 0.000102668 15.9427C0.00563002 15.7202 0.167305 15.5664 0.395999 15.565Z" fill="#8DC63F"/>
</g>
<defs>
<clipPath id="clip0_1_23123">
<rect width="23" height="21" fill="white"/>
</clipPath>
</defs>
</svg>
