<svg width="252" height="93" viewBox="0 0 252 93" fill="none" xmlns="http://www.w3.org/2000/svg">
<g filter="url(#filter0_d_1_22496)">
<g clip-path="url(#clip0_1_22496)">
<path d="M32.0217 8.64624C32.7529 11.4055 35.2055 12.8761 36.8583 14.9379C37.7875 16.0977 38.2445 17.1741 38.2141 18.6447C38.1303 22.5485 38.1379 26.4524 38.2141 30.3487C38.2369 31.6601 38.0617 32.7516 36.9192 33.5476C35.6168 34.4572 35.8072 35.382 36.9802 36.231C38.4426 37.2923 38.534 38.3004 36.9725 39.3541C35.7234 40.1955 35.7234 41.0976 36.9421 41.9921C38.1684 42.9017 38.4654 44.1145 38.4273 45.6079C38.3359 49.4283 38.3816 53.2564 38.4121 57.0845C38.4197 57.6378 38.0465 58.4186 38.8082 58.6991C39.3642 58.9037 39.7755 58.3125 40.1411 57.9562C44.3454 53.878 48.6031 49.8225 48.6945 43.3565C48.6945 43.2731 48.9002 43.1897 49.0677 43.0533C49.2201 43.1594 49.5247 43.2655 49.5324 43.3944C49.9284 49.9362 54.0109 54.2873 58.6037 58.2442C60.6907 60.0332 63.0671 61.4886 65.3368 63.0653C70.8741 66.9313 75.4669 71.5098 77.0664 78.37C77.3483 79.5753 77.5311 80.7957 77.4244 82.0085C77.3026 83.4867 77.9347 83.8051 79.2905 83.7899C83.9823 83.7217 88.6742 83.7672 93.366 83.7747C93.6402 83.7747 93.9068 83.843 94.4704 83.9264C92.5967 84.5328 6.54415 84.6465 4.00781 83.7672C6.08715 83.7672 8.16649 83.7672 10.2458 83.7672C13.2468 83.7672 16.2477 83.7293 19.2411 83.7823C20.414 83.8051 20.8786 83.4412 20.8558 82.2208C20.7872 78.4382 21.9907 74.9967 24.0395 71.8509C24.6336 70.9413 24.6946 70.0241 24.6946 69.0235C24.6793 61.2309 24.7174 53.4232 24.6565 45.623C24.6412 44.1297 24.9231 42.9244 26.1569 42.0299C27.3832 41.1431 27.4137 40.241 26.1493 39.3768C24.6717 38.3611 24.5498 37.3529 26.096 36.2841C27.4746 35.3365 27.368 34.389 26.0655 33.4566C25.0297 32.7137 24.7936 31.698 24.8088 30.4548C24.8774 26.5509 24.9078 22.6471 24.8012 18.7508C24.7555 17.1589 25.243 15.984 26.355 14.8848C27.9392 13.3233 29.4092 11.6556 30.9326 10.0334C31.7323 9.91215 31.3819 8.88881 32.0217 8.64624ZM56.8976 61.0186C56.8291 61.4128 56.9433 61.6175 57.3851 61.4886L57.3546 61.481C57.347 61.6933 57.248 61.9889 57.3546 62.1102C62.2826 68.0759 64.6742 74.9285 64.6818 82.6226C64.6818 83.5094 65.1617 83.8506 65.9919 83.8127C68.5891 83.6914 71.2016 84.131 73.7761 83.5398C75.4898 84.3281 75.9316 83.5246 75.8935 81.9327C75.7107 75.3 72.1842 70.5319 67.2258 66.6053C66.883 66.3324 66.4946 64.9907 65.5196 65.9686C64.6437 65.2864 64.0192 64.21 62.732 64.1417L62.7548 64.0508C63.0595 62.7697 61.7951 62.9289 61.2543 62.4286C58.7256 60.3592 56.1969 58.2821 53.6682 56.2127C53.5539 56.3643 53.4397 56.5159 53.3178 56.66C54.1709 57.8198 55.0239 58.972 55.877 60.1318C56.0674 60.2909 56.2502 60.4501 56.4406 60.6093L56.3949 60.579C56.4178 60.9049 56.532 61.1248 56.9205 61.0338L56.8976 61.0186ZM41.7482 60.5562L41.7253 60.5714C42.1366 60.6927 42.2356 60.4577 42.2509 60.1166L42.2052 60.1469C42.5631 60.1621 42.6774 59.9043 42.784 59.639C43.6599 58.5702 44.6501 57.562 44.8634 55.864C42.8754 57.5696 41.1541 59.1842 39.288 60.6093C36.8202 62.5044 34.2306 64.2479 31.7018 66.0596C29.9043 67.1511 28.5714 68.7354 27.2004 70.2666C24.2376 73.5716 22.5847 77.4149 22.402 81.8645C22.3486 83.2138 22.6076 84.2068 24.3213 83.7065C26.6977 83.7444 29.0817 83.6838 31.4429 83.8657C33.3013 84.0097 33.7431 83.3427 33.7583 81.5537C33.8193 74.6177 35.9672 68.3716 40.4153 62.9516C40.857 62.421 41.6796 61.9813 41.314 61.0338H41.2683C41.7406 61.193 41.8396 60.9732 41.7482 60.5562ZM32.0141 12.2848L32.037 12.3C31.9303 12.1559 31.8313 12.0195 31.7247 11.8755C31.6561 12.0043 31.5876 12.1332 31.5114 12.2621C30.8945 11.883 30.8259 12.4667 30.5974 12.7699L30.6127 12.7548C29.7139 13.7326 28.3124 14.3466 28.2439 15.9461L28.2591 15.9385C27.7717 15.7642 27.6117 15.9158 27.8021 16.4009C26.6825 16.2038 26.4845 17.068 26.4768 17.7729C26.4235 22.1771 26.3245 26.5964 26.5225 30.993C26.5759 32.1983 27.3299 33.7068 29.2569 33.0245C31.2982 31.986 29.1274 31.0385 29.1579 30.0152C29.2721 26.134 29.1807 22.2453 29.2112 18.3566C29.2264 16.9012 30.3232 15.9612 31.3591 15.3018C32.1131 14.8242 32.7606 15.9082 33.408 16.3933C33.5908 17.1741 33.9259 17.9624 33.9259 18.7432C33.9411 22.8972 33.8802 27.0588 33.8421 31.2128C33.0728 31.9027 33.6974 32.5015 34.1163 32.8957C34.52 33.2747 35.1217 33.0018 35.5863 32.6834C36.4242 32.1073 36.6526 31.3114 36.6374 30.3184C36.5917 27.5819 36.3099 24.8075 36.6907 22.124C37.3001 17.8942 35.4111 15.0213 32.3721 12.5501C32.2579 12.4591 32.136 12.3758 32.0141 12.2848ZM32.2274 35.8975C33.5222 35.1925 33.4308 34.4951 32.2122 33.8053C31.2677 32.6 30.8183 33.7598 30.2699 34.2374C29.5997 34.8211 30.0719 35.329 30.5213 35.761C31.0392 36.2689 31.5571 37.1331 32.2274 35.8975ZM50.9795 55.4699C50.9262 54.8786 50.7205 54.3783 50.096 53.8704C50.096 54.8407 50.096 55.6215 50.096 56.3947C50.1036 56.6979 50.1112 57.0011 50.1188 57.3043C50.1188 58.3807 50.1188 59.4647 50.1188 60.5411C50.096 67.0223 50.0503 73.4958 50.0655 79.977C50.0655 81.1671 49.738 82.4027 50.3473 83.5549C53.9195 84.1462 57.4993 83.843 61.0792 83.7065C62.6177 84.1538 63.0595 83.5322 63.0519 82.0085C63.0062 74.0871 60.2185 67.3255 54.666 61.6706C54.7193 61.4356 54.6279 61.3446 54.3918 61.4052C53.2569 59.4268 52.1144 57.4483 50.9795 55.4699ZM31.6561 17.5759C30.6736 17.6441 30.6888 18.3945 30.6888 19.0616C30.6736 22.4121 30.6736 25.7626 30.6888 29.1131C30.6888 29.7802 30.6431 30.5534 31.6638 30.5761C32.4407 30.3487 32.4178 29.6892 32.4178 29.0904C32.433 25.7399 32.433 22.3818 32.4178 19.0313C32.4178 18.44 32.4635 17.7729 31.6561 17.5759ZM36.2947 60.7306C37.003 60.0332 36.6983 59.1463 36.706 58.3428C36.7364 54.3101 36.7364 50.2698 36.706 46.237C36.6983 45.4335 36.9878 44.5466 36.3023 43.8416C35.8224 43.0002 35.2893 42.5151 35.274 43.9933C35.2283 49.4283 35.2512 54.8559 35.2664 60.2909C35.274 61.1096 35.5406 61.5568 36.2947 60.7306ZM30.8031 64.5738C33.2861 63.5581 33.9411 61.7236 33.7888 59.1236C33.5679 55.3182 33.7279 51.4902 33.7279 47.6773C33.7279 44.4481 33.7279 44.4481 30.8412 44.1979C30.5517 43.7658 30.308 43.1139 29.7215 43.2049C29.1274 43.2959 29.3635 43.9478 29.3635 44.3571C29.3483 50.9823 29.3483 57.5999 29.3712 64.2251C29.3712 64.6117 29.0741 65.2788 29.7291 65.3167C30.0795 65.3394 30.4451 64.8391 30.8031 64.5738ZM48.4279 57.0011C48.4279 55.864 48.4279 54.727 48.4279 53.5899C46.3181 58.0093 43.3172 61.6781 40.4762 65.4759C36.8278 70.35 35.3274 75.9822 35.2207 82.0237C35.1979 83.517 35.5635 84.2751 37.1934 83.608C40.4153 83.9794 43.6447 83.7672 46.8665 83.8051C48.169 83.8202 48.5727 83.282 48.5574 82.0161C48.4736 73.6702 48.466 65.3394 48.4279 57.0011ZM26.1798 68.508C27.4975 68.0077 27.726 67.2648 27.726 66.4841C27.7412 58.7294 27.7336 50.9823 27.7336 43.0609C26.195 43.5763 26.1646 44.6679 26.1722 45.8353C26.195 50.573 26.1798 55.3107 26.1798 60.0484C26.1798 62.7773 26.1798 65.4986 26.1798 68.508ZM36.2718 37.5879C35.7158 37.1406 35.175 36.3675 34.5581 36.2917C33.6974 36.1931 32.951 37.0648 32.9129 37.8305C32.8824 38.5127 33.6822 39.2404 34.4134 39.3314C35.2588 39.4375 35.533 38.4899 36.2718 37.5879ZM31.3819 42.3028C32.2502 42.1209 32.7606 41.4463 32.8139 40.7337C32.8672 39.9757 32.3036 39.1494 31.4962 39.1494C30.7269 39.1418 30.0414 39.9529 29.9805 40.6276C29.9196 41.3553 30.7269 41.8708 31.3819 42.3028ZM29.2721 37.785C29.1198 37.2316 29.4702 36.2841 28.6171 36.322C27.8935 36.3599 27.1547 37.0952 27.1471 37.8456C27.1395 38.4824 27.8402 39.1798 28.4952 39.248C29.6377 39.3693 28.9751 38.2625 29.2721 37.785Z" fill="#3C1E1B"/>
<path d="M32.0218 8.64625C31.382 8.89641 31.7248 9.91217 30.9174 10.0335C31.0088 9.19962 31.0012 8.34304 31.2221 7.54711C31.5496 6.37216 31.5496 5.55349 30.3614 4.70449C29.1046 3.79485 29.1351 2.51378 29.9196 0.588379C30.9783 3.88582 31.5115 4.32547 34.6952 4.46192C31.9152 6.82698 31.9152 6.82698 32.0218 8.64625Z" fill="#402424"/>
<path d="M48.4274 57.001C48.4654 65.3393 48.4731 73.6777 48.5568 82.0084C48.5721 83.2744 48.1684 83.8126 46.8659 83.7974C43.6441 83.7671 40.4147 83.9717 37.1928 83.6003C36.6064 76.5127 38.7542 70.2135 42.9662 64.5965C44.8323 62.095 46.7669 59.6465 48.4274 57.001Z" fill="#8DC63F"/>
<path d="M41.3061 61.0339C41.6717 61.9739 40.8491 62.4136 40.4073 62.9518C35.9592 68.3717 33.8113 74.6179 33.7504 81.5539C33.7352 83.3428 33.2858 84.0099 31.435 83.8659C29.0738 83.6839 26.6898 83.7521 24.3134 83.7142C23.9174 80.576 24.6257 77.65 25.9815 74.8377C27.5429 71.6009 30.0335 69.107 32.5241 66.613C35.4946 64.8014 38.13 62.4969 41.3061 61.0339Z" fill="#8DC63F"/>
<path d="M50.3474 83.5548C49.7457 82.4026 50.0732 81.167 50.0656 79.9769C50.0504 73.5033 50.0961 67.0222 50.1189 60.5486C50.812 60.5486 51.2309 61.0186 51.6346 61.4734C56.0827 66.4537 58.6343 72.2526 59.2665 78.893C59.2665 80.2877 59.2589 81.6749 59.2589 83.0697C56.3265 84.0021 53.3027 83.1228 50.3474 83.5548Z" fill="#8DC63F"/>
<path d="M73.7755 83.5397C71.201 84.1309 68.5809 83.6913 65.9913 83.8126C65.1611 83.8505 64.6812 83.5094 64.6812 82.6225C64.6736 74.9209 62.2744 68.0683 57.354 62.1101C57.2474 61.9888 57.354 61.6932 57.354 61.481C58.8469 61.625 59.6314 63.1259 61.0481 63.4064C61.2233 63.5201 61.4061 63.6413 61.5813 63.7551C61.8859 64.1265 62.2058 64.4373 62.7314 64.1492C64.0186 64.2099 64.6431 65.2863 65.519 65.9761C65.2068 67.1056 66.3112 67.3178 66.8291 67.8484C71.1249 72.2147 74.3543 77.0358 73.7755 83.5397Z" fill="#8DC63F"/>
<path d="M33.4151 16.3932C32.7677 15.9157 32.1279 14.8241 31.3662 15.3017C30.3227 15.9612 29.2259 16.8935 29.2183 18.3565C29.1878 22.2452 29.2792 26.1264 29.165 30.0151C29.1345 31.0308 31.3053 31.9859 29.264 33.0169C28.1215 32.2816 27.7712 31.2582 27.794 29.9014C27.8702 25.3986 27.8169 20.9035 27.8169 16.4008C28.2891 16.5676 28.4186 16.3857 28.2739 15.9384L28.2586 15.946C30.0714 15.0591 30.7112 14.2025 30.6274 12.7547L30.6122 12.7698C31.3814 13.4218 31.5338 12.9897 31.5261 12.262C31.6861 12.4591 31.8613 12.4666 32.0441 12.2923L32.0212 12.2771C32.1431 12.3681 32.265 12.4591 32.3868 12.55C35.4259 15.0288 37.3072 17.8941 36.7055 22.124C36.3246 24.8074 36.5988 27.5818 36.6521 30.3183C36.6674 31.3113 36.4389 32.1072 35.601 32.6833C35.1364 33.0017 34.5347 33.2746 34.131 32.8956C33.7121 32.5014 33.0952 31.9026 33.8568 31.2128C34.946 31.2128 35.2507 30.6291 35.2431 29.6057C35.1974 25.9444 35.2202 22.2831 35.2278 18.6218C35.2278 17.3787 34.6642 16.6206 33.4151 16.3932Z" fill="#8DC63F"/>
<path d="M30.8482 44.198C33.7349 44.4481 33.7349 44.4481 33.7349 47.6774C33.7349 51.4978 33.5674 55.3259 33.7959 59.1236C33.9482 61.7161 33.2855 63.5581 30.8101 64.5663C30.6502 57.7819 30.5664 50.99 30.8482 44.198Z" fill="#8DC63F"/>
<path d="M48.4275 57.001C46.767 59.6465 44.8324 62.1026 42.9587 64.5965C38.7467 70.2135 36.5988 76.5127 37.1853 83.6003C35.5554 84.2674 35.1822 83.5094 35.2126 82.016C35.3193 75.9745 36.8197 70.3499 40.4681 65.4682C43.3091 61.6705 46.31 57.994 48.4198 53.5823C48.4275 54.7269 48.4275 55.8639 48.4275 57.001Z" fill="#EDE6DE"/>
<path d="M59.2657 78.8778C58.6335 72.245 56.0896 66.4385 51.6339 61.4582C51.2302 61.0034 50.8113 60.5334 50.1182 60.5334C50.1182 59.457 50.1182 58.373 50.1182 57.2966C51.1464 58.6611 52.1518 60.0407 53.2029 61.3748C53.6447 61.9358 53.6904 61.9055 54.3835 61.39C54.6196 61.3294 54.711 61.4203 54.6577 61.6553C53.538 62.6862 54.7567 63.3002 55.1832 63.8915C59.4638 69.8193 61.5964 76.3535 61.0709 83.6837C57.4911 83.8202 53.9112 84.131 50.339 83.5321C53.2943 83.1076 56.3181 83.9869 59.2429 83.0394C60.5453 81.8114 60.5453 80.1589 59.2657 78.8778Z" fill="#81B53A"/>
<path d="M26.1791 68.5079C26.1791 65.4985 26.1791 62.7772 26.1791 60.0483C26.1791 55.3106 26.1944 50.5729 26.1715 45.8352C26.1639 44.6602 26.202 43.5763 27.7329 43.0608C27.7329 50.9822 27.7405 58.7293 27.7253 66.484C27.7253 67.2647 27.5044 68.0076 26.1791 68.5079Z" fill="#CFC1A7"/>
<path d="M61.0791 83.6991C61.6047 76.3689 59.472 69.8347 55.1915 63.9068C54.765 63.308 53.5463 62.7016 54.6659 61.6707C60.2261 67.3256 63.0061 74.0872 63.0518 82.0086C63.0595 83.5247 62.6177 84.1463 61.0791 83.6991Z" fill="#8DC63F"/>
<path d="M73.7759 83.5397C74.3624 77.0358 71.133 72.2148 66.8296 67.8409C66.3117 67.3103 65.2072 67.1056 65.5195 65.9686C66.4868 64.9907 66.8829 66.3324 67.2257 66.6053C72.1765 70.5319 75.7106 75.2999 75.8934 81.9327C75.9314 83.5246 75.4897 84.3205 73.7759 83.5397Z" fill="#F2ECE6"/>
<path d="M32.524 66.5978C30.0334 69.0917 27.5428 71.5856 25.9814 74.8224C24.6256 77.6347 23.9173 80.5683 24.3133 83.699C22.5996 84.1993 22.3406 83.2138 22.3939 81.857C22.5767 77.4073 24.2295 73.5641 27.1924 70.2591C28.5634 68.7279 29.8963 67.1436 31.6938 66.052C32.0747 66.0823 32.3793 66.2264 32.524 66.5978Z" fill="#EDE6DE"/>
<path d="M30.8487 44.1979C30.5593 50.9899 30.6431 57.7818 30.803 64.5738C30.445 64.8391 30.0718 65.3394 29.7367 65.3167C29.0817 65.2712 29.3787 64.6117 29.3787 64.2251C29.3559 57.5999 29.3635 50.9823 29.3711 44.3571C29.3711 43.9477 29.135 43.2958 29.7291 43.2049C30.3156 43.1139 30.5593 43.7658 30.8487 44.1979Z" fill="#E0DBDA"/>
<path d="M27.8096 16.4008C27.8096 20.9035 27.8629 25.4063 27.7868 29.9014C27.7639 31.2583 28.1143 32.2816 29.2568 33.0169C27.3298 33.6991 26.5757 32.1906 26.5224 30.9854C26.3244 26.5888 26.4234 22.1695 26.4767 17.7653C26.492 17.0679 26.6976 16.2038 27.8096 16.4008Z" fill="#E0DBDA"/>
<path d="M33.415 16.3933C34.6642 16.6207 35.2278 17.3788 35.2202 18.6219C35.2126 22.2832 35.1897 25.9445 35.2354 29.6058C35.2506 30.6291 34.946 31.2128 33.8492 31.2128C33.8873 27.0588 33.9482 22.8972 33.933 18.7432C33.933 17.9549 33.5978 17.1741 33.415 16.3933Z" fill="#F9F8F8"/>
<path d="M32.5245 66.5977C32.3722 66.2263 32.0676 66.0823 31.6943 66.0595C34.2307 64.2478 36.8127 62.5044 39.2805 60.6093C41.1466 59.1842 42.8603 57.5696 44.8559 55.864C44.6426 57.5696 43.6524 58.5778 42.7765 59.639C42.4719 59.6845 42.2434 59.8134 42.1977 60.1469C42.1977 60.1469 42.2434 60.1166 42.2434 60.1242C41.9463 60.1317 41.7407 60.253 41.7178 60.579L41.7407 60.5638C41.4284 60.5638 41.2303 60.6927 41.2608 61.0338H41.3065C38.1304 62.4968 35.495 64.8012 32.5245 66.5977Z" fill="#E8DDD1"/>
<path d="M36.2947 60.7306C35.5407 61.5569 35.2741 61.1096 35.2665 60.2985C35.2512 54.8634 35.2284 49.4284 35.2741 44.0009C35.2893 42.5227 35.8225 43.0078 36.3023 43.8492C36.3023 49.4738 36.3023 55.106 36.2947 60.7306Z" fill="#EDE6DE"/>
<path d="M61.0483 63.4064C59.6239 63.1259 58.8471 61.625 57.3542 61.481L57.3847 61.4885C57.4075 61.1474 57.2095 61.0186 56.8972 61.0186L56.92 61.0337C56.8896 60.7153 56.6839 60.5941 56.3945 60.5789L56.4402 60.6092C56.3793 60.2984 56.1736 60.162 55.8766 60.1392C55.0235 58.9794 54.1704 57.8272 53.3174 56.6675C53.4316 56.5159 53.5459 56.3642 53.6677 56.2202C56.1965 58.2896 58.7252 60.3666 61.2539 62.4361C61.1854 62.762 61.1168 63.0804 61.0483 63.4064Z" fill="#E8DDD1"/>
<path d="M31.6631 30.5762C30.6425 30.5459 30.6882 29.7802 30.6882 29.1132C30.6729 25.7627 30.6729 22.4122 30.6882 19.0617C30.6882 18.387 30.6729 17.6442 31.6555 17.5759C31.6555 21.9043 31.6631 26.2402 31.6631 30.5762Z" fill="#E0DBDA"/>
<path d="M31.6639 30.5762C31.6562 26.2402 31.6563 21.9043 31.6563 17.5684C32.4636 17.7654 32.4179 18.4401 32.4255 19.0314C32.4408 22.3819 32.4408 25.7399 32.4255 29.0904C32.4179 29.6893 32.4408 30.3488 31.6639 30.5762Z" fill="#CBA840"/>
<path d="M54.3917 61.3978C53.6986 61.9057 53.6529 61.9436 53.2111 61.3826C52.16 60.0409 51.147 58.6613 50.1264 57.3044C50.1188 57.0012 50.1111 56.698 50.1035 56.3948C50.4006 56.084 50.69 55.7808 50.987 55.47C52.1143 57.4484 53.2568 59.4269 54.3917 61.3978Z" fill="#F2ECE6"/>
<path d="M36.2949 60.7307C36.3025 55.1061 36.3025 49.474 36.3102 43.8494C36.9956 44.5543 36.7062 45.4337 36.7138 46.2447C36.7443 50.2775 36.7443 54.3178 36.7138 58.3505C36.6986 59.1464 37.0033 60.0333 36.2949 60.7307Z" fill="#8DC63F"/>
<path d="M36.2714 37.5878C35.5325 38.4899 35.2584 39.4374 34.4129 39.3313C33.6817 39.2403 32.8743 38.5126 32.9124 37.8304C32.9505 37.0648 33.6969 36.193 34.5576 36.2916C35.1746 36.3674 35.7153 37.133 36.2714 37.5878Z" fill="#CFC1A7"/>
<path d="M31.3813 42.3029C30.7262 41.8708 29.9189 41.3629 29.9798 40.6276C30.0407 39.953 30.7262 39.1419 31.4955 39.1495C32.3029 39.157 32.8741 39.9757 32.8132 40.7338C32.7675 41.4463 32.2496 42.1134 31.3813 42.3029Z" fill="#CFC1A7"/>
<path d="M29.2724 37.7849C28.9677 38.27 29.638 39.3692 28.4879 39.2555C27.8328 39.1872 27.1321 38.4898 27.1397 37.8531C27.1473 37.1027 27.8861 36.3598 28.6097 36.3295C29.4704 36.284 29.1276 37.2315 29.2724 37.7849Z" fill="#E8DDD1"/>
<path d="M32.2276 35.8976C31.5573 37.1332 31.0394 36.269 30.5215 35.7611C30.0721 35.329 29.6075 34.8212 30.2701 34.2375C30.8109 33.7675 31.2679 32.6001 32.2124 33.8054C31.0013 34.5179 31.0851 35.2078 32.2276 35.8976Z" fill="#CFC1A7"/>
<path d="M32.2275 35.8976C31.085 35.2078 31.0012 34.5104 32.2123 33.8054C33.4309 34.4952 33.5223 35.1926 32.2275 35.8976Z" fill="#8DC63F"/>
<path d="M30.6276 12.7549C30.7113 14.2027 30.0715 15.0593 28.2588 15.9462C28.3197 14.3468 29.7212 13.7327 30.6276 12.7549Z" fill="#E0DBDA"/>
<path d="M50.9792 55.4698C50.6822 55.7806 50.3928 56.0838 50.0957 56.3946C50.0957 55.6138 50.0957 54.8331 50.0957 53.8704C50.7203 54.3782 50.9335 54.8785 50.9792 55.4698Z" fill="#E8DDD1"/>
<path d="M61.0488 63.4066C61.1174 63.0806 61.1859 62.7622 61.2545 62.4363C61.7953 62.9366 63.0596 62.7774 62.7549 64.0585C62.3589 63.9599 61.9704 63.8614 61.582 63.7553C61.3992 63.6416 61.224 63.5203 61.0488 63.4066Z" fill="#F2ECE6"/>
<path d="M31.5185 12.2621C31.5261 12.9898 31.3738 13.4294 30.6045 12.7699C30.833 12.4667 30.9092 11.883 31.5185 12.2621Z" fill="#E0DBDA"/>
<path d="M61.582 63.7551C61.9705 63.8537 62.3665 63.9598 62.755 64.0583L62.7321 64.1493C62.2066 64.4374 61.8791 64.1266 61.582 63.7551Z" fill="#E8DDD1"/>
<path d="M32.0365 12.2924C31.8537 12.4668 31.6785 12.4516 31.5186 12.2621C31.5871 12.1332 31.6557 12.0044 31.7318 11.8755C31.8308 12.0119 31.9375 12.156 32.0365 12.2924Z" fill="#E0DBDA"/>
<path d="M32.3793 12.5502C32.2574 12.4593 32.1355 12.3683 32.0137 12.2773C32.1355 12.3759 32.2574 12.4593 32.3793 12.5502Z" fill="#E0DBDA"/>
<path d="M28.2662 15.9384C28.4109 16.3857 28.2814 16.5676 27.8092 16.4008C27.6264 15.9157 27.7787 15.7641 28.2662 15.9384Z" fill="#E0DBDA"/>
<path d="M59.2664 78.8779C60.5536 80.159 60.546 81.8115 59.2588 83.0547C59.2588 81.6675 59.2588 80.2727 59.2664 78.8779Z" fill="#8DC63F"/>
</g>
<path d="M104.422 82.7849V44.5416H110.919V60.6357H129.306V44.5416H135.776V82.7849H129.306V66.6377H110.919V82.7849H104.422Z" fill="black"/>
<path d="M151.477 83.5816C149.374 83.5816 147.595 83.1921 146.139 82.4131C144.683 81.6163 143.578 80.5629 142.823 79.2527C142.086 77.9425 141.717 76.4995 141.717 74.9238C141.717 73.5428 141.951 72.3034 142.418 71.2057C142.886 70.0902 143.605 69.1342 144.575 68.3374C145.546 67.523 146.804 66.859 148.349 66.3456C149.518 65.9738 150.884 65.6374 152.447 65.3364C154.029 65.0354 155.737 64.761 157.57 64.5131C159.421 64.2475 161.353 63.9642 163.366 63.6632L161.048 64.9646C161.066 62.9816 160.616 61.5209 159.7 60.5825C158.783 59.6442 157.237 59.175 155.063 59.175C153.75 59.175 152.483 59.476 151.261 60.0779C150.039 60.6799 149.185 61.7157 148.7 63.1852L142.769 61.3527C143.488 58.9271 144.854 56.9795 146.867 55.51C148.898 54.0405 151.63 53.3057 155.063 53.3057C157.651 53.3057 159.924 53.7218 161.883 54.5539C163.86 55.3861 165.325 56.7494 166.278 58.6438C166.799 59.653 167.114 60.6888 167.222 61.7511C167.329 62.7957 167.383 63.9377 167.383 65.177V82.7849H161.695V76.5703L162.638 77.5795C161.326 79.6511 159.79 81.1737 158.028 82.1475C156.285 83.1036 154.101 83.5816 151.477 83.5816ZM152.771 78.4825C154.245 78.4825 155.503 78.2258 156.545 77.7123C157.588 77.1989 158.415 76.5703 159.026 75.8267C159.655 75.0831 160.077 74.3838 160.293 73.7287C160.634 72.9142 160.823 71.9847 160.859 70.9401C160.913 69.8778 160.94 69.0191 160.94 68.364L162.935 68.9482C160.976 69.2492 159.295 69.5148 157.893 69.745C156.491 69.9752 155.287 70.1965 154.281 70.4089C153.274 70.6037 152.384 70.825 151.612 71.0729C150.857 71.3385 150.219 71.6483 149.697 72.0024C149.176 72.3565 148.772 72.7637 148.484 73.2241C148.215 73.6844 148.08 74.2244 148.08 74.8441C148.08 75.5523 148.26 76.1808 148.619 76.7297C148.979 77.2608 149.5 77.6858 150.183 78.0045C150.884 78.3232 151.746 78.4825 152.771 78.4825Z" fill="black"/>
<path d="M176.936 82.7849V53.6509C176.936 52.925 176.963 52.1283 177.017 51.2607C177.071 50.3755 177.224 49.4991 177.476 48.6315C177.727 47.764 178.186 46.9761 178.851 46.2679C179.677 45.3649 180.567 44.7452 181.52 44.4088C182.49 44.0547 183.443 43.86 184.377 43.8245C185.312 43.7714 186.13 43.7449 186.831 43.7449H190.47V48.9502H187.1C185.86 48.9502 184.935 49.26 184.323 49.8797C183.73 50.4817 183.434 51.2784 183.434 52.2699V82.7849H176.936ZM172.245 59.1219V54.1024H190.47V59.1219H172.245Z" fill="black"/>
<path d="M206.022 83.5816C202.428 83.5816 199.507 82.7849 197.26 81.1914C195.014 79.5979 193.648 77.3582 193.163 74.4723L199.795 73.4631C200.136 74.8795 200.891 75.9949 202.059 76.8094C203.228 77.6238 204.701 78.031 206.481 78.031C208.044 78.031 209.249 77.73 210.093 77.1281C210.956 76.5084 211.388 75.6674 211.388 74.6051C211.388 73.95 211.226 73.4277 210.902 73.0382C210.597 72.6309 209.914 72.2414 208.853 71.8696C207.793 71.4978 206.166 71.0286 203.974 70.462C201.529 69.8247 199.588 69.143 198.15 68.4171C196.712 67.6735 195.679 66.7971 195.05 65.7879C194.421 64.7787 194.106 63.557 194.106 62.1229C194.106 60.3347 194.582 58.7766 195.535 57.4487C196.488 56.1208 197.818 55.1028 199.525 54.3946C201.233 53.6686 203.246 53.3057 205.564 53.3057C207.829 53.3057 209.833 53.6509 211.576 54.3414C213.338 55.0319 214.758 56.0146 215.836 57.2894C216.914 58.5641 217.579 60.0602 217.831 61.7776L211.199 62.9462C211.037 61.7245 210.471 60.7596 209.5 60.0514C208.548 59.3432 207.272 58.9448 205.672 58.8563C204.144 58.7677 202.913 58.9979 201.978 59.5468C201.044 60.0779 200.577 60.8304 200.577 61.8042C200.577 62.3531 200.765 62.8222 201.143 63.2118C201.52 63.6013 202.275 63.9908 203.407 64.3803C204.558 64.7698 206.265 65.2479 208.53 65.8144C210.848 66.3987 212.7 67.0715 214.084 67.8328C215.485 68.5764 216.492 69.4706 217.103 70.5152C217.732 71.5598 218.047 72.8257 218.047 74.3129C218.047 77.1989 216.977 79.4651 214.838 81.1117C212.718 82.7583 209.779 83.5816 206.022 83.5816Z" fill="black"/>
<path d="M232.094 83.5816C229.991 83.5816 228.211 83.1921 226.756 82.4131C225.3 81.6163 224.194 80.5629 223.44 79.2527C222.703 77.9425 222.334 76.4995 222.334 74.9238C222.334 73.5428 222.568 72.3034 223.035 71.2057C223.502 70.0902 224.221 69.1342 225.192 68.3374C226.162 67.523 227.421 66.859 228.966 66.3456C230.135 65.9738 231.501 65.6374 233.064 65.3364C234.646 65.0354 236.353 64.761 238.187 64.5131C240.038 64.2475 241.97 63.9642 243.983 63.6632L241.665 64.9646C241.682 62.9816 241.233 61.5209 240.317 60.5825C239.4 59.6442 237.854 59.175 235.679 59.175C234.367 59.175 233.1 59.476 231.878 60.0779C230.656 60.6799 229.802 61.7157 229.317 63.1852L223.386 61.3527C224.105 58.9271 225.471 56.9795 227.484 55.51C229.515 54.0405 232.246 53.3057 235.679 53.3057C238.268 53.3057 240.541 53.7218 242.5 54.5539C244.477 55.3861 245.942 56.7494 246.895 58.6438C247.416 59.653 247.731 60.6888 247.838 61.7511C247.946 62.7957 248 63.9377 248 65.177V82.7849H242.312V76.5703L243.255 77.5795C241.943 79.6511 240.406 81.1737 238.645 82.1475C236.902 83.1036 234.718 83.5816 232.094 83.5816ZM233.388 78.4825C234.862 78.4825 236.12 78.2258 237.162 77.7123C238.205 77.1989 239.031 76.5703 239.643 75.8267C240.272 75.0831 240.694 74.3838 240.91 73.7287C241.251 72.9142 241.44 71.9847 241.476 70.9401C241.53 69.8778 241.557 69.0191 241.557 68.364L243.552 68.9482C241.593 69.2492 239.912 69.5148 238.51 69.745C237.108 69.9752 235.904 70.1965 234.898 70.4089C233.891 70.6037 233.001 70.825 232.229 71.0729C231.474 71.3385 230.836 71.6483 230.314 72.0024C229.793 72.3565 229.389 72.7637 229.101 73.2241C228.832 73.6844 228.697 74.2244 228.697 74.8441C228.697 75.5523 228.876 76.1808 229.236 76.7297C229.595 77.2608 230.117 77.6858 230.8 78.0045C231.501 78.3232 232.363 78.4825 233.388 78.4825Z" fill="black"/>
</g>
<defs>
<filter id="filter0_d_1_22496" x="0" y="0.588379" width="252" height="91.8232" filterUnits="userSpaceOnUse" color-interpolation-filters="sRGB">
<feFlood flood-opacity="0" result="BackgroundImageFix"/>
<feColorMatrix in="SourceAlpha" type="matrix" values="0 0 0 0 0 0 0 0 0 0 0 0 0 0 0 0 0 0 127 0" result="hardAlpha"/>
<feOffset dy="4"/>
<feGaussianBlur stdDeviation="2"/>
<feComposite in2="hardAlpha" operator="out"/>
<feColorMatrix type="matrix" values="0 0 0 0 0 0 0 0 0 0 0 0 0 0 0 0 0 0 0.25 0"/>
<feBlend mode="normal" in2="BackgroundImageFix" result="effect1_dropShadow_1_22496"/>
<feBlend mode="normal" in="SourceGraphic" in2="effect1_dropShadow_1_22496" result="shape"/>
</filter>
<clipPath id="clip0_1_22496">
<rect width="90.4626" height="83.8231" fill="white" transform="translate(4 0.588379)"/>
</clipPath>
</defs>
</svg>
