<svg width="80" height="84" viewBox="0 0 80 84" fill="none" xmlns="http://www.w3.org/2000/svg">
<g clip-path="url(#clip0_1120_170)">
<path d="M78.2477 32.2198C74.2165 26.9073 65.8782 26.1583 60.8319 30.2486C60.0237 30.8991 59.2056 31.5397 58.4664 32.2592C55.8151 34.8218 52.74 35.4231 49.2608 34.3783C45.4366 33.235 41.5237 33.3138 37.6009 33.6391C37.0096 33.6884 36.4182 33.7771 35.8268 33.8461C35.4129 33.8954 34.9595 33.8264 34.8708 33.4223C34.7722 32.9787 35.265 32.8309 35.61 32.7028C37.1476 32.1508 38.764 31.865 40.3607 32.141C44.1454 32.8112 47.9105 32.7619 51.6952 32.1902C53.1737 31.9635 54.5634 31.52 55.6673 30.4358C57.1063 29.0264 56.8894 27.8535 55.0463 26.9172C54.3465 26.3948 53.7059 26.7595 53.0652 27.065C51.1137 27.8141 49.5466 29.2334 47.7232 30.1894C46.6883 30.7315 45.2986 31.6876 44.5298 30.3767C43.7315 29.0166 45.4366 28.5336 46.3039 28.0014C48.4329 26.6708 50.7983 25.8232 53.1638 24.9755C54.8689 24.3645 56.4656 23.5464 57.7666 22.2552C59.7181 20.3234 60.2799 17.8594 59.0972 16.4204C57.9046 14.9617 55.1055 14.9223 52.9273 16.3415C51.3404 17.3764 50.1478 18.8056 49.1228 20.3431C46.3729 24.4827 43.1401 27.8535 37.7192 27.9718C36.3788 28.1985 35.2158 28.7012 34.4568 29.9036C33.9246 30.7217 33.3727 31.5299 32.8601 32.3578C31.7365 34.1812 30.1497 35.3048 28.0503 35.7187C24.7978 36.3495 22.4619 34.2107 22.8463 30.9582C22.9646 29.9825 23.1025 29.0067 23.1715 28.0309C23.3391 25.6162 22.3436 24.4039 20.0176 24.1378C17.8985 23.9012 16.3609 25.1332 16.1047 27.3706C15.8188 29.8642 16.4891 32.1114 17.9872 34.1319C18.2632 34.4966 18.8348 34.7036 18.6771 35.4526C16.4102 34.9598 14.1433 34.4769 11.8862 33.9643C8.57457 33.2448 5.25305 32.6239 1.84282 32.821C-0.20726 32.9393 -0.355102 33.1167 0.453103 35.019C7.54953 51.6266 20.0471 61.2856 38.1135 62.1825C56.6824 63.0991 70.2248 54.4356 78.9278 38.0349C80.1697 35.7286 79.8148 34.2797 78.2477 32.2198Z" fill="#B5D1F1"/>
<path d="M53.2624 2.09941C53.7256 0.670267 53.1145 0.0394735 51.7051 4.88933e-05C49.8423 -0.0788003 48.2062 0.601274 47.0826 1.98114C44.5101 5.11539 44.5397 8.95929 44.382 12.7243C46.1561 10.3687 48.285 8.4172 50.1774 6.2587C51.3207 4.95769 52.5921 3.75524 53.2624 2.09941Z" fill="#B5D1F1"/>
<path d="M66.3316 13.2369C66.3809 11.6599 65.0602 10.3096 63.4832 10.3096C61.9062 10.3096 60.5855 11.6599 60.6348 13.2369C60.6742 14.7547 61.9456 15.9867 63.4733 15.9966C65.0208 15.9966 66.2922 14.7646 66.3316 13.2369Z" fill="#B5D1F1"/>
<path d="M23.0237 22.0975C24.3444 22.1173 25.4582 21.0824 25.5074 19.7813C25.5567 18.5 24.4923 17.3469 23.2011 17.268C21.9099 17.199 20.7568 18.2241 20.6681 19.5251C20.5695 20.9148 21.6241 22.068 23.0237 22.0975Z" fill="#B5D1F1"/>
<path d="M35.5804 24.9361C36.9899 24.3053 38.2317 23.438 39.1878 22.2158C39.4835 21.8314 39.8087 21.4076 39.5623 20.8852C39.2863 20.3136 38.7048 20.2939 38.2219 20.215C36.5858 20.215 34.2006 23.3 34.6638 24.739C34.8609 25.3205 35.2749 25.0741 35.5804 24.9361Z" fill="#B5D1F1"/>
<path d="M9.75731 31.9636C11.2752 32.4366 12.8324 32.5253 14.5277 32.2888C13.069 31.2835 12.5466 29.0363 10.2304 29.2235C9.41234 29.2925 8.66328 29.4699 8.49572 30.3669C8.2986 31.3032 8.99839 31.727 9.75731 31.9636Z" fill="#B5D1F1"/>
<path d="M15.6119 19.4561C15.8583 19.6434 16.1145 19.9686 16.4595 19.7616C16.7946 19.5645 16.5975 19.1703 16.6566 18.7957C16.5088 17.5834 16.4694 16.2528 15.6119 15.1785C15.0895 14.5083 14.4193 14.2816 13.6111 14.6956C12.7634 15.1292 13.1281 15.8093 13.3154 16.381C13.7392 17.6426 14.5573 18.6479 15.6119 19.4561Z" fill="#B5D1F1"/>
<path d="M65.1785 22.0187C65.76 21.9497 66.1641 21.5949 66.3021 20.9937C66.4105 20.5403 66.3711 20.077 66.0162 19.7912C65.5037 19.3772 64.9813 19.6828 64.5082 19.9588C63.8183 20.3727 63.1382 20.8162 62.5469 21.6047C63.4438 22.1271 64.3111 22.137 65.1785 22.0187Z" fill="#B5D1F1"/>
<path d="M25.4187 11.0192C26.0988 11.0389 26.5128 10.6743 26.6015 9.98433C26.5818 9.26483 26.2072 8.84102 25.5272 8.81145C24.8471 8.77202 24.3838 9.19584 24.3543 9.87591C24.3148 10.5461 24.7091 10.9995 25.4187 11.0192Z" fill="#B5D1F1"/>
<path d="M53.1737 12.1428C53.3018 12.1527 53.4299 12.1625 53.5581 12.1625C57.5596 9.75764 61.9062 8.54533 66.5583 8.23979C68.2339 8.13137 69.9488 7.88497 71.0921 6.37698C71.9891 5.49978 72.4621 4.53388 71.7919 3.31172C71.3681 2.15855 70.3924 1.70516 69.318 1.40948C66.6273 0.680123 64.1534 1.19264 61.8964 2.78934C58.4368 5.23367 55.6673 8.33835 53.3412 11.8471C53.2821 11.9556 53.2229 12.0443 53.1737 12.1428Z" fill="#B5D1F1"/>
</g>
<path d="M22.6449 74.2025C20.9027 75.8676 19.7155 75.5593 19.2529 73.1849C17.927 74.5725 18.1429 76.0989 17.9116 77.4557C17.6803 78.7662 17.1253 79.5834 15.7377 79.2904C14.35 78.9975 12.5153 78.6891 12.8545 76.7619C13.5792 72.5528 15.2289 68.6212 17.4182 64.9518C17.9116 64.1038 18.7442 63.9342 19.6384 64.15C20.7947 64.4275 21.6273 65.0288 21.7506 66.3548C21.9357 68.4979 22.7066 68.8833 24.0942 67.0486C24.9113 65.9539 25.9752 66.0156 27.0698 66.4165C28.1182 66.8019 28.3804 67.6961 28.3187 68.6983C28.0874 72.3523 27.6403 75.9601 26.5302 79.4754C25.9135 81.4489 24.6646 81.9886 22.8299 81.3873C20.8872 80.7551 21.1031 79.4138 21.689 77.9028C22.0744 76.8235 22.6911 75.7751 22.6449 74.2025Z" fill="#B5D1F1"/>
<path d="M59.7864 72.0445C61.7753 72.6149 63.4558 73.2471 64.8126 74.4497C65.7377 75.2668 67.0636 76.1919 65.7839 77.5949C64.5813 78.9363 63.055 79.7534 61.2819 78.4892C60.5881 77.9958 60.0793 77.2866 59.4163 76.747C58.815 76.2536 58.1058 75.791 57.3657 76.454C56.7336 77.0245 56.9649 77.8108 57.3503 78.3196C58.5221 79.846 58.1675 80.8173 56.4098 81.2952C54.7601 81.7424 53.0796 81.989 52.5245 79.738C51.6303 76.0994 50.7206 72.4608 50.366 68.7142C50.2272 67.2495 50.4123 66.2782 52.1082 65.939C53.758 65.6152 54.4826 66.2474 54.868 67.7275C55.0685 68.4829 54.976 69.7164 56.1169 69.6393C57.1807 69.5622 57.042 68.3904 57.2116 67.5887C57.4428 66.5249 57.3657 65.276 58.5683 64.7364C59.4626 64.3355 60.4185 64.4435 61.2511 64.9985C62.0528 65.5381 62.207 66.3399 62.0528 67.2495C61.8061 68.9917 60.8348 70.3948 59.7864 72.0445Z" fill="#B5D1F1"/>
<path d="M36.9375 75.4049C37.1688 73.2926 37.4155 71.5196 37.5234 69.7311C37.6468 67.8347 38.8494 67.6343 40.3603 67.6343C41.9946 67.6343 42.7347 68.5131 42.673 70.024C42.6113 71.8125 42.3338 73.5856 42.2413 75.3586C42.1025 77.7947 42.9351 78.6118 45.3866 78.4268C46.4041 78.3497 47.4063 78.1493 48.393 77.8718C49.6727 77.5172 50.8137 77.3476 51.122 79.0589C51.3841 80.5237 51.2299 81.7108 49.4569 82.2196C46.9592 82.9443 44.4461 83.2526 41.8867 82.9751C38.0322 82.5588 37.1225 81.5258 36.9375 77.5943C36.9067 76.7617 36.9375 75.9137 36.9375 75.4049Z" fill="#B5D1F1"/>
<path d="M35.3338 73.4311C35.1026 76.0059 34.8405 78.5345 34.6709 81.0784C34.5475 82.9902 33.3295 83.2215 31.834 83.0673C30.4001 82.9131 28.8583 82.8977 28.9354 80.7392C29.0896 76.746 29.7371 72.8144 30.5697 68.9137C30.8626 67.5569 31.7415 67.1406 33.0057 67.2948C34.27 67.449 35.3493 67.7882 35.3338 69.407C35.3184 70.7484 35.3338 72.1052 35.3338 73.4311Z" fill="#B5D1F1"/>
<defs>
<clipPath id="clip0_1120_170">
<rect width="79.8348" height="62.0938" fill="white"/>
</clipPath>
</defs>
</svg>
