<svg width="29" height="29" viewBox="0 0 29 29" fill="none" xmlns="http://www.w3.org/2000/svg">
<g clip-path="url(#clip0_1090_685)">
<path d="M25.8205 26.2831C21.383 29.9056 7.52711 29.9056 3.18014 26.2831C-1.25737 22.6607 -0.804568 7.17467 3.18014 3.09941C7.16486 -0.975846 21.8358 -0.975846 25.8205 3.09941C29.8052 7.17467 30.258 22.6607 25.8205 26.2831Z" fill="#5C0510"/>
<g opacity="0.2">
<path d="M14.5913 19.9439C10.6066 23.1135 6.16912 24.7436 2.00331 24.8342C-1.0758 19.5816 -0.441842 6.81248 3.18062 3.09947C6.44083 -0.251286 16.6743 -0.885244 22.5608 1.19766C24.0097 7.17473 21.0212 14.7818 14.5913 19.9439Z" fill="white"/>
</g>
<path d="M12.4161 22.5702C11.7822 22.5702 11.1483 22.2985 10.786 21.7551L5.71462 15.2347C4.99012 14.3291 5.17127 13.0613 6.07687 12.3368C6.98247 11.6123 8.25032 11.7934 8.97483 12.699L12.4161 17.1365L20.0233 7.26535C20.7478 6.35975 22.0157 6.17859 22.9213 6.9031C23.8269 7.6276 24.008 8.89545 23.2835 9.80105L14.0462 21.7551C13.5934 22.2079 13.0501 22.5702 12.4161 22.5702Z" fill="white"/>
</g>
<defs>
<clipPath id="clip0_1090_685">
<rect width="29" height="29" fill="white"/>
</clipPath>
</defs>
</svg>
