<svg width="1461" height="357" viewBox="0 0 1461 357" fill="none" xmlns="http://www.w3.org/2000/svg">
<g opacity="0.17">
<mask id="mask0_1090_597" style="mask-type:alpha" maskUnits="userSpaceOnUse" x="0" y="0" width="1461" height="357">
<rect width="1461" height="357" rx="8" fill="#EC3361"/>
</mask>
<g mask="url(#mask0_1090_597)">
<path fill-rule="evenodd" clip-rule="evenodd" d="M-188.97 1346.34L397.747 759.783C414.235 743.217 414.242 716.447 397.774 699.868C381.19 683.398 354.42 683.411 337.85 699.895L0.673889 1036.98C-16.1965 1050.37 -40.42 1049.02 -55.7065 1033.85C-72.1809 1017.27 -72.1673 990.502 -55.6792 973.936L385.075 533.296C401.563 516.73 401.57 489.967 385.102 473.387C368.519 456.917 341.749 456.931 325.179 473.415L253.88 544.695C237.406 561.301 210.588 561.41 193.977 544.94C177.366 528.47 177.257 501.659 193.731 485.052C193.813 484.97 193.895 484.889 193.977 484.807L373.578 305.252C390.066 288.687 390.073 261.917 373.605 245.344C357.021 228.874 330.251 228.888 313.681 245.371L-463.628 1022.45C-480.116 1039.01 -480.123 1065.78 -463.655 1082.36C-447.072 1098.83 -420.295 1098.82 -403.731 1082.33L-43.5674 722.263C-26.9974 705.786 -0.227295 705.772 16.3564 722.242C32.8308 738.821 32.8171 765.585 16.3359 782.157L-273.131 1071.54C-289.619 1088.11 -289.626 1114.88 -273.158 1131.46C-256.574 1147.92 -229.804 1147.91 -213.234 1131.43L-156.861 1075.07C-140.291 1058.59 -113.521 1058.57 -96.937 1075.04C-81.7597 1090.33 -80.4147 1114.54 -93.8032 1131.41L-248.887 1286.45C-265.375 1303.02 -265.389 1329.79 -248.914 1346.37C-232.317 1362.84 -205.54 1362.82 -188.97 1346.34Z" fill="#FF6B90"/>
<path d="M2174.39 -883.637L1878.15 -587.474C1861.57 -570.997 1834.79 -571.004 1818.21 -587.481C1803.02 -602.764 1801.66 -626.988 1815.05 -643.874L1956.66 -785.444C1973.14 -802.023 1973.14 -828.8 1956.65 -845.373C1940.08 -861.857 1913.29 -861.857 1896.71 -845.373L1408.91 -357.711C1392.43 -341.131 1392.43 -314.355 1408.92 -297.782C1425.5 -281.298 1452.28 -281.298 1468.86 -297.782L1610.47 -439.352C1627.36 -452.737 1651.59 -451.379 1666.87 -436.192C1683.36 -419.619 1683.36 -392.849 1666.89 -376.27L896.213 394.211C879.731 410.791 879.731 437.561 896.213 454.14C912.796 470.624 939.58 470.624 956.164 454.14L999.388 410.92C1016.82 395.297 1043.62 396.764 1059.24 414.19C1073.06 429.595 1073.72 452.727 1060.81 468.904L919.207 610.48C902.726 627.06 902.726 653.837 919.214 670.409C935.798 686.893 962.574 686.893 979.158 670.409L1466.95 182.747C1483.43 166.168 1483.43 139.391 1466.95 122.818C1450.36 106.335 1423.59 106.335 1407 122.818L1265.4 264.381C1247.1 278.981 1220.43 275.985 1205.83 257.692C1192.92 241.516 1193.59 218.384 1207.4 202.971L2234.34 -823.702C2250.82 -840.281 2250.82 -867.058 2234.34 -883.637C2217.75 -900.121 2190.97 -900.121 2174.39 -883.637ZM1213.04 -42.0199L1364.82 -193.76C1381.3 -210.339 1381.3 -237.116 1364.82 -253.689C1348.23 -270.172 1321.46 -270.172 1304.87 -253.689L1153.09 -101.956C1136.61 -85.3762 1136.61 -58.6061 1153.09 -42.0267C1169.68 -25.5428 1196.45 -25.5428 1213.04 -42.0199Z" fill="#EC3760" stroke="white" stroke-width="5"/>
<path d="M1091.57 -836.54L795.331 -540.378C778.748 -523.901 751.964 -523.907 735.387 -540.391C720.203 -555.674 718.844 -579.898 732.233 -596.784L873.839 -738.354C890.321 -754.934 890.321 -781.71 873.832 -798.283C857.256 -814.767 830.465 -814.767 813.888 -798.283L326.093 -310.614C309.612 -294.035 309.612 -267.265 326.093 -250.685C342.677 -234.208 369.454 -234.208 386.038 -250.685L527.651 -392.248C544.535 -405.633 568.765 -404.275 584.052 -389.088C600.533 -372.515 600.54 -345.745 584.065 -329.166L-186.608 441.308C-203.089 457.887 -203.089 484.657 -186.608 501.237C-170.024 517.714 -143.247 517.714 -126.664 501.237L-83.4326 458.017C-66.6441 443.062 -41.1166 443.758 -25.1679 459.607C-9.97699 474.89 -8.61833 499.114 -22.0068 516L-163.606 657.57C-180.088 674.15 -180.088 700.92 -163.606 717.499C-147.023 733.976 -120.246 733.976 -103.662 717.499L384.126 229.844C400.607 213.265 400.607 186.495 384.126 169.915C367.542 153.438 340.765 153.438 324.182 169.915L182.568 311.478C164.271 326.071 137.603 323.075 123 304.775C110.096 288.599 110.758 265.474 124.57 250.068L1151.52 -776.605C1168 -793.184 1168 -819.961 1151.52 -836.54C1134.93 -853.024 1108.15 -853.024 1091.57 -836.54ZM130.216 5.0769L281.995 -146.663C298.477 -163.243 298.477 -190.012 281.995 -206.592C265.412 -223.069 238.635 -223.069 222.051 -206.592L70.265 -54.8588C53.7838 -38.2794 53.7838 -11.5093 70.265 5.07007C86.8487 21.5539 113.632 21.5607 130.216 5.0769Z" fill="#EC3760" stroke="white" stroke-width="5"/>
<path fill-rule="evenodd" clip-rule="evenodd" d="M999.763 353.865L925.515 428.094C909.027 444.646 909.013 471.402 925.474 487.981C942.058 504.438 968.821 504.424 985.377 487.94L1059.62 413.712C1076.11 397.16 1076.13 370.403 1059.67 353.824C1043.08 337.368 1016.32 337.381 999.763 353.865ZM1070.81 282.838C1054.33 299.39 1054.31 326.146 1070.77 342.726C1087.35 359.182 1114.11 359.169 1130.67 342.685C1147.16 326.133 1147.17 299.376 1130.71 282.797C1114.13 266.34 1087.36 266.354 1070.81 282.838Z" fill="#EC3760"/>
</g>
</g>
</svg>
