<svg width="13" height="13" viewBox="0 0 13 13" fill="none" xmlns="http://www.w3.org/2000/svg">
<g clip-path="url(#clip0_1090_4884)">
<path d="M11.5738 11.7819C9.58454 13.4057 3.37328 13.4057 1.42464 11.7819C-0.564591 10.158 -0.361611 3.21601 1.42464 1.38917C3.21089 -0.437667 9.78752 -0.437667 11.5738 1.38917C13.36 3.21601 13.563 10.158 11.5738 11.7819Z" fill="#5C0510"/>
<g opacity="0.2">
<path d="M6.53974 8.94035C4.75349 10.3612 2.76426 11.092 0.896825 11.1326C-0.483467 8.77796 -0.199279 3.05387 1.42458 1.38942C2.88605 -0.112646 7.47345 -0.396834 10.1122 0.536882C10.7618 3.21626 9.42209 6.62634 6.53974 8.94035Z" fill="white"/>
</g>
<path d="M5.56585 10.1176C5.28166 10.1176 4.9975 9.99582 4.83512 9.75225L2.56173 6.8293C2.23695 6.42335 2.31816 5.855 2.72412 5.53022C3.13007 5.20544 3.69842 5.28665 4.0232 5.69261L5.56585 7.68184L8.97597 3.25683C9.30074 2.85087 9.86909 2.76966 10.275 3.09444C10.681 3.41922 10.7622 3.98757 10.4374 4.39353L6.29659 9.75225C6.09361 9.95523 5.85004 10.1176 5.56585 10.1176Z" fill="white"/>
</g>
<defs>
<clipPath id="clip0_1090_4884">
<rect width="13" height="13" fill="white"/>
</clipPath>
</defs>
</svg>
