<svg width="100" height="100" viewBox="0 0 100 100" fill="none" xmlns="http://www.w3.org/2000/svg">
<g clip-path="url(#clip0_1090_485)">
<path d="M41.2312 75.3922C44.4207 72.4164 44.9101 67.7573 42.3243 64.9856C39.7384 62.214 35.0565 62.3795 31.867 65.3552C28.6774 68.331 28.188 72.9901 30.7739 75.7618C33.3597 78.5334 38.0416 78.3679 41.2312 75.3922Z" fill="#454565"/>
<path d="M83.4401 75.3912C86.6297 72.4154 87.1191 67.7562 84.5332 64.9846C81.9474 62.213 77.2655 62.3784 74.076 65.3542C70.8864 68.3299 70.397 72.9891 72.9829 75.7607C75.5687 78.5324 80.2506 78.3669 83.4401 75.3912Z" fill="#454565"/>
<path d="M7.75 39.0205C7.75 37.1787 6.25689 35.6855 4.41504 35.6855C2.57319 35.6855 1.08008 37.1787 1.08008 39.0205C1.08008 40.8624 2.57319 42.3555 4.41504 42.3555C6.25689 42.3555 7.75 40.8624 7.75 39.0205Z" fill="#EC3361"/>
<path d="M67.6953 69.7152C68.8809 63.8558 74.416 59.1996 80.3652 59.1996C86.3145 59.1996 90.2246 63.5179 90.1113 69.0707C96.3066 69.2328 98.0312 61.0746 98.0312 61.0746C98.5527 58.7933 99.332 54.3461 99.9844 49.9808C100.193 48.5824 100.029 47.2094 99.5098 45.9945C98.5059 43.6469 96.5371 39.4535 93.6621 35.1586C91.5176 31.9554 87.9102 30.0551 83.7969 29.9886C81.3438 29.9476 78.9336 29.9261 77.1172 29.9261L77.1016 29.9105C76.8691 25.9867 74.0078 22.9847 69.9941 22.6254C67.3828 22.391 57.0391 22.223 52.0742 22.223C50.1016 22.223 47.2695 22.2504 44.4062 22.2972V22.2855H44.3867L44.377 22.2816L44.3691 22.2855H9.95508C8.11328 22.2855 6.61914 23.7797 6.61914 25.6215V25.639C6.61914 27.4711 8.10547 28.9574 9.9375 28.9574L16.877 28.9672C18.5977 29.0902 19.9531 30.5238 19.9531 32.2758V32.2933C19.9531 34.1351 18.459 35.6293 16.6172 35.6293H13.0625C11.2207 35.6293 9.72656 37.1234 9.72656 38.9652C9.72656 40.807 11.2207 42.3011 13.0625 42.3011H16.6172C18.459 42.3011 19.9531 43.7953 19.9531 45.6371C19.9531 47.4789 18.459 48.973 16.6172 48.973H3.3125C1.4707 48.973 -0.0234375 50.4672 -0.0234375 52.309C-0.0234375 54.1508 1.4707 55.6449 3.3125 55.6449H16.6211C18.4629 55.6449 19.957 57.139 19.957 58.9808C19.957 60.8226 18.4629 62.3168 16.6211 62.3168H12.5078C10.666 62.3168 9.17188 63.8109 9.17188 65.6527C9.17188 67.4945 10.666 68.9886 12.5078 68.9886L25.6426 68.9789L26.7363 66.2582C28.9727 62.1312 33.4219 59.2094 38.1328 59.2094C44.084 59.2094 48.3125 63.8695 47.8457 69.7328H67.6914M76.8008 34.5551C78.543 34.557 80.8027 34.5804 83.0684 34.6176C85.8145 34.6625 88.2168 35.9222 89.6582 38.0765C91.4023 40.684 92.7969 43.264 93.8066 45.3285C94.4492 46.641 93.2656 48.35 91.7129 48.35H75.0625L76.8008 34.5551Z" fill="#EC3361"/>
<path d="M69.9922 22.623C67.3809 22.3887 57.0371 22.2207 52.0723 22.2207C50.0996 22.2207 47.2676 22.248 44.4043 22.2949V22.2832H44.3848L44.375 22.2793L44.3672 22.2832H9.95508C8.11328 22.2832 6.61914 23.7773 6.61914 25.6191V25.6367C6.61914 27.4687 8.10547 28.9551 9.9375 28.9551L16.877 28.9648C18.5977 29.0879 19.9531 30.5215 19.9531 32.2734V32.291C19.9531 34.1328 18.459 35.627 16.6172 35.627H13.0625C11.2207 35.627 9.72656 37.1211 9.72656 38.9629C9.72656 40.8047 11.2207 42.2988 13.0625 42.2988H16.6172C18.459 42.2988 19.9531 43.793 19.9531 45.6348C19.9531 47.4766 18.459 48.9707 16.6172 48.9707H3.3125C1.65234 48.9707 0.279297 50.1855 0.0234375 51.7754V52.8379C0.279297 54.4258 1.65234 55.6426 3.3125 55.6426H16.6211C18.4629 55.6426 19.957 57.1367 19.957 58.9785C19.957 59.7715 19.6797 60.498 19.2168 61.0703C20.7402 61.1992 22.2793 61.2656 23.8359 61.2656C26.8281 61.2656 29.7637 61.0176 32.623 60.5508C34.3281 59.6914 36.209 59.2031 38.1328 59.2031C38.2988 59.2031 38.4629 59.209 38.627 59.2148C55.6094 54.3906 69.1836 41.4688 74.9141 24.8867C73.6719 23.627 71.9727 22.8047 69.9902 22.627L69.9922 22.623Z" fill="#BA284C"/>
<path d="M57.6818 34.5898H51.3166C50.5588 34.5898 49.8576 35.2051 49.7502 35.9629L48.2092 46.9238C48.1017 47.6816 48.631 48.2969 49.3888 48.2969H55.7541C56.4221 48.2969 57.0392 47.7559 57.133 47.0879C57.2267 46.4199 56.7619 45.8789 56.0939 45.8789H50.9631C50.9533 45.8789 50.9455 45.8691 50.9455 45.8594L51.4357 42.3711C51.4357 42.3711 51.4435 42.3574 51.4533 42.3574H55.4455C56.1135 42.3574 56.7306 41.8164 56.8244 41.1484C56.9181 40.4805 56.4533 39.9395 55.7853 39.9395H51.7971C51.7873 39.9395 51.7795 39.9297 51.7795 39.9199L52.1877 37.0215C52.1877 37.0215 52.1955 37.0078 52.2053 37.0078H57.34C58.008 37.0078 58.6252 36.4668 58.7189 35.7988C58.8127 35.1309 58.3478 34.5898 57.6799 34.5898H57.6818Z" fill="white"/>
<path d="M34.9736 34.5901H29.2646C28.5068 34.5901 27.8057 35.2053 27.6982 35.9631L26.1474 47.0022C26.0478 47.717 26.5459 48.2971 27.2607 48.2971C27.9756 48.2971 28.6357 47.717 28.7373 47.0022L29.3349 42.7522C29.3349 42.7522 29.3428 42.7385 29.3525 42.7385H32.6885C33.4033 42.7385 34.0635 42.1584 34.165 41.4436C34.2646 40.7288 33.7666 40.1487 33.0517 40.1487H29.7197C29.7099 40.1487 29.7021 40.1389 29.7021 40.1292L30.1142 37.1936C30.1142 37.1936 30.1221 37.1799 30.1318 37.1799H34.6103C35.3252 37.1799 35.9873 36.5999 36.0869 35.885C36.1865 35.1702 35.6885 34.5901 34.9736 34.5901Z" fill="white"/>
<path d="M46.5732 35.4747C45.4775 34.5332 43.542 34.5899 43.542 34.5899H39.1279C38.3701 34.5899 37.6689 35.2051 37.5615 35.9629L36.0107 47.002C35.9111 47.7168 36.4092 48.2969 37.124 48.2969C37.8389 48.2969 38.499 47.7168 38.6006 47.002L39.0693 43.6661C39.0693 43.6661 39.0771 43.6524 39.0869 43.6524H41.9482C41.9482 43.6524 41.9619 43.6563 41.9639 43.6641L43.3076 47.5684C43.4619 48.0157 43.874 48.2989 44.3701 48.2989H44.4189C45.376 48.2989 46.1435 47.2969 45.8447 46.4375L44.7334 43.2364C44.7334 43.2364 44.7334 43.2188 44.7432 43.2149C45.374 42.9493 45.8994 42.5684 46.3193 42.0684C47.0049 41.252 47.4287 40.2715 47.5908 39.1231C47.6982 38.3555 47.6728 37.6582 47.5127 37.0332C47.3525 36.4082 47.04 35.8887 46.5752 35.4766L46.5732 35.4747ZM44.9795 39.1211C44.9795 39.1211 44.7197 41.2344 42.4932 41.2344H39.4092L40.0029 37.0079H43.0869C43.0869 37.0079 45.3525 36.8633 44.9795 39.1211Z" fill="white"/>
<path d="M68.3478 34.5898H61.9826C61.2248 34.5898 60.5236 35.2051 60.4162 35.9629L58.8752 46.9238C58.7678 47.6816 59.2971 48.2969 60.0549 48.2969H66.4201C67.0881 48.2969 67.7053 47.7559 67.799 47.0879C67.8928 46.4199 67.4279 45.8789 66.7599 45.8789H61.6291C61.6193 45.8789 61.6115 45.8691 61.6115 45.8594L62.1017 42.3711C62.1017 42.3711 62.1095 42.3574 62.1193 42.3574H66.1115C66.7795 42.3574 67.3967 41.8164 67.4904 41.1484C67.5842 40.4805 67.1193 39.9395 66.4513 39.9395H62.4631C62.4533 39.9395 62.4455 39.9297 62.4455 39.9199L62.8537 37.0215C62.8537 37.0215 62.8615 37.0078 62.8713 37.0078H68.006C68.674 37.0078 69.2912 36.4668 69.3849 35.7988C69.4787 35.1309 69.0138 34.5898 68.3459 34.5898H68.3478Z" fill="white"/>
</g>
<defs>
<clipPath id="clip0_1090_485">
<rect width="100" height="100" fill="white"/>
</clipPath>
</defs>
</svg>
