<svg width="100" height="100" viewBox="0 0 100 100" fill="none" xmlns="http://www.w3.org/2000/svg">
<g clip-path="url(#clip0_1090_500)">
<path d="M12.6509 55.7833C12.4686 55.7839 12.2912 55.7246 12.1458 55.6147C12.0004 55.5048 11.8951 55.3503 11.8459 55.1748C11.7967 54.9993 11.8065 54.8125 11.8736 54.6431C11.9407 54.4736 12.0615 54.3309 12.2175 54.2366L21.0175 48.89L9.27254 55.6666C9.08311 55.7714 8.86036 55.7983 8.65144 55.7417C8.44251 55.6851 8.26381 55.5494 8.15315 55.3634C8.04248 55.1774 8.00854 54.9556 8.05851 54.745C8.10848 54.5344 8.23844 54.3515 8.42088 54.235L29.8325 41.1283L4.63588 55.6666C4.44714 55.7674 4.22686 55.7918 4.02066 55.7346C3.81446 55.6775 3.63815 55.5432 3.52825 55.3596C3.41836 55.176 3.38329 54.9572 3.43032 54.7484C3.47735 54.5397 3.60287 54.357 3.78088 54.2383L37.5209 33.38L2.13254 53.81C1.9436 53.914 1.72167 53.9408 1.51342 53.8846C1.30516 53.8284 1.12681 53.6936 1.01587 53.5087C0.904919 53.3237 0.870022 53.1029 0.918513 52.8927C0.967003 52.6825 1.0951 52.4993 1.27588 52.3816L39.3325 28.7633L2.13254 50.2366C1.94203 50.3489 1.71472 50.3809 1.50061 50.3256C1.28651 50.2703 1.10315 50.1322 0.990876 49.9416C0.878601 49.7511 0.846606 49.5238 0.901929 49.3097C0.957253 49.0956 1.09536 48.9122 1.28588 48.8L2.32588 48.175L2.13254 48.2866C1.94323 48.3933 1.71975 48.4218 1.50973 48.366C1.29972 48.3103 1.11978 48.1747 1.00828 47.9882C0.896771 47.8017 0.862518 47.5791 0.912817 47.3677C0.963117 47.1563 1.09399 46.9729 1.27754 46.8566L28.4292 30.07L2.13254 45.25C1.94623 45.3389 1.73356 45.3555 1.53572 45.2965C1.33787 45.2376 1.16895 45.1073 1.06168 44.9309C0.954401 44.7546 0.916408 44.5446 0.955057 44.3419C0.993706 44.1391 1.10625 43.9579 1.27088 43.8333L32.8975 23.8883L2.13254 41.65C1.9442 41.7552 1.72237 41.7834 1.51372 41.7284C1.30507 41.6735 1.12586 41.5397 1.01381 41.3554C0.901751 41.171 0.86558 40.9503 0.912903 40.7398C0.960226 40.5293 1.08736 40.3453 1.26754 40.2266L30.6425 21.51L2.13254 37.97C1.94311 38.0747 1.72036 38.1016 1.51144 38.045C1.30251 37.9884 1.12381 37.8528 1.01314 37.6667C0.90248 37.4807 0.868542 37.2589 0.918511 37.0483C0.968481 36.8377 1.09844 36.6548 1.28088 36.5383L2.06588 36.06C1.87292 36.1515 1.65221 36.1654 1.4493 36.0989C1.24638 36.0323 1.07674 35.8905 0.975385 35.7025C0.87403 35.5146 0.848696 35.2949 0.904611 35.0888C0.960527 34.8827 1.09342 34.7059 1.27588 34.595L12.6525 27.5133L2.13254 33.585C1.94542 33.6812 1.72882 33.7031 1.52624 33.6462C1.32365 33.5893 1.15008 33.4579 1.04037 33.2784C0.930658 33.0988 0.892929 32.8844 0.934757 32.6782C0.976586 32.472 1.09488 32.2892 1.26588 32.1666L19.9575 20.1666L2.13254 30.4566C1.9436 30.5607 1.72167 30.5874 1.51342 30.5312C1.30516 30.4751 1.12681 30.3403 1.01587 30.1553C0.904919 29.9703 0.870022 29.7495 0.918513 29.5394C0.967003 29.3292 1.0951 29.146 1.27588 29.0283L2.35254 28.3616L2.13254 28.4883C1.94524 28.5948 1.72395 28.6247 1.51512 28.5716C1.30629 28.5185 1.12614 28.3865 1.0125 28.2034C0.898859 28.0204 0.860551 27.8004 0.905618 27.5897C0.950685 27.379 1.07562 27.1939 1.25421 27.0733L18.6225 15.51L2.13254 25.03C1.94582 25.1383 1.72433 25.17 1.51471 25.1183C1.3051 25.0666 1.12373 24.9356 1.00881 24.7528C0.893879 24.5701 0.854365 24.3498 0.898586 24.1385C0.942807 23.9272 1.06731 23.7413 1.24588 23.62L15.9125 13.62L2.13254 21.5833C1.94694 21.6903 1.72724 21.7218 1.51908 21.6711C1.31091 21.6204 1.13027 21.4914 1.01466 21.3111C0.899057 21.1307 0.857366 20.9127 0.898248 20.7024C0.939131 20.4921 1.05945 20.3056 1.23421 20.1816L13.6509 11.38L2.13254 18.0283C1.9461 18.1305 1.72764 18.1576 1.52188 18.104C1.31613 18.0504 1.13864 17.9202 1.02576 17.74C0.912881 17.5598 0.873143 17.3433 0.914683 17.1348C0.956222 16.9262 1.0759 16.7415 1.24921 16.6183L4.95088 14.1183L2.13254 15.7383C1.94623 15.8581 1.71996 15.899 1.50351 15.8519C1.28706 15.8049 1.09817 15.6738 0.978376 15.4875C0.858587 15.3012 0.817717 15.0749 0.864757 14.8584C0.911798 14.642 1.0429 14.4531 1.22921 14.3333L6.16588 10.7916L2.13254 13.12C1.95359 13.2221 1.74313 13.2544 1.5418 13.2105C1.34047 13.1666 1.16254 13.0496 1.04238 12.8822C0.922213 12.7148 0.868333 12.5088 0.891141 12.304C0.913949 12.0993 1.01183 11.9102 1.16588 11.7733L7.02588 6.60664L2.13254 9.4283C1.96148 9.52638 1.76118 9.56063 1.56725 9.52495C1.37332 9.48927 1.19833 9.38598 1.07338 9.23344C0.948427 9.0809 0.881615 8.88899 0.884819 8.69183C0.888022 8.49467 0.961035 8.30504 1.09088 8.15664L3.88754 4.98997L2.13254 5.99997C1.97422 6.08803 1.79151 6.1221 1.61209 6.09702C1.43267 6.07194 1.26631 5.98907 1.13821 5.86097C1.01011 5.73287 0.927239 5.56651 0.902157 5.38709C0.877076 5.20767 0.911147 5.02496 0.99921 4.86664L1.68588 3.6583C1.5154 3.63199 1.3573 3.55342 1.23337 3.43345C1.10944 3.31347 1.0258 3.15799 0.993975 2.98846C0.962154 2.81893 0.983724 2.6437 1.05571 2.48695C1.1277 2.3302 1.24655 2.19965 1.39588 2.1133L3.33254 0.999971C3.49099 0.908302 3.67521 0.871354 3.85675 0.894833C4.03829 0.918311 4.20704 1.00091 4.33695 1.12987C4.46686 1.25883 4.5507 1.42698 4.57551 1.60834C4.60031 1.78971 4.56472 1.97419 4.47421 2.1333L3.96588 3.02664L7.46754 0.999971C7.63813 0.898984 7.83943 0.862939 8.03447 0.898455C8.2295 0.933971 8.40517 1.03866 8.52921 1.1933C8.65423 1.34625 8.72084 1.53864 8.71718 1.73614C8.71352 1.93365 8.63981 2.12343 8.50921 2.27164L5.71088 5.4383L13.4092 0.999971C13.5879 0.899582 13.7974 0.86858 13.9975 0.912894C14.1976 0.957207 14.3744 1.07373 14.494 1.24017C14.6137 1.40662 14.6677 1.61132 14.6459 1.81514C14.6242 2.01895 14.528 2.20759 14.3759 2.34497L8.51921 7.51164L19.8025 0.999971C19.9876 0.892951 20.2066 0.861122 20.4145 0.911064C20.6223 0.961006 20.803 1.0889 20.9192 1.2683C21.0356 1.448 21.0784 1.66561 21.0387 1.876C20.999 2.08639 20.8798 2.27342 20.7059 2.3983L15.7692 5.93997L24.3325 0.999971C24.519 0.897763 24.7375 0.870687 24.9432 0.924287C25.149 0.977887 25.3264 1.10811 25.4393 1.28829C25.5522 1.46847 25.5919 1.68499 25.5504 1.89351C25.5089 2.10204 25.3892 2.2868 25.2159 2.40997L21.5109 4.91664L28.3042 0.999971C28.4894 0.896801 28.707 0.86812 28.9127 0.919768C29.1183 0.971416 29.2966 1.09951 29.4111 1.27796C29.5256 1.45641 29.5677 1.6718 29.529 1.88026C29.4903 2.08872 29.3735 2.27457 29.2025 2.39997L16.7875 11.2L34.4625 0.999971C34.6487 0.898831 34.8664 0.872404 35.0714 0.926065C35.2764 0.979726 35.4532 1.10944 35.5659 1.28884C35.6787 1.46823 35.7188 1.68383 35.6783 1.89178C35.6377 2.09974 35.5194 2.28443 35.3475 2.4083L20.6809 12.3983L40.4292 0.999971C40.6161 0.897951 40.8349 0.871316 41.0408 0.925533C41.2466 0.97975 41.424 1.11071 41.5363 1.29153C41.6487 1.47235 41.6876 1.68932 41.6451 1.89792C41.6025 2.10652 41.4818 2.29093 41.3075 2.4133L23.9375 13.9733L46.4175 0.999971C46.6063 0.899163 46.8266 0.874818 47.0328 0.931978C47.239 0.989138 47.4153 1.12342 47.5252 1.30702C47.6351 1.49061 47.6701 1.70944 47.6231 1.91818C47.5761 2.12692 47.4506 2.30958 47.2725 2.4283L46.1975 3.09497L49.8325 0.999971C50.0206 0.896566 50.2412 0.869672 50.4486 0.924889C50.6559 0.980106 50.834 1.11318 50.9457 1.29639C51.0574 1.47961 51.0941 1.69885 51.0482 1.90846C51.0023 2.11806 50.8773 2.30188 50.6992 2.42164L31.9992 14.4166L55.2492 0.999971C55.4384 0.890871 55.6629 0.860412 55.8743 0.915149C56.0858 0.969887 56.2673 1.10544 56.3798 1.29265C56.4923 1.47986 56.5268 1.70375 56.4759 1.91614C56.425 2.12853 56.2927 2.31244 56.1076 2.4283L44.7392 9.49997L59.4725 0.999971C59.6618 0.898849 59.8827 0.87459 60.0893 0.932243C60.2959 0.989897 60.4724 1.12502 60.5819 1.30949C60.6914 1.49396 60.7256 1.71356 60.6773 1.92258C60.629 2.1316 60.5019 2.31394 60.3226 2.43164L59.6409 2.8483L62.8442 0.999971C63.0326 0.894695 63.2544 0.866573 63.463 0.921522C63.6717 0.976471 63.8509 1.11021 63.963 1.29459C64.075 1.47898 64.1112 1.69964 64.0639 1.91015C64.0165 2.12066 63.8894 2.30461 63.7092 2.4233L34.3325 21.135L69.2175 0.999971C69.406 0.896327 69.6273 0.869571 69.835 0.925299C70.0428 0.981027 70.2209 1.11492 70.3322 1.29898C70.4435 1.48304 70.4793 1.703 70.4322 1.91285C70.385 2.12271 70.2586 2.30621 70.0792 2.42497L38.4559 22.3566L75.4526 0.999971C75.6413 0.899163 75.8616 0.874818 76.0678 0.931978C76.274 0.989138 76.4503 1.12342 76.5602 1.30702C76.6701 1.49061 76.7051 1.70944 76.6581 1.91818C76.6111 2.12692 76.4856 2.30958 76.3075 2.4283L49.1659 19.21L80.7109 0.999971C80.9008 0.894158 81.1246 0.866778 81.3345 0.923675C81.5443 0.980572 81.7236 1.11724 81.8341 1.30451C81.9446 1.49178 81.9776 1.71482 81.9259 1.92602C81.8742 2.13723 81.742 2.31987 81.5576 2.43497L80.5575 3.03997L83.7092 1.21497C83.898 1.11416 84.1182 1.08982 84.3244 1.14698C84.5306 1.20414 84.7069 1.33842 84.8168 1.52202C84.9267 1.70561 84.9618 1.92444 84.9148 2.13318C84.8678 2.34192 84.7422 2.52458 84.5642 2.6433L46.4992 26.275L84.5326 4.31497C84.7211 4.21678 84.9401 4.19436 85.1446 4.25231C85.3492 4.31025 85.5238 4.44419 85.6328 4.62669C85.7419 4.80919 85.777 5.02647 85.7311 5.23404C85.6852 5.44162 85.5617 5.6238 85.3859 5.7433L51.6659 26.5916L84.5326 7.6183C84.7224 7.51012 84.9472 7.48083 85.1584 7.53675C85.3696 7.59267 85.5505 7.72932 85.6619 7.91727C85.7734 8.10522 85.8065 8.32943 85.7543 8.5416C85.702 8.75378 85.5685 8.93694 85.3826 9.05164L63.9776 22.1666L84.5326 10.2966C84.7221 10.1936 84.9443 10.168 85.1523 10.2254C85.3603 10.2828 85.5379 10.4186 85.6478 10.6043C85.7577 10.79 85.7913 11.011 85.7415 11.221C85.6917 11.4309 85.5625 11.6134 85.3809 11.73L76.5875 17.0733L84.5326 12.4866C84.7215 12.3826 84.9434 12.3558 85.1517 12.412C85.3599 12.4682 85.5383 12.603 85.6492 12.788C85.7602 12.9729 85.7951 13.1937 85.7466 13.4039C85.6981 13.6141 85.57 13.7973 85.3892 13.915L59.0442 30.38L84.5326 15.6666C84.7219 15.56 84.9453 15.5315 85.1554 15.5872C85.3654 15.643 85.5453 15.7785 85.6568 15.965C85.7683 16.1515 85.8026 16.3742 85.7523 16.5856C85.702 16.797 85.5711 16.9804 85.3876 17.0966L67.5326 28.1783L84.5326 18.365C84.7211 18.2668 84.9401 18.2444 85.1446 18.3023C85.3492 18.3603 85.5238 18.4942 85.6328 18.6767C85.7419 18.8592 85.777 19.0765 85.7311 19.284C85.6852 19.4916 85.5617 19.6738 85.3859 19.7933L73.7192 27.0116L84.5275 20.7733C84.7158 20.6727 84.9356 20.6481 85.1414 20.7048C85.3473 20.7614 85.5235 20.8949 85.6338 21.0777C85.7441 21.2605 85.7801 21.4786 85.7343 21.6871C85.6884 21.8956 85.5643 22.0786 85.3876 22.1983L69.1326 32.435L84.5326 23.545C84.7201 23.4417 84.9403 23.4145 85.1473 23.4692C85.3544 23.5239 85.5324 23.6562 85.6445 23.8386C85.7567 24.021 85.7942 24.2396 85.7495 24.4491C85.7048 24.6585 85.5811 24.8426 85.4042 24.9633L63.4126 39.36L84.5326 27.1666C84.7197 27.0633 84.9394 27.0359 85.1462 27.09C85.353 27.1441 85.5311 27.2756 85.6437 27.4573C85.7563 27.639 85.7947 27.857 85.7511 28.0663C85.7074 28.2756 85.5851 28.4601 85.4092 28.5816L66.9592 40.8216L84.5326 30.6783C84.7196 30.5735 84.9398 30.5447 85.1474 30.5981C85.355 30.6514 85.5341 30.7828 85.6475 30.9647C85.7608 31.1467 85.7996 31.3654 85.7558 31.5753C85.7121 31.7851 85.5891 31.9701 85.4126 32.0916L70.7225 41.96L84.5326 33.9883C84.7203 33.8864 84.9399 33.8605 85.1462 33.9159C85.3525 33.9713 85.5296 34.1037 85.641 34.286C85.7524 34.4682 85.7897 34.6862 85.745 34.8951C85.7003 35.1039 85.5771 35.2876 85.4009 35.4083L82.1376 37.5166L84.5326 36.135C84.718 36.0308 84.9364 36.0015 85.1428 36.053C85.3492 36.1046 85.528 36.2332 85.6427 36.4124C85.7573 36.5917 85.7991 36.8079 85.7594 37.017C85.7197 37.226 85.6016 37.4119 85.4292 37.5366L74.8726 44.97L84.5392 39.395C84.7253 39.2925 84.9434 39.2649 85.1491 39.3179C85.3548 39.3709 85.5324 39.5004 85.6459 39.6799C85.7593 39.8595 85.7998 40.0756 85.7592 40.2841C85.7187 40.4926 85.6 40.6777 85.4276 40.8016L81.4842 43.5083L84.5392 41.745C84.7221 41.6394 84.9383 41.6071 85.144 41.6548C85.3497 41.7024 85.5297 41.8264 85.6476 42.0016C85.7656 42.1774 85.8124 42.3914 85.7783 42.6004C85.7443 42.8093 85.632 42.9975 85.4642 43.1266L79.1809 47.96L84.5392 44.8683C84.724 44.7605 84.9432 44.7279 85.1514 44.7772C85.3595 44.8266 85.5407 44.9541 85.6575 45.1334C85.7742 45.3127 85.8175 45.53 85.7785 45.7403C85.7394 45.9507 85.6209 46.1379 85.4476 46.2633L84.8259 46.715C84.9774 46.6927 85.1322 46.7119 85.2736 46.7706C85.4151 46.8293 85.538 46.9253 85.6292 47.0483C85.7504 47.2145 85.8059 47.4196 85.785 47.6242C85.7641 47.8288 85.6682 48.0184 85.5159 48.1566L83.1409 50.305L84.5392 49.4983C84.6936 49.4091 84.8725 49.3719 85.0497 49.3919C85.2268 49.412 85.3929 49.4883 85.5234 49.6097C85.654 49.7312 85.7422 49.8912 85.775 50.0665C85.8078 50.2417 85.7836 50.4229 85.7059 50.5833L84.5942 52.8716C84.7888 52.7917 85.0065 52.7882 85.2035 52.8621C85.4005 52.9359 85.5623 53.0815 85.6564 53.2697C85.7505 53.4579 85.7699 53.6747 85.7107 53.8766C85.6516 54.0785 85.5183 54.2506 85.3375 54.3583L83.0776 55.6633C82.9232 55.7525 82.7442 55.7897 82.5671 55.7697C82.3899 55.7496 82.2239 55.6733 82.0933 55.5519C81.9628 55.4305 81.8746 55.2704 81.8418 55.0951C81.8089 54.9199 81.8332 54.7388 81.9109 54.5783L83.0192 52.3L77.1859 55.6633C77.0085 55.7609 76.8017 55.7906 76.6041 55.7468C76.4065 55.7031 76.2315 55.5889 76.1119 55.4256C75.9923 55.2623 75.9362 55.0611 75.9541 54.8595C75.972 54.6578 76.0627 54.4696 76.2092 54.33L78.5826 52.1833L72.5392 55.6666C72.3544 55.7744 72.1353 55.807 71.9271 55.7577C71.7189 55.7084 71.5377 55.5808 71.421 55.4016C71.3042 55.2223 71.2609 55.005 71.3 54.7946C71.3391 54.5843 71.4575 54.397 71.6309 54.2716L71.8292 54.1283L69.1626 55.6666C68.9794 55.7741 68.7622 55.8076 68.5552 55.7602C68.3482 55.7129 68.1671 55.5884 68.0488 55.412C67.9305 55.2357 67.884 55.0209 67.9188 54.8114C67.9536 54.6019 68.067 54.4136 68.2359 54.285L74.5209 49.4433L63.7425 55.6666C63.5565 55.7691 63.3384 55.7967 63.1327 55.7437C62.927 55.6907 62.7493 55.5612 62.6359 55.3817C62.5225 55.2021 62.482 54.986 62.5225 54.7775C62.5631 54.569 62.6817 54.3839 62.8542 54.26L66.7975 51.555L59.6659 55.6666C59.4804 55.7708 59.2621 55.8002 59.0557 55.7486C58.8492 55.697 58.6704 55.5684 58.5557 55.3892C58.4411 55.2099 58.3993 54.9937 58.439 54.7846C58.4787 54.5756 58.5968 54.3897 58.7692 54.265L69.3326 46.8333L54.0275 55.6666C53.8398 55.7685 53.6202 55.7944 53.4139 55.7391C53.2076 55.6837 53.0305 55.5512 52.9191 55.369C52.8076 55.1868 52.7704 54.9687 52.8151 54.7599C52.8598 54.551 52.983 54.3673 53.1592 54.2466L56.4259 52.135L50.3075 55.6666C50.1208 55.7701 49.9015 55.7979 49.6949 55.7444C49.4883 55.6909 49.31 55.5601 49.197 55.3791C49.0839 55.1981 49.0446 54.9805 49.0872 54.7714C49.1298 54.5622 49.251 54.3774 49.4259 54.255L64.1159 44.3866L44.5759 55.6666C44.3887 55.77 44.169 55.7974 43.9622 55.7433C43.7554 55.6892 43.5773 55.5577 43.4647 55.376C43.3522 55.1943 43.3137 54.9762 43.3573 54.767C43.401 54.5577 43.5234 54.3732 43.6992 54.2516L62.1492 42.0116L38.4992 55.6666C38.3119 55.7686 38.0927 55.7948 37.8867 55.74C37.6806 55.6852 37.5034 55.5535 37.3915 55.372C37.2796 55.1905 37.2416 54.973 37.2852 54.7643C37.3288 54.5556 37.4507 54.3715 37.6259 54.25L59.6259 39.8483L32.2192 55.6666C32.0307 55.7703 31.8095 55.797 31.6018 55.7413C31.394 55.6856 31.2159 55.5517 31.1046 55.3676C30.9933 55.1836 30.9574 54.9636 31.0046 54.7538C31.0517 54.5439 31.1782 54.3604 31.3575 54.2416L47.6159 44.0066L27.4192 55.6733C27.2303 55.7774 27.0083 55.8041 26.8001 55.7479C26.5918 55.6917 26.4135 55.557 26.3025 55.372C26.1916 55.187 26.1567 54.9662 26.2052 54.756C26.2537 54.5458 26.3818 54.3627 26.5625 54.245L38.2292 47.02L23.2459 55.6666C23.0569 55.7707 22.835 55.7974 22.6268 55.7412C22.4185 55.6851 22.2401 55.5503 22.1292 55.3653C22.0183 55.1803 21.9834 54.9595 22.0318 54.7494C22.0803 54.5392 22.2084 54.356 22.3892 54.2383L40.2392 43.1666L18.5725 55.6766C18.3839 55.7788 18.1632 55.8043 17.9563 55.7478C17.7493 55.6914 17.5721 55.5573 17.4616 55.3735C17.351 55.1897 17.3155 54.9703 17.3626 54.7611C17.4097 54.5518 17.5356 54.3687 17.7142 54.25L44.0476 37.7883L13.0675 55.6666C12.9414 55.7415 12.7976 55.7818 12.6509 55.7833Z" fill="#BA284C"/>
<path d="M32.8942 49.1166C32.7139 49.1171 32.5383 49.059 32.3938 48.9512C32.2492 48.8433 32.1436 48.6915 32.0927 48.5185C32.0418 48.3455 32.0484 48.1607 32.1114 47.9918C32.1745 47.8228 32.2907 47.6789 32.4426 47.5816L48.3342 37.3716L28.1842 49C27.9964 49.1005 27.7771 49.1253 27.5716 49.0692C27.366 49.0132 27.1897 48.8805 27.079 48.6984C26.9682 48.5164 26.9314 48.2989 26.9761 48.0905C27.0208 47.8822 27.1436 47.6989 27.3192 47.5783L45.5459 35.935L22.9126 49C22.7244 49.1019 22.5042 49.1276 22.2977 49.0717C22.0911 49.0157 21.914 48.8825 21.803 48.6995C21.692 48.5165 21.6557 48.2978 21.7015 48.0888C21.7473 47.8798 21.8719 47.6964 22.0492 47.5766L40.5392 35.8333L17.8342 48.9333C17.6461 49.0353 17.4259 49.0609 17.2193 49.005C17.0128 48.9491 16.8356 48.8158 16.7247 48.6328C16.6137 48.4498 16.5773 48.2312 16.6232 48.0221C16.669 47.8131 16.7935 47.6297 16.9709 47.51L39.1676 33.3733L16.6809 46.3533C16.4919 46.468 16.2651 46.5029 16.0504 46.4504C15.8357 46.3979 15.6506 46.2623 15.5359 46.0733C15.4212 45.8843 15.3862 45.6575 15.4387 45.4428C15.4913 45.2281 15.6269 45.043 15.8159 44.9283L37.7209 30.9766L15.3475 43.8933C15.1586 44.008 14.9318 44.0429 14.7171 43.9904C14.5023 43.9379 14.3173 43.8023 14.2025 43.6133C14.0878 43.4243 14.0529 43.1975 14.1054 42.9828C14.1579 42.7681 14.2936 42.583 14.4825 42.4683L36.2892 28.5933L13.1675 41.9433C12.9795 42.0467 12.7589 42.0736 12.5515 42.0184C12.3442 41.9632 12.1661 41.8301 12.0544 41.6469C11.9427 41.4637 11.906 41.2444 11.9519 41.0348C11.9978 40.8252 12.1228 40.6414 12.3009 40.5216L33.7459 26.7516L9.61088 40.685C9.42317 40.7869 9.2035 40.8128 8.99723 40.7574C8.79096 40.702 8.61383 40.5695 8.5024 40.3873C8.39098 40.2051 8.35377 39.9871 8.39846 39.7782C8.44315 39.5694 8.56632 39.3856 8.74255 39.265L29.1342 26.12L8.80088 37.8583C8.61125 37.9719 8.38426 38.0055 8.16984 37.9518C7.95543 37.898 7.77115 37.7613 7.65755 37.5716C7.54395 37.382 7.51033 37.155 7.56409 36.9406C7.61785 36.7262 7.75458 36.5419 7.94421 36.4283L9.31088 35.5816L8.80088 35.875C8.61241 35.9786 8.39116 36.0054 8.18342 35.9496C7.97567 35.8939 7.79752 35.76 7.68623 35.576C7.57493 35.3919 7.53911 35.1719 7.58626 34.9621C7.63342 34.7522 7.75988 34.5687 7.93922 34.45L13.6675 30.8433L8.80088 33.6516C8.61254 33.7569 8.39071 33.785 8.18206 33.7301C7.97341 33.6751 7.7942 33.5414 7.68215 33.357C7.57009 33.1726 7.53392 32.952 7.58124 32.7415C7.62856 32.5309 7.75569 32.347 7.93588 32.2283L14.9159 27.7716L8.80088 31.3016C8.61388 31.4065 8.39367 31.4352 8.18603 31.3818C7.97839 31.3285 7.79929 31.1972 7.68598 31.0152C7.57266 30.8332 7.53385 30.6145 7.57759 30.4047C7.62134 30.1948 7.74429 30.0099 7.92088 29.8883L20.0876 21.7483L8.80088 28.2666C8.61358 28.3732 8.39229 28.403 8.18346 28.3499C7.97462 28.2968 7.79448 28.1649 7.68084 27.9818C7.5672 27.7987 7.52889 27.5787 7.57396 27.368C7.61902 27.1573 7.74396 26.9722 7.92255 26.8516L14.7559 22.3116L8.80088 25.7466C8.61388 25.8515 8.39367 25.8802 8.18603 25.8268C7.97839 25.7735 7.79929 25.6422 7.68598 25.4602C7.57266 25.2782 7.53385 25.0595 7.57759 24.8497C7.62134 24.6398 7.74429 24.4549 7.92088 24.3333L11.3925 22.0183L8.80088 23.5183C8.61579 23.6229 8.39772 23.6528 8.1913 23.6019C7.98488 23.551 7.80573 23.4231 7.69052 23.2444C7.5753 23.0657 7.53274 22.8498 7.57153 22.6407C7.61033 22.4317 7.72756 22.2454 7.89921 22.12L14.0009 17.7633L8.80422 20.7633C8.62092 20.8692 8.40419 20.9013 8.19805 20.8532C7.9919 20.8052 7.81178 20.6804 7.69426 20.5043C7.57675 20.3283 7.53064 20.1141 7.5653 19.9053C7.59996 19.6964 7.71279 19.5086 7.88088 19.38L12.8642 15.5716L9.08588 17.7516C8.9087 17.8456 8.70359 17.8724 8.50819 17.8274C8.31278 17.7823 8.14019 17.6682 8.02208 17.5062C7.90398 17.3441 7.84827 17.1449 7.86519 16.945C7.88212 16.7452 7.97053 16.5582 8.11422 16.4183L15.8342 9.4883C15.8044 9.31991 15.8271 9.14642 15.8993 8.99138C15.9714 8.83634 16.0895 8.70725 16.2375 8.62163L17.9042 7.6633C18.0815 7.56819 18.2871 7.5404 18.4832 7.58505C18.6794 7.6297 18.8527 7.74379 18.9713 7.90625C19.0899 8.06871 19.1457 8.26858 19.1285 8.46899C19.1113 8.66939 19.0221 8.8568 18.8776 8.99663L15.2009 12.3L23.2326 7.66663C23.4159 7.56075 23.6326 7.52859 23.8387 7.57668C24.0449 7.62478 24.225 7.74952 24.3425 7.92559C24.46 8.10165 24.5061 8.31584 24.4715 8.52467C24.4368 8.73349 24.324 8.9213 24.1559 9.04996L19.1676 12.8533L28.1676 7.66663C28.353 7.55779 28.5734 7.52486 28.7825 7.57471C28.9917 7.62456 29.1735 7.75333 29.2899 7.93412C29.4064 8.1149 29.4484 8.33369 29.4073 8.54475C29.3661 8.75581 29.245 8.9428 29.0692 9.06663L22.9659 13.4116L32.9259 7.66663C33.1127 7.56461 33.3316 7.53798 33.5374 7.59219C33.7433 7.64641 33.9206 7.77736 34.033 7.95819C34.1454 8.13901 34.1843 8.35598 34.1417 8.56458C34.0992 8.77318 33.9784 8.95759 33.8042 9.07996L30.3342 11.395L36.7942 7.66663C36.9811 7.56461 37.1999 7.53798 37.4058 7.59219C37.6116 7.64641 37.789 7.77736 37.9013 7.95819C38.0137 8.13901 38.0526 8.35598 38.0101 8.56458C37.9675 8.77318 37.8468 8.95759 37.6726 9.07996L30.8342 13.6183L41.1676 7.66663C41.3546 7.5618 41.5748 7.53307 41.7824 7.58642C41.9901 7.63977 42.1691 7.77108 42.2825 7.95307C42.3958 8.13506 42.4346 8.35372 42.3908 8.56359C42.3471 8.77347 42.2241 8.95841 42.0476 9.07996L29.8809 17.215L46.4159 7.66663C46.6042 7.56135 46.8261 7.53323 47.0347 7.58818C47.2434 7.64313 47.4226 7.77687 47.5346 7.96125C47.6467 8.14564 47.6828 8.3663 47.6355 8.57681C47.5882 8.78732 47.4611 8.97127 47.2809 9.08996L40.2892 13.55L50.4876 7.66663C50.676 7.56299 50.8973 7.53623 51.105 7.59196C51.3128 7.64769 51.4909 7.78158 51.6022 7.96564C51.7135 8.1497 51.7493 8.36966 51.7022 8.57951C51.655 8.78937 51.5286 8.97287 51.3492 9.09163L45.6226 12.6933L54.3342 7.66663C54.523 7.56582 54.7432 7.54148 54.9494 7.59864C55.1556 7.6558 55.3319 7.79008 55.4418 7.97368C55.5517 8.15727 55.5868 8.3761 55.5398 8.58484C55.4928 8.79358 55.3672 8.97623 55.1892 9.09496L53.8392 9.9283L57.7709 7.66663C57.9586 7.56474 58.1783 7.53882 58.3845 7.59421C58.5908 7.6496 58.7679 7.78207 58.8794 7.96429C58.9908 8.1465 59.028 8.36454 58.9833 8.57339C58.9386 8.78224 58.8154 8.96597 58.6392 9.08663L38.2476 22.2283L63.4776 7.66663C63.6656 7.56323 63.8862 7.53633 64.0936 7.59155C64.3009 7.64677 64.479 7.77984 64.5907 7.96305C64.7024 8.14627 64.7391 8.36551 64.6932 8.57511C64.6473 8.78472 64.5223 8.96854 64.3442 9.0883L42.9242 22.8333L68.9876 7.79163C69.1757 7.68966 69.3959 7.66399 69.6024 7.71993C69.809 7.77587 69.9861 7.90914 70.0971 8.09211C70.2081 8.27509 70.2444 8.49375 70.1986 8.70279C70.1528 8.91183 70.0283 9.09522 69.8509 9.21496L48.0176 23.1083L70.0176 10.405C70.2063 10.2971 70.4296 10.2673 70.64 10.3218C70.8504 10.3763 71.0312 10.5108 71.1438 10.6967C71.2564 10.8826 71.2919 11.1051 71.2428 11.3168C71.1937 11.5285 71.0638 11.7126 70.8809 11.83L49.0009 25.7716L71.3826 12.8466C71.5715 12.7319 71.7983 12.697 72.0131 12.7495C72.2278 12.802 72.4129 12.9377 72.5276 13.1266C72.6423 13.3156 72.6772 13.5424 72.6247 13.7571C72.5722 13.9719 72.4365 14.1569 72.2476 14.2716L50.0559 28.41L73.6176 14.8066C73.8057 14.7047 74.0259 14.679 74.2325 14.7349C74.439 14.7909 74.6161 14.9241 74.7271 15.1071C74.8381 15.2901 74.8744 15.5088 74.8286 15.7178C74.7828 15.9268 74.6583 16.1102 74.4809 16.23L55.9809 27.985L76.8776 15.925C77.0656 15.8216 77.2862 15.7947 77.4936 15.8499C77.7009 15.9051 77.879 16.0382 77.9907 16.2214C78.1024 16.4046 78.1391 16.6238 78.0932 16.8334C78.0473 17.0431 77.9223 17.2269 77.7442 17.3466L59.5159 29L77.8676 18.3966C78.0562 18.2861 78.2806 18.2541 78.4926 18.3075C78.7045 18.361 78.887 18.4955 79.0007 18.6822C79.1143 18.8689 79.1501 19.0928 79.1003 19.3056C79.0504 19.5184 78.919 19.7032 78.7342 19.82L62.8342 30.0366L77.8692 21.3566C78.057 21.2499 78.2788 21.2202 78.488 21.2739C78.6972 21.3275 78.8774 21.4602 78.9907 21.6441C79.1039 21.828 79.1413 22.0487 79.0951 22.2597C79.0488 22.4706 78.9224 22.6554 78.7426 22.775L62.7076 33.3333L77.8742 24.5816C78.0628 24.4663 78.2894 24.4305 78.5043 24.4822C78.7192 24.534 78.9047 24.6689 79.0201 24.8575C79.1354 25.046 79.1712 25.2726 79.1195 25.4875C79.0677 25.7024 78.9328 25.8879 78.7442 26.0033L70.3542 31.4416L77.8742 27.1083C78.0608 27.0034 78.2806 26.9743 78.4881 27.027C78.6955 27.0798 78.8747 27.2103 78.9885 27.3916C79.1023 27.5729 79.142 27.7911 79.0993 28.0008C79.0566 28.2106 78.9348 28.3959 78.7592 28.5183L67.2992 36.3183L77.8742 30.2133C78.0617 30.1019 78.2854 30.0685 78.4973 30.1202C78.7091 30.1718 78.8923 30.3045 79.0075 30.4897C79.1226 30.6749 79.1606 30.8978 79.1133 31.1107C79.0659 31.3236 78.937 31.5094 78.7542 31.6283L73.8659 34.895L77.8742 32.5816C78.0574 32.4799 78.2721 32.451 78.4756 32.5005C78.6792 32.55 78.8566 32.6743 78.9726 32.8487C79.0886 33.0232 79.1347 33.2349 79.1016 33.4417C79.0686 33.6486 78.9588 33.8354 78.7942 33.965L69.5309 41L77.8642 36.1866C78.0496 36.0809 78.2684 36.0503 78.4757 36.1011C78.6829 36.152 78.8627 36.2804 78.9781 36.4598C79.0935 36.6393 79.1357 36.8563 79.0959 37.0659C79.0561 37.2755 78.9374 37.4619 78.7642 37.5866L77.0192 38.8283L77.8392 38.3566C78.0187 38.2551 78.2295 38.2237 78.4308 38.2685C78.6321 38.3134 78.8096 38.4312 78.929 38.5994C79.0484 38.7675 79.1013 38.974 79.0773 39.1788C79.0533 39.3836 78.9542 39.5723 78.7992 39.7083L70.8826 46.5316C70.9515 46.7164 70.9526 46.9196 70.8858 47.1052C70.8189 47.2907 70.6885 47.4466 70.5176 47.545L68.0009 49C67.8214 49.1015 67.6106 49.1329 67.4093 49.0881C67.208 49.0432 67.0305 48.9254 66.9111 48.7572C66.7917 48.5891 66.7389 48.3826 66.7628 48.1778C66.7868 47.973 66.8859 47.7843 67.0409 47.6483L71.0192 44.2183L62.7276 49C62.5426 49.1022 62.3257 49.1303 62.1207 49.0787C61.9158 49.027 61.7381 48.8994 61.6237 48.7216C61.5093 48.5439 61.4667 48.3293 61.5046 48.1214C61.5424 47.9135 61.6579 47.7277 61.8276 47.6016L63.5726 46.3583L59.0009 49C58.8177 49.1036 58.602 49.1341 58.3972 49.0853C58.1924 49.0365 58.0137 48.9119 57.897 48.7368C57.7803 48.5616 57.7342 48.3487 57.768 48.1409C57.8018 47.9331 57.913 47.7458 58.0792 47.6166L67.3342 40.58L52.7342 49C52.5471 49.1084 52.325 49.1399 52.1151 49.0876C51.9052 49.0354 51.7238 48.9036 51.6093 48.72C51.4948 48.5365 51.4562 48.3156 51.5016 48.1041C51.547 47.8926 51.6728 47.707 51.8526 47.5866L56.7409 44.32L48.6326 49C48.4463 49.1036 48.2273 49.1319 48.0208 49.079C47.8143 49.0261 47.6359 48.8961 47.5223 48.7157C47.4087 48.5353 47.3686 48.3182 47.4102 48.1091C47.4518 47.9 47.5719 47.7148 47.7459 47.5916L59.2042 39.7916L43.2542 49C43.0663 49.1049 42.8451 49.1332 42.6369 49.0787C42.4287 49.0243 42.2496 48.8914 42.1372 48.7078C42.0247 48.5243 41.9877 48.3044 42.0337 48.0942C42.0798 47.8839 42.2054 47.6997 42.3842 47.58L50.7859 42.1316L38.8876 49C38.7001 49.1048 38.4794 49.1332 38.2715 49.0793C38.0637 49.0254 37.8846 48.8933 37.7718 48.7106C37.6589 48.5279 37.6209 48.3086 37.6658 48.0986C37.7107 47.8886 37.8349 47.704 38.0126 47.5833L54.0492 37.0283L33.3109 49C33.1847 49.0749 33.041 49.1151 32.8942 49.1166Z" fill="#EC3361"/>
<path d="M45.654 38.8333C45.4901 38.8333 45.3298 38.7849 45.1933 38.6943C45.0567 38.6036 44.9499 38.4748 44.8862 38.3237C44.8225 38.1727 44.8048 38.0063 44.8352 37.8452C44.8657 37.6841 44.9429 37.5356 45.0573 37.4183L48.254 34.1383L40.6773 38.5133C40.4953 38.6171 40.2808 38.6485 40.0767 38.6013C39.8725 38.554 39.6936 38.4316 39.5757 38.2584C39.4577 38.0851 39.4094 37.8738 39.4403 37.6666C39.4712 37.4593 39.579 37.2713 39.7423 37.1399L43.9273 33.8066L38.054 37.1966C37.8695 37.3032 37.6511 37.3351 37.4438 37.2856C37.2365 37.2362 37.056 37.1092 36.9394 36.9307C36.8229 36.7523 36.7791 36.536 36.8172 36.3263C36.8552 36.1166 36.9722 35.9294 37.144 35.8033L40.0407 33.6783L36.4273 35.7649C36.2434 35.8711 36.0259 35.903 35.8193 35.8542C35.6126 35.8054 35.4324 35.6796 35.3154 35.5023C35.1984 35.3251 35.1534 35.11 35.1897 34.9007C35.226 34.6915 35.3408 34.504 35.5107 34.3766L40.144 30.9083L35.0407 33.8533C34.8569 33.955 34.6415 33.9836 34.4376 33.9333C34.2337 33.8831 34.0563 33.7577 33.9409 33.5822C33.8254 33.4068 33.7805 33.1942 33.8151 32.987C33.8497 32.7799 33.9612 32.5934 34.1273 32.4649L38.559 29.1666L34.1673 31.7016C33.984 31.8075 33.7673 31.8397 33.5612 31.7916C33.355 31.7435 33.1749 31.6187 33.0574 31.4427C32.9399 31.2666 32.8937 31.0524 32.9284 30.8436C32.9631 30.6347 33.0759 30.4469 33.244 30.3183L37.709 26.8983L33.8057 29.1516C33.6246 29.2565 33.4106 29.2894 33.2064 29.2438C33.0021 29.1982 32.8225 29.0774 32.7033 28.9054C32.584 28.7334 32.5338 28.5229 32.5626 28.3156C32.5915 28.1083 32.6973 27.9195 32.859 27.7866L37.0007 24.3866L34.304 25.9416C34.1266 26.0418 33.9185 26.0736 33.7193 26.0308C33.5201 25.988 33.3434 25.8737 33.2227 25.7095C33.102 25.5453 33.0457 25.3426 33.0643 25.1397C33.083 24.9368 33.1754 24.7477 33.324 24.6083L35.854 22.2749C35.7026 22.2233 35.5692 22.1291 35.4698 22.0037C35.3705 21.8783 35.3093 21.7269 35.2937 21.5677C35.278 21.4085 35.3086 21.2481 35.3816 21.1057C35.4547 20.9634 35.5672 20.8451 35.7057 20.7649L40.5973 17.9316C40.7748 17.83 40.9835 17.7972 41.1836 17.8394C41.3837 17.8817 41.5612 17.996 41.6825 18.1607C41.8037 18.3254 41.8602 18.5289 41.8411 18.7325C41.822 18.9362 41.7287 19.1257 41.579 19.2649L40.0007 20.7266L44.9473 17.8716C45.1284 17.7667 45.3424 17.7338 45.5466 17.7794C45.7509 17.8251 45.9305 17.9459 46.0497 18.1178C46.169 18.2898 46.2192 18.5003 46.1903 18.7076C46.1615 18.9149 46.0557 19.1038 45.894 19.2366L41.7507 22.6383L47.9657 19.0516C48.1487 18.9486 48.3638 18.9185 48.568 18.9673C48.7723 19.0161 48.9506 19.1402 49.0672 19.3148C49.1839 19.4894 49.2304 19.7016 49.1973 19.909C49.1643 20.1163 49.0542 20.3036 48.889 20.4333L44.424 23.8533L50.0007 20.6333C50.1845 20.5295 50.4009 20.4993 50.6061 20.5489C50.8113 20.5985 50.99 20.7241 51.1062 20.9003C51.2224 21.0766 51.2673 21.2904 51.232 21.4985C51.1966 21.7067 51.0835 21.8936 50.9157 22.0216L46.4807 25.3333L51.4273 22.4783C51.6112 22.3721 51.8287 22.3402 52.0354 22.389C52.2421 22.4378 52.4223 22.5637 52.5393 22.7409C52.6563 22.9181 52.7012 23.1333 52.6649 23.3425C52.6286 23.5517 52.5139 23.7392 52.344 23.8666L47.714 27.3333L52.409 24.6233C52.5935 24.5167 52.8119 24.4848 53.0192 24.5343C53.2265 24.5837 53.407 24.7107 53.5236 24.8892C53.6401 25.0676 53.6839 25.2839 53.6458 25.4936C53.6078 25.7033 53.4908 25.8905 53.319 26.0166L50.4173 28.1433L52.824 26.7549C53.0061 26.6491 53.2215 26.6161 53.427 26.6627C53.6324 26.7092 53.8125 26.8318 53.9312 27.0059C54.0499 27.1799 54.0983 27.3924 54.0667 27.6006C54.035 27.8088 53.9257 27.9974 53.7607 28.1283L49.579 31.4516L52.649 29.6799C52.8231 29.5807 53.0271 29.5475 53.2237 29.5864C53.4203 29.6253 53.5963 29.7338 53.7194 29.8919C53.8425 30.0501 53.9045 30.2473 53.894 30.4474C53.8835 30.6475 53.8013 30.8372 53.6623 30.9816L50.3673 34.3616C50.5613 34.3196 50.764 34.3482 50.9387 34.4423C51.1135 34.5364 51.2489 34.6898 51.3207 34.8749C51.3924 35.06 51.3957 35.2646 51.3301 35.4519C51.2644 35.6392 51.134 35.7969 50.9623 35.8966L46.0707 38.7299C45.9432 38.8002 45.7995 38.8358 45.654 38.8333Z" fill="#BA284C"/>
<path d="M94.1062 98.6517C93.9546 98.6517 93.8058 98.6103 93.6759 98.5321C93.5461 98.4538 93.44 98.3416 93.3692 98.2075C93.2984 98.0734 93.2655 97.9225 93.2741 97.7711C93.2826 97.6197 93.3324 97.4735 93.4179 97.3483L95.3712 94.5L93.1346 95.7917C92.9643 95.89 92.7648 95.9249 92.5713 95.8903C92.3777 95.8558 92.2026 95.7539 92.077 95.6027C91.9513 95.4515 91.8831 95.2607 91.8845 95.0641C91.8859 94.8675 91.9568 94.6777 92.0846 94.5283L94.1179 92.1483L92.3946 93.1483C92.2228 93.2485 92.0209 93.284 91.8253 93.2483C91.6297 93.2126 91.4533 93.1082 91.3279 92.9539C91.2025 92.7995 91.1365 92.6055 91.1417 92.4067C91.1469 92.2079 91.223 92.0176 91.3562 91.87L93.4712 89.5L91.5546 90.6067C91.3853 90.7044 91.1871 90.7395 90.9945 90.7058C90.802 90.6721 90.6274 90.5719 90.5013 90.4226C90.3752 90.2732 90.3056 90.0843 90.3047 89.8889C90.3038 89.6934 90.3716 89.5038 90.4962 89.3533L93.4862 85.7433L90.3579 87.55C90.185 87.6479 89.9829 87.6808 89.7879 87.6428C89.5929 87.6048 89.4178 87.4984 89.2944 87.3428C89.1709 87.1871 89.1071 86.9925 89.1145 86.794C89.1218 86.5954 89.1999 86.406 89.3346 86.26L92.0596 83.3533L89.1846 85.02C89.0052 85.1245 88.7933 85.1582 88.5903 85.1147C88.3873 85.0711 88.2079 84.9534 88.0872 84.7845C87.9665 84.6156 87.9132 84.4078 87.9376 84.2016C87.9621 83.9955 88.0627 83.8059 88.2196 83.67L89.1012 82.9L88.3212 83.35C88.1438 83.4516 87.9351 83.4844 87.735 83.4422C87.5349 83.3999 87.3573 83.2856 87.2361 83.1209C87.1148 82.9562 87.0584 82.7527 87.0775 82.5491C87.0965 82.3454 87.1898 82.1559 87.3396 82.0167L89.3862 80.1317L87.1946 81.3967C87.0189 81.498 86.8123 81.5317 86.6135 81.4916C86.4147 81.4515 86.2373 81.3403 86.1146 81.1788C85.992 81.0173 85.9324 80.8166 85.9471 80.6143C85.9618 80.412 86.0498 80.222 86.1946 80.08L89.3212 77.0183L85.6912 79.1133C85.5138 79.2135 85.3058 79.2453 85.1066 79.2025C84.9073 79.1597 84.7306 79.0455 84.6099 78.8813C84.4893 78.7171 84.4329 78.5143 84.4516 78.3114C84.4702 78.1085 84.5626 77.9194 84.7112 77.78L87.5662 75.16L84.1879 77.1116C84.0126 77.2102 83.8076 77.2421 83.6107 77.2014C83.4138 77.1607 83.2382 77.0501 83.1164 76.8901C82.9946 76.7301 82.9347 76.5315 82.9479 76.3309C82.961 76.1302 83.0463 75.9411 83.1879 75.7983L87.2862 71.7416L82.0979 74.7417C81.918 74.8456 81.7057 74.8785 81.5027 74.8341C81.2998 74.7896 81.1207 74.6709 81.0008 74.5012C80.8808 74.3316 80.8285 74.1232 80.8542 73.917C80.8799 73.7108 80.9816 73.5217 81.1396 73.3867L84.0279 70.9083L80.3162 73.0333C80.1353 73.1304 79.9248 73.1572 79.7253 73.1086C79.5257 73.06 79.3512 72.9394 79.2351 72.77C79.119 72.6006 79.0695 72.3943 79.0962 72.1907C79.1228 71.987 79.2238 71.8004 79.3796 71.6667L81.2529 70.1666L78.6662 71.6667C78.4889 71.7655 78.2815 71.7962 78.083 71.753C77.8846 71.7097 77.7088 71.5955 77.5887 71.4317C77.4685 71.268 77.4123 71.066 77.4306 70.8638C77.4489 70.6615 77.5404 70.4729 77.6879 70.3333L82.3329 66.0833L75.9112 69.7917C75.7269 69.8972 75.5093 69.9284 75.3027 69.8789C75.0962 69.8294 74.9164 69.7029 74.8 69.5252C74.6836 69.3475 74.6394 69.1321 74.6765 68.923C74.7136 68.7139 74.8292 68.5268 74.9996 68.4L75.0412 68.3683L74.2196 68.8433C74.0406 68.9471 73.8294 68.9806 73.6271 68.9372C73.4248 68.8939 73.2458 68.7769 73.125 68.6089C73.0042 68.4409 72.9503 68.234 72.9736 68.0284C72.9969 67.8228 73.0959 67.6333 73.2512 67.4967L78.6129 62.7716L70.6896 67.345C70.5071 67.4501 70.2916 67.4822 70.0864 67.4348C69.8813 67.3875 69.7016 67.2643 69.5836 67.0899C69.4656 66.9155 69.4179 66.7029 69.4503 66.4948C69.4826 66.2868 69.5925 66.0987 69.7579 65.9683L73.7479 62.8467L67.5196 66.4417C67.3342 66.5474 67.1154 66.578 66.9082 66.5271C66.7009 66.4763 66.5211 66.3479 66.4057 66.1684C66.2903 65.9889 66.2482 65.772 66.288 65.5624C66.3277 65.3528 66.4464 65.1664 66.6196 65.0417L67.4346 64.4616L64.8246 65.9617C64.6396 66.0678 64.421 66.099 64.2138 66.0488C64.0065 65.9987 63.8264 65.871 63.7104 65.692C63.5945 65.5131 63.5515 65.2965 63.5904 65.0868C63.6293 64.8772 63.7471 64.6904 63.9196 64.565L66.7529 62.515L61.2079 65.7167C61.1131 65.7722 61.0082 65.8085 60.8994 65.8234C60.7905 65.8383 60.6797 65.8315 60.5735 65.8034C60.4672 65.7753 60.3676 65.7265 60.2803 65.6597C60.193 65.593 60.1197 65.5096 60.0648 65.4144C60.0098 65.3193 59.9742 65.2141 59.9601 65.1052C59.9459 64.9962 59.9534 64.8855 59.9822 64.7794C60.011 64.6733 60.0605 64.574 60.1279 64.4872C60.1952 64.4003 60.279 64.3276 60.3746 64.2733L79.8329 53.0433C80.018 52.9341 80.238 52.9006 80.4472 52.9498C80.6563 52.999 80.8384 53.127 80.9554 53.3073C81.0724 53.4875 81.1152 53.7059 81.075 53.917C81.0348 54.128 80.9146 54.3154 80.7396 54.44L77.9062 56.4933L81.6896 54.31C81.8749 54.2043 82.0938 54.1737 82.301 54.2245C82.5082 54.2753 82.6881 54.4037 82.8035 54.5832C82.9189 54.7627 82.961 54.9796 82.9212 55.1892C82.8814 55.3989 82.7627 55.5853 82.5896 55.71L81.7712 56.2917L83.1762 55.4817C83.3587 55.3766 83.5742 55.3445 83.7794 55.3918C83.9846 55.4391 84.1642 55.5624 84.2822 55.7367C84.4003 55.9111 84.4479 56.1237 84.4155 56.3318C84.3832 56.5399 84.2733 56.728 84.1079 56.8583L80.1162 59.9816L85.0179 57.1483C85.1969 57.0446 85.4081 57.0111 85.6104 57.0544C85.8127 57.0977 85.9917 57.2148 86.1125 57.3828C86.2332 57.5507 86.2872 57.7576 86.2639 57.9632C86.2406 58.1688 86.1416 58.3583 85.9862 58.495L80.6279 63.2167L87.1496 59.4517C87.3339 59.3461 87.5515 59.3149 87.7581 59.3644C87.9646 59.4139 88.1445 59.5404 88.2609 59.7181C88.3773 59.8958 88.4214 60.1112 88.3843 60.3203C88.3472 60.5295 88.2317 60.7165 88.0612 60.8433L88.0179 60.875L88.2012 60.77C88.3786 60.6711 88.586 60.6404 88.7845 60.6837C88.9829 60.7269 89.1587 60.8412 89.2788 61.0049C89.399 61.1686 89.4552 61.3706 89.4369 61.5729C89.4186 61.7751 89.3271 61.9638 89.1796 62.1033L84.5129 66.3433L89.8979 63.2333C90.0801 63.1252 90.2966 63.0905 90.5034 63.1363C90.7102 63.1821 90.8918 63.3049 91.0113 63.4798C91.1308 63.6547 91.1792 63.8685 91.1467 64.0779C91.1142 64.2872 91.0032 64.4763 90.8362 64.6067L88.9629 66.1067L90.9362 64.9667C91.1162 64.8609 91.3293 64.8266 91.5334 64.8704C91.7374 64.9143 91.9176 65.0331 92.0383 65.2034C92.159 65.3737 92.2113 65.5831 92.185 65.7902C92.1587 65.9973 92.0557 66.1869 91.8962 66.3216L89.0079 68.8L92.0396 67.05C92.2148 66.9514 92.4198 66.9195 92.6168 66.9603C92.8137 67.001 92.9893 67.1115 93.1111 67.2715C93.2329 67.4315 93.2927 67.6301 93.2796 67.8308C93.2665 68.0314 93.1812 68.2206 93.0396 68.3633L88.9496 72.4283L93.3112 69.91C93.4887 69.8098 93.6967 69.778 93.8959 69.8208C94.0952 69.8636 94.2719 69.9778 94.3925 70.142C94.5132 70.3063 94.5696 70.509 94.5509 70.7119C94.5322 70.9148 94.4399 71.1039 94.2912 71.2433L91.4346 73.8633L94.2012 72.2667C94.3769 72.1653 94.5835 72.1316 94.7824 72.1717C94.9812 72.2118 95.1585 72.323 95.2812 72.4845C95.4039 72.646 95.4634 72.8467 95.4487 73.049C95.434 73.2513 95.346 73.4413 95.2012 73.5833L92.0762 76.645L95.0579 74.9233C95.2354 74.8217 95.444 74.7889 95.6441 74.8311C95.8442 74.8734 96.0218 74.9877 96.1431 75.1524C96.2643 75.3171 96.3208 75.5206 96.3017 75.7242C96.2826 75.9279 96.1893 76.1174 96.0396 76.2567L93.9996 78.1433L95.6662 77.18C95.8454 77.0759 96.057 77.0423 96.2596 77.0857C96.4622 77.1292 96.6414 77.2465 96.7622 77.415C96.8829 77.5834 96.9366 77.7908 96.9127 77.9966C96.8888 78.2025 96.789 78.392 96.6329 78.5283L95.7496 79.2983L96.1096 79.0917C96.2825 78.9937 96.4846 78.9608 96.6796 78.9988C96.8746 79.0368 97.0496 79.1432 97.1731 79.2989C97.2966 79.4545 97.3604 79.6491 97.353 79.8477C97.3456 80.0462 97.2676 80.2356 97.1329 80.3817L94.4046 83.2933L96.6662 81.985C96.8355 81.8873 97.0338 81.8522 97.2263 81.8858C97.4188 81.9195 97.5934 82.0198 97.7195 82.1691C97.8456 82.3184 97.9152 82.5073 97.9161 82.7028C97.9171 82.8982 97.8493 83.0878 97.7246 83.2383L94.7346 86.8467L97.1746 85.4417C97.3461 85.3437 97.5469 85.3098 97.7411 85.3461C97.9353 85.3825 98.1103 85.4866 98.2348 85.64C98.3593 85.7933 98.4253 85.986 98.421 86.1835C98.4167 86.381 98.3424 86.5705 98.2112 86.7183L96.0996 89.0717L97.4829 88.2733C97.6532 88.175 97.8527 88.14 98.0462 88.1746C98.2398 88.2092 98.4149 88.3111 98.5405 88.4623C98.6662 88.6135 98.7344 88.8043 98.733 89.0009C98.7316 89.1975 98.6607 89.3873 98.5329 89.5367L96.4996 91.915L97.7062 91.2183C97.8698 91.1238 98.0606 91.0877 98.2474 91.1158C98.4341 91.144 98.6058 91.2347 98.7343 91.3732C98.8627 91.5117 98.9403 91.6898 98.9542 91.8781C98.9682 92.0665 98.9178 92.254 98.8112 92.41L96.8596 95.2667L97.8596 94.6883C98.0509 94.5796 98.2774 94.5509 98.4898 94.6085C98.7022 94.6662 98.8831 94.8055 98.9931 94.9961C99.1032 95.1866 99.1334 95.413 99.0771 95.6258C99.0209 95.8385 98.8827 96.0204 98.6929 96.1317L94.5262 98.54C94.3989 98.6145 94.2538 98.6531 94.1062 98.6517Z" fill="#EC3361"/>
<path d="M54.9301 71.735C54.7708 71.735 54.6148 71.6894 54.4807 71.6035C54.3465 71.5176 54.2398 71.395 54.1732 71.2503C54.1065 71.1056 54.0827 70.9449 54.1046 70.7871C54.1265 70.6293 54.1932 70.4811 54.2968 70.36L56.1501 68.1934L53.2868 69.8467C53.0999 69.9608 52.8756 69.9968 52.6623 69.9468C52.4491 69.8969 52.2641 69.765 52.1474 69.5797C52.0306 69.3944 51.9915 69.1706 52.0385 68.9567C52.0855 68.7428 52.2148 68.556 52.3984 68.4367L59.1451 63.82L51.4484 68.2634C51.2613 68.3718 51.0393 68.4033 50.8293 68.351C50.6194 68.2988 50.438 68.167 50.3235 67.9834C50.209 67.7999 50.1704 67.579 50.2158 67.3675C50.2612 67.156 50.387 66.9704 50.5668 66.85L54.6201 64.125L49.8451 66.8834C49.6614 66.9886 49.4446 67.02 49.2386 66.9712C49.0326 66.9223 48.8529 66.7969 48.736 66.6204C48.6192 66.4439 48.5738 66.2296 48.6092 66.0209C48.6447 65.8121 48.7582 65.6247 48.9268 65.4967L59.7284 57.365L47.1968 64.6C47.0123 64.7041 46.7951 64.7341 46.5894 64.6838C46.3837 64.6335 46.2048 64.5068 46.0891 64.3294C45.9734 64.152 45.9297 63.9372 45.9667 63.7286C46.0037 63.5201 46.1188 63.3335 46.2884 63.2067L54.2501 57.3817L45.0118 62.715C44.8272 62.8216 44.6088 62.8535 44.4015 62.804C44.1942 62.7546 44.0137 62.6276 43.8972 62.4491C43.7807 62.2707 43.7369 62.0544 43.775 61.8447C43.813 61.635 43.93 61.4478 44.1018 61.3217L50.1851 56.865L43.0184 61C42.8326 61.1086 42.6119 61.141 42.4026 61.0905C42.1934 61.0401 42.0118 60.9105 41.8959 60.7292C41.78 60.5478 41.7388 60.3286 41.7809 60.1175C41.823 59.9064 41.9452 59.7197 42.1218 59.5967L44.3418 58.0334L41.4934 59.6784C41.3077 59.7837 41.0886 59.8138 40.8813 59.7623C40.674 59.7108 40.4945 59.5817 40.3796 59.4017C40.2648 59.2216 40.2235 59.0043 40.2642 58.7947C40.3049 58.585 40.4245 58.399 40.5984 58.275L44.0818 55.8334L40.5084 57.895C40.3258 57.9987 40.1108 58.0296 39.9063 57.9816C39.7019 57.9335 39.5231 57.8101 39.4058 57.6359C39.2885 57.4617 39.2413 57.2496 39.2736 57.0421C39.3059 56.8346 39.4154 56.647 39.5801 56.5167L48.9584 49.1984L47.0834 50.28C46.9004 50.383 46.6853 50.4131 46.4811 50.3643C46.2768 50.3155 46.0985 50.1914 45.9819 50.0168C45.8652 49.8422 45.8187 49.63 45.8518 49.4227C45.8848 49.2153 45.9949 49.028 46.1601 48.8984L52.6318 43.9417C52.5841 43.7644 52.5963 43.5762 52.6665 43.4065C52.7367 43.2369 52.861 43.0951 53.0201 43.0034L56.4801 41.0034C56.663 40.9023 56.8772 40.8736 57.0803 40.9231C57.2834 40.9725 57.4604 41.0965 57.5764 41.2703C57.6924 41.4442 57.7388 41.6552 57.7064 41.8617C57.6741 42.0682 57.5654 42.255 57.4018 42.385L57.3401 42.4334L58.4918 41.7667C58.6744 41.663 58.8894 41.6321 59.0939 41.6802C59.2983 41.7282 59.4771 41.8517 59.5944 42.0259C59.7117 42.2 59.7589 42.4121 59.7266 42.6196C59.6943 42.8271 59.5848 43.0148 59.4201 43.145L50.0401 50.4667L59.5401 44.9784C59.7259 44.873 59.945 44.8429 60.1522 44.8944C60.3595 44.9459 60.5391 45.075 60.6539 45.2551C60.7688 45.4351 60.8101 45.6524 60.7694 45.8621C60.7286 46.0717 60.609 46.2577 60.4351 46.3817L56.9568 48.8234L59.5718 47.315C59.7573 47.2108 59.9756 47.1815 60.182 47.2331C60.3884 47.2847 60.5673 47.4133 60.6819 47.5925C60.7966 47.7717 60.8383 47.988 60.7986 48.197C60.7589 48.4061 60.6408 48.592 60.4684 48.7167L58.2484 50.28L62.5951 47.77C62.7797 47.6634 62.998 47.6316 63.2053 47.681C63.4127 47.7305 63.5931 47.8575 63.7097 48.0359C63.8262 48.2144 63.87 48.4307 63.8319 48.6404C63.7939 48.8501 63.6769 49.0372 63.5051 49.1634L57.4268 53.6184L66.7601 48.23C66.9445 48.1281 67.1606 48.0998 67.3649 48.1508C67.5693 48.2018 67.7468 48.3283 67.8617 48.5049C67.9766 48.6814 68.0204 48.8949 67.9842 49.1024C67.948 49.31 67.8346 49.4961 67.6668 49.6234L59.7168 55.4484L70.7401 49.0817C70.9238 48.9765 71.1406 48.9451 71.3466 48.9939C71.5526 49.0427 71.7323 49.1681 71.8492 49.3446C71.9661 49.5211 72.0114 49.7355 71.976 49.9442C71.9405 50.1529 71.827 50.3403 71.6584 50.4684L60.8518 58.605L74.9001 50.5C75.0875 50.3829 75.3138 50.345 75.5292 50.3947C75.7445 50.4444 75.9313 50.5776 76.0484 50.765C76.1656 50.9525 76.2035 51.1787 76.1538 51.3941C76.1041 51.6094 75.9709 51.7962 75.7834 51.9134L71.7334 54.6334L77.1368 51.515C77.3235 51.4067 77.545 51.375 77.7546 51.4267C77.9642 51.4784 78.1456 51.6094 78.2605 51.7922C78.3754 51.9749 78.415 52.1952 78.3707 52.4065C78.3265 52.6178 78.202 52.8037 78.0234 52.925L60.7351 64.7584C60.7871 64.8979 60.8007 65.0487 60.7746 65.1953C60.7485 65.3418 60.6837 65.4787 60.5868 65.5917L58.7334 67.7584L59.5368 67.295C59.7272 67.1954 59.9488 67.1732 60.1552 67.2331C60.3617 67.293 60.537 67.4303 60.6445 67.6164C60.7521 67.8025 60.7836 68.0229 60.7325 68.2317C60.6813 68.4405 60.5515 68.6214 60.3701 68.7367L55.3468 71.6384C55.219 71.7071 55.0751 71.7405 54.9301 71.735Z" fill="#EC3361"/>
<path d="M86.2069 8.07833C86.2069 6.49 86.9352 2.51333 85.2952 1.46999C75.2752 0.349994 64.7319 1.47833 54.5485 1.09166C37.7152 1.24166 20.8419 0.838328 4.0152 1.09166C2.43854 1.17666 0.736871 1.77333 0.468538 3.51833C3.83354 65.735 -15.4998 54.91 39.0202 55.575C38.9869 62.3667 48.7652 65.575 52.7269 70.5433C56.5169 74.7917 62.4035 71.1883 61.2269 65.8767C77.2152 66.3767 88.1285 80.7433 91.4502 95.36C91.9085 97.1717 92.5385 98.7533 94.6285 99.0967C108.02 99.0483 91.8785 58.1267 84.1285 55.285C86.1769 54.9117 86.4169 52.5683 86.2002 50.77L86.2069 8.07833ZM94.3502 76.0683C94.9502 79.3683 100.402 98.72 94.4885 96.6767C91.2602 80.6767 76.7152 60.4117 58.7835 65.1133C59.3869 69.3567 58.0302 73.335 53.9985 68.695C51.1785 64.4767 36.6319 58.77 43.2635 53.59C47.4302 50.09 51.4752 46.3783 55.6485 42.9133C59.1052 40.7233 58.7852 46.7383 58.7852 48.4483C74.8335 49.3633 90.6985 58.77 94.3502 76.0683ZM9.54021 29.255C9.76187 25.2183 9.11187 20.8817 9.76187 16.9767C13.1669 16.1067 18.6185 12.985 17.3569 8.795C34.0585 8.95 50.7619 8.795 67.4669 8.85C68.4669 8.91 68.6085 9.085 68.9669 10.31C69.2642 11.6136 69.8515 12.8334 70.6851 13.8788C71.5187 14.9242 72.5772 15.7683 73.7819 16.3483C75.1269 16.9667 77.0502 16.8233 77.1335 18.5617C77.3002 25.5133 77.3752 32.7183 76.9919 39.595C73.6585 40.4283 68.0085 43.9283 69.2519 47.66C69.2511 47.6876 69.2558 47.7151 69.2658 47.7409C69.2759 47.7667 69.2909 47.7902 69.3102 47.81C66.7469 48.2817 63.8769 47.4767 61.2419 47.55C62.1119 35.3833 51.5419 43.0983 47.2235 47.8167C41.3569 46.7133 19.5569 50.24 17.6385 46.0617C13.6085 35.5 7.8202 45.5233 9.54021 29.255ZM73.6869 49.5217C72.4102 49.1105 71.1122 48.7688 69.7985 48.4983C79.7702 30.765 79.9335 51.8483 79.5402 22.815C81.5952 12.845 73.9502 18.1317 71.6119 10.5583C71.1552 9.13166 71.2785 7.965 69.5319 7.81666C52.5902 7.65 35.5535 7.83166 18.5952 7.81666C14.6035 7.63833 15.5669 12.3167 13.1419 14.2833C9.05687 17.3917 5.99687 15.3433 7.12687 22.3983C7.86854 28.0833 5.58687 35.3633 7.96021 40.4133C9.61171 40.5997 11.1724 41.2661 12.4491 42.3301C13.7258 43.3941 14.6626 44.8091 15.1435 46.4C16.2619 51.9433 39.9885 47.5117 46.0285 48.85C43.9569 50.7833 41.6952 52.3767 39.7069 54.425H5.66687C4.34687 54.425 3.24187 54.7233 2.8752 53.01C3.26354 36.31 2.3752 18.4367 3.2752 2.24166C29.1335 2.22499 55.1535 2.25333 81.0652 2.24166C87.0519 1.79999 82.5485 23.3117 83.7969 28.2417C83.1535 36.6167 85.0585 46.9733 83.1019 54.43C80.2577 52.2827 77.0759 50.6239 73.6869 49.5217Z" fill="#4F030C"/>
<path d="M45.3185 38.93C55.9852 37.36 57.8752 21.5517 47.3802 18.1417C29.5502 12.6883 26.3568 41.635 45.3185 38.93ZM35.7568 23.54C40.0352 15.4717 52.3802 19.7717 52.1152 28.445C51.3735 44.0783 28.9185 36.7883 35.7568 23.54Z" fill="#262626"/>
</g>
<defs>
<clipPath id="clip0_1090_500">
<rect width="100" height="100" fill="white"/>
</clipPath>
</defs>
</svg>
