<svg width="76" height="88" viewBox="0 0 76 88" fill="none" xmlns="http://www.w3.org/2000/svg">
<path d="M13 25.25V62.75H63V28.375C59.4984 28.375 56.2734 27.2031 53.6656 25.25H13Z" fill="#EC3361"/>
<path d="M47.375 8.0625L38 0.25V6.5C17.2891 6.5 0.5 23.2891 0.5 44C0.5 60.05 10.5859 73.7375 24.7625 79.0891L27.5609 76.7562C13.6812 72.3359 3.625 59.3453 3.625 44C3.625 25.0156 19.0156 9.625 38 9.625V15.875L47.375 8.0625Z" fill="#BA284C"/>
<path d="M13 25.25H19.25V62.75H13V25.25Z" fill="#BA284C"/>
<path d="M34.875 25.25V34.625L38 31.5L41.125 34.625V25.25H34.875Z" fill="#5C0510"/>
<path d="M47.375 53.375H56.75V56.5H47.375V53.375Z" fill="#F0F0F0"/>
<path d="M47.375 47.125H56.75V50.25H47.375V47.125Z" fill="#F0F0F0"/>
<path d="M68.1344 27.4906C70.8266 32.3921 72.375 38.0125 72.375 44C72.375 62.9843 56.9844 78.375 38 78.375V72.125L28.625 79.9375L38 87.75V81.5C58.7109 81.5 75.5 64.7109 75.5 44C75.5 37.539 73.8438 31.4734 70.9656 26.1687C70.0734 26.6984 69.1281 27.1437 68.1344 27.4906Z" fill="#EC3361"/>
<path d="M63 25.25C69.9036 25.25 75.5 19.6536 75.5 12.75C75.5 5.84644 69.9036 0.25 63 0.25C56.0964 0.25 50.5 5.84644 50.5 12.75C50.5 19.6536 56.0964 25.25 63 25.25Z" fill="#EC3361"/>
<path d="M53.625 12.75C53.625 6.37656 58.3984 1.12812 64.5625 0.357812C64.05 0.29375 63.5297 0.25 63 0.25C56.0969 0.25 50.5 5.84687 50.5 12.75C50.5 19.6531 56.0969 25.25 63 25.25C63.5297 25.25 64.05 25.2062 64.5625 25.1422C58.3984 24.3719 53.625 19.1234 53.625 12.75Z" fill="#BA284C"/>
<path d="M70.8125 9.625L61.4375 19L55.1875 12.75L58.3125 9.625L61.4375 12.75L67.6875 6.5L70.8125 9.625Z" fill="#F0F0F0"/>
</svg>
