<svg width="82" height="82" viewBox="0 0 82 82" fill="none" xmlns="http://www.w3.org/2000/svg">
<g clip-path="url(#clip0_1090_538)">
<path d="M37.9522 19.8582C36.7047 19.8582 35.6934 37.8905 35.6934 39.1379C35.6934 39.9328 36.105 40.6306 36.7257 41.0331L59.9959 64.3033C63.9217 60.5245 66.8774 55.7463 68.4554 50.3778C63.2591 45.2194 37.9522 19.8582 37.9522 19.8582Z" fill="url(#paint0_linear_1090_538)"/>
<path d="M37.9529 43.1936C38.9451 43.1936 39.7495 42.3892 39.7495 41.397C39.7495 40.4047 38.9451 39.6003 37.9529 39.6003C36.9606 39.6003 36.1562 40.4047 36.1562 41.397C36.1562 42.3892 36.9606 43.1936 37.9529 43.1936Z" fill="url(#paint1_linear_1090_538)"/>
<path d="M37.9522 16.147C37.734 16.147 37.5366 16.2354 37.3935 16.3784C37.2507 16.5213 37.1621 16.7187 37.1621 16.937V22.7294C37.1621 22.8929 37.2118 23.0449 37.297 23.1709C37.3537 23.255 37.4262 23.3276 37.5103 23.3843C37.5523 23.4128 37.5973 23.4371 37.6445 23.4571C37.739 23.497 37.8429 23.5193 37.9518 23.5193C38.17 23.5193 38.3674 23.4309 38.5105 23.2879C38.6533 23.1448 38.7419 22.9475 38.7419 22.7292V16.9369C38.7421 16.5006 38.3883 16.147 37.9522 16.147Z" fill="#EC3361"/>
<path d="M37.952 59.2742C37.5157 59.2742 37.1621 59.628 37.1621 60.0641V65.8564C37.1621 65.9317 37.1759 66.003 37.1956 66.0718C37.2898 66.4026 37.591 66.6463 37.9518 66.6463C38.0609 66.6463 38.1648 66.6241 38.2592 66.5842C38.5427 66.4642 38.7417 66.1835 38.7417 65.8563V60.0639C38.7419 59.6278 38.3881 59.2742 37.952 59.2742Z" fill="#EC3361"/>
<path d="M62.4123 40.6068H56.62C56.1837 40.6068 55.8301 40.9604 55.8301 41.3967C55.8301 41.833 56.1837 42.1866 56.62 42.1866H62.4123C62.8486 42.1866 63.2022 41.833 63.2022 41.3967C63.2024 40.9604 62.8486 40.6068 62.4123 40.6068Z" fill="#EC3361"/>
<path d="M20.0756 41.3966C20.0756 41.2331 20.0259 41.0809 19.9407 40.9549C19.884 40.8708 19.8115 40.7982 19.7274 40.7415C19.6014 40.6563 19.4494 40.6067 19.2857 40.6067H13.4932C13.275 40.6067 13.0776 40.6951 12.9346 40.8381C12.7917 40.9811 12.7031 41.1784 12.7031 41.3967C12.7031 41.833 13.0567 42.1866 13.493 42.1866H19.2854C19.5035 42.1866 19.701 42.0982 19.844 41.9552C19.987 41.8122 20.0756 41.6149 20.0756 41.3966Z" fill="#EC3361"/>
<path d="M51.7118 28.7552L55.8077 24.6594C56.1161 24.3509 56.1161 23.8508 55.8077 23.5423C55.4992 23.2337 54.999 23.2339 54.6906 23.5423L50.5947 27.6382C50.2861 27.9468 50.2861 28.4468 50.5947 28.7552C50.9032 29.0637 51.4034 29.0637 51.7118 28.7552Z" fill="#EC3361"/>
<path d="M25.3106 54.038C25.0022 53.7295 24.502 53.7295 24.1935 54.038L20.0977 58.1338C19.8317 58.3998 19.7964 58.8079 19.9893 59.1133C20.0138 59.1521 20.0431 59.1883 20.0749 59.2232C20.0831 59.2322 20.0889 59.2423 20.0977 59.2511C20.2482 59.4016 20.4444 59.4775 20.6417 59.4811C20.6465 59.4812 20.6513 59.4825 20.6562 59.4825C20.8583 59.4825 21.0604 59.4053 21.2148 59.2511L25.3106 55.1552C25.4262 55.0396 25.4986 54.8971 25.5275 54.7476C25.5371 54.6978 25.5419 54.6474 25.5419 54.5968C25.542 54.3943 25.465 54.1921 25.3106 54.038Z" fill="#EC3361"/>
<path d="M55.8075 58.1337L51.7117 54.0379C51.6153 53.9415 51.4993 53.8788 51.3773 53.8426C51.2599 53.8079 51.1369 53.7986 51.0168 53.8194C50.8622 53.8465 50.7141 53.9182 50.5947 54.0375C50.2861 54.3462 50.2861 54.8462 50.5947 55.1546L54.6906 59.2505C54.7369 59.2968 54.7883 59.3337 54.8419 59.3661C55.1456 59.5496 55.5455 59.5128 55.8078 59.2505C55.9336 59.1247 56.0053 58.9667 56.0284 58.8032C56.0618 58.5661 55.9903 58.3166 55.8075 58.1337Z" fill="#EC3361"/>
<path d="M21.2157 23.5425C21.0615 23.3882 20.8592 23.311 20.6571 23.311C20.6066 23.311 20.556 23.3158 20.5062 23.3254C20.3568 23.3544 20.2142 23.4265 20.0986 23.5423C19.9444 23.6965 19.8672 23.8988 19.8672 24.1009C19.8672 24.1514 19.872 24.202 19.8816 24.2518C19.9106 24.4012 19.9827 24.5438 20.0985 24.6594L24.1943 28.7552C24.2013 28.7623 24.2097 28.7669 24.217 28.7736C24.2891 28.8406 24.3693 28.8936 24.4557 28.9287C24.5506 28.9673 24.6519 28.9865 24.7529 28.9865C24.955 28.9865 25.1573 28.9093 25.3115 28.7551C25.4272 28.6394 25.4996 28.4967 25.5284 28.3475C25.538 28.2977 25.5428 28.2472 25.5428 28.1966C25.5428 27.9945 25.4656 27.7922 25.3114 27.638L21.2157 23.5425Z" fill="#EC3361"/>
<path d="M66.6949 54.9979C66.2911 55.8533 65.8494 56.6866 65.3702 57.4962C64.4155 59.1213 63.3215 60.6529 62.1002 62.0751C60.8232 63.5648 59.4108 64.9355 57.8833 66.1687L35.5178 43.8314C34.1712 42.4867 34.1712 40.3066 35.5178 38.962C35.5773 38.9024 35.6371 38.8465 35.7007 38.7928C36.9894 37.6711 38.915 37.6711 40.2039 38.7928C40.2677 38.8465 40.3273 38.9022 40.3868 38.962C40.4464 39.0215 40.5061 39.0853 40.5579 39.149H40.5598C40.5995 39.1509 40.6394 39.153 40.6831 39.155C40.7587 39.1609 40.8423 39.1649 40.9317 39.1708C41.4011 39.2006 42.0436 39.2504 42.7895 39.318C43.0123 39.3379 43.245 39.3598 43.4857 39.3837C43.6587 39.4014 43.8358 39.4174 44.0168 39.4373C44.17 39.4532 44.3252 39.4692 44.4841 39.485C44.5994 39.4969 44.7168 39.511 44.8342 39.5228C45.0213 39.5427 45.2082 39.5646 45.3972 39.5866C46.2963 39.69 47.2271 39.8073 48.1161 39.9388C48.2375 39.9565 48.3588 39.9746 48.4782 39.9943C48.496 39.9963 48.516 39.9983 48.5338 40.0023C48.673 40.0243 48.8104 40.0461 48.9456 40.0661C49.0808 40.0899 49.2142 40.1119 49.3455 40.1337C49.4329 40.1495 49.5205 40.1636 49.608 40.1795C49.7412 40.2033 49.8745 40.2272 50.0058 40.2531C50.0715 40.265 50.1371 40.277 50.2007 40.289C50.3359 40.3169 50.4651 40.3427 50.5926 40.3686C50.6323 40.3766 50.6703 40.3845 50.7081 40.3925C50.7598 40.4043 50.8116 40.4165 50.8614 40.4263C50.8852 40.4303 50.9091 40.4362 50.933 40.4421C51.0066 40.4599 51.0801 40.4759 51.1496 40.4918C51.1993 40.5036 51.247 40.5158 51.2928 40.5256C51.4778 40.5733 51.6509 40.6189 51.814 40.6647C51.8518 40.6766 51.8896 40.6886 51.9254 40.6985C51.9554 40.7065 51.9831 40.7163 52.011 40.7245C52.0528 40.7384 52.0925 40.7524 52.1324 40.7644C52.1463 40.7684 52.1602 40.7722 52.1742 40.7783C52.2538 40.8062 52.3274 40.8319 52.3969 40.8598C52.4029 40.8617 52.4088 40.8657 52.4168 40.8677C52.4546 40.8835 52.4924 40.8995 52.5283 40.9135C52.6138 40.9513 52.6894 40.9871 52.7571 41.0249C52.7871 41.0427 52.8127 41.0587 52.8387 41.0746C52.9221 41.1282 52.9858 41.182 53.0276 41.2357C53.0416 41.2496 53.0515 41.2657 53.0595 41.2794C53.0614 41.2834 53.0635 41.2854 53.0635 41.2874C53.0734 41.3052 53.0813 41.3233 53.0855 41.343C53.0914 41.3608 53.0933 41.3789 53.0933 41.3967L66.6949 54.9979Z" fill="url(#paint2_linear_1090_538)"/>
<path d="M40.212 43.6554C38.9645 43.6554 37.9531 42.644 37.9531 41.3965C37.9531 40.1491 38.9645 39.1377 40.212 39.1377C41.4594 39.1377 53.0932 40.1491 53.0932 41.3965C53.0933 42.6442 41.4594 43.6554 40.212 43.6554Z" fill="#EC3361"/>
<path d="M40.211 39.1377C40.211 40.3851 39.1997 41.3965 37.9522 41.3965C36.7047 41.3965 35.6934 40.3851 35.6934 39.1377C35.6934 37.8902 36.7047 19.8579 37.9522 19.8579C39.1997 19.8581 40.211 37.8902 40.211 39.1377Z" fill="#EC3361"/>
<path d="M37.9538 44.841C39.8558 44.841 41.3978 43.2991 41.3978 41.397C41.3978 39.4949 39.8558 37.953 37.9538 37.953C36.0517 37.953 34.5098 39.4949 34.5098 41.397C34.5098 43.2991 36.0517 44.841 37.9538 44.841Z" fill="#EC3361"/>
<path d="M36.3732 68.6509C35.3926 69.9412 34.9023 71.2621 34.9023 72.613V73.0419C35.9064 73.1375 36.9237 73.1883 37.953 73.1883C45.4996 73.1883 52.4316 70.5586 57.8836 66.1688C59.4112 64.9356 60.8236 63.5649 62.1006 62.0752C62.6164 61.4744 63.1081 60.8532 63.5775 60.2148L51.4692 48.1152C49.5908 46.4401 47.3141 45.6028 44.6395 45.6028C42.115 45.6028 39.9436 46.3465 38.1256 47.8341C36.3071 49.3216 35.3983 51.2376 35.3983 53.5816C35.3983 54.7424 35.7095 55.5205 36.3274 55.9215L43.1877 62.8161L39.9964 65.139C38.5618 66.1901 37.3537 67.3605 36.3732 68.6509Z" fill="url(#paint3_linear_1090_538)"/>
<path d="M34.9023 76.9801V72.613C34.9023 71.2619 35.3926 69.9414 36.3732 68.6509C37.3535 67.3605 38.5616 66.1899 39.9964 65.139L44.324 61.989C45.7667 60.9393 46.9908 59.7843 47.9982 58.5242C49.0047 57.2649 49.5083 56.0046 49.5083 54.7445C49.5083 53.4852 49.0949 52.3827 48.2687 51.4374C47.4418 50.493 46.2324 50.0204 44.6397 50.0204C43.2873 50.0204 42.1899 50.3937 41.3491 51.1394C40.5072 51.8855 40.0868 52.9892 40.0868 54.4508C40.0868 54.9285 39.8536 55.3467 39.388 55.7046C38.9219 56.0626 38.3132 56.2415 37.5622 56.2415C36.1197 56.2415 35.3985 55.3552 35.3985 53.5816C35.3985 51.2376 36.3072 49.3218 38.1258 47.8341C39.9437 46.3465 42.1151 45.6028 44.6397 45.6028C47.3141 45.6028 49.5909 46.4399 51.4694 48.115C53.3471 49.7901 54.2869 51.9544 54.2869 54.6098C54.2869 56.4101 53.7833 58.0972 52.7767 59.672C51.7694 61.247 50.5523 62.5819 49.1252 63.6764C47.6974 64.7717 46.2698 65.8063 44.8428 66.7812C43.415 67.7561 42.1981 68.7386 41.1914 69.7284C40.184 70.7188 39.6812 71.6788 39.6812 72.6085V74.318H52.9345C53.3551 74.318 53.7233 74.5209 54.0389 74.9266C54.3546 75.3324 54.5125 75.8214 54.5125 76.3919C54.5125 76.9631 54.3554 77.4667 54.042 77.902C53.7285 78.3381 53.3629 78.5559 52.9452 78.5559H37.0066C36.529 78.5559 36.0585 78.4057 35.5966 78.1057C35.1334 77.8056 34.9023 77.4308 34.9023 76.9801Z" fill="#EC3361"/>
<path d="M54.6934 69.377C54.6934 69.0474 54.7835 68.7171 54.964 68.3867L65.8732 46.9085C66.3241 46.0381 67.015 45.6029 67.9469 45.6029C68.4573 45.6029 68.9838 45.7829 69.5246 46.1438C70.0655 46.5046 70.3361 46.9402 70.3361 47.4511C70.3361 47.6313 70.2605 47.8722 70.1105 48.1725L60.8243 66.6998H67.4509V60.4431C67.4509 59.385 68.2467 58.8562 69.8401 58.8562C70.5008 58.8562 71.0642 58.9928 71.5306 59.2647C71.9962 59.5367 72.2293 59.9295 72.2293 60.4433V66.7H74.4382C74.9488 66.7 75.3466 66.9234 75.6327 67.3699C75.9179 67.8164 76.0609 68.3371 76.0609 68.9314C76.0609 69.4667 75.8953 69.9654 75.5649 70.426C75.234 70.8873 74.8585 71.1177 74.4381 71.1177H72.2292V76.9681C72.2292 77.4527 71.9883 77.838 71.5078 78.1255C71.0266 78.4127 70.471 78.556 69.8398 78.556C69.1785 78.556 68.6149 78.413 68.1494 78.1255C67.683 77.838 67.4506 77.4527 67.4506 76.9681V71.1177H56.3612C55.88 71.1177 55.4821 70.962 55.1668 70.6494C54.8513 70.3365 54.6934 69.9124 54.6934 69.377Z" fill="#EC3361"/>
<path d="M79.3268 35.954H75.6825H75.5133C72.8653 17.5963 57.032 3.44421 37.9527 3.44421C17.0254 3.44421 0 20.4695 0 41.3966C0 50.0317 2.97843 58.4833 8.38658 65.1944C13.7132 71.8043 21.1781 76.4878 29.406 78.3823C29.6311 78.4343 29.8562 78.459 30.078 78.459C31.4366 78.459 32.665 77.5247 32.9829 76.1443C33.3525 74.5384 32.3506 72.9371 30.7446 72.5675C23.8143 70.9717 17.5243 67.0237 13.0329 61.4504C8.41044 55.7144 5.96726 48.7801 5.96726 41.3969C5.96726 23.76 20.3158 9.41164 37.9527 9.41164C53.7345 9.41164 66.8814 20.9009 69.4727 35.9542H66.3255C63.9486 35.9542 62.7583 38.8279 64.439 40.5084L70.9398 47.0091C71.9816 48.0509 73.6709 48.0509 74.7127 47.0091L81.2135 40.5084C82.894 38.8277 81.7035 35.954 79.3268 35.954Z" fill="#EC3361"/>
</g>
<defs>
<linearGradient id="paint0_linear_1090_538" x1="50.8239" y1="42.2894" x2="16.71" y2="38.4596" gradientUnits="userSpaceOnUse">
<stop stop-color="#C3C3C3" stop-opacity="0"/>
<stop offset="0.267" stop-color="#A4A4A4" stop-opacity="0.267"/>
<stop offset="0.542" stop-color="#8B8B8B" stop-opacity="0.542"/>
<stop offset="0.794" stop-color="#7C7C7C" stop-opacity="0.794"/>
<stop offset="1" stop-color="#777777"/>
</linearGradient>
<linearGradient id="paint1_linear_1090_538" x1="37.952" y1="40.5184" x2="37.952" y2="45.8805" gradientUnits="userSpaceOnUse">
<stop stop-color="#F18D00"/>
<stop offset="1" stop-color="#ED7103"/>
</linearGradient>
<linearGradient id="paint2_linear_1090_538" x1="50.5013" y1="48.755" x2="36.6131" y2="33.5001" gradientUnits="userSpaceOnUse">
<stop stop-color="#C3C3C3" stop-opacity="0"/>
<stop offset="0.267" stop-color="#A4A4A4" stop-opacity="0.267"/>
<stop offset="0.542" stop-color="#8B8B8B" stop-opacity="0.542"/>
<stop offset="0.794" stop-color="#7C7C7C" stop-opacity="0.794"/>
<stop offset="1" stop-color="#777777"/>
</linearGradient>
<linearGradient id="paint3_linear_1090_538" x1="49.5242" y1="66.9139" x2="30.5794" y2="47.9691" gradientUnits="userSpaceOnUse">
<stop stop-color="#C3C3C3" stop-opacity="0"/>
<stop offset="0.267" stop-color="#A4A4A4" stop-opacity="0.267"/>
<stop offset="0.542" stop-color="#8B8B8B" stop-opacity="0.542"/>
<stop offset="0.794" stop-color="#7C7C7C" stop-opacity="0.794"/>
<stop offset="1" stop-color="#777777"/>
</linearGradient>
<clipPath id="clip0_1090_538">
<rect width="82" height="82" fill="white"/>
</clipPath>
</defs>
</svg>
